<svg xmlns="http://www.w3.org/2000/svg" xmlns:xlink="http://www.w3.org/1999/xlink" version="1.1" data-diagram-type="ACTIVITY" style="width:572px;height:575px;background:#FFFFFF;" width="572px" height="575px" viewBox="0 0 572 575" zoomAndPan="magnify" preserveAspectRatio="none" contentStyleType="text/css"><?plantuml 1.2026.7beta3?><defs/><g><g class="title" data-source-line="2"><text x="166.3982" y="32.9951" fill="#000000" font-size="14" lengthAdjust="spacing" textLength="237.7334" font-weight="700" font-family="sans-serif">Ciclo de control con histeresis</text></g><ellipse cx="215.2102" cy="62.2969" rx="10" ry="10" fill="#222222" style="stroke:#222222;stroke-width:1;"/><rect x="89.4583" y="92.2969" width="251.5039" height="33.9688" fill="#F1F1F1" style="stroke:#181818;stroke-width:0.5;" rx="12.5" ry="12.5"/><text x="99.4583" y="113.4355" fill="#000000" font-size="12" lengthAdjust="spacing" textLength="231.5039" font-family="sans-serif">Leer temperatura y humedad (DHT22)</text><rect x="117.8909" y="146.2656" width="194.6387" height="47.9375" fill="#F1F1F1" style="stroke:#181818;stroke-width:0.5;" rx="12.5" ry="12.5"/><text x="127.8909" y="167.4043" fill="#000000" font-size="12" lengthAdjust="spacing" textLength="174.6387" font-family="sans-serif">Obtener configuracion activa</text><text x="127.8909" y="181.373" fill="#000000" font-size="12" lengthAdjust="spacing" textLength="138.2754" font-family="sans-serif">(GET /api/config/latest)</text><polygon points="96.7266,214.2031,333.6938,214.2031,345.6938,226.2031,333.6938,238.2031,96.7266,238.2031,84.7266,226.2031,96.7266,214.2031" fill="#F1F1F1" style="stroke:#181818;stroke-width:0.5;stroke-linejoin:miter;stroke-miterlimit:10;"/><text x="96.7266" y="230.0112" fill="#000000" font-size="11" lengthAdjust="spacing" textLength="236.9673" font-family="sans-serif">Temp >= tempMax  o  Hum >= humMax ?</text><text x="75.9395" y="223.6089" fill="#000000" font-size="11" lengthAdjust="spacing" textLength="8.7871" font-family="sans-serif">si</text><text x="345.6938" y="223.6089" fill="#000000" font-size="11" lengthAdjust="spacing" textLength="13.7017" font-family="sans-serif">no</text><rect x="16" y="248.2031" width="117.4531" height="47.9375" fill="#F1F1F1" style="stroke:#181818;stroke-width:0.5;" rx="12.5" ry="12.5"/><text x="26" y="269.3418" fill="#000000" font-size="12" lengthAdjust="spacing" textLength="97.4531" font-family="sans-serif">Encender cooler</text><text x="26" y="283.3105" fill="#000000" font-size="12" lengthAdjust="spacing" textLength="61.7051" font-family="sans-serif">(relay ON)</text><polygon points="268.1343,248.2031,443.2534,248.2031,455.2534,261.0078,443.2534,273.8125,268.1343,273.8125,256.1343,261.0078,268.1343,248.2031" fill="#F1F1F1" style="stroke:#181818;stroke-width:0.5;stroke-linejoin:miter;stroke-miterlimit:10;"/><text x="268.1343" y="258.4136" fill="#000000" font-size="11" lengthAdjust="spacing" textLength="170.3496" font-family="sans-serif">Temp &lt;= tempMax - histTemp</text><text x="268.1343" y="271.2183" fill="#000000" font-size="11" lengthAdjust="spacing" textLength="175.1191" font-family="sans-serif">y Hum &lt;= humMax - histHum ?</text><text x="247.3472" y="258.4136" fill="#000000" font-size="11" lengthAdjust="spacing" textLength="8.7871" font-family="sans-serif">si</text><text x="455.2534" y="258.4136" fill="#000000" font-size="11" lengthAdjust="spacing" textLength="13.7017" font-family="sans-serif">no</text><rect x="194.2192" y="283.8125" width="103.8301" height="47.9375" fill="#F1F1F1" style="stroke:#181818;stroke-width:0.5;" rx="12.5" ry="12.5"/><text x="204.2192" y="304.9512" fill="#000000" font-size="12" lengthAdjust="spacing" textLength="83.8301" font-family="sans-serif">Apagar cooler</text><text x="204.2192" y="318.9199" fill="#000000" font-size="12" lengthAdjust="spacing" textLength="66.5332" font-family="sans-serif">(relay OFF)</text><rect x="377.9771" y="283.8125" width="174.5527" height="47.9375" fill="#F1F1F1" style="stroke:#181818;stroke-width:0.5;" rx="12.5" ry="12.5"/><text x="387.9771" y="304.9512" fill="#000000" font-size="12" lengthAdjust="spacing" textLength="153.1934" font-family="sans-serif">Mantener estado anterior</text><text x="387.9771" y="318.9199" fill="#000000" font-size="12" lengthAdjust="spacing" textLength="154.5527" font-family="sans-serif">(zona muerta / histeresis)</text><polygon points="355.6938,337.75,367.6938,349.75,355.6938,361.75,343.6938,349.75,355.6938,337.75" fill="#F1F1F1" style="stroke:#181818;stroke-width:0.5;stroke-linejoin:miter;stroke-miterlimit:10;"/><polygon points="215.2102,367.75,227.2102,379.75,215.2102,391.75,203.2102,379.75,215.2102,367.75" fill="#F1F1F1" style="stroke:#181818;stroke-width:0.5;stroke-linejoin:miter;stroke-miterlimit:10;"/><rect x="124.4944" y="411.75" width="181.4316" height="47.9375" fill="#F1F1F1" style="stroke:#181818;stroke-width:0.5;" rx="12.5" ry="12.5"/><text x="134.4944" y="432.8887" fill="#000000" font-size="12" lengthAdjust="spacing" textLength="106.7285" font-family="sans-serif">Publicar medicion</text><text x="134.4944" y="446.8574" fill="#000000" font-size="12" lengthAdjust="spacing" textLength="161.4316" font-family="sans-serif">(POST /api/measurements)</text><rect x="90.0999" y="479.6875" width="250.2207" height="33.9688" fill="#F1F1F1" style="stroke:#181818;stroke-width:0.5;" rx="12.5" ry="12.5"/><text x="100.0999" y="500.8262" fill="#000000" font-size="12" lengthAdjust="spacing" textLength="230.2207" font-family="sans-serif">Esperar measurementIntervalSeconds</text><ellipse cx="215.2102" cy="544.6563" rx="11" ry="11" fill="none" style="stroke:#222222;stroke-width:1;"/><ellipse cx="215.2102" cy="544.6563" rx="6" ry="6" fill="#222222" style="stroke:#222222;stroke-width:1;"/><line x1="215.2102" y1="72.2969" x2="215.2102" y2="92.2969" style="stroke:#181818;stroke-width:1;"/><polygon points="211.2102,82.2969,215.2102,92.2969,219.2102,82.2969,215.2102,86.2969" fill="#181818" style="stroke:#181818;stroke-width:1;stroke-linejoin:miter;stroke-miterlimit:10;"/><line x1="215.2102" y1="126.2656" x2="215.2102" y2="146.2656" style="stroke:#181818;stroke-width:1;"/><polygon points="211.2102,136.2656,215.2102,146.2656,219.2102,136.2656,215.2102,140.2656" fill="#181818" style="stroke:#181818;stroke-width:1;stroke-linejoin:miter;stroke-miterlimit:10;"/><line x1="256.1343" y1="261.0078" x2="246.1343" y2="261.0078" style="stroke:#181818;stroke-width:1;"/><line x1="246.1343" y1="261.0078" x2="246.1343" y2="283.8125" style="stroke:#181818;stroke-width:1;"/><polygon points="242.1343,273.8125,246.1343,283.8125,250.1343,273.8125,246.1343,277.8125" fill="#181818" style="stroke:#181818;stroke-width:1;stroke-linejoin:miter;stroke-miterlimit:10;"/><line x1="455.2534" y1="261.0078" x2="465.2534" y2="261.0078" style="stroke:#181818;stroke-width:1;"/><line x1="465.2534" y1="261.0078" x2="465.2534" y2="283.8125" style="stroke:#181818;stroke-width:1;"/><polygon points="461.2534,273.8125,465.2534,283.8125,469.2534,273.8125,465.2534,277.8125" fill="#181818" style="stroke:#181818;stroke-width:1;stroke-linejoin:miter;stroke-miterlimit:10;"/><line x1="246.1343" y1="331.75" x2="246.1343" y2="349.75" style="stroke:#181818;stroke-width:1;"/><line x1="246.1343" y1="349.75" x2="343.6938" y2="349.75" style="stroke:#181818;stroke-width:1;"/><polygon points="333.6938,345.75,343.6938,349.75,333.6938,353.75,337.6938,349.75" fill="#181818" style="stroke:#181818;stroke-width:1;stroke-linejoin:miter;stroke-miterlimit:10;"/><line x1="465.2534" y1="331.75" x2="465.2534" y2="349.75" style="stroke:#181818;stroke-width:1;"/><line x1="465.2534" y1="349.75" x2="367.6938" y2="349.75" style="stroke:#181818;stroke-width:1;"/><polygon points="377.6938,345.75,367.6938,349.75,377.6938,353.75,373.6938,349.75" fill="#181818" style="stroke:#181818;stroke-width:1;stroke-linejoin:miter;stroke-miterlimit:10;"/><line x1="84.7266" y1="226.2031" x2="74.7266" y2="226.2031" style="stroke:#181818;stroke-width:1;"/><line x1="74.7266" y1="226.2031" x2="74.7266" y2="248.2031" style="stroke:#181818;stroke-width:1;"/><polygon points="70.7266,238.2031,74.7266,248.2031,78.7266,238.2031,74.7266,242.2031" fill="#181818" style="stroke:#181818;stroke-width:1;stroke-linejoin:miter;stroke-miterlimit:10;"/><line x1="345.6938" y1="226.2031" x2="355.6938" y2="226.2031" style="stroke:#181818;stroke-width:1;"/><line x1="355.6938" y1="226.2031" x2="355.6938" y2="248.2031" style="stroke:#181818;stroke-width:1;"/><polygon points="351.6938,238.2031,355.6938,248.2031,359.6938,238.2031,355.6938,242.2031" fill="#181818" style="stroke:#181818;stroke-width:1;stroke-linejoin:miter;stroke-miterlimit:10;"/><line x1="74.7266" y1="296.1406" x2="74.7266" y2="379.75" style="stroke:#181818;stroke-width:1;"/><line x1="74.7266" y1="379.75" x2="203.2102" y2="379.75" style="stroke:#181818;stroke-width:1;"/><polygon points="193.2102,375.75,203.2102,379.75,193.2102,383.75,197.2102,379.75" fill="#181818" style="stroke:#181818;stroke-width:1;stroke-linejoin:miter;stroke-miterlimit:10;"/><line x1="355.6938" y1="361.75" x2="355.6938" y2="379.75" style="stroke:#181818;stroke-width:1;"/><line x1="355.6938" y1="379.75" x2="227.2102" y2="379.75" style="stroke:#181818;stroke-width:1;"/><polygon points="237.2102,375.75,227.2102,379.75,237.2102,383.75,233.2102,379.75" fill="#181818" style="stroke:#181818;stroke-width:1;stroke-linejoin:miter;stroke-miterlimit:10;"/><line x1="215.2102" y1="194.2031" x2="215.2102" y2="214.2031" style="stroke:#181818;stroke-width:1;"/><polygon points="211.2102,204.2031,215.2102,214.2031,219.2102,204.2031,215.2102,208.2031" fill="#181818" style="stroke:#181818;stroke-width:1;stroke-linejoin:miter;stroke-miterlimit:10;"/><line x1="215.2102" y1="391.75" x2="215.2102" y2="411.75" style="stroke:#181818;stroke-width:1;"/><polygon points="211.2102,401.75,215.2102,411.75,219.2102,401.75,215.2102,405.75" fill="#181818" style="stroke:#181818;stroke-width:1;stroke-linejoin:miter;stroke-miterlimit:10;"/><line x1="215.2102" y1="459.6875" x2="215.2102" y2="479.6875" style="stroke:#181818;stroke-width:1;"/><polygon points="211.2102,469.6875,215.2102,479.6875,219.2102,469.6875,215.2102,473.6875" fill="#181818" style="stroke:#181818;stroke-width:1;stroke-linejoin:miter;stroke-miterlimit:10;"/><line x1="215.2102" y1="513.6563" x2="215.2102" y2="533.6563" style="stroke:#181818;stroke-width:1;"/><polygon points="211.2102,523.6563,215.2102,533.6563,219.2102,523.6563,215.2102,527.6563" fill="#181818" style="stroke:#181818;stroke-width:1;stroke-linejoin:miter;stroke-miterlimit:10;"/><?plantuml-src VP71Ji9048Rl-nHpipre4uu5DKP0J418m9kNeHrWakrktTqIyUH3-8G-YREj8j74IpUT-UV_TluzWo7Zrc65K19W4NZF9PQGFCwcANoylKF1XRQnMLWJdDNnX1txG8uyUtXkOiiv0Z90-bk6fNKNAd3G1BV_MoZb0xgWyYcHWq1LJGv3un0Ei6igQkypdAnwlRIlylawa16TU6nuAwg2nQszEJwPv6wqWWnhphf-fZ6G3pAeU0F9IipXwhA5pF05m09CcYgMX1Ghroc4dMoIU4uLG3uo1PcovLbDJWYED1vW_Y2Uf3r1OcnK7kq7F_RdxPQn-cGEBMXm17MzMFk55EXDZLlyYnoFXGbmIXNn34sNYEmfgKFyTMpZtAir25L3BY1a9ubtDgRaZUg-AbyqQys5G2LlZf7A-6A-_0gp8lIDeufCYCFvoCStYk9Z_JvYzwYN9CcNlY-FQkjF?></g></svg>