<svg xmlns="http://www.w3.org/2000/svg" xmlns:xlink="http://www.w3.org/1999/xlink" version="1.1" data-diagram-type="ACTIVITY" style="width:853px;height:662px;background:#FFFFFF;" width="853px" height="662px" viewBox="0 0 853 662" zoomAndPan="magnify" preserveAspectRatio="none" contentStyleType="text/css"><?plantuml 1.2026.7beta8?><defs/><g font-family="sans-serif" lengthAdjust="spacing"><g class="title" data-source-line="5"><text x="133.513" y="35.421" fill="#000" font-size="22" textLength="584.257" font-weight="700" font-family="Verdana">Ley de control (OpenPLC, control_histeresis.st)</text></g><ellipse cx="410.725" cy="66.609" rx="10" ry="10" fill="#FFF" style="stroke:#000;stroke-width:1;"/><rect x="309.348" y="96.609" width="202.754" height="47.938" fill="#FFF" style="stroke:#000;stroke-width:1;" rx="12.5" ry="12.5"/><text x="319.348" y="117.748" fill="#000" font-size="12" textLength="133.553" font-family="Verdana">Leer registros Modbus</text><text x="319.348" y="131.717" fill="#000" font-size="12" textLength="182.754" font-family="Verdana">(temp, umbralOFF, umbralON)</text><rect x="335.135" y="214.559" width="151.18" height="47.938" fill="#FFF" style="stroke:#000;stroke-width:1;" rx="12.5" ry="12.5"/><text x="345.135" y="235.697" fill="#000" font-size="12" textLength="99.697" font-family="Verdana">cooler := FALSE;</text><text x="345.135" y="249.666" fill="#000" font-size="12" textLength="131.18" font-family="Verdana">Estado := 3 (fail-safe)</text><ellipse cx="410.725" cy="294.625" rx="11" ry="11" fill="none" style="stroke:#000;stroke-width:1;"/><ellipse cx="410.725" cy="294.625" rx="6" ry="6" fill="#FFF" style="stroke:#000;stroke-width:1;"/><polygon points="340.24,164.547,481.21,164.547,493.21,177.352,481.21,190.156,340.24,190.156,328.24,177.352,340.24,164.547" fill="#FFF" style="stroke:#000;stroke-width:1;stroke-linejoin:miter;stroke-miterlimit:10;"/><text x="414.725" y="200.367" fill="#000" font-size="11" textLength="13.702" font-family="Verdana">no</text><text x="340.24" y="174.757" fill="#000" font-size="11" textLength="76.839" font-family="Verdana">banda valida?</text><text x="340.24" y="187.562" fill="#000" font-size="11" textLength="140.97" font-family="Verdana">(umbralON > umbralOFF)</text><text x="493.21" y="174.757" fill="#000" font-size="11" textLength="8.787" font-family="Verdana">si</text><polygon points="360.492,347.625,460.958,347.625,472.958,359.625,460.958,371.625,360.492,371.625,348.492,359.625,360.492,347.625" fill="#FFF" style="stroke:#000;stroke-width:1;stroke-linejoin:miter;stroke-miterlimit:10;"/><text x="360.492" y="363.433" fill="#000" font-size="11" textLength="100.466" font-family="Verdana">cooler encendido?</text><text x="339.705" y="357.031" fill="#000" font-size="11" textLength="8.787" font-family="Verdana">si</text><text x="472.958" y="357.031" fill="#000" font-size="11" textLength="13.702" font-family="Verdana">no</text><polygon points="105.13,381.625,278.546,381.625,290.546,394.43,278.546,407.234,105.13,407.234,93.13,394.43,105.13,381.625" fill="#FFF" style="stroke:#000;stroke-width:1;stroke-linejoin:miter;stroke-miterlimit:10;"/><text x="105.13" y="391.835" fill="#000" font-size="11" textLength="114.506" font-family="Verdana">temp &lt;= umbralOFF</text><text x="105.13" y="404.64" fill="#000" font-size="11" textLength="173.417" font-family="Verdana">y min ON cumplido (TON 15 s)?</text><text x="84.343" y="391.835" fill="#000" font-size="11" textLength="8.787" font-family="Verdana">si</text><text x="290.546" y="391.835" fill="#000" font-size="11" textLength="13.702" font-family="Verdana">no</text><rect x="11" y="417.234" width="144.26" height="47.938" fill="#FFF" style="stroke:#000;stroke-width:1;" rx="12.5" ry="12.5"/><text x="21" y="438.373" fill="#000" font-size="12" textLength="99.697" font-family="Verdana">cooler := FALSE;</text><text x="21" y="452.342" fill="#000" font-size="12" textLength="124.26" font-family="Verdana">Estado := 0 (reposo)</text><rect x="202.796" y="417.234" width="195.5" height="47.938" fill="#FFF" style="stroke:#000;stroke-width:1;" rx="12.5" ry="12.5"/><text x="212.796" y="438.373" fill="#000" font-size="12" textLength="83.338" font-family="Verdana">mantiene ON;</text><text x="212.796" y="452.342" fill="#000" font-size="12" textLength="175.5" font-family="Verdana">Estado := 1 o 2 (anti-ciclado)</text><polygon points="191.838,471.172,203.838,483.172,191.838,495.172,179.838,483.172,191.838,471.172" fill="#FFF" style="stroke:#000;stroke-width:1;stroke-linejoin:miter;stroke-miterlimit:10;"/><polygon points="540.691,381.625,718.533,381.625,730.533,394.43,718.533,407.234,540.691,407.234,528.691,394.43,540.691,381.625" fill="#FFF" style="stroke:#000;stroke-width:1;stroke-linejoin:miter;stroke-miterlimit:10;"/><text x="540.691" y="391.835" fill="#000" font-size="11" textLength="110.081" font-family="Verdana">temp >= umbralON</text><text x="540.691" y="404.64" fill="#000" font-size="11" textLength="177.842" font-family="Verdana">y min OFF cumplido (TON 15 s)?</text><text x="519.904" y="391.835" fill="#000" font-size="11" textLength="8.787" font-family="Verdana">si</text><text x="730.533" y="391.835" fill="#000" font-size="11" textLength="13.702" font-family="Verdana">no</text><rect x="438.296" y="417.234" width="160.789" height="47.938" fill="#FFF" style="stroke:#000;stroke-width:1;" rx="12.5" ry="12.5"/><text x="448.296" y="438.373" fill="#000" font-size="12" textLength="94.734" font-family="Verdana">cooler := TRUE;</text><text x="448.296" y="452.342" fill="#000" font-size="12" textLength="140.789" font-family="Verdana">Estado := 1 (enfriando)</text><rect x="642.783" y="417.234" width="195.5" height="47.938" fill="#FFF" style="stroke:#000;stroke-width:1;" rx="12.5" ry="12.5"/><text x="652.783" y="438.373" fill="#000" font-size="12" textLength="88.166" font-family="Verdana">mantiene OFF;</text><text x="652.783" y="452.342" fill="#000" font-size="12" textLength="175.5" font-family="Verdana">Estado := 0 o 2 (anti-ciclado)</text><polygon points="629.612,471.172,641.612,483.172,629.612,495.172,617.612,483.172,629.612,471.172" fill="#FFF" style="stroke:#000;stroke-width:1;stroke-linejoin:miter;stroke-miterlimit:10;"/><polygon points="410.725,501.172,422.725,513.172,410.725,525.172,398.725,513.172,410.725,501.172" fill="#FFF" style="stroke:#000;stroke-width:1;stroke-linejoin:miter;stroke-miterlimit:10;"/><path d="M526.667,535.172 L526.667,566.438 L506.667,570.438 L526.667,574.438 L526.667,605.703 A0,0 0 0 0 526.667,605.703 L820.496,605.703 A0,0 0 0 0 820.496,605.703 L820.496,545.172 L810.496,535.172 L526.667,535.172 A0,0 0 0 0 526.667,535.172" style="stroke:#000;stroke-width:1;" fill="#FFF"/><path d="M810.496,535.172 L810.496,545.172 L820.496,545.172 L810.496,535.172" style="stroke:#000;stroke-width:1;" fill="#FFF"/><text x="532.667" y="552.239" fill="#000" font-size="13" textLength="198.199" font-family="Verdana">umbralON  = temperatureMax</text><text x="532.667" y="567.372" fill="#000" font-size="13" textLength="272.829" font-family="Verdana">umbralOFF = temperatureMax - histTemp</text><text x="532.667" y="582.504" fill="#000" font-size="13" textLength="218.899" font-family="Verdana">El gateway escribe las entradas y</text><text x="532.667" y="597.637" fill="#000" font-size="13" textLength="207.556" font-family="Verdana">acciona el relay con la decision.</text><rect x="314.783" y="546.469" width="191.885" height="47.938" fill="#FFF" style="stroke:#000;stroke-width:1;" rx="12.5" ry="12.5"/><text x="324.783" y="567.607" fill="#000" font-size="12" textLength="130.611" font-family="Verdana">Expone coil 0 (cooler)</text><text x="324.783" y="581.576" fill="#000" font-size="12" textLength="171.885" font-family="Verdana">y HR10 (Estado) por Modbus</text><ellipse cx="410.725" cy="636.703" rx="11" ry="11" fill="none" style="stroke:#000;stroke-width:1;"/><ellipse cx="410.725" cy="636.703" rx="6" ry="6" fill="#FFF" style="stroke:#000;stroke-width:1;"/><line x1="410.725" y1="76.609" x2="410.725" y2="96.609" style="stroke:#000;stroke-width:1;"/><polygon points="406.725,86.609,410.725,96.609,414.725,86.609,410.725,90.609" fill="#000" style="stroke:#000;stroke-width:1;stroke-linejoin:miter;stroke-miterlimit:10;"/><line x1="410.725" y1="262.496" x2="410.725" y2="283.625" style="stroke:#000;stroke-width:1;"/><polygon points="406.725,273.625,410.725,283.625,414.725,273.625,410.725,277.625" fill="#000" style="stroke:#000;stroke-width:1;stroke-linejoin:miter;stroke-miterlimit:10;"/><line x1="410.725" y1="190.156" x2="410.725" y2="214.559" style="stroke:#000;stroke-width:1;"/><polygon points="406.725,204.559,410.725,214.559,414.725,204.559,410.725,208.559" fill="#000" style="stroke:#000;stroke-width:1;stroke-linejoin:miter;stroke-miterlimit:10;"/><line x1="493.21" y1="177.352" x2="505.21" y2="177.352" style="stroke:#000;stroke-width:1;"/><polygon points="501.21,253.625,505.21,263.625,509.21,253.625,505.21,257.625" fill="#000" style="stroke:#000;stroke-width:1;stroke-linejoin:miter;stroke-miterlimit:10;"/><line x1="505.21" y1="177.352" x2="505.21" y2="327.625" style="stroke:#000;stroke-width:1;"/><line x1="505.21" y1="327.625" x2="410.725" y2="327.625" style="stroke:#000;stroke-width:1;"/><line x1="410.725" y1="327.625" x2="410.725" y2="347.625" style="stroke:#000;stroke-width:1;"/><polygon points="406.725,337.625,410.725,347.625,414.725,337.625,410.725,341.625" fill="#000" style="stroke:#000;stroke-width:1;stroke-linejoin:miter;stroke-miterlimit:10;"/><line x1="410.725" y1="144.547" x2="410.725" y2="164.547" style="stroke:#000;stroke-width:1;"/><polygon points="406.725,154.547,410.725,164.547,414.725,154.547,410.725,158.547" fill="#000" style="stroke:#000;stroke-width:1;stroke-linejoin:miter;stroke-miterlimit:10;"/><line x1="93.13" y1="394.43" x2="83.13" y2="394.43" style="stroke:#000;stroke-width:1;"/><line x1="83.13" y1="394.43" x2="83.13" y2="417.234" style="stroke:#000;stroke-width:1;"/><polygon points="79.13,407.234,83.13,417.234,87.13,407.234,83.13,411.234" fill="#000" style="stroke:#000;stroke-width:1;stroke-linejoin:miter;stroke-miterlimit:10;"/><line x1="290.546" y1="394.43" x2="300.546" y2="394.43" style="stroke:#000;stroke-width:1;"/><line x1="300.546" y1="394.43" x2="300.546" y2="417.234" style="stroke:#000;stroke-width:1;"/><polygon points="296.546,407.234,300.546,417.234,304.546,407.234,300.546,411.234" fill="#000" style="stroke:#000;stroke-width:1;stroke-linejoin:miter;stroke-miterlimit:10;"/><line x1="83.13" y1="465.172" x2="83.13" y2="483.172" style="stroke:#000;stroke-width:1;"/><line x1="83.13" y1="483.172" x2="179.838" y2="483.172" style="stroke:#000;stroke-width:1;"/><polygon points="169.838,479.172,179.838,483.172,169.838,487.172,173.838,483.172" fill="#000" style="stroke:#000;stroke-width:1;stroke-linejoin:miter;stroke-miterlimit:10;"/><line x1="300.546" y1="465.172" x2="300.546" y2="483.172" style="stroke:#000;stroke-width:1;"/><line x1="300.546" y1="483.172" x2="203.838" y2="483.172" style="stroke:#000;stroke-width:1;"/><polygon points="213.838,479.172,203.838,483.172,213.838,487.172,209.838,483.172" fill="#000" style="stroke:#000;stroke-width:1;stroke-linejoin:miter;stroke-miterlimit:10;"/><line x1="528.691" y1="394.43" x2="518.691" y2="394.43" style="stroke:#000;stroke-width:1;"/><line x1="518.691" y1="394.43" x2="518.691" y2="417.234" style="stroke:#000;stroke-width:1;"/><polygon points="514.691,407.234,518.691,417.234,522.691,407.234,518.691,411.234" fill="#000" style="stroke:#000;stroke-width:1;stroke-linejoin:miter;stroke-miterlimit:10;"/><line x1="730.533" y1="394.43" x2="740.533" y2="394.43" style="stroke:#000;stroke-width:1;"/><line x1="740.533" y1="394.43" x2="740.533" y2="417.234" style="stroke:#000;stroke-width:1;"/><polygon points="736.533,407.234,740.533,417.234,744.533,407.234,740.533,411.234" fill="#000" style="stroke:#000;stroke-width:1;stroke-linejoin:miter;stroke-miterlimit:10;"/><line x1="518.691" y1="465.172" x2="518.691" y2="483.172" style="stroke:#000;stroke-width:1;"/><line x1="518.691" y1="483.172" x2="617.612" y2="483.172" style="stroke:#000;stroke-width:1;"/><polygon points="607.612,479.172,617.612,483.172,607.612,487.172,611.612,483.172" fill="#000" style="stroke:#000;stroke-width:1;stroke-linejoin:miter;stroke-miterlimit:10;"/><line x1="740.533" y1="465.172" x2="740.533" y2="483.172" style="stroke:#000;stroke-width:1;"/><line x1="740.533" y1="483.172" x2="641.612" y2="483.172" style="stroke:#000;stroke-width:1;"/><polygon points="651.612,479.172,641.612,483.172,651.612,487.172,647.612,483.172" fill="#000" style="stroke:#000;stroke-width:1;stroke-linejoin:miter;stroke-miterlimit:10;"/><line x1="348.492" y1="359.625" x2="191.838" y2="359.625" style="stroke:#000;stroke-width:1;"/><line x1="191.838" y1="359.625" x2="191.838" y2="381.625" style="stroke:#000;stroke-width:1;"/><polygon points="187.838,371.625,191.838,381.625,195.838,371.625,191.838,375.625" fill="#000" style="stroke:#000;stroke-width:1;stroke-linejoin:miter;stroke-miterlimit:10;"/><line x1="472.958" y1="359.625" x2="629.612" y2="359.625" style="stroke:#000;stroke-width:1;"/><line x1="629.612" y1="359.625" x2="629.612" y2="381.625" style="stroke:#000;stroke-width:1;"/><polygon points="625.612,371.625,629.612,381.625,633.612,371.625,629.612,375.625" fill="#000" style="stroke:#000;stroke-width:1;stroke-linejoin:miter;stroke-miterlimit:10;"/><line x1="191.838" y1="495.172" x2="191.838" y2="513.172" style="stroke:#000;stroke-width:1;"/><line x1="191.838" y1="513.172" x2="398.725" y2="513.172" style="stroke:#000;stroke-width:1;"/><polygon points="388.725,509.172,398.725,513.172,388.725,517.172,392.725,513.172" fill="#000" style="stroke:#000;stroke-width:1;stroke-linejoin:miter;stroke-miterlimit:10;"/><line x1="629.612" y1="495.172" x2="629.612" y2="513.172" style="stroke:#000;stroke-width:1;"/><line x1="629.612" y1="513.172" x2="422.725" y2="513.172" style="stroke:#000;stroke-width:1;"/><polygon points="432.725,509.172,422.725,513.172,432.725,517.172,428.725,513.172" fill="#000" style="stroke:#000;stroke-width:1;stroke-linejoin:miter;stroke-miterlimit:10;"/><line x1="410.725" y1="525.172" x2="410.725" y2="546.469" style="stroke:#000;stroke-width:1;"/><polygon points="406.725,536.469,410.725,546.469,414.725,536.469,410.725,540.469" fill="#000" style="stroke:#000;stroke-width:1;stroke-linejoin:miter;stroke-miterlimit:10;"/><line x1="410.725" y1="594.406" x2="410.725" y2="625.703" style="stroke:#000;stroke-width:1;"/><polygon points="406.725,615.703,410.725,625.703,414.725,615.703,410.725,619.703" fill="#000" style="stroke:#000;stroke-width:1;stroke-linejoin:miter;stroke-miterlimit:10;"/><?plantuml-src bPFFJjj04CRl-nHVrKDj2H1GzP8KK4LZzH2Wek4MgPgi9ycMzQwxkmPowqFq2ViadOr9W1oAwfCzVt_VUEPDMdB3Q2qPf-AjSIq5QZ0ZVRi8ldFrkRS-u6srVfv5n2NL_jwu1UPa8wjt-6ne8Hv2pI2Tp9sfgKPnSp4kyUVNRrXUPPVsBWLlyRDZy0_MNI9SjUo-Zi_13ffgGjJaK1mVeedbWKecMSRuPNhncBEtiNnVcfWuS3Jn8APIgPWe93KOCmS4NeWt-8WBNy-wE7L5ugRTGzVC0jchgjg-NfP3PUOePkI4v8wio3YJ-8qRfqz9PGcPdw0wNofWeBstqcrmWkhJ-DjeE7KZeQXzjhn7CITZzoFDMLe0CVbMiSmEHJIbObURkLgtVYp3JcTZxSysRN8Sa4CoFJwUFA5CtGgDSH10tJMjK7iK4_aw-e1OxbHu1VKGHU3MHx_cx15xXPBOa4k67Kkd5qb7y3X6aRtxscWhvZvzhUjvaIt_wPR_SejVLV_BFxc-6UsG5EpcmSWFV4L1LUte_gU4_WSDHW-jTtaHZSsJwa7ABE3BzP4O-debMhcRVjk6old426QnJ59kkqauGPu31qfTu0jwU7BA67QTs4TUyOaO9MvaiQ34zxG2HntCZ64f2ceASa4HAuaXhOrt9Fhb0An4ogb8b9oHDb4y1raJCflAo_WN?></g></svg>