<svg xmlns="http://www.w3.org/2000/svg" xmlns:xlink="http://www.w3.org/1999/xlink" version="1.1" data-diagram-type="ACTIVITY" style="width:618px;height:579px;background:#FFFFFF;" width="618.75px" height="579.1667px" viewBox="0 0 618 579" zoomAndPan="magnify" preserveAspectRatio="none" contentStyleType="text/css"><?plantuml 1.2026.7beta3?><defs/><g><g class="title" data-source-line="5"><rect x="125.2151" y="20.8333" width="366.2699" height="36.7513" fill="none" style="stroke:#BABDBF;stroke-width:1.0417;" rx="4.1667" ry="4.1667"/><text x="131.4651" y="46.4213" fill="#2FA4E7" font-size="20.8333" lengthAdjust="spacing" textLength="353.7699" font-weight="700" font-family="'Verdana'">Ciclo de control con histeresis</text></g><ellipse cx="231.2307" cy="84.668" rx="10.4167" ry="10.4167" fill="#033C73" style="stroke:#2683B9;stroke-width:1.0417;"/><rect x="104.4057" y="115.918" width="253.6499" height="27.0508" fill="none" style="stroke:#2FA4E7;stroke-width:1.0417;" rx="4.1667" ry="4.1667"/><text x="110.6557" y="133.7708" fill="#2FA4E7" font-size="12.5" lengthAdjust="spacing" textLength="241.1499" font-family="'Verdana'">Leer temperatura y humedad (DHT22)</text><rect x="134.023" y="163.8021" width="194.4153" height="41.6016" fill="none" style="stroke:#2FA4E7;stroke-width:1.0417;" rx="4.1667" ry="4.1667"/><text x="140.273" y="181.6549" fill="#2FA4E7" font-size="12.5" lengthAdjust="spacing" textLength="181.9153" font-family="'Verdana'">Obtener configuracion activa</text><text x="140.273" y="196.2056" fill="#2FA4E7" font-size="12.5" lengthAdjust="spacing" textLength="144.0369" font-family="'Verdana'">(GET /api/config/latest)</text><polygon points="96.5902,226.237,365.8712,226.237,378.3712,238.737,365.8712,251.237,96.5902,251.237,84.0902,238.737,96.5902,226.237" fill="none" style="stroke:#BABDBF;stroke-width:1.0417;stroke-linejoin:miter;stroke-miterlimit:10;"/><text x="96.5902" y="243.0644" fill="#BABDBF" font-size="12.5" lengthAdjust="spacing" textLength="269.281" font-family="'Verdana'">Temp >= tempMax  o  Hum >= humMax ?</text><text x="74.1048" y="235.789" fill="#343A40" font-size="12.5" lengthAdjust="spacing" textLength="9.9854" font-family="'Verdana'">si</text><text x="378.3712" y="235.789" fill="#343A40" font-size="12.5" lengthAdjust="spacing" textLength="15.5701" font-family="'Verdana'">no</text><rect x="16.6667" y="261.6536" width="114.0137" height="41.6016" fill="none" style="stroke:#2FA4E7;stroke-width:1.0417;" rx="4.1667" ry="4.1667"/><text x="22.9167" y="279.5064" fill="#2FA4E7" font-size="12.5" lengthAdjust="spacing" textLength="101.5137" font-family="'Verdana'">Encender cooler</text><text x="22.9167" y="294.0572" fill="#2FA4E7" font-size="12.5" lengthAdjust="spacing" textLength="64.2761" font-family="'Verdana'">(relay ON)</text><polygon points="289.2883,261.6536,488.2874,261.6536,500.7874,276.2044,488.2874,290.7552,289.2883,290.7552,276.7883,276.2044,289.2883,261.6536" fill="none" style="stroke:#BABDBF;stroke-width:1.0417;stroke-linejoin:miter;stroke-miterlimit:10;"/><text x="289.2883" y="273.2564" fill="#BABDBF" font-size="12.5" lengthAdjust="spacing" textLength="193.5791" font-family="'Verdana'">Temp &lt;= tempMax - histTemp</text><text x="289.2883" y="287.8072" fill="#BABDBF" font-size="12.5" lengthAdjust="spacing" textLength="198.999" font-family="'Verdana'">y Hum &lt;= humMax - histHum ?</text><text x="266.803" y="273.2564" fill="#343A40" font-size="12.5" lengthAdjust="spacing" textLength="9.9854" font-family="'Verdana'">si</text><text x="500.7874" y="273.2564" fill="#343A40" font-size="12.5" lengthAdjust="spacing" textLength="15.5701" font-family="'Verdana'">no</text><rect x="216.4602" y="301.1719" width="99.823" height="41.6016" fill="none" style="stroke:#2FA4E7;stroke-width:1.0417;" rx="4.1667" ry="4.1667"/><text x="222.7102" y="319.0247" fill="#2FA4E7" font-size="12.5" lengthAdjust="spacing" textLength="87.323" font-family="'Verdana'">Apagar cooler</text><text x="222.7102" y="333.5754" fill="#2FA4E7" font-size="12.5" lengthAdjust="spacing" textLength="69.3054" font-family="'Verdana'">(relay OFF)</text><rect x="424.4578" y="301.1719" width="173.4924" height="41.6016" fill="none" style="stroke:#2FA4E7;stroke-width:1.0417;" rx="4.1667" ry="4.1667"/><text x="430.7078" y="319.0247" fill="#2FA4E7" font-size="12.5" lengthAdjust="spacing" textLength="159.5764" font-family="'Verdana'">Mantener estado anterior</text><text x="430.7078" y="333.5754" fill="#2FA4E7" font-size="12.5" lengthAdjust="spacing" textLength="160.9924" font-family="'Verdana'">(zona muerta / histeresis)</text><polygon points="388.7878,349.0234,401.2878,361.5234,388.7878,374.0234,376.2878,361.5234,388.7878,349.0234" fill="none" style="stroke:#BABDBF;stroke-width:1.0417;stroke-linejoin:miter;stroke-miterlimit:10;"/><polygon points="231.2307,380.2734,243.7307,392.7734,231.2307,405.2734,218.7307,392.7734,231.2307,380.2734" fill="none" style="stroke:#BABDBF;stroke-width:1.0417;stroke-linejoin:miter;stroke-miterlimit:10;"/><rect x="140.9017" y="426.1068" width="180.658" height="41.6016" fill="none" style="stroke:#2FA4E7;stroke-width:1.0417;" rx="4.1667" ry="4.1667"/><text x="147.1517" y="443.9596" fill="#2FA4E7" font-size="12.5" lengthAdjust="spacing" textLength="111.1755" font-family="'Verdana'">Publicar medicion</text><text x="147.1517" y="458.5103" fill="#2FA4E7" font-size="12.5" lengthAdjust="spacing" textLength="168.158" font-family="'Verdana'">(POST /api/measurements)</text><rect x="105.0741" y="488.5417" width="252.3132" height="27.0508" fill="none" style="stroke:#2FA4E7;stroke-width:1.0417;" rx="4.1667" ry="4.1667"/><text x="111.3241" y="506.3944" fill="#2FA4E7" font-size="12.5" lengthAdjust="spacing" textLength="239.8132" font-family="'Verdana'">Esperar measurementIntervalSeconds</text><ellipse cx="231.2307" cy="547.8841" rx="11.4583" ry="11.4583" fill="none" style="stroke:#2683B9;stroke-width:1.0417;"/><ellipse cx="231.2307" cy="547.8841" rx="6.25" ry="6.25" fill="none" style="stroke:#2683B9;stroke-width:1.0417;"/><line x1="231.2307" y1="95.0846" x2="231.2307" y2="115.918" style="stroke:#2FA4E7;stroke-width:3.125;"/><polygon points="227.064,105.5013,231.2307,115.918,235.3973,105.5013,231.2307,109.668" fill="#2FA4E7" style="stroke:#2FA4E7;stroke-width:1.0417;stroke-linejoin:miter;stroke-miterlimit:10;"/><line x1="231.2307" y1="142.9688" x2="231.2307" y2="163.8021" style="stroke:#2FA4E7;stroke-width:3.125;"/><polygon points="227.064,153.3854,231.2307,163.8021,235.3973,153.3854,231.2307,157.5521" fill="#2FA4E7" style="stroke:#2FA4E7;stroke-width:1.0417;stroke-linejoin:miter;stroke-miterlimit:10;"/><line x1="276.7883" y1="276.2044" x2="266.3717" y2="276.2044" style="stroke:#2FA4E7;stroke-width:3.125;"/><line x1="266.3717" y1="276.2044" x2="266.3717" y2="301.1719" style="stroke:#2FA4E7;stroke-width:3.125;"/><polygon points="262.205,290.7552,266.3717,301.1719,270.5383,290.7552,266.3717,294.9219" fill="#2FA4E7" style="stroke:#2FA4E7;stroke-width:1.0417;stroke-linejoin:miter;stroke-miterlimit:10;"/><line x1="500.7874" y1="276.2044" x2="511.204" y2="276.2044" style="stroke:#2FA4E7;stroke-width:3.125;"/><line x1="511.204" y1="276.2044" x2="511.204" y2="301.1719" style="stroke:#2FA4E7;stroke-width:3.125;"/><polygon points="507.0374,290.7552,511.204,301.1719,515.3707,290.7552,511.204,294.9219" fill="#2FA4E7" style="stroke:#2FA4E7;stroke-width:1.0417;stroke-linejoin:miter;stroke-miterlimit:10;"/><line x1="266.3717" y1="342.7734" x2="266.3717" y2="361.5234" style="stroke:#2FA4E7;stroke-width:3.125;"/><line x1="266.3717" y1="361.5234" x2="376.2878" y2="361.5234" style="stroke:#2FA4E7;stroke-width:3.125;"/><polygon points="365.8712,357.3568,376.2878,361.5234,365.8712,365.6901,370.0378,361.5234" fill="#2FA4E7" style="stroke:#2FA4E7;stroke-width:1.0417;stroke-linejoin:miter;stroke-miterlimit:10;"/><line x1="511.204" y1="342.7734" x2="511.204" y2="361.5234" style="stroke:#2FA4E7;stroke-width:3.125;"/><line x1="511.204" y1="361.5234" x2="401.2878" y2="361.5234" style="stroke:#2FA4E7;stroke-width:3.125;"/><polygon points="411.7045,357.3568,401.2878,361.5234,411.7045,365.6901,407.5378,361.5234" fill="#2FA4E7" style="stroke:#2FA4E7;stroke-width:1.0417;stroke-linejoin:miter;stroke-miterlimit:10;"/><line x1="84.0902" y1="238.737" x2="73.6735" y2="238.737" style="stroke:#2FA4E7;stroke-width:3.125;"/><line x1="73.6735" y1="238.737" x2="73.6735" y2="261.6536" style="stroke:#2FA4E7;stroke-width:3.125;"/><polygon points="69.5068,251.237,73.6735,261.6536,77.8402,251.237,73.6735,255.4036" fill="#2FA4E7" style="stroke:#2FA4E7;stroke-width:1.0417;stroke-linejoin:miter;stroke-miterlimit:10;"/><line x1="378.3712" y1="238.737" x2="388.7878" y2="238.737" style="stroke:#2FA4E7;stroke-width:3.125;"/><line x1="388.7878" y1="238.737" x2="388.7878" y2="261.6536" style="stroke:#2FA4E7;stroke-width:3.125;"/><polygon points="384.6212,251.237,388.7878,261.6536,392.9545,251.237,388.7878,255.4036" fill="#2FA4E7" style="stroke:#2FA4E7;stroke-width:1.0417;stroke-linejoin:miter;stroke-miterlimit:10;"/><line x1="73.6735" y1="303.2552" x2="73.6735" y2="392.7734" style="stroke:#2FA4E7;stroke-width:3.125;"/><line x1="73.6735" y1="392.7734" x2="218.7307" y2="392.7734" style="stroke:#2FA4E7;stroke-width:3.125;"/><polygon points="208.314,388.6068,218.7307,392.7734,208.314,396.9401,212.4807,392.7734" fill="#2FA4E7" style="stroke:#2FA4E7;stroke-width:1.0417;stroke-linejoin:miter;stroke-miterlimit:10;"/><line x1="388.7878" y1="374.0234" x2="388.7878" y2="392.7734" style="stroke:#2FA4E7;stroke-width:3.125;"/><line x1="388.7878" y1="392.7734" x2="243.7307" y2="392.7734" style="stroke:#2FA4E7;stroke-width:3.125;"/><polygon points="254.1473,388.6068,243.7307,392.7734,254.1473,396.9401,249.9807,392.7734" fill="#2FA4E7" style="stroke:#2FA4E7;stroke-width:1.0417;stroke-linejoin:miter;stroke-miterlimit:10;"/><line x1="231.2307" y1="205.4036" x2="231.2307" y2="226.237" style="stroke:#2FA4E7;stroke-width:3.125;"/><polygon points="227.064,215.8203,231.2307,226.237,235.3973,215.8203,231.2307,219.987" fill="#2FA4E7" style="stroke:#2FA4E7;stroke-width:1.0417;stroke-linejoin:miter;stroke-miterlimit:10;"/><line x1="231.2307" y1="405.2734" x2="231.2307" y2="426.1068" style="stroke:#2FA4E7;stroke-width:3.125;"/><polygon points="227.064,415.6901,231.2307,426.1068,235.3973,415.6901,231.2307,419.8568" fill="#2FA4E7" style="stroke:#2FA4E7;stroke-width:1.0417;stroke-linejoin:miter;stroke-miterlimit:10;"/><line x1="231.2307" y1="467.7083" x2="231.2307" y2="488.5417" style="stroke:#2FA4E7;stroke-width:3.125;"/><polygon points="227.064,478.125,231.2307,488.5417,235.3973,478.125,231.2307,482.2917" fill="#2FA4E7" style="stroke:#2FA4E7;stroke-width:1.0417;stroke-linejoin:miter;stroke-miterlimit:10;"/><line x1="231.2307" y1="515.5924" x2="231.2307" y2="536.4258" style="stroke:#2FA4E7;stroke-width:3.125;"/><polygon points="227.064,526.0091,231.2307,536.4258,235.3973,526.0091,231.2307,530.1758" fill="#2FA4E7" style="stroke:#2FA4E7;stroke-width:1.0417;stroke-linejoin:miter;stroke-miterlimit:10;"/><?plantuml-src VPB1RjD048Rl-nI3EE0SIgGUtG92RKAH6bAfuTRBn9uuewvdpUnk8Pnu29wG9s7MXX21X0-sTkQV_zlzry_Iddg2XZHxGZaBENaMSl6HPK357hROF7OQihHNmGU5vylnEL74FRRXCqi7E_IHt0kuPkoiWz0IO9FuYLjieVgukft1Zs_VeU76Xz9iWYGDldnXpp6HKkG8dt9fgHAG0FdVCiFeIvSuUOAh_riu5nDgSlKjaKAYVY35b1NX0FlSqxYVwvlD-VdimjNhRI8ndNdik3DLm-OsxXmVf7gtsC0S1vvF_Rd7H37PeECTL1ipXzUlHiWAlm04W9lSbvAHIkND32ncWIhop07K2sb8sf4NFAaHb3mUOFt1FCaYX4f2KHxjB__OdusdBDK7EOoWooDewfNQNqY3lXsmmt-HowKn0Kwf9bwXJ8dOEIrrA4lbKEQ-1a7eCsb2c9yaFjb8opitlLrzbxUU6uDQtbmYjV6xzVslC7l2cDN-Fabbk5x4SaT5VAo_BzWdzFTaoRVnmYur33y1?></g></svg>