<svg xmlns="http://www.w3.org/2000/svg" xmlns:xlink="http://www.w3.org/1999/xlink" version="1.1" data-diagram-type="ACTIVITY" style="width:1375px;height:936px;background:#FFFFFF;" width="1375px" height="936px" viewBox="0 0 1375 936" zoomAndPan="magnify" preserveAspectRatio="none" contentStyleType="text/css"><?plantuml 1.2026.7beta3?><defs/><g><g class="title" data-source-line="5"><text x="520.7698" y="35.4209" fill="#000000" font-size="22" lengthAdjust="spacing" textLength="331.751" font-weight="700" font-family="Verdana">Flujo operativo end-to-end</text></g><rect x="15" y="59.3545" width="1338.2905" height="20.9531" fill="#FFFFFF" style="stroke:#FFFFFF;stroke-width:1;"/><ellipse cx="147.1592" cy="95.3076" rx="10" ry="10" fill="#FFFFFF" style="stroke:#000000;stroke-width:1;"/><rect x="21" y="125.3076" width="252.3184" height="33.9688" fill="#FFFFFF" style="stroke:#000000;stroke-width:1;" rx="12.5" ry="12.5"/><text x="31" y="146.4463" fill="#000000" font-size="12" lengthAdjust="spacing" textLength="232.3184" font-family="Verdana">Define umbrales, histeresis e intervalo</text><rect x="23.8389" y="844.2388" width="246.6406" height="33.9688" fill="#FFFFFF" style="stroke:#000000;stroke-width:1;" rx="12.5" ry="12.5"/><text x="33.8389" y="865.3774" fill="#000000" font-size="12" lengthAdjust="spacing" textLength="226.6406" font-family="Verdana">Monitorea tablero / historial / alarmas</text><ellipse cx="147.1592" cy="909.2075" rx="11" ry="11" fill="none" style="stroke:#000000;stroke-width:1;"/><ellipse cx="147.1592" cy="909.2075" rx="6" ry="6" fill="#FFFFFF" style="stroke:#000000;stroke-width:1;"/><line x1="15" y1="59.3545" x2="15" y2="920.2075" style="stroke:#000000;stroke-width:1;"/><rect x="283.3184" y="179.2764" width="243.4355" height="33.9688" fill="#FFFFFF" style="stroke:#000000;stroke-width:1;" rx="12.5" ry="12.5"/><text x="293.3184" y="200.415" fill="#000000" font-size="12" lengthAdjust="spacing" textLength="223.4355" font-family="Verdana">Valida (Zod) y envia POST /api/config</text><line x1="277.3184" y1="59.3545" x2="277.3184" y2="920.2075" style="stroke:#000000;stroke-width:1;"/><rect x="536.7539" y="233.2451" width="383.6738" height="33.9688" fill="#FFFFFF" style="stroke:#000000;stroke-width:1;" rx="12.5" ry="12.5"/><text x="546.7539" y="254.3838" fill="#000000" font-size="12" lengthAdjust="spacing" textLength="363.6738" font-family="Verdana">Valida, desactiva la config anterior y persiste (con auditoria)</text><rect x="649.6787" y="287.2139" width="157.8242" height="33.9688" fill="#FFFFFF" style="stroke:#000000;stroke-width:1;" rx="12.5" ry="12.5"/><text x="659.6787" y="308.3525" fill="#000000" font-size="12" lengthAdjust="spacing" textLength="137.8242" font-family="Verdana">Responde 201 Created</text><rect x="627.5566" y="790.27" width="202.0684" height="33.9688" fill="#FFFFFF" style="stroke:#000000;stroke-width:1;" rx="12.5" ry="12.5"/><text x="637.5566" y="811.4087" fill="#000000" font-size="12" lengthAdjust="spacing" textLength="182.0684" font-family="Verdana">Persiste la medicion (historial)</text><line x1="530.7539" y1="59.3545" x2="530.7539" y2="920.2075" style="stroke:#000000;stroke-width:1;"/><rect x="1020.0884" y="385.1826" width="148.9121" height="33.9688" fill="#FFFFFF" style="stroke:#000000;stroke-width:1;" rx="12.5" ry="12.5"/><text x="1030.0884" y="406.3213" fill="#000000" font-size="12" lengthAdjust="spacing" textLength="128.9121" font-family="Verdana">GET /api/config/latest</text><rect x="967.8872" y="439.1514" width="253.3145" height="33.9688" fill="#FFFFFF" style="stroke:#000000;stroke-width:1;" rx="12.5" ry="12.5"/><text x="977.8872" y="460.29" fill="#000000" font-size="12" lengthAdjust="spacing" textLength="233.3145" font-family="Verdana">Lee el sensor DHT22 (temp, humedad)</text><rect x="997.521" y="493.1201" width="194.0469" height="33.9688" fill="#FFFFFF" style="stroke:#000000;stroke-width:1;" rx="12.5" ry="12.5"/><text x="1007.521" y="514.2588" fill="#000000" font-size="12" lengthAdjust="spacing" textLength="174.0469" font-family="Verdana">OpenPLC evalua la histeresis</text><polygon points="1051.5247,557.0732,1137.5642,557.0732,1149.5642,569.0732,1137.5642,581.0732,1051.5247,581.0732,1039.5247,569.0732,1051.5247,557.0732" fill="#FFFFFF" style="stroke:#000000;stroke-width:1;stroke-linejoin:miter;stroke-miterlimit:10;"/><text x="1051.5247" y="572.8813" fill="#000000" font-size="11" lengthAdjust="spacing" textLength="86.0396" font-family="Verdana">supera umbral?</text><text x="1030.7375" y="566.479" fill="#000000" font-size="11" lengthAdjust="spacing" textLength="8.7871" font-family="Verdana">si</text><text x="1149.5642" y="566.479" fill="#000000" font-size="11" lengthAdjust="spacing" textLength="13.7017" font-family="Verdana">no</text><rect x="930.4277" y="591.0732" width="124.2324" height="33.9688" fill="#FFFFFF" style="stroke:#000000;stroke-width:1;" rx="12.5" ry="12.5"/><text x="940.4277" y="612.2119" fill="#000000" font-size="12" lengthAdjust="spacing" textLength="104.2324" font-family="Verdana">Cooler ON (relay)</text><rect x="1074.6602" y="591.0732" width="243.7695" height="33.9688" fill="#FFFFFF" style="stroke:#000000;stroke-width:1;" rx="12.5" ry="12.5"/><text x="1084.6602" y="612.2119" fill="#000000" font-size="12" lengthAdjust="spacing" textLength="223.7695" font-family="Verdana">Cooler OFF / mantiene (zona muerta)</text><polygon points="1094.5444,631.042,1106.5444,643.042,1094.5444,655.042,1082.5444,643.042,1094.5444,631.042" fill="#FFFFFF" style="stroke:#000000;stroke-width:1;stroke-linejoin:miter;stroke-miterlimit:10;"/><rect x="1008.5103" y="675.042" width="172.0684" height="33.9688" fill="#FFFFFF" style="stroke:#000000;stroke-width:1;" rx="12.5" ry="12.5"/><text x="1018.5103" y="696.1807" fill="#000000" font-size="12" lengthAdjust="spacing" textLength="152.0684" font-family="Verdana">POST /api/measurements</text><polygon points="1094.5444,341.1826,1106.5444,353.1826,1094.5444,365.1826,1082.5444,353.1826,1094.5444,341.1826" fill="#FFFFFF" style="stroke:#000000;stroke-width:1;stroke-linejoin:miter;stroke-miterlimit:10;"/><polygon points="991.3792,729.0107,1197.7097,729.0107,1209.7097,741.0107,1197.7097,753.0107,991.3792,753.0107,979.3792,741.0107,991.3792,729.0107" fill="#FFFFFF" style="stroke:#000000;stroke-width:1;stroke-linejoin:miter;stroke-miterlimit:10;"/><text x="991.3792" y="744.8188" fill="#000000" font-size="11" lengthAdjust="spacing" textLength="206.3306" font-family="Verdana">espera measurementIntervalSeconds</text><text x="1209.7097" y="738.4165" fill="#000000" font-size="11" lengthAdjust="spacing" textLength="79.0518" font-family="Verdana">siguiente ciclo</text><line x1="924.4277" y1="59.3545" x2="924.4277" y2="920.2075" style="stroke:#000000;stroke-width:1;"/><line x1="1351.4297" y1="59.3545" x2="1351.4297" y2="920.2075" style="stroke:#000000;stroke-width:1;"/><line x1="147.1592" y1="105.3076" x2="147.1592" y2="125.3076" style="stroke:#000000;stroke-width:1;"/><polygon points="143.1592,115.3076,147.1592,125.3076,151.1592,115.3076,147.1592,119.3076" fill="#000000" style="stroke:#000000;stroke-width:1;stroke-linejoin:miter;stroke-miterlimit:10;"/><line x1="147.1592" y1="878.2075" x2="147.1592" y2="898.2075" style="stroke:#000000;stroke-width:1;"/><polygon points="143.1592,888.2075,147.1592,898.2075,151.1592,888.2075,147.1592,892.2075" fill="#000000" style="stroke:#000000;stroke-width:1;stroke-linejoin:miter;stroke-miterlimit:10;"/><line x1="728.5908" y1="267.2139" x2="728.5908" y2="287.2139" style="stroke:#000000;stroke-width:1;"/><polygon points="724.5908,277.2139,728.5908,287.2139,732.5908,277.2139,728.5908,281.2139" fill="#000000" style="stroke:#000000;stroke-width:1;stroke-linejoin:miter;stroke-miterlimit:10;"/><line x1="1094.5444" y1="419.1514" x2="1094.5444" y2="439.1514" style="stroke:#000000;stroke-width:1;"/><polygon points="1090.5444,429.1514,1094.5444,439.1514,1098.5444,429.1514,1094.5444,433.1514" fill="#000000" style="stroke:#000000;stroke-width:1;stroke-linejoin:miter;stroke-miterlimit:10;"/><line x1="1094.5444" y1="473.1201" x2="1094.5444" y2="493.1201" style="stroke:#000000;stroke-width:1;"/><polygon points="1090.5444,483.1201,1094.5444,493.1201,1098.5444,483.1201,1094.5444,487.1201" fill="#000000" style="stroke:#000000;stroke-width:1;stroke-linejoin:miter;stroke-miterlimit:10;"/><line x1="1039.5247" y1="569.0732" x2="992.5439" y2="569.0732" style="stroke:#000000;stroke-width:1;"/><line x1="992.5439" y1="569.0732" x2="992.5439" y2="591.0732" style="stroke:#000000;stroke-width:1;"/><polygon points="988.5439,581.0732,992.5439,591.0732,996.5439,581.0732,992.5439,585.0732" fill="#000000" style="stroke:#000000;stroke-width:1;stroke-linejoin:miter;stroke-miterlimit:10;"/><line x1="1149.5642" y1="569.0732" x2="1196.5449" y2="569.0732" style="stroke:#000000;stroke-width:1;"/><line x1="1196.5449" y1="569.0732" x2="1196.5449" y2="591.0732" style="stroke:#000000;stroke-width:1;"/><polygon points="1192.5449,581.0732,1196.5449,591.0732,1200.5449,581.0732,1196.5449,585.0732" fill="#000000" style="stroke:#000000;stroke-width:1;stroke-linejoin:miter;stroke-miterlimit:10;"/><line x1="992.5439" y1="625.042" x2="992.5439" y2="643.042" style="stroke:#000000;stroke-width:1;"/><line x1="992.5439" y1="643.042" x2="1082.5444" y2="643.042" style="stroke:#000000;stroke-width:1;"/><polygon points="1072.5444,639.042,1082.5444,643.042,1072.5444,647.042,1076.5444,643.042" fill="#000000" style="stroke:#000000;stroke-width:1;stroke-linejoin:miter;stroke-miterlimit:10;"/><line x1="1196.5449" y1="625.042" x2="1196.5449" y2="643.042" style="stroke:#000000;stroke-width:1;"/><line x1="1196.5449" y1="643.042" x2="1106.5444" y2="643.042" style="stroke:#000000;stroke-width:1;"/><polygon points="1116.5444,639.042,1106.5444,643.042,1116.5444,647.042,1112.5444,643.042" fill="#000000" style="stroke:#000000;stroke-width:1;stroke-linejoin:miter;stroke-miterlimit:10;"/><line x1="1094.5444" y1="527.0889" x2="1094.5444" y2="557.0732" style="stroke:#000000;stroke-width:1;"/><polygon points="1090.5444,547.0732,1094.5444,557.0732,1098.5444,547.0732,1094.5444,551.0732" fill="#000000" style="stroke:#000000;stroke-width:1;stroke-linejoin:miter;stroke-miterlimit:10;"/><line x1="1094.5444" y1="655.042" x2="1094.5444" y2="675.042" style="stroke:#000000;stroke-width:1;"/><polygon points="1090.5444,665.042,1094.5444,675.042,1098.5444,665.042,1094.5444,669.042" fill="#000000" style="stroke:#000000;stroke-width:1;stroke-linejoin:miter;stroke-miterlimit:10;"/><line x1="1094.5444" y1="365.1826" x2="1094.5444" y2="385.1826" style="stroke:#000000;stroke-width:1;"/><polygon points="1090.5444,375.1826,1094.5444,385.1826,1098.5444,375.1826,1094.5444,379.1826" fill="#000000" style="stroke:#000000;stroke-width:1;stroke-linejoin:miter;stroke-miterlimit:10;"/><line x1="1209.7097" y1="741.0107" x2="1332.4297" y2="741.0107" style="stroke:#000000;stroke-width:1;"/><polygon points="1328.4297,547.0889,1332.4297,537.0889,1336.4297,547.0889,1332.4297,543.0889" fill="#000000" style="stroke:#000000;stroke-width:1;stroke-linejoin:miter;stroke-miterlimit:10;"/><line x1="1332.4297" y1="353.1826" x2="1332.4297" y2="741.0107" style="stroke:#000000;stroke-width:1;"/><line x1="1332.4297" y1="353.1826" x2="1106.5444" y2="353.1826" style="stroke:#000000;stroke-width:1;"/><polygon points="1116.5444,349.1826,1106.5444,353.1826,1116.5444,357.1826,1112.5444,353.1826" fill="#000000" style="stroke:#000000;stroke-width:1;stroke-linejoin:miter;stroke-miterlimit:10;"/><line x1="1094.5444" y1="709.0107" x2="1094.5444" y2="729.0107" style="stroke:#000000;stroke-width:1;"/><polygon points="1090.5444,719.0107,1094.5444,729.0107,1098.5444,719.0107,1094.5444,723.0107" fill="#000000" style="stroke:#000000;stroke-width:1;stroke-linejoin:miter;stroke-miterlimit:10;"/><line x1="147.1592" y1="159.2764" x2="147.1592" y2="164.2764" style="stroke:#000000;stroke-width:1;"/><line x1="147.1592" y1="164.2764" x2="405.0361" y2="164.2764" style="stroke:#000000;stroke-width:1;"/><line x1="405.0361" y1="164.2764" x2="405.0361" y2="179.2764" style="stroke:#000000;stroke-width:1;"/><polygon points="401.0361,169.2764,405.0361,179.2764,409.0361,169.2764,405.0361,173.2764" fill="#000000" style="stroke:#000000;stroke-width:1;stroke-linejoin:miter;stroke-miterlimit:10;"/><line x1="405.0361" y1="213.2451" x2="405.0361" y2="218.2451" style="stroke:#000000;stroke-width:1;"/><line x1="405.0361" y1="218.2451" x2="728.5908" y2="218.2451" style="stroke:#000000;stroke-width:1;"/><line x1="728.5908" y1="218.2451" x2="728.5908" y2="233.2451" style="stroke:#000000;stroke-width:1;"/><polygon points="724.5908,223.2451,728.5908,233.2451,732.5908,223.2451,728.5908,227.2451" fill="#000000" style="stroke:#000000;stroke-width:1;stroke-linejoin:miter;stroke-miterlimit:10;"/><line x1="728.5908" y1="321.1826" x2="728.5908" y2="326.1826" style="stroke:#000000;stroke-width:1;"/><line x1="728.5908" y1="326.1826" x2="1094.5444" y2="326.1826" style="stroke:#000000;stroke-width:1;"/><line x1="1094.5444" y1="326.1826" x2="1094.5444" y2="341.1826" style="stroke:#000000;stroke-width:1;"/><polygon points="1090.5444,331.1826,1094.5444,341.1826,1098.5444,331.1826,1094.5444,335.1826" fill="#000000" style="stroke:#000000;stroke-width:1;stroke-linejoin:miter;stroke-miterlimit:10;"/><line x1="1094.5444" y1="753.0107" x2="1094.5444" y2="775.27" style="stroke:#000000;stroke-width:1;"/><line x1="1094.5444" y1="775.27" x2="728.5908" y2="775.27" style="stroke:#000000;stroke-width:1;"/><line x1="728.5908" y1="775.27" x2="728.5908" y2="790.27" style="stroke:#000000;stroke-width:1;"/><polygon points="724.5908,780.27,728.5908,790.27,732.5908,780.27,728.5908,784.27" fill="#000000" style="stroke:#000000;stroke-width:1;stroke-linejoin:miter;stroke-miterlimit:10;"/><text x="1098.5444" y="768.77" fill="#000000" font-size="11" lengthAdjust="spacing" textLength="67.5254" font-family="Verdana">fin del bucle</text><line x1="728.5908" y1="824.2388" x2="728.5908" y2="829.2388" style="stroke:#000000;stroke-width:1;"/><line x1="728.5908" y1="829.2388" x2="147.1592" y2="829.2388" style="stroke:#000000;stroke-width:1;"/><line x1="147.1592" y1="829.2388" x2="147.1592" y2="844.2388" style="stroke:#000000;stroke-width:1;"/><polygon points="143.1592,834.2388,147.1592,844.2388,151.1592,834.2388,147.1592,838.2388" fill="#000000" style="stroke:#000000;stroke-width:1;stroke-linejoin:miter;stroke-miterlimit:10;"/><text x="103.6904" y="76.0625" fill="#000000" font-size="18" lengthAdjust="spacing" textLength="84.9375" font-family="Verdana">Operador</text><text x="336.2856" y="76.0625" fill="#000000" font-size="18" lengthAdjust="spacing" textLength="135.501" font-family="Verdana">Frontend (SPA)</text><text x="626.2837" y="76.0625" fill="#000000" font-size="18" lengthAdjust="spacing" textLength="202.6143" font-family="Verdana">Backend (Spring Boot)</text><text x="1042.2642" y="76.0625" fill="#000000" font-size="18" lengthAdjust="spacing" textLength="191.3291" font-family="Verdana">Raspberry / OpenPLC</text><?plantuml-src VPBDZX9158Nt_HJNkB0x6KHPGg9nGDHa539CNBYxT5tWEjLLdQfg28Q53-4J-YIU0fGP4sL3TTNz_SvvaZRI2BMMrHNnNbtBWHjQSds_3hvpPkoj3_HqUlmzY8WRDdwdRaqhjb6APpHHNkE5oGXndNIhXWtLtX4oajRgdKGguquRopXMzFFx3rhPxgidtqfWf7WIPth9z_3tl4YQhD3qdn55SPZbQ-F3eOW9NOhXH5RgXBfc6TXAlAADnYH1eaOIKeVpbgqV8NSQF3wTeN8nVrCTYk5djfYPoY_ULBH7ewqopMUBE-fpgtsiij9rphm6dbDY6pA2Q-_JfS0L2CGZ0IRBT4eZpgqLBFU4cMEUYifCXpkZoGVbQbGCRoMste7WuCLB6WVX92PtlENOBYM4FVK9ExlvpVXG16aHK10DtxrzD6FV8Y-cKNww4I6n5CL5D9-ylniCg4pIj43JDGADgcFSkIe9y7J7mI_aSe2ke5sNSP_Xlgu8vd6urGhlA37stagWsISgWrZU7miBt46byt_5JAVOf04K5SXLVlEEgUaa93vbEQEhFDO5VoCSkm2tkeI1JhlJRgEmI0bgUR078H_EIYy4I0pCfjbxkkxG3-HhhIr6whs2Mo2NfMLNM_cVjlFVejdSnnpzJ6LcbBMprUYH6uSVlSkg2bFY9JRsMFTFCCviEJICHN3L_W80?></g></svg>