<svg xmlns="http://www.w3.org/2000/svg" xmlns:xlink="http://www.w3.org/1999/xlink" version="1.1" data-diagram-type="ACTIVITY" style="width:642px;height:589px;background:#FFFFFF;" width="642px" height="589px" viewBox="0 0 642 589" zoomAndPan="magnify" preserveAspectRatio="none" contentStyleType="text/css"><?plantuml 1.2026.7beta3?><defs/><g><g class="title" data-source-line="39"><text x="201.1508" y="32.9951" fill="#0F172A" font-size="14" lengthAdjust="spacing" textLength="237.7334" font-weight="700" font-family="sans-serif">Ciclo de control con histeresis</text></g><ellipse cx="240.8132" cy="62.2969" rx="10" ry="10" fill="#222222" style="stroke:#222222;stroke-width:1;"/><rect x="105.4153" y="92.2969" width="270.7959" height="35.1328" fill="#F8FAFC" style="stroke:#0891B2;stroke-width:0.5;" rx="6" ry="6"/><text x="115.4153" y="114.3638" fill="#0F172A" font-size="13" lengthAdjust="spacing" textLength="250.7959" font-family="sans-serif">Leer temperatura y humedad (DHT22)</text><rect x="136.2173" y="147.4297" width="209.1919" height="50.2656" fill="#F8FAFC" style="stroke:#0891B2;stroke-width:0.5;" rx="6" ry="6"/><text x="146.2173" y="169.4966" fill="#0F172A" font-size="13" lengthAdjust="spacing" textLength="189.1919" font-family="sans-serif">Obtener configuracion activa</text><text x="146.2173" y="184.6294" fill="#0F172A" font-size="13" lengthAdjust="spacing" textLength="149.7983" font-family="sans-serif">(GET /api/config/latest)</text><polygon points="100.7871,217.6953,380.8394,217.6953,392.8394,229.6953,380.8394,241.6953,100.7871,241.6953,88.7871,229.6953,100.7871,217.6953" fill="#FFEDD5" style="stroke:#C2410C;stroke-width:0.5;stroke-linejoin:miter;stroke-miterlimit:10;"/><text x="100.7871" y="234.1958" fill="#0F172A" font-size="13" lengthAdjust="spacing" textLength="280.0522" font-family="sans-serif">Temp >= tempMax  o  Hum >= humMax ?</text><text x="78.4023" y="226.6294" fill="#475569" font-size="13" lengthAdjust="spacing" textLength="10.3848" font-family="sans-serif">si</text><text x="392.8394" y="226.6294" fill="#475569" font-size="13" lengthAdjust="spacing" textLength="16.1929" font-family="sans-serif">no</text><rect x="16" y="251.6953" width="125.5742" height="50.2656" fill="#F8FAFC" style="stroke:#0891B2;stroke-width:0.5;" rx="6" ry="6"/><text x="26" y="273.7622" fill="#0F172A" font-size="13" lengthAdjust="spacing" textLength="105.5742" font-family="sans-serif">Encender cooler</text><text x="26" y="288.895" fill="#0F172A" font-size="13" lengthAdjust="spacing" textLength="66.8472" font-family="sans-serif">(relay ON)</text><polygon points="299.3599,251.6953,506.3188,251.6953,518.3188,266.8281,506.3188,281.9609,299.3599,281.9609,287.3599,266.8281,299.3599,251.6953" fill="#FFEDD5" style="stroke:#C2410C;stroke-width:0.5;stroke-linejoin:miter;stroke-miterlimit:10;"/><text x="299.3599" y="263.7622" fill="#0F172A" font-size="13" lengthAdjust="spacing" textLength="201.3223" font-family="sans-serif">Temp &lt;= tempMax - histTemp</text><text x="299.3599" y="278.895" fill="#0F172A" font-size="13" lengthAdjust="spacing" textLength="206.959" font-family="sans-serif">y Hum &lt;= humMax - histHum ?</text><text x="276.9751" y="263.7622" fill="#475569" font-size="13" lengthAdjust="spacing" textLength="10.3848" font-family="sans-serif">si</text><text x="518.3188" y="263.7622" fill="#475569" font-size="13" lengthAdjust="spacing" textLength="16.1929" font-family="sans-serif">no</text><rect x="221.9519" y="291.9609" width="110.8159" height="50.2656" fill="#F8FAFC" style="stroke:#0891B2;stroke-width:0.5;" rx="6" ry="6"/><text x="231.9519" y="314.0278" fill="#0F172A" font-size="13" lengthAdjust="spacing" textLength="90.8159" font-family="sans-serif">Apagar cooler</text><text x="231.9519" y="329.1606" fill="#0F172A" font-size="13" lengthAdjust="spacing" textLength="72.0776" font-family="sans-serif">(relay OFF)</text><rect x="434.6028" y="291.9609" width="187.4321" height="50.2656" fill="#F8FAFC" style="stroke:#0891B2;stroke-width:0.5;" rx="6" ry="6"/><text x="444.6028" y="314.0278" fill="#0F172A" font-size="13" lengthAdjust="spacing" textLength="165.9595" font-family="sans-serif">Mantener estado anterior</text><text x="444.6028" y="329.1606" fill="#0F172A" font-size="13" lengthAdjust="spacing" textLength="167.4321" font-family="sans-serif">(zona muerta / histeresis)</text><polygon points="402.8394,348.2266,414.8394,360.2266,402.8394,372.2266,390.8394,360.2266,402.8394,348.2266" fill="#FFEDD5" style="stroke:#C2410C;stroke-width:0.5;stroke-linejoin:miter;stroke-miterlimit:10;"/><polygon points="240.8132,378.2266,252.8132,390.2266,240.8132,402.2266,228.8132,390.2266,240.8132,378.2266" fill="#FFEDD5" style="stroke:#C2410C;stroke-width:0.5;stroke-linejoin:miter;stroke-miterlimit:10;"/><rect x="143.3711" y="422.2266" width="194.8843" height="50.2656" fill="#F8FAFC" style="stroke:#0891B2;stroke-width:0.5;" rx="6" ry="6"/><text x="153.3711" y="444.2935" fill="#0F172A" font-size="13" lengthAdjust="spacing" textLength="115.6226" font-family="sans-serif">Publicar medicion</text><text x="153.3711" y="459.4263" fill="#0F172A" font-size="13" lengthAdjust="spacing" textLength="174.8843" font-family="sans-serif">(POST /api/measurements)</text><rect x="106.1104" y="492.4922" width="269.4058" height="35.1328" fill="#F8FAFC" style="stroke:#0891B2;stroke-width:0.5;" rx="6" ry="6"/><text x="116.1104" y="514.5591" fill="#0F172A" font-size="13" lengthAdjust="spacing" textLength="249.4058" font-family="sans-serif">Esperar measurementIntervalSeconds</text><ellipse cx="240.8132" cy="558.625" rx="11" ry="11" fill="none" style="stroke:#222222;stroke-width:1;"/><ellipse cx="240.8132" cy="558.625" rx="6" ry="6" fill="#222222" style="stroke:#222222;stroke-width:1;"/><line x1="240.8132" y1="72.2969" x2="240.8132" y2="92.2969" style="stroke:#64748B;stroke-width:1.1;"/><polygon points="236.8132,82.2969,240.8132,92.2969,244.8132,82.2969,240.8132,86.2969" fill="#64748B" style="stroke:#64748B;stroke-width:1;stroke-linejoin:miter;stroke-miterlimit:10;"/><line x1="240.8132" y1="127.4297" x2="240.8132" y2="147.4297" style="stroke:#64748B;stroke-width:1.1;"/><polygon points="236.8132,137.4297,240.8132,147.4297,244.8132,137.4297,240.8132,141.4297" fill="#64748B" style="stroke:#64748B;stroke-width:1;stroke-linejoin:miter;stroke-miterlimit:10;"/><line x1="287.3599" y1="266.8281" x2="277.3599" y2="266.8281" style="stroke:#64748B;stroke-width:1.1;"/><line x1="277.3599" y1="266.8281" x2="277.3599" y2="291.9609" style="stroke:#64748B;stroke-width:1.1;"/><polygon points="273.3599,281.9609,277.3599,291.9609,281.3599,281.9609,277.3599,285.9609" fill="#64748B" style="stroke:#64748B;stroke-width:1;stroke-linejoin:miter;stroke-miterlimit:10;"/><line x1="518.3188" y1="266.8281" x2="528.3188" y2="266.8281" style="stroke:#64748B;stroke-width:1.1;"/><line x1="528.3188" y1="266.8281" x2="528.3188" y2="291.9609" style="stroke:#64748B;stroke-width:1.1;"/><polygon points="524.3188,281.9609,528.3188,291.9609,532.3188,281.9609,528.3188,285.9609" fill="#64748B" style="stroke:#64748B;stroke-width:1;stroke-linejoin:miter;stroke-miterlimit:10;"/><line x1="277.3599" y1="342.2266" x2="277.3599" y2="360.2266" style="stroke:#64748B;stroke-width:1.1;"/><line x1="277.3599" y1="360.2266" x2="390.8394" y2="360.2266" style="stroke:#64748B;stroke-width:1.1;"/><polygon points="380.8394,356.2266,390.8394,360.2266,380.8394,364.2266,384.8394,360.2266" fill="#64748B" style="stroke:#64748B;stroke-width:1;stroke-linejoin:miter;stroke-miterlimit:10;"/><line x1="528.3188" y1="342.2266" x2="528.3188" y2="360.2266" style="stroke:#64748B;stroke-width:1.1;"/><line x1="528.3188" y1="360.2266" x2="414.8394" y2="360.2266" style="stroke:#64748B;stroke-width:1.1;"/><polygon points="424.8394,356.2266,414.8394,360.2266,424.8394,364.2266,420.8394,360.2266" fill="#64748B" style="stroke:#64748B;stroke-width:1;stroke-linejoin:miter;stroke-miterlimit:10;"/><line x1="88.7871" y1="229.6953" x2="78.7871" y2="229.6953" style="stroke:#64748B;stroke-width:1.1;"/><line x1="78.7871" y1="229.6953" x2="78.7871" y2="251.6953" style="stroke:#64748B;stroke-width:1.1;"/><polygon points="74.7871,241.6953,78.7871,251.6953,82.7871,241.6953,78.7871,245.6953" fill="#64748B" style="stroke:#64748B;stroke-width:1;stroke-linejoin:miter;stroke-miterlimit:10;"/><line x1="392.8394" y1="229.6953" x2="402.8394" y2="229.6953" style="stroke:#64748B;stroke-width:1.1;"/><line x1="402.8394" y1="229.6953" x2="402.8394" y2="251.6953" style="stroke:#64748B;stroke-width:1.1;"/><polygon points="398.8394,241.6953,402.8394,251.6953,406.8394,241.6953,402.8394,245.6953" fill="#64748B" style="stroke:#64748B;stroke-width:1;stroke-linejoin:miter;stroke-miterlimit:10;"/><line x1="78.7871" y1="301.9609" x2="78.7871" y2="390.2266" style="stroke:#64748B;stroke-width:1.1;"/><line x1="78.7871" y1="390.2266" x2="228.8132" y2="390.2266" style="stroke:#64748B;stroke-width:1.1;"/><polygon points="218.8132,386.2266,228.8132,390.2266,218.8132,394.2266,222.8132,390.2266" fill="#64748B" style="stroke:#64748B;stroke-width:1;stroke-linejoin:miter;stroke-miterlimit:10;"/><line x1="402.8394" y1="372.2266" x2="402.8394" y2="390.2266" style="stroke:#64748B;stroke-width:1.1;"/><line x1="402.8394" y1="390.2266" x2="252.8132" y2="390.2266" style="stroke:#64748B;stroke-width:1.1;"/><polygon points="262.8132,386.2266,252.8132,390.2266,262.8132,394.2266,258.8132,390.2266" fill="#64748B" style="stroke:#64748B;stroke-width:1;stroke-linejoin:miter;stroke-miterlimit:10;"/><line x1="240.8132" y1="197.6953" x2="240.8132" y2="217.6953" style="stroke:#64748B;stroke-width:1.1;"/><polygon points="236.8132,207.6953,240.8132,217.6953,244.8132,207.6953,240.8132,211.6953" fill="#64748B" style="stroke:#64748B;stroke-width:1;stroke-linejoin:miter;stroke-miterlimit:10;"/><line x1="240.8132" y1="402.2266" x2="240.8132" y2="422.2266" style="stroke:#64748B;stroke-width:1.1;"/><polygon points="236.8132,412.2266,240.8132,422.2266,244.8132,412.2266,240.8132,416.2266" fill="#64748B" style="stroke:#64748B;stroke-width:1;stroke-linejoin:miter;stroke-miterlimit:10;"/><line x1="240.8132" y1="472.4922" x2="240.8132" y2="492.4922" style="stroke:#64748B;stroke-width:1.1;"/><polygon points="236.8132,482.4922,240.8132,492.4922,244.8132,482.4922,240.8132,486.4922" fill="#64748B" style="stroke:#64748B;stroke-width:1;stroke-linejoin:miter;stroke-miterlimit:10;"/><line x1="240.8132" y1="527.625" x2="240.8132" y2="547.625" style="stroke:#64748B;stroke-width:1.1;"/><polygon points="236.8132,537.625,240.8132,547.625,244.8132,537.625,240.8132,541.625" fill="#64748B" style="stroke:#64748B;stroke-width:1;stroke-linejoin:miter;stroke-miterlimit:10;"/><?plantuml-src ZLNRRjf047ttLupKXu0KGimb0PAsukQaKj942dtBos8FiCrwrzrT9oLF_OX-OR-aiuOGWoq84aRCd3bdPdOyUmIrMWtGM2uKn2f2BHKqJXjdK9a9Pez1OwHaX2nInv0mWPP1X08IhPOOMdK1Ct8h20NJYW2QWS0vdtB18nO1IhZYzZgTLfsEPvwuT9WOfYnycckLocYeXDBmASW-EOHPaEOBbtEOCM4mvrc7QOaQ_4RECS8PIuKDbBHhrjF0Fs_qoo4F_1N1R-QSVQtLophoh7NUwWnsdJdgrdcxVTRT1KmMF7oIQ0pu9txEIVqnPb0ekXFqWs41fZITmri5dQu_Q9H3zehrhTLycbhCvTnijlnsEzzaoomUJci5svjMQZ1afiWr7WRZhNDz0-vbOpHQkfXNC1wDsWLOdcdOQFcd-TGJ8c7paXhze1rqIu1vjcwhtnnqyfrLSQ8aIlk1ezn0zrOgwPqxJ9QXyZo5wQEdvI5FM5bknLhVmNlhDVWhHHdY3P_HLsxdC1oCscE_17r5uidXBAGgcxrnq1qsTr5RilrE_xIrFGNycTlbuJPka8U6BqEDE8jfkNre3BS2zWwaclwanNaurpMk9DCZ8A4vOTmgNekxPLlvSNjJXNz__aB8Grhdv0pftTTAk5zOS6DHe-46w9Z8f3Mw1OtY3KOBLvzubbk1CDnFuNcq4xJrUZT8MzXYdA1cDgNrluH56cEMp-XwqcXKBxpUtTIYszR4CUDpGeMSsBBCsQEiN8qdK6S9hw_yTRfuw4QYG8_Fe38XSlZoEHEvPRy15C1r6ZiJAJdBrohO1LLICRpg0VJ6D8DqPpaz9L2JWaR1bd3tdJYHBXEeIEMG6_hBT_fQLgMpFifb9dIv4Lhvd6r7aaJx2PkpecGGa2P0NfN0j_JcPHsXEgdhuFvghbpSgv8CuXGrtRJrNCTND3BYCs_rz7htwLJma4IftzorbCBlxnxMpOoHcLHZJ2l81VV6nfsH0s_itvpiCnCFI9sFp0KTgah-0m00?></g></svg>