<svg xmlns="http://www.w3.org/2000/svg" xmlns:xlink="http://www.w3.org/1999/xlink" version="1.1" data-diagram-type="ACTIVITY" style="width:562px;height:574px;background:#FFFFFF;" width="562px" height="574px" viewBox="0 0 562 574" zoomAndPan="magnify" preserveAspectRatio="none" contentStyleType="text/css"><?plantuml 1.2026.7beta3?><defs/><g><g class="title" data-source-line="5"><text x="93.4744" y="35.4209" fill="#000000" font-size="22" lengthAdjust="spacing" textLength="373.5811" font-weight="700" font-family="Verdana">Ciclo de control con histeresis</text></g><ellipse cx="210.2102" cy="66.6094" rx="10" ry="10" fill="#FFFFFF" style="stroke:#000000;stroke-width:1;"/><rect x="84.4583" y="96.6094" width="251.5039" height="33.9688" fill="#FFFFFF" style="stroke:#000000;stroke-width:1;" rx="12.5" ry="12.5"/><text x="94.4583" y="117.748" fill="#000000" font-size="12" lengthAdjust="spacing" textLength="231.5039" font-family="Verdana">Leer temperatura y humedad (DHT22)</text><rect x="112.8909" y="150.5781" width="194.6387" height="47.9375" fill="#FFFFFF" style="stroke:#000000;stroke-width:1;" rx="12.5" ry="12.5"/><text x="122.8909" y="171.7168" fill="#000000" font-size="12" lengthAdjust="spacing" textLength="174.6387" font-family="Verdana">Obtener configuracion activa</text><text x="122.8909" y="185.6855" fill="#000000" font-size="12" lengthAdjust="spacing" textLength="138.2754" font-family="Verdana">(GET /api/config/latest)</text><polygon points="91.7266,218.5156,328.6938,218.5156,340.6938,230.5156,328.6938,242.5156,91.7266,242.5156,79.7266,230.5156,91.7266,218.5156" fill="#FFFFFF" style="stroke:#000000;stroke-width:1;stroke-linejoin:miter;stroke-miterlimit:10;"/><text x="91.7266" y="234.3237" fill="#000000" font-size="11" lengthAdjust="spacing" textLength="236.9673" font-family="Verdana">Temp >= tempMax  o  Hum >= humMax ?</text><text x="70.9395" y="227.9214" fill="#000000" font-size="11" lengthAdjust="spacing" textLength="8.7871" font-family="Verdana">si</text><text x="340.6938" y="227.9214" fill="#000000" font-size="11" lengthAdjust="spacing" textLength="13.7017" font-family="Verdana">no</text><rect x="11" y="252.5156" width="117.4531" height="47.9375" fill="#FFFFFF" style="stroke:#000000;stroke-width:1;" rx="12.5" ry="12.5"/><text x="21" y="273.6543" fill="#000000" font-size="12" lengthAdjust="spacing" textLength="97.4531" font-family="Verdana">Encender cooler</text><text x="21" y="287.623" fill="#000000" font-size="12" lengthAdjust="spacing" textLength="61.7051" font-family="Verdana">(relay ON)</text><polygon points="263.1343,252.5156,438.2534,252.5156,450.2534,265.3203,438.2534,278.125,263.1343,278.125,251.1343,265.3203,263.1343,252.5156" fill="#FFFFFF" style="stroke:#000000;stroke-width:1;stroke-linejoin:miter;stroke-miterlimit:10;"/><text x="263.1343" y="262.7261" fill="#000000" font-size="11" lengthAdjust="spacing" textLength="170.3496" font-family="Verdana">Temp &lt;= tempMax - histTemp</text><text x="263.1343" y="275.5308" fill="#000000" font-size="11" lengthAdjust="spacing" textLength="175.1191" font-family="Verdana">y Hum &lt;= humMax - histHum ?</text><text x="242.3472" y="262.7261" fill="#000000" font-size="11" lengthAdjust="spacing" textLength="8.7871" font-family="Verdana">si</text><text x="450.2534" y="262.7261" fill="#000000" font-size="11" lengthAdjust="spacing" textLength="13.7017" font-family="Verdana">no</text><rect x="189.2192" y="288.125" width="103.8301" height="47.9375" fill="#FFFFFF" style="stroke:#000000;stroke-width:1;" rx="12.5" ry="12.5"/><text x="199.2192" y="309.2637" fill="#000000" font-size="12" lengthAdjust="spacing" textLength="83.8301" font-family="Verdana">Apagar cooler</text><text x="199.2192" y="323.2324" fill="#000000" font-size="12" lengthAdjust="spacing" textLength="66.5332" font-family="Verdana">(relay OFF)</text><rect x="372.9771" y="288.125" width="174.5527" height="47.9375" fill="#FFFFFF" style="stroke:#000000;stroke-width:1;" rx="12.5" ry="12.5"/><text x="382.9771" y="309.2637" fill="#000000" font-size="12" lengthAdjust="spacing" textLength="153.1934" font-family="Verdana">Mantener estado anterior</text><text x="382.9771" y="323.2324" fill="#000000" font-size="12" lengthAdjust="spacing" textLength="154.5527" font-family="Verdana">(zona muerta / histeresis)</text><polygon points="350.6938,342.0625,362.6938,354.0625,350.6938,366.0625,338.6938,354.0625,350.6938,342.0625" fill="#FFFFFF" style="stroke:#000000;stroke-width:1;stroke-linejoin:miter;stroke-miterlimit:10;"/><polygon points="210.2102,372.0625,222.2102,384.0625,210.2102,396.0625,198.2102,384.0625,210.2102,372.0625" fill="#FFFFFF" style="stroke:#000000;stroke-width:1;stroke-linejoin:miter;stroke-miterlimit:10;"/><rect x="119.4944" y="416.0625" width="181.4316" height="47.9375" fill="#FFFFFF" style="stroke:#000000;stroke-width:1;" rx="12.5" ry="12.5"/><text x="129.4944" y="437.2012" fill="#000000" font-size="12" lengthAdjust="spacing" textLength="106.7285" font-family="Verdana">Publicar medicion</text><text x="129.4944" y="451.1699" fill="#000000" font-size="12" lengthAdjust="spacing" textLength="161.4316" font-family="Verdana">(POST /api/measurements)</text><rect x="85.0999" y="484" width="250.2207" height="33.9688" fill="#FFFFFF" style="stroke:#000000;stroke-width:1;" rx="12.5" ry="12.5"/><text x="95.0999" y="505.1387" fill="#000000" font-size="12" lengthAdjust="spacing" textLength="230.2207" font-family="Verdana">Esperar measurementIntervalSeconds</text><ellipse cx="210.2102" cy="548.9688" rx="11" ry="11" fill="none" style="stroke:#000000;stroke-width:1;"/><ellipse cx="210.2102" cy="548.9688" rx="6" ry="6" fill="#FFFFFF" style="stroke:#000000;stroke-width:1;"/><line x1="210.2102" y1="76.6094" x2="210.2102" y2="96.6094" style="stroke:#000000;stroke-width:1;"/><polygon points="206.2102,86.6094,210.2102,96.6094,214.2102,86.6094,210.2102,90.6094" fill="#000000" style="stroke:#000000;stroke-width:1;stroke-linejoin:miter;stroke-miterlimit:10;"/><line x1="210.2102" y1="130.5781" x2="210.2102" y2="150.5781" style="stroke:#000000;stroke-width:1;"/><polygon points="206.2102,140.5781,210.2102,150.5781,214.2102,140.5781,210.2102,144.5781" fill="#000000" style="stroke:#000000;stroke-width:1;stroke-linejoin:miter;stroke-miterlimit:10;"/><line x1="251.1343" y1="265.3203" x2="241.1343" y2="265.3203" style="stroke:#000000;stroke-width:1;"/><line x1="241.1343" y1="265.3203" x2="241.1343" y2="288.125" style="stroke:#000000;stroke-width:1;"/><polygon points="237.1343,278.125,241.1343,288.125,245.1343,278.125,241.1343,282.125" fill="#000000" style="stroke:#000000;stroke-width:1;stroke-linejoin:miter;stroke-miterlimit:10;"/><line x1="450.2534" y1="265.3203" x2="460.2534" y2="265.3203" style="stroke:#000000;stroke-width:1;"/><line x1="460.2534" y1="265.3203" x2="460.2534" y2="288.125" style="stroke:#000000;stroke-width:1;"/><polygon points="456.2534,278.125,460.2534,288.125,464.2534,278.125,460.2534,282.125" fill="#000000" style="stroke:#000000;stroke-width:1;stroke-linejoin:miter;stroke-miterlimit:10;"/><line x1="241.1343" y1="336.0625" x2="241.1343" y2="354.0625" style="stroke:#000000;stroke-width:1;"/><line x1="241.1343" y1="354.0625" x2="338.6938" y2="354.0625" style="stroke:#000000;stroke-width:1;"/><polygon points="328.6938,350.0625,338.6938,354.0625,328.6938,358.0625,332.6938,354.0625" fill="#000000" style="stroke:#000000;stroke-width:1;stroke-linejoin:miter;stroke-miterlimit:10;"/><line x1="460.2534" y1="336.0625" x2="460.2534" y2="354.0625" style="stroke:#000000;stroke-width:1;"/><line x1="460.2534" y1="354.0625" x2="362.6938" y2="354.0625" style="stroke:#000000;stroke-width:1;"/><polygon points="372.6938,350.0625,362.6938,354.0625,372.6938,358.0625,368.6938,354.0625" fill="#000000" style="stroke:#000000;stroke-width:1;stroke-linejoin:miter;stroke-miterlimit:10;"/><line x1="79.7266" y1="230.5156" x2="69.7266" y2="230.5156" style="stroke:#000000;stroke-width:1;"/><line x1="69.7266" y1="230.5156" x2="69.7266" y2="252.5156" style="stroke:#000000;stroke-width:1;"/><polygon points="65.7266,242.5156,69.7266,252.5156,73.7266,242.5156,69.7266,246.5156" fill="#000000" style="stroke:#000000;stroke-width:1;stroke-linejoin:miter;stroke-miterlimit:10;"/><line x1="340.6938" y1="230.5156" x2="350.6938" y2="230.5156" style="stroke:#000000;stroke-width:1;"/><line x1="350.6938" y1="230.5156" x2="350.6938" y2="252.5156" style="stroke:#000000;stroke-width:1;"/><polygon points="346.6938,242.5156,350.6938,252.5156,354.6938,242.5156,350.6938,246.5156" fill="#000000" style="stroke:#000000;stroke-width:1;stroke-linejoin:miter;stroke-miterlimit:10;"/><line x1="69.7266" y1="300.4531" x2="69.7266" y2="384.0625" style="stroke:#000000;stroke-width:1;"/><line x1="69.7266" y1="384.0625" x2="198.2102" y2="384.0625" style="stroke:#000000;stroke-width:1;"/><polygon points="188.2102,380.0625,198.2102,384.0625,188.2102,388.0625,192.2102,384.0625" fill="#000000" style="stroke:#000000;stroke-width:1;stroke-linejoin:miter;stroke-miterlimit:10;"/><line x1="350.6938" y1="366.0625" x2="350.6938" y2="384.0625" style="stroke:#000000;stroke-width:1;"/><line x1="350.6938" y1="384.0625" x2="222.2102" y2="384.0625" style="stroke:#000000;stroke-width:1;"/><polygon points="232.2102,380.0625,222.2102,384.0625,232.2102,388.0625,228.2102,384.0625" fill="#000000" style="stroke:#000000;stroke-width:1;stroke-linejoin:miter;stroke-miterlimit:10;"/><line x1="210.2102" y1="198.5156" x2="210.2102" y2="218.5156" style="stroke:#000000;stroke-width:1;"/><polygon points="206.2102,208.5156,210.2102,218.5156,214.2102,208.5156,210.2102,212.5156" fill="#000000" style="stroke:#000000;stroke-width:1;stroke-linejoin:miter;stroke-miterlimit:10;"/><line x1="210.2102" y1="396.0625" x2="210.2102" y2="416.0625" style="stroke:#000000;stroke-width:1;"/><polygon points="206.2102,406.0625,210.2102,416.0625,214.2102,406.0625,210.2102,410.0625" fill="#000000" style="stroke:#000000;stroke-width:1;stroke-linejoin:miter;stroke-miterlimit:10;"/><line x1="210.2102" y1="464" x2="210.2102" y2="484" style="stroke:#000000;stroke-width:1;"/><polygon points="206.2102,474,210.2102,484,214.2102,474,210.2102,478" fill="#000000" style="stroke:#000000;stroke-width:1;stroke-linejoin:miter;stroke-miterlimit:10;"/><line x1="210.2102" y1="517.9688" x2="210.2102" y2="537.9688" style="stroke:#000000;stroke-width:1;"/><polygon points="206.2102,527.9688,210.2102,537.9688,214.2102,527.9688,210.2102,531.9688" fill="#000000" style="stroke:#000000;stroke-width:1;stroke-linejoin:miter;stroke-miterlimit:10;"/><?plantuml-src VP91Rjim44NtFCKlkgYyQ0ragQGD2iTE0iHrW3YxRCRIM1w48bMIIkgkUeYUi2VfK4eTemMgXGJE_FcF_DIRjEEMqLaIP-AZk8u2jTXGzTW4txjwvgqFUBiOdYD5t57jdyKrs9ADRDxXGgZH3g5cK9NaIMggKTmlRoRuzUCdAgcipytAknIypL_i92OE72NYQvzR8J3OWUqVcMB21vCaMSRi_nR6n4GXcVA6EI1nst6Wr0V27hk-vM4_5rVhavF9gIbNcyHETUgnbKPLbQZRi7DwSCNbV8qfTJ8T-rDBYMFIGIDR56irnwUF0sH9tm0FNFLjBYafLyudq6mTYYWJ0vHpLx6h1vwt79GGsD8Ugo_goHeX2kUpyc1_zch_VZXbhZwu_G0wEu36NgxzXLJevuuQ-XUvM2WJEAQgU4bkJ4JFgQaZBuFuFFVTEqBRSqY4wL7YeushPMl6jobl-usLIg6Qj-H8TVnsTVSIPiiK-w2_d4jvk9p7V4TPVAXVP-mJsJlMvEjugfVgkzy0?></g></svg>