<svg xmlns="http://www.w3.org/2000/svg" xmlns:xlink="http://www.w3.org/1999/xlink" contentStyleType="text/css" data-diagram-type="ACTIVITY" height="671px" preserveAspectRatio="none" style="width:866px;height:671px;background:#FFFFFF;" version="1.1" viewBox="0 0 866 671" width="866px" zoomAndPan="magnify"><?plantuml 1.2026.6?><defs/><g><g class="title" data-source-line="5"><text fill="#000000" font-family="Verdana" font-size="22" font-weight="700" lengthAdjust="spacing" textLength="545.5635" x="159.5898" y="37.1182">Ley de control (OpenPLC, programa Ladder)</text></g><ellipse cx="417.2395" cy="67.7373" fill="#FFFFFF" rx="10" ry="10" style="stroke:#000000;stroke-width:1;"/><rect fill="#FFFFFF" height="49.168" rx="12.5" ry="12.5" style="stroke:#000000;stroke-width:1;" width="205.4785" x="314.5002" y="97.7373"/><text fill="#000000" font-family="Verdana" font-size="12" lengthAdjust="spacing" textLength="133.4063" x="324.5002" y="119.8018">Leer registros Modbus</text><text fill="#000000" font-family="Verdana" font-size="12" lengthAdjust="spacing" textLength="185.4785" x="324.5002" y="134.3857">(temp, umbralOFF, umbralON)</text><rect fill="#FFFFFF" height="49.168" rx="12.5" ry="12.5" style="stroke:#000000;stroke-width:1;" width="155.2754" x="339.6018" y="218.3269"/><text fill="#000000" font-family="Verdana" font-size="12" lengthAdjust="spacing" textLength="103.1074" x="349.6018" y="240.3914">cooler := FALSE;</text><text fill="#000000" font-family="Verdana" font-size="12" lengthAdjust="spacing" textLength="135.2754" x="349.6018" y="254.9753">Estado := 3 (fail-safe)</text><ellipse cx="417.2395" cy="298.7266" fill="none" rx="11" ry="11" style="stroke:#000000;stroke-width:1;"/><ellipse cx="417.2395" cy="298.7266" fill="#FFFFFF" rx="6" ry="6" style="stroke:#000000;stroke-width:1;"/><polygon fill="#FFFFFF" points="345.949,166.9053,488.53,166.9053,500.53,180.2739,488.53,193.6426,345.949,193.6426,333.949,180.2739,345.949,166.9053" style="stroke:#000000;stroke-width:1;stroke-linejoin:miter;stroke-miterlimit:10;"/><text fill="#000000" font-family="Verdana" font-size="11" lengthAdjust="spacing" textLength="13.6372" x="421.2395" y="204.7017">no</text><text fill="#000000" font-family="Verdana" font-size="11" lengthAdjust="spacing" textLength="76.3608" x="345.949" y="177.9644">banda valida?</text><text fill="#000000" font-family="Verdana" font-size="11" lengthAdjust="spacing" textLength="142.5811" x="345.949" y="191.333">(umbralON &gt; umbralOFF)</text><text fill="#000000" font-family="Verdana" font-size="11" lengthAdjust="spacing" textLength="8.7495" x="500.53" y="177.9644">si</text><polygon fill="#FFFFFF" points="367.5515,351.7266,466.9275,351.7266,478.9275,363.7266,466.9275,375.7266,367.5515,375.7266,355.5515,363.7266,367.5515,351.7266" style="stroke:#000000;stroke-width:1;stroke-linejoin:miter;stroke-miterlimit:10;"/><text fill="#000000" font-family="Verdana" font-size="11" lengthAdjust="spacing" textLength="99.376" x="367.5515" y="368.1013">cooler encendido?</text><text fill="#000000" font-family="Verdana" font-size="11" lengthAdjust="spacing" textLength="8.7495" x="346.802" y="361.417">si</text><text fill="#000000" font-family="Verdana" font-size="11" lengthAdjust="spacing" textLength="13.6372" x="478.9275" y="361.417">no</text><polygon fill="#FFFFFF" points="106.7764,385.7266,283.2383,385.7266,295.2383,399.0952,283.2383,412.4639,106.7764,412.4639,94.7764,399.0952,106.7764,385.7266" style="stroke:#000000;stroke-width:1;stroke-linejoin:miter;stroke-miterlimit:10;"/><text fill="#000000" font-family="Verdana" font-size="11" lengthAdjust="spacing" textLength="114.313" x="106.7764" y="396.7856">temp &lt;= umbralOFF</text><text fill="#000000" font-family="Verdana" font-size="11" lengthAdjust="spacing" textLength="176.4619" x="106.7764" y="410.1543">y min ON cumplido (TON 15 s)?</text><text fill="#000000" font-family="Verdana" font-size="11" lengthAdjust="spacing" textLength="8.7495" x="86.0269" y="396.7856">si</text><text fill="#000000" font-family="Verdana" font-size="11" lengthAdjust="spacing" textLength="13.6372" x="295.2383" y="396.7856">no</text><rect fill="#FFFFFF" height="49.168" rx="12.5" ry="12.5" style="stroke:#000000;stroke-width:1;" width="147.5527" x="11" y="422.4639"/><text fill="#000000" font-family="Verdana" font-size="12" lengthAdjust="spacing" textLength="103.1074" x="21" y="444.5283">cooler := FALSE;</text><text fill="#000000" font-family="Verdana" font-size="12" lengthAdjust="spacing" textLength="127.5527" x="21" y="459.1123">Estado := 0 (reposo)</text><rect fill="#FFFFFF" height="49.168" rx="12.5" ry="12.5" style="stroke:#000000;stroke-width:1;" width="199.666" x="205.4053" y="422.4639"/><text fill="#000000" font-family="Verdana" font-size="12" lengthAdjust="spacing" textLength="84.4746" x="215.4053" y="444.5283">mantiene ON;</text><text fill="#000000" font-family="Verdana" font-size="12" lengthAdjust="spacing" textLength="179.666" x="215.4053" y="459.1123">Estado := 1 o 2 (anti-ciclado)</text><polygon fill="#FFFFFF" points="195.0073,477.6318,207.0073,489.6318,195.0073,501.6318,183.0073,489.6318,195.0073,477.6318" style="stroke:#000000;stroke-width:1;stroke-linejoin:miter;stroke-miterlimit:10;"/><polygon fill="#FFFFFF" points="549.0332,385.7266,729.9102,385.7266,741.9102,399.0952,729.9102,412.4639,549.0332,412.4639,537.0332,399.0952,549.0332,385.7266" style="stroke:#000000;stroke-width:1;stroke-linejoin:miter;stroke-miterlimit:10;"/><text fill="#000000" font-family="Verdana" font-size="11" lengthAdjust="spacing" textLength="109.8979" x="549.0332" y="396.7856">temp &gt;= umbralON</text><text fill="#000000" font-family="Verdana" font-size="11" lengthAdjust="spacing" textLength="180.877" x="549.0332" y="410.1543">y min OFF cumplido (TON 15 s)?</text><text fill="#000000" font-family="Verdana" font-size="11" lengthAdjust="spacing" textLength="8.7495" x="528.2837" y="396.7856">si</text><text fill="#000000" font-family="Verdana" font-size="11" lengthAdjust="spacing" textLength="13.6372" x="741.9102" y="396.7856">no</text><rect fill="#FFFFFF" height="49.168" rx="12.5" ry="12.5" style="stroke:#000000;stroke-width:1;" width="163.9238" x="445.0713" y="422.4639"/><text fill="#000000" font-family="Verdana" font-size="12" lengthAdjust="spacing" textLength="97.6465" x="455.0713" y="444.5283">cooler := TRUE;</text><text fill="#000000" font-family="Verdana" font-size="12" lengthAdjust="spacing" textLength="143.9238" x="455.0713" y="459.1123">Estado := 1 (enfriando)</text><rect fill="#FFFFFF" height="49.168" rx="12.5" ry="12.5" style="stroke:#000000;stroke-width:1;" width="199.666" x="652.0771" y="422.4639"/><text fill="#000000" font-family="Verdana" font-size="12" lengthAdjust="spacing" textLength="89.291" x="662.0771" y="444.5283">mantiene OFF;</text><text fill="#000000" font-family="Verdana" font-size="12" lengthAdjust="spacing" textLength="179.666" x="662.0771" y="459.1123">Estado := 0 o 2 (anti-ciclado)</text><polygon fill="#FFFFFF" points="639.4717,477.6318,651.4717,489.6318,639.4717,501.6318,627.4717,489.6318,639.4717,477.6318" style="stroke:#000000;stroke-width:1;stroke-linejoin:miter;stroke-miterlimit:10;"/><polygon fill="#FFFFFF" points="417.2395,507.6318,429.2395,519.6318,417.2395,531.6318,405.2395,519.6318,417.2395,507.6318" style="stroke:#000000;stroke-width:1;stroke-linejoin:miter;stroke-miterlimit:10;"/><path d="M534.2922,541.6318 L534.2922,574.2305 L514.2922,578.2305 L534.2922,582.2305 L534.2922,614.8291 A0,0 0 0 0 534.2922,614.8291 L829.1809,614.8291 A0,0 0 0 0 829.1809,614.8291 L829.1809,551.6318 L819.1809,541.6318 L534.2922,541.6318 A0,0 0 0 0 534.2922,541.6318" fill="#FFFFFF" style="stroke:#000000;stroke-width:1;"/><path d="M819.1809,541.6318 L819.1809,551.6318 L829.1809,551.6318 L819.1809,541.6318" fill="#FFFFFF" style="stroke:#000000;stroke-width:1;"/><text fill="#000000" font-family="Verdana" font-size="13" lengthAdjust="spacing" textLength="198.0088" x="540.2922" y="559.7017">umbralON  = temperatureMax</text><text fill="#000000" font-family="Verdana" font-size="13" lengthAdjust="spacing" textLength="273.8887" x="540.2922" y="575.501">umbralOFF = temperatureMax - histTemp</text><text fill="#000000" font-family="Verdana" font-size="13" lengthAdjust="spacing" textLength="218.772" x="540.2922" y="591.3003">El gateway escribe las entradas y</text><text fill="#000000" font-family="Verdana" font-size="13" lengthAdjust="spacing" textLength="207.0034" x="540.2922" y="607.0996">acciona el relay con la decision.</text><rect fill="#FFFFFF" height="49.168" rx="12.5" ry="12.5" style="stroke:#000000;stroke-width:1;" width="194.1055" x="320.1868" y="553.6465"/><text fill="#000000" font-family="Verdana" font-size="12" lengthAdjust="spacing" textLength="131.877" x="330.1868" y="575.7109">Expone coil 0 (cooler)</text><text fill="#000000" font-family="Verdana" font-size="12" lengthAdjust="spacing" textLength="174.1055" x="330.1868" y="590.2949">y HR10 (Estado) por Modbus</text><ellipse cx="417.2395" cy="645.8291" fill="none" rx="11" ry="11" style="stroke:#000000;stroke-width:1;"/><ellipse cx="417.2395" cy="645.8291" fill="#FFFFFF" rx="6" ry="6" style="stroke:#000000;stroke-width:1;"/><line style="stroke:#000000;stroke-width:1;" x1="417.2395" x2="417.2395" y1="77.7373" y2="97.7373"/><polygon fill="#000000" points="413.2395,87.7373,417.2395,97.7373,421.2395,87.7373,417.2395,91.7373" style="stroke:#000000;stroke-width:1;stroke-linejoin:miter;stroke-miterlimit:10;"/><line style="stroke:#000000;stroke-width:1;" x1="417.2395" x2="417.2395" y1="267.4949" y2="287.7266"/><polygon fill="#000000" points="413.2395,277.7266,417.2395,287.7266,421.2395,277.7266,417.2395,281.7266" style="stroke:#000000;stroke-width:1;stroke-linejoin:miter;stroke-miterlimit:10;"/><line style="stroke:#000000;stroke-width:1;" x1="417.2395" x2="417.2395" y1="193.6426" y2="218.3269"/><polygon fill="#000000" points="413.2395,208.3269,417.2395,218.3269,421.2395,208.3269,417.2395,212.3269" style="stroke:#000000;stroke-width:1;stroke-linejoin:miter;stroke-miterlimit:10;"/><line style="stroke:#000000;stroke-width:1;" x1="500.53" x2="512.53" y1="180.2739" y2="180.2739"/><polygon fill="#000000" points="508.53,257.7266,512.53,267.7266,516.53,257.7266,512.53,261.7266" style="stroke:#000000;stroke-width:1;stroke-linejoin:miter;stroke-miterlimit:10;"/><line style="stroke:#000000;stroke-width:1;" x1="512.53" x2="512.53" y1="180.2739" y2="331.7266"/><line style="stroke:#000000;stroke-width:1;" x1="512.53" x2="417.2395" y1="331.7266" y2="331.7266"/><line style="stroke:#000000;stroke-width:1;" x1="417.2395" x2="417.2395" y1="331.7266" y2="351.7266"/><polygon fill="#000000" points="413.2395,341.7266,417.2395,351.7266,421.2395,341.7266,417.2395,345.7266" style="stroke:#000000;stroke-width:1;stroke-linejoin:miter;stroke-miterlimit:10;"/><line style="stroke:#000000;stroke-width:1;" x1="417.2395" x2="417.2395" y1="146.9053" y2="166.9053"/><polygon fill="#000000" points="413.2395,156.9053,417.2395,166.9053,421.2395,156.9053,417.2395,160.9053" style="stroke:#000000;stroke-width:1;stroke-linejoin:miter;stroke-miterlimit:10;"/><line style="stroke:#000000;stroke-width:1;" x1="94.7764" x2="84.7764" y1="399.0952" y2="399.0952"/><line style="stroke:#000000;stroke-width:1;" x1="84.7764" x2="84.7764" y1="399.0952" y2="422.4639"/><polygon fill="#000000" points="80.7764,412.4639,84.7764,422.4639,88.7764,412.4639,84.7764,416.4639" style="stroke:#000000;stroke-width:1;stroke-linejoin:miter;stroke-miterlimit:10;"/><line style="stroke:#000000;stroke-width:1;" x1="295.2383" x2="305.2383" y1="399.0952" y2="399.0952"/><line style="stroke:#000000;stroke-width:1;" x1="305.2383" x2="305.2383" y1="399.0952" y2="422.4639"/><polygon fill="#000000" points="301.2383,412.4639,305.2383,422.4639,309.2383,412.4639,305.2383,416.4639" style="stroke:#000000;stroke-width:1;stroke-linejoin:miter;stroke-miterlimit:10;"/><line style="stroke:#000000;stroke-width:1;" x1="84.7764" x2="84.7764" y1="471.6318" y2="489.6318"/><line style="stroke:#000000;stroke-width:1;" x1="84.7764" x2="183.0073" y1="489.6318" y2="489.6318"/><polygon fill="#000000" points="173.0073,485.6318,183.0073,489.6318,173.0073,493.6318,177.0073,489.6318" style="stroke:#000000;stroke-width:1;stroke-linejoin:miter;stroke-miterlimit:10;"/><line style="stroke:#000000;stroke-width:1;" x1="305.2383" x2="305.2383" y1="471.6318" y2="489.6318"/><line style="stroke:#000000;stroke-width:1;" x1="305.2383" x2="207.0073" y1="489.6318" y2="489.6318"/><polygon fill="#000000" points="217.0073,485.6318,207.0073,489.6318,217.0073,493.6318,213.0073,489.6318" style="stroke:#000000;stroke-width:1;stroke-linejoin:miter;stroke-miterlimit:10;"/><line style="stroke:#000000;stroke-width:1;" x1="537.0332" x2="527.0332" y1="399.0952" y2="399.0952"/><line style="stroke:#000000;stroke-width:1;" x1="527.0332" x2="527.0332" y1="399.0952" y2="422.4639"/><polygon fill="#000000" points="523.0332,412.4639,527.0332,422.4639,531.0332,412.4639,527.0332,416.4639" style="stroke:#000000;stroke-width:1;stroke-linejoin:miter;stroke-miterlimit:10;"/><line style="stroke:#000000;stroke-width:1;" x1="741.9102" x2="751.9102" y1="399.0952" y2="399.0952"/><line style="stroke:#000000;stroke-width:1;" x1="751.9102" x2="751.9102" y1="399.0952" y2="422.4639"/><polygon fill="#000000" points="747.9102,412.4639,751.9102,422.4639,755.9102,412.4639,751.9102,416.4639" style="stroke:#000000;stroke-width:1;stroke-linejoin:miter;stroke-miterlimit:10;"/><line style="stroke:#000000;stroke-width:1;" x1="527.0332" x2="527.0332" y1="471.6318" y2="489.6318"/><line style="stroke:#000000;stroke-width:1;" x1="527.0332" x2="627.4717" y1="489.6318" y2="489.6318"/><polygon fill="#000000" points="617.4717,485.6318,627.4717,489.6318,617.4717,493.6318,621.4717,489.6318" style="stroke:#000000;stroke-width:1;stroke-linejoin:miter;stroke-miterlimit:10;"/><line style="stroke:#000000;stroke-width:1;" x1="751.9102" x2="751.9102" y1="471.6318" y2="489.6318"/><line style="stroke:#000000;stroke-width:1;" x1="751.9102" x2="651.4717" y1="489.6318" y2="489.6318"/><polygon fill="#000000" points="661.4717,485.6318,651.4717,489.6318,661.4717,493.6318,657.4717,489.6318" style="stroke:#000000;stroke-width:1;stroke-linejoin:miter;stroke-miterlimit:10;"/><line style="stroke:#000000;stroke-width:1;" x1="355.5515" x2="195.0073" y1="363.7266" y2="363.7266"/><line style="stroke:#000000;stroke-width:1;" x1="195.0073" x2="195.0073" y1="363.7266" y2="385.7266"/><polygon fill="#000000" points="191.0073,375.7266,195.0073,385.7266,199.0073,375.7266,195.0073,379.7266" style="stroke:#000000;stroke-width:1;stroke-linejoin:miter;stroke-miterlimit:10;"/><line style="stroke:#000000;stroke-width:1;" x1="478.9275" x2="639.4717" y1="363.7266" y2="363.7266"/><line style="stroke:#000000;stroke-width:1;" x1="639.4717" x2="639.4717" y1="363.7266" y2="385.7266"/><polygon fill="#000000" points="635.4717,375.7266,639.4717,385.7266,643.4717,375.7266,639.4717,379.7266" style="stroke:#000000;stroke-width:1;stroke-linejoin:miter;stroke-miterlimit:10;"/><line style="stroke:#000000;stroke-width:1;" x1="195.0073" x2="195.0073" y1="501.6318" y2="519.6318"/><line style="stroke:#000000;stroke-width:1;" x1="195.0073" x2="405.2395" y1="519.6318" y2="519.6318"/><polygon fill="#000000" points="395.2395,515.6318,405.2395,519.6318,395.2395,523.6318,399.2395,519.6318" style="stroke:#000000;stroke-width:1;stroke-linejoin:miter;stroke-miterlimit:10;"/><line style="stroke:#000000;stroke-width:1;" x1="639.4717" x2="639.4717" y1="501.6318" y2="519.6318"/><line style="stroke:#000000;stroke-width:1;" x1="639.4717" x2="429.2395" y1="519.6318" y2="519.6318"/><polygon fill="#000000" points="439.2395,515.6318,429.2395,519.6318,439.2395,523.6318,435.2395,519.6318" style="stroke:#000000;stroke-width:1;stroke-linejoin:miter;stroke-miterlimit:10;"/><line style="stroke:#000000;stroke-width:1;" x1="417.2395" x2="417.2395" y1="531.6318" y2="553.6465"/><polygon fill="#000000" points="413.2395,543.6465,417.2395,553.6465,421.2395,543.6465,417.2395,547.6465" style="stroke:#000000;stroke-width:1;stroke-linejoin:miter;stroke-miterlimit:10;"/><line style="stroke:#000000;stroke-width:1;" x1="417.2395" x2="417.2395" y1="602.8145" y2="634.8291"/><polygon fill="#000000" points="413.2395,624.8291,417.2395,634.8291,421.2395,624.8291,417.2395,628.8291" style="stroke:#000000;stroke-width:1;stroke-linejoin:miter;stroke-miterlimit:10;"/><?plantuml-src bPFFJjj04CRl-nHVrKDj2H1GzP8KK4LZzP10HSEDosGzIRQiTztTDP1R7u8dx9DqDeO4SYYgJ_Ry_NtZcNTfoGsZjMISYhV6jHIemOpqxIBupjNdtlg0zzNwUH4HbrJxU-CMc9EDh3xWgw65U0WrWtGoTwQc6iNrP5pYp-z7M5vbb_Ok1M_ngsFmJzPT8bosxBwFpy4Eccf2rEHG71-YYUM1IYPPnlXrUl6KiuSs-BxlcEgQGwbKJ1II6eoP0m8lJ9ICY8clPrsySKNYfjr3rym2sSkgshnUb4DbvYXcv8JXZgm8E9FuPpTEjqbb2PcSG3fVAc2WlRVIRN22wilunsXuuqP2KVji-OXYJiRkHvgpj01YygrYcHgAQ4h5hZPpjMxzL8QTpiRQdpstoN503idq-7ooHRbnApJ6GG1rrxH2xL5CvUle4sAvK-4Dr4CKWLiV_PgpH-mLIc93BXbsB9rU9Ht1unX5zkvhewsO-_IrhfT5Dlod6_wB3NvL_I__zEfwj4DIi9i78p_m3GLLjQFxdnBw7pGOFRJUvHKqDa-g1ocpW6zNHsBewvLevMBwRHigvnCZcCKoIRdD9k44UGuSA7M19_ImTSeOTftOnrAMU2f6YHjPB2ZnFQt0KGSpOrYAWfg2t4x4Ic98Q-CTYNuv02kHSZOI9GUaJHJFGTQ4pARoClu5?></g></svg>