<svg xmlns="http://www.w3.org/2000/svg" xmlns:xlink="http://www.w3.org/1999/xlink" version="1.1" data-diagram-type="CLASS" style="width:603px;height:1495px;background:#FFFFFF;" width="603px" height="1495px" viewBox="0 0 603 1495" zoomAndPan="magnify" preserveAspectRatio="none" contentStyleType="text/css"><?plantuml 1.2026.7beta3?><defs/><g><g class="title" data-source-line="5"><text x="197.9088" y="35.4209" fill="#000000" font-size="22" lengthAdjust="spacing" textLength="205.6377" font-weight="700" font-family="Verdana">Modelo de datos</text></g><!--class Config--><g class="entity" data-qualified-name="Config" id="ent0001" data-source-line="7"><rect x="281.04" y="158.8794" width="266.2793" height="300.7188" fill="#FFFFFF" style="stroke:#000000;stroke-width:1;" rx="2.5" ry="2.5"/><ellipse cx="347.7509" cy="179.0122" rx="9" ry="9" fill="#FFFFFF" style="stroke:#000000;stroke-width:1;"/><path d="M350.7197,184.6528 Q350.1416,184.9497 349.5009,185.0903 Q348.8603,185.2466 348.1572,185.2466 Q345.6572,185.2466 344.3291,183.6059 Q343.0166,181.9497 343.0166,178.8247 Q343.0166,175.6997 344.3291,174.0434 Q345.6572,172.3872 348.1572,172.3872 Q348.8603,172.3872 349.5009,172.5434 Q350.1572,172.6997 350.7197,172.9966 L350.7197,175.7153 Q350.0947,175.1372 349.5009,174.8716 Q348.9072,174.5903 348.2822,174.5903 Q346.9384,174.5903 346.2509,175.6684 Q345.5634,176.7309 345.5634,178.8247 Q345.5634,180.9184 346.2509,181.9966 Q346.9384,183.0591 348.2822,183.0591 Q348.9072,183.0591 349.5009,182.7934 Q350.0947,182.5122 350.7197,181.9341 L350.7197,184.6528 Z " fill="#000000"/><text x="363.2509" y="175.018" fill="#000000" font-size="12" lengthAdjust="spacing" textLength="129.3574" font-style="italic" font-family="Verdana">«documento configs»</text><text x="405.4702" y="190.8432" fill="#000000" font-size="14" lengthAdjust="spacing" textLength="44.9189" font-family="Verdana">Config</text><line x1="282.04" y1="199.145" x2="546.3193" y2="199.145" style="stroke:#000000;stroke-width:1;"/><g data-visibility-modifier="PUBLIC_FIELD"><ellipse cx="292.04" cy="212.7934" rx="3" ry="3" fill="none" style="stroke:#000000;stroke-width:1;"/></g><text x="299.04" y="216.1401" fill="#000000" font-size="14" lengthAdjust="spacing" textLength="68.1748" font-family="Verdana">id : String</text><g data-visibility-modifier="PUBLIC_FIELD"><ellipse cx="292.04" cy="229.0903" rx="3" ry="3" fill="none" style="stroke:#000000;stroke-width:1;"/></g><text x="299.04" y="232.437" fill="#000000" font-size="14" lengthAdjust="spacing" textLength="174.4805" font-family="Verdana">temperatureMin : double</text><g data-visibility-modifier="PUBLIC_FIELD"><ellipse cx="292.04" cy="245.3872" rx="3" ry="3" fill="none" style="stroke:#000000;stroke-width:1;"/></g><text x="299.04" y="248.7339" fill="#000000" font-size="14" lengthAdjust="spacing" textLength="178.582" font-family="Verdana">temperatureMax : double</text><g data-visibility-modifier="PUBLIC_FIELD"><ellipse cx="292.04" cy="261.6841" rx="3" ry="3" fill="none" style="stroke:#000000;stroke-width:1;"/></g><text x="299.04" y="265.0307" fill="#000000" font-size="14" lengthAdjust="spacing" textLength="147.998" font-family="Verdana">humidityMin : double</text><g data-visibility-modifier="PUBLIC_FIELD"><ellipse cx="292.04" cy="277.9809" rx="3" ry="3" fill="none" style="stroke:#000000;stroke-width:1;"/></g><text x="299.04" y="281.3276" fill="#000000" font-size="14" lengthAdjust="spacing" textLength="152.0996" font-family="Verdana">humidityMax : double</text><g data-visibility-modifier="PUBLIC_FIELD"><ellipse cx="292.04" cy="294.2778" rx="3" ry="3" fill="none" style="stroke:#000000;stroke-width:1;"/></g><text x="299.04" y="297.6245" fill="#000000" font-size="14" lengthAdjust="spacing" textLength="224.1025" font-family="Verdana">hysteresisTemperature : double</text><g data-visibility-modifier="PUBLIC_FIELD"><ellipse cx="292.04" cy="310.5747" rx="3" ry="3" fill="none" style="stroke:#000000;stroke-width:1;"/></g><text x="299.04" y="313.9214" fill="#000000" font-size="14" lengthAdjust="spacing" textLength="196.2119" font-family="Verdana">hysteresisHumidity : double</text><g data-visibility-modifier="PUBLIC_FIELD"><ellipse cx="292.04" cy="326.8716" rx="3" ry="3" fill="none" style="stroke:#000000;stroke-width:1;"/></g><text x="299.04" y="330.2182" fill="#000000" font-size="14" lengthAdjust="spacing" textLength="242.2793" font-family="Verdana">measurementIntervalSeconds : int</text><g data-visibility-modifier="PUBLIC_FIELD"><ellipse cx="292.04" cy="343.1684" rx="3" ry="3" fill="none" style="stroke:#000000;stroke-width:1;"/></g><text x="299.04" y="346.5151" fill="#000000" font-size="14" lengthAdjust="spacing" textLength="168.2256" font-family="Verdana">createdByName : String</text><g data-visibility-modifier="PUBLIC_FIELD"><ellipse cx="292.04" cy="359.4653" rx="3" ry="3" fill="none" style="stroke:#000000;stroke-width:1;"/></g><text x="299.04" y="362.812" fill="#000000" font-size="14" lengthAdjust="spacing" textLength="165.7646" font-family="Verdana">createdByEmail : String</text><g data-visibility-modifier="PUBLIC_FIELD"><ellipse cx="292.04" cy="375.7622" rx="3" ry="3" fill="none" style="stroke:#000000;stroke-width:1;"/></g><text x="299.04" y="379.1089" fill="#000000" font-size="14" lengthAdjust="spacing" textLength="106.8662" font-family="Verdana">clientIp : String</text><g data-visibility-modifier="PUBLIC_FIELD"><ellipse cx="292.04" cy="392.0591" rx="3" ry="3" fill="none" style="stroke:#000000;stroke-width:1;"/></g><text x="299.04" y="395.4057" fill="#000000" font-size="14" lengthAdjust="spacing" textLength="127.374" font-family="Verdana">userAgent : String</text><g data-visibility-modifier="PUBLIC_FIELD"><ellipse cx="292.04" cy="408.3559" rx="3" ry="3" fill="none" style="stroke:#000000;stroke-width:1;"/></g><text x="299.04" y="411.7026" fill="#000000" font-size="14" lengthAdjust="spacing" textLength="178.3496" font-family="Verdana">deviceFingerprint : String</text><g data-visibility-modifier="PUBLIC_FIELD"><ellipse cx="292.04" cy="424.6528" rx="3" ry="3" fill="none" style="stroke:#000000;stroke-width:1;"/></g><text x="299.04" y="427.9995" fill="#000000" font-size="14" lengthAdjust="spacing" textLength="112.1436" font-family="Verdana">active : boolean</text><g data-visibility-modifier="PUBLIC_FIELD"><ellipse cx="292.04" cy="440.9497" rx="3" ry="3" fill="none" style="stroke:#000000;stroke-width:1;"/></g><text x="299.04" y="444.2964" fill="#000000" font-size="14" lengthAdjust="spacing" textLength="131.0449" font-family="Verdana">createdAt : Instant</text><line x1="282.04" y1="451.5981" x2="546.3193" y2="451.5981" style="stroke:#000000;stroke-width:1;"/></g><!--class Measurement--><g class="entity" data-qualified-name="Measurement" id="ent0002" data-source-line="25"><rect x="313.87" y="551.5894" width="200.6191" height="170.3438" fill="#FFFFFF" style="stroke:#000000;stroke-width:1;" rx="2.5" ry="2.5"/><ellipse cx="326.87" cy="571.7222" rx="9" ry="9" fill="#FFFFFF" style="stroke:#000000;stroke-width:1;"/><path d="M329.8388,577.3628 Q329.2606,577.6597 328.62,577.8003 Q327.9794,577.9566 327.2763,577.9566 Q324.7763,577.9566 323.4481,576.3159 Q322.1356,574.6597 322.1356,571.5347 Q322.1356,568.4097 323.4481,566.7534 Q324.7763,565.0972 327.2763,565.0972 Q327.9794,565.0972 328.62,565.2534 Q329.2763,565.4097 329.8388,565.7066 L329.8388,568.4253 Q329.2138,567.8472 328.62,567.5816 Q328.0263,567.3003 327.4013,567.3003 Q326.0575,567.3003 325.37,568.3784 Q324.6825,569.4409 324.6825,571.5347 Q324.6825,573.6284 325.37,574.7066 Q326.0575,575.7691 327.4013,575.7691 Q328.0263,575.7691 328.62,575.5034 Q329.2138,575.2222 329.8388,574.6441 L329.8388,577.3628 Z " fill="#000000"/><text x="336.87" y="567.728" fill="#000000" font-size="12" lengthAdjust="spacing" textLength="176.6191" font-style="italic" font-family="Verdana">«documento measurements»</text><text x="376.9691" y="583.5532" fill="#000000" font-size="14" lengthAdjust="spacing" textLength="96.4209" font-family="Verdana">Measurement</text><line x1="314.87" y1="591.855" x2="513.4891" y2="591.855" style="stroke:#000000;stroke-width:1;"/><g data-visibility-modifier="PUBLIC_FIELD"><ellipse cx="324.87" cy="605.5034" rx="3" ry="3" fill="none" style="stroke:#000000;stroke-width:1;"/></g><text x="331.87" y="608.8501" fill="#000000" font-size="14" lengthAdjust="spacing" textLength="68.1748" font-family="Verdana">id : String</text><g data-visibility-modifier="PUBLIC_FIELD"><ellipse cx="324.87" cy="621.8003" rx="3" ry="3" fill="none" style="stroke:#000000;stroke-width:1;"/></g><text x="331.87" y="625.147" fill="#000000" font-size="14" lengthAdjust="spacing" textLength="149.6387" font-family="Verdana">temperature : double</text><g data-visibility-modifier="PUBLIC_FIELD"><ellipse cx="324.87" cy="638.0972" rx="3" ry="3" fill="none" style="stroke:#000000;stroke-width:1;"/></g><text x="331.87" y="641.4439" fill="#000000" font-size="14" lengthAdjust="spacing" textLength="123.1563" font-family="Verdana">humidity : double</text><g data-visibility-modifier="PUBLIC_FIELD"><ellipse cx="324.87" cy="654.3941" rx="3" ry="3" fill="none" style="stroke:#000000;stroke-width:1;"/></g><text x="331.87" y="657.7407" fill="#000000" font-size="14" lengthAdjust="spacing" textLength="132.5693" font-family="Verdana">coolerOn : boolean</text><g data-visibility-modifier="PUBLIC_FIELD"><ellipse cx="324.87" cy="670.6909" rx="3" ry="3" fill="none" style="stroke:#000000;stroke-width:1;"/></g><text x="331.87" y="674.0376" fill="#000000" font-size="14" lengthAdjust="spacing" textLength="124.6055" font-family="Verdana">relayOn : boolean</text><g data-visibility-modifier="PUBLIC_FIELD"><ellipse cx="324.87" cy="686.9878" rx="3" ry="3" fill="none" style="stroke:#000000;stroke-width:1;"/></g><text x="331.87" y="690.3345" fill="#000000" font-size="14" lengthAdjust="spacing" textLength="153.4531" font-family="Verdana">status : SystemStatus</text><g data-visibility-modifier="PUBLIC_FIELD"><ellipse cx="324.87" cy="703.2847" rx="3" ry="3" fill="none" style="stroke:#000000;stroke-width:1;"/></g><text x="331.87" y="706.6314" fill="#000000" font-size="14" lengthAdjust="spacing" textLength="131.0449" font-family="Verdana">createdAt : Instant</text><line x1="314.87" y1="713.9331" x2="513.4891" y2="713.9331" style="stroke:#000000;stroke-width:1;"/></g><!--class EventAck--><g class="entity" data-qualified-name="EventAck" id="ent0003" data-source-line="35"><rect x="59.32" y="592.3394" width="177.7148" height="88.8594" fill="#FFFFFF" style="stroke:#000000;stroke-width:1;" rx="2.5" ry="2.5"/><ellipse cx="72.32" cy="612.4722" rx="9" ry="9" fill="#FFFFFF" style="stroke:#000000;stroke-width:1;"/><path d="M75.2888,618.1128 Q74.7106,618.4097 74.07,618.5503 Q73.4294,618.7066 72.7263,618.7066 Q70.2263,618.7066 68.8981,617.0659 Q67.5856,615.4097 67.5856,612.2847 Q67.5856,609.1597 68.8981,607.5034 Q70.2263,605.8472 72.7263,605.8472 Q73.4294,605.8472 74.07,606.0034 Q74.7263,606.1597 75.2888,606.4566 L75.2888,609.1753 Q74.6638,608.5972 74.07,608.3316 Q73.4763,608.0503 72.8513,608.0503 Q71.5075,608.0503 70.82,609.1284 Q70.1325,610.1909 70.1325,612.2847 Q70.1325,614.3784 70.82,615.4566 Q71.5075,616.5191 72.8513,616.5191 Q73.4763,616.5191 74.07,616.2534 Q74.6638,615.9722 75.2888,615.3941 L75.2888,618.1128 Z " fill="#000000"/><text x="82.32" y="608.478" fill="#000000" font-size="12" lengthAdjust="spacing" textLength="153.7148" font-style="italic" font-family="Verdana">«documento event_acks»</text><text x="126.4333" y="624.3032" fill="#000000" font-size="14" lengthAdjust="spacing" textLength="65.4883" font-family="Verdana">EventAck</text><line x1="60.32" y1="632.605" x2="236.0348" y2="632.605" style="stroke:#000000;stroke-width:1;"/><g data-visibility-modifier="PUBLIC_FIELD"><ellipse cx="70.32" cy="646.2534" rx="3" ry="3" fill="none" style="stroke:#000000;stroke-width:1;"/></g><text x="77.32" y="649.6001" fill="#000000" font-size="14" lengthAdjust="spacing" textLength="68.1748" font-family="Verdana">id : String</text><g data-visibility-modifier="PUBLIC_FIELD"><ellipse cx="70.32" cy="662.5503" rx="3" ry="3" fill="none" style="stroke:#000000;stroke-width:1;"/></g><text x="77.32" y="665.897" fill="#000000" font-size="14" lengthAdjust="spacing" textLength="119.2939" font-family="Verdana">ackedAt : Instant</text><line x1="60.32" y1="673.1988" x2="236.0348" y2="673.1988" style="stroke:#000000;stroke-width:1;"/></g><!--class EventResponse--><g class="entity" data-qualified-name="EventResponse" id="ent0004" data-source-line="40"><rect x="99.86" y="798.9394" width="194.6387" height="154.0469" fill="#FFFFFF" style="stroke:#000000;stroke-width:1;" rx="2.5" ry="2.5"/><ellipse cx="131.7846" cy="819.0722" rx="9" ry="9" fill="#FFFFFF" style="stroke:#000000;stroke-width:1;"/><path d="M134.7534,824.7128 Q134.1752,825.0097 133.5346,825.1503 Q132.894,825.3066 132.1909,825.3066 Q129.6909,825.3066 128.3627,823.6659 Q127.0502,822.0097 127.0502,818.8847 Q127.0502,815.7597 128.3627,814.1034 Q129.6909,812.4472 132.1909,812.4472 Q132.894,812.4472 133.5346,812.6034 Q134.1909,812.7597 134.7534,813.0566 L134.7534,815.7753 Q134.1284,815.1972 133.5346,814.9316 Q132.9409,814.6503 132.3159,814.6503 Q130.9721,814.6503 130.2846,815.7284 Q129.5971,816.7909 129.5971,818.8847 Q129.5971,820.9784 130.2846,822.0566 Q130.9721,823.1191 132.3159,823.1191 Q132.9409,823.1191 133.5346,822.8534 Q134.1284,822.5722 134.7534,821.9941 L134.7534,824.7128 Z " fill="#000000"/><text x="145.9901" y="815.078" fill="#000000" font-size="12" lengthAdjust="spacing" textLength="128.584" font-style="italic" font-family="Verdana">«DTO no se persiste»</text><text x="156.2953" y="830.9032" fill="#000000" font-size="14" lengthAdjust="spacing" textLength="107.9736" font-family="Verdana">EventResponse</text><line x1="100.86" y1="839.205" x2="293.4987" y2="839.205" style="stroke:#000000;stroke-width:1;"/><g data-visibility-modifier="PUBLIC_FIELD"><ellipse cx="110.86" cy="852.8534" rx="3" ry="3" fill="none" style="stroke:#000000;stroke-width:1;"/></g><text x="117.86" y="856.2001" fill="#000000" font-size="14" lengthAdjust="spacing" textLength="68.1748" font-family="Verdana">id : String</text><g data-visibility-modifier="PUBLIC_FIELD"><ellipse cx="110.86" cy="869.1503" rx="3" ry="3" fill="none" style="stroke:#000000;stroke-width:1;"/></g><text x="117.86" y="872.497" fill="#000000" font-size="14" lengthAdjust="spacing" textLength="93.9736" font-family="Verdana">time : Instant</text><g data-visibility-modifier="PUBLIC_FIELD"><ellipse cx="110.86" cy="885.4472" rx="3" ry="3" fill="none" style="stroke:#000000;stroke-width:1;"/></g><text x="117.86" y="888.7939" fill="#000000" font-size="14" lengthAdjust="spacing" textLength="167.7676" font-family="Verdana">severity : EventSeverity</text><g data-visibility-modifier="PUBLIC_FIELD"><ellipse cx="110.86" cy="901.7441" rx="3" ry="3" fill="none" style="stroke:#000000;stroke-width:1;"/></g><text x="117.86" y="905.0907" fill="#000000" font-size="14" lengthAdjust="spacing" textLength="119.335" font-family="Verdana">type : EventType</text><g data-visibility-modifier="PUBLIC_FIELD"><ellipse cx="110.86" cy="918.0409" rx="3" ry="3" fill="none" style="stroke:#000000;stroke-width:1;"/></g><text x="117.86" y="921.3876" fill="#000000" font-size="14" lengthAdjust="spacing" textLength="123.9424" font-family="Verdana">ackable : boolean</text><g data-visibility-modifier="PUBLIC_FIELD"><ellipse cx="110.86" cy="934.3378" rx="3" ry="3" fill="none" style="stroke:#000000;stroke-width:1;"/></g><text x="117.86" y="937.6845" fill="#000000" font-size="14" lengthAdjust="spacing" textLength="170.6387" font-family="Verdana">acknowledged : boolean</text><line x1="100.86" y1="944.9863" x2="293.4987" y2="944.9863" style="stroke:#000000;stroke-width:1;"/></g><!--class SystemStatus--><g class="entity" data-qualified-name="SystemStatus" id="ent0005" data-source-line="49"><rect x="377.65" y="821.3694" width="157.0654" height="109.1875" fill="#FFFFFF" style="stroke:#000000;stroke-width:1;" rx="2.5" ry="2.5"/><ellipse cx="405.1616" cy="835.3694" rx="9" ry="9" fill="#FFFFFF" style="stroke:#000000;stroke-width:1;"/><path d="M409.271,841.3694 L401.5522,841.3694 L401.5522,828.9788 L409.271,828.9788 L409.271,831.135 L404.0054,831.135 L404.0054,833.8069 L408.771,833.8069 L408.771,835.9631 L404.0054,835.9631 L404.0054,839.2131 L409.271,839.2131 L409.271,841.3694 Z " fill="#000000"/><text x="420.3864" y="840.2161" fill="#000000" font-size="14" lengthAdjust="spacing" textLength="96.8174" font-family="Verdana">SystemStatus</text><line x1="378.65" y1="849.3694" x2="533.7154" y2="849.3694" style="stroke:#000000;stroke-width:1;"/><text x="383.65" y="866.3645" fill="#000000" font-size="14" lengthAdjust="spacing" textLength="60.6758" font-family="Verdana">NORMAL</text><text x="383.65" y="882.6614" fill="#000000" font-size="14" lengthAdjust="spacing" textLength="113.9893" font-family="Verdana">WARNING_TEMP</text><text x="383.65" y="898.9582" fill="#000000" font-size="14" lengthAdjust="spacing" textLength="145.0654" font-family="Verdana">WARNING_HUMIDITY</text><text x="383.65" y="915.2551" fill="#000000" font-size="14" lengthAdjust="spacing" textLength="63.4648" font-family="Verdana">CRITICAL</text><line x1="378.65" y1="922.5569" x2="533.7154" y2="922.5569" style="stroke:#000000;stroke-width:1;"/></g><!--class EventType--><g class="entity" data-qualified-name="EventType" id="ent0006" data-source-line="56"><rect x="12" y="1029.9794" width="200.3574" height="158.0781" fill="#FFFFFF" style="stroke:#000000;stroke-width:1;" rx="2.5" ry="2.5"/><ellipse cx="71.207" cy="1043.9794" rx="9" ry="9" fill="#FFFFFF" style="stroke:#000000;stroke-width:1;"/><path d="M75.3164,1049.9794 L67.5977,1049.9794 L67.5977,1037.5888 L75.3164,1037.5888 L75.3164,1039.745 L70.0508,1039.745 L70.0508,1042.4169 L74.8164,1042.4169 L74.8164,1044.5731 L70.0508,1044.5731 L70.0508,1047.8231 L75.3164,1047.8231 L75.3164,1049.9794 Z " fill="#000000"/><text x="88.707" y="1048.8261" fill="#000000" font-size="14" lengthAdjust="spacing" textLength="74.4434" font-family="Verdana">EventType</text><line x1="13" y1="1057.9794" x2="211.3574" y2="1057.9794" style="stroke:#000000;stroke-width:1;"/><text x="18" y="1074.9745" fill="#000000" font-size="14" lengthAdjust="spacing" textLength="157.2813" font-family="Verdana">TEMP_OUT_OF_RANGE</text><text x="18" y="1091.2714" fill="#000000" font-size="14" lengthAdjust="spacing" textLength="188.3574" font-family="Verdana">HUMIDITY_OUT_OF_RANGE</text><text x="18" y="1107.5682" fill="#000000" font-size="14" lengthAdjust="spacing" textLength="63.4648" font-family="Verdana">CRITICAL</text><text x="18" y="1123.8651" fill="#000000" font-size="14" lengthAdjust="spacing" textLength="151.8193" font-family="Verdana">RETURN_TO_NORMAL</text><text x="18" y="1140.162" fill="#000000" font-size="14" lengthAdjust="spacing" textLength="86.6797" font-family="Verdana">COOLER_ON</text><text x="18" y="1156.4589" fill="#000000" font-size="14" lengthAdjust="spacing" textLength="92.3125" font-family="Verdana">COOLER_OFF</text><text x="18" y="1172.7557" fill="#000000" font-size="14" lengthAdjust="spacing" textLength="123.2109" font-family="Verdana">SENSOR_OFFLINE</text><line x1="13" y1="1180.0575" x2="211.3574" y2="1180.0575" style="stroke:#000000;stroke-width:1;"/></g><!--class EventSeverity--><g class="entity" data-qualified-name="EventSeverity" id="ent0007" data-source-line="66"><rect x="134.22" y="1265.0594" width="125.9248" height="109.1875" fill="#FFFFFF" style="stroke:#000000;stroke-width:1;" rx="2.5" ry="2.5"/><ellipse cx="147.22" cy="1279.0594" rx="9" ry="9" fill="#FFFFFF" style="stroke:#000000;stroke-width:1;"/><path d="M151.3294,1285.0594 L143.6106,1285.0594 L143.6106,1272.6688 L151.3294,1272.6688 L151.3294,1274.825 L146.0638,1274.825 L146.0638,1277.4969 L150.8294,1277.4969 L150.8294,1279.6531 L146.0638,1279.6531 L146.0638,1282.9031 L151.3294,1282.9031 L151.3294,1285.0594 Z " fill="#000000"/><text x="159.22" y="1283.9061" fill="#000000" font-size="14" lengthAdjust="spacing" textLength="97.9248" font-family="Verdana">EventSeverity</text><line x1="135.22" y1="1293.0594" x2="259.1448" y2="1293.0594" style="stroke:#000000;stroke-width:1;"/><text x="140.22" y="1310.0545" fill="#000000" font-size="14" lengthAdjust="spacing" textLength="33.6738" font-family="Verdana">INFO</text><text x="140.22" y="1326.3514" fill="#000000" font-size="14" lengthAdjust="spacing" textLength="65.3037" font-family="Verdana">SUCCESS</text><text x="140.22" y="1342.6482" fill="#000000" font-size="14" lengthAdjust="spacing" textLength="69.0703" font-family="Verdana">WARNING</text><text x="140.22" y="1358.9451" fill="#000000" font-size="14" lengthAdjust="spacing" textLength="63.4648" font-family="Verdana">CRITICAL</text><line x1="135.22" y1="1366.2469" x2="259.1448" y2="1366.2469" style="stroke:#000000;stroke-width:1;"/></g><g class="entity" data-qualified-name="GMN15" id="ent0016" data-source-line="82"><path d="M291.53,57.6094 L291.53,97.875 A0,0 0 0 0 291.53,97.875 L410.18,97.875 L414.18,158.4594 L418.18,97.875 L536.8181,97.875 A0,0 0 0 0 536.8181,97.875 L536.8181,67.6094 L526.8181,57.6094 L291.53,57.6094 A0,0 0 0 0 291.53,57.6094" style="stroke:#000000;stroke-width:1;" fill="#FFFFFF"/><path d="M526.8181,57.6094 L526.8181,67.6094 L536.8181,67.6094 L526.8181,57.6094" style="stroke:#000000;stroke-width:1;" fill="#FFFFFF"/><text x="297.53" y="74.6763" fill="#000000" font-size="13" lengthAdjust="spacing" textLength="224.2881" font-family="Verdana">{invariante} a lo sumo una Config</text><text x="297.53" y="89.8091" fill="#000000" font-size="13" lengthAdjust="spacing" textLength="219.9019" font-family="Verdana">con active = true (config vigente)</text></g><!--link Config to Measurement--><g class="link" data-entity-1="ent0001" data-entity-2="ent0002" id="lnk8" data-source-line="73" data-link-type="dependency"><path d="M414.18,459.6594 C414.18,491.0794 414.18,518.1694 414.18,546.2094" style="stroke:#000000;stroke-width:1;stroke-dasharray:7,7;" fill="none" id="Config-to-Measurement" codeLine="73"/><polygon points="414.18,551.2094,418.18,542.2094,414.18,546.2094,410.18,542.2094,414.18,551.2094" fill="#000000" style="stroke:#000000;stroke-width:1;stroke-linejoin:miter;stroke-miterlimit:10;"/><text x="431.6522" y="502.6563" fill="#000000" font-size="13" lengthAdjust="spacing" textLength="139.3311" font-family="Verdana">umbrales e histeresis</text><text x="415.18" y="517.7891" fill="#000000" font-size="13" lengthAdjust="spacing" textLength="172.2754" font-family="Verdana">parametrizan cada lectura</text><text x="361.888" y="479.8725" fill="#000000" font-size="13" lengthAdjust="spacing" textLength="51.8857" font-family="Verdana">1 activa</text><text x="390.2292" y="540.5759" fill="#000000" font-size="13" lengthAdjust="spacing" textLength="23.0356" font-family="Verdana">0..*</text></g><!--link Measurement to SystemStatus--><g class="link" data-entity-1="ent0002" data-entity-2="ent0005" id="lnk9" data-source-line="74" data-link-type="dependency"><path d="M429.16,722.3894 C434.98,755.2594 440.5968,786.9962 445.7668,816.1462" style="stroke:#000000;stroke-width:1;" fill="none" id="Measurement-to-SystemStatus" codeLine="74"/><polygon points="446.64,821.0694,449.0068,811.5091,445.7668,816.1462,441.1298,812.9062,446.64,821.0694" fill="#000000" style="stroke:#000000;stroke-width:1;stroke-linejoin:miter;stroke-miterlimit:10;"/><text x="437.18" y="765.0063" fill="#000000" font-size="13" lengthAdjust="spacing" textLength="39.9458" font-family="Verdana">status</text><text x="422.0458" y="741.8827" fill="#000000" font-size="13" lengthAdjust="spacing" textLength="8.271" font-family="Verdana">1</text><text x="436.9222" y="810.1506" fill="#000000" font-size="13" lengthAdjust="spacing" textLength="8.271" font-family="Verdana">1</text></g><!--link Measurement to EventResponse--><g class="link" data-entity-1="ent0002" data-entity-2="ent0004" id="lnk10" data-source-line="75" data-link-type="dependency"><path d="M330.04,722.2394 C320.54,732.1594 311.08,742.2094 302.18,751.9394 C288.62,766.7494 277.7102,779.0884 264.3202,794.6584" style="stroke:#000000;stroke-width:1;stroke-dasharray:7,7;" fill="none" id="Measurement-to-EventResponse" codeLine="75"/><polygon points="261.06,798.4494,269.9611,794.2338,264.3202,794.6584,263.8955,789.0175,261.06,798.4494" fill="#000000" style="stroke:#000000;stroke-width:1;stroke-linejoin:miter;stroke-miterlimit:10;"/><text x="303.18" y="765.0063" fill="#000000" font-size="13" lengthAdjust="spacing" textLength="123.7539" font-family="Verdana">deriva transiciones</text><text x="314.7522" y="742.0115" fill="#000000" font-size="13" lengthAdjust="spacing" textLength="8.271" font-family="Verdana">1</text><text x="241.7165" y="787.9507" fill="#000000" font-size="13" lengthAdjust="spacing" textLength="24.8066" font-family="Verdana">0..1</text></g><!--link EventAck to EventResponse--><g class="link" data-entity-1="ent0003" data-entity-2="ent0004" id="lnk11" data-source-line="76" data-link-type="dependency"><path d="M141.79,681.4494 C139.35,707.2294 138.54,740.3094 145.18,768.9394 C147.47,778.8194 148.9532,784.2109 152.8732,793.9509" style="stroke:#000000;stroke-width:1;stroke-dasharray:7,7;" fill="none" id="EventAck-to-EventResponse" codeLine="76"/><polygon points="154.74,798.5894,155.0905,788.7468,152.8732,793.9509,147.669,791.7336,154.74,798.5894" fill="#000000" style="stroke:#000000;stroke-width:1;stroke-linejoin:miter;stroke-miterlimit:10;"/><text x="146.18" y="765.0063" fill="#000000" font-size="13" lengthAdjust="spacing" textLength="101.4609" font-family="Verdana">reconoce por id</text><text x="132.2842" y="701.19" fill="#000000" font-size="13" lengthAdjust="spacing" textLength="8.271" font-family="Verdana">1</text><text x="142.4714" y="787.8381" fill="#000000" font-size="13" lengthAdjust="spacing" textLength="8.271" font-family="Verdana">1</text></g><!--link EventResponse to EventType--><g class="link" data-entity-1="ent0004" data-entity-2="ent0006" id="lnk12" data-source-line="77" data-link-type="dependency"><path d="M169.11,953.2594 C160.07,977.8394 151.7673,1000.4172 142.6673,1025.1372" style="stroke:#000000;stroke-width:1;" fill="none" id="EventResponse-to-EventType" codeLine="77"/><polygon points="140.94,1029.8294,147.8029,1022.7653,142.6673,1025.1372,140.2954,1020.0016,140.94,1029.8294" fill="#000000" style="stroke:#000000;stroke-width:1;stroke-linejoin:miter;stroke-miterlimit:10;"/><text x="159.18" y="996.0463" fill="#000000" font-size="13" lengthAdjust="spacing" textLength="29.0405" font-family="Verdana">type</text><text x="158.1661" y="973.1496" fill="#000000" font-size="13" lengthAdjust="spacing" textLength="8.271" font-family="Verdana">1</text><text x="135.2352" y="1018.9107" fill="#000000" font-size="13" lengthAdjust="spacing" textLength="8.271" font-family="Verdana">1</text></g><!--link EventResponse to EventSeverity--><g class="link" data-entity-1="ent0004" data-entity-2="ent0007" id="lnk13" data-source-line="78" data-link-type="dependency"><path d="M231.99,953.3294 C260.61,1026.9594 291.73,1140.7794 260.18,1235.0594 C256.72,1245.3994 254.1427,1251.2957 248.0527,1260.6757" style="stroke:#000000;stroke-width:1;" fill="none" id="EventResponse-to-EventSeverity" codeLine="78"/><polygon points="245.33,1264.8694,253.5859,1259.499,248.0527,1260.6757,246.876,1255.1426,245.33,1264.8694" fill="#000000" style="stroke:#000000;stroke-width:1;stroke-linejoin:miter;stroke-miterlimit:10;"/><text x="275.18" y="1113.5863" fill="#000000" font-size="13" lengthAdjust="spacing" textLength="52.2095" font-family="Verdana">severity</text><text x="226.7461" y="972.9606" fill="#000000" font-size="13" lengthAdjust="spacing" textLength="8.271" font-family="Verdana">1</text><text x="243.0038" y="1253.9647" fill="#000000" font-size="13" lengthAdjust="spacing" textLength="8.271" font-family="Verdana">1</text></g><!--link EventType to EventSeverity--><g class="link" data-entity-1="ent0006" data-entity-2="ent0007" id="lnk14" data-source-line="79" data-link-type="dependency"><path d="M144.07,1188.2994 C154.44,1213.7394 163.8139,1236.7588 173.2839,1260.0088" style="stroke:#000000;stroke-width:1;" fill="none" id="EventType-to-EventSeverity" codeLine="79"/><polygon points="175.17,1264.6394,175.4795,1254.7954,173.2839,1260.0088,168.0705,1257.8131,175.17,1264.6394" fill="#000000" style="stroke:#000000;stroke-width:1;stroke-linejoin:miter;stroke-miterlimit:10;"/><text x="164.18" y="1231.1263" fill="#000000" font-size="13" lengthAdjust="spacing" textLength="87.7881" font-family="Verdana">severidad fija</text><text x="138.5661" y="1208.1011" fill="#000000" font-size="13" lengthAdjust="spacing" textLength="8.271" font-family="Verdana">1</text><text x="164.0163" y="1254.0955" fill="#000000" font-size="13" lengthAdjust="spacing" textLength="8.271" font-family="Verdana">1</text></g><g class="legend" data-source-line="86"><rect x="191.9027" y="1388.2469" width="399.5527" height="95.4844" fill="none" style="stroke:#000000;stroke-width:1;" rx="7.5" ry="7.5"/><text x="201.7767" y="1408.242" fill="#000000" font-size="14" lengthAdjust="spacing" textLength="70.1572" font-weight="700" font-family="Verdana">Notacion</text><text x="307.0091" y="1408.242" fill="#000000" font-size="14" lengthAdjust="spacing" textLength="87.9443" font-weight="700" font-family="Verdana">Significado</text><text x="201.3529" y="1424.5389" fill="#000000" font-size="14" lengthAdjust="spacing" textLength="21.834" font-family="Verdana">--></text><text x="306.5853" y="1424.5389" fill="#000000" font-size="14" lengthAdjust="spacing" textLength="111.9795" font-family="Verdana">asociacion / uso</text><text x="201.3529" y="1440.8357" fill="#000000" font-size="14" lengthAdjust="spacing" textLength="20.6309" font-family="Verdana">..></text><text x="306.5853" y="1440.8357" fill="#000000" font-size="14" lengthAdjust="spacing" textLength="275.4199" font-family="Verdana">dependencia (derivacion logica, sin FK)</text><text x="201.3529" y="1457.1326" fill="#000000" font-size="14" lengthAdjust="spacing" textLength="96.332" font-family="Verdana">«documento»</text><text x="306.5853" y="1457.1326" fill="#000000" font-size="14" lengthAdjust="spacing" textLength="169.9346" font-family="Verdana">se persiste en MongoDB</text><text x="201.3529" y="1473.4295" fill="#000000" font-size="14" lengthAdjust="spacing" textLength="47.4824" font-family="Verdana">«DTO»</text><text x="306.5853" y="1473.4295" fill="#000000" font-size="14" lengthAdjust="spacing" textLength="268.6523" font-family="Verdana">se calcula por request (no se persiste)</text><line x1="196.9027" y1="1395.2469" x2="586.4554" y2="1395.2469" style="stroke:#000000;stroke-width:1;"/><line x1="196.9027" y1="1411.5438" x2="586.4554" y2="1411.5438" style="stroke:#000000;stroke-width:1;"/><line x1="196.9027" y1="1427.8406" x2="586.4554" y2="1427.8406" style="stroke:#000000;stroke-width:1;"/><line x1="196.9027" y1="1444.1375" x2="586.4554" y2="1444.1375" style="stroke:#000000;stroke-width:1;"/><line x1="196.9027" y1="1460.4344" x2="586.4554" y2="1460.4344" style="stroke:#000000;stroke-width:1;"/><line x1="196.9027" y1="1476.7313" x2="586.4554" y2="1476.7313" style="stroke:#000000;stroke-width:1;"/><line x1="196.9027" y1="1395.2469" x2="196.9027" y2="1476.7313" style="stroke:#000000;stroke-width:1;"/><line x1="302.1351" y1="1395.2469" x2="302.1351" y2="1476.7313" style="stroke:#000000;stroke-width:1;"/><line x1="586.4554" y1="1395.2469" x2="586.4554" y2="1476.7313" style="stroke:#000000;stroke-width:1;"/></g><?plantuml-src ZLLTZjis47xNAQRkGtVRPDky6ia2ZjTEZAwbmh9H52XWp8fZcLsAT4dAYPiDq4Fq5Zr2ttAKdgH3sP9DDzkjNqpEV3FwvfTV-3LL11k5KYVkNkeDMgpW3elxqffQYw5HniANu-PtWd1h5EQTr2MiK3bAle8RYILh40H1eT2HWul5zFOI_lxz3wYC86M2Ig0thW_257L5ci-m8Ukayr8OzmnkvXcZhDooUzW1wRfoLucNNX5COoT94ZxZO6ZqIfRmycNd4uf6vAwluKC2y8qKq8VSMwORhfug_YRwsj9KQWXawZj5vofy7wdMTIM5zBjpaqv-ZjyvJvOujFdHwIE8jmSVaReYT6mI8ffe1cvHvSIH2SSmgNt059RGatYzIx6YACXECwfGgbYbPF2vYOIr8pieMHv91MrbGME-aTsmCDPYuUKsVFRE64MeJxux2CY9TXwPwCUsLDDZI56zJaBz7qNxRFeZOH7us4p7r2mft9qBcQ6lGqRpK8qgRwvF1ZBQCjL1SHz5GK6uvD5vB0PM_QV36RcDqOxOQvW3RO3FX_6Wn_8YcyAt3aD4pCFkCz9upG_t1htRK2kVy_d02ZblSLfOgCqxHQ8aSQ9Xlc4aesGrjD9iDXtSyk77mIoTf6-Myz7qXvFhsyLqSZEP_yIYuMmodmmPt3hhs3IUWk4oMyoNsNWv6wHlHYnhhS_bdIk0sMY-cANBURRig0opx7OqMsRfoPcN640-IlEikTnEqb7CeyrMmsMIZhE0Nmo7epm_XdCMnM43zLv0Cn7OWwkhQ-XzTtNrTI_g-JxKrPr5nRkHO2tRyVzvlrI9Y_eRQYXG82WgkDSnEJNllUZ1y-VNpNzKWJxis_XVw9O77-CEwn-sB7YBsib26aqkwTgwi_sCeGrBo1JScVmoI974-bEEnyBs8NJUKz3ysBbj4oT77q_31GfOoLymIRJn1DvimAmExmENx8FKMxIInuG-0cUOnwkk3DGQZnWE3GvhxHNdfYQus3yci9LXEz8bzug0u3z959NXOcMv3fFty0fIup7aCfnpMMgvaaLuoHw2kc7_0EXC8VUeRw5shJAa-u6hic6Nf1a15_iIDKXbIlRq31o_FkFlBmysd_xiji-dl_X-iYxuwUG7KvVcvdK7vgNImWfKHQsmgQ6bNsjo7YxYXHC-mbpsGVu3?></g></svg>