<svg xmlns="http://www.w3.org/2000/svg" xmlns:xlink="http://www.w3.org/1999/xlink" version="1.1" data-diagram-type="CLASS" style="width:486px;height:1233px;background:#FFFFFF;" width="486px" height="1233px" viewBox="0 0 486 1233" zoomAndPan="magnify" preserveAspectRatio="none" contentStyleType="text/css"><?plantuml 1.2026.7beta3?><defs/><g><g class="title" data-source-line="39"><text x="174.192" y="22.9951" fill="#0F172A" font-size="14" lengthAdjust="spacing" textLength="130.8604" font-weight="700" font-family="sans-serif">Modelo de datos</text></g><!--class Config--><g class="entity" data-qualified-name="Config" id="ent0001" data-source-line="41"><rect x="7" y="44.2969" width="249.9736" height="283.2578" fill="#E3F2FD" style="stroke:#0891B2;stroke-width:1.1;" rx="6" ry="6"/><ellipse cx="59.9182" cy="64.4297" rx="10" ry="10" fill="#ADD1B2" style="stroke:#181818;stroke-width:1;"/><path d="M61.7776,68.6641 Q61.3401,68.8828 60.8401,68.9922 Q60.3557,69.1172 59.8245,69.1172 Q57.9026,69.1172 56.887,67.8516 Q55.887,66.5859 55.887,64.1953 Q55.887,61.8047 56.887,60.5391 Q57.9026,59.2734 59.8245,59.2734 Q60.3557,59.2734 60.8557,59.3984 Q61.3557,59.5078 61.7776,59.7422 L61.7776,61.8203 Q61.2932,61.3828 60.8401,61.1797 Q60.387,60.9609 59.9026,60.9609 Q58.887,60.9609 58.3557,61.7891 Q57.8245,62.6016 57.8245,64.1953 Q57.8245,65.8047 58.3557,66.6172 Q58.887,67.4297 59.9026,67.4297 Q60.387,67.4297 60.8401,67.2266 Q61.2932,67.0234 61.7776,66.5703 L61.7776,68.6641 Z " fill="#0F172A"/><text x="76.9182" y="61.3638" fill="#0F172A" font-size="13" lengthAdjust="spacing" textLength="140.1372" font-style="italic" font-family="sans-serif">«documento configs»</text><text x="126.1316" y="76.4966" fill="#334155" font-size="13" lengthAdjust="spacing" textLength="41.7104" font-family="sans-serif">Config</text><line x1="8" y1="84.5625" x2="255.9736" y2="84.5625" style="stroke:#0891B2;stroke-width:1.1;"/><g data-visibility-modifier="PUBLIC_FIELD"><ellipse cx="18" cy="97.6289" rx="3" ry="3" fill="none" style="stroke:#038048;stroke-width:1;"/></g><text x="26" y="100.6294" fill="#334155" font-size="13" lengthAdjust="spacing" textLength="63.3052" font-family="sans-serif">id : String</text><g data-visibility-modifier="PUBLIC_FIELD"><ellipse cx="18" cy="112.7617" rx="3" ry="3" fill="none" style="stroke:#038048;stroke-width:1;"/></g><text x="26" y="115.7622" fill="#334155" font-size="13" lengthAdjust="spacing" textLength="162.0176" font-family="sans-serif">temperatureMin : double</text><g data-visibility-modifier="PUBLIC_FIELD"><ellipse cx="18" cy="127.8945" rx="3" ry="3" fill="none" style="stroke:#038048;stroke-width:1;"/></g><text x="26" y="130.895" fill="#334155" font-size="13" lengthAdjust="spacing" textLength="165.8262" font-family="sans-serif">temperatureMax : double</text><g data-visibility-modifier="PUBLIC_FIELD"><ellipse cx="18" cy="143.0273" rx="3" ry="3" fill="none" style="stroke:#038048;stroke-width:1;"/></g><text x="26" y="146.0278" fill="#334155" font-size="13" lengthAdjust="spacing" textLength="137.4268" font-family="sans-serif">humidityMin : double</text><g data-visibility-modifier="PUBLIC_FIELD"><ellipse cx="18" cy="158.1602" rx="3" ry="3" fill="none" style="stroke:#038048;stroke-width:1;"/></g><text x="26" y="161.1606" fill="#334155" font-size="13" lengthAdjust="spacing" textLength="141.2354" font-family="sans-serif">humidityMax : double</text><g data-visibility-modifier="PUBLIC_FIELD"><ellipse cx="18" cy="173.293" rx="3" ry="3" fill="none" style="stroke:#038048;stroke-width:1;"/></g><text x="26" y="176.2935" fill="#334155" font-size="13" lengthAdjust="spacing" textLength="208.0952" font-family="sans-serif">hysteresisTemperature : double</text><g data-visibility-modifier="PUBLIC_FIELD"><ellipse cx="18" cy="188.4258" rx="3" ry="3" fill="none" style="stroke:#038048;stroke-width:1;"/></g><text x="26" y="191.4263" fill="#334155" font-size="13" lengthAdjust="spacing" textLength="182.1968" font-family="sans-serif">hysteresisHumidity : double</text><g data-visibility-modifier="PUBLIC_FIELD"><ellipse cx="18" cy="203.5586" rx="3" ry="3" fill="none" style="stroke:#038048;stroke-width:1;"/></g><text x="26" y="206.5591" fill="#334155" font-size="13" lengthAdjust="spacing" textLength="224.9736" font-family="sans-serif">measurementIntervalSeconds : int</text><g data-visibility-modifier="PUBLIC_FIELD"><ellipse cx="18" cy="218.6914" rx="3" ry="3" fill="none" style="stroke:#038048;stroke-width:1;"/></g><text x="26" y="221.6919" fill="#334155" font-size="13" lengthAdjust="spacing" textLength="156.2095" font-family="sans-serif">createdByName : String</text><g data-visibility-modifier="PUBLIC_FIELD"><ellipse cx="18" cy="233.8242" rx="3" ry="3" fill="none" style="stroke:#038048;stroke-width:1;"/></g><text x="26" y="236.8247" fill="#334155" font-size="13" lengthAdjust="spacing" textLength="153.9243" font-family="sans-serif">createdByEmail : String</text><g data-visibility-modifier="PUBLIC_FIELD"><ellipse cx="18" cy="248.957" rx="3" ry="3" fill="none" style="stroke:#038048;stroke-width:1;"/></g><text x="26" y="251.9575" fill="#334155" font-size="13" lengthAdjust="spacing" textLength="99.2329" font-family="sans-serif">clientIp : String</text><g data-visibility-modifier="PUBLIC_FIELD"><ellipse cx="18" cy="264.0898" rx="3" ry="3" fill="none" style="stroke:#038048;stroke-width:1;"/></g><text x="26" y="267.0903" fill="#334155" font-size="13" lengthAdjust="spacing" textLength="118.2759" font-family="sans-serif">userAgent : String</text><g data-visibility-modifier="PUBLIC_FIELD"><ellipse cx="18" cy="279.2227" rx="3" ry="3" fill="none" style="stroke:#038048;stroke-width:1;"/></g><text x="26" y="282.2231" fill="#334155" font-size="13" lengthAdjust="spacing" textLength="165.6104" font-family="sans-serif">deviceFingerprint : String</text><g data-visibility-modifier="PUBLIC_FIELD"><ellipse cx="18" cy="294.3555" rx="3" ry="3" fill="none" style="stroke:#038048;stroke-width:1;"/></g><text x="26" y="297.356" fill="#334155" font-size="13" lengthAdjust="spacing" textLength="104.1333" font-family="sans-serif">active : boolean</text><g data-visibility-modifier="PUBLIC_FIELD"><ellipse cx="18" cy="309.4883" rx="3" ry="3" fill="none" style="stroke:#038048;stroke-width:1;"/></g><text x="26" y="312.4888" fill="#334155" font-size="13" lengthAdjust="spacing" textLength="121.6846" font-family="sans-serif">createdAt : Instant</text><line x1="8" y1="319.5547" x2="255.9736" y2="319.5547" style="stroke:#0891B2;stroke-width:1.1;"/></g><!--class Measurement--><g class="entity" data-qualified-name="Measurement" id="ent0002" data-source-line="59"><rect x="23.32" y="419.5569" width="217.3374" height="162.1953" fill="#E3F2FD" style="stroke:#0891B2;stroke-width:1.1;" rx="6" ry="6"/><ellipse cx="37.32" cy="439.6897" rx="10" ry="10" fill="#ADD1B2" style="stroke:#181818;stroke-width:1;"/><path d="M39.1794,443.9241 Q38.7419,444.1428 38.2419,444.2522 Q37.7575,444.3772 37.2263,444.3772 Q35.3044,444.3772 34.2888,443.1116 Q33.2888,441.8459 33.2888,439.4553 Q33.2888,437.0647 34.2888,435.7991 Q35.3044,434.5334 37.2263,434.5334 Q37.7575,434.5334 38.2575,434.6584 Q38.7575,434.7678 39.1794,435.0022 L39.1794,437.0803 Q38.695,436.6428 38.2419,436.4397 Q37.7888,436.2209 37.3044,436.2209 Q36.2888,436.2209 35.7575,437.0491 Q35.2263,437.8616 35.2263,439.4553 Q35.2263,441.0647 35.7575,441.8772 Q36.2888,442.6897 37.3044,442.6897 Q37.7888,442.6897 38.2419,442.4866 Q38.695,442.2834 39.1794,441.8303 L39.1794,443.9241 Z " fill="#0F172A"/><text x="48.32" y="436.6238" fill="#0F172A" font-size="13" lengthAdjust="spacing" textLength="191.3374" font-style="italic" font-family="sans-serif">«documento measurements»</text><text x="99.2219" y="451.7566" fill="#334155" font-size="13" lengthAdjust="spacing" textLength="89.5337" font-family="sans-serif">Measurement</text><line x1="24.32" y1="459.8225" x2="239.6574" y2="459.8225" style="stroke:#0891B2;stroke-width:1.1;"/><g data-visibility-modifier="PUBLIC_FIELD"><ellipse cx="34.32" cy="472.8889" rx="3" ry="3" fill="none" style="stroke:#038048;stroke-width:1;"/></g><text x="42.32" y="475.8894" fill="#334155" font-size="13" lengthAdjust="spacing" textLength="63.3052" font-family="sans-serif">id : String</text><g data-visibility-modifier="PUBLIC_FIELD"><ellipse cx="34.32" cy="488.0217" rx="3" ry="3" fill="none" style="stroke:#038048;stroke-width:1;"/></g><text x="42.32" y="491.0222" fill="#334155" font-size="13" lengthAdjust="spacing" textLength="138.9502" font-family="sans-serif">temperature : double</text><g data-visibility-modifier="PUBLIC_FIELD"><ellipse cx="34.32" cy="503.1545" rx="3" ry="3" fill="none" style="stroke:#038048;stroke-width:1;"/></g><text x="42.32" y="506.155" fill="#334155" font-size="13" lengthAdjust="spacing" textLength="114.3594" font-family="sans-serif">humidity : double</text><g data-visibility-modifier="PUBLIC_FIELD"><ellipse cx="34.32" cy="518.2873" rx="3" ry="3" fill="none" style="stroke:#038048;stroke-width:1;"/></g><text x="42.32" y="521.2878" fill="#334155" font-size="13" lengthAdjust="spacing" textLength="123.1001" font-family="sans-serif">coolerOn : boolean</text><g data-visibility-modifier="PUBLIC_FIELD"><ellipse cx="34.32" cy="533.4202" rx="3" ry="3" fill="none" style="stroke:#038048;stroke-width:1;"/></g><text x="42.32" y="536.4206" fill="#334155" font-size="13" lengthAdjust="spacing" textLength="115.7051" font-family="sans-serif">relayOn : boolean</text><g data-visibility-modifier="PUBLIC_FIELD"><ellipse cx="34.32" cy="548.553" rx="3" ry="3" fill="none" style="stroke:#038048;stroke-width:1;"/></g><text x="42.32" y="551.5535" fill="#334155" font-size="13" lengthAdjust="spacing" textLength="142.4922" font-family="sans-serif">status : SystemStatus</text><g data-visibility-modifier="PUBLIC_FIELD"><ellipse cx="34.32" cy="563.6858" rx="3" ry="3" fill="none" style="stroke:#038048;stroke-width:1;"/></g><text x="42.32" y="566.6863" fill="#334155" font-size="13" lengthAdjust="spacing" textLength="121.6846" font-family="sans-serif">createdAt : Instant</text><line x1="24.32" y1="573.7522" x2="239.6574" y2="573.7522" style="stroke:#0891B2;stroke-width:1.1;"/></g><!--class EventAck--><g class="entity" data-qualified-name="EventAck" id="ent0003" data-source-line="69"><rect x="278.72" y="457.3869" width="192.5244" height="86.5313" fill="#E3F2FD" style="stroke:#0891B2;stroke-width:1.1;" rx="6" ry="6"/><ellipse cx="292.72" cy="477.5197" rx="10" ry="10" fill="#ADD1B2" style="stroke:#181818;stroke-width:1;"/><path d="M294.5794,481.7541 Q294.1419,481.9728 293.6419,482.0822 Q293.1575,482.2072 292.6263,482.2072 Q290.7044,482.2072 289.6888,480.9416 Q288.6888,479.6759 288.6888,477.2853 Q288.6888,474.8947 289.6888,473.6291 Q290.7044,472.3634 292.6263,472.3634 Q293.1575,472.3634 293.6575,472.4884 Q294.1575,472.5978 294.5794,472.8322 L294.5794,474.9103 Q294.095,474.4728 293.6419,474.2697 Q293.1888,474.0509 292.7044,474.0509 Q291.6888,474.0509 291.1575,474.8791 Q290.6263,475.6916 290.6263,477.2853 Q290.6263,478.8947 291.1575,479.7072 Q291.6888,480.5197 292.7044,480.5197 Q293.1888,480.5197 293.6419,480.3166 Q294.095,480.1134 294.5794,479.6603 L294.5794,481.7541 Z " fill="#0F172A"/><text x="303.72" y="474.4538" fill="#0F172A" font-size="13" lengthAdjust="spacing" textLength="166.5244" font-style="italic" font-family="sans-serif">«documento event_acks»</text><text x="356.5769" y="489.5866" fill="#334155" font-size="13" lengthAdjust="spacing" textLength="60.8105" font-family="sans-serif">EventAck</text><line x1="279.72" y1="497.6525" x2="470.2444" y2="497.6525" style="stroke:#0891B2;stroke-width:1.1;"/><g data-visibility-modifier="PUBLIC_FIELD"><ellipse cx="289.72" cy="510.7189" rx="3" ry="3" fill="none" style="stroke:#038048;stroke-width:1;"/></g><text x="297.72" y="513.7194" fill="#334155" font-size="13" lengthAdjust="spacing" textLength="63.3052" font-family="sans-serif">id : String</text><g data-visibility-modifier="PUBLIC_FIELD"><ellipse cx="289.72" cy="525.8517" rx="3" ry="3" fill="none" style="stroke:#038048;stroke-width:1;"/></g><text x="297.72" y="528.8522" fill="#334155" font-size="13" lengthAdjust="spacing" textLength="110.7729" font-family="sans-serif">ackedAt : Instant</text><line x1="279.72" y1="535.9181" x2="470.2444" y2="535.9181" style="stroke:#0891B2;stroke-width:1.1;"/></g><!--class EventResponse--><g class="entity" data-qualified-name="EventResponse" id="ent0004" data-source-line="74"><rect x="260.26" y="658.7569" width="183.4502" height="147.0625" fill="#FFF3E0" style="stroke:#0891B2;stroke-width:1.1;" rx="6" ry="6"/><ellipse cx="282.4279" cy="678.8897" rx="10" ry="10" fill="#ADD1B2" style="stroke:#181818;stroke-width:1;"/><path d="M284.2873,683.1241 Q283.8498,683.3428 283.3498,683.4522 Q282.8654,683.5772 282.3341,683.5772 Q280.4123,683.5772 279.3966,682.3116 Q278.3966,681.0459 278.3966,678.6553 Q278.3966,676.2647 279.3966,674.9991 Q280.4123,673.7334 282.3341,673.7334 Q282.8654,673.7334 283.3654,673.8584 Q283.8654,673.9678 284.2873,674.2022 L284.2873,676.2803 Q283.8029,675.8428 283.3498,675.6397 Q282.8966,675.4209 282.4123,675.4209 Q281.3966,675.4209 280.8654,676.2491 Q280.3341,677.0616 280.3341,678.6553 Q280.3341,680.2647 280.8654,681.0772 Q281.3966,681.8897 282.4123,681.8897 Q282.8966,681.8897 283.3498,681.6866 Q283.8029,681.4834 284.2873,681.0303 L284.2873,683.1241 Z " fill="#0F172A"/><text x="295.243" y="675.8238" fill="#0F172A" font-size="13" lengthAdjust="spacing" textLength="139.2993" font-style="italic" font-family="sans-serif">«DTO no se persiste»</text><text x="314.762" y="690.9566" fill="#334155" font-size="13" lengthAdjust="spacing" textLength="100.2612" font-family="sans-serif">EventResponse</text><line x1="261.26" y1="699.0225" x2="442.7102" y2="699.0225" style="stroke:#0891B2;stroke-width:1.1;"/><g data-visibility-modifier="PUBLIC_FIELD"><ellipse cx="271.26" cy="712.0889" rx="3" ry="3" fill="none" style="stroke:#038048;stroke-width:1;"/></g><text x="279.26" y="715.0894" fill="#334155" font-size="13" lengthAdjust="spacing" textLength="63.3052" font-family="sans-serif">id : String</text><g data-visibility-modifier="PUBLIC_FIELD"><ellipse cx="271.26" cy="727.2217" rx="3" ry="3" fill="none" style="stroke:#038048;stroke-width:1;"/></g><text x="279.26" y="730.2222" fill="#334155" font-size="13" lengthAdjust="spacing" textLength="87.2612" font-family="sans-serif">time : Instant</text><g data-visibility-modifier="PUBLIC_FIELD"><ellipse cx="271.26" cy="742.3545" rx="3" ry="3" fill="none" style="stroke:#038048;stroke-width:1;"/></g><text x="279.26" y="745.355" fill="#334155" font-size="13" lengthAdjust="spacing" textLength="155.7842" font-family="sans-serif">severity : EventSeverity</text><g data-visibility-modifier="PUBLIC_FIELD"><ellipse cx="271.26" cy="757.4873" rx="3" ry="3" fill="none" style="stroke:#038048;stroke-width:1;"/></g><text x="279.26" y="760.4878" fill="#334155" font-size="13" lengthAdjust="spacing" textLength="110.811" font-family="sans-serif">type : EventType</text><g data-visibility-modifier="PUBLIC_FIELD"><ellipse cx="271.26" cy="772.6202" rx="3" ry="3" fill="none" style="stroke:#038048;stroke-width:1;"/></g><text x="279.26" y="775.6206" fill="#334155" font-size="13" lengthAdjust="spacing" textLength="115.0894" font-family="sans-serif">ackable : boolean</text><g data-visibility-modifier="PUBLIC_FIELD"><ellipse cx="271.26" cy="787.753" rx="3" ry="3" fill="none" style="stroke:#038048;stroke-width:1;"/></g><text x="279.26" y="790.7535" fill="#334155" font-size="13" lengthAdjust="spacing" textLength="158.4502" font-family="sans-serif">acknowledged : boolean</text><line x1="261.26" y1="797.8194" x2="442.7102" y2="797.8194" style="stroke:#0891B2;stroke-width:1.1;"/></g><!--class SystemStatus--><g class="entity" data-qualified-name="SystemStatus" id="ent0005" data-source-line="83"><rect x="55.64" y="679.0169" width="146.7036" height="106.5313" fill="#F8FAFC" style="stroke:#0891B2;stroke-width:1.1;" rx="6" ry="6"/><ellipse cx="81.7008" cy="694.0169" rx="10" ry="10" fill="#EB937F" style="stroke:#181818;stroke-width:1;"/><path d="M84.1695,698.5169 L78.2633,698.5169 L78.2633,689.0325 L84.1695,689.0325 L84.1695,690.6888 L80.1383,690.6888 L80.1383,692.7356 L83.7945,692.7356 L83.7945,694.3919 L80.1383,694.3919 L80.1383,696.8606 L84.1695,696.8606 L84.1695,698.5169 Z " fill="#0F172A"/><text x="97.381" y="698.5174" fill="#334155" font-size="13" lengthAdjust="spacing" textLength="89.9019" font-family="sans-serif">SystemStatus</text><line x1="56.64" y1="709.0169" x2="201.3436" y2="709.0169" style="stroke:#0891B2;stroke-width:1.1;"/><text x="61.64" y="725.0838" fill="#334155" font-size="13" lengthAdjust="spacing" textLength="56.3418" font-family="sans-serif">NORMAL</text><text x="61.64" y="740.2166" fill="#334155" font-size="13" lengthAdjust="spacing" textLength="105.8472" font-family="sans-serif">WARNING_TEMP</text><text x="61.64" y="755.3494" fill="#334155" font-size="13" lengthAdjust="spacing" textLength="134.7036" font-family="sans-serif">WARNING_HUMIDITY</text><text x="61.64" y="770.4822" fill="#334155" font-size="13" lengthAdjust="spacing" textLength="58.9316" font-family="sans-serif">CRITICAL</text><line x1="56.64" y1="777.5481" x2="201.3436" y2="777.5481" style="stroke:#0891B2;stroke-width:1.1;"/></g><!--class EventType--><g class="entity" data-qualified-name="EventType" id="ent0006" data-source-line="90"><rect x="149.54" y="882.8169" width="186.9033" height="151.9297" fill="#F8FAFC" style="stroke:#0891B2;stroke-width:1.1;" rx="6" ry="6"/><ellipse cx="204.4287" cy="897.8169" rx="10" ry="10" fill="#EB937F" style="stroke:#181818;stroke-width:1;"/><path d="M206.8974,902.3169 L200.9912,902.3169 L200.9912,892.8325 L206.8974,892.8325 L206.8974,894.4888 L202.8662,894.4888 L202.8662,896.5356 L206.5224,896.5356 L206.5224,898.1919 L202.8662,898.1919 L202.8662,900.6606 L206.8974,900.6606 L206.8974,902.3169 Z " fill="#0F172A"/><text x="223.4287" y="902.3174" fill="#334155" font-size="13" lengthAdjust="spacing" textLength="69.126" font-family="sans-serif">EventType</text><line x1="150.54" y1="912.8169" x2="335.4433" y2="912.8169" style="stroke:#0891B2;stroke-width:1.1;"/><text x="155.54" y="928.8838" fill="#334155" font-size="13" lengthAdjust="spacing" textLength="146.0469" font-family="sans-serif">TEMP_OUT_OF_RANGE</text><text x="155.54" y="944.0166" fill="#334155" font-size="13" lengthAdjust="spacing" textLength="174.9033" font-family="sans-serif">HUMIDITY_OUT_OF_RANGE</text><text x="155.54" y="959.1494" fill="#334155" font-size="13" lengthAdjust="spacing" textLength="58.9316" font-family="sans-serif">CRITICAL</text><text x="155.54" y="974.2822" fill="#334155" font-size="13" lengthAdjust="spacing" textLength="140.9751" font-family="sans-serif">RETURN_TO_NORMAL</text><text x="155.54" y="989.415" fill="#334155" font-size="13" lengthAdjust="spacing" textLength="80.4883" font-family="sans-serif">COOLER_ON</text><text x="155.54" y="1004.5478" fill="#334155" font-size="13" lengthAdjust="spacing" textLength="85.7188" font-family="sans-serif">COOLER_OFF</text><text x="155.54" y="1019.6806" fill="#334155" font-size="13" lengthAdjust="spacing" textLength="114.4102" font-family="sans-serif">SENSOR_OFFLINE</text><line x1="150.54" y1="1026.7466" x2="335.4433" y2="1026.7466" style="stroke:#0891B2;stroke-width:1.1;"/></g><!--class EventSeverity--><g class="entity" data-qualified-name="EventSeverity" id="ent0007" data-source-line="100"><rect x="264.52" y="1111.7469" width="120.9302" height="106.5313" fill="#F8FAFC" style="stroke:#0891B2;stroke-width:1.1;" rx="6" ry="6"/><ellipse cx="278.52" cy="1126.7469" rx="10" ry="10" fill="#EB937F" style="stroke:#181818;stroke-width:1;"/><path d="M280.9888,1131.2469 L275.0825,1131.2469 L275.0825,1121.7625 L280.9888,1121.7625 L280.9888,1123.4188 L276.9575,1123.4188 L276.9575,1125.4656 L280.6138,1125.4656 L280.6138,1127.1219 L276.9575,1127.1219 L276.9575,1129.5906 L280.9888,1129.5906 L280.9888,1131.2469 Z " fill="#0F172A"/><text x="291.52" y="1131.2474" fill="#334155" font-size="13" lengthAdjust="spacing" textLength="90.9302" font-family="sans-serif">EventSeverity</text><line x1="265.52" y1="1141.7469" x2="384.4502" y2="1141.7469" style="stroke:#0891B2;stroke-width:1.1;"/><text x="270.52" y="1157.8138" fill="#334155" font-size="13" lengthAdjust="spacing" textLength="31.2686" font-family="sans-serif">INFO</text><text x="270.52" y="1172.9466" fill="#334155" font-size="13" lengthAdjust="spacing" textLength="60.6392" font-family="sans-serif">SUCCESS</text><text x="270.52" y="1188.0794" fill="#334155" font-size="13" lengthAdjust="spacing" textLength="64.1367" font-family="sans-serif">WARNING</text><text x="270.52" y="1203.2122" fill="#334155" font-size="13" lengthAdjust="spacing" textLength="58.9316" font-family="sans-serif">CRITICAL</text><line x1="265.52" y1="1210.2781" x2="384.4502" y2="1210.2781" style="stroke:#0891B2;stroke-width:1.1;"/></g><!--link Config to Measurement--><g class="link" data-entity-1="ent0001" data-entity-2="ent0002" id="lnk8" data-source-line="107" data-link-type="dependency"><path d="M131.99,327.7369 C131.99,359.1869 131.99,386.4869 131.99,414.4769" style="stroke:#64748B;stroke-width:1.1;stroke-dasharray:7,7;" fill="none" id="Config-to-Measurement" codeLine="107"/><polygon points="131.99,419.4769,135.99,410.4769,131.99,414.4769,127.99,410.4769,131.99,419.4769" fill="#64748B" style="stroke:#64748B;stroke-width:1.1;stroke-linejoin:miter;stroke-miterlimit:10;"/><text x="149.4622" y="370.6238" fill="#475569" font-size="13" lengthAdjust="spacing" textLength="139.3311" font-family="sans-serif">umbrales e histeresis</text><text x="132.99" y="385.7566" fill="#475569" font-size="13" lengthAdjust="spacing" textLength="172.2754" font-family="sans-serif">parametrizan cada lectura</text></g><!--link Measurement to SystemStatus--><g class="link" data-entity-1="ent0002" data-entity-2="ent0005" id="lnk9" data-source-line="108" data-link-type="dependency"><path d="M126.69,581.9769 C126.09,597.4869 125.77,613.6269 125.99,628.7569 C126.22,644.9569 126.5202,657.5991 127.0002,673.6091" style="stroke:#64748B;stroke-width:1.1;" fill="none" id="Measurement-to-SystemStatus" codeLine="108"/><polygon points="127.15,678.6069,130.8785,669.491,127.0002,673.6091,122.8821,669.7308,127.15,678.6069" fill="#64748B" style="stroke:#64748B;stroke-width:1.1;stroke-linejoin:miter;stroke-miterlimit:10;"/><text x="126.99" y="624.8238" fill="#475569" font-size="13" lengthAdjust="spacing" textLength="39.9458" font-family="sans-serif">status</text></g><!--link Measurement to EventResponse--><g class="link" data-entity-1="ent0002" data-entity-2="ent0004" id="lnk10" data-source-line="109" data-link-type="dependency"><path d="M189.84,582.1369 C202.47,598.1069 216.2,614.3769 229.99,628.7569 C239.56,638.7369 246.3349,645.3905 257.0149,655.0105" style="stroke:#64748B;stroke-width:1.1;stroke-dasharray:7,7;" fill="none" id="Measurement-to-EventResponse" codeLine="109"/><polygon points="260.73,658.3569,256.7199,649.3614,257.0149,655.0105,251.3658,655.3055,260.73,658.3569" fill="#64748B" style="stroke:#64748B;stroke-width:1.1;stroke-linejoin:miter;stroke-miterlimit:10;"/><text x="230.99" y="624.8238" fill="#475569" font-size="13" lengthAdjust="spacing" textLength="123.7539" font-family="sans-serif">deriva transiciones</text></g><!--link EventAck to EventResponse--><g class="link" data-entity-1="ent0003" data-entity-2="ent0004" id="lnk11" data-source-line="110" data-link-type="dependency"><path d="M370.71,544.3069 C367.51,576.3469 363.5271,616.0116 359.7671,653.6416" style="stroke:#64748B;stroke-width:1.1;stroke-dasharray:7,7;" fill="none" id="EventAck-to-EventResponse" codeLine="110"/><polygon points="359.27,658.6169,364.145,650.0592,359.7671,653.6416,356.1846,649.2638,359.27,658.6169" fill="#64748B" style="stroke:#64748B;stroke-width:1.1;stroke-linejoin:miter;stroke-miterlimit:10;"/><text x="364.99" y="624.8238" fill="#475569" font-size="13" lengthAdjust="spacing" textLength="101.4609" font-family="sans-serif">reconoce por id</text></g><!--link EventResponse to EventType--><g class="link" data-entity-1="ent0004" data-entity-2="ent0006" id="lnk12" data-source-line="111" data-link-type="dependency"><path d="M316.6,806.1769 C304.72,830.6269 293.6541,853.4391 281.6941,878.0691" style="stroke:#64748B;stroke-width:1.1;" fill="none" id="EventResponse-to-EventType" codeLine="111"/><polygon points="279.51,882.5669,287.0395,876.2181,281.6941,878.0691,279.8431,872.7237,279.51,882.5669" fill="#64748B" style="stroke:#64748B;stroke-width:1.1;stroke-linejoin:miter;stroke-miterlimit:10;"/><text x="301.99" y="848.8838" fill="#475569" font-size="13" lengthAdjust="spacing" textLength="29.0405" font-family="sans-serif">type</text></g><!--link EventResponse to EventSeverity--><g class="link" data-entity-1="ent0004" data-entity-2="ent0007" id="lnk13" data-source-line="112" data-link-type="dependency"><path d="M375.11,806.1869 C394.11,877.9869 413.51,989.9369 383.99,1081.7469 C380.71,1091.9569 378.2863,1097.7246 372.4663,1107.0546" style="stroke:#64748B;stroke-width:1.1;" fill="none" id="EventResponse-to-EventSeverity" codeLine="112"/><polygon points="369.82,1111.2969,377.9772,1105.7778,372.4663,1107.0546,371.1895,1101.5437,369.82,1111.2969" fill="#64748B" style="stroke:#64748B;stroke-width:1.1;stroke-linejoin:miter;stroke-miterlimit:10;"/><text x="399.99" y="963.3438" fill="#475569" font-size="13" lengthAdjust="spacing" textLength="52.2095" font-family="sans-serif">severity</text></g><!--link EventType to EventSeverity--><g class="link" data-entity-1="ent0006" data-entity-2="ent0007" id="lnk14" data-source-line="113" data-link-type="dependency"><path d="M272.36,1035.0069 C278.47,1050.4869 284.9,1066.6569 290.99,1081.7469 C294.86,1091.3469 297.1386,1096.9325 301.1886,1106.7825" style="stroke:#64748B;stroke-width:1.1;" fill="none" id="EventType-to-EventSeverity" codeLine="113"/><polygon points="303.09,1111.4069,303.367,1101.5619,301.1886,1106.7825,295.968,1104.6041,303.09,1111.4069" fill="#64748B" style="stroke:#64748B;stroke-width:1.1;stroke-linejoin:miter;stroke-miterlimit:10;"/><text x="291.99" y="1077.8138" fill="#475569" font-size="13" lengthAdjust="spacing" textLength="87.7881" font-family="sans-serif">severidad fija</text></g><?plantuml-src bLRRRkCs47ttLmpGXzr5ao2-vU8k0iYob1Y8xS9oK1GeOD3IsE568bsIIkej2lGZ-eNzaWuLNqHRQsy3911dpXoU6Gud_03dv-U0sl1KGYOJL492ux9n1H_dAJDde32H8a6Mo3DOiXGDWmHJM2gvmjZ8ds1ERWbnofGaW6AGueBFUCeJbW0AkEVc8PzzillKz0iN5fF1ZCKl2oLpaVWobGf-28kV4a8_qvvlN2nWpbAD9SywJ0bKK6-K73sSipmreHHcpNePrgyRNZKaubyHwisIqrDAlgqZhrhNhPlklhD4tRfkjwzkzm6JPnw_2DGQwXVrafFgetNt8EcRq0lz0vXKT0wR36vkwzr6DUJePfunYizoWoNDpMQhtcwNYsoOmTEotc57PUKQOwOFkG8_39nptG2FiZ5gBNMeAmnwlVO1hCpaDrhroxBq9P6mHKMEzR0TtbO0osotBQ_PlIbNLcPBAL2OxpZABVHefeBkt6co0bNcEUW--cjup9UiIjjXhZlmqNmr_fwZYF6Hp-bNk1hyRgyTr2lGzxJvyhGA8QjwBmXl_UO-ojdMk_4kMsuNy5TkLgVBk4MUQhu2rUCie-7sNMte11njI3dxGeFpjDOrhaBf1w2D5eInexYuxAZXuzFWyHFy-_S_nHIdOKwkX1cfEv38EC-e4QM69IhDQTWdKfz1Rp8YbEAlD6XXHRCwp_H5pN2J8WnSabgjc2dWIp7d2_ZyUSj9VMvD-kwExdepR8Gz-BC6y2DFe0CHZI2ni4k36UtDJAvmm0LOKVainNqN-yDnFUSPJwYm-o5R-pv-fGqgf1GdEz9l81xM78uxGwOfn6RM5mHyPMc4b66Y2SQ5iPXO8Kt3fBiQiWoT9BUU86CyTLqfjvnBnqYZK7aBiZlM15zvZ26jK2t9w7gBNhFRpgHCaOdIlfv5zWKDQnBwr-R81hkKd7ChfVe_3g_o61nZR7MfaN0bAapPQjze_wtajhAHFPKiAfOd4mfUIR8NlpZPe3LEwLAToeKWHud7g6biQoHsUp_eDKJVwsk3bfjUAStWihfEl6Y83R7Da7IfzmeLxD5wNQ1NIzpO9_IzLiUeZcwPo2ZaMuh90fEIXtJRA-iKhv0r78q7tYDz_EADX_tX_NGI37ukBH-U1lrUV_8hcVnnVzBt2RmXswefc6pWTFGqcOx2wTWRtWTasqJlsxTK0EDWyZGUJYUZwLQAFnez1kFfQ5ZwfcS1G1GCer6nUEmF0rV7fbg5blum75dya-y7KRHBPo-BzOIwkBXpEhy3UJPJz7xLWF3CDqFWj_TXYtI4Nvc0c2Ns_HfJfxDQEVpy_CwjSmVUczT1sKtT9kgi1omOnOIcVxdq8j2rRGTN1IWxRsHCJKSZdoSrrs-5xCwe0xQ9lWM9TistwSFQBlRRCFjmd_Clx3y0?></g></svg>