<svg xmlns="http://www.w3.org/2000/svg" xmlns:xlink="http://www.w3.org/1999/xlink" version="1.1" data-diagram-type="CLASS" style="width:483px;height:1204px;background:#FFFFFF;" width="483.3333px" height="1204.1667px" viewBox="0 0 483 1204" zoomAndPan="magnify" preserveAspectRatio="none" contentStyleType="text/css"><?plantuml 1.2026.7beta3?><defs><linearGradient x1="50%" y1="0%" x2="50%" y2="100%" id="gi3g3dmwpkxic0"><stop stop-color="#2FA4E7" offset="0%"/><stop stop-color="#2683B9" offset="100%"/></linearGradient></defs><g><g class="title" data-source-line="5"><rect x="137.2872" y="20.8333" width="207.2327" height="36.7513" fill="none" style="stroke:#BABDBF;stroke-width:1.0417;" rx="4.1667" ry="4.1667"/><text x="143.5372" y="46.4213" fill="#2FA4E7" font-size="20.8333" lengthAdjust="spacing" textLength="194.7327" font-weight="700" font-family="'Verdana'">Modelo de datos</text></g><!--class Config--><g class="entity" data-qualified-name="Config" id="ent0001" data-source-line="7"><rect x="17.7083" y="76.3346" width="224.3357" height="255.0456" fill="#E3F2FD" style="stroke:#2FA4E7;stroke-width:1.0417;" rx="4.1667" ry="4.1667"/><ellipse cx="60.4192" cy="95.4875" rx="10.4167" ry="10.4167" fill="#EDF0F2" style="stroke:#BABDBF;stroke-width:1.0417;"/><path d="M62.3235,99.9146 Q61.9003,100.1261 61.4283,100.2401 Q60.9563,100.354 60.4518,100.354 Q58.5963,100.354 57.6197,99.1496 Q56.6594,97.9289 56.6594,95.634 Q56.6594,93.3228 57.6197,92.1183 Q58.5963,90.8976 60.4518,90.8976 Q60.9563,90.8976 61.4283,91.0116 Q61.9166,91.1092 62.3235,91.3371 L62.3235,93.339 Q61.8678,92.9159 61.4283,92.7205 Q60.9889,92.509 60.5331,92.509 Q59.5403,92.509 59.0357,93.3065 Q58.5312,94.0877 58.5312,95.634 Q58.5312,97.1639 59.0357,97.9451 Q59.5403,98.7264 60.5331,98.7264 Q60.9889,98.7264 61.4283,98.5311 Q61.8678,98.3358 62.3235,97.9126 L62.3235,99.9146 Z " fill="#2FA4E7"/><text x="78.1275" y="93.1458" fill="#343A40" font-size="12.5" lengthAdjust="spacing" textLength="134.7473" font-style="italic" font-family="Verdana">«documento configs»</text><text x="127.1192" y="106.7296" fill="#343A40" font-size="11.4583" lengthAdjust="spacing" textLength="36.764" font-family="'Verdana'">Config</text><line x1="18.75" y1="114.6403" x2="241.0024" y2="114.6403" style="stroke:#2FA4E7;stroke-width:1.0417;"/><g data-visibility-modifier="PUBLIC_FIELD"><ellipse cx="29.1667" cy="127.0386" rx="3.125" ry="3.125" fill="none" style="stroke:#2683B9;stroke-width:1.0417;"/></g><text x="37.5" y="129.4429" fill="#343A40" font-size="11.4583" lengthAdjust="spacing" textLength="55.7978" font-family="'Verdana'">id : String</text><g data-visibility-modifier="PUBLIC_FIELD"><ellipse cx="29.1667" cy="140.3768" rx="3.125" ry="3.125" fill="none" style="stroke:#2683B9;stroke-width:1.0417;"/></g><text x="37.5" y="142.7811" fill="#343A40" font-size="11.4583" lengthAdjust="spacing" textLength="142.804" font-family="'Verdana'">temperatureMin : double</text><g data-visibility-modifier="PUBLIC_FIELD"><ellipse cx="29.1667" cy="153.715" rx="3.125" ry="3.125" fill="none" style="stroke:#2683B9;stroke-width:1.0417;"/></g><text x="37.5" y="156.1193" fill="#343A40" font-size="11.4583" lengthAdjust="spacing" textLength="146.1609" font-family="'Verdana'">temperatureMax : double</text><g data-visibility-modifier="PUBLIC_FIELD"><ellipse cx="29.1667" cy="167.0532" rx="3.125" ry="3.125" fill="none" style="stroke:#2683B9;stroke-width:1.0417;"/></g><text x="37.5" y="169.4575" fill="#343A40" font-size="11.4583" lengthAdjust="spacing" textLength="121.1294" font-family="'Verdana'">humidityMin : double</text><g data-visibility-modifier="PUBLIC_FIELD"><ellipse cx="29.1667" cy="180.3914" rx="3.125" ry="3.125" fill="none" style="stroke:#2683B9;stroke-width:1.0417;"/></g><text x="37.5" y="182.7957" fill="#343A40" font-size="11.4583" lengthAdjust="spacing" textLength="124.4863" font-family="'Verdana'">humidityMax : double</text><g data-visibility-modifier="PUBLIC_FIELD"><ellipse cx="29.1667" cy="193.7297" rx="3.125" ry="3.125" fill="none" style="stroke:#2683B9;stroke-width:1.0417;"/></g><text x="37.5" y="196.1339" fill="#343A40" font-size="11.4583" lengthAdjust="spacing" textLength="183.4173" font-family="'Verdana'">hysteresisTemperature : double</text><g data-visibility-modifier="PUBLIC_FIELD"><ellipse cx="29.1667" cy="207.0679" rx="3.125" ry="3.125" fill="none" style="stroke:#2683B9;stroke-width:1.0417;"/></g><text x="37.5" y="209.4721" fill="#343A40" font-size="11.4583" lengthAdjust="spacing" textLength="160.5901" font-family="'Verdana'">hysteresisHumidity : double</text><g data-visibility-modifier="PUBLIC_FIELD"><ellipse cx="29.1667" cy="220.4061" rx="3.125" ry="3.125" fill="none" style="stroke:#2683B9;stroke-width:1.0417;"/></g><text x="37.5" y="222.8104" fill="#343A40" font-size="11.4583" lengthAdjust="spacing" textLength="198.2941" font-family="'Verdana'">measurementIntervalSeconds : int</text><g data-visibility-modifier="PUBLIC_FIELD"><ellipse cx="29.1667" cy="233.7443" rx="3.125" ry="3.125" fill="none" style="stroke:#2683B9;stroke-width:1.0417;"/></g><text x="37.5" y="236.1486" fill="#343A40" font-size="11.4583" lengthAdjust="spacing" textLength="137.6846" font-family="'Verdana'">createdByName : String</text><g data-visibility-modifier="PUBLIC_FIELD"><ellipse cx="29.1667" cy="247.0825" rx="3.125" ry="3.125" fill="none" style="stroke:#2683B9;stroke-width:1.0417;"/></g><text x="37.5" y="249.4868" fill="#343A40" font-size="11.4583" lengthAdjust="spacing" textLength="135.6705" font-family="'Verdana'">createdByEmail : String</text><g data-visibility-modifier="PUBLIC_FIELD"><ellipse cx="29.1667" cy="260.4207" rx="3.125" ry="3.125" fill="none" style="stroke:#2683B9;stroke-width:1.0417;"/></g><text x="37.5" y="262.825" fill="#343A40" font-size="11.4583" lengthAdjust="spacing" textLength="87.4649" font-family="'Verdana'">clientIp : String</text><g data-visibility-modifier="PUBLIC_FIELD"><ellipse cx="29.1667" cy="273.759" rx="3.125" ry="3.125" fill="none" style="stroke:#2683B9;stroke-width:1.0417;"/></g><text x="37.5" y="276.1632" fill="#343A40" font-size="11.4583" lengthAdjust="spacing" textLength="104.2496" font-family="'Verdana'">userAgent : String</text><g data-visibility-modifier="PUBLIC_FIELD"><ellipse cx="29.1667" cy="287.0972" rx="3.125" ry="3.125" fill="none" style="stroke:#2683B9;stroke-width:1.0417;"/></g><text x="37.5" y="289.5014" fill="#343A40" font-size="11.4583" lengthAdjust="spacing" textLength="145.9707" font-family="'Verdana'">deviceFingerprint : String</text><g data-visibility-modifier="PUBLIC_FIELD"><ellipse cx="29.1667" cy="300.4354" rx="3.125" ry="3.125" fill="none" style="stroke:#2683B9;stroke-width:1.0417;"/></g><text x="37.5" y="302.8397" fill="#343A40" font-size="11.4583" lengthAdjust="spacing" textLength="91.7842" font-family="'Verdana'">active : boolean</text><g data-visibility-modifier="PUBLIC_FIELD"><ellipse cx="29.1667" cy="313.7736" rx="3.125" ry="3.125" fill="none" style="stroke:#2683B9;stroke-width:1.0417;"/></g><text x="37.5" y="316.1779" fill="#343A40" font-size="11.4583" lengthAdjust="spacing" textLength="107.254" font-family="'Verdana'">createdAt : Instant</text><line x1="18.75" y1="323.0469" x2="241.0024" y2="323.0469" style="stroke:#2FA4E7;stroke-width:1.0417;"/></g><!--class Measurement--><g class="entity" data-qualified-name="Measurement" id="ent0002" data-source-line="25"><rect x="24.3438" y="424.0846" width="211.0616" height="148.3398" fill="#E3F2FD" style="stroke:#2FA4E7;stroke-width:1.0417;" rx="4.1667" ry="4.1667"/><ellipse cx="38.9271" cy="443.2375" rx="10.4167" ry="10.4167" fill="#EDF0F2" style="stroke:#BABDBF;stroke-width:1.0417;"/><path d="M40.8314,447.6646 Q40.4082,447.8761 39.9362,447.9901 Q39.4642,448.104 38.9596,448.104 Q37.1042,448.104 36.1276,446.8996 Q35.1673,445.6789 35.1673,443.384 Q35.1673,441.0728 36.1276,439.8683 Q37.1042,438.6476 38.9596,438.6476 Q39.4642,438.6476 39.9362,438.7616 Q40.4245,438.8592 40.8314,439.0871 L40.8314,441.089 Q40.3757,440.6659 39.9362,440.4705 Q39.4967,440.259 39.041,440.259 Q38.0482,440.259 37.5436,441.0565 Q37.0391,441.8377 37.0391,443.384 Q37.0391,444.9139 37.5436,445.6951 Q38.0482,446.4764 39.041,446.4764 Q39.4967,446.4764 39.9362,446.2811 Q40.3757,446.0858 40.8314,445.6626 L40.8314,447.6646 Z " fill="#2FA4E7"/><text x="50.3854" y="440.8958" fill="#343A40" font-size="12.5" lengthAdjust="spacing" textLength="183.9783" font-style="italic" font-family="Verdana">«documento measurements»</text><text x="102.9166" y="454.4796" fill="#343A40" font-size="11.4583" lengthAdjust="spacing" textLength="78.9159" font-family="'Verdana'">Measurement</text><line x1="25.3854" y1="462.3903" x2="234.3637" y2="462.3903" style="stroke:#2FA4E7;stroke-width:1.0417;"/><g data-visibility-modifier="PUBLIC_FIELD"><ellipse cx="35.8021" cy="474.7886" rx="3.125" ry="3.125" fill="none" style="stroke:#2683B9;stroke-width:1.0417;"/></g><text x="44.1354" y="477.1929" fill="#343A40" font-size="11.4583" lengthAdjust="spacing" textLength="55.7978" font-family="'Verdana'">id : String</text><g data-visibility-modifier="PUBLIC_FIELD"><ellipse cx="35.8021" cy="488.1268" rx="3.125" ry="3.125" fill="none" style="stroke:#2683B9;stroke-width:1.0417;"/></g><text x="44.1354" y="490.5311" fill="#343A40" font-size="11.4583" lengthAdjust="spacing" textLength="122.4721" font-family="'Verdana'">temperature : double</text><g data-visibility-modifier="PUBLIC_FIELD"><ellipse cx="35.8021" cy="501.465" rx="3.125" ry="3.125" fill="none" style="stroke:#2683B9;stroke-width:1.0417;"/></g><text x="44.1354" y="503.8693" fill="#343A40" font-size="11.4583" lengthAdjust="spacing" textLength="100.7975" font-family="'Verdana'">humidity : double</text><g data-visibility-modifier="PUBLIC_FIELD"><ellipse cx="35.8021" cy="514.8032" rx="3.125" ry="3.125" fill="none" style="stroke:#2683B9;stroke-width:1.0417;"/></g><text x="44.1354" y="517.2075" fill="#343A40" font-size="11.4583" lengthAdjust="spacing" textLength="108.5017" font-family="'Verdana'">coolerOn : boolean</text><g data-visibility-modifier="PUBLIC_FIELD"><ellipse cx="35.8021" cy="528.1414" rx="3.125" ry="3.125" fill="none" style="stroke:#2683B9;stroke-width:1.0417;"/></g><text x="44.1354" y="530.5457" fill="#343A40" font-size="11.4583" lengthAdjust="spacing" textLength="101.9836" font-family="'Verdana'">relayOn : boolean</text><g data-visibility-modifier="PUBLIC_FIELD"><ellipse cx="35.8021" cy="541.4797" rx="3.125" ry="3.125" fill="none" style="stroke:#2683B9;stroke-width:1.0417;"/></g><text x="44.1354" y="543.8839" fill="#343A40" font-size="11.4583" lengthAdjust="spacing" textLength="125.5941" font-family="'Verdana'">status : SystemStatus</text><g data-visibility-modifier="PUBLIC_FIELD"><ellipse cx="35.8021" cy="554.8179" rx="3.125" ry="3.125" fill="none" style="stroke:#2683B9;stroke-width:1.0417;"/></g><text x="44.1354" y="557.2221" fill="#343A40" font-size="11.4583" lengthAdjust="spacing" textLength="107.254" font-family="'Verdana'">createdAt : Instant</text><line x1="25.3854" y1="564.0911" x2="234.3637" y2="564.0911" style="stroke:#2FA4E7;stroke-width:1.0417;"/></g><!--class EventAck--><g class="entity" data-qualified-name="EventAck" id="ent0003" data-source-line="35"><rect x="275.8542" y="457.4284" width="187.203" height="81.6488" fill="#E3F2FD" style="stroke:#2FA4E7;stroke-width:1.0417;" rx="4.1667" ry="4.1667"/><ellipse cx="290.4375" cy="476.5812" rx="10.4167" ry="10.4167" fill="#EDF0F2" style="stroke:#BABDBF;stroke-width:1.0417;"/><path d="M292.3418,481.0083 Q291.9186,481.2199 291.4466,481.3338 Q290.9746,481.4478 290.4701,481.4478 Q288.6146,481.4478 287.638,480.2433 Q286.6777,479.0226 286.6777,476.7277 Q286.6777,474.4165 287.638,473.2121 Q288.6146,471.9914 290.4701,471.9914 Q290.9746,471.9914 291.4466,472.1053 Q291.9349,472.203 292.3418,472.4308 L292.3418,474.4328 Q291.8861,474.0096 291.4466,473.8143 Q291.0072,473.6027 290.5514,473.6027 Q289.5586,473.6027 289.054,474.4002 Q288.5495,475.1815 288.5495,476.7277 Q288.5495,478.2576 289.054,479.0389 Q289.5586,479.8201 290.5514,479.8201 Q291.0072,479.8201 291.4466,479.6248 Q291.8861,479.4295 292.3418,479.0063 L292.3418,481.0083 Z " fill="#2FA4E7"/><text x="301.8958" y="474.2395" fill="#343A40" font-size="12.5" lengthAdjust="spacing" textLength="160.1196" font-style="italic" font-family="Verdana">«documento event_acks»</text><text x="355.1561" y="487.8234" fill="#343A40" font-size="11.4583" lengthAdjust="spacing" textLength="53.599" font-family="'Verdana'">EventAck</text><line x1="276.8958" y1="495.734" x2="462.0155" y2="495.734" style="stroke:#2FA4E7;stroke-width:1.0417;"/><g data-visibility-modifier="PUBLIC_FIELD"><ellipse cx="287.3125" cy="508.1323" rx="3.125" ry="3.125" fill="none" style="stroke:#2683B9;stroke-width:1.0417;"/></g><text x="295.6458" y="510.5366" fill="#343A40" font-size="11.4583" lengthAdjust="spacing" textLength="55.7978" font-family="'Verdana'">id : String</text><g data-visibility-modifier="PUBLIC_FIELD"><ellipse cx="287.3125" cy="521.4705" rx="3.125" ry="3.125" fill="none" style="stroke:#2683B9;stroke-width:1.0417;"/></g><text x="295.6458" y="523.8748" fill="#343A40" font-size="11.4583" lengthAdjust="spacing" textLength="97.6364" font-family="'Verdana'">ackedAt : Instant</text><line x1="276.8958" y1="530.7438" x2="462.0155" y2="530.7438" style="stroke:#2FA4E7;stroke-width:1.0417;"/></g><!--class EventResponse--><g class="entity" data-qualified-name="EventResponse" id="ent0004" data-source-line="40"><rect x="257.4375" y="650.5534" width="165.7013" height="135.0016" fill="#FFF3E0" style="stroke:#2FA4E7;stroke-width:1.0417;" rx="4.1667" ry="4.1667"/><ellipse cx="274.1252" cy="669.7062" rx="10.4167" ry="10.4167" fill="#EDF0F2" style="stroke:#BABDBF;stroke-width:1.0417;"/><path d="M276.0295,674.1333 Q275.6063,674.3449 275.1343,674.4588 Q274.6623,674.5728 274.1577,674.5728 Q272.3023,674.5728 271.3257,673.3683 Q270.3654,672.1476 270.3654,669.8527 Q270.3654,667.5415 271.3257,666.3371 Q272.3023,665.1164 274.1577,665.1164 Q274.6623,665.1164 275.1343,665.2303 Q275.6226,665.328 276.0295,665.5558 L276.0295,667.5578 Q275.5737,667.1346 275.1343,666.9393 Q274.6948,666.7277 274.2391,666.7277 Q273.2463,666.7277 272.7417,667.5252 Q272.2372,668.3065 272.2372,669.8527 Q272.2372,671.3826 272.7417,672.1639 Q273.2463,672.9451 274.2391,672.9451 Q274.6948,672.9451 275.1343,672.7498 Q275.5737,672.5545 276.0295,672.1313 L276.0295,674.1333 Z " fill="#2FA4E7"/><text x="286.0511" y="667.3645" fill="#343A40" font-size="12.5" lengthAdjust="spacing" textLength="133.9417" font-style="italic" font-family="Verdana">«DTO no se persiste»</text><text x="308.8363" y="680.9484" fill="#343A40" font-size="11.4583" lengthAdjust="spacing" textLength="88.3713" font-family="'Verdana'">EventResponse</text><line x1="258.4792" y1="688.859" x2="422.0971" y2="688.859" style="stroke:#2FA4E7;stroke-width:1.0417;"/><g data-visibility-modifier="PUBLIC_FIELD"><ellipse cx="268.8958" cy="701.2573" rx="3.125" ry="3.125" fill="none" style="stroke:#2683B9;stroke-width:1.0417;"/></g><text x="277.2292" y="703.6616" fill="#343A40" font-size="11.4583" lengthAdjust="spacing" textLength="55.7978" font-family="'Verdana'">id : String</text><g data-visibility-modifier="PUBLIC_FIELD"><ellipse cx="268.8958" cy="714.5955" rx="3.125" ry="3.125" fill="none" style="stroke:#2683B9;stroke-width:1.0417;"/></g><text x="277.2292" y="716.9998" fill="#343A40" font-size="11.4583" lengthAdjust="spacing" textLength="76.9129" font-family="'Verdana'">time : Instant</text><g data-visibility-modifier="PUBLIC_FIELD"><ellipse cx="268.8958" cy="727.9338" rx="3.125" ry="3.125" fill="none" style="stroke:#2683B9;stroke-width:1.0417;"/></g><text x="277.2292" y="730.338" fill="#343A40" font-size="11.4583" lengthAdjust="spacing" textLength="137.3098" font-family="'Verdana'">severity : EventSeverity</text><g data-visibility-modifier="PUBLIC_FIELD"><ellipse cx="268.8958" cy="741.272" rx="3.125" ry="3.125" fill="none" style="stroke:#2683B9;stroke-width:1.0417;"/></g><text x="277.2292" y="743.6762" fill="#343A40" font-size="11.4583" lengthAdjust="spacing" textLength="97.67" font-family="'Verdana'">type : EventType</text><g data-visibility-modifier="PUBLIC_FIELD"><ellipse cx="268.8958" cy="754.6102" rx="3.125" ry="3.125" fill="none" style="stroke:#2683B9;stroke-width:1.0417;"/></g><text x="277.2292" y="757.0145" fill="#343A40" font-size="11.4583" lengthAdjust="spacing" textLength="101.4409" font-family="'Verdana'">ackable : boolean</text><g data-visibility-modifier="PUBLIC_FIELD"><ellipse cx="268.8958" cy="767.9484" rx="3.125" ry="3.125" fill="none" style="stroke:#2683B9;stroke-width:1.0417;"/></g><text x="277.2292" y="770.3527" fill="#343A40" font-size="11.4583" lengthAdjust="spacing" textLength="139.6596" font-family="'Verdana'">acknowledged : boolean</text><line x1="258.4792" y1="777.2217" x2="422.0971" y2="777.2217" style="stroke:#2FA4E7;stroke-width:1.0417;"/></g><!--class SystemStatus--><g class="entity" data-qualified-name="SystemStatus" id="ent0005" data-source-line="49"><rect x="60.0938" y="667.418" width="131.2291" height="101.2695" fill="none" style="stroke:#2FA4E7;stroke-width:1.0417;" rx="4.1667" ry="4.1667"/><rect x="60.0938" y="667.418" width="131.2291" height="31.25" fill="url(#gi3g3dmwpkxic0)" style="stroke:url(#gi3g3dmwpkxic0);stroke-width:1.0417;" rx="4.1667" ry="4.1667"/><rect x="60.0938" y="694.5013" width="131.2291" height="4.1667" fill="url(#gi3g3dmwpkxic0)" style="stroke:url(#gi3g3dmwpkxic0);stroke-width:1.0417;"/><rect x="60.0938" y="667.418" width="131.2291" height="101.2695" fill="none" style="stroke:#2FA4E7;stroke-width:1.0417;" rx="4.1667" ry="4.1667"/><ellipse cx="84.0095" cy="683.043" rx="10.4167" ry="10.4167" fill="#E47833" style="stroke:#FFFFFF;stroke-width:1.0417;"/><path d="M86.5486,687.7305 L80.8682,687.7305 L80.8682,678.6159 L86.5486,678.6159 L86.5486,680.2109 L82.6749,680.2109 L82.6749,682.1641 L86.1742,682.1641 L86.1742,683.7591 L82.6749,683.7591 L82.6749,686.1354 L86.5486,686.1354 L86.5486,687.7305 Z " fill="#2FA4E7"/><text x="99.6251" y="687.0097" fill="#343A40" font-size="11.4583" lengthAdjust="spacing" textLength="79.2404" font-family="'Verdana'">SystemStatus</text><line x1="61.1354" y1="698.668" x2="190.2812" y2="698.668" style="stroke:#2FA4E7;stroke-width:1.0417;"/><text x="66.3438" y="713.4705" fill="#343A40" font-size="11.4583" lengthAdjust="spacing" textLength="49.6602" font-family="'Verdana'">NORMAL</text><text x="66.3438" y="726.8087" fill="#343A40" font-size="11.4583" lengthAdjust="spacing" textLength="93.2948" font-family="'Verdana'">WARNING_TEMP</text><text x="66.3438" y="740.147" fill="#343A40" font-size="11.4583" lengthAdjust="spacing" textLength="118.7291" font-family="'Verdana'">WARNING_HUMIDITY</text><text x="66.3438" y="753.4852" fill="#343A40" font-size="11.4583" lengthAdjust="spacing" textLength="51.943" font-family="'Verdana'">CRITICAL</text><line x1="61.1354" y1="760.3542" x2="190.2812" y2="760.3542" style="stroke:#2FA4E7;stroke-width:1.0417;"/></g><!--class EventType--><g class="entity" data-qualified-name="EventType" id="ent0006" data-source-line="56"><rect x="152.7917" y="863.6784" width="166.6616" height="141.2842" fill="none" style="stroke:#2FA4E7;stroke-width:1.0417;" rx="4.1667" ry="4.1667"/><rect x="152.7917" y="863.6784" width="166.6616" height="31.25" fill="url(#gi3g3dmwpkxic0)" style="stroke:url(#gi3g3dmwpkxic0);stroke-width:1.0417;" rx="4.1667" ry="4.1667"/><rect x="152.7917" y="890.7617" width="166.6616" height="4.1667" fill="url(#gi3g3dmwpkxic0)" style="stroke:url(#gi3g3dmwpkxic0);stroke-width:1.0417;"/><rect x="152.7917" y="863.6784" width="166.6616" height="141.2842" fill="none" style="stroke:#2FA4E7;stroke-width:1.0417;" rx="4.1667" ry="4.1667"/><ellipse cx="201.4916" cy="879.3034" rx="10.4167" ry="10.4167" fill="#E47833" style="stroke:#FFFFFF;stroke-width:1.0417;"/><path d="M204.0307,883.9909 L198.3503,883.9909 L198.3503,874.8763 L204.0307,874.8763 L204.0307,876.4714 L200.157,876.4714 L200.157,878.4245 L203.6563,878.4245 L203.6563,880.0195 L200.157,880.0195 L200.157,882.3958 L204.0307,882.3958 L204.0307,883.9909 Z " fill="#2FA4E7"/><text x="221.2833" y="883.2702" fill="#343A40" font-size="11.4583" lengthAdjust="spacing" textLength="60.9283" font-family="'Verdana'">EventType</text><line x1="153.8333" y1="894.9284" x2="318.4116" y2="894.9284" style="stroke:#2FA4E7;stroke-width:1.0417;"/><text x="159.0417" y="909.7309" fill="#343A40" font-size="11.4583" lengthAdjust="spacing" textLength="128.7272" font-family="'Verdana'">TEMP_OUT_OF_RANGE</text><text x="159.0417" y="923.0692" fill="#343A40" font-size="11.4583" lengthAdjust="spacing" textLength="154.1616" font-family="'Verdana'">HUMIDITY_OUT_OF_RANGE</text><text x="159.0417" y="936.4074" fill="#343A40" font-size="11.4583" lengthAdjust="spacing" textLength="51.943" font-family="'Verdana'">CRITICAL</text><text x="159.0417" y="949.7456" fill="#343A40" font-size="11.4583" lengthAdjust="spacing" textLength="124.2569" font-family="'Verdana'">RETURN_TO_NORMAL</text><text x="159.0417" y="963.0838" fill="#343A40" font-size="11.4583" lengthAdjust="spacing" textLength="70.9432" font-family="'Verdana'">COOLER_ON</text><text x="159.0417" y="976.422" fill="#343A40" font-size="11.4583" lengthAdjust="spacing" textLength="75.5534" font-family="'Verdana'">COOLER_OFF</text><text x="159.0417" y="989.7602" fill="#343A40" font-size="11.4583" lengthAdjust="spacing" textLength="100.8423" font-family="'Verdana'">SENSOR_OFFLINE</text><line x1="153.8333" y1="996.6292" x2="318.4116" y2="996.6292" style="stroke:#2FA4E7;stroke-width:1.0417;"/></g><!--class EventSeverity--><g class="entity" data-qualified-name="EventSeverity" id="ent0007" data-source-line="66"><rect x="258.5521" y="1083.0846" width="111.3968" height="101.2695" fill="none" style="stroke:#2FA4E7;stroke-width:1.0417;" rx="4.1667" ry="4.1667"/><rect x="258.5521" y="1083.0846" width="111.3968" height="31.25" fill="url(#gi3g3dmwpkxic0)" style="stroke:url(#gi3g3dmwpkxic0);stroke-width:1.0417;" rx="4.1667" ry="4.1667"/><rect x="258.5521" y="1110.168" width="111.3968" height="4.1667" fill="url(#gi3g3dmwpkxic0)" style="stroke:url(#gi3g3dmwpkxic0);stroke-width:1.0417;"/><rect x="258.5521" y="1083.0846" width="111.3968" height="101.2695" fill="none" style="stroke:#2FA4E7;stroke-width:1.0417;" rx="4.1667" ry="4.1667"/><ellipse cx="273.1354" cy="1098.7096" rx="10.4167" ry="10.4167" fill="#E47833" style="stroke:#FFFFFF;stroke-width:1.0417;"/><path d="M275.6745,1103.3971 L269.9941,1103.3971 L269.9941,1094.2826 L275.6745,1094.2826 L275.6745,1095.8776 L271.8008,1095.8776 L271.8008,1097.8307 L275.3001,1097.8307 L275.3001,1099.4258 L271.8008,1099.4258 L271.8008,1101.8021 L275.6745,1101.8021 L275.6745,1103.3971 Z " fill="#2FA4E7"/><text x="286.6771" y="1102.6764" fill="#343A40" font-size="11.4583" lengthAdjust="spacing" textLength="80.1468" font-family="'Verdana'">EventSeverity</text><line x1="259.5938" y1="1114.3346" x2="368.9072" y2="1114.3346" style="stroke:#2FA4E7;stroke-width:1.0417;"/><text x="264.8021" y="1129.1372" fill="#343A40" font-size="11.4583" lengthAdjust="spacing" textLength="27.5604" font-family="'Verdana'">INFO</text><text x="264.8021" y="1142.4754" fill="#343A40" font-size="11.4583" lengthAdjust="spacing" textLength="53.448" font-family="'Verdana'">SUCCESS</text><text x="264.8021" y="1155.8136" fill="#343A40" font-size="11.4583" lengthAdjust="spacing" textLength="56.5308" font-family="'Verdana'">WARNING</text><text x="264.8021" y="1169.1518" fill="#343A40" font-size="11.4583" lengthAdjust="spacing" textLength="51.943" font-family="'Verdana'">CRITICAL</text><line x1="259.5938" y1="1176.0208" x2="368.9072" y2="1176.0208" style="stroke:#2FA4E7;stroke-width:1.0417;"/></g><!--link Config to Measurement--><g class="link" data-entity-1="ent0001" data-entity-2="ent0002" id="lnk8" data-source-line="73" data-link-type="dependency"><path d="M129.875,331.8346 C129.875,363.2721 129.875,390.6992 129.875,418.5951" style="stroke:#2FA4E7;stroke-width:3.125;stroke-dasharray:7.2917,7.2917;" fill="none" id="Config-to-Measurement" codeLine="73"/><polygon points="129.875,423.8034,134.0417,414.4284,129.875,418.5951,125.7083,414.4284,129.875,423.8034" fill="#2FA4E7" style="stroke:#2FA4E7;stroke-width:3.125;stroke-linejoin:miter;stroke-miterlimit:10;"/><text x="146.7553" y="375.2708" fill="#343A40" font-size="12.5" lengthAdjust="spacing" textLength="133.9722" font-family="'Verdana'">umbrales e histeresis</text><text x="130.9167" y="389.8215" fill="#343A40" font-size="12.5" lengthAdjust="spacing" textLength="165.6494" font-family="'Verdana'">parametrizan cada lectura</text></g><!--link Measurement to SystemStatus--><g class="link" data-entity-1="ent0002" data-entity-2="ent0005" id="lnk9" data-source-line="74" data-link-type="dependency"><path d="M123.6146,572.8763 C122.8125,588.2096 122.3438,604.2721 122.5833,619.3034 C122.8333,634.9076 123.1434,646.7124 123.6434,662.1082" style="stroke:#2FA4E7;stroke-width:3.125;" fill="none" id="Measurement-to-SystemStatus" codeLine="74"/><polygon points="123.8125,667.3138,127.6727,657.8085,123.6434,662.1082,119.3437,658.079,123.8125,667.3138" fill="#2FA4E7" style="stroke:#2FA4E7;stroke-width:3.125;stroke-linejoin:miter;stroke-miterlimit:10;"/><text x="123.625" y="616.3228" fill="#343A40" font-size="12.5" lengthAdjust="spacing" textLength="38.4094" font-family="'Verdana'">status</text></g><!--link Measurement to EventResponse--><g class="link" data-entity-1="ent0002" data-entity-2="ent0004" id="lnk10" data-source-line="75" data-link-type="dependency"><path d="M184.9896,572.8867 C197.8125,588.6888 211.8021,604.9388 225.7083,619.3034 C235.8021,629.7201 243.0304,636.7408 254.2284,646.7929" style="stroke:#2FA4E7;stroke-width:3.125;stroke-dasharray:7.2917,7.2917;" fill="none" id="Measurement-to-EventResponse" codeLine="75"/><polygon points="258.1042,650.2721,253.9111,640.9089,254.2284,646.7929,248.3444,647.1102,258.1042,650.2721" fill="#2FA4E7" style="stroke:#2FA4E7;stroke-width:3.125;stroke-linejoin:miter;stroke-miterlimit:10;"/><text x="226.75" y="616.3228" fill="#343A40" font-size="12.5" lengthAdjust="spacing" textLength="118.9941" font-family="'Verdana'">deriva transiciones</text></g><!--link EventAck to EventResponse--><g class="link" data-entity-1="ent0003" data-entity-2="ent0004" id="lnk11" data-source-line="76" data-link-type="dependency"><path d="M364.1146,539.2305 C359.9479,570.2826 354.7745,608.9015 349.9099,645.2349" style="stroke:#2FA4E7;stroke-width:3.125;stroke-dasharray:7.2917,7.2917;" fill="none" id="EventAck-to-EventResponse" codeLine="76"/><polygon points="349.2188,650.3971,354.5927,641.658,349.9099,645.2349,346.333,640.5521,349.2188,650.3971" fill="#2FA4E7" style="stroke:#2FA4E7;stroke-width:3.125;stroke-linejoin:miter;stroke-miterlimit:10;"/><text x="355.9167" y="616.3228" fill="#343A40" font-size="12.5" lengthAdjust="spacing" textLength="97.5586" font-family="'Verdana'">reconoce por id</text></g><!--link EventResponse to EventType--><g class="link" data-entity-1="ent0004" data-entity-2="ent0006" id="lnk12" data-source-line="77" data-link-type="dependency"><path d="M307.7604,785.9805 C295.8229,810.5326 284.5592,833.6926 272.4863,858.5155" style="stroke:#2FA4E7;stroke-width:3.125;" fill="none" id="EventResponse-to-EventType" codeLine="77"/><polygon points="270.2083,863.1992,278.0557,856.5909,272.4863,858.5155,270.5617,852.9461,270.2083,863.1992" fill="#2FA4E7" style="stroke:#2FA4E7;stroke-width:3.125;stroke-linejoin:miter;stroke-miterlimit:10;"/><text x="292.375" y="829.4478" fill="#343A40" font-size="12.5" lengthAdjust="spacing" textLength="27.9236" font-family="'Verdana'">type</text></g><!--link EventResponse to EventSeverity--><g class="link" data-entity-1="ent0004" data-entity-2="ent0007" id="lnk13" data-source-line="78" data-link-type="dependency"><path d="M360.8229,786.0117 C378.4271,854.3555 396.9688,962.7721 369.4583,1051.8346 C366.1458,1062.5534 363.5983,1068.6763 357.5983,1078.4575" style="stroke:#2FA4E7;stroke-width:3.125;" fill="none" id="EventResponse-to-EventSeverity" codeLine="78"/><polygon points="354.875,1082.8971,363.3287,1077.0845,357.5983,1078.4575,356.2253,1072.7272,354.875,1082.8971" fill="#2FA4E7" style="stroke:#2FA4E7;stroke-width:3.125;stroke-linejoin:miter;stroke-miterlimit:10;"/><text x="384.0417" y="939.1458" fill="#343A40" font-size="12.5" lengthAdjust="spacing" textLength="50.2014" font-family="'Verdana'">severity</text></g><!--link EventType to EventSeverity--><g class="link" data-entity-1="ent0006" data-entity-2="ent0007" id="lnk14" data-source-line="79" data-link-type="dependency"><path d="M260.9479,1005.2201 C266.6458,1020.6471 272.8125,1036.8451 278.8333,1051.8346 C282.8958,1061.9284 285.3548,1067.8688 289.7819,1078.0771" style="stroke:#2FA4E7;stroke-width:3.125;" fill="none" id="EventType-to-EventSeverity" codeLine="79"/><polygon points="291.8542,1082.8555,291.9468,1072.5967,289.7819,1078.0771,284.3015,1075.9122,291.8542,1082.8555" fill="#2FA4E7" style="stroke:#2FA4E7;stroke-width:3.125;stroke-linejoin:miter;stroke-miterlimit:10;"/><text x="279.875" y="1048.8541" fill="#343A40" font-size="12.5" lengthAdjust="spacing" textLength="84.4116" font-family="'Verdana'">severidad fija</text></g><?plantuml-src bLNTRjCm5BxFKnoq2q2m2R6xQgfKsdIBr2OeIOMGa28tFclD4hkodOw2a7W8df0duJXhshZQcCYLVSxdpz_vySaBkyOQeKJTLCZakMfi9IG6vax83TEiXYKhxrPQDPAFLQKqd4tRhuSmQyRLlP0hk6MLmU0bJ0HRaOS19-gA6JJmQZ6VlOO_ltv3hJXMohauiyeCWAkogL7I6ZQeZJ1MS6NUmYHF2AN5bkXX1oYRsbm4LjWAOUwJ186xni1OoLknWgkh0oUKhSaCXt0MNaxVJoVm8m1u8pWC8BEQPBkjnPhkPhRHE1SIdAXcMU6fYttpNEkc5bpOtUcHW_qKlpCMDLA8-P7q2SJDdiDpryWC7N6HHPA0MrPbI15oGp0XhSEK6fb5_c4Ningz80-Ui6QYybsLS9mRpzWOrACLsJqhnwqeSKexr1io-bvMMh5rrowLSXtLktVaa94qbf7Gdrt9viUGlBhrGlsFuZrQ1izOEbqwaRv4ZHNRdHf9gMrSPZDNbJfhjyy656v9ygYyyw91PopeAJqN2q7-IPoYsIXfaDZT-v0AQBr_DkYuwMrUXkyUpvDe6w8ZTX6IBlsGePOzs-zRz6w3dJsdzLuTeppwQIAZLFSLyXNodeTqkoVh9Q-L5IVfV3IZnQTH6aVnTP67yu-zxSrY7asY_3EPnccKHsC2TsG7DIsJErWaYxn8faKwYgz3idMdJ-q7Ae0qp1TfNEH9SP0oJf9Pc1P9t5lJa0F8mZXBsiqiYaDVHvUjLaiKJnE7Nup7OPOTmpc9OZ-XBYw6NkSFeAcNcbKqAH7MeXi2Nnv6B589lpC99UCCAYofqrdGFtv-FlJpF827vlLGxbA_YGRx0GjMCsb4APH44nmw-B43siqRLLBJqSz0yC3tEo776Wt0DT5JaEpOV5qV1iUpJyCuut0hlhA_?></g></svg>