<svg xmlns="http://www.w3.org/2000/svg" xmlns:xlink="http://www.w3.org/1999/xlink" version="1.1" data-diagram-type="CLASS" style="width:487px;height:1282px;background:#FFFFFF;" width="487px" height="1282px" viewBox="0 0 487 1282" zoomAndPan="magnify" preserveAspectRatio="none" contentStyleType="text/css"><?plantuml 1.2026.7beta3?><defs/><g><g class="title" data-source-line="2"><text x="174.8703" y="22.9951" fill="#000000" font-size="14" lengthAdjust="spacing" textLength="130.8604" font-weight="700" font-family="sans-serif">Modelo de datos</text></g><!--class Config--><g class="entity" data-qualified-name="Config" id="ent0001" data-source-line="4"><rect x="7" y="44.2969" width="268.2793" height="300.7188" fill="#E3F2FD" style="stroke:#181818;stroke-width:0.5;" rx="2.5" ry="2.5"/><ellipse cx="74.2109" cy="64.4297" rx="11" ry="11" fill="#ADD1B2" style="stroke:#181818;stroke-width:1;"/><path d="M77.1797,70.0703 Q76.6016,70.3672 75.9609,70.5078 Q75.3203,70.6641 74.6172,70.6641 Q72.1172,70.6641 70.7891,69.0234 Q69.4766,67.3672 69.4766,64.2422 Q69.4766,61.1172 70.7891,59.4609 Q72.1172,57.8047 74.6172,57.8047 Q75.3203,57.8047 75.9609,57.9609 Q76.6172,58.1172 77.1797,58.4141 L77.1797,61.1328 Q76.5547,60.5547 75.9609,60.2891 Q75.3672,60.0078 74.7422,60.0078 Q73.3984,60.0078 72.7109,61.0859 Q72.0234,62.1484 72.0234,64.2422 Q72.0234,66.3359 72.7109,67.4141 Q73.3984,68.4766 74.7422,68.4766 Q75.3672,68.4766 75.9609,68.2109 Q76.5547,67.9297 77.1797,67.3516 L77.1797,70.0703 Z " fill="#000000"/><text x="92.7109" y="60.4355" fill="#000000" font-size="12" lengthAdjust="spacing" textLength="129.3574" font-style="italic" font-family="sans-serif">«documento configs»</text><text x="134.9302" y="76.2607" fill="#000000" font-size="14" lengthAdjust="spacing" textLength="44.9189" font-family="sans-serif">Config</text><line x1="8" y1="84.5625" x2="274.2793" y2="84.5625" style="stroke:#181818;stroke-width:0.5;"/><g data-visibility-modifier="PUBLIC_FIELD"><ellipse cx="18" cy="98.2109" rx="3" ry="3" fill="none" style="stroke:#038048;stroke-width:1;"/></g><text x="27" y="101.5576" fill="#000000" font-size="14" lengthAdjust="spacing" textLength="68.1748" font-family="sans-serif">id : String</text><g data-visibility-modifier="PUBLIC_FIELD"><ellipse cx="18" cy="114.5078" rx="3" ry="3" fill="none" style="stroke:#038048;stroke-width:1;"/></g><text x="27" y="117.8545" fill="#000000" font-size="14" lengthAdjust="spacing" textLength="174.4805" font-family="sans-serif">temperatureMin : double</text><g data-visibility-modifier="PUBLIC_FIELD"><ellipse cx="18" cy="130.8047" rx="3" ry="3" fill="none" style="stroke:#038048;stroke-width:1;"/></g><text x="27" y="134.1514" fill="#000000" font-size="14" lengthAdjust="spacing" textLength="178.582" font-family="sans-serif">temperatureMax : double</text><g data-visibility-modifier="PUBLIC_FIELD"><ellipse cx="18" cy="147.1016" rx="3" ry="3" fill="none" style="stroke:#038048;stroke-width:1;"/></g><text x="27" y="150.4482" fill="#000000" font-size="14" lengthAdjust="spacing" textLength="147.998" font-family="sans-serif">humidityMin : double</text><g data-visibility-modifier="PUBLIC_FIELD"><ellipse cx="18" cy="163.3984" rx="3" ry="3" fill="none" style="stroke:#038048;stroke-width:1;"/></g><text x="27" y="166.7451" fill="#000000" font-size="14" lengthAdjust="spacing" textLength="152.0996" font-family="sans-serif">humidityMax : double</text><g data-visibility-modifier="PUBLIC_FIELD"><ellipse cx="18" cy="179.6953" rx="3" ry="3" fill="none" style="stroke:#038048;stroke-width:1;"/></g><text x="27" y="183.042" fill="#000000" font-size="14" lengthAdjust="spacing" textLength="224.1025" font-family="sans-serif">hysteresisTemperature : double</text><g data-visibility-modifier="PUBLIC_FIELD"><ellipse cx="18" cy="195.9922" rx="3" ry="3" fill="none" style="stroke:#038048;stroke-width:1;"/></g><text x="27" y="199.3389" fill="#000000" font-size="14" lengthAdjust="spacing" textLength="196.2119" font-family="sans-serif">hysteresisHumidity : double</text><g data-visibility-modifier="PUBLIC_FIELD"><ellipse cx="18" cy="212.2891" rx="3" ry="3" fill="none" style="stroke:#038048;stroke-width:1;"/></g><text x="27" y="215.6357" fill="#000000" font-size="14" lengthAdjust="spacing" textLength="242.2793" font-family="sans-serif">measurementIntervalSeconds : int</text><g data-visibility-modifier="PUBLIC_FIELD"><ellipse cx="18" cy="228.5859" rx="3" ry="3" fill="none" style="stroke:#038048;stroke-width:1;"/></g><text x="27" y="231.9326" fill="#000000" font-size="14" lengthAdjust="spacing" textLength="168.2256" font-family="sans-serif">createdByName : String</text><g data-visibility-modifier="PUBLIC_FIELD"><ellipse cx="18" cy="244.8828" rx="3" ry="3" fill="none" style="stroke:#038048;stroke-width:1;"/></g><text x="27" y="248.2295" fill="#000000" font-size="14" lengthAdjust="spacing" textLength="165.7646" font-family="sans-serif">createdByEmail : String</text><g data-visibility-modifier="PUBLIC_FIELD"><ellipse cx="18" cy="261.1797" rx="3" ry="3" fill="none" style="stroke:#038048;stroke-width:1;"/></g><text x="27" y="264.5264" fill="#000000" font-size="14" lengthAdjust="spacing" textLength="106.8662" font-family="sans-serif">clientIp : String</text><g data-visibility-modifier="PUBLIC_FIELD"><ellipse cx="18" cy="277.4766" rx="3" ry="3" fill="none" style="stroke:#038048;stroke-width:1;"/></g><text x="27" y="280.8232" fill="#000000" font-size="14" lengthAdjust="spacing" textLength="127.374" font-family="sans-serif">userAgent : String</text><g data-visibility-modifier="PUBLIC_FIELD"><ellipse cx="18" cy="293.7734" rx="3" ry="3" fill="none" style="stroke:#038048;stroke-width:1;"/></g><text x="27" y="297.1201" fill="#000000" font-size="14" lengthAdjust="spacing" textLength="178.3496" font-family="sans-serif">deviceFingerprint : String</text><g data-visibility-modifier="PUBLIC_FIELD"><ellipse cx="18" cy="310.0703" rx="3" ry="3" fill="none" style="stroke:#038048;stroke-width:1;"/></g><text x="27" y="313.417" fill="#000000" font-size="14" lengthAdjust="spacing" textLength="112.1436" font-family="sans-serif">active : boolean</text><g data-visibility-modifier="PUBLIC_FIELD"><ellipse cx="18" cy="326.3672" rx="3" ry="3" fill="none" style="stroke:#038048;stroke-width:1;"/></g><text x="27" y="329.7139" fill="#000000" font-size="14" lengthAdjust="spacing" textLength="131.0449" font-family="sans-serif">createdAt : Instant</text><line x1="8" y1="337.0156" x2="274.2793" y2="337.0156" style="stroke:#181818;stroke-width:0.5;"/></g><!--class Measurement--><g class="entity" data-qualified-name="Measurement" id="ent0002" data-source-line="22"><rect x="38.83" y="437.0069" width="204.6191" height="170.3438" fill="#E3F2FD" style="stroke:#181818;stroke-width:0.5;" rx="2.5" ry="2.5"/><ellipse cx="53.83" cy="457.1397" rx="11" ry="11" fill="#ADD1B2" style="stroke:#181818;stroke-width:1;"/><path d="M56.7988,462.7803 Q56.2206,463.0772 55.58,463.2178 Q54.9394,463.3741 54.2363,463.3741 Q51.7363,463.3741 50.4081,461.7334 Q49.0956,460.0772 49.0956,456.9522 Q49.0956,453.8272 50.4081,452.1709 Q51.7363,450.5147 54.2363,450.5147 Q54.9394,450.5147 55.58,450.6709 Q56.2363,450.8272 56.7988,451.1241 L56.7988,453.8428 Q56.1738,453.2647 55.58,452.9991 Q54.9863,452.7178 54.3613,452.7178 Q53.0175,452.7178 52.33,453.7959 Q51.6425,454.8584 51.6425,456.9522 Q51.6425,459.0459 52.33,460.1241 Q53.0175,461.1866 54.3613,461.1866 Q54.9863,461.1866 55.58,460.9209 Q56.1738,460.6397 56.7988,460.0616 L56.7988,462.7803 Z " fill="#000000"/><text x="65.83" y="453.1455" fill="#000000" font-size="12" lengthAdjust="spacing" textLength="176.6191" font-style="italic" font-family="sans-serif">«documento measurements»</text><text x="105.9291" y="468.9707" fill="#000000" font-size="14" lengthAdjust="spacing" textLength="96.4209" font-family="sans-serif">Measurement</text><line x1="39.83" y1="477.2725" x2="242.4491" y2="477.2725" style="stroke:#181818;stroke-width:0.5;"/><g data-visibility-modifier="PUBLIC_FIELD"><ellipse cx="49.83" cy="490.9209" rx="3" ry="3" fill="none" style="stroke:#038048;stroke-width:1;"/></g><text x="58.83" y="494.2676" fill="#000000" font-size="14" lengthAdjust="spacing" textLength="68.1748" font-family="sans-serif">id : String</text><g data-visibility-modifier="PUBLIC_FIELD"><ellipse cx="49.83" cy="507.2178" rx="3" ry="3" fill="none" style="stroke:#038048;stroke-width:1;"/></g><text x="58.83" y="510.5645" fill="#000000" font-size="14" lengthAdjust="spacing" textLength="149.6387" font-family="sans-serif">temperature : double</text><g data-visibility-modifier="PUBLIC_FIELD"><ellipse cx="49.83" cy="523.5147" rx="3" ry="3" fill="none" style="stroke:#038048;stroke-width:1;"/></g><text x="58.83" y="526.8614" fill="#000000" font-size="14" lengthAdjust="spacing" textLength="123.1563" font-family="sans-serif">humidity : double</text><g data-visibility-modifier="PUBLIC_FIELD"><ellipse cx="49.83" cy="539.8116" rx="3" ry="3" fill="none" style="stroke:#038048;stroke-width:1;"/></g><text x="58.83" y="543.1582" fill="#000000" font-size="14" lengthAdjust="spacing" textLength="132.5693" font-family="sans-serif">coolerOn : boolean</text><g data-visibility-modifier="PUBLIC_FIELD"><ellipse cx="49.83" cy="556.1084" rx="3" ry="3" fill="none" style="stroke:#038048;stroke-width:1;"/></g><text x="58.83" y="559.4551" fill="#000000" font-size="14" lengthAdjust="spacing" textLength="124.6055" font-family="sans-serif">relayOn : boolean</text><g data-visibility-modifier="PUBLIC_FIELD"><ellipse cx="49.83" cy="572.4053" rx="3" ry="3" fill="none" style="stroke:#038048;stroke-width:1;"/></g><text x="58.83" y="575.752" fill="#000000" font-size="14" lengthAdjust="spacing" textLength="153.4531" font-family="sans-serif">status : SystemStatus</text><g data-visibility-modifier="PUBLIC_FIELD"><ellipse cx="49.83" cy="588.7022" rx="3" ry="3" fill="none" style="stroke:#038048;stroke-width:1;"/></g><text x="58.83" y="592.0489" fill="#000000" font-size="14" lengthAdjust="spacing" textLength="131.0449" font-family="sans-serif">createdAt : Instant</text><line x1="39.83" y1="599.3506" x2="242.4491" y2="599.3506" style="stroke:#181818;stroke-width:0.5;"/></g><!--class EventAck--><g class="entity" data-qualified-name="EventAck" id="ent0003" data-source-line="32"><rect x="287.28" y="477.7569" width="181.7148" height="88.8594" fill="#E3F2FD" style="stroke:#181818;stroke-width:0.5;" rx="2.5" ry="2.5"/><ellipse cx="302.28" cy="497.8897" rx="11" ry="11" fill="#ADD1B2" style="stroke:#181818;stroke-width:1;"/><path d="M305.2488,503.5303 Q304.6706,503.8272 304.03,503.9678 Q303.3894,504.1241 302.6863,504.1241 Q300.1863,504.1241 298.8581,502.4834 Q297.5456,500.8272 297.5456,497.7022 Q297.5456,494.5772 298.8581,492.9209 Q300.1863,491.2647 302.6863,491.2647 Q303.3894,491.2647 304.03,491.4209 Q304.6863,491.5772 305.2488,491.8741 L305.2488,494.5928 Q304.6238,494.0147 304.03,493.7491 Q303.4363,493.4678 302.8113,493.4678 Q301.4675,493.4678 300.78,494.5459 Q300.0925,495.6084 300.0925,497.7022 Q300.0925,499.7959 300.78,500.8741 Q301.4675,501.9366 302.8113,501.9366 Q303.4363,501.9366 304.03,501.6709 Q304.6238,501.3897 305.2488,500.8116 L305.2488,503.5303 Z " fill="#000000"/><text x="314.28" y="493.8955" fill="#000000" font-size="12" lengthAdjust="spacing" textLength="153.7148" font-style="italic" font-family="sans-serif">«documento event_acks»</text><text x="358.3933" y="509.7207" fill="#000000" font-size="14" lengthAdjust="spacing" textLength="65.4883" font-family="sans-serif">EventAck</text><line x1="288.28" y1="518.0225" x2="467.9948" y2="518.0225" style="stroke:#181818;stroke-width:0.5;"/><g data-visibility-modifier="PUBLIC_FIELD"><ellipse cx="298.28" cy="531.6709" rx="3" ry="3" fill="none" style="stroke:#038048;stroke-width:1;"/></g><text x="307.28" y="535.0176" fill="#000000" font-size="14" lengthAdjust="spacing" textLength="68.1748" font-family="sans-serif">id : String</text><g data-visibility-modifier="PUBLIC_FIELD"><ellipse cx="298.28" cy="547.9678" rx="3" ry="3" fill="none" style="stroke:#038048;stroke-width:1;"/></g><text x="307.28" y="551.3145" fill="#000000" font-size="14" lengthAdjust="spacing" textLength="119.2939" font-family="sans-serif">ackedAt : Instant</text><line x1="288.28" y1="558.6162" x2="467.9948" y2="558.6162" style="stroke:#181818;stroke-width:0.5;"/></g><!--class EventResponse--><g class="entity" data-qualified-name="EventResponse" id="ent0004" data-source-line="37"><rect x="262.82" y="684.3569" width="196.6387" height="154.0469" fill="#FFF3E0" style="stroke:#181818;stroke-width:0.5;" rx="2.5" ry="2.5"/><ellipse cx="295.8446" cy="704.4897" rx="11" ry="11" fill="#ADD1B2" style="stroke:#181818;stroke-width:1;"/><path d="M298.8134,710.1303 Q298.2352,710.4272 297.5946,710.5678 Q296.954,710.7241 296.2509,710.7241 Q293.7509,710.7241 292.4227,709.0834 Q291.1102,707.4272 291.1102,704.3022 Q291.1102,701.1772 292.4227,699.5209 Q293.7509,697.8647 296.2509,697.8647 Q296.954,697.8647 297.5946,698.0209 Q298.2509,698.1772 298.8134,698.4741 L298.8134,701.1928 Q298.1884,700.6147 297.5946,700.3491 Q297.0009,700.0678 296.3759,700.0678 Q295.0321,700.0678 294.3446,701.1459 Q293.6571,702.2084 293.6571,704.3022 Q293.6571,706.3959 294.3446,707.4741 Q295.0321,708.5366 296.3759,708.5366 Q297.0009,708.5366 297.5946,708.2709 Q298.1884,707.9897 298.8134,707.4116 L298.8134,710.1303 Z " fill="#000000"/><text x="311.8501" y="700.4955" fill="#000000" font-size="12" lengthAdjust="spacing" textLength="128.584" font-style="italic" font-family="sans-serif">«DTO no se persiste»</text><text x="322.1553" y="716.3207" fill="#000000" font-size="14" lengthAdjust="spacing" textLength="107.9736" font-family="sans-serif">EventResponse</text><line x1="263.82" y1="724.6225" x2="458.4587" y2="724.6225" style="stroke:#181818;stroke-width:0.5;"/><g data-visibility-modifier="PUBLIC_FIELD"><ellipse cx="273.82" cy="738.2709" rx="3" ry="3" fill="none" style="stroke:#038048;stroke-width:1;"/></g><text x="282.82" y="741.6176" fill="#000000" font-size="14" lengthAdjust="spacing" textLength="68.1748" font-family="sans-serif">id : String</text><g data-visibility-modifier="PUBLIC_FIELD"><ellipse cx="273.82" cy="754.5678" rx="3" ry="3" fill="none" style="stroke:#038048;stroke-width:1;"/></g><text x="282.82" y="757.9145" fill="#000000" font-size="14" lengthAdjust="spacing" textLength="93.9736" font-family="sans-serif">time : Instant</text><g data-visibility-modifier="PUBLIC_FIELD"><ellipse cx="273.82" cy="770.8647" rx="3" ry="3" fill="none" style="stroke:#038048;stroke-width:1;"/></g><text x="282.82" y="774.2114" fill="#000000" font-size="14" lengthAdjust="spacing" textLength="167.7676" font-family="sans-serif">severity : EventSeverity</text><g data-visibility-modifier="PUBLIC_FIELD"><ellipse cx="273.82" cy="787.1616" rx="3" ry="3" fill="none" style="stroke:#038048;stroke-width:1;"/></g><text x="282.82" y="790.5082" fill="#000000" font-size="14" lengthAdjust="spacing" textLength="119.335" font-family="sans-serif">type : EventType</text><g data-visibility-modifier="PUBLIC_FIELD"><ellipse cx="273.82" cy="803.4584" rx="3" ry="3" fill="none" style="stroke:#038048;stroke-width:1;"/></g><text x="282.82" y="806.8051" fill="#000000" font-size="14" lengthAdjust="spacing" textLength="123.9424" font-family="sans-serif">ackable : boolean</text><g data-visibility-modifier="PUBLIC_FIELD"><ellipse cx="273.82" cy="819.7553" rx="3" ry="3" fill="none" style="stroke:#038048;stroke-width:1;"/></g><text x="282.82" y="823.102" fill="#000000" font-size="14" lengthAdjust="spacing" textLength="170.6387" font-family="sans-serif">acknowledged : boolean</text><line x1="263.82" y1="830.4038" x2="458.4587" y2="830.4038" style="stroke:#181818;stroke-width:0.5;"/></g><!--class SystemStatus--><g class="entity" data-qualified-name="SystemStatus" id="ent0005" data-source-line="46"><rect x="53.61" y="704.7869" width="157.0654" height="113.1875" fill="#F1F1F1" style="stroke:#181818;stroke-width:0.5;" rx="2.5" ry="2.5"/><ellipse cx="81.3216" cy="720.7869" rx="11" ry="11" fill="#EB937F" style="stroke:#181818;stroke-width:1;"/><path d="M85.431,726.7869 L77.7122,726.7869 L77.7122,714.3962 L85.431,714.3962 L85.431,716.5525 L80.1654,716.5525 L80.1654,719.2244 L84.931,719.2244 L84.931,721.3806 L80.1654,721.3806 L80.1654,724.6306 L85.431,724.6306 L85.431,726.7869 Z " fill="#000000"/><text x="98.1464" y="725.6336" fill="#000000" font-size="14" lengthAdjust="spacing" textLength="96.8174" font-family="sans-serif">SystemStatus</text><line x1="54.61" y1="736.7869" x2="209.6754" y2="736.7869" style="stroke:#181818;stroke-width:0.5;"/><text x="59.61" y="753.782" fill="#000000" font-size="14" lengthAdjust="spacing" textLength="60.6758" font-family="sans-serif">NORMAL</text><text x="59.61" y="770.0789" fill="#000000" font-size="14" lengthAdjust="spacing" textLength="113.9893" font-family="sans-serif">WARNING_TEMP</text><text x="59.61" y="786.3757" fill="#000000" font-size="14" lengthAdjust="spacing" textLength="145.0654" font-family="sans-serif">WARNING_HUMIDITY</text><text x="59.61" y="802.6726" fill="#000000" font-size="14" lengthAdjust="spacing" textLength="63.4648" font-family="sans-serif">CRITICAL</text><line x1="54.61" y1="809.9744" x2="209.6754" y2="809.9744" style="stroke:#181818;stroke-width:0.5;"/></g><!--class EventType--><g class="entity" data-qualified-name="EventType" id="ent0006" data-source-line="53"><rect x="146.96" y="915.3969" width="200.3574" height="162.0781" fill="#F1F1F1" style="stroke:#181818;stroke-width:0.5;" rx="2.5" ry="2.5"/><ellipse cx="205.667" cy="931.3969" rx="11" ry="11" fill="#EB937F" style="stroke:#181818;stroke-width:1;"/><path d="M209.7764,937.3969 L202.0577,937.3969 L202.0577,925.0062 L209.7764,925.0062 L209.7764,927.1625 L204.5108,927.1625 L204.5108,929.8344 L209.2764,929.8344 L209.2764,931.9906 L204.5108,931.9906 L204.5108,935.2406 L209.7764,935.2406 L209.7764,937.3969 Z " fill="#000000"/><text x="226.167" y="936.2436" fill="#000000" font-size="14" lengthAdjust="spacing" textLength="74.4434" font-family="sans-serif">EventType</text><line x1="147.96" y1="947.3969" x2="346.3174" y2="947.3969" style="stroke:#181818;stroke-width:0.5;"/><text x="152.96" y="964.392" fill="#000000" font-size="14" lengthAdjust="spacing" textLength="157.2813" font-family="sans-serif">TEMP_OUT_OF_RANGE</text><text x="152.96" y="980.6889" fill="#000000" font-size="14" lengthAdjust="spacing" textLength="188.3574" font-family="sans-serif">HUMIDITY_OUT_OF_RANGE</text><text x="152.96" y="996.9857" fill="#000000" font-size="14" lengthAdjust="spacing" textLength="63.4648" font-family="sans-serif">CRITICAL</text><text x="152.96" y="1013.2826" fill="#000000" font-size="14" lengthAdjust="spacing" textLength="151.8193" font-family="sans-serif">RETURN_TO_NORMAL</text><text x="152.96" y="1029.5795" fill="#000000" font-size="14" lengthAdjust="spacing" textLength="86.6797" font-family="sans-serif">COOLER_ON</text><text x="152.96" y="1045.8764" fill="#000000" font-size="14" lengthAdjust="spacing" textLength="92.3125" font-family="sans-serif">COOLER_OFF</text><text x="152.96" y="1062.1732" fill="#000000" font-size="14" lengthAdjust="spacing" textLength="123.2109" font-family="sans-serif">SENSOR_OFFLINE</text><line x1="147.96" y1="1069.475" x2="346.3174" y2="1069.475" style="stroke:#181818;stroke-width:0.5;"/></g><!--class EventSeverity--><g class="entity" data-qualified-name="EventSeverity" id="ent0007" data-source-line="63"><rect x="267.18" y="1154.4769" width="129.9248" height="113.1875" fill="#F1F1F1" style="stroke:#181818;stroke-width:0.5;" rx="2.5" ry="2.5"/><ellipse cx="282.18" cy="1170.4769" rx="11" ry="11" fill="#EB937F" style="stroke:#181818;stroke-width:1;"/><path d="M286.2894,1176.4769 L278.5706,1176.4769 L278.5706,1164.0862 L286.2894,1164.0862 L286.2894,1166.2425 L281.0238,1166.2425 L281.0238,1168.9144 L285.7894,1168.9144 L285.7894,1171.0706 L281.0238,1171.0706 L281.0238,1174.3206 L286.2894,1174.3206 L286.2894,1176.4769 Z " fill="#000000"/><text x="296.18" y="1175.3236" fill="#000000" font-size="14" lengthAdjust="spacing" textLength="97.9248" font-family="sans-serif">EventSeverity</text><line x1="268.18" y1="1186.4769" x2="396.1048" y2="1186.4769" style="stroke:#181818;stroke-width:0.5;"/><text x="273.18" y="1203.472" fill="#000000" font-size="14" lengthAdjust="spacing" textLength="33.6738" font-family="sans-serif">INFO</text><text x="273.18" y="1219.7689" fill="#000000" font-size="14" lengthAdjust="spacing" textLength="65.3037" font-family="sans-serif">SUCCESS</text><text x="273.18" y="1236.0657" fill="#000000" font-size="14" lengthAdjust="spacing" textLength="69.0703" font-family="sans-serif">WARNING</text><text x="273.18" y="1252.3626" fill="#000000" font-size="14" lengthAdjust="spacing" textLength="63.4648" font-family="sans-serif">CRITICAL</text><line x1="268.18" y1="1259.6644" x2="396.1048" y2="1259.6644" style="stroke:#181818;stroke-width:0.5;"/></g><!--link Config to Measurement--><g class="link" data-entity-1="ent0001" data-entity-2="ent0002" id="lnk8" data-source-line="70" data-link-type="dependency"><path d="M141.14,345.0769 C141.14,376.4969 141.14,403.5869 141.14,431.6269" style="stroke:#181818;stroke-width:1;stroke-dasharray:7,7;" fill="none" id="Config-to-Measurement" codeLine="70"/><polygon points="141.14,436.6269,145.14,427.6269,141.14,431.6269,137.14,427.6269,141.14,436.6269" fill="#181818" style="stroke:#181818;stroke-width:1;stroke-linejoin:miter;stroke-miterlimit:10;"/><text x="158.6122" y="388.0738" fill="#000000" font-size="13" lengthAdjust="spacing" textLength="139.3311" font-family="sans-serif">umbrales e histeresis</text><text x="142.14" y="403.2066" fill="#000000" font-size="13" lengthAdjust="spacing" textLength="172.2754" font-family="sans-serif">parametrizan cada lectura</text></g><!--link Measurement to SystemStatus--><g class="link" data-entity-1="ent0002" data-entity-2="ent0005" id="lnk9" data-source-line="71" data-link-type="dependency"><path d="M131.27,607.5869 C130.39,617.6069 129.65,627.6969 129.14,637.3569 C128.74,644.8969 129.03,646.7969 129.14,654.3569 C129.37,670.6469 129.658,683.3489 130.118,699.5389" style="stroke:#181818;stroke-width:1;" fill="none" id="Measurement-to-SystemStatus" codeLine="71"/><polygon points="130.26,704.5369,134.0028,695.4269,130.118,699.5389,126.006,695.6541,130.26,704.5369" fill="#181818" style="stroke:#181818;stroke-width:1;stroke-linejoin:miter;stroke-miterlimit:10;"/><text x="130.14" y="650.4238" fill="#000000" font-size="13" lengthAdjust="spacing" textLength="39.9458" font-family="sans-serif">status</text></g><!--link Measurement to EventResponse--><g class="link" data-entity-1="ent0002" data-entity-2="ent0004" id="lnk10" data-source-line="72" data-link-type="dependency"><path d="M197.06,607.8469 C208.94,623.8569 221.92,640.0569 235.14,654.3569 C244.46,664.4269 251.0252,671.0671 261.5352,680.7071" style="stroke:#181818;stroke-width:1;stroke-dasharray:7,7;" fill="none" id="Measurement-to-EventResponse" codeLine="72"/><polygon points="265.22,684.0869,261.2912,675.0556,261.5352,680.7071,255.8837,680.9512,265.22,684.0869" fill="#181818" style="stroke:#181818;stroke-width:1;stroke-linejoin:miter;stroke-miterlimit:10;"/><text x="236.14" y="650.4238" fill="#000000" font-size="13" lengthAdjust="spacing" textLength="123.7539" font-family="sans-serif">deriva transiciones</text></g><!--link EventAck to EventResponse--><g class="link" data-entity-1="ent0003" data-entity-2="ent0004" id="lnk11" data-source-line="73" data-link-type="dependency"><path d="M375,566.9669 C372.65,599.7569 369.7379,640.4697 366.9579,679.2097" style="stroke:#181818;stroke-width:1;stroke-dasharray:7,7;" fill="none" id="EventAck-to-EventResponse" codeLine="73"/><polygon points="366.6,684.1969,371.2339,675.5063,366.9579,679.2097,363.2544,674.9337,366.6,684.1969" fill="#181818" style="stroke:#181818;stroke-width:1;stroke-linejoin:miter;stroke-miterlimit:10;"/><text x="370.14" y="650.4238" fill="#000000" font-size="13" lengthAdjust="spacing" textLength="101.4609" font-family="sans-serif">reconoce por id</text></g><!--link EventResponse to EventType--><g class="link" data-entity-1="ent0004" data-entity-2="ent0006" id="lnk12" data-source-line="74" data-link-type="dependency"><path d="M323.81,838.6869 C311.86,863.1169 300.7975,885.7456 288.7075,910.4556" style="stroke:#181818;stroke-width:1;" fill="none" id="EventResponse-to-EventType" codeLine="74"/><polygon points="286.51,914.9469,294.0584,908.6206,288.7075,910.4556,286.8724,905.1047,286.51,914.9469" fill="#181818" style="stroke:#181818;stroke-width:1;stroke-linejoin:miter;stroke-miterlimit:10;"/><text x="309.14" y="881.4638" fill="#000000" font-size="13" lengthAdjust="spacing" textLength="29.0405" font-family="sans-serif">type</text></g><!--link EventResponse to EventSeverity--><g class="link" data-entity-1="ent0004" data-entity-2="ent0007" id="lnk13" data-source-line="75" data-link-type="dependency"><path d="M385.76,838.5669 C405.89,913.2469 426.36,1029.3969 395.14,1124.4769 C391.74,1134.8269 389.2373,1140.7177 383.2773,1150.1677" style="stroke:#181818;stroke-width:1;" fill="none" id="EventResponse-to-EventSeverity" codeLine="75"/><polygon points="380.61,1154.3969,388.7944,1148.9182,383.2773,1150.1677,382.0278,1144.6506,380.61,1154.3969" fill="#181818" style="stroke:#181818;stroke-width:1;stroke-linejoin:miter;stroke-miterlimit:10;"/><text x="412.14" y="1001.0038" fill="#000000" font-size="13" lengthAdjust="spacing" textLength="52.2095" font-family="sans-serif">severity</text></g><!--link EventType to EventSeverity--><g class="link" data-entity-1="ent0006" data-entity-2="ent0007" id="lnk14" data-source-line="76" data-link-type="dependency"><path d="M279.27,1077.8269 C289.43,1103.2269 298.5637,1126.0942 307.8837,1149.4042" style="stroke:#181818;stroke-width:1;" fill="none" id="EventType-to-EventSeverity" codeLine="76"/><polygon points="309.74,1154.0469,310.1128,1144.2051,307.8837,1149.4042,302.6846,1147.1751,309.74,1154.0469" fill="#181818" style="stroke:#181818;stroke-width:1;stroke-linejoin:miter;stroke-miterlimit:10;"/><text x="299.14" y="1120.5438" fill="#000000" font-size="13" lengthAdjust="spacing" textLength="87.7881" font-family="sans-serif">severidad fija</text></g><?plantuml-src bLJTRjCm5BxFKno92q2m2R6x2bKgRR95QXAKf498I94NdtLcYLtPJg4W91w29-H9ECwQjAus9kvyllETu-_ysCzX8TXQivO1HwWRPj30YrMoV0b_Vls6Ld5ib7DnPfMP05TrrwAaCsnG6s6iuCgyXaMP4KkBBUCATe2oQyrvO8Lj418_IH2uQmpCbRmHQtZtRim9TG-PwHIUXHVHssW1FmA0LuB310ghXLmxqs9BTpFRQKo412UgksxmrCM-UQxRhXLSsDrfo8YVydV6eaOgiJmaVOHnjS_XkLjaXa9SPR4aufOr1LA5t11DIEiujKPcaR_VfQn5hyZH4xPCDBwh4IxdnWCxWtgs9jn3EMv5ZH5Pg3S4-bvMMx5rrruhrI2JH_VE73EMnZ8I-dCOMN8eoPlRKQd_CRm7n-21jTEbC-bBrDYmtIb8IctdEbkugRH5RpvPKBWboRFwpgi67LYn-kwfMeZopyGvcesI1YcxUnzI0PttpmPTxYYABi8t3_T9z0in97OLaYvztw4-Ux6tU_PkWmDUqdclZb4V_JOHADNN1laQ-P67TBidwpMlbvLcUJ9Rqk7ZB4_ZzB8gm-J3aNcrIk95N7uYQ9x7PJmdyf1iLDDdSe5LjYghBAhoMNeP4ZP4d-9ZAe0yB5TvMfLPDKgPPzaopAiiFJf74Hb5c1PPRopZDFHr3DtgjSHfb3d-QZuFY-9GpaaL-n_g_7pgRVu4klPQiuP-IeHRCNm2d-M6qKUADCBlJ4BDE8C6Qzfq5Xo7dvrD_JvFu7vvFPQxr5-YoVw31QkPDA8MIg89nWr-A42x_qRLj7HAW-21xtT23ZEQW5kYnoZ5OVc6FGmEiO_JEEDm8xwmlm00?></g></svg>