<svg xmlns="http://www.w3.org/2000/svg" xmlns:xlink="http://www.w3.org/1999/xlink" version="1.1" data-diagram-type="CLASS" style="width:489px;height:1288px;background:#FFFFFF;" width="489px" height="1288px" viewBox="0 0 489 1288" zoomAndPan="magnify" preserveAspectRatio="none" contentStyleType="text/css"><?plantuml 1.2026.7beta3?><defs/><g><g class="title" data-source-line="5"><text x="140.9816" y="35.4209" fill="#000000" font-size="22" lengthAdjust="spacing" textLength="205.6377" font-weight="700" font-family="Verdana">Modelo de datos</text></g><!--class Config--><g class="entity" data-qualified-name="Config" id="ent0001" data-source-line="7"><rect x="12" y="58.6094" width="266.2793" height="300.7188" fill="#FFFFFF" style="stroke:#000000;stroke-width:1;" rx="2.5" ry="2.5"/><ellipse cx="78.7109" cy="78.7422" rx="9" ry="9" fill="#FFFFFF" style="stroke:#000000;stroke-width:1;"/><path d="M81.6797,84.3828 Q81.1016,84.6797 80.4609,84.8203 Q79.8203,84.9766 79.1172,84.9766 Q76.6172,84.9766 75.2891,83.3359 Q73.9766,81.6797 73.9766,78.5547 Q73.9766,75.4297 75.2891,73.7734 Q76.6172,72.1172 79.1172,72.1172 Q79.8203,72.1172 80.4609,72.2734 Q81.1172,72.4297 81.6797,72.7266 L81.6797,75.4453 Q81.0547,74.8672 80.4609,74.6016 Q79.8672,74.3203 79.2422,74.3203 Q77.8984,74.3203 77.2109,75.3984 Q76.5234,76.4609 76.5234,78.5547 Q76.5234,80.6484 77.2109,81.7266 Q77.8984,82.7891 79.2422,82.7891 Q79.8672,82.7891 80.4609,82.5234 Q81.0547,82.2422 81.6797,81.6641 L81.6797,84.3828 Z " fill="#000000"/><text x="94.2109" y="74.748" fill="#000000" font-size="12" lengthAdjust="spacing" textLength="129.3574" font-style="italic" font-family="Verdana">«documento configs»</text><text x="136.4302" y="90.5732" fill="#000000" font-size="14" lengthAdjust="spacing" textLength="44.9189" font-family="Verdana">Config</text><line x1="13" y1="98.875" x2="277.2793" y2="98.875" style="stroke:#000000;stroke-width:1;"/><g data-visibility-modifier="PUBLIC_FIELD"><ellipse cx="23" cy="112.5234" rx="3" ry="3" fill="none" style="stroke:#000000;stroke-width:1;"/></g><text x="30" y="115.8701" fill="#000000" font-size="14" lengthAdjust="spacing" textLength="68.1748" font-family="Verdana">id : String</text><g data-visibility-modifier="PUBLIC_FIELD"><ellipse cx="23" cy="128.8203" rx="3" ry="3" fill="none" style="stroke:#000000;stroke-width:1;"/></g><text x="30" y="132.167" fill="#000000" font-size="14" lengthAdjust="spacing" textLength="174.4805" font-family="Verdana">temperatureMin : double</text><g data-visibility-modifier="PUBLIC_FIELD"><ellipse cx="23" cy="145.1172" rx="3" ry="3" fill="none" style="stroke:#000000;stroke-width:1;"/></g><text x="30" y="148.4639" fill="#000000" font-size="14" lengthAdjust="spacing" textLength="178.582" font-family="Verdana">temperatureMax : double</text><g data-visibility-modifier="PUBLIC_FIELD"><ellipse cx="23" cy="161.4141" rx="3" ry="3" fill="none" style="stroke:#000000;stroke-width:1;"/></g><text x="30" y="164.7607" fill="#000000" font-size="14" lengthAdjust="spacing" textLength="147.998" font-family="Verdana">humidityMin : double</text><g data-visibility-modifier="PUBLIC_FIELD"><ellipse cx="23" cy="177.7109" rx="3" ry="3" fill="none" style="stroke:#000000;stroke-width:1;"/></g><text x="30" y="181.0576" fill="#000000" font-size="14" lengthAdjust="spacing" textLength="152.0996" font-family="Verdana">humidityMax : double</text><g data-visibility-modifier="PUBLIC_FIELD"><ellipse cx="23" cy="194.0078" rx="3" ry="3" fill="none" style="stroke:#000000;stroke-width:1;"/></g><text x="30" y="197.3545" fill="#000000" font-size="14" lengthAdjust="spacing" textLength="224.1025" font-family="Verdana">hysteresisTemperature : double</text><g data-visibility-modifier="PUBLIC_FIELD"><ellipse cx="23" cy="210.3047" rx="3" ry="3" fill="none" style="stroke:#000000;stroke-width:1;"/></g><text x="30" y="213.6514" fill="#000000" font-size="14" lengthAdjust="spacing" textLength="196.2119" font-family="Verdana">hysteresisHumidity : double</text><g data-visibility-modifier="PUBLIC_FIELD"><ellipse cx="23" cy="226.6016" rx="3" ry="3" fill="none" style="stroke:#000000;stroke-width:1;"/></g><text x="30" y="229.9482" fill="#000000" font-size="14" lengthAdjust="spacing" textLength="242.2793" font-family="Verdana">measurementIntervalSeconds : int</text><g data-visibility-modifier="PUBLIC_FIELD"><ellipse cx="23" cy="242.8984" rx="3" ry="3" fill="none" style="stroke:#000000;stroke-width:1;"/></g><text x="30" y="246.2451" fill="#000000" font-size="14" lengthAdjust="spacing" textLength="168.2256" font-family="Verdana">createdByName : String</text><g data-visibility-modifier="PUBLIC_FIELD"><ellipse cx="23" cy="259.1953" rx="3" ry="3" fill="none" style="stroke:#000000;stroke-width:1;"/></g><text x="30" y="262.542" fill="#000000" font-size="14" lengthAdjust="spacing" textLength="165.7646" font-family="Verdana">createdByEmail : String</text><g data-visibility-modifier="PUBLIC_FIELD"><ellipse cx="23" cy="275.4922" rx="3" ry="3" fill="none" style="stroke:#000000;stroke-width:1;"/></g><text x="30" y="278.8389" fill="#000000" font-size="14" lengthAdjust="spacing" textLength="106.8662" font-family="Verdana">clientIp : String</text><g data-visibility-modifier="PUBLIC_FIELD"><ellipse cx="23" cy="291.7891" rx="3" ry="3" fill="none" style="stroke:#000000;stroke-width:1;"/></g><text x="30" y="295.1357" fill="#000000" font-size="14" lengthAdjust="spacing" textLength="127.374" font-family="Verdana">userAgent : String</text><g data-visibility-modifier="PUBLIC_FIELD"><ellipse cx="23" cy="308.0859" rx="3" ry="3" fill="none" style="stroke:#000000;stroke-width:1;"/></g><text x="30" y="311.4326" fill="#000000" font-size="14" lengthAdjust="spacing" textLength="178.3496" font-family="Verdana">deviceFingerprint : String</text><g data-visibility-modifier="PUBLIC_FIELD"><ellipse cx="23" cy="324.3828" rx="3" ry="3" fill="none" style="stroke:#000000;stroke-width:1;"/></g><text x="30" y="327.7295" fill="#000000" font-size="14" lengthAdjust="spacing" textLength="112.1436" font-family="Verdana">active : boolean</text><g data-visibility-modifier="PUBLIC_FIELD"><ellipse cx="23" cy="340.6797" rx="3" ry="3" fill="none" style="stroke:#000000;stroke-width:1;"/></g><text x="30" y="344.0264" fill="#000000" font-size="14" lengthAdjust="spacing" textLength="131.0449" font-family="Verdana">createdAt : Instant</text><line x1="13" y1="351.3281" x2="277.2793" y2="351.3281" style="stroke:#000000;stroke-width:1;"/></g><!--class Measurement--><g class="entity" data-qualified-name="Measurement" id="ent0002" data-source-line="25"><rect x="44.83" y="451.3194" width="200.6191" height="170.3438" fill="#FFFFFF" style="stroke:#000000;stroke-width:1;" rx="2.5" ry="2.5"/><ellipse cx="57.83" cy="471.4522" rx="9" ry="9" fill="#FFFFFF" style="stroke:#000000;stroke-width:1;"/><path d="M60.7988,477.0928 Q60.2206,477.3897 59.58,477.5303 Q58.9394,477.6866 58.2363,477.6866 Q55.7363,477.6866 54.4081,476.0459 Q53.0956,474.3897 53.0956,471.2647 Q53.0956,468.1397 54.4081,466.4834 Q55.7363,464.8272 58.2363,464.8272 Q58.9394,464.8272 59.58,464.9834 Q60.2363,465.1397 60.7988,465.4366 L60.7988,468.1553 Q60.1738,467.5772 59.58,467.3116 Q58.9863,467.0303 58.3613,467.0303 Q57.0175,467.0303 56.33,468.1084 Q55.6425,469.1709 55.6425,471.2647 Q55.6425,473.3584 56.33,474.4366 Q57.0175,475.4991 58.3613,475.4991 Q58.9863,475.4991 59.58,475.2334 Q60.1738,474.9522 60.7988,474.3741 L60.7988,477.0928 Z " fill="#000000"/><text x="67.83" y="467.458" fill="#000000" font-size="12" lengthAdjust="spacing" textLength="176.6191" font-style="italic" font-family="Verdana">«documento measurements»</text><text x="107.9291" y="483.2832" fill="#000000" font-size="14" lengthAdjust="spacing" textLength="96.4209" font-family="Verdana">Measurement</text><line x1="45.83" y1="491.585" x2="244.4491" y2="491.585" style="stroke:#000000;stroke-width:1;"/><g data-visibility-modifier="PUBLIC_FIELD"><ellipse cx="55.83" cy="505.2334" rx="3" ry="3" fill="none" style="stroke:#000000;stroke-width:1;"/></g><text x="62.83" y="508.5801" fill="#000000" font-size="14" lengthAdjust="spacing" textLength="68.1748" font-family="Verdana">id : String</text><g data-visibility-modifier="PUBLIC_FIELD"><ellipse cx="55.83" cy="521.5303" rx="3" ry="3" fill="none" style="stroke:#000000;stroke-width:1;"/></g><text x="62.83" y="524.877" fill="#000000" font-size="14" lengthAdjust="spacing" textLength="149.6387" font-family="Verdana">temperature : double</text><g data-visibility-modifier="PUBLIC_FIELD"><ellipse cx="55.83" cy="537.8272" rx="3" ry="3" fill="none" style="stroke:#000000;stroke-width:1;"/></g><text x="62.83" y="541.1739" fill="#000000" font-size="14" lengthAdjust="spacing" textLength="123.1563" font-family="Verdana">humidity : double</text><g data-visibility-modifier="PUBLIC_FIELD"><ellipse cx="55.83" cy="554.1241" rx="3" ry="3" fill="none" style="stroke:#000000;stroke-width:1;"/></g><text x="62.83" y="557.4707" fill="#000000" font-size="14" lengthAdjust="spacing" textLength="132.5693" font-family="Verdana">coolerOn : boolean</text><g data-visibility-modifier="PUBLIC_FIELD"><ellipse cx="55.83" cy="570.4209" rx="3" ry="3" fill="none" style="stroke:#000000;stroke-width:1;"/></g><text x="62.83" y="573.7676" fill="#000000" font-size="14" lengthAdjust="spacing" textLength="124.6055" font-family="Verdana">relayOn : boolean</text><g data-visibility-modifier="PUBLIC_FIELD"><ellipse cx="55.83" cy="586.7178" rx="3" ry="3" fill="none" style="stroke:#000000;stroke-width:1;"/></g><text x="62.83" y="590.0645" fill="#000000" font-size="14" lengthAdjust="spacing" textLength="153.4531" font-family="Verdana">status : SystemStatus</text><g data-visibility-modifier="PUBLIC_FIELD"><ellipse cx="55.83" cy="603.0147" rx="3" ry="3" fill="none" style="stroke:#000000;stroke-width:1;"/></g><text x="62.83" y="606.3614" fill="#000000" font-size="14" lengthAdjust="spacing" textLength="131.0449" font-family="Verdana">createdAt : Instant</text><line x1="45.83" y1="613.6631" x2="244.4491" y2="613.6631" style="stroke:#000000;stroke-width:1;"/></g><!--class EventAck--><g class="entity" data-qualified-name="EventAck" id="ent0003" data-source-line="35"><rect x="291.28" y="492.0694" width="177.7148" height="88.8594" fill="#FFFFFF" style="stroke:#000000;stroke-width:1;" rx="2.5" ry="2.5"/><ellipse cx="304.28" cy="512.2022" rx="9" ry="9" fill="#FFFFFF" style="stroke:#000000;stroke-width:1;"/><path d="M307.2488,517.8428 Q306.6706,518.1397 306.03,518.2803 Q305.3894,518.4366 304.6863,518.4366 Q302.1863,518.4366 300.8581,516.7959 Q299.5456,515.1397 299.5456,512.0147 Q299.5456,508.8897 300.8581,507.2334 Q302.1863,505.5772 304.6863,505.5772 Q305.3894,505.5772 306.03,505.7334 Q306.6863,505.8897 307.2488,506.1866 L307.2488,508.9053 Q306.6238,508.3272 306.03,508.0616 Q305.4363,507.7803 304.8113,507.7803 Q303.4675,507.7803 302.78,508.8584 Q302.0925,509.9209 302.0925,512.0147 Q302.0925,514.1084 302.78,515.1866 Q303.4675,516.2491 304.8113,516.2491 Q305.4363,516.2491 306.03,515.9834 Q306.6238,515.7022 307.2488,515.1241 L307.2488,517.8428 Z " fill="#000000"/><text x="314.28" y="508.208" fill="#000000" font-size="12" lengthAdjust="spacing" textLength="153.7148" font-style="italic" font-family="Verdana">«documento event_acks»</text><text x="358.3933" y="524.0332" fill="#000000" font-size="14" lengthAdjust="spacing" textLength="65.4883" font-family="Verdana">EventAck</text><line x1="292.28" y1="532.335" x2="467.9948" y2="532.335" style="stroke:#000000;stroke-width:1;"/><g data-visibility-modifier="PUBLIC_FIELD"><ellipse cx="302.28" cy="545.9834" rx="3" ry="3" fill="none" style="stroke:#000000;stroke-width:1;"/></g><text x="309.28" y="549.3301" fill="#000000" font-size="14" lengthAdjust="spacing" textLength="68.1748" font-family="Verdana">id : String</text><g data-visibility-modifier="PUBLIC_FIELD"><ellipse cx="302.28" cy="562.2803" rx="3" ry="3" fill="none" style="stroke:#000000;stroke-width:1;"/></g><text x="309.28" y="565.627" fill="#000000" font-size="14" lengthAdjust="spacing" textLength="119.2939" font-family="Verdana">ackedAt : Instant</text><line x1="292.28" y1="572.9287" x2="467.9948" y2="572.9287" style="stroke:#000000;stroke-width:1;"/></g><!--class EventResponse--><g class="entity" data-qualified-name="EventResponse" id="ent0004" data-source-line="40"><rect x="264.82" y="698.6694" width="194.6387" height="154.0469" fill="#FFFFFF" style="stroke:#000000;stroke-width:1;" rx="2.5" ry="2.5"/><ellipse cx="296.7446" cy="718.8022" rx="9" ry="9" fill="#FFFFFF" style="stroke:#000000;stroke-width:1;"/><path d="M299.7134,724.4428 Q299.1352,724.7397 298.4946,724.8803 Q297.854,725.0366 297.1509,725.0366 Q294.6509,725.0366 293.3227,723.3959 Q292.0102,721.7397 292.0102,718.6147 Q292.0102,715.4897 293.3227,713.8334 Q294.6509,712.1772 297.1509,712.1772 Q297.854,712.1772 298.4946,712.3334 Q299.1509,712.4897 299.7134,712.7866 L299.7134,715.5053 Q299.0884,714.9272 298.4946,714.6616 Q297.9009,714.3803 297.2759,714.3803 Q295.9321,714.3803 295.2446,715.4584 Q294.5571,716.5209 294.5571,718.6147 Q294.5571,720.7084 295.2446,721.7866 Q295.9321,722.8491 297.2759,722.8491 Q297.9009,722.8491 298.4946,722.5834 Q299.0884,722.3022 299.7134,721.7241 L299.7134,724.4428 Z " fill="#000000"/><text x="310.9501" y="714.808" fill="#000000" font-size="12" lengthAdjust="spacing" textLength="128.584" font-style="italic" font-family="Verdana">«DTO no se persiste»</text><text x="321.2553" y="730.6332" fill="#000000" font-size="14" lengthAdjust="spacing" textLength="107.9736" font-family="Verdana">EventResponse</text><line x1="265.82" y1="738.935" x2="458.4587" y2="738.935" style="stroke:#000000;stroke-width:1;"/><g data-visibility-modifier="PUBLIC_FIELD"><ellipse cx="275.82" cy="752.5834" rx="3" ry="3" fill="none" style="stroke:#000000;stroke-width:1;"/></g><text x="282.82" y="755.9301" fill="#000000" font-size="14" lengthAdjust="spacing" textLength="68.1748" font-family="Verdana">id : String</text><g data-visibility-modifier="PUBLIC_FIELD"><ellipse cx="275.82" cy="768.8803" rx="3" ry="3" fill="none" style="stroke:#000000;stroke-width:1;"/></g><text x="282.82" y="772.227" fill="#000000" font-size="14" lengthAdjust="spacing" textLength="93.9736" font-family="Verdana">time : Instant</text><g data-visibility-modifier="PUBLIC_FIELD"><ellipse cx="275.82" cy="785.1772" rx="3" ry="3" fill="none" style="stroke:#000000;stroke-width:1;"/></g><text x="282.82" y="788.5239" fill="#000000" font-size="14" lengthAdjust="spacing" textLength="167.7676" font-family="Verdana">severity : EventSeverity</text><g data-visibility-modifier="PUBLIC_FIELD"><ellipse cx="275.82" cy="801.4741" rx="3" ry="3" fill="none" style="stroke:#000000;stroke-width:1;"/></g><text x="282.82" y="804.8207" fill="#000000" font-size="14" lengthAdjust="spacing" textLength="119.335" font-family="Verdana">type : EventType</text><g data-visibility-modifier="PUBLIC_FIELD"><ellipse cx="275.82" cy="817.7709" rx="3" ry="3" fill="none" style="stroke:#000000;stroke-width:1;"/></g><text x="282.82" y="821.1176" fill="#000000" font-size="14" lengthAdjust="spacing" textLength="123.9424" font-family="Verdana">ackable : boolean</text><g data-visibility-modifier="PUBLIC_FIELD"><ellipse cx="275.82" cy="834.0678" rx="3" ry="3" fill="none" style="stroke:#000000;stroke-width:1;"/></g><text x="282.82" y="837.4145" fill="#000000" font-size="14" lengthAdjust="spacing" textLength="170.6387" font-family="Verdana">acknowledged : boolean</text><line x1="265.82" y1="844.7163" x2="458.4587" y2="844.7163" style="stroke:#000000;stroke-width:1;"/></g><!--class SystemStatus--><g class="entity" data-qualified-name="SystemStatus" id="ent0005" data-source-line="49"><rect x="55.61" y="721.0994" width="157.0654" height="109.1875" fill="#FFFFFF" style="stroke:#000000;stroke-width:1;" rx="2.5" ry="2.5"/><ellipse cx="83.1216" cy="735.0994" rx="9" ry="9" fill="#FFFFFF" style="stroke:#000000;stroke-width:1;"/><path d="M87.231,741.0994 L79.5122,741.0994 L79.5122,728.7087 L87.231,728.7087 L87.231,730.865 L81.9654,730.865 L81.9654,733.5369 L86.731,733.5369 L86.731,735.6931 L81.9654,735.6931 L81.9654,738.9431 L87.231,738.9431 L87.231,741.0994 Z " fill="#000000"/><text x="98.3464" y="739.9461" fill="#000000" font-size="14" lengthAdjust="spacing" textLength="96.8174" font-family="Verdana">SystemStatus</text><line x1="56.61" y1="749.0994" x2="211.6754" y2="749.0994" style="stroke:#000000;stroke-width:1;"/><text x="61.61" y="766.0945" fill="#000000" font-size="14" lengthAdjust="spacing" textLength="60.6758" font-family="Verdana">NORMAL</text><text x="61.61" y="782.3914" fill="#000000" font-size="14" lengthAdjust="spacing" textLength="113.9893" font-family="Verdana">WARNING_TEMP</text><text x="61.61" y="798.6882" fill="#000000" font-size="14" lengthAdjust="spacing" textLength="145.0654" font-family="Verdana">WARNING_HUMIDITY</text><text x="61.61" y="814.9851" fill="#000000" font-size="14" lengthAdjust="spacing" textLength="63.4648" font-family="Verdana">CRITICAL</text><line x1="56.61" y1="822.2869" x2="211.6754" y2="822.2869" style="stroke:#000000;stroke-width:1;"/></g><!--class EventType--><g class="entity" data-qualified-name="EventType" id="ent0006" data-source-line="56"><rect x="147.96" y="929.7094" width="200.3574" height="158.0781" fill="#FFFFFF" style="stroke:#000000;stroke-width:1;" rx="2.5" ry="2.5"/><ellipse cx="207.167" cy="943.7094" rx="9" ry="9" fill="#FFFFFF" style="stroke:#000000;stroke-width:1;"/><path d="M211.2764,949.7094 L203.5577,949.7094 L203.5577,937.3187 L211.2764,937.3187 L211.2764,939.475 L206.0108,939.475 L206.0108,942.1469 L210.7764,942.1469 L210.7764,944.3031 L206.0108,944.3031 L206.0108,947.5531 L211.2764,947.5531 L211.2764,949.7094 Z " fill="#000000"/><text x="224.667" y="948.5561" fill="#000000" font-size="14" lengthAdjust="spacing" textLength="74.4434" font-family="Verdana">EventType</text><line x1="148.96" y1="957.7094" x2="347.3174" y2="957.7094" style="stroke:#000000;stroke-width:1;"/><text x="153.96" y="974.7045" fill="#000000" font-size="14" lengthAdjust="spacing" textLength="157.2813" font-family="Verdana">TEMP_OUT_OF_RANGE</text><text x="153.96" y="991.0014" fill="#000000" font-size="14" lengthAdjust="spacing" textLength="188.3574" font-family="Verdana">HUMIDITY_OUT_OF_RANGE</text><text x="153.96" y="1007.2982" fill="#000000" font-size="14" lengthAdjust="spacing" textLength="63.4648" font-family="Verdana">CRITICAL</text><text x="153.96" y="1023.5951" fill="#000000" font-size="14" lengthAdjust="spacing" textLength="151.8193" font-family="Verdana">RETURN_TO_NORMAL</text><text x="153.96" y="1039.892" fill="#000000" font-size="14" lengthAdjust="spacing" textLength="86.6797" font-family="Verdana">COOLER_ON</text><text x="153.96" y="1056.1889" fill="#000000" font-size="14" lengthAdjust="spacing" textLength="92.3125" font-family="Verdana">COOLER_OFF</text><text x="153.96" y="1072.4857" fill="#000000" font-size="14" lengthAdjust="spacing" textLength="123.2109" font-family="Verdana">SENSOR_OFFLINE</text><line x1="148.96" y1="1079.7875" x2="347.3174" y2="1079.7875" style="stroke:#000000;stroke-width:1;"/></g><!--class EventSeverity--><g class="entity" data-qualified-name="EventSeverity" id="ent0007" data-source-line="66"><rect x="270.18" y="1164.7894" width="125.9248" height="109.1875" fill="#FFFFFF" style="stroke:#000000;stroke-width:1;" rx="2.5" ry="2.5"/><ellipse cx="283.18" cy="1178.7894" rx="9" ry="9" fill="#FFFFFF" style="stroke:#000000;stroke-width:1;"/><path d="M287.2894,1184.7894 L279.5706,1184.7894 L279.5706,1172.3987 L287.2894,1172.3987 L287.2894,1174.555 L282.0238,1174.555 L282.0238,1177.2269 L286.7894,1177.2269 L286.7894,1179.3831 L282.0238,1179.3831 L282.0238,1182.6331 L287.2894,1182.6331 L287.2894,1184.7894 Z " fill="#000000"/><text x="295.18" y="1183.6361" fill="#000000" font-size="14" lengthAdjust="spacing" textLength="97.9248" font-family="Verdana">EventSeverity</text><line x1="271.18" y1="1192.7894" x2="395.1048" y2="1192.7894" style="stroke:#000000;stroke-width:1;"/><text x="276.18" y="1209.7845" fill="#000000" font-size="14" lengthAdjust="spacing" textLength="33.6738" font-family="Verdana">INFO</text><text x="276.18" y="1226.0814" fill="#000000" font-size="14" lengthAdjust="spacing" textLength="65.3037" font-family="Verdana">SUCCESS</text><text x="276.18" y="1242.3782" fill="#000000" font-size="14" lengthAdjust="spacing" textLength="69.0703" font-family="Verdana">WARNING</text><text x="276.18" y="1258.6751" fill="#000000" font-size="14" lengthAdjust="spacing" textLength="63.4648" font-family="Verdana">CRITICAL</text><line x1="271.18" y1="1265.9769" x2="395.1048" y2="1265.9769" style="stroke:#000000;stroke-width:1;"/></g><!--link Config to Measurement--><g class="link" data-entity-1="ent0001" data-entity-2="ent0002" id="lnk8" data-source-line="73" data-link-type="dependency"><path d="M145.14,359.3894 C145.14,390.8094 145.14,417.8994 145.14,445.9394" style="stroke:#000000;stroke-width:1;stroke-dasharray:7,7;" fill="none" id="Config-to-Measurement" codeLine="73"/><polygon points="145.14,450.9394,149.14,441.9394,145.14,445.9394,141.14,441.9394,145.14,450.9394" fill="#000000" style="stroke:#000000;stroke-width:1;stroke-linejoin:miter;stroke-miterlimit:10;"/><text x="162.6122" y="402.3863" fill="#000000" font-size="13" lengthAdjust="spacing" textLength="139.3311" font-family="Verdana">umbrales e histeresis</text><text x="146.14" y="417.5191" fill="#000000" font-size="13" lengthAdjust="spacing" textLength="172.2754" font-family="Verdana">parametrizan cada lectura</text></g><!--link Measurement to SystemStatus--><g class="link" data-entity-1="ent0002" data-entity-2="ent0005" id="lnk9" data-source-line="74" data-link-type="dependency"><path d="M133.62,621.8694 C132.6,631.8994 131.73,641.9994 131.14,651.6694 C130.68,659.2094 131.03,661.1094 131.14,668.6694 C131.38,685.6094 131.6834,699.0615 132.1734,715.7615" style="stroke:#000000;stroke-width:1;" fill="none" id="Measurement-to-SystemStatus" codeLine="74"/><polygon points="132.32,720.7594,136.0543,711.6459,132.1734,715.7615,128.0578,711.8806,132.32,720.7594" fill="#000000" style="stroke:#000000;stroke-width:1;stroke-linejoin:miter;stroke-miterlimit:10;"/><text x="132.14" y="664.7363" fill="#000000" font-size="13" lengthAdjust="spacing" textLength="39.9458" font-family="Verdana">status</text></g><!--link Measurement to EventResponse--><g class="link" data-entity-1="ent0002" data-entity-2="ent0004" id="lnk10" data-source-line="75" data-link-type="dependency"><path d="M199.48,621.8294 C211.19,637.9594 224.02,654.2794 237.14,668.6694 C246.34,678.7594 252.8215,685.392 263.2415,695.042" style="stroke:#000000;stroke-width:1;stroke-dasharray:7,7;" fill="none" id="Measurement-to-EventResponse" codeLine="75"/><polygon points="266.91,698.4394,263.0247,689.3893,263.2415,695.042,257.5888,695.2589,266.91,698.4394" fill="#000000" style="stroke:#000000;stroke-width:1;stroke-linejoin:miter;stroke-miterlimit:10;"/><text x="238.14" y="664.7363" fill="#000000" font-size="13" lengthAdjust="spacing" textLength="123.7539" font-family="Verdana">deriva transiciones</text></g><!--link EventAck to EventResponse--><g class="link" data-entity-1="ent0003" data-entity-2="ent0004" id="lnk11" data-source-line="76" data-link-type="dependency"><path d="M376.82,581.2794 C374.33,614.0694 371.2384,654.7837 368.2984,693.5237" style="stroke:#000000;stroke-width:1;stroke-dasharray:7,7;" fill="none" id="EventAck-to-EventResponse" codeLine="76"/><polygon points="367.92,698.5094,372.5896,689.8379,368.2984,693.5237,364.6125,689.2325,367.92,698.5094" fill="#000000" style="stroke:#000000;stroke-width:1;stroke-linejoin:miter;stroke-miterlimit:10;"/><text x="372.14" y="664.7363" fill="#000000" font-size="13" lengthAdjust="spacing" textLength="101.4609" font-family="Verdana">reconoce por id</text></g><!--link EventResponse to EventType--><g class="link" data-entity-1="ent0004" data-entity-2="ent0006" id="lnk12" data-source-line="77" data-link-type="dependency"><path d="M324.5,852.9894 C312.37,877.5694 301.1214,900.355 288.9314,925.075" style="stroke:#000000;stroke-width:1;" fill="none" id="EventResponse-to-EventType" codeLine="77"/><polygon points="286.72,929.5594,294.288,923.2565,288.9314,925.075,287.1129,919.7184,286.72,929.5594" fill="#000000" style="stroke:#000000;stroke-width:1;stroke-linejoin:miter;stroke-miterlimit:10;"/><text x="310.14" y="895.7763" fill="#000000" font-size="13" lengthAdjust="spacing" textLength="29.0405" font-family="Verdana">type</text></g><!--link EventResponse to EventSeverity--><g class="link" data-entity-1="ent0004" data-entity-2="ent0007" id="lnk13" data-source-line="78" data-link-type="dependency"><path d="M387.13,853.1594 C407.23,927.1094 427.4,1041.3694 396.14,1134.7894 C392.68,1145.1294 390.0996,1151.0237 384.0196,1160.4037" style="stroke:#000000;stroke-width:1;" fill="none" id="EventResponse-to-EventSeverity" codeLine="78"/><polygon points="381.3,1164.5994,389.5518,1159.2228,384.0196,1160.4037,382.8387,1154.8715,381.3,1164.5994" fill="#000000" style="stroke:#000000;stroke-width:1;stroke-linejoin:miter;stroke-miterlimit:10;"/><text x="413.14" y="1013.3163" fill="#000000" font-size="13" lengthAdjust="spacing" textLength="52.2095" font-family="Verdana">severity</text></g><!--link EventType to EventSeverity--><g class="link" data-entity-1="ent0006" data-entity-2="ent0007" id="lnk14" data-source-line="79" data-link-type="dependency"><path d="M280.03,1088.0294 C290.4,1113.4694 299.7739,1136.4888 309.2439,1159.7388" style="stroke:#000000;stroke-width:1;" fill="none" id="EventType-to-EventSeverity" codeLine="79"/><polygon points="311.13,1164.3694,311.4395,1154.5254,309.2439,1159.7388,304.0305,1157.5431,311.13,1164.3694" fill="#000000" style="stroke:#000000;stroke-width:1;stroke-linejoin:miter;stroke-miterlimit:10;"/><text x="300.14" y="1130.8563" fill="#000000" font-size="13" lengthAdjust="spacing" textLength="87.7881" font-family="Verdana">severidad fija</text></g><?plantuml-src ZLHjZjCm4FsVKmpY1o3OFK2rgbIwwMwaDa59AeI45BdnR6lMiIlRwL8G4eVWX9o4STgqTRK5yij-ysRyvYFpmgsmGLXB9bHa7uLQCyCQMB3wSMbqg_XOIstWvQJxJXXsnRX-4ce93qnQZ5x1hM1BiZ3W2BLa5Ysydi-cR-3tpr_GQ8vIUnDdJji1S5st3IewmngD5TO9hkqxk2qpOXcneV2m1LHjOwyZ9vn4c8L1eiW_Os6irODOmitD8IRK7MI7G_WU0RmL70PGE4Do_TLXGsyorngS2GLUJBkGU6vYNmFJgcq45svxxdB0p_bRwz0WfLOUWrvWtEzZ1EO6cIKNdr6YYBXXia3AZ5kY2UKyfpR87FBtsvGr62HviCGD4p8qIU5ZhWEmjMX6Iy83bED6r3YX6verWQ6LrKvi_BCBhIKoTVBko3CJPHqZeJ_wLisEAGNzEadrFvhsRFa3iFPwJAP2QGObsvw3fD2rlgA5xqPJTDT_9X9lIEgeVWooG0zMzEjSoe5CVmsOerrhPP6Y-lz0QQ3p_lV0ItKHNUFxW3uZqc5s5UcY5ljxnzwkiSTBEkzLCQfRM1O2bNwIo9V8Jooar_-IGR4wMMcMpqPJEdmSvMcItbLbFFjmShsVpvBRfFn4q3XFocHCv3xOGKqNoJjMsRoiiacLZzAxcB3U-nm_X0B8utAUfrMPLGSfuooRndcLfITdMc80HPmMMNUP9caSwkYhrMb9qadc-VFnE2wAOpfdMUmtqFNrC9Zm0RJDmZ19cn1X9VgV_VDkXIAry1jJK3FEG69DaysYK_Uhgs5Ovm7iXZLW-KV3uHdi5oWumvGLjT0ARNIOsESSZDyhkgPXesKlU1JQlP1ZZmRWX-WIfJWENp-7qT7tCeqp3W_Y2_i3?></g></svg>