<svg xmlns="http://www.w3.org/2000/svg" xmlns:xlink="http://www.w3.org/1999/xlink" version="1.1" data-diagram-type="DESCRIPTION" style="width:970px;height:595px;background:#FFFFFF;" width="970px" height="595px" viewBox="0 0 970 595" zoomAndPan="magnify" preserveAspectRatio="none" contentStyleType="text/css"><?plantuml 1.2026.7beta3?><defs/><g><!--cluster web--><g class="cluster" data-qualified-name="web" id="ent0001" data-source-line="5"><path d="M8.5,144 L41.9502,144 A3.75,3.75 0 0 1 44.4502,146.5 L51.4502,166.2969 L241.09,166.2969 A2.5,2.5 0 0 1 243.59,168.7969 L243.59,400.5 A2.5,2.5 0 0 1 241.09,403 L8.5,403 A2.5,2.5 0 0 1 6,400.5 L6,146.5 A2.5,2.5 0 0 1 8.5,144" style="stroke:#000000;stroke-width:1.5;" fill="none"/><line x1="6" y1="166.2969" x2="51.4502" y2="166.2969" style="stroke:#000000;stroke-width:1.5;"/><text x="10" y="158.9951" fill="#000000" font-size="14" lengthAdjust="spacing" textLength="32.4502" font-weight="700" font-family="sans-serif">web</text></g><!--cluster service--><g class="cluster" data-qualified-name="service" id="ent0005" data-source-line="10"><path d="M274.09,103 L331.5412,103 A3.75,3.75 0 0 1 334.0412,105.5 L341.0412,125.2969 L540.22,125.2969 A2.5,2.5 0 0 1 542.72,127.7969 L542.72,440.5 A2.5,2.5 0 0 1 540.22,443 L274.09,443 A2.5,2.5 0 0 1 271.59,440.5 L271.59,105.5 A2.5,2.5 0 0 1 274.09,103" style="stroke:#000000;stroke-width:1.5;" fill="none"/><line x1="271.59" y1="125.2969" x2="341.0412" y2="125.2969" style="stroke:#000000;stroke-width:1.5;"/><text x="275.59" y="117.9951" fill="#000000" font-size="14" lengthAdjust="spacing" textLength="56.4512" font-weight="700" font-family="sans-serif">service</text></g><!--cluster repository\n(Spring Data Mongo)--><g class="cluster" data-qualified-name="repository.n.Spring Data Mongo." id="ent0010" data-source-line="16"><path d="M573.22,6 L738.9251,6 A3.75,3.75 0 0 1 741.4251,8.5 L748.4251,44.5938 L811.71,44.5938 A2.5,2.5 0 0 1 814.21,47.0938 L814.21,278.5 A2.5,2.5 0 0 1 811.71,281 L573.22,281 A2.5,2.5 0 0 1 570.72,278.5 L570.72,8.5 A2.5,2.5 0 0 1 573.22,6" style="stroke:#000000;stroke-width:1.5;" fill="none"/><line x1="570.72" y1="44.5938" x2="748.4251" y2="44.5938" style="stroke:#000000;stroke-width:1.5;"/><text x="616.3167" y="20.9951" fill="#000000" font-size="14" lengthAdjust="spacing" textLength="81.5117" font-weight="700" font-family="sans-serif">repository</text><text x="574.72" y="37.292" fill="#000000" font-size="14" lengthAdjust="spacing" textLength="164.7051" font-weight="700" font-family="sans-serif">(Spring Data Mongo)</text></g><!--cluster domain\n(entities + enums)--><g class="cluster" data-qualified-name="domain.n.entities . enums." id="ent0014" data-source-line="21"><path d="M610.75,305 L758.6475,305 A3.75,3.75 0 0 1 761.1475,307.5 L768.1475,343.5938 L774.17,343.5938 A2.5,2.5 0 0 1 776.67,346.0938 L776.67,577.5 A2.5,2.5 0 0 1 774.17,580 L610.75,580 A2.5,2.5 0 0 1 608.25,577.5 L608.25,307.5 A2.5,2.5 0 0 1 610.75,305" style="stroke:#000000;stroke-width:1.5;" fill="none"/><line x1="608.25" y1="343.5938" x2="768.1475" y2="343.5938" style="stroke:#000000;stroke-width:1.5;"/><text x="656.4785" y="319.9951" fill="#000000" font-size="14" lengthAdjust="spacing" textLength="58.4404" font-weight="700" font-family="sans-serif">domain</text><text x="612.25" y="336.292" fill="#000000" font-size="14" lengthAdjust="spacing" textLength="146.8975" font-weight="700" font-family="sans-serif">(entities + enums)</text></g><!--entity CC--><g class="entity" data-qualified-name="web.CC" id="ent0002" data-source-line="6"><rect x="47.75" y="340.85" width="154.0918" height="46.2969" fill="#F1F1F1" style="stroke:#181818;stroke-width:0.5;" rx="2.5" ry="2.5"/><rect x="181.8418" y="345.85" width="15" height="10" fill="#F1F1F1" style="stroke:#181818;stroke-width:0.5;"/><rect x="179.8418" y="347.85" width="4" height="2" fill="#F1F1F1" style="stroke:#181818;stroke-width:0.5;"/><rect x="179.8418" y="351.85" width="4" height="2" fill="#F1F1F1" style="stroke:#181818;stroke-width:0.5;"/><text x="62.75" y="373.8451" fill="#000000" font-size="14" lengthAdjust="spacing" textLength="114.0918" font-family="sans-serif">ConfigController</text></g><!--entity MC--><g class="entity" data-qualified-name="web.MC" id="ent0003" data-source-line="7"><rect x="22" y="259.85" width="205.5938" height="46.2969" fill="#F1F1F1" style="stroke:#181818;stroke-width:0.5;" rx="2.5" ry="2.5"/><rect x="207.5938" y="264.85" width="15" height="10" fill="#F1F1F1" style="stroke:#181818;stroke-width:0.5;"/><rect x="205.5938" y="266.85" width="4" height="2" fill="#F1F1F1" style="stroke:#181818;stroke-width:0.5;"/><rect x="205.5938" y="270.85" width="4" height="2" fill="#F1F1F1" style="stroke:#181818;stroke-width:0.5;"/><text x="37" y="292.8451" fill="#000000" font-size="14" lengthAdjust="spacing" textLength="165.5938" font-family="sans-serif">MeasurementController</text></g><!--entity EC--><g class="entity" data-qualified-name="web.EC" id="ent0004" data-source-line="8"><rect x="50.16" y="178.85" width="149.2793" height="46.2969" fill="#F1F1F1" style="stroke:#181818;stroke-width:0.5;" rx="2.5" ry="2.5"/><rect x="179.4393" y="183.85" width="15" height="10" fill="#F1F1F1" style="stroke:#181818;stroke-width:0.5;"/><rect x="177.4393" y="185.85" width="4" height="2" fill="#F1F1F1" style="stroke:#181818;stroke-width:0.5;"/><rect x="177.4393" y="189.85" width="4" height="2" fill="#F1F1F1" style="stroke:#181818;stroke-width:0.5;"/><text x="65.16" y="211.8451" fill="#000000" font-size="14" lengthAdjust="spacing" textLength="109.2793" font-family="sans-serif">EventController</text></g><!--entity CS--><g class="entity" data-qualified-name="service.CS" id="ent0006" data-source-line="11"><rect x="338.83" y="380.85" width="136.6602" height="46.2969" fill="#F1F1F1" style="stroke:#181818;stroke-width:0.5;" rx="2.5" ry="2.5"/><rect x="455.4902" y="385.85" width="15" height="10" fill="#F1F1F1" style="stroke:#181818;stroke-width:0.5;"/><rect x="453.4902" y="387.85" width="4" height="2" fill="#F1F1F1" style="stroke:#181818;stroke-width:0.5;"/><rect x="453.4902" y="391.85" width="4" height="2" fill="#F1F1F1" style="stroke:#181818;stroke-width:0.5;"/><text x="353.83" y="413.8451" fill="#000000" font-size="14" lengthAdjust="spacing" textLength="96.6602" font-family="sans-serif">ConfigService</text></g><!--entity MS--><g class="entity" data-qualified-name="service.MS" id="ent0007" data-source-line="12"><rect x="313.07" y="299.85" width="188.1621" height="46.2969" fill="#F1F1F1" style="stroke:#181818;stroke-width:0.5;" rx="2.5" ry="2.5"/><rect x="481.2321" y="304.85" width="15" height="10" fill="#F1F1F1" style="stroke:#181818;stroke-width:0.5;"/><rect x="479.2321" y="306.85" width="4" height="2" fill="#F1F1F1" style="stroke:#181818;stroke-width:0.5;"/><rect x="479.2321" y="310.85" width="4" height="2" fill="#F1F1F1" style="stroke:#181818;stroke-width:0.5;"/><text x="328.07" y="332.8451" fill="#000000" font-size="14" lengthAdjust="spacing" textLength="148.1621" font-family="sans-serif">MeasurementService</text></g><!--entity ES--><g class="entity" data-qualified-name="service.ES" id="ent0008" data-source-line="13"><rect x="341.23" y="137.85" width="131.8477" height="46.2969" fill="#F1F1F1" style="stroke:#181818;stroke-width:0.5;" rx="2.5" ry="2.5"/><rect x="453.0777" y="142.85" width="15" height="10" fill="#F1F1F1" style="stroke:#181818;stroke-width:0.5;"/><rect x="451.0777" y="144.85" width="4" height="2" fill="#F1F1F1" style="stroke:#181818;stroke-width:0.5;"/><rect x="451.0777" y="148.85" width="4" height="2" fill="#F1F1F1" style="stroke:#181818;stroke-width:0.5;"/><text x="356.23" y="170.8451" fill="#000000" font-size="14" lengthAdjust="spacing" textLength="91.8477" font-family="sans-serif">EventService</text></g><!--entity SS--><g class="entity" data-qualified-name="service.SS" id="ent0009" data-source-line="14"><rect x="287.59" y="218.85" width="239.124" height="46.2969" fill="#F1F1F1" style="stroke:#181818;stroke-width:0.5;" rx="2.5" ry="2.5"/><rect x="506.714" y="223.85" width="15" height="10" fill="#F1F1F1" style="stroke:#181818;stroke-width:0.5;"/><rect x="504.714" y="225.85" width="4" height="2" fill="#F1F1F1" style="stroke:#181818;stroke-width:0.5;"/><rect x="504.714" y="229.85" width="4" height="2" fill="#F1F1F1" style="stroke:#181818;stroke-width:0.5;"/><text x="302.59" y="251.8451" fill="#000000" font-size="14" lengthAdjust="spacing" textLength="199.124" font-family="sans-serif">MeasurementStreamService</text></g><!--entity CR--><g class="entity" data-qualified-name="repository.n.Spring Data Mongo..CR" id="ent0011" data-source-line="17"><rect x="612.47" y="218.85" width="159.9912" height="46.2969" fill="#F1F1F1" style="stroke:#181818;stroke-width:0.5;" rx="2.5" ry="2.5"/><rect x="752.4612" y="223.85" width="15" height="10" fill="#F1F1F1" style="stroke:#181818;stroke-width:0.5;"/><rect x="750.4612" y="225.85" width="4" height="2" fill="#F1F1F1" style="stroke:#181818;stroke-width:0.5;"/><rect x="750.4612" y="229.85" width="4" height="2" fill="#F1F1F1" style="stroke:#181818;stroke-width:0.5;"/><text x="627.47" y="251.8451" fill="#000000" font-size="14" lengthAdjust="spacing" textLength="119.9912" font-family="sans-serif">ConfigRepository</text></g><!--entity MR--><g class="entity" data-qualified-name="repository.n.Spring Data Mongo..MR" id="ent0012" data-source-line="18"><rect x="586.72" y="137.85" width="211.4932" height="46.2969" fill="#F1F1F1" style="stroke:#181818;stroke-width:0.5;" rx="2.5" ry="2.5"/><rect x="778.2132" y="142.85" width="15" height="10" fill="#F1F1F1" style="stroke:#181818;stroke-width:0.5;"/><rect x="776.2132" y="144.85" width="4" height="2" fill="#F1F1F1" style="stroke:#181818;stroke-width:0.5;"/><rect x="776.2132" y="148.85" width="4" height="2" fill="#F1F1F1" style="stroke:#181818;stroke-width:0.5;"/><text x="601.72" y="170.8451" fill="#000000" font-size="14" lengthAdjust="spacing" textLength="171.4932" font-family="sans-serif">MeasurementRepository</text></g><!--entity AR--><g class="entity" data-qualified-name="repository.n.Spring Data Mongo..AR" id="ent0013" data-source-line="19"><rect x="602.18" y="56.85" width="180.5605" height="46.2969" fill="#F1F1F1" style="stroke:#181818;stroke-width:0.5;" rx="2.5" ry="2.5"/><rect x="762.7405" y="61.85" width="15" height="10" fill="#F1F1F1" style="stroke:#181818;stroke-width:0.5;"/><rect x="760.7405" y="63.85" width="4" height="2" fill="#F1F1F1" style="stroke:#181818;stroke-width:0.5;"/><rect x="760.7405" y="67.85" width="4" height="2" fill="#F1F1F1" style="stroke:#181818;stroke-width:0.5;"/><text x="617.18" y="89.8451" fill="#000000" font-size="14" lengthAdjust="spacing" textLength="140.5605" font-family="sans-serif">EventAckRepository</text></g><!--entity Cf--><g class="entity" data-qualified-name="domain.n.entities . enums..Cf" id="ent0015" data-source-line="22"><rect x="650" y="517.85" width="84.9189" height="46.2969" fill="#F1F1F1" style="stroke:#181818;stroke-width:0.5;" rx="2.5" ry="2.5"/><rect x="714.9189" y="522.85" width="15" height="10" fill="#F1F1F1" style="stroke:#181818;stroke-width:0.5;"/><rect x="712.9189" y="524.85" width="4" height="2" fill="#F1F1F1" style="stroke:#181818;stroke-width:0.5;"/><rect x="712.9189" y="528.85" width="4" height="2" fill="#F1F1F1" style="stroke:#181818;stroke-width:0.5;"/><text x="665" y="550.8451" fill="#000000" font-size="14" lengthAdjust="spacing" textLength="44.9189" font-family="sans-serif">Config</text></g><!--entity Me--><g class="entity" data-qualified-name="domain.n.entities . enums..Me" id="ent0016" data-source-line="23"><rect x="624.25" y="436.85" width="136.4209" height="46.2969" fill="#F1F1F1" style="stroke:#181818;stroke-width:0.5;" rx="2.5" ry="2.5"/><rect x="740.6709" y="441.85" width="15" height="10" fill="#F1F1F1" style="stroke:#181818;stroke-width:0.5;"/><rect x="738.6709" y="443.85" width="4" height="2" fill="#F1F1F1" style="stroke:#181818;stroke-width:0.5;"/><rect x="738.6709" y="447.85" width="4" height="2" fill="#F1F1F1" style="stroke:#181818;stroke-width:0.5;"/><text x="639.25" y="469.8451" fill="#000000" font-size="14" lengthAdjust="spacing" textLength="96.4209" font-family="sans-serif">Measurement</text></g><!--entity Ea--><g class="entity" data-qualified-name="domain.n.entities . enums..Ea" id="ent0017" data-source-line="24"><rect x="639.72" y="355.85" width="105.4883" height="46.2969" fill="#F1F1F1" style="stroke:#181818;stroke-width:0.5;" rx="2.5" ry="2.5"/><rect x="725.2083" y="360.85" width="15" height="10" fill="#F1F1F1" style="stroke:#181818;stroke-width:0.5;"/><rect x="723.2083" y="362.85" width="4" height="2" fill="#F1F1F1" style="stroke:#181818;stroke-width:0.5;"/><rect x="723.2083" y="366.85" width="4" height="2" fill="#F1F1F1" style="stroke:#181818;stroke-width:0.5;"/><text x="654.72" y="388.8451" fill="#000000" font-size="14" lengthAdjust="spacing" textLength="65.4883" font-family="sans-serif">EventAck</text></g><!--entity DB--><g class="entity" data-qualified-name="DB" id="ent0018" data-source-line="26"><path d="M858.21,148.35 C858.21,138.35 901.8872,138.35 901.8872,138.35 C901.8872,138.35 945.5645,138.35 945.5645,148.35 L945.5645,173.6469 C945.5645,183.6469 901.8872,183.6469 901.8872,183.6469 C901.8872,183.6469 858.21,183.6469 858.21,173.6469 L858.21,148.35" style="stroke:#181818;stroke-width:0.5;" fill="#F1F1F1"/><path d="M858.21,148.35 C858.21,158.35 901.8872,158.35 901.8872,158.35 C901.8872,158.35 945.5645,158.35 945.5645,148.35" style="stroke:#181818;stroke-width:0.5;" fill="none"/><text x="868.21" y="175.3451" fill="#000000" font-size="14" lengthAdjust="spacing" textLength="67.3545" font-family="sans-serif">MongoDB</text></g><!--link CC to CS--><g class="link" data-entity-1="ent0002" data-entity-2="ent0006" id="lnk19" data-source-line="28" data-link-type="dependency"><path d="M202.04,374.88 C244.68,380.96 292.4201,387.7742 333.5901,393.6442" style="stroke:#181818;stroke-width:1;" fill="none" id="CC-to-CS"/><polygon points="338.54,394.35,330.1947,389.1197,333.5901,393.6442,329.0655,397.0396,338.54,394.35" fill="#181818" style="stroke:#181818;stroke-width:1;stroke-linejoin:miter;stroke-miterlimit:10;"/></g><!--link MC to MS--><g class="link" data-entity-1="ent0003" data-entity-2="ent0007" id="lnk20" data-source-line="29" data-link-type="dependency"><path d="M227.81,297.55 C255.52,301.51 280.43,305.0644 307.65,308.9444" style="stroke:#181818;stroke-width:1;" fill="none" id="MC-to-MS"/><polygon points="312.6,309.65,304.2545,304.42,307.65,308.9444,303.1256,312.3399,312.6,309.65" fill="#181818" style="stroke:#181818;stroke-width:1;stroke-linejoin:miter;stroke-miterlimit:10;"/></g><!--link MC to SS--><g class="link" data-entity-1="ent0003" data-entity-2="ent0009" id="lnk21" data-source-line="30" data-link-type="dependency"><path d="M227.81,268.08 C247.22,265.24 262.7427,262.9742 282.6227,260.0642" style="stroke:#181818;stroke-width:1;" fill="none" id="MC-to-SS"/><polygon points="287.57,259.34,278.0856,256.6857,282.6227,260.0642,279.2442,264.6013,287.57,259.34" fill="#181818" style="stroke:#181818;stroke-width:1;stroke-linejoin:miter;stroke-miterlimit:10;"/></g><!--link EC to ES--><g class="link" data-entity-1="ent0004" data-entity-2="ent0008" id="lnk22" data-source-line="31" data-link-type="dependency"><path d="M199.82,191.17 C243.63,184.77 293.6626,177.4535 335.8526,171.2835" style="stroke:#181818;stroke-width:1;" fill="none" id="EC-to-ES"/><polygon points="340.8,170.56,331.3159,167.9044,335.8526,171.2835,332.4735,175.8202,340.8,170.56" fill="#181818" style="stroke:#181818;stroke-width:1;stroke-linejoin:miter;stroke-miterlimit:10;"/></g><!--link CS to CR--><g class="link" data-entity-1="ent0006" data-entity-2="ent0011" id="lnk23" data-source-line="32" data-link-type="dependency"><path d="M475.63,396.85 C501.39,391.28 529.61,381.43 550.72,364 C559.91,356.41 555.11,349.18 562.72,340 C587.81,309.72 619.7555,285.956 647.3655,268.186" style="stroke:#181818;stroke-width:1;" fill="none" id="CS-to-CR"/><polygon points="651.57,265.48,641.8372,266.9873,647.3655,268.186,646.1668,273.7144,651.57,265.48" fill="#181818" style="stroke:#181818;stroke-width:1;stroke-linejoin:miter;stroke-miterlimit:10;"/></g><!--link MS to MR--><g class="link" data-entity-1="ent0007" data-entity-2="ent0012" id="lnk24" data-source-line="33" data-link-type="dependency"><path d="M501.72,313.12 C520.25,307.03 537.9,297.57 550.72,283 C575.04,255.34 538.78,228.99 562.72,201 C569.33,193.26 573.0803,189.4833 581.9403,184.4133" style="stroke:#181818;stroke-width:1;" fill="none" id="MS-to-MR"/><polygon points="586.28,181.93,576.4819,182.9282,581.9403,184.4133,580.4552,189.8718,586.28,181.93" fill="#181818" style="stroke:#181818;stroke-width:1;stroke-linejoin:miter;stroke-miterlimit:10;"/></g><!--link ES to MR--><g class="link" data-entity-1="ent0008" data-entity-2="ent0012" id="lnk25" data-source-line="34" data-link-type="dependency"><path d="M473.51,161 C507.01,161 543.62,161 581.48,161" style="stroke:#181818;stroke-width:1;" fill="none" id="ES-to-MR"/><polygon points="586.48,161,577.48,157,581.48,161,577.48,165,586.48,161" fill="#181818" style="stroke:#181818;stroke-width:1;stroke-linejoin:miter;stroke-miterlimit:10;"/></g><!--link ES to AR--><g class="link" data-entity-1="ent0008" data-entity-2="ent0013" id="lnk26" data-source-line="35" data-link-type="dependency"><path d="M473.51,142.32 C513.79,130.8 560.9927,117.3046 604.1127,104.9746" style="stroke:#181818;stroke-width:1;" fill="none" id="ES-to-AR"/><polygon points="608.92,103.6,599.1671,102.2285,604.1127,104.9746,601.3665,109.9202,608.92,103.6" fill="#181818" style="stroke:#181818;stroke-width:1;stroke-linejoin:miter;stroke-miterlimit:10;"/></g><!--link CR to DB--><g class="link" data-entity-1="ent0011" data-entity-2="ent0018" id="lnk27" data-source-line="36" data-link-type="dependency"><path d="M772.9,219.77 C789.39,214.48 806.52,208.46 822.21,202 C834.74,196.84 843.5302,192.6988 855.4702,186.4488" style="stroke:#181818;stroke-width:1;" fill="none" id="CR-to-DB"/><polygon points="859.9,184.13,850.0713,184.76,855.4702,186.4488,853.7814,191.8477,859.9,184.13" fill="#181818" style="stroke:#181818;stroke-width:1;stroke-linejoin:miter;stroke-miterlimit:10;"/></g><!--link MR to DB--><g class="link" data-entity-1="ent0012" data-entity-2="ent0018" id="lnk28" data-source-line="37" data-link-type="dependency"><path d="M798.7,161 C819.75,161 835.73,161 853.15,161" style="stroke:#181818;stroke-width:1;" fill="none" id="MR-to-DB"/><polygon points="858.15,161,849.15,157,853.15,161,849.15,165,858.15,161" fill="#181818" style="stroke:#181818;stroke-width:1;stroke-linejoin:miter;stroke-miterlimit:10;"/></g><!--link AR to DB--><g class="link" data-entity-1="ent0013" data-entity-2="ent0018" id="lnk29" data-source-line="38" data-link-type="dependency"><path d="M777,103.56 C792.22,108.52 807.82,114.07 822.21,120 C834.74,125.16 843.5302,129.3012 855.4702,135.5512" style="stroke:#181818;stroke-width:1;" fill="none" id="AR-to-DB"/><polygon points="859.9,137.87,853.7814,130.1523,855.4702,135.5512,850.0713,137.24,859.9,137.87" fill="#181818" style="stroke:#181818;stroke-width:1;stroke-linejoin:miter;stroke-miterlimit:10;"/></g><!--link CS to Cf--><g class="link" data-entity-1="ent0006" data-entity-2="ent0015" id="lnk30" data-source-line="39" data-link-type="dependency"><path d="M440.22,427.6 C470.55,449.06 517.96,480.43 562.72,501 C590.68,513.85 619.0603,522.7661 644.7403,529.6461" style="stroke:#181818;stroke-width:1;stroke-dasharray:7,7;" fill="none" id="CS-to-Cf"/><polygon points="649.57,530.94,641.9117,524.7472,644.7403,529.6461,639.8414,532.4747,649.57,530.94" fill="#181818" style="stroke:#181818;stroke-width:1;stroke-linejoin:miter;stroke-miterlimit:10;"/></g><!--link MS to Me--><g class="link" data-entity-1="ent0007" data-entity-2="ent0016" id="lnk31" data-source-line="40" data-link-type="dependency"><path d="M501.42,333.6 C519.85,339.66 537.54,348.92 550.72,363 C568.41,381.9 545.29,400.86 562.72,420 C578.47,437.31 596.7217,445.9776 619.0117,451.5976" style="stroke:#181818;stroke-width:1;stroke-dasharray:7,7;" fill="none" id="MS-to-Me"/><polygon points="623.86,452.82,616.111,446.7411,619.0117,451.5976,614.1552,454.4983,623.86,452.82" fill="#181818" style="stroke:#181818;stroke-width:1;stroke-linejoin:miter;stroke-miterlimit:10;"/></g><!--link ES to Ea--><g class="link" data-entity-1="ent0008" data-entity-2="ent0017" id="lnk32" data-source-line="41" data-link-type="dependency"><path d="M473.55,164.05 C501.2,168.78 531.41,179.12 550.72,201 C574.51,227.96 544.4,250.06 562.72,281 C581.89,313.39 611.9655,336.1761 640.3755,352.9661" style="stroke:#181818;stroke-width:1;stroke-dasharray:7,7;" fill="none" id="ES-to-Ea"/><polygon points="644.68,355.51,638.9671,347.4874,640.3755,352.9661,634.8968,354.3746,644.68,355.51" fill="#181818" style="stroke:#181818;stroke-width:1;stroke-linejoin:miter;stroke-miterlimit:10;"/></g><?plantuml-src PP91JiCm44NtFiMe6rgXTi41AhLfTdYJY1Mmc3hJO3MnZUqKLGY9Gt12JiAabj8qRAAl-UDvVqQvWvt6scEBK14espfho4GAC7-IZmlu_Vu1zE-TZgHYvn6SzQ3GOU1c0vr12BRXnzgJKffBFAOYHwOYepI6bGX7RHmouZg-ZEU6e6kR1z7G8KAqu7Nz5jEOo6E4SAYEM1FCFcW_Wqy1y9nPSz0rVwEtJKF-5JX6blMM90oTfvQ7JtnvyVFJVoVFnDSL4yYVjA8RL9bgYLDEE6DJbWDaNCx_lOcUi1stbEKuX2TdWuxMdr_Cl7HUcnfs616aDRLTt8GhXjwKhvYm9huiXeWRTPoOcsASeh8jQiC9k5T7pJ_3FP3fsd0R864F4so2qHYMRe6Cg7YNFGPcN1RQRMUzjTiAaMMmNAxxAykavA3uH7bIVC-iJ7s5a4dnNlbKyJfPSL4yMWvgCoYUibgj-_0oAGwS9vNZ7m00?></g></svg>