<svg xmlns="http://www.w3.org/2000/svg" xmlns:xlink="http://www.w3.org/1999/xlink" version="1.1" data-diagram-type="DESCRIPTION" style="width:975px;height:600px;background:#FFFFFF;" width="975px" height="600px" viewBox="0 0 975 600" zoomAndPan="magnify" preserveAspectRatio="none" contentStyleType="text/css"><?plantuml 1.2026.7beta3?><defs/><g><!--cluster web--><g class="cluster" data-qualified-name="web" id="ent0001" data-source-line="8"><path d="M13.5,149 L46.9502,149 A3.75,3.75 0 0 1 49.4502,151.5 L56.4502,171.2969 L246.09,171.2969 A2.5,2.5 0 0 1 248.59,173.7969 L248.59,405.5 A2.5,2.5 0 0 1 246.09,408 L13.5,408 A2.5,2.5 0 0 1 11,405.5 L11,151.5 A2.5,2.5 0 0 1 13.5,149" style="stroke:#000000;stroke-width:1;" fill="#FFFFFF"/><line x1="11" y1="171.2969" x2="56.4502" y2="171.2969" style="stroke:#000000;stroke-width:1;"/><text x="15" y="163.9951" fill="#000000" font-size="14" lengthAdjust="spacing" textLength="32.4502" font-weight="700" font-family="Verdana">web</text></g><!--cluster service--><g class="cluster" data-qualified-name="service" id="ent0005" data-source-line="13"><path d="M279.09,108 L336.5412,108 A3.75,3.75 0 0 1 339.0412,110.5 L346.0412,130.2969 L545.22,130.2969 A2.5,2.5 0 0 1 547.72,132.7969 L547.72,445.5 A2.5,2.5 0 0 1 545.22,448 L279.09,448 A2.5,2.5 0 0 1 276.59,445.5 L276.59,110.5 A2.5,2.5 0 0 1 279.09,108" style="stroke:#000000;stroke-width:1;" fill="#FFFFFF"/><line x1="276.59" y1="130.2969" x2="346.0412" y2="130.2969" style="stroke:#000000;stroke-width:1;"/><text x="280.59" y="122.9951" fill="#000000" font-size="14" lengthAdjust="spacing" textLength="56.4512" font-weight="700" font-family="Verdana">service</text></g><!--cluster repository\n(Spring Data Mongo)--><g class="cluster" data-qualified-name="repository.n.Spring Data Mongo." id="ent0010" data-source-line="19"><path d="M578.22,11 L743.9251,11 A3.75,3.75 0 0 1 746.4251,13.5 L753.4251,49.5938 L816.71,49.5938 A2.5,2.5 0 0 1 819.21,52.0938 L819.21,283.5 A2.5,2.5 0 0 1 816.71,286 L578.22,286 A2.5,2.5 0 0 1 575.72,283.5 L575.72,13.5 A2.5,2.5 0 0 1 578.22,11" style="stroke:#000000;stroke-width:1;" fill="#FFFFFF"/><line x1="575.72" y1="49.5938" x2="753.4251" y2="49.5938" style="stroke:#000000;stroke-width:1;"/><text x="621.3167" y="25.9951" fill="#000000" font-size="14" lengthAdjust="spacing" textLength="81.5117" font-weight="700" font-family="Verdana">repository</text><text x="579.72" y="42.292" fill="#000000" font-size="14" lengthAdjust="spacing" textLength="164.7051" font-weight="700" font-family="Verdana">(Spring Data Mongo)</text></g><!--cluster domain\n(entities + enums)--><g class="cluster" data-qualified-name="domain.n.entities . enums." id="ent0014" data-source-line="24"><path d="M615.75,310 L763.6475,310 A3.75,3.75 0 0 1 766.1475,312.5 L773.1475,348.5938 L779.17,348.5938 A2.5,2.5 0 0 1 781.67,351.0938 L781.67,582.5 A2.5,2.5 0 0 1 779.17,585 L615.75,585 A2.5,2.5 0 0 1 613.25,582.5 L613.25,312.5 A2.5,2.5 0 0 1 615.75,310" style="stroke:#000000;stroke-width:1;" fill="#FFFFFF"/><line x1="613.25" y1="348.5938" x2="773.1475" y2="348.5938" style="stroke:#000000;stroke-width:1;"/><text x="661.4785" y="324.9951" fill="#000000" font-size="14" lengthAdjust="spacing" textLength="58.4404" font-weight="700" font-family="Verdana">domain</text><text x="617.25" y="341.292" fill="#000000" font-size="14" lengthAdjust="spacing" textLength="146.8975" font-weight="700" font-family="Verdana">(entities + enums)</text></g><!--entity CC--><g class="entity" data-qualified-name="web.CC" id="ent0002" data-source-line="9"><rect x="52.75" y="345.85" width="154.0918" height="46.2969" fill="#FFFFFF" style="stroke:#000000;stroke-width:1;" rx="2.5" ry="2.5"/><rect x="186.8418" y="350.85" width="15" height="10" fill="#FFFFFF" style="stroke:#000000;stroke-width:1;"/><rect x="184.8418" y="352.85" width="4" height="2" fill="#FFFFFF" style="stroke:#000000;stroke-width:1;"/><rect x="184.8418" y="356.85" width="4" height="2" fill="#FFFFFF" style="stroke:#000000;stroke-width:1;"/><text x="67.75" y="378.8451" fill="#000000" font-size="14" lengthAdjust="spacing" textLength="114.0918" font-family="Verdana">ConfigController</text></g><!--entity MC--><g class="entity" data-qualified-name="web.MC" id="ent0003" data-source-line="10"><rect x="27" y="264.85" width="205.5938" height="46.2969" fill="#FFFFFF" style="stroke:#000000;stroke-width:1;" rx="2.5" ry="2.5"/><rect x="212.5938" y="269.85" width="15" height="10" fill="#FFFFFF" style="stroke:#000000;stroke-width:1;"/><rect x="210.5938" y="271.85" width="4" height="2" fill="#FFFFFF" style="stroke:#000000;stroke-width:1;"/><rect x="210.5938" y="275.85" width="4" height="2" fill="#FFFFFF" style="stroke:#000000;stroke-width:1;"/><text x="42" y="297.8451" fill="#000000" font-size="14" lengthAdjust="spacing" textLength="165.5938" font-family="Verdana">MeasurementController</text></g><!--entity EC--><g class="entity" data-qualified-name="web.EC" id="ent0004" data-source-line="11"><rect x="55.16" y="183.85" width="149.2793" height="46.2969" fill="#FFFFFF" style="stroke:#000000;stroke-width:1;" rx="2.5" ry="2.5"/><rect x="184.4393" y="188.85" width="15" height="10" fill="#FFFFFF" style="stroke:#000000;stroke-width:1;"/><rect x="182.4393" y="190.85" width="4" height="2" fill="#FFFFFF" style="stroke:#000000;stroke-width:1;"/><rect x="182.4393" y="194.85" width="4" height="2" fill="#FFFFFF" style="stroke:#000000;stroke-width:1;"/><text x="70.16" y="216.8451" fill="#000000" font-size="14" lengthAdjust="spacing" textLength="109.2793" font-family="Verdana">EventController</text></g><!--entity CS--><g class="entity" data-qualified-name="service.CS" id="ent0006" data-source-line="14"><rect x="343.83" y="385.85" width="136.6602" height="46.2969" fill="#FFFFFF" style="stroke:#000000;stroke-width:1;" rx="2.5" ry="2.5"/><rect x="460.4902" y="390.85" width="15" height="10" fill="#FFFFFF" style="stroke:#000000;stroke-width:1;"/><rect x="458.4902" y="392.85" width="4" height="2" fill="#FFFFFF" style="stroke:#000000;stroke-width:1;"/><rect x="458.4902" y="396.85" width="4" height="2" fill="#FFFFFF" style="stroke:#000000;stroke-width:1;"/><text x="358.83" y="418.8451" fill="#000000" font-size="14" lengthAdjust="spacing" textLength="96.6602" font-family="Verdana">ConfigService</text></g><!--entity MS--><g class="entity" data-qualified-name="service.MS" id="ent0007" data-source-line="15"><rect x="318.07" y="304.85" width="188.1621" height="46.2969" fill="#FFFFFF" style="stroke:#000000;stroke-width:1;" rx="2.5" ry="2.5"/><rect x="486.2321" y="309.85" width="15" height="10" fill="#FFFFFF" style="stroke:#000000;stroke-width:1;"/><rect x="484.2321" y="311.85" width="4" height="2" fill="#FFFFFF" style="stroke:#000000;stroke-width:1;"/><rect x="484.2321" y="315.85" width="4" height="2" fill="#FFFFFF" style="stroke:#000000;stroke-width:1;"/><text x="333.07" y="337.8451" fill="#000000" font-size="14" lengthAdjust="spacing" textLength="148.1621" font-family="Verdana">MeasurementService</text></g><!--entity ES--><g class="entity" data-qualified-name="service.ES" id="ent0008" data-source-line="16"><rect x="346.23" y="142.85" width="131.8477" height="46.2969" fill="#FFFFFF" style="stroke:#000000;stroke-width:1;" rx="2.5" ry="2.5"/><rect x="458.0777" y="147.85" width="15" height="10" fill="#FFFFFF" style="stroke:#000000;stroke-width:1;"/><rect x="456.0777" y="149.85" width="4" height="2" fill="#FFFFFF" style="stroke:#000000;stroke-width:1;"/><rect x="456.0777" y="153.85" width="4" height="2" fill="#FFFFFF" style="stroke:#000000;stroke-width:1;"/><text x="361.23" y="175.8451" fill="#000000" font-size="14" lengthAdjust="spacing" textLength="91.8477" font-family="Verdana">EventService</text></g><!--entity SS--><g class="entity" data-qualified-name="service.SS" id="ent0009" data-source-line="17"><rect x="292.59" y="223.85" width="239.124" height="46.2969" fill="#FFFFFF" style="stroke:#000000;stroke-width:1;" rx="2.5" ry="2.5"/><rect x="511.714" y="228.85" width="15" height="10" fill="#FFFFFF" style="stroke:#000000;stroke-width:1;"/><rect x="509.714" y="230.85" width="4" height="2" fill="#FFFFFF" style="stroke:#000000;stroke-width:1;"/><rect x="509.714" y="234.85" width="4" height="2" fill="#FFFFFF" style="stroke:#000000;stroke-width:1;"/><text x="307.59" y="256.8451" fill="#000000" font-size="14" lengthAdjust="spacing" textLength="199.124" font-family="Verdana">MeasurementStreamService</text></g><!--entity CR--><g class="entity" data-qualified-name="repository.n.Spring Data Mongo..CR" id="ent0011" data-source-line="20"><rect x="617.47" y="223.85" width="159.9912" height="46.2969" fill="#FFFFFF" style="stroke:#000000;stroke-width:1;" rx="2.5" ry="2.5"/><rect x="757.4612" y="228.85" width="15" height="10" fill="#FFFFFF" style="stroke:#000000;stroke-width:1;"/><rect x="755.4612" y="230.85" width="4" height="2" fill="#FFFFFF" style="stroke:#000000;stroke-width:1;"/><rect x="755.4612" y="234.85" width="4" height="2" fill="#FFFFFF" style="stroke:#000000;stroke-width:1;"/><text x="632.47" y="256.8451" fill="#000000" font-size="14" lengthAdjust="spacing" textLength="119.9912" font-family="Verdana">ConfigRepository</text></g><!--entity MR--><g class="entity" data-qualified-name="repository.n.Spring Data Mongo..MR" id="ent0012" data-source-line="21"><rect x="591.72" y="142.85" width="211.4932" height="46.2969" fill="#FFFFFF" style="stroke:#000000;stroke-width:1;" rx="2.5" ry="2.5"/><rect x="783.2132" y="147.85" width="15" height="10" fill="#FFFFFF" style="stroke:#000000;stroke-width:1;"/><rect x="781.2132" y="149.85" width="4" height="2" fill="#FFFFFF" style="stroke:#000000;stroke-width:1;"/><rect x="781.2132" y="153.85" width="4" height="2" fill="#FFFFFF" style="stroke:#000000;stroke-width:1;"/><text x="606.72" y="175.8451" fill="#000000" font-size="14" lengthAdjust="spacing" textLength="171.4932" font-family="Verdana">MeasurementRepository</text></g><!--entity AR--><g class="entity" data-qualified-name="repository.n.Spring Data Mongo..AR" id="ent0013" data-source-line="22"><rect x="607.18" y="61.85" width="180.5605" height="46.2969" fill="#FFFFFF" style="stroke:#000000;stroke-width:1;" rx="2.5" ry="2.5"/><rect x="767.7405" y="66.85" width="15" height="10" fill="#FFFFFF" style="stroke:#000000;stroke-width:1;"/><rect x="765.7405" y="68.85" width="4" height="2" fill="#FFFFFF" style="stroke:#000000;stroke-width:1;"/><rect x="765.7405" y="72.85" width="4" height="2" fill="#FFFFFF" style="stroke:#000000;stroke-width:1;"/><text x="622.18" y="94.8451" fill="#000000" font-size="14" lengthAdjust="spacing" textLength="140.5605" font-family="Verdana">EventAckRepository</text></g><!--entity Cf--><g class="entity" data-qualified-name="domain.n.entities . enums..Cf" id="ent0015" data-source-line="25"><rect x="655" y="522.85" width="84.9189" height="46.2969" fill="#FFFFFF" style="stroke:#000000;stroke-width:1;" rx="2.5" ry="2.5"/><rect x="719.9189" y="527.85" width="15" height="10" fill="#FFFFFF" style="stroke:#000000;stroke-width:1;"/><rect x="717.9189" y="529.85" width="4" height="2" fill="#FFFFFF" style="stroke:#000000;stroke-width:1;"/><rect x="717.9189" y="533.85" width="4" height="2" fill="#FFFFFF" style="stroke:#000000;stroke-width:1;"/><text x="670" y="555.8451" fill="#000000" font-size="14" lengthAdjust="spacing" textLength="44.9189" font-family="Verdana">Config</text></g><!--entity Me--><g class="entity" data-qualified-name="domain.n.entities . enums..Me" id="ent0016" data-source-line="26"><rect x="629.25" y="441.85" width="136.4209" height="46.2969" fill="#FFFFFF" style="stroke:#000000;stroke-width:1;" rx="2.5" ry="2.5"/><rect x="745.6709" y="446.85" width="15" height="10" fill="#FFFFFF" style="stroke:#000000;stroke-width:1;"/><rect x="743.6709" y="448.85" width="4" height="2" fill="#FFFFFF" style="stroke:#000000;stroke-width:1;"/><rect x="743.6709" y="452.85" width="4" height="2" fill="#FFFFFF" style="stroke:#000000;stroke-width:1;"/><text x="644.25" y="474.8451" fill="#000000" font-size="14" lengthAdjust="spacing" textLength="96.4209" font-family="Verdana">Measurement</text></g><!--entity Ea--><g class="entity" data-qualified-name="domain.n.entities . enums..Ea" id="ent0017" data-source-line="27"><rect x="644.72" y="360.85" width="105.4883" height="46.2969" fill="#FFFFFF" style="stroke:#000000;stroke-width:1;" rx="2.5" ry="2.5"/><rect x="730.2083" y="365.85" width="15" height="10" fill="#FFFFFF" style="stroke:#000000;stroke-width:1;"/><rect x="728.2083" y="367.85" width="4" height="2" fill="#FFFFFF" style="stroke:#000000;stroke-width:1;"/><rect x="728.2083" y="371.85" width="4" height="2" fill="#FFFFFF" style="stroke:#000000;stroke-width:1;"/><text x="659.72" y="393.8451" fill="#000000" font-size="14" lengthAdjust="spacing" textLength="65.4883" font-family="Verdana">EventAck</text></g><!--entity DB--><g class="entity" data-qualified-name="DB" id="ent0018" data-source-line="29"><path d="M863.21,153.35 C863.21,143.35 906.8872,143.35 906.8872,143.35 C906.8872,143.35 950.5645,143.35 950.5645,153.35 L950.5645,178.6469 C950.5645,188.6469 906.8872,188.6469 906.8872,188.6469 C906.8872,188.6469 863.21,188.6469 863.21,178.6469 L863.21,153.35" style="stroke:#000000;stroke-width:1;" fill="#FFFFFF"/><path d="M863.21,153.35 C863.21,163.35 906.8872,163.35 906.8872,163.35 C906.8872,163.35 950.5645,163.35 950.5645,153.35" style="stroke:#000000;stroke-width:1;" fill="none"/><text x="873.21" y="180.3451" fill="#000000" font-size="14" lengthAdjust="spacing" textLength="67.3545" font-family="Verdana">MongoDB</text></g><!--link CC to CS--><g class="link" data-entity-1="ent0002" data-entity-2="ent0006" id="lnk19" data-source-line="31" data-link-type="dependency"><path d="M207.04,379.88 C249.68,385.96 297.4201,392.7742 338.5901,398.6442" style="stroke:#000000;stroke-width:1;" fill="none" id="CC-to-CS"/><polygon points="343.54,399.35,335.1947,394.1197,338.5901,398.6442,334.0655,402.0396,343.54,399.35" fill="#000000" style="stroke:#000000;stroke-width:1;stroke-linejoin:miter;stroke-miterlimit:10;"/></g><!--link MC to MS--><g class="link" data-entity-1="ent0003" data-entity-2="ent0007" id="lnk20" data-source-line="32" data-link-type="dependency"><path d="M232.81,302.55 C260.52,306.51 285.43,310.0644 312.65,313.9444" style="stroke:#000000;stroke-width:1;" fill="none" id="MC-to-MS"/><polygon points="317.6,314.65,309.2545,309.42,312.65,313.9444,308.1256,317.3399,317.6,314.65" fill="#000000" style="stroke:#000000;stroke-width:1;stroke-linejoin:miter;stroke-miterlimit:10;"/></g><!--link MC to SS--><g class="link" data-entity-1="ent0003" data-entity-2="ent0009" id="lnk21" data-source-line="33" data-link-type="dependency"><path d="M232.81,273.08 C252.22,270.24 267.7427,267.9742 287.6227,265.0642" style="stroke:#000000;stroke-width:1;" fill="none" id="MC-to-SS"/><polygon points="292.57,264.34,283.0856,261.6857,287.6227,265.0642,284.2442,269.6013,292.57,264.34" fill="#000000" style="stroke:#000000;stroke-width:1;stroke-linejoin:miter;stroke-miterlimit:10;"/></g><!--link EC to ES--><g class="link" data-entity-1="ent0004" data-entity-2="ent0008" id="lnk22" data-source-line="34" data-link-type="dependency"><path d="M204.82,196.17 C248.63,189.77 298.6626,182.4535 340.8526,176.2835" style="stroke:#000000;stroke-width:1;" fill="none" id="EC-to-ES"/><polygon points="345.8,175.56,336.3159,172.9044,340.8526,176.2835,337.4735,180.8202,345.8,175.56" fill="#000000" style="stroke:#000000;stroke-width:1;stroke-linejoin:miter;stroke-miterlimit:10;"/></g><!--link CS to CR--><g class="link" data-entity-1="ent0006" data-entity-2="ent0011" id="lnk23" data-source-line="35" data-link-type="dependency"><path d="M480.63,401.85 C506.39,396.28 534.61,386.43 555.72,369 C564.91,361.41 560.11,354.18 567.72,345 C592.81,314.72 624.7555,290.956 652.3655,273.186" style="stroke:#000000;stroke-width:1;" fill="none" id="CS-to-CR"/><polygon points="656.57,270.48,646.8372,271.9873,652.3655,273.186,651.1668,278.7144,656.57,270.48" fill="#000000" style="stroke:#000000;stroke-width:1;stroke-linejoin:miter;stroke-miterlimit:10;"/></g><!--link MS to MR--><g class="link" data-entity-1="ent0007" data-entity-2="ent0012" id="lnk24" data-source-line="36" data-link-type="dependency"><path d="M506.72,318.12 C525.25,312.03 542.9,302.57 555.72,288 C580.04,260.34 543.78,233.99 567.72,206 C574.33,198.26 578.0803,194.4833 586.9403,189.4133" style="stroke:#000000;stroke-width:1;" fill="none" id="MS-to-MR"/><polygon points="591.28,186.93,581.4819,187.9282,586.9403,189.4133,585.4552,194.8718,591.28,186.93" fill="#000000" style="stroke:#000000;stroke-width:1;stroke-linejoin:miter;stroke-miterlimit:10;"/></g><!--link ES to MR--><g class="link" data-entity-1="ent0008" data-entity-2="ent0012" id="lnk25" data-source-line="37" data-link-type="dependency"><path d="M478.51,166 C512.01,166 548.62,166 586.48,166" style="stroke:#000000;stroke-width:1;" fill="none" id="ES-to-MR"/><polygon points="591.48,166,582.48,162,586.48,166,582.48,170,591.48,166" fill="#000000" style="stroke:#000000;stroke-width:1;stroke-linejoin:miter;stroke-miterlimit:10;"/></g><!--link ES to AR--><g class="link" data-entity-1="ent0008" data-entity-2="ent0013" id="lnk26" data-source-line="38" data-link-type="dependency"><path d="M478.51,147.32 C518.79,135.8 565.9927,122.3046 609.1127,109.9746" style="stroke:#000000;stroke-width:1;" fill="none" id="ES-to-AR"/><polygon points="613.92,108.6,604.1671,107.2285,609.1127,109.9746,606.3665,114.9202,613.92,108.6" fill="#000000" style="stroke:#000000;stroke-width:1;stroke-linejoin:miter;stroke-miterlimit:10;"/></g><!--link CR to DB--><g class="link" data-entity-1="ent0011" data-entity-2="ent0018" id="lnk27" data-source-line="39" data-link-type="dependency"><path d="M777.9,224.77 C794.39,219.48 811.52,213.46 827.21,207 C839.74,201.84 848.5302,197.6988 860.4702,191.4488" style="stroke:#000000;stroke-width:1;" fill="none" id="CR-to-DB"/><polygon points="864.9,189.13,855.0713,189.76,860.4702,191.4488,858.7814,196.8477,864.9,189.13" fill="#000000" style="stroke:#000000;stroke-width:1;stroke-linejoin:miter;stroke-miterlimit:10;"/></g><!--link MR to DB--><g class="link" data-entity-1="ent0012" data-entity-2="ent0018" id="lnk28" data-source-line="40" data-link-type="dependency"><path d="M803.7,166 C824.75,166 840.73,166 858.15,166" style="stroke:#000000;stroke-width:1;" fill="none" id="MR-to-DB"/><polygon points="863.15,166,854.15,162,858.15,166,854.15,170,863.15,166" fill="#000000" style="stroke:#000000;stroke-width:1;stroke-linejoin:miter;stroke-miterlimit:10;"/></g><!--link AR to DB--><g class="link" data-entity-1="ent0013" data-entity-2="ent0018" id="lnk29" data-source-line="41" data-link-type="dependency"><path d="M782,108.56 C797.22,113.52 812.82,119.07 827.21,125 C839.74,130.16 848.5302,134.3012 860.4702,140.5512" style="stroke:#000000;stroke-width:1;" fill="none" id="AR-to-DB"/><polygon points="864.9,142.87,858.7814,135.1523,860.4702,140.5512,855.0713,142.24,864.9,142.87" fill="#000000" style="stroke:#000000;stroke-width:1;stroke-linejoin:miter;stroke-miterlimit:10;"/></g><!--link CS to Cf--><g class="link" data-entity-1="ent0006" data-entity-2="ent0015" id="lnk30" data-source-line="42" data-link-type="dependency"><path d="M445.22,432.6 C475.55,454.06 522.96,485.43 567.72,506 C595.68,518.85 624.0603,527.7661 649.7403,534.6461" style="stroke:#000000;stroke-width:1;stroke-dasharray:7,7;" fill="none" id="CS-to-Cf"/><polygon points="654.57,535.94,646.9117,529.7472,649.7403,534.6461,644.8414,537.4747,654.57,535.94" fill="#000000" style="stroke:#000000;stroke-width:1;stroke-linejoin:miter;stroke-miterlimit:10;"/></g><!--link MS to Me--><g class="link" data-entity-1="ent0007" data-entity-2="ent0016" id="lnk31" data-source-line="43" data-link-type="dependency"><path d="M506.42,338.6 C524.85,344.66 542.54,353.92 555.72,368 C573.41,386.9 550.29,405.86 567.72,425 C583.47,442.31 601.7217,450.9776 624.0117,456.5976" style="stroke:#000000;stroke-width:1;stroke-dasharray:7,7;" fill="none" id="MS-to-Me"/><polygon points="628.86,457.82,621.111,451.7411,624.0117,456.5976,619.1552,459.4983,628.86,457.82" fill="#000000" style="stroke:#000000;stroke-width:1;stroke-linejoin:miter;stroke-miterlimit:10;"/></g><!--link ES to Ea--><g class="link" data-entity-1="ent0008" data-entity-2="ent0017" id="lnk32" data-source-line="44" data-link-type="dependency"><path d="M478.55,169.05 C506.2,173.78 536.41,184.12 555.72,206 C579.51,232.96 549.4,255.06 567.72,286 C586.89,318.39 616.9655,341.1761 645.3755,357.9661" style="stroke:#000000;stroke-width:1;stroke-dasharray:7,7;" fill="none" id="ES-to-Ea"/><polygon points="649.68,360.51,643.9671,352.4874,645.3755,357.9661,639.8968,359.3746,649.68,360.51" fill="#000000" style="stroke:#000000;stroke-width:1;stroke-linejoin:miter;stroke-miterlimit:10;"/></g><?plantuml-src PL91JkGm4Bpx5Srm0BHY3Zm0QV24q_gIQ4yiXnwd9sEDOnlR0Q7LIlk8VI4leJEMGYRaO9MwsbNL7L_a0_K4mQ9n8XsD2nYnXntgOnVzu5hfhOzm-NZwPXtfWAr_Cww3FTf4uWgs1Zjc45e2xVlW7RbC2Qv_gPytyF7lFs1y6KmcdOU845XMOy34pGu6Xv2yvSicajQ6IopJKY3NajC6qtfcFiat-TqI3Bsz4vRs6RA7QBf3BZAPPOG8F0js1AitsgtWZm1uajxjJSTdZjvQYi_0CQGSAKMOXiWxSNd1gnDVlNvdAYd-VjaaYgz6qvbLKsh5frdup4dLJ2RpSlNjJew4_RobQUOX8WMVJFRn_RUxRa8SVzGMCuBohlCtP-7ggRVagnTU2rxLKyIDFYx8JJrFqVgUtnKdu5wJ3J-67q1kwDDvW6AxNzWMCvgRbLqWMxGyomuJUvm6sZwiHchx88IKS7jxFsvP5QGcn2kg2k9zogRqrK8Ln7DLIyJZoFg4M5fDQ3CXLbclxyVmgY0EN1LKuIS0?></g></svg>