<svg xmlns="http://www.w3.org/2000/svg" xmlns:xlink="http://www.w3.org/1999/xlink" version="1.1" data-diagram-type="DESCRIPTION" style="width:936px;height:612px;background:#FFFFFF;" width="936.4583px" height="612.5px" viewBox="0 0 936 612" zoomAndPan="magnify" preserveAspectRatio="none" contentStyleType="text/css"><?plantuml 1.2026.7beta3?><defs/><g><!--cluster web--><g class="cluster" data-qualified-name="web" id="ent0001" data-source-line="8"><path d="M20.8333,155.2083 L47.7234,155.2083 A6.25,6.25 0 0 1 51.8901,159.375 L59.1817,176.0091 L235.3542,176.0091 A4.1667,4.1667 0 0 1 239.5208,180.1758 L239.5208,411.4583 A4.1667,4.1667 0 0 1 235.3542,415.625 L20.8333,415.625 A4.1667,4.1667 0 0 1 16.6667,411.4583 L16.6667,159.375 A4.1667,4.1667 0 0 1 20.8333,155.2083" style="stroke:#2FA4E7;stroke-width:2.0833;" fill="none"/><line x1="16.6667" y1="176.0091" x2="59.1817" y2="176.0091" style="stroke:#2FA4E7;stroke-width:2.0833;"/><text x="20.8333" y="168.8944" fill="#2FA4E7" font-size="12.5" lengthAdjust="spacing" textLength="28.9734" font-weight="700" font-family="'Verdana'">web</text></g><!--cluster service--><g class="cluster" data-qualified-name="service" id="ent0005" data-source-line="13"><path d="M272.8542,113.5417 L321.1737,113.5417 A6.25,6.25 0 0 1 325.3403,117.7083 L332.632,134.3424 L517.3125,134.3424 A4.1667,4.1667 0 0 1 521.4792,138.5091 L521.4792,452.0833 A4.1667,4.1667 0 0 1 517.3125,456.25 L272.8542,456.25 A4.1667,4.1667 0 0 1 268.6875,452.0833 L268.6875,117.7083 A4.1667,4.1667 0 0 1 272.8542,113.5417" style="stroke:#2FA4E7;stroke-width:2.0833;" fill="none"/><line x1="268.6875" y1="134.3424" x2="332.632" y2="134.3424" style="stroke:#2FA4E7;stroke-width:2.0833;"/><text x="272.8542" y="127.2278" fill="#2FA4E7" font-size="12.5" lengthAdjust="spacing" textLength="50.4028" font-weight="700" font-family="'Verdana'">service</text></g><!--cluster repository\n(Spring Data Mongo)--><g class="cluster" data-qualified-name="repository.n.Spring Data Mongo." id="ent0010" data-source-line="19"><path d="M554.8125,16.6667 L699.7873,16.6667 A6.25,6.25 0 0 1 703.9539,20.8333 L711.2456,52.0182 L774.5938,52.0182 A4.1667,4.1667 0 0 1 778.7604,56.1849 L778.7604,287.5 A4.1667,4.1667 0 0 1 774.5938,291.6667 L554.8125,291.6667 A4.1667,4.1667 0 0 1 550.6458,287.5 L550.6458,20.8333 A4.1667,4.1667 0 0 1 554.8125,16.6667" style="stroke:#2FA4E7;stroke-width:2.0833;" fill="none"/><line x1="550.6458" y1="52.0182" x2="711.2456" y2="52.0182" style="stroke:#2FA4E7;stroke-width:2.0833;"/><text x="591.9524" y="30.3528" fill="#2FA4E7" font-size="12.5" lengthAdjust="spacing" textLength="72.7783" font-weight="700" font-family="'Verdana'">repository</text><text x="554.8125" y="44.9036" fill="#2FA4E7" font-size="12.5" lengthAdjust="spacing" textLength="147.0581" font-weight="700" font-family="'Verdana'">(Spring Data Mongo)</text></g><!--cluster domain\n(entities + enums)--><g class="cluster" data-qualified-name="domain.n.entities . enums." id="ent0014" data-source-line="24"><path d="M588.3229,316.6667 L717.398,316.6667 A6.25,6.25 0 0 1 721.5647,320.8333 L728.8564,352.0182 L741.0833,352.0182 A4.1667,4.1667 0 0 1 745.25,356.1849 L745.25,587.5 A4.1667,4.1667 0 0 1 741.0833,591.6667 L588.3229,591.6667 A4.1667,4.1667 0 0 1 584.1563,587.5 L584.1563,320.8333 A4.1667,4.1667 0 0 1 588.3229,316.6667" style="stroke:#2FA4E7;stroke-width:2.0833;" fill="none"/><line x1="584.1563" y1="352.0182" x2="728.8564" y2="352.0182" style="stroke:#2FA4E7;stroke-width:2.0833;"/><text x="627.8127" y="330.3528" fill="#2FA4E7" font-size="12.5" lengthAdjust="spacing" textLength="52.179" font-weight="700" font-family="'Verdana'">domain</text><text x="588.3229" y="344.9036" fill="#2FA4E7" font-size="12.5" lengthAdjust="spacing" textLength="131.1584" font-weight="700" font-family="'Verdana'">(entities + enums)</text></g><!--entity CC--><g class="entity" data-qualified-name="web.CC" id="ent0002" data-source-line="9"><rect x="56.3229" y="353.1458" width="143.5343" height="45.8008" fill="none" style="stroke:#2FA4E7;stroke-width:1.0417;" rx="4.1667" ry="4.1667"/><rect x="179.0239" y="358.3542" width="15.625" height="10.4167" fill="none" style="stroke:#2FA4E7;stroke-width:1.0417;"/><rect x="176.9406" y="360.4375" width="4.1667" height="2.0833" fill="none" style="stroke:#2FA4E7;stroke-width:1.0417;"/><rect x="176.9406" y="364.6042" width="4.1667" height="2.0833" fill="none" style="stroke:#2FA4E7;stroke-width:1.0417;"/><text x="71.9479" y="385.5819" fill="#2FA4E7" font-size="12.5" lengthAdjust="spacing" textLength="101.8677" font-family="'Verdana'">ConfigController</text></g><!--entity MC--><g class="entity" data-qualified-name="web.MC" id="ent0003" data-source-line="10"><rect x="33.3333" y="270.8542" width="189.5182" height="45.8008" fill="none" style="stroke:#2FA4E7;stroke-width:1.0417;" rx="4.1667" ry="4.1667"/><rect x="202.0182" y="276.0625" width="15.625" height="10.4167" fill="none" style="stroke:#2FA4E7;stroke-width:1.0417;"/><rect x="199.9349" y="278.1458" width="4.1667" height="2.0833" fill="none" style="stroke:#2FA4E7;stroke-width:1.0417;"/><rect x="199.9349" y="282.3125" width="4.1667" height="2.0833" fill="none" style="stroke:#2FA4E7;stroke-width:1.0417;"/><text x="48.9583" y="303.2903" fill="#2FA4E7" font-size="12.5" lengthAdjust="spacing" textLength="147.8516" font-family="'Verdana'">MeasurementController</text></g><!--entity EC--><g class="entity" data-qualified-name="web.EC" id="ent0004" data-source-line="11"><rect x="58.4688" y="188.5625" width="139.2375" height="45.8008" fill="none" style="stroke:#2FA4E7;stroke-width:1.0417;" rx="4.1667" ry="4.1667"/><rect x="176.8729" y="193.7708" width="15.625" height="10.4167" fill="none" style="stroke:#2FA4E7;stroke-width:1.0417;"/><rect x="174.7896" y="195.8542" width="4.1667" height="2.0833" fill="none" style="stroke:#2FA4E7;stroke-width:1.0417;"/><rect x="174.7896" y="200.0208" width="4.1667" height="2.0833" fill="none" style="stroke:#2FA4E7;stroke-width:1.0417;"/><text x="74.0938" y="220.9986" fill="#2FA4E7" font-size="12.5" lengthAdjust="spacing" textLength="97.5708" font-family="'Verdana'">EventController</text></g><!--entity CS--><g class="entity" data-qualified-name="service.CS" id="ent0006" data-source-line="14"><rect x="331.0938" y="393.7708" width="127.9704" height="45.8008" fill="none" style="stroke:#2FA4E7;stroke-width:1.0417;" rx="4.1667" ry="4.1667"/><rect x="438.2308" y="398.9792" width="15.625" height="10.4167" fill="none" style="stroke:#2FA4E7;stroke-width:1.0417;"/><rect x="436.1475" y="401.0625" width="4.1667" height="2.0833" fill="none" style="stroke:#2FA4E7;stroke-width:1.0417;"/><rect x="436.1475" y="405.2292" width="4.1667" height="2.0833" fill="none" style="stroke:#2FA4E7;stroke-width:1.0417;"/><text x="346.7188" y="426.2069" fill="#2FA4E7" font-size="12.5" lengthAdjust="spacing" textLength="86.3037" font-family="'Verdana'">ConfigService</text></g><!--entity MS--><g class="entity" data-qualified-name="service.MS" id="ent0007" data-source-line="15"><rect x="308.1042" y="311.4792" width="173.9543" height="45.8008" fill="none" style="stroke:#2FA4E7;stroke-width:1.0417;" rx="4.1667" ry="4.1667"/><rect x="461.2251" y="316.6875" width="15.625" height="10.4167" fill="none" style="stroke:#2FA4E7;stroke-width:1.0417;"/><rect x="459.1418" y="318.7708" width="4.1667" height="2.0833" fill="none" style="stroke:#2FA4E7;stroke-width:1.0417;"/><rect x="459.1418" y="322.9375" width="4.1667" height="2.0833" fill="none" style="stroke:#2FA4E7;stroke-width:1.0417;"/><text x="323.7292" y="343.9153" fill="#2FA4E7" font-size="12.5" lengthAdjust="spacing" textLength="132.2876" font-family="'Verdana'">MeasurementService</text></g><!--entity ES--><g class="entity" data-qualified-name="service.ES" id="ent0008" data-source-line="16"><rect x="333.2396" y="146.8958" width="123.6735" height="45.8008" fill="none" style="stroke:#2FA4E7;stroke-width:1.0417;" rx="4.1667" ry="4.1667"/><rect x="436.0798" y="152.1042" width="15.625" height="10.4167" fill="none" style="stroke:#2FA4E7;stroke-width:1.0417;"/><rect x="433.9964" y="154.1875" width="4.1667" height="2.0833" fill="none" style="stroke:#2FA4E7;stroke-width:1.0417;"/><rect x="433.9964" y="158.3542" width="4.1667" height="2.0833" fill="none" style="stroke:#2FA4E7;stroke-width:1.0417;"/><text x="348.8646" y="179.3319" fill="#2FA4E7" font-size="12.5" lengthAdjust="spacing" textLength="82.0068" font-family="'Verdana'">EventService</text></g><!--entity SS--><g class="entity" data-qualified-name="service.SS" id="ent0009" data-source-line="17"><rect x="285.3542" y="229.1875" width="219.456" height="45.8008" fill="none" style="stroke:#2FA4E7;stroke-width:1.0417;" rx="4.1667" ry="4.1667"/><rect x="483.9768" y="234.3958" width="15.625" height="10.4167" fill="none" style="stroke:#2FA4E7;stroke-width:1.0417;"/><rect x="481.8935" y="236.4792" width="4.1667" height="2.0833" fill="none" style="stroke:#2FA4E7;stroke-width:1.0417;"/><rect x="481.8935" y="240.6458" width="4.1667" height="2.0833" fill="none" style="stroke:#2FA4E7;stroke-width:1.0417;"/><text x="300.9792" y="261.6236" fill="#2FA4E7" font-size="12.5" lengthAdjust="spacing" textLength="177.7893" font-family="'Verdana'">MeasurementStreamService</text></g><!--entity CR--><g class="entity" data-qualified-name="repository.n.Spring Data Mongo..CR" id="ent0011" data-source-line="20"><rect x="590.3021" y="229.1875" width="148.8017" height="45.8008" fill="none" style="stroke:#2FA4E7;stroke-width:1.0417;" rx="4.1667" ry="4.1667"/><rect x="718.2704" y="234.3958" width="15.625" height="10.4167" fill="none" style="stroke:#2FA4E7;stroke-width:1.0417;"/><rect x="716.1871" y="236.4792" width="4.1667" height="2.0833" fill="none" style="stroke:#2FA4E7;stroke-width:1.0417;"/><rect x="716.1871" y="240.6458" width="4.1667" height="2.0833" fill="none" style="stroke:#2FA4E7;stroke-width:1.0417;"/><text x="605.9271" y="261.6236" fill="#2FA4E7" font-size="12.5" lengthAdjust="spacing" textLength="107.135" font-family="'Verdana'">ConfigRepository</text></g><!--entity MR--><g class="entity" data-qualified-name="repository.n.Spring Data Mongo..MR" id="ent0012" data-source-line="21"><rect x="567.3125" y="146.8958" width="194.7856" height="45.8008" fill="none" style="stroke:#2FA4E7;stroke-width:1.0417;" rx="4.1667" ry="4.1667"/><rect x="741.2647" y="152.1042" width="15.625" height="10.4167" fill="none" style="stroke:#2FA4E7;stroke-width:1.0417;"/><rect x="739.1814" y="154.1875" width="4.1667" height="2.0833" fill="none" style="stroke:#2FA4E7;stroke-width:1.0417;"/><rect x="739.1814" y="158.3542" width="4.1667" height="2.0833" fill="none" style="stroke:#2FA4E7;stroke-width:1.0417;"/><text x="582.9375" y="179.3319" fill="#2FA4E7" font-size="12.5" lengthAdjust="spacing" textLength="153.1189" font-family="'Verdana'">MeasurementRepository</text></g><!--entity AR--><g class="entity" data-qualified-name="repository.n.Spring Data Mongo..AR" id="ent0013" data-source-line="22"><rect x="581.1146" y="64.6042" width="167.1672" height="45.8008" fill="none" style="stroke:#2FA4E7;stroke-width:1.0417;" rx="4.1667" ry="4.1667"/><rect x="727.4484" y="69.8125" width="15.625" height="10.4167" fill="none" style="stroke:#2FA4E7;stroke-width:1.0417;"/><rect x="725.3651" y="71.8958" width="4.1667" height="2.0833" fill="none" style="stroke:#2FA4E7;stroke-width:1.0417;"/><rect x="725.3651" y="76.0625" width="4.1667" height="2.0833" fill="none" style="stroke:#2FA4E7;stroke-width:1.0417;"/><text x="596.7396" y="97.0403" fill="#2FA4E7" font-size="12.5" lengthAdjust="spacing" textLength="125.5005" font-family="'Verdana'">EventAckRepository</text></g><!--entity Cf--><g class="entity" data-qualified-name="domain.n.entities . enums..Cf" id="ent0015" data-source-line="25"><rect x="623.8125" y="529.1875" width="81.7729" height="45.8008" fill="none" style="stroke:#2FA4E7;stroke-width:1.0417;" rx="4.1667" ry="4.1667"/><rect x="684.752" y="534.3958" width="15.625" height="10.4167" fill="none" style="stroke:#2FA4E7;stroke-width:1.0417;"/><rect x="682.6687" y="536.4792" width="4.1667" height="2.0833" fill="none" style="stroke:#2FA4E7;stroke-width:1.0417;"/><rect x="682.6687" y="540.6458" width="4.1667" height="2.0833" fill="none" style="stroke:#2FA4E7;stroke-width:1.0417;"/><text x="639.4375" y="561.6236" fill="#2FA4E7" font-size="12.5" lengthAdjust="spacing" textLength="40.1062" font-family="'Verdana'">Config</text></g><!--entity Me--><g class="entity" data-qualified-name="domain.n.entities . enums..Me" id="ent0016" data-source-line="26"><rect x="600.8229" y="446.8958" width="127.7568" height="45.8008" fill="none" style="stroke:#2FA4E7;stroke-width:1.0417;" rx="4.1667" ry="4.1667"/><rect x="707.7463" y="452.1042" width="15.625" height="10.4167" fill="none" style="stroke:#2FA4E7;stroke-width:1.0417;"/><rect x="705.663" y="454.1875" width="4.1667" height="2.0833" fill="none" style="stroke:#2FA4E7;stroke-width:1.0417;"/><rect x="705.663" y="458.3542" width="4.1667" height="2.0833" fill="none" style="stroke:#2FA4E7;stroke-width:1.0417;"/><text x="616.4479" y="479.3319" fill="#2FA4E7" font-size="12.5" lengthAdjust="spacing" textLength="86.0901" font-family="'Verdana'">Measurement</text></g><!--entity Ea--><g class="entity" data-qualified-name="domain.n.entities . enums..Ea" id="ent0017" data-source-line="27"><rect x="614.6354" y="364.6042" width="100.1383" height="45.8008" fill="none" style="stroke:#2FA4E7;stroke-width:1.0417;" rx="4.1667" ry="4.1667"/><rect x="693.9404" y="369.8125" width="15.625" height="10.4167" fill="none" style="stroke:#2FA4E7;stroke-width:1.0417;"/><rect x="691.8571" y="371.8958" width="4.1667" height="2.0833" fill="none" style="stroke:#2FA4E7;stroke-width:1.0417;"/><rect x="691.8571" y="376.0625" width="4.1667" height="2.0833" fill="none" style="stroke:#2FA4E7;stroke-width:1.0417;"/><text x="630.2604" y="397.0403" fill="#2FA4E7" font-size="12.5" lengthAdjust="spacing" textLength="58.4717" font-family="'Verdana'">EventAck</text></g><!--entity DB--><g class="entity" data-qualified-name="DB" id="ent0018" data-source-line="29"><path d="M824.5938,157.8333 C824.5938,147.4167 865.0794,147.4167 865.0794,147.4167 C865.0794,147.4167 905.565,147.4167 905.565,157.8333 L905.565,181.7591 C905.565,192.1758 865.0794,192.1758 865.0794,192.1758 C865.0794,192.1758 824.5938,192.1758 824.5938,181.7591 L824.5938,157.8333" style="stroke:#2FA4E7;stroke-width:1.0417;" fill="none"/><path d="M824.5938,157.8333 C824.5938,168.25 865.0794,168.25 865.0794,168.25 C865.0794,168.25 905.565,168.25 905.565,157.8333" style="stroke:#2FA4E7;stroke-width:1.0417;" fill="none"/><text x="835.0104" y="184.0194" fill="#2FA4E7" font-size="12.5" lengthAdjust="spacing" textLength="60.1379" font-family="'Verdana'">MongoDB</text></g><!--link CC to CS--><g class="link" data-entity-1="ent0002" data-entity-2="ent0006" id="lnk19" data-source-line="31" data-link-type="dependency"><path d="M200.125,386.9271 C240.8854,393.1771 286.4874,400.168 325.8416,406.2097" style="stroke:#2FA4E7;stroke-width:3.125;" fill="none" id="CC-to-CS"/><polygon points="330.9896,407,322.3554,401.459,325.8416,406.2097,321.0909,409.6958,330.9896,407" fill="#2FA4E7" style="stroke:#2FA4E7;stroke-width:3.125;stroke-linejoin:miter;stroke-miterlimit:10;"/></g><!--link MC to MS--><g class="link" data-entity-1="ent0003" data-entity-2="ent0007" id="lnk20" data-source-line="32" data-link-type="dependency"><path d="M223.2708,308.1875 C250.7917,312.4063 275.56,316.2118 302.5704,320.3472" style="stroke:#2FA4E7;stroke-width:3.125;" fill="none" id="MC-to-MS"/><polygon points="307.7188,321.1354,299.0823,315.5979,302.5704,320.3472,297.8211,323.8353,307.7188,321.1354" fill="#2FA4E7" style="stroke:#2FA4E7;stroke-width:3.125;stroke-linejoin:miter;stroke-miterlimit:10;"/></g><!--link MC to SS--><g class="link" data-entity-1="ent0003" data-entity-2="ent0009" id="lnk21" data-source-line="33" data-link-type="dependency"><path d="M223.2708,278.9375 C243.3542,275.7813 259.5634,273.2372 280.1363,269.9977" style="stroke:#2FA4E7;stroke-width:3.125;" fill="none" id="MC-to-SS"/><polygon points="285.2813,269.1875,275.3722,266.5298,280.1363,269.9977,276.6685,274.7617,285.2813,269.1875" fill="#2FA4E7" style="stroke:#2FA4E7;stroke-width:3.125;stroke-linejoin:miter;stroke-miterlimit:10;"/></g><!--link EC to ES--><g class="link" data-entity-1="ent0004" data-entity-2="ent0008" id="lnk22" data-source-line="34" data-link-type="dependency"><path d="M198.0417,200.6146 C239.8958,194.0417 287.6883,186.518 328.0008,180.1742" style="stroke:#2FA4E7;stroke-width:3.125;" fill="none" id="EC-to-ES"/><polygon points="333.1458,179.3646,323.2371,176.7059,328.0008,180.1742,324.5325,184.938,333.1458,179.3646" fill="#2FA4E7" style="stroke:#2FA4E7;stroke-width:3.125;stroke-linejoin:miter;stroke-miterlimit:10;"/></g><!--link CS to CR--><g class="link" data-entity-1="ent0006" data-entity-2="ent0011" id="lnk23" data-source-line="35" data-link-type="dependency"><path d="M459.3958,408.1875 C483.6979,402.25 510.2604,392.1563 529.8125,375 C539.7708,366.2604 534.1042,358.3333 542.3125,347.9167 C565.4063,318.6042 594.8667,295.7677 620.9292,278.3614" style="stroke:#2FA4E7;stroke-width:3.125;" fill="none" id="CS-to-CR"/><polygon points="625.2604,275.4688,615.1501,277.2106,620.9292,278.3614,619.7784,284.1405,625.2604,275.4688" fill="#2FA4E7" style="stroke:#2FA4E7;stroke-width:3.125;stroke-linejoin:miter;stroke-miterlimit:10;"/></g><!--link MS to MR--><g class="link" data-entity-1="ent0007" data-entity-2="ent0012" id="lnk24" data-source-line="36" data-link-type="dependency"><path d="M482.5417,322.6771 C500.4167,316.4375 517.5208,306.9896 529.8125,292.7083 C553.6458,265.0208 518.875,239.4896 542.3125,211.4583 C549.0938,203.3438 553.0164,199.3807 562.2664,194.1098" style="stroke:#2FA4E7;stroke-width:3.125;" fill="none" id="MS-to-MR"/><polygon points="566.7917,191.5313,556.5834,192.5525,562.2664,194.1098,560.7091,199.7929,566.7917,191.5313" fill="#2FA4E7" style="stroke:#2FA4E7;stroke-width:3.125;stroke-linejoin:miter;stroke-miterlimit:10;"/></g><!--link ES to MR--><g class="link" data-entity-1="ent0008" data-entity-2="ent0012" id="lnk25" data-source-line="37" data-link-type="dependency"><path d="M457.1667,169.7917 C489.625,169.7917 525.0938,169.7917 561.7396,169.7917" style="stroke:#2FA4E7;stroke-width:3.125;" fill="none" id="ES-to-MR"/><polygon points="566.9479,169.7917,557.5729,165.625,561.7396,169.7917,557.5729,173.9583,566.9479,169.7917" fill="#2FA4E7" style="stroke:#2FA4E7;stroke-width:3.125;stroke-linejoin:miter;stroke-miterlimit:10;"/></g><!--link ES to AR--><g class="link" data-entity-1="ent0008" data-entity-2="ent0013" id="lnk26" data-source-line="38" data-link-type="dependency"><path d="M457.1667,151.0104 C495.875,139.1042 541.2824,125.1463 582.5845,112.4379" style="stroke:#2FA4E7;stroke-width:3.125;" fill="none" id="ES-to-AR"/><polygon points="587.5625,110.9063,577.3767,109.6809,582.5845,112.4379,579.8274,117.6457,587.5625,110.9063" fill="#2FA4E7" style="stroke:#2FA4E7;stroke-width:3.125;stroke-linejoin:miter;stroke-miterlimit:10;"/></g><!--link CR to DB--><g class="link" data-entity-1="ent0011" data-entity-2="ent0018" id="lnk27" data-source-line="39" data-link-type="dependency"><path d="M739.5938,228.7708 C755.4375,223.2083 771.9688,216.9583 787.0938,210.4167 C799.4375,205.0833 807.8894,200.984 819.6811,194.7236" style="stroke:#2FA4E7;stroke-width:3.125;" fill="none" id="CR-to-DB"/><polygon points="824.2813,192.2813,814.047,192.9973,819.6811,194.7236,817.9548,200.3576,824.2813,192.2813" fill="#2FA4E7" style="stroke:#2FA4E7;stroke-width:3.125;stroke-linejoin:miter;stroke-miterlimit:10;"/></g><!--link MR to DB--><g class="link" data-entity-1="ent0012" data-entity-2="ent0018" id="lnk28" data-source-line="40" data-link-type="dependency"><path d="M762.5625,169.7917 C784.3958,169.7917 801.1563,169.7917 819.0521,169.7917" style="stroke:#2FA4E7;stroke-width:3.125;" fill="none" id="MR-to-DB"/><polygon points="824.2604,169.7917,814.8854,165.625,819.0521,169.7917,814.8854,173.9583,824.2604,169.7917" fill="#2FA4E7" style="stroke:#2FA4E7;stroke-width:3.125;stroke-linejoin:miter;stroke-miterlimit:10;"/></g><!--link AR to DB--><g class="link" data-entity-1="ent0013" data-entity-2="ent0018" id="lnk29" data-source-line="41" data-link-type="dependency"><path d="M739.5938,110.8125 C755.4375,116.375 771.9688,122.625 787.0938,129.1667 C799.4375,134.5 807.8894,138.5993 819.6811,144.8598" style="stroke:#2FA4E7;stroke-width:3.125;" fill="none" id="AR-to-DB"/><polygon points="824.2813,147.3021,817.9548,139.2257,819.6811,144.8598,814.047,146.586,824.2813,147.3021" fill="#2FA4E7" style="stroke:#2FA4E7;stroke-width:3.125;stroke-linejoin:miter;stroke-miterlimit:10;"/></g><!--link CS to Cf--><g class="link" data-entity-1="ent0006" data-entity-2="ent0015" id="lnk30" data-source-line="42" data-link-type="dependency"><path d="M427.625,440.0313 C456.3854,460.5729 500.6458,490.2708 542.3125,510.4167 C568.375,523.0208 594.2778,532.0564 618.3715,539.3897" style="stroke:#2FA4E7;stroke-width:3.125;stroke-dasharray:7.2917,7.2917;" fill="none" id="CS-to-Cf"/><polygon points="623.3542,540.9063,615.5986,534.1903,618.3715,539.3897,613.1722,542.1626,623.3542,540.9063" fill="#2FA4E7" style="stroke:#2FA4E7;stroke-width:3.125;stroke-linejoin:miter;stroke-miterlimit:10;"/></g><!--link MS to Me--><g class="link" data-entity-1="ent0007" data-entity-2="ent0016" id="lnk31" data-source-line="43" data-link-type="dependency"><path d="M482.3854,347.0729 C500.0521,353.2708 517.1042,362.4583 529.8125,376.0417 C546.0729,393.4271 526.2917,410.5104 542.3125,428.125 C557.3646,444.6875 574.2938,453.2371 595.3875,459.258" style="stroke:#2FA4E7;stroke-width:3.125;stroke-dasharray:7.2917,7.2917;" fill="none" id="MS-to-Me"/><polygon points="600.3958,460.6875,592.5245,454.1077,595.3875,459.258,590.2372,462.121,600.3958,460.6875" fill="#2FA4E7" style="stroke:#2FA4E7;stroke-width:3.125;stroke-linejoin:miter;stroke-miterlimit:10;"/></g><!--link ES to Ea--><g class="link" data-entity-1="ent0008" data-entity-2="ent0017" id="lnk32" data-source-line="44" data-link-type="dependency"><path d="M457.1771,174.6563 C483.2188,179.9167 511.7083,190.4688 529.8125,211.4583 C553.3646,238.7813 524.1146,260.5104 542.3125,291.6667 C560.4479,322.7292 588.4166,344.7877 615.177,361.3711" style="stroke:#2FA4E7;stroke-width:3.125;stroke-dasharray:7.2917,7.2917;" fill="none" id="ES-to-Ea"/><polygon points="619.6042,364.1146,613.8301,355.6345,615.177,361.3711,609.4404,362.718,619.6042,364.1146" fill="#2FA4E7" style="stroke:#2FA4E7;stroke-width:3.125;stroke-linejoin:miter;stroke-miterlimit:10;"/></g><?plantuml-src PLBBRjim4BppApRkeGaA-z0F2E3GogcyICYfpM5DhMN25AdoaI080kGZ-eNvagvCG94L7OG1PpWpkz9LEb9Fe2baI-ZMFYTh78buCcx0W3tiKP-wuBDhfRS-mBVxypDJn2Es_jcu3Wve8udli3FOCOFGihNl1-_89Ofm_Q1-tS37-p_0y3URH3hbW32mhSO18uiTP8SGlUNB9f3MXe_OfgM1N4jE6uoRMVXatwGNIv1x-rDOEYH87eBfZgdO9BOHOk1Pi2DOFTD-1Qy2uBVqxc0wVgVWhQNm25n3of5IX347NezB2rwT-UhfArD9yVOP4oay6KqNKKqvApdD8cTEgcOAcHzNN-waGDZF9KqpBn5eyD4a7rx-kEjc2EE7sc52KDvr_kQYN3rfIxzwaRNWLJrLtEhJWjpMynQjxz4uRi1Qamp_33-0NExZPO4IUrZ4bZ2QXvLT84UqFCiU8sUS1zhThKPgToU4bB1UtuvRLWMf2V6Age9udx8fkbgeWdYkQebu75cV4Lkh2Mqdn2wRpUrONXN4XQk2AlmF?></g></svg>