<svg xmlns="http://www.w3.org/2000/svg" xmlns:xlink="http://www.w3.org/1999/xlink" version="1.1" data-diagram-type="DESCRIPTION" style="width:927px;height:587px;background:#FFFFFF;" width="927px" height="587px" viewBox="0 0 927 587" zoomAndPan="magnify" preserveAspectRatio="none" contentStyleType="text/css"><?plantuml 1.2026.7beta3?><defs/><g><!--cluster web--><g class="cluster" data-qualified-name="web" id="ent0001" data-source-line="42"><path d="M12,141 L36.1323,141 A9,9 0 0 1 42.1323,147 L49.1323,162.1328 L225.77,162.1328 A6,6 0 0 1 231.77,168.1328 L231.77,391 A6,6 0 0 1 225.77,397 L12,397 A6,6 0 0 1 6,391 L6,147 A6,6 0 0 1 12,141" style="stroke:#94A3B8;stroke-width:1.5;" fill="#F1F5F9"/><line x1="6" y1="162.1328" x2="49.1323" y2="162.1328" style="stroke:#94A3B8;stroke-width:1.5;"/><text x="10" y="155.0669" fill="#0F172A" font-size="13" lengthAdjust="spacing" textLength="30.1323" font-weight="700" font-family="sans-serif">web</text></g><!--cluster service--><g class="cluster" data-qualified-name="service" id="ent0005" data-source-line="47"><path d="M265.77,101 L312.1889,101 A9,9 0 0 1 318.1889,107 L325.1889,122.1328 L510.67,122.1328 A6,6 0 0 1 516.67,128.1328 L516.67,431 A6,6 0 0 1 510.67,437 L265.77,437 A6,6 0 0 1 259.77,431 L259.77,107 A6,6 0 0 1 265.77,101" style="stroke:#94A3B8;stroke-width:1.5;" fill="#F1F5F9"/><line x1="259.77" y1="122.1328" x2="325.1889" y2="122.1328" style="stroke:#94A3B8;stroke-width:1.5;"/><text x="263.77" y="115.0669" fill="#0F172A" font-size="13" lengthAdjust="spacing" textLength="52.4189" font-weight="700" font-family="sans-serif">service</text></g><!--cluster repository\n(Spring Data Mongo)--><g class="cluster" data-qualified-name="repository.n.Spring Data Mongo." id="ent0010" data-source-line="53"><path d="M550.67,6 L697.6104,6 A9,9 0 0 1 703.6104,12 L710.6104,42.2656 L769.91,42.2656 A6,6 0 0 1 775.91,48.2656 L775.91,271 A6,6 0 0 1 769.91,277 L550.67,277 A6,6 0 0 1 544.67,271 L544.67,12 A6,6 0 0 1 550.67,6" style="stroke:#94A3B8;stroke-width:1.5;" fill="#F1F5F9"/><line x1="544.67" y1="42.2656" x2="710.6104" y2="42.2656" style="stroke:#94A3B8;stroke-width:1.5;"/><text x="587.2955" y="20.0669" fill="#0F172A" font-size="13" lengthAdjust="spacing" textLength="75.6895" font-weight="700" font-family="sans-serif">repository</text><text x="548.67" y="35.1997" fill="#0F172A" font-size="13" lengthAdjust="spacing" textLength="152.9404" font-weight="700" font-family="sans-serif">(Spring Data Mongo)</text></g><!--cluster domain\n(entities + enums)--><g class="cluster" data-qualified-name="domain.n.entities . enums." id="ent0014" data-source-line="58"><path d="M585.52,301 L715.9248,301 A9,9 0 0 1 721.9248,307 L728.9248,337.2656 L735.06,337.2656 A6,6 0 0 1 741.06,343.2656 L741.06,566 A6,6 0 0 1 735.06,572 L585.52,572 A6,6 0 0 1 579.52,566 L579.52,307 A6,6 0 0 1 585.52,301" style="stroke:#94A3B8;stroke-width:1.5;" fill="#F1F5F9"/><line x1="579.52" y1="337.2656" x2="728.9248" y2="337.2656" style="stroke:#94A3B8;stroke-width:1.5;"/><text x="624.5893" y="315.0669" fill="#0F172A" font-size="13" lengthAdjust="spacing" textLength="54.2661" font-weight="700" font-family="sans-serif">domain</text><text x="583.52" y="330.1997" fill="#0F172A" font-size="13" lengthAdjust="spacing" textLength="136.4048" font-weight="700" font-family="sans-serif">(entities + enums)</text></g><!--entity CC--><g class="entity" data-qualified-name="web.CC" id="ent0002" data-source-line="43"><rect x="45.91" y="335.43" width="145.9424" height="45.1328" fill="#F8FAFC" style="stroke:#0891B2;stroke-width:0.5;" rx="6" ry="6"/><rect x="171.8524" y="340.43" width="15" height="10" fill="#F8FAFC" style="stroke:#0891B2;stroke-width:0.5;"/><rect x="169.8524" y="342.43" width="4" height="2" fill="#F8FAFC" style="stroke:#0891B2;stroke-width:0.5;"/><rect x="169.8524" y="346.43" width="4" height="2" fill="#F8FAFC" style="stroke:#0891B2;stroke-width:0.5;"/><text x="60.91" y="367.4969" fill="#0F172A" font-size="13" lengthAdjust="spacing" textLength="105.9424" font-family="sans-serif">ConfigController</text></g><!--entity MC--><g class="entity" data-qualified-name="web.MC" id="ent0003" data-source-line="44"><rect x="22" y="255.43" width="193.7656" height="45.1328" fill="#F8FAFC" style="stroke:#0891B2;stroke-width:0.5;" rx="6" ry="6"/><rect x="195.7656" y="260.43" width="15" height="10" fill="#F8FAFC" style="stroke:#0891B2;stroke-width:0.5;"/><rect x="193.7656" y="262.43" width="4" height="2" fill="#F8FAFC" style="stroke:#0891B2;stroke-width:0.5;"/><rect x="193.7656" y="266.43" width="4" height="2" fill="#F8FAFC" style="stroke:#0891B2;stroke-width:0.5;"/><text x="37" y="287.4969" fill="#0F172A" font-size="13" lengthAdjust="spacing" textLength="153.7656" font-family="sans-serif">MeasurementController</text></g><!--entity EC--><g class="entity" data-qualified-name="web.EC" id="ent0004" data-source-line="45"><rect x="48.15" y="175.43" width="141.4736" height="45.1328" fill="#F8FAFC" style="stroke:#0891B2;stroke-width:0.5;" rx="6" ry="6"/><rect x="169.6236" y="180.43" width="15" height="10" fill="#F8FAFC" style="stroke:#0891B2;stroke-width:0.5;"/><rect x="167.6236" y="182.43" width="4" height="2" fill="#F8FAFC" style="stroke:#0891B2;stroke-width:0.5;"/><rect x="167.6236" y="186.43" width="4" height="2" fill="#F8FAFC" style="stroke:#0891B2;stroke-width:0.5;"/><text x="63.15" y="207.4969" fill="#0F172A" font-size="13" lengthAdjust="spacing" textLength="101.4736" font-family="sans-serif">EventController</text></g><!--entity CS--><g class="entity" data-qualified-name="service.CS" id="ent0006" data-source-line="48"><rect x="323.34" y="375.43" width="129.7559" height="45.1328" fill="#F8FAFC" style="stroke:#0891B2;stroke-width:0.5;" rx="6" ry="6"/><rect x="433.0959" y="380.43" width="15" height="10" fill="#F8FAFC" style="stroke:#0891B2;stroke-width:0.5;"/><rect x="431.0959" y="382.43" width="4" height="2" fill="#F8FAFC" style="stroke:#0891B2;stroke-width:0.5;"/><rect x="431.0959" y="386.43" width="4" height="2" fill="#F8FAFC" style="stroke:#0891B2;stroke-width:0.5;"/><text x="338.34" y="407.4969" fill="#0F172A" font-size="13" lengthAdjust="spacing" textLength="89.7559" font-family="sans-serif">ConfigService</text></g><!--entity MS--><g class="entity" data-qualified-name="service.MS" id="ent0007" data-source-line="49"><rect x="299.43" y="295.43" width="177.5791" height="45.1328" fill="#F8FAFC" style="stroke:#0891B2;stroke-width:0.5;" rx="6" ry="6"/><rect x="457.0091" y="300.43" width="15" height="10" fill="#F8FAFC" style="stroke:#0891B2;stroke-width:0.5;"/><rect x="455.0091" y="302.43" width="4" height="2" fill="#F8FAFC" style="stroke:#0891B2;stroke-width:0.5;"/><rect x="455.0091" y="306.43" width="4" height="2" fill="#F8FAFC" style="stroke:#0891B2;stroke-width:0.5;"/><text x="314.43" y="327.4969" fill="#0F172A" font-size="13" lengthAdjust="spacing" textLength="137.5791" font-family="sans-serif">MeasurementService</text></g><!--entity ES--><g class="entity" data-qualified-name="service.ES" id="ent0008" data-source-line="50"><rect x="325.57" y="135.43" width="125.2871" height="45.1328" fill="#F8FAFC" style="stroke:#0891B2;stroke-width:0.5;" rx="6" ry="6"/><rect x="430.8571" y="140.43" width="15" height="10" fill="#F8FAFC" style="stroke:#0891B2;stroke-width:0.5;"/><rect x="428.8571" y="142.43" width="4" height="2" fill="#F8FAFC" style="stroke:#0891B2;stroke-width:0.5;"/><rect x="428.8571" y="146.43" width="4" height="2" fill="#F8FAFC" style="stroke:#0891B2;stroke-width:0.5;"/><text x="340.57" y="167.4969" fill="#0F172A" font-size="13" lengthAdjust="spacing" textLength="85.2871" font-family="sans-serif">EventService</text></g><!--entity SS--><g class="entity" data-qualified-name="service.SS" id="ent0009" data-source-line="51"><rect x="275.77" y="215.43" width="224.9009" height="45.1328" fill="#F8FAFC" style="stroke:#0891B2;stroke-width:0.5;" rx="6" ry="6"/><rect x="480.6709" y="220.43" width="15" height="10" fill="#F8FAFC" style="stroke:#0891B2;stroke-width:0.5;"/><rect x="478.6709" y="222.43" width="4" height="2" fill="#F8FAFC" style="stroke:#0891B2;stroke-width:0.5;"/><rect x="478.6709" y="226.43" width="4" height="2" fill="#F8FAFC" style="stroke:#0891B2;stroke-width:0.5;"/><text x="290.77" y="247.4969" fill="#0F172A" font-size="13" lengthAdjust="spacing" textLength="184.9009" font-family="sans-serif">MeasurementStreamService</text></g><!--entity CR--><g class="entity" data-qualified-name="repository.n.Spring Data Mongo..CR" id="ent0011" data-source-line="54"><rect x="584.58" y="215.43" width="151.4204" height="45.1328" fill="#F8FAFC" style="stroke:#0891B2;stroke-width:0.5;" rx="6" ry="6"/><rect x="716.0004" y="220.43" width="15" height="10" fill="#F8FAFC" style="stroke:#0891B2;stroke-width:0.5;"/><rect x="714.0004" y="222.43" width="4" height="2" fill="#F8FAFC" style="stroke:#0891B2;stroke-width:0.5;"/><rect x="714.0004" y="226.43" width="4" height="2" fill="#F8FAFC" style="stroke:#0891B2;stroke-width:0.5;"/><text x="599.58" y="247.4969" fill="#0F172A" font-size="13" lengthAdjust="spacing" textLength="111.4204" font-family="sans-serif">ConfigRepository</text></g><!--entity MR--><g class="entity" data-qualified-name="repository.n.Spring Data Mongo..MR" id="ent0012" data-source-line="55"><rect x="560.67" y="135.43" width="199.2437" height="45.1328" fill="#F8FAFC" style="stroke:#0891B2;stroke-width:0.5;" rx="6" ry="6"/><rect x="739.9137" y="140.43" width="15" height="10" fill="#F8FAFC" style="stroke:#0891B2;stroke-width:0.5;"/><rect x="737.9137" y="142.43" width="4" height="2" fill="#F8FAFC" style="stroke:#0891B2;stroke-width:0.5;"/><rect x="737.9137" y="146.43" width="4" height="2" fill="#F8FAFC" style="stroke:#0891B2;stroke-width:0.5;"/><text x="575.67" y="167.4969" fill="#0F172A" font-size="13" lengthAdjust="spacing" textLength="159.2437" font-family="sans-serif">MeasurementRepository</text></g><!--entity AR--><g class="entity" data-qualified-name="repository.n.Spring Data Mongo..AR" id="ent0013" data-source-line="56"><rect x="575.03" y="55.43" width="170.5205" height="45.1328" fill="#F8FAFC" style="stroke:#0891B2;stroke-width:0.5;" rx="6" ry="6"/><rect x="725.5505" y="60.43" width="15" height="10" fill="#F8FAFC" style="stroke:#0891B2;stroke-width:0.5;"/><rect x="723.5505" y="62.43" width="4" height="2" fill="#F8FAFC" style="stroke:#0891B2;stroke-width:0.5;"/><rect x="723.5505" y="66.43" width="4" height="2" fill="#F8FAFC" style="stroke:#0891B2;stroke-width:0.5;"/><text x="590.03" y="87.4969" fill="#0F172A" font-size="13" lengthAdjust="spacing" textLength="130.5205" font-family="sans-serif">EventAckRepository</text></g><!--entity Cf--><g class="entity" data-qualified-name="domain.n.entities . enums..Cf" id="ent0015" data-source-line="59"><rect x="619.43" y="510.43" width="81.7104" height="45.1328" fill="#F8FAFC" style="stroke:#0891B2;stroke-width:0.5;" rx="6" ry="6"/><rect x="681.1404" y="515.43" width="15" height="10" fill="#F8FAFC" style="stroke:#0891B2;stroke-width:0.5;"/><rect x="679.1404" y="517.43" width="4" height="2" fill="#F8FAFC" style="stroke:#0891B2;stroke-width:0.5;"/><rect x="679.1404" y="521.43" width="4" height="2" fill="#F8FAFC" style="stroke:#0891B2;stroke-width:0.5;"/><text x="634.43" y="542.4969" fill="#0F172A" font-size="13" lengthAdjust="spacing" textLength="41.7104" font-family="sans-serif">Config</text></g><!--entity Me--><g class="entity" data-qualified-name="domain.n.entities . enums..Me" id="ent0016" data-source-line="60"><rect x="595.52" y="430.43" width="129.5337" height="45.1328" fill="#F8FAFC" style="stroke:#0891B2;stroke-width:0.5;" rx="6" ry="6"/><rect x="705.0537" y="435.43" width="15" height="10" fill="#F8FAFC" style="stroke:#0891B2;stroke-width:0.5;"/><rect x="703.0537" y="437.43" width="4" height="2" fill="#F8FAFC" style="stroke:#0891B2;stroke-width:0.5;"/><rect x="703.0537" y="441.43" width="4" height="2" fill="#F8FAFC" style="stroke:#0891B2;stroke-width:0.5;"/><text x="610.52" y="462.4969" fill="#0F172A" font-size="13" lengthAdjust="spacing" textLength="89.5337" font-family="sans-serif">Measurement</text></g><!--entity Ea--><g class="entity" data-qualified-name="domain.n.entities . enums..Ea" id="ent0017" data-source-line="61"><rect x="609.88" y="350.43" width="100.8105" height="45.1328" fill="#F8FAFC" style="stroke:#0891B2;stroke-width:0.5;" rx="6" ry="6"/><rect x="690.6905" y="355.43" width="15" height="10" fill="#F8FAFC" style="stroke:#0891B2;stroke-width:0.5;"/><rect x="688.6905" y="357.43" width="4" height="2" fill="#F8FAFC" style="stroke:#0891B2;stroke-width:0.5;"/><rect x="688.6905" y="361.43" width="4" height="2" fill="#F8FAFC" style="stroke:#0891B2;stroke-width:0.5;"/><text x="624.88" y="382.4969" fill="#0F172A" font-size="13" lengthAdjust="spacing" textLength="60.8105" font-family="sans-serif">EventAck</text></g><!--entity DB--><g class="entity" data-qualified-name="DB" id="ent0018" data-source-line="63"><path d="M819.91,145.93 C819.91,135.93 861.1817,135.93 861.1817,135.93 C861.1817,135.93 902.4535,135.93 902.4535,145.93 L902.4535,170.0628 C902.4535,180.0628 861.1817,180.0628 861.1817,180.0628 C861.1817,180.0628 819.91,180.0628 819.91,170.0628 L819.91,145.93" style="stroke:#181818;stroke-width:0.5;" fill="#F1F1F1"/><path d="M819.91,145.93 C819.91,155.93 861.1817,155.93 861.1817,155.93 C861.1817,155.93 902.4535,155.93 902.4535,145.93" style="stroke:#181818;stroke-width:0.5;" fill="none"/><text x="829.91" y="171.9969" fill="#0F172A" font-size="13" lengthAdjust="spacing" textLength="62.5435" font-family="sans-serif">MongoDB</text></g><!--link CC to CS--><g class="link" data-entity-1="ent0002" data-entity-2="ent0006" id="lnk19" data-source-line="65" data-link-type="dependency"><path d="M192.23,368.82 C233.05,374.93 278.6751,381.7595 318.0751,387.6595" style="stroke:#64748B;stroke-width:1.1;" fill="none" id="CC-to-CS"/><polygon points="323.02,388.4,314.7116,383.1113,318.0751,387.6595,313.5269,391.023,323.02,388.4" fill="#64748B" style="stroke:#64748B;stroke-width:1.1;stroke-linejoin:miter;stroke-miterlimit:10;"/></g><!--link MC to MS--><g class="link" data-entity-1="ent0003" data-entity-2="ent0007" id="lnk20" data-source-line="66" data-link-type="dependency"><path d="M216.02,292.38 C243.11,296.44 267.505,300.0901 294.105,304.0701" style="stroke:#64748B;stroke-width:1.1;" fill="none" id="MC-to-MS"/><polygon points="299.05,304.81,290.741,299.5222,294.105,304.0701,289.5572,307.4342,299.05,304.81" fill="#64748B" style="stroke:#64748B;stroke-width:1.1;stroke-linejoin:miter;stroke-miterlimit:10;"/></g><!--link MC to SS--><g class="link" data-entity-1="ent0003" data-entity-2="ent0009" id="lnk21" data-source-line="67" data-link-type="dependency"><path d="M216.02,263.62 C235.33,260.73 250.8351,258.41 270.6151,255.45" style="stroke:#64748B;stroke-width:1.1;" fill="none" id="MC-to-SS"/><polygon points="275.56,254.71,266.0671,252.086,270.6151,255.45,267.2511,259.9979,275.56,254.71" fill="#64748B" style="stroke:#64748B;stroke-width:1.1;stroke-linejoin:miter;stroke-miterlimit:10;"/></g><!--link EC to ES--><g class="link" data-entity-1="ent0004" data-entity-2="ent0008" id="lnk22" data-source-line="68" data-link-type="dependency"><path d="M189.77,187.54 C231.85,181.25 280.005,174.0394 320.535,167.9794" style="stroke:#64748B;stroke-width:1.1;" fill="none" id="EC-to-ES"/><polygon points="325.48,167.24,315.9874,164.6149,320.535,167.9794,317.1704,172.5269,325.48,167.24" fill="#64748B" style="stroke:#64748B;stroke-width:1.1;stroke-linejoin:miter;stroke-miterlimit:10;"/></g><!--link CS to CR--><g class="link" data-entity-1="ent0006" data-entity-2="ent0011" id="lnk23" data-source-line="69" data-link-type="dependency"><path d="M453.36,390.16 C477.84,384.5 504.65,374.77 524.67,358 C533.81,350.34 529.12,343.23 536.67,334 C560.7,304.59 591.1271,281.3095 617.4471,263.7995" style="stroke:#64748B;stroke-width:1.1;" fill="none" id="CS-to-CR"/><polygon points="621.61,261.03,611.9011,262.6847,617.4471,263.7995,616.3323,269.3454,621.61,261.03" fill="#64748B" style="stroke:#64748B;stroke-width:1.1;stroke-linejoin:miter;stroke-miterlimit:10;"/></g><!--link MS to MR--><g class="link" data-entity-1="ent0007" data-entity-2="ent0012" id="lnk24" data-source-line="70" data-link-type="dependency"><path d="M477.44,307.45 C495.3,301.41 512.35,292.15 524.67,278 C548.27,250.88 513.44,225.45 536.67,198 C543.25,190.22 547.0134,186.4112 555.9134,181.3512" style="stroke:#64748B;stroke-width:1.1;" fill="none" id="MS-to-MR"/><polygon points="560.26,178.88,550.4591,179.8509,555.9134,181.3512,554.4131,186.8055,560.26,178.88" fill="#64748B" style="stroke:#64748B;stroke-width:1.1;stroke-linejoin:miter;stroke-miterlimit:10;"/></g><!--link ES to MR--><g class="link" data-entity-1="ent0008" data-entity-2="ent0012" id="lnk25" data-source-line="71" data-link-type="dependency"><path d="M451.18,158 C483.49,158 518.79,158 555.3,158" style="stroke:#64748B;stroke-width:1.1;" fill="none" id="ES-to-MR"/><polygon points="560.3,158,551.3,154,555.3,158,551.3,162,560.3,158" fill="#64748B" style="stroke:#64748B;stroke-width:1.1;stroke-linejoin:miter;stroke-miterlimit:10;"/></g><!--link ES to AR--><g class="link" data-entity-1="ent0008" data-entity-2="ent0013" id="lnk26" data-source-line="72" data-link-type="dependency"><path d="M451.18,139.65 C489.95,128.16 535.4462,114.6912 576.8662,102.4112" style="stroke:#64748B;stroke-width:1.1;" fill="none" id="ES-to-AR"/><polygon points="581.66,100.99,571.8943,99.7132,576.8662,102.4112,574.1682,107.3832,581.66,100.99" fill="#64748B" style="stroke:#64748B;stroke-width:1.1;stroke-linejoin:miter;stroke-miterlimit:10;"/></g><!--link CR to DB--><g class="link" data-entity-1="ent0011" data-entity-2="ent0018" id="lnk27" data-source-line="73" data-link-type="dependency"><path d="M736.27,215.75 C752.18,210.42 768.75,204.4 783.91,198 C796.03,192.89 804.4054,188.8887 815.9954,182.7887" style="stroke:#64748B;stroke-width:1.1;" fill="none" id="CR-to-DB"/><polygon points="820.42,180.46,810.5928,181.112,815.9954,182.7887,814.3187,188.1914,820.42,180.46" fill="#64748B" style="stroke:#64748B;stroke-width:1.1;stroke-linejoin:miter;stroke-miterlimit:10;"/></g><!--link MR to DB--><g class="link" data-entity-1="ent0012" data-entity-2="ent0018" id="lnk28" data-source-line="74" data-link-type="dependency"><path d="M760.15,158 C781.21,158 797.3,158 814.66,158" style="stroke:#64748B;stroke-width:1.1;" fill="none" id="MR-to-DB"/><polygon points="819.66,158,810.66,154,814.66,158,810.66,162,819.66,158" fill="#64748B" style="stroke:#64748B;stroke-width:1.1;stroke-linejoin:miter;stroke-miterlimit:10;"/></g><!--link AR to DB--><g class="link" data-entity-1="ent0013" data-entity-2="ent0018" id="lnk29" data-source-line="75" data-link-type="dependency"><path d="M738.55,101.02 C753.76,106.16 769.47,111.91 783.91,118 C796.03,123.11 804.4054,127.1113 815.9954,133.2113" style="stroke:#64748B;stroke-width:1.1;" fill="none" id="AR-to-DB"/><polygon points="820.42,135.54,814.3187,127.8086,815.9954,133.2113,810.5928,134.888,820.42,135.54" fill="#64748B" style="stroke:#64748B;stroke-width:1.1;stroke-linejoin:miter;stroke-miterlimit:10;"/></g><!--link CS to Cf--><g class="link" data-entity-1="ent0006" data-entity-2="ent0015" id="lnk30" data-source-line="76" data-link-type="dependency"><path d="M419.78,421.03 C448.69,441.98 493.9,472.67 536.67,493 C563.16,505.6 589.8398,514.4155 614.2698,521.3455" style="stroke:#64748B;stroke-width:1.1;stroke-dasharray:7,7;" fill="none" id="CS-to-Cf"/><polygon points="619.08,522.71,611.5132,516.4057,614.2698,521.3455,609.33,524.1021,619.08,522.71" fill="#64748B" style="stroke:#64748B;stroke-width:1.1;stroke-linejoin:miter;stroke-miterlimit:10;"/></g><!--link MS to Me--><g class="link" data-entity-1="ent0007" data-entity-2="ent0016" id="lnk31" data-source-line="77" data-link-type="dependency"><path d="M477.47,329.4 C495.11,335.41 512.06,344.45 524.67,358 C541.71,376.32 519.89,394.44 536.67,413 C551.76,429.69 569.0689,438.1513 590.3989,443.8413" style="stroke:#64748B;stroke-width:1.1;stroke-dasharray:7,7;" fill="none" id="MS-to-Me"/><polygon points="595.23,445.13,587.5651,438.9454,590.3989,443.8413,585.5031,446.6751,595.23,445.13" fill="#64748B" style="stroke:#64748B;stroke-width:1.1;stroke-linejoin:miter;stroke-miterlimit:10;"/></g><!--link ES to Ea--><g class="link" data-entity-1="ent0008" data-entity-2="ent0017" id="lnk32" data-source-line="78" data-link-type="dependency"><path d="M451.05,161.82 C477.42,166.7 506.29,176.93 524.67,198 C548.01,224.77 518.75,246.33 536.67,277 C555.08,308.52 583.9012,330.8866 611.0712,347.4566" style="stroke:#64748B;stroke-width:1.1;stroke-dasharray:7,7;" fill="none" id="ES-to-Ea"/><polygon points="615.34,350.06,609.7389,341.9589,611.0712,347.4566,605.5735,348.789,615.34,350.06" fill="#64748B" style="stroke:#64748B;stroke-width:1.1;stroke-linejoin:miter;stroke-miterlimit:10;"/></g><?plantuml-src ZLNRRfj047tdAqRfGn8rYO8lYQrAaJ26zY6ycFQfxSCQniusi4jsbqHfLQaVqI_ibtGmZhDSPCUIqOWvUywPOHYEuVpy750Rdad8POfAI1XS3gxWP9KnSmOAKobIPAayWu9bQ1Yac46Xv3CcHdw05QKb91bJaW2AGOPhlkGPJraAAE0ZDv_AvMcbu-XxBYfC3akMtA-LB4NgoqmgU1TkVXP2tv7c4nThMB5CevNP7bC25RW3Ap775Iip4qfXjgoNeNizyFeXCV-9u0wjfAUKVDgUl1fTZoQpTjAY7bsFnrVJDk3p7K_k1MeDxeLh9Qa_MiywHKz2B_GxCAdeERnKC9cwiq4_PA-OPupYozAWvNau7BdZiTrammmUjbN3zjegDIPCTxa2FmmQp_K5k9UDqMYfhgymcC_77PZDv0z6xgLjlI0IjkwfqGt7uRG7QBDDHzvmDh4xA_D22XJc3Ozo1zrRgQ1txZ3P1cNpTAQFheOdl61zthgrleBtrglneKIHu2rVqLyqFVYp-JXmUz0VIRmux4B8ljaBmga_RACQijx4knmrfu0_SlDyk8qxvA7Xsw3cdEMqtDuqXeq3UmTIBd_GuZpiTOlhSNeC9BGcJBMAN-SCDPnyYMvFuT-Vly3KGyaD4PIqaGiwdB22QG8BA0K3BJCwp1Kc2QTRH9DYWRJdHSAPlkWRuzWyPmXbdWsS35S6Z0J5rtUcfZ54upZRTmYEdd1v1BySWA--52k-fgjHCijGVGUouVjLAaAcIuKvLlkfaOys-U2ncmbyv_UhZ4Rro1DiICNrlLedRkdOoIZUYTYtWyuPev3bDYIERHCA2wavBQBdR-8aBbJroPep-av6KgpbQSFSOeUj_IrQMgryjDXPz9BxLj9Rs2vIcJCko05XkU4q3E_fwrlckccWbbsrP6injCNgNZ2IIAcM9MriEDeKD9yTLQdvp75ydxxgDrMNepgATX6rAAWZwgSVrxY54zKHrHMq8oh7NsmYeevsaRUBYENYugOo7zKH6GxgA63_0G00?></g></svg>