<svg xmlns="http://www.w3.org/2000/svg" xmlns:xlink="http://www.w3.org/1999/xlink" version="1.1" data-diagram-type="DESCRIPTION" style="width:1218px;height:659px;background:#FFFFFF;" width="1218px" height="659px" viewBox="0 0 1218 659" zoomAndPan="magnify" preserveAspectRatio="none" contentStyleType="text/css"><?plantuml 1.2026.7beta8?><defs/><g font-family="sans-serif" lengthAdjust="spacing"><!--cluster PC--><g class="cluster" data-qualified-name="PC" id="ent0001" data-source-line="10"><polygon points="739,29,749,19,1032,19,1032,152.6,1022,162.6,739,162.6,739,29" fill="#FFF" style="stroke:#000;stroke-width:1;stroke-linejoin:miter;stroke-miterlimit:10;"/><line x1="1022" y1="29" x2="1032" y2="19" style="stroke:#000;stroke-width:1;"/><line x1="739" y1="29" x2="1022" y2="29" style="stroke:#000;stroke-width:1;"/><line x1="1022" y1="29" x2="1022" y2="162.6" style="stroke:#000;stroke-width:1;"/><text x="849.942" y="44.995" fill="#000" font-size="14" textLength="63.116" font-style="italic" font-family="Verdana">«device»</text><text x="818.186" y="61.292" fill="#000" font-size="14" textLength="126.629" font-weight="700" font-family="Verdana">PC del operador</text></g><!--cluster CF--><g class="cluster" data-qualified-name="CF" id="ent0003" data-source-line="13"><polygon points="835,252.6,845,242.6,1096,242.6,1096,359.89,1086,369.89,835,369.89,835,252.6" fill="#FFF" style="stroke:#000;stroke-width:1;stroke-linejoin:miter;stroke-miterlimit:10;"/><line x1="1086" y1="252.6" x2="1096" y2="242.6" style="stroke:#000;stroke-width:1;"/><line x1="835" y1="252.6" x2="1086" y2="252.6" style="stroke:#000;stroke-width:1;"/><line x1="1086" y1="252.6" x2="1086" y2="369.89" style="stroke:#000;stroke-width:1;"/><text x="873.634" y="268.595" fill="#000" font-size="14" textLength="175.731" font-style="italic" font-family="Verdana">«executionEnvironment»</text><text x="868.935" y="284.892" fill="#000" font-size="14" textLength="185.131" font-weight="700" font-family="Verdana">Cloudflare Pages (CDN)</text></g><!--cluster RW--><g class="cluster" data-qualified-name="RW" id="ent0005" data-source-line="16"><polygon points="498,252.45,508,242.45,803,242.45,803,360.04,793,370.04,498,370.04,498,252.45" fill="#FFF" style="stroke:#000;stroke-width:1;stroke-linejoin:miter;stroke-miterlimit:10;"/><line x1="793" y1="252.45" x2="803" y2="242.45" style="stroke:#000;stroke-width:1;"/><line x1="498" y1="252.45" x2="793" y2="252.45" style="stroke:#000;stroke-width:1;"/><line x1="793" y1="252.45" x2="793" y2="370.04" style="stroke:#000;stroke-width:1;"/><text x="558.634" y="268.445" fill="#000" font-size="14" textLength="175.731" font-style="italic" font-family="Verdana">«executionEnvironment»</text><text x="531.899" y="284.742" fill="#000" font-size="14" textLength="229.202" font-weight="700" font-family="Verdana">Railway (contenedor Docker)</text></g><!--cluster ATLAS--><g class="cluster" data-qualified-name="ATLAS" id="ent0007" data-source-line="19"><polygon points="525,436.89,535,426.89,776,426.89,776,534.19,766,544.19,525,544.19,525,436.89" fill="#FFF" style="stroke:#000;stroke-width:1;stroke-linejoin:miter;stroke-miterlimit:10;"/><line x1="766" y1="436.89" x2="776" y2="426.89" style="stroke:#000;stroke-width:1;"/><line x1="525" y1="436.89" x2="766" y2="436.89" style="stroke:#000;stroke-width:1;"/><line x1="766" y1="436.89" x2="766" y2="544.19" style="stroke:#000;stroke-width:1;"/><text x="558.634" y="452.885" fill="#000" font-size="14" textLength="175.731" font-style="italic" font-family="Verdana">«executionEnvironment»</text><text x="565.614" y="469.182" fill="#000" font-size="14" textLength="161.772" font-weight="700" font-family="Verdana">MongoDB Atlas (M0)</text></g><!--cluster RPI--><g class="cluster" data-qualified-name="RPI" id="ent0009" data-source-line="22"><polygon points="21,21,31,11,474,11,474,360.04,464,370.04,21,370.04,21,21" fill="#FFF" style="stroke:#000;stroke-width:1;stroke-linejoin:miter;stroke-miterlimit:10;"/><line x1="464" y1="21" x2="474" y2="11" style="stroke:#000;stroke-width:1;"/><line x1="21" y1="21" x2="464" y2="21" style="stroke:#000;stroke-width:1;"/><line x1="464" y1="21" x2="464" y2="370.04" style="stroke:#000;stroke-width:1;"/><text x="211.942" y="36.995" fill="#000" font-size="14" textLength="63.116" font-style="italic" font-family="Verdana">«device»</text><text x="174.508" y="53.292" fill="#000" font-size="14" textLength="137.983" font-weight="700" font-family="Verdana">Raspberry Pi 3B+</text><text x="153.748" y="69.589" fill="#000" font-size="14" textLength="179.505" font-weight="700" font-family="Verdana">Raspberry Pi OS 32-bit</text></g><!--entity SPA--><g class="entity" data-qualified-name="PC.SPA" id="ent0002" data-source-line="11"><rect x="763.05" y="83" width="225.891" height="55.594" fill="#FFF" style="stroke:#000;stroke-width:1;" rx="2.5" ry="2.5"/><polygon points="971.941,88,971.941,102,983.941,102,983.941,94,977.941,88,971.941,88" fill="#FFF" style="stroke:#000;stroke-width:1;stroke-linejoin:miter;stroke-miterlimit:10;"/><line x1="977.941" y1="88" x2="977.941" y2="94" style="stroke:#000;stroke-width:1;"/><line x1="983.941" y1="94" x2="977.941" y2="94" style="stroke:#000;stroke-width:1;"/><text x="773.05" y="108.995" fill="#000" font-size="14" textLength="71.463" font-family="Verdana">SPA React</text><text x="773.05" y="125.292" fill="#000" font-size="14" textLength="195.891" font-family="Verdana">(corriendo en el navegador)</text></g><!--entity DIST--><g class="entity" data-qualified-name="CF.DIST" id="ent0004" data-source-line="14"><rect x="858.7" y="306.6" width="164.606" height="39.297" fill="#FFF" style="stroke:#000;stroke-width:1;" rx="2.5" ry="2.5"/><polygon points="1006.306,311.6,1006.306,325.6,1018.306,325.6,1018.306,317.6,1012.306,311.6,1006.306,311.6" fill="#FFF" style="stroke:#000;stroke-width:1;stroke-linejoin:miter;stroke-miterlimit:10;"/><line x1="1012.306" y1="311.6" x2="1012.306" y2="317.6" style="stroke:#000;stroke-width:1;"/><line x1="1018.306" y1="317.6" x2="1012.306" y2="317.6" style="stroke:#000;stroke-width:1;"/><text x="868.7" y="332.595" fill="#000" font-size="14" textLength="134.606" font-family="Verdana">dist/ (HTML/JS/CSS)</text></g><!--entity JAR--><g class="entity" data-qualified-name="RW.JAR" id="ent0006" data-source-line="17"><rect x="539.06" y="298.45" width="221.871" height="55.594" fill="#FFF" style="stroke:#000;stroke-width:1;" rx="2.5" ry="2.5"/><polygon points="743.931,303.45,743.931,317.45,755.931,317.45,755.931,309.45,749.931,303.45,743.931,303.45" fill="#FFF" style="stroke:#000;stroke-width:1;stroke-linejoin:miter;stroke-miterlimit:10;"/><line x1="749.931" y1="303.45" x2="749.931" y2="309.45" style="stroke:#000;stroke-width:1;"/><line x1="755.931" y1="309.45" x2="749.931" y2="309.45" style="stroke:#000;stroke-width:1;"/><text x="549.06" y="324.445" fill="#000" font-size="14" textLength="191.871" font-family="Verdana">control-system-backend.jar</text><text x="549.06" y="340.742" fill="#000" font-size="14" textLength="140.438" font-family="Verdana">Spring Boot / JRE 25</text></g><!--entity DB--><g class="entity" data-qualified-name="ATLAS.DB" id="ent0008" data-source-line="20"><path d="M590.28,492.89 C590.28,482.89 650.005,482.89 650.005,482.89 C650.005,482.89 709.729,482.89 709.729,492.89 L709.729,518.187 C709.729,528.187 650.005,528.187 650.005,528.187 C650.005,528.187 590.28,528.187 590.28,518.187 L590.28,492.89" style="stroke:#000;stroke-width:1;" fill="#FFF"/><path d="M590.28,492.89 C590.28,502.89 650.005,502.89 650.005,502.89 C650.005,502.89 709.729,502.89 709.729,492.89" style="stroke:#000;stroke-width:1;" fill="none"/><text x="600.28" y="519.885" fill="#000" font-size="14" textLength="99.449" font-family="Verdana">controlsystem</text></g><!--entity GW--><g class="entity" data-qualified-name="RPI.GW" id="ent0010" data-source-line="23"><rect x="234.32" y="83" width="223.361" height="55.594" fill="#FFF" style="stroke:#000;stroke-width:1;" rx="2.5" ry="2.5"/><polygon points="440.681,88,440.681,102,452.681,102,452.681,94,446.681,88,440.681,88" fill="#FFF" style="stroke:#000;stroke-width:1;stroke-linejoin:miter;stroke-miterlimit:10;"/><line x1="446.681" y1="88" x2="446.681" y2="94" style="stroke:#000;stroke-width:1;"/><line x1="452.681" y1="94" x2="446.681" y2="94" style="stroke:#000;stroke-width:1;"/><text x="244.32" y="108.995" fill="#000" font-size="14" textLength="81.505" font-family="Verdana">gateway.py</text><text x="244.32" y="125.292" fill="#000" font-size="14" textLength="193.361" font-family="Verdana">(systemd: control-gateway)</text></g><!--entity PLC--><g class="entity" data-qualified-name="RPI.PLC" id="ent0011" data-source-line="24"><rect x="36.5" y="298.45" width="180.999" height="55.594" fill="#FFF" style="stroke:#000;stroke-width:1;" rx="2.5" ry="2.5"/><polygon points="200.499,303.45,200.499,317.45,212.499,317.45,212.499,309.45,206.499,303.45,200.499,303.45" fill="#FFF" style="stroke:#000;stroke-width:1;stroke-linejoin:miter;stroke-miterlimit:10;"/><line x1="206.499" y1="303.45" x2="206.499" y2="309.45" style="stroke:#000;stroke-width:1;"/><line x1="212.499" y1="309.45" x2="206.499" y2="309.45" style="stroke:#000;stroke-width:1;"/><text x="46.5" y="324.445" fill="#000" font-size="14" textLength="147.185" font-family="Verdana">OpenPLC_v3 runtime</text><text x="46.5" y="340.742" fill="#000" font-size="14" textLength="150.999" font-family="Verdana">(control_histeresis.st)</text></g><!--entity PIG--><g class="entity" data-qualified-name="RPI.PIG" id="ent0012" data-source-line="25"><rect x="311.52" y="298.45" width="136.969" height="55.594" fill="#FFF" style="stroke:#000;stroke-width:1;" rx="2.5" ry="2.5"/><polygon points="431.489,303.45,431.489,317.45,443.489,317.45,443.489,309.45,437.489,303.45,431.489,303.45" fill="#FFF" style="stroke:#000;stroke-width:1;stroke-linejoin:miter;stroke-miterlimit:10;"/><line x1="437.489" y1="303.45" x2="437.489" y2="309.45" style="stroke:#000;stroke-width:1;"/><line x1="443.489" y1="309.45" x2="437.489" y2="309.45" style="stroke:#000;stroke-width:1;"/><text x="321.52" y="324.445" fill="#000" font-size="14" textLength="51.892" font-family="Verdana">pigpiod</text><text x="321.52" y="340.742" fill="#000" font-size="14" textLength="106.969" font-family="Verdana">(daemon GPIO)</text></g><!--entity DHT--><g class="entity" data-qualified-name="DHT" id="ent0013" data-source-line="27"><polygon points="108.94,484.24,118.94,474.24,249.052,474.24,249.052,526.834,239.052,536.834,108.94,536.834,108.94,484.24" fill="#FFF" style="stroke:#000;stroke-width:1;stroke-linejoin:miter;stroke-miterlimit:10;"/><line x1="239.052" y1="484.24" x2="249.052" y2="474.24" style="stroke:#000;stroke-width:1;"/><line x1="108.94" y1="484.24" x2="239.052" y2="484.24" style="stroke:#000;stroke-width:1;"/><line x1="239.052" y1="484.24" x2="239.052" y2="536.834" style="stroke:#000;stroke-width:1;"/><text x="142.438" y="507.235" fill="#000" font-size="14" textLength="63.116" font-style="italic" font-family="Verdana">«device»</text><text x="123.94" y="523.532" fill="#000" font-size="14" textLength="47.988" font-family="Verdana">Sensor</text><text x="171.928" y="523.532" fill="#000" font-size="14" font-family="Verdana"> </text><text x="176.378" y="523.532" fill="#000" font-size="14" textLength="47.674" font-family="Verdana">DHT22</text></g><!--entity RLY--><g class="entity" data-qualified-name="RLY" id="ent0014" data-source-line="28"><polygon points="326.55,484.24,336.55,474.24,471.441,474.24,471.441,526.834,461.441,536.834,326.55,536.834,326.55,484.24" fill="#FFF" style="stroke:#000;stroke-width:1;stroke-linejoin:miter;stroke-miterlimit:10;"/><line x1="461.441" y1="484.24" x2="471.441" y2="474.24" style="stroke:#000;stroke-width:1;"/><line x1="326.55" y1="484.24" x2="461.441" y2="484.24" style="stroke:#000;stroke-width:1;"/><line x1="461.441" y1="484.24" x2="461.441" y2="536.834" style="stroke:#000;stroke-width:1;"/><text x="362.437" y="507.235" fill="#000" font-size="14" textLength="63.116" font-style="italic" font-family="Verdana">«device»</text><text x="341.55" y="523.532" fill="#000" font-size="14" textLength="39.095" font-family="Verdana">Relay</text><text x="380.645" y="523.532" fill="#000" font-size="14" font-family="Verdana"> </text><text x="385.095" y="523.532" fill="#000" font-size="14" font-family="Verdana">+</text><text x="396.825" y="523.532" fill="#000" font-size="14" font-family="Verdana"> </text><text x="401.276" y="523.532" fill="#000" font-size="14" textLength="45.165" font-family="Verdana">Cooler</text></g><!--link PC to CF--><g class="link" data-entity-1="ent0001" data-entity-2="ent0003" id="lnk15" data-source-line="30" data-link-type="dependency"><path d="M1032.047,160.855 C1032.16,161.548 1032.274,162.245 1032.389,162.946 C1033.309,168.557 1034.276,174.453 1035.274,180.538 C1037.269,192.707 1039.389,205.635 1041.509,218.561 C1042.569,225.025 1043.628,231.488 1044.673,237.856 C1044.803,238.652 1044.933,239.446 1045.064,240.239 C1045.129,240.635 1045.193,241.031 1045.258,241.427 C1045.291,241.625 1044.514,236.888 1044.546,237.086" style="stroke:#000;stroke-width:1;" fill="none" id="PC-to-CF"/><polygon points="1045.356,242.02,1047.846,232.491,1044.546,237.086,1039.952,233.786,1045.356,242.02" fill="#000" style="stroke:#000;stroke-width:1;stroke-linejoin:miter;stroke-miterlimit:10;"/><text x="1042" y="207.167" fill="#000" font-size="13" textLength="160.551" font-family="Verdana">HTTPS (descarga la SPA)</text></g><!--link SPA to JAR--><g class="link" data-entity-1="ent0002" data-entity-2="ent0006" id="lnk16" data-source-line="31" data-link-type="dependency"><path d="M858.63,138.97 C843.4,161.64 819.86,194.1 795,218.6 C763.95,249.19 727.85,275.351 697.63,295.341" style="stroke:#000;stroke-width:1;" fill="none" id="SPA-to-JAR"/><polygon points="693.46,298.1,703.173,296.471,697.63,295.341,698.76,289.799,693.46,298.1" fill="#000" style="stroke:#000;stroke-width:1;stroke-linejoin:miter;stroke-miterlimit:10;"/><text x="823" y="207.167" fill="#000" font-size="13" textLength="131.46" font-family="Verdana">HTTPS · REST + SSE</text></g><!--link JAR to DB--><g class="link" data-entity-1="ent0006" data-entity-2="ent0008" id="lnk17" data-source-line="32" data-link-type="dependency"><path d="M650,354.17 C650,389.24 650,444.89 650,477.41" style="stroke:#000;stroke-width:1;" fill="none" id="JAR-to-DB"/><polygon points="650,482.41,654,473.41,650,477.41,646,473.41,650,482.41" fill="#000" style="stroke:#000;stroke-width:1;stroke-linejoin:miter;stroke-miterlimit:10;"/><text x="651" y="406.957" fill="#000" font-size="13" textLength="128.102" font-family="Verdana">mongodb+srv · TLS</text></g><!--link GW to JAR--><g class="link" data-entity-1="ent0010" data-entity-2="ent0006" id="lnk18" data-source-line="33" data-link-type="dependency"><path d="M384.81,139.05 C443.24,180.07 549.038,254.357 607.328,295.287" style="stroke:#000;stroke-width:1;" fill="none" id="GW-to-JAR"/><polygon points="611.42,298.16,606.353,289.715,607.328,295.287,601.756,296.262,611.42,298.16" fill="#000" style="stroke:#000;stroke-width:1;stroke-linejoin:miter;stroke-miterlimit:10;"/><text x="499" y="207.167" fill="#000" font-size="13" textLength="228.535" font-family="Verdana">HTTPS · REST (config / mediciones)</text></g><!--link GW to PLC--><g class="link" data-entity-1="ent0010" data-entity-2="ent0011" id="lnk19" data-source-line="34" data-link-type="dependency"><path d="M228.926,130.565 C165.526,143.165 100.11,161.34 81,186.6 C55.67,220.06 79.354,264.185 101.354,294.035" style="stroke:#000;stroke-width:1;" fill="none" id="GW-PLC"/><polygon points="233.83,129.59,224.223,127.421,228.926,130.565,225.782,135.268,233.83,129.59" fill="#000" style="stroke:#000;stroke-width:1;stroke-linejoin:miter;stroke-miterlimit:10;"/><polygon points="104.32,298.06,102.2,288.442,101.354,294.035,95.76,293.188,104.32,298.06" fill="#000" style="stroke:#000;stroke-width:1;stroke-linejoin:miter;stroke-miterlimit:10;"/><text x="158.623" y="199.667" fill="#000" font-size="13" textLength="113.001" font-family="Verdana">Modbus TCP :502</text><text x="82" y="214.8" fill="#000" font-size="13" textLength="266.246" font-family="Verdana">(HR0..5 entradas · coil 0 + HR10 salidas)</text></g><!--link GW to PIG--><g class="link" data-entity-1="ent0010" data-entity-2="ent0012" id="lnk20" data-source-line="35" data-link-type="dependency"><path d="M350.31,138.83 C356.83,179.78 368.353,252.142 374.893,293.152" style="stroke:#000;stroke-width:1;" fill="none" id="GW-to-PIG"/><polygon points="375.68,298.09,378.213,288.572,374.893,293.152,370.313,289.832,375.68,298.09" fill="#000" style="stroke:#000;stroke-width:1;stroke-linejoin:miter;stroke-miterlimit:10;"/><text x="364" y="207.167" fill="#000" font-size="13" textLength="76.921" font-family="Verdana">socket local</text></g><!--link PIG to DHT--><g class="link" data-entity-1="ent0012" data-entity-2="ent0013" id="lnk21" data-source-line="36" data-link-type="dependency"><path d="M319.08,354.5 C293.47,365.28 263.13,377.14 235,385.89 C219.35,390.76 210.36,382.07 199,393.89 C178.71,415.01 175.193,444.372 175.873,469.202" style="stroke:#000;stroke-width:1;" fill="none" id="PIG-to-DHT"/><polygon points="176.01,474.2,179.762,465.094,175.873,469.202,171.765,465.313,176.01,474.2" fill="#000" style="stroke:#000;stroke-width:1;stroke-linejoin:miter;stroke-miterlimit:10;"/><text x="200" y="406.957" fill="#000" font-size="13" textLength="178.268" font-family="Verdana">GPIO4 (lee temp/humedad)</text></g><!--link PIG to RLY--><g class="link" data-entity-1="ent0012" data-entity-2="ent0014" id="lnk22" data-source-line="37" data-link-type="dependency"><path d="M382.89,354.17 C386.33,386.33 391.547,435.038 395.167,468.808" style="stroke:#000;stroke-width:1;" fill="none" id="PIG-to-RLY"/><polygon points="395.7,473.78,398.718,464.405,395.167,468.808,390.764,465.258,395.7,473.78" fill="#000" style="stroke:#000;stroke-width:1;stroke-linejoin:miter;stroke-miterlimit:10;"/><text x="389" y="406.957" fill="#000" font-size="13" textLength="189.884" font-family="Verdana">GPIO14 (acciona, activo-alto)</text></g><g class="legend" data-source-line="39"><rect x="770.296" y="568.19" width="436.255" height="79.188" fill="none" style="stroke:#000;stroke-width:1;" rx="7.5" ry="7.5"/><text x="780.17" y="588.185" fill="#000" font-size="14" textLength="91.232" font-weight="700" font-family="Verdana">Estereotipo</text><text x="964.802" y="588.185" fill="#000" font-size="14" textLength="87.944" font-weight="700" font-family="Verdana">Significado</text><text x="779.747" y="604.482" fill="#000" font-size="14" textLength="63.116" font-family="Verdana">«device»</text><text x="964.378" y="604.482" fill="#000" font-size="14" textLength="157.473" font-family="Verdana">nodo fisico (hardware)</text><text x="779.747" y="620.779" fill="#000" font-size="14" textLength="175.731" font-family="Verdana">«executionEnvironment»</text><text x="964.378" y="620.779" fill="#000" font-size="14" textLength="229.94" font-family="Verdana">entorno de ejecucion gestionado</text><text x="779.747" y="637.076" fill="#000" font-size="14" textLength="67.539" font-family="Verdana">«artifact»</text><text x="964.378" y="637.076" fill="#000" font-size="14" textLength="232.723" font-family="Verdana">artefacto desplegado en un nodo</text><line x1="775.296" y1="575.19" x2="1201.551" y2="575.19" style="stroke:#000;stroke-width:1;"/><line x1="775.296" y1="591.487" x2="1201.551" y2="591.487" style="stroke:#000;stroke-width:1;"/><line x1="775.296" y1="607.784" x2="1201.551" y2="607.784" style="stroke:#000;stroke-width:1;"/><line x1="775.296" y1="624.081" x2="1201.551" y2="624.081" style="stroke:#000;stroke-width:1;"/><line x1="775.296" y1="640.378" x2="1201.551" y2="640.378" style="stroke:#000;stroke-width:1;"/><line x1="775.296" y1="575.19" x2="775.296" y2="640.378" style="stroke:#000;stroke-width:1;"/><line x1="959.928" y1="575.19" x2="959.928" y2="640.378" style="stroke:#000;stroke-width:1;"/><line x1="1201.551" y1="575.19" x2="1201.551" y2="640.378" style="stroke:#000;stroke-width:1;"/></g><?plantuml-src XLHTRkD637xNATZqeHPI_wpJl0Hf05lsnWdiZI6f20e4M8mbMfxDQ4QO6JbhD0Ns4Br53z27lkKeFKb9AJ4ITuiL3CWQVYG_ykFmEx_14g5IGkh0tKjT2IjAM8dilh2crdbabB7m_VlcUOLm6v6R1waBM0lbCFW19b8KP16G8_rSfIGMDKBdbyKyX7--_07QvCP19yUjp13wW9yngxqqUggtqXfTelRXZo2inxN8F65tO6il74VCJ5bhcOcCyBrNF2Wemcy1mFY0ykr6UkHpOtEqxTbO4IZuFGWQhwDbH94Lc0ej5MEFuFoy9NTn0PILp1oO-4Zc0qV9SWGnqjyxtScCjH9rRW0rK10jjbXmbF28VGbAUTeqaJ9rlbR28Yn5WTI2QF8Xv6nVwq2REtf_a3kNplUXCqiNy_vrqe-If4qqkKhIVQPOIFKWTa3ij4UDH0Sc9hj7-urqyUr1EWvWZUgwdVDOTdaUgDZU9s7lT59PrdriZ2SLh-Cf34yRBjUZU4zbONHX9cCOUKMMpcBm3GQZT3vA6XAvy68b7Ev9j1pQQiUlQdNL2gtTmLB2oVZuJhyvkKdWPDXTIN-eQhoyEgYr41wfQxrgHxgsoV8pUEd0ixNjzkNj6y-R2lLo7dtSdj2WQYzBR2QZSVou8SNGefEkvtphJjWt_fKiAcboSie5baR3vVBgvXbwTRalDK7jMCbPEXmUbaE7Bmr1HT8VGsICmlyCSpp_DGXeehlT2nwkCvYbwJBXs-WoOGi1Il3GXW4FEOD8p3tgwI-8fqbAmPDa6h254QJk6PIiSxuwTdRBi7IU19Ut_nk0cxEM1OrDYRdakumkP8Tpzg3saCU2mjKEqcW9PwU38JLd5WzwlLEwQ9xkATL2qJ8Z5Go8q2n-Dm0db2H3-9AQcaU174--1sKoeG8-QaZFKZ9ndt-2Za84KhlgRshY8_9m3wDsFSFU4KvaJ5NGRigyt9gkKDw4GQ2me4i1LXORJxe-_WpJHdBZPMNuCv65bclQMhGc7Xa1Jt-seZpzJH-y464jdSmCT3R2vW-q8y8zyckNfV6Zjx7Qy5h4JuHXSa2BXR6lKxqCMkEqNwljScwM5U-kMhSy7WEgfQteNm00?></g></svg>