<svg xmlns="http://www.w3.org/2000/svg" xmlns:xlink="http://www.w3.org/1999/xlink" version="1.1" data-diagram-type="DESCRIPTION" style="width:1185px;height:546px;background:#FFFFFF;" width="1185px" height="546px" viewBox="0 0 1185 546" zoomAndPan="magnify" preserveAspectRatio="none" contentStyleType="text/css"><?plantuml 1.2026.7beta3?><defs/><g><!--cluster PC--><g class="cluster" data-qualified-name="PC" id="ent0001" data-source-line="10"><polygon points="718,21,728,11,1011,11,1011,144.6,1001,154.6,718,154.6,718,21" fill="#FFFFFF" style="stroke:#000000;stroke-width:1;stroke-linejoin:miter;stroke-miterlimit:10;"/><line x1="1001" y1="21" x2="1011" y2="11" style="stroke:#000000;stroke-width:1;"/><line x1="718" y1="21" x2="1001" y2="21" style="stroke:#000000;stroke-width:1;"/><line x1="1001" y1="21" x2="1001" y2="154.6" style="stroke:#000000;stroke-width:1;"/><text x="828.9419" y="36.9951" fill="#000000" font-size="14" lengthAdjust="spacing" textLength="63.1162" font-style="italic" font-family="Verdana">«device»</text><text x="797.1855" y="53.292" fill="#000000" font-size="14" lengthAdjust="spacing" textLength="126.6289" font-weight="700" font-family="Verdana">PC del operador</text></g><!--cluster CF--><g class="cluster" data-qualified-name="CF" id="ent0003" data-source-line="13"><polygon points="790,229.6,800,219.6,1051,219.6,1051,336.89,1041,346.89,790,346.89,790,229.6" fill="#FFFFFF" style="stroke:#000000;stroke-width:1;stroke-linejoin:miter;stroke-miterlimit:10;"/><line x1="1041" y1="229.6" x2="1051" y2="219.6" style="stroke:#000000;stroke-width:1;"/><line x1="790" y1="229.6" x2="1041" y2="229.6" style="stroke:#000000;stroke-width:1;"/><line x1="1041" y1="229.6" x2="1041" y2="346.89" style="stroke:#000000;stroke-width:1;"/><text x="828.6343" y="245.5951" fill="#000000" font-size="14" lengthAdjust="spacing" textLength="175.7314" font-style="italic" font-family="Verdana">«executionEnvironment»</text><text x="823.9346" y="261.892" fill="#000000" font-size="14" lengthAdjust="spacing" textLength="185.1309" font-weight="700" font-family="Verdana">Cloudflare Pages (CDN)</text></g><!--cluster RW--><g class="cluster" data-qualified-name="RW" id="ent0005" data-source-line="16"><polygon points="450,229.45,460,219.45,755,219.45,755,337.04,745,347.04,450,347.04,450,229.45" fill="#FFFFFF" style="stroke:#000000;stroke-width:1;stroke-linejoin:miter;stroke-miterlimit:10;"/><line x1="745" y1="229.45" x2="755" y2="219.45" style="stroke:#000000;stroke-width:1;"/><line x1="450" y1="229.45" x2="745" y2="229.45" style="stroke:#000000;stroke-width:1;"/><line x1="745" y1="229.45" x2="745" y2="347.04" style="stroke:#000000;stroke-width:1;"/><text x="510.6343" y="245.4451" fill="#000000" font-size="14" lengthAdjust="spacing" textLength="175.7314" font-style="italic" font-family="Verdana">«executionEnvironment»</text><text x="483.8989" y="261.742" fill="#000000" font-size="14" lengthAdjust="spacing" textLength="229.2021" font-weight="700" font-family="Verdana">Railway (contenedor Docker)</text></g><!--cluster ATLAS--><g class="cluster" data-qualified-name="ATLAS" id="ent0007" data-source-line="19"><polygon points="477,413.89,487,403.89,728,403.89,728,511.19,718,521.19,477,521.19,477,413.89" fill="#FFFFFF" style="stroke:#000000;stroke-width:1;stroke-linejoin:miter;stroke-miterlimit:10;"/><line x1="718" y1="413.89" x2="728" y2="403.89" style="stroke:#000000;stroke-width:1;"/><line x1="477" y1="413.89" x2="718" y2="413.89" style="stroke:#000000;stroke-width:1;"/><line x1="718" y1="413.89" x2="718" y2="521.19" style="stroke:#000000;stroke-width:1;"/><text x="510.6343" y="429.8851" fill="#000000" font-size="14" lengthAdjust="spacing" textLength="175.7314" font-style="italic" font-family="Verdana">«executionEnvironment»</text><text x="517.6138" y="446.182" fill="#000000" font-size="14" lengthAdjust="spacing" textLength="161.7725" font-weight="700" font-family="Verdana">MongoDB Atlas (M0)</text></g><!--cluster RPI--><g class="cluster" data-qualified-name="RPI" id="ent0009" data-source-line="22"><polygon points="21,21.15,31,11.15,276,11.15,276,328.89,266,338.89,21,338.89,21,21.15" fill="#FFFFFF" style="stroke:#000000;stroke-width:1;stroke-linejoin:miter;stroke-miterlimit:10;"/><line x1="266" y1="21.15" x2="276" y2="11.15" style="stroke:#000000;stroke-width:1;"/><line x1="21" y1="21.15" x2="266" y2="21.15" style="stroke:#000000;stroke-width:1;"/><line x1="266" y1="21.15" x2="266" y2="338.89" style="stroke:#000000;stroke-width:1;"/><text x="112.9419" y="37.1451" fill="#000000" font-size="14" lengthAdjust="spacing" textLength="63.1162" font-style="italic" font-family="Verdana">«device»</text><text x="75.5083" y="53.442" fill="#000000" font-size="14" lengthAdjust="spacing" textLength="137.9834" font-weight="700" font-family="Verdana">Raspberry Pi 3B+</text><text x="54.7476" y="69.7389" fill="#000000" font-size="14" lengthAdjust="spacing" textLength="179.5049" font-weight="700" font-family="Verdana">Raspberry Pi OS 32-bit</text></g><!--entity SPA--><g class="entity" data-qualified-name="PC.SPA" id="ent0002" data-source-line="11"><rect x="742.05" y="75" width="225.8906" height="55.5938" fill="#FFFFFF" style="stroke:#000000;stroke-width:1;" rx="2.5" ry="2.5"/><polygon points="950.9406,80,950.9406,94,962.9406,94,962.9406,86,956.9406,80,950.9406,80" fill="#FFFFFF" style="stroke:#000000;stroke-width:1;stroke-linejoin:miter;stroke-miterlimit:10;"/><line x1="956.9406" y1="80" x2="956.9406" y2="86" style="stroke:#000000;stroke-width:1;"/><line x1="962.9406" y1="86" x2="956.9406" y2="86" style="stroke:#000000;stroke-width:1;"/><text x="752.05" y="100.9951" fill="#000000" font-size="14" lengthAdjust="spacing" textLength="71.4629" font-family="Verdana">SPA React</text><text x="752.05" y="117.292" fill="#000000" font-size="14" lengthAdjust="spacing" textLength="195.8906" font-family="Verdana">(corriendo en el navegador)</text></g><!--entity DIST--><g class="entity" data-qualified-name="CF.DIST" id="ent0004" data-source-line="14"><rect x="814.7" y="283.6" width="164.6064" height="39.2969" fill="#FFFFFF" style="stroke:#000000;stroke-width:1;" rx="2.5" ry="2.5"/><polygon points="962.3064,288.6,962.3064,302.6,974.3064,302.6,974.3064,294.6,968.3064,288.6,962.3064,288.6" fill="#FFFFFF" style="stroke:#000000;stroke-width:1;stroke-linejoin:miter;stroke-miterlimit:10;"/><line x1="968.3064" y1="288.6" x2="968.3064" y2="294.6" style="stroke:#000000;stroke-width:1;"/><line x1="974.3064" y1="294.6" x2="968.3064" y2="294.6" style="stroke:#000000;stroke-width:1;"/><text x="824.7" y="309.5951" fill="#000000" font-size="14" lengthAdjust="spacing" textLength="134.6064" font-family="Verdana">dist/ (HTML/JS/CSS)</text></g><!--entity JAR--><g class="entity" data-qualified-name="RW.JAR" id="ent0006" data-source-line="17"><rect x="492.06" y="275.45" width="221.8711" height="55.5938" fill="#FFFFFF" style="stroke:#000000;stroke-width:1;" rx="2.5" ry="2.5"/><polygon points="696.9311,280.45,696.9311,294.45,708.9311,294.45,708.9311,286.45,702.9311,280.45,696.9311,280.45" fill="#FFFFFF" style="stroke:#000000;stroke-width:1;stroke-linejoin:miter;stroke-miterlimit:10;"/><line x1="702.9311" y1="280.45" x2="702.9311" y2="286.45" style="stroke:#000000;stroke-width:1;"/><line x1="708.9311" y1="286.45" x2="702.9311" y2="286.45" style="stroke:#000000;stroke-width:1;"/><text x="502.06" y="301.4451" fill="#000000" font-size="14" lengthAdjust="spacing" textLength="191.8711" font-family="Verdana">control-system-backend.jar</text><text x="502.06" y="317.742" fill="#000000" font-size="14" lengthAdjust="spacing" textLength="140.4375" font-family="Verdana">Spring Boot / JRE 25</text></g><!--entity DB--><g class="entity" data-qualified-name="ATLAS.DB" id="ent0008" data-source-line="20"><path d="M543.28,469.89 C543.28,459.89 603.0046,459.89 603.0046,459.89 C603.0046,459.89 662.7292,459.89 662.7292,469.89 L662.7292,495.1869 C662.7292,505.1869 603.0046,505.1869 603.0046,505.1869 C603.0046,505.1869 543.28,505.1869 543.28,495.1869 L543.28,469.89" style="stroke:#000000;stroke-width:1;" fill="#FFFFFF"/><path d="M543.28,469.89 C543.28,479.89 603.0046,479.89 603.0046,479.89 C603.0046,479.89 662.7292,479.89 662.7292,469.89" style="stroke:#000000;stroke-width:1;" fill="none"/><text x="553.28" y="496.8851" fill="#000000" font-size="14" lengthAdjust="spacing" textLength="99.4492" font-family="Verdana">controlsystem</text></g><!--entity GW--><g class="entity" data-qualified-name="RPI.GW" id="ent0010" data-source-line="23"><rect x="82.3" y="83.15" width="175.4072" height="39.2969" fill="#FFFFFF" style="stroke:#000000;stroke-width:1;" rx="2.5" ry="2.5"/><polygon points="240.7072,88.15,240.7072,102.15,252.7072,102.15,252.7072,94.15,246.7072,88.15,240.7072,88.15" fill="#FFFFFF" style="stroke:#000000;stroke-width:1;stroke-linejoin:miter;stroke-miterlimit:10;"/><line x1="246.7072" y1="88.15" x2="246.7072" y2="94.15" style="stroke:#000000;stroke-width:1;"/><line x1="252.7072" y1="94.15" x2="246.7072" y2="94.15" style="stroke:#000000;stroke-width:1;"/><text x="92.3" y="109.1451" fill="#000000" font-size="14" lengthAdjust="spacing" textLength="145.4072" font-family="Verdana">gateway.py (Python)</text></g><!--entity PLC--><g class="entity" data-qualified-name="RPI.PLC" id="ent0011" data-source-line="24"><rect x="76.09" y="283.6" width="181.8125" height="39.2969" fill="#FFFFFF" style="stroke:#000000;stroke-width:1;" rx="2.5" ry="2.5"/><polygon points="240.9025,288.6,240.9025,302.6,252.9025,302.6,252.9025,294.6,246.9025,288.6,240.9025,288.6" fill="#FFFFFF" style="stroke:#000000;stroke-width:1;stroke-linejoin:miter;stroke-miterlimit:10;"/><line x1="246.9025" y1="288.6" x2="246.9025" y2="294.6" style="stroke:#000000;stroke-width:1;"/><line x1="252.9025" y1="294.6" x2="246.9025" y2="294.6" style="stroke:#000000;stroke-width:1;"/><text x="86.09" y="309.5951" fill="#000000" font-size="14" lengthAdjust="spacing" textLength="151.8125" font-family="Verdana">OpenPLC_v3 (control)</text></g><!--entity DHT--><g class="entity" data-qualified-name="DHT" id="ent0012" data-source-line="26"><polygon points="292.94,281.95,302.94,271.95,433.0523,271.95,433.0523,324.5438,423.0523,334.5438,292.94,334.5438,292.94,281.95" fill="#FFFFFF" style="stroke:#000000;stroke-width:1;stroke-linejoin:miter;stroke-miterlimit:10;"/><line x1="423.0523" y1="281.95" x2="433.0523" y2="271.95" style="stroke:#000000;stroke-width:1;"/><line x1="292.94" y1="281.95" x2="423.0523" y2="281.95" style="stroke:#000000;stroke-width:1;"/><line x1="423.0523" y1="281.95" x2="423.0523" y2="334.5438" style="stroke:#000000;stroke-width:1;"/><text x="326.438" y="304.9451" fill="#000000" font-size="14" lengthAdjust="spacing" textLength="63.1162" font-style="italic" font-family="Verdana">«device»</text><text x="307.94" y="321.242" fill="#000000" font-size="14" lengthAdjust="spacing" textLength="47.9883" font-family="Verdana">Sensor</text><text x="355.9283" y="321.242" fill="#000000" font-size="14" lengthAdjust="spacing" textLength="4.4502" font-family="Verdana"> </text><text x="360.3785" y="321.242" fill="#000000" font-size="14" lengthAdjust="spacing" textLength="47.6738" font-family="Verdana">DHT22</text></g><!--entity RLY--><g class="entity" data-qualified-name="RLY" id="ent0013" data-source-line="27"><polygon points="94.55,461.24,104.55,451.24,239.4406,451.24,239.4406,503.8338,229.4406,513.8338,94.55,513.8338,94.55,461.24" fill="#FFFFFF" style="stroke:#000000;stroke-width:1;stroke-linejoin:miter;stroke-miterlimit:10;"/><line x1="229.4406" y1="461.24" x2="239.4406" y2="451.24" style="stroke:#000000;stroke-width:1;"/><line x1="94.55" y1="461.24" x2="229.4406" y2="461.24" style="stroke:#000000;stroke-width:1;"/><line x1="229.4406" y1="461.24" x2="229.4406" y2="513.8338" style="stroke:#000000;stroke-width:1;"/><text x="130.4372" y="484.2351" fill="#000000" font-size="14" lengthAdjust="spacing" textLength="63.1162" font-style="italic" font-family="Verdana">«device»</text><text x="109.55" y="500.532" fill="#000000" font-size="14" lengthAdjust="spacing" textLength="39.0947" font-family="Verdana">Relay</text><text x="148.6447" y="500.532" fill="#000000" font-size="14" lengthAdjust="spacing" textLength="4.4502" font-family="Verdana"> </text><text x="153.0949" y="500.532" fill="#000000" font-size="14" lengthAdjust="spacing" textLength="11.7305" font-family="Verdana">+</text><text x="164.8254" y="500.532" fill="#000000" font-size="14" lengthAdjust="spacing" textLength="4.4502" font-family="Verdana"> </text><text x="169.2756" y="500.532" fill="#000000" font-size="14" lengthAdjust="spacing" textLength="45.165" font-family="Verdana">Cooler</text></g><!--link PC to CF--><g class="link" data-entity-1="ent0001" data-entity-2="ent0003" id="lnk14" data-source-line="29" data-link-type="dependency"><path d="M1006.3762,155.3121 C1006.4637,156.648 1006.5522,157.999 1006.6416,159.3638 C1006.8205,162.0933 1007.0029,164.8779 1007.1881,167.7066 C1007.9293,179.0212 1008.7166,191.0403 1009.5038,203.0588 C1009.7005,206.0634 1009.8973,209.0679 1010.0934,212.0614 C1010.1914,213.5582 1010.2893,215.0522 1010.3869,216.542 C1010.4357,217.2869 1010.4844,218.0308 1010.533,218.7735 C1010.5452,218.9592 1010.2306,214.1554 1010.2427,214.341" style="stroke:#000000;stroke-width:1;" fill="none" id="PC-to-CF"/><polygon points="1010.5695,219.3303,1013.9727,210.0881,1010.2427,214.341,1005.9898,210.6109,1010.5695,219.3303" fill="#000000" style="stroke:#000000;stroke-width:1;stroke-linejoin:miter;stroke-miterlimit:10;"/><text x="1009" y="191.6669" fill="#000000" font-size="13" lengthAdjust="spacing" textLength="160.5513" font-family="Verdana">HTTPS (descarga la SPA)</text></g><!--link SPA to JAR--><g class="link" data-entity-1="ent0002" data-entity-2="ent0006" id="lnk15" data-source-line="30" data-link-type="dependency"><path d="M844.84,131 C836.34,150.84 822.61,177.34 804,195.6 C768.18,230.73 723.0269,255.2599 681.9769,273.0699" style="stroke:#000000;stroke-width:1;" fill="none" id="SPA-to-JAR"/><polygon points="677.39,275.06,687.2385,275.1474,681.9769,273.0699,684.0543,267.8083,677.39,275.06" fill="#000000" style="stroke:#000000;stroke-width:1;stroke-linejoin:miter;stroke-miterlimit:10;"/><text x="818" y="191.6669" fill="#000000" font-size="13" lengthAdjust="spacing" textLength="131.46" font-family="Verdana">HTTPS · REST + SSE</text></g><!--link JAR to DB--><g class="link" data-entity-1="ent0006" data-entity-2="ent0008" id="lnk16" data-source-line="31" data-link-type="dependency"><path d="M603,331.17 C603,366.24 603,421.89 603,454.41" style="stroke:#000000;stroke-width:1;" fill="none" id="JAR-to-DB"/><polygon points="603,459.41,607,450.41,603,454.41,599,450.41,603,459.41" fill="#000000" style="stroke:#000000;stroke-width:1;stroke-linejoin:miter;stroke-miterlimit:10;"/><text x="604" y="383.9569" fill="#000000" font-size="13" lengthAdjust="spacing" textLength="128.1021" font-family="Verdana">mongodb+srv · TLS</text></g><!--link GW to JAR--><g class="link" data-entity-1="ent0010" data-entity-2="ent0006" id="lnk17" data-source-line="32" data-link-type="dependency"><path d="M257.98,117.32 C315.18,128.46 390.17,147.58 451,178.6 C500.4,203.78 544.9533,243.5058 573.3933,271.6058" style="stroke:#000000;stroke-width:1;" fill="none" id="GW-to-JAR"/><polygon points="576.95,275.12,573.3593,265.949,573.3933,271.6058,567.7365,271.6398,576.95,275.12" fill="#000000" style="stroke:#000000;stroke-width:1;stroke-linejoin:miter;stroke-miterlimit:10;"/><text x="479" y="191.6669" fill="#000000" font-size="13" lengthAdjust="spacing" textLength="228.5347" font-family="Verdana">HTTPS · REST (config / mediciones)</text></g><!--link GW to PLC--><g class="link" data-entity-1="ent0010" data-entity-2="ent0011" id="lnk18" data-source-line="33" data-link-type="dependency"><path d="M169.6349,127.8294 C169.0649,165.7594 167.9352,240.3906 167.3652,278.2706" style="stroke:#000000;stroke-width:1;" fill="none" id="GW-PLC"/><polygon points="169.71,122.83,165.5752,131.7689,169.6349,127.8294,173.5743,131.8891,169.71,122.83" fill="#000000" style="stroke:#000000;stroke-width:1;stroke-linejoin:miter;stroke-miterlimit:10;"/><polygon points="167.29,283.27,171.425,274.3312,167.3652,278.2706,163.4259,274.2108,167.29,283.27" fill="#000000" style="stroke:#000000;stroke-width:1;stroke-linejoin:miter;stroke-miterlimit:10;"/><text x="169" y="191.6669" fill="#000000" font-size="13" lengthAdjust="spacing" textLength="79.6758" font-family="Verdana">Modbus TCP</text></g><!--link GW to DHT--><g class="link" data-entity-1="ent0010" data-entity-2="ent0012" id="lnk19" data-source-line="34" data-link-type="dependency"><path d="M194.12,122.87 C212.09,137.46 236.87,158.44 257,178.6 C286.97,208.61 315.0738,242.0059 335.8038,267.7459" style="stroke:#000000;stroke-width:1;" fill="none" id="GW-to-DHT"/><polygon points="338.94,271.64,336.4102,262.1216,335.8038,267.7459,330.1795,267.1395,338.94,271.64" fill="#000000" style="stroke:#000000;stroke-width:1;stroke-linejoin:miter;stroke-miterlimit:10;"/><text x="273" y="191.6669" fill="#000000" font-size="13" lengthAdjust="spacing" textLength="169.9966" font-family="Verdana">GPIO (lee temp/humedad)</text></g><!--link PLC to RLY--><g class="link" data-entity-1="ent0011" data-entity-2="ent0013" id="lnk20" data-source-line="35" data-link-type="dependency"><path d="M167,323.22 C167,353.77 167,409.15 167,445.87" style="stroke:#000000;stroke-width:1;" fill="none" id="PLC-to-RLY"/><polygon points="167,450.87,171,441.87,167,445.87,163,441.87,167,450.87" fill="#000000" style="stroke:#000000;stroke-width:1;stroke-linejoin:miter;stroke-miterlimit:10;"/><text x="168" y="383.9569" fill="#000000" font-size="13" lengthAdjust="spacing" textLength="96.2876" font-family="Verdana">GPIO (acciona)</text></g><?plantuml-src XLFRQjj047tNLqpTXrgaZej3Nq88sBAR2tOZj2gc42XZQInlizuLkokdfXJw4VsNllTJ-YMTjOX9t9O8FOYPC-USkUY5Nz6Qe5OeTUJkfAxHuXeMMDnLrZIwJ8mo5bw-spsF46w5fRcNke8bAaVHAnXBh3Y3K1A_hbQIgeQW-s4sZU7tzn-WJMaST4lQo8AW3_I5YiPBeoTw8wtHQz8-VWreFIsny8pTWcqyki1Oc7MZPO45uuyV-M1IWgyHmEZ0ydmbFOMuiINPDZPI38g-HT6kgfCcpAp0r6Iv6Tk1ixFMtFavi2gd0p7xaS4FT4GwX8puyrPt2sEj95qQ80rCed53LM29Ew6MeQpJoYJADELIeIL8iI8UGJ9-7mUrVqsWrKxU7MYNqla-T2_psRH_BVg94AtG-4haUwKCfRh7BR0xxKaJsu6nAUx8FYENpG_a0e4rgkUspjEw5-w1cpt-ZFPMYzg6lO-CyRp5wsm2WxSxBzV3R6zbPdHbnYCOUiMPxkpDCmw6-NGeTYPAzBX0HtiJhOUssz6ZNbsz86kta4eu6HtTwYUH6m4dWzv2-iEjPkdLGQyLUkAf7TSyk7JhLqQtexsOFu7TrAJJQV9fSzBEbvsrE0xkNGdIBWpzCXyC3fKv-E2T56_f219Z5FrrTzdqOnJnyVLwv-4EJk4oprCHVXnNeAqG58RxYgDmZm74Sz-ZVls4R29o9XTY4eLCGF0YJc4TLb8kZfpT15W-5T75_By4eSUbh7Z3Qofb-Et8nQ7WB5HmprmnOxh6GPwa3qpS8ySlqgiRw2eYuCNL_LN355Z6KQWAAEvmZy8YS6Fy1m00?></g></svg>