<svg xmlns="http://www.w3.org/2000/svg" xmlns:xlink="http://www.w3.org/1999/xlink" version="1.1" data-diagram-type="DESCRIPTION" style="width:1159px;height:530px;background:#FFFFFF;" width="1159px" height="530px" viewBox="0 0 1159 530" zoomAndPan="magnify" preserveAspectRatio="none" contentStyleType="text/css"><?plantuml 1.2026.7beta3?><defs/><g><!--cluster PC--><g class="cluster" data-qualified-name="PC" id="ent0001" data-source-line="44"><polygon points="704,16,714,6,983,6,983,135.26,973,145.26,704,145.26,704,16" fill="#FFFFFF" style="stroke:#000000;stroke-width:1;stroke-linejoin:miter;stroke-miterlimit:10;"/><line x1="973" y1="16" x2="983" y2="6" style="stroke:#000000;stroke-width:1;"/><line x1="704" y1="16" x2="973" y2="16" style="stroke:#000000;stroke-width:1;"/><line x1="973" y1="16" x2="973" y2="145.26" style="stroke:#000000;stroke-width:1;"/><text x="810.196" y="31.0669" fill="#0F172A" font-size="13" lengthAdjust="spacing" textLength="58.6079" font-style="italic" font-family="sans-serif">«device»</text><text x="780.708" y="46.1997" fill="#0F172A" font-size="13" lengthAdjust="spacing" textLength="117.584" font-weight="700" font-family="sans-serif">PC del operador</text></g><!--cluster CF--><g class="cluster" data-qualified-name="CF" id="ent0003" data-source-line="47"><polygon points="762,220.26,772,210.26,1009,210.26,1009,324.4,999,334.4,762,334.4,762,220.26" fill="#FFFFFF" style="stroke:#000000;stroke-width:1;stroke-linejoin:miter;stroke-miterlimit:10;"/><line x1="999" y1="220.26" x2="1009" y2="210.26" style="stroke:#000000;stroke-width:1;"/><line x1="762" y1="220.26" x2="999" y2="220.26" style="stroke:#000000;stroke-width:1;"/><line x1="999" y1="220.26" x2="999" y2="334.4" style="stroke:#000000;stroke-width:1;"/><text x="799.9104" y="235.3269" fill="#0F172A" font-size="13" lengthAdjust="spacing" textLength="163.1792" font-style="italic" font-family="sans-serif">«executionEnvironment»</text><text x="795.5464" y="250.4597" fill="#0F172A" font-size="13" lengthAdjust="spacing" textLength="171.9072" font-weight="700" font-family="sans-serif">Cloudflare Pages (CDN)</text></g><!--cluster RW--><g class="cluster" data-qualified-name="RW" id="ent0005" data-source-line="50"><polygon points="426,220.7,436,210.7,714,210.7,714,323.96,704,333.96,426,333.96,426,220.7" fill="#FFFFFF" style="stroke:#000000;stroke-width:1;stroke-linejoin:miter;stroke-miterlimit:10;"/><line x1="704" y1="220.7" x2="714" y2="210.7" style="stroke:#000000;stroke-width:1;"/><line x1="426" y1="220.7" x2="704" y2="220.7" style="stroke:#000000;stroke-width:1;"/><line x1="704" y1="220.7" x2="704" y2="333.96" style="stroke:#000000;stroke-width:1;"/><text x="484.4104" y="235.7669" fill="#0F172A" font-size="13" lengthAdjust="spacing" textLength="163.1792" font-style="italic" font-family="sans-serif">«executionEnvironment»</text><text x="459.5847" y="250.8997" fill="#0F172A" font-size="13" lengthAdjust="spacing" textLength="212.8306" font-weight="700" font-family="sans-serif">Railway (contenedor Docker)</text></g><!--cluster ATLAS--><g class="cluster" data-qualified-name="ATLAS" id="ent0007" data-source-line="53"><polygon points="451,401.4,461,391.4,690,391.4,690,495.53,680,505.53,451,505.53,451,401.4" fill="#FFFFFF" style="stroke:#000000;stroke-width:1;stroke-linejoin:miter;stroke-miterlimit:10;"/><line x1="680" y1="401.4" x2="690" y2="391.4" style="stroke:#000000;stroke-width:1;"/><line x1="451" y1="401.4" x2="680" y2="401.4" style="stroke:#000000;stroke-width:1;"/><line x1="680" y1="401.4" x2="680" y2="505.53" style="stroke:#000000;stroke-width:1;"/><text x="484.9104" y="416.4669" fill="#0F172A" font-size="13" lengthAdjust="spacing" textLength="163.1792" font-style="italic" font-family="sans-serif">«executionEnvironment»</text><text x="491.3914" y="431.5997" fill="#0F172A" font-size="13" lengthAdjust="spacing" textLength="150.2173" font-weight="700" font-family="sans-serif">MongoDB Atlas (M0)</text></g><!--cluster RPI--><g class="cluster" data-qualified-name="RPI" id="ent0009" data-source-line="56"><polygon points="16,16.57,26,6.57,258,6.57,258,316.4,248,326.4,16,326.4,16,16.57" fill="#FFFFFF" style="stroke:#000000;stroke-width:1;stroke-linejoin:miter;stroke-miterlimit:10;"/><line x1="248" y1="16.57" x2="258" y2="6.57" style="stroke:#000000;stroke-width:1;"/><line x1="16" y1="16.57" x2="248" y2="16.57" style="stroke:#000000;stroke-width:1;"/><line x1="248" y1="16.57" x2="248" y2="326.4" style="stroke:#000000;stroke-width:1;"/><text x="103.696" y="31.6369" fill="#0F172A" font-size="13" lengthAdjust="spacing" textLength="58.6079" font-style="italic" font-family="sans-serif">«device»</text><text x="68.9363" y="46.7697" fill="#0F172A" font-size="13" lengthAdjust="spacing" textLength="128.1274" font-weight="700" font-family="sans-serif">Raspberry Pi 3B+</text><text x="49.6584" y="61.9025" fill="#0F172A" font-size="13" lengthAdjust="spacing" textLength="166.6831" font-weight="700" font-family="sans-serif">Raspberry Pi OS 32-bit</text></g><!--entity SPA--><g class="entity" data-qualified-name="PC.SPA" id="ent0002" data-source-line="45"><rect x="728.05" y="68" width="211.8984" height="53.2656" fill="#F1F1F1" style="stroke:#181818;stroke-width:0.5;" rx="6" ry="6"/><polygon points="922.9484,73,922.9484,87,934.9484,87,934.9484,79,928.9484,73,922.9484,73" fill="#F1F1F1" style="stroke:#181818;stroke-width:0.5;stroke-linejoin:miter;stroke-miterlimit:10;"/><line x1="928.9484" y1="73" x2="928.9484" y2="79" style="stroke:#181818;stroke-width:0.5;"/><line x1="934.9484" y1="79" x2="928.9484" y2="79" style="stroke:#181818;stroke-width:0.5;"/><text x="738.05" y="93.0669" fill="#0F172A" font-size="13" lengthAdjust="spacing" textLength="66.3584" font-family="sans-serif">SPA React</text><text x="738.05" y="108.1997" fill="#0F172A" font-size="13" lengthAdjust="spacing" textLength="181.8984" font-family="sans-serif">(corriendo en el navegador)</text></g><!--entity DIST--><g class="entity" data-qualified-name="CF.DIST" id="ent0004" data-source-line="48"><rect x="795.5" y="272.26" width="154.9917" height="38.1328" fill="#F1F1F1" style="stroke:#181818;stroke-width:0.5;" rx="6" ry="6"/><polygon points="933.4917,277.26,933.4917,291.26,945.4917,291.26,945.4917,283.26,939.4917,277.26,933.4917,277.26" fill="#F1F1F1" style="stroke:#181818;stroke-width:0.5;stroke-linejoin:miter;stroke-miterlimit:10;"/><line x1="939.4917" y1="277.26" x2="939.4917" y2="283.26" style="stroke:#181818;stroke-width:0.5;"/><line x1="945.4917" y1="283.26" x2="939.4917" y2="283.26" style="stroke:#181818;stroke-width:0.5;"/><text x="805.5" y="297.3269" fill="#0F172A" font-size="13" lengthAdjust="spacing" textLength="124.9917" font-family="sans-serif">dist/ (HTML/JS/CSS)</text></g><!--entity JAR--><g class="entity" data-qualified-name="RW.JAR" id="ent0006" data-source-line="51"><rect x="466.92" y="264.7" width="208.166" height="53.2656" fill="#F1F1F1" style="stroke:#181818;stroke-width:0.5;" rx="6" ry="6"/><polygon points="658.086,269.7,658.086,283.7,670.086,283.7,670.086,275.7,664.086,269.7,658.086,269.7" fill="#F1F1F1" style="stroke:#181818;stroke-width:0.5;stroke-linejoin:miter;stroke-miterlimit:10;"/><line x1="664.086" y1="269.7" x2="664.086" y2="275.7" style="stroke:#181818;stroke-width:0.5;"/><line x1="670.086" y1="275.7" x2="664.086" y2="275.7" style="stroke:#181818;stroke-width:0.5;"/><text x="476.92" y="289.7669" fill="#0F172A" font-size="13" lengthAdjust="spacing" textLength="178.166" font-family="sans-serif">control-system-backend.jar</text><text x="476.92" y="304.8997" fill="#0F172A" font-size="13" lengthAdjust="spacing" textLength="130.4063" font-family="sans-serif">Spring Boot / JRE 25</text></g><!--entity DB--><g class="entity" data-qualified-name="ATLAS.DB" id="ent0008" data-source-line="54"><path d="M514.83,455.4 C514.83,445.4 571.0029,445.4 571.0029,445.4 C571.0029,445.4 627.1757,445.4 627.1757,455.4 L627.1757,479.5328 C627.1757,489.5328 571.0029,489.5328 571.0029,489.5328 C571.0029,489.5328 514.83,489.5328 514.83,479.5328 L514.83,455.4" style="stroke:#181818;stroke-width:0.5;" fill="#F1F1F1"/><path d="M514.83,455.4 C514.83,465.4 571.0029,465.4 571.0029,465.4 C571.0029,465.4 627.1757,465.4 627.1757,455.4" style="stroke:#181818;stroke-width:0.5;" fill="none"/><text x="524.83" y="481.4669" fill="#0F172A" font-size="13" lengthAdjust="spacing" textLength="92.3457" font-family="sans-serif">controlsystem</text></g><!--entity GW--><g class="entity" data-qualified-name="RPI.GW" id="ent0010" data-source-line="57"><rect x="74.49" y="75.57" width="165.021" height="38.1328" fill="#F1F1F1" style="stroke:#181818;stroke-width:0.5;" rx="6" ry="6"/><polygon points="222.511,80.57,222.511,94.57,234.511,94.57,234.511,86.57,228.511,80.57,222.511,80.57" fill="#F1F1F1" style="stroke:#181818;stroke-width:0.5;stroke-linejoin:miter;stroke-miterlimit:10;"/><line x1="228.511" y1="80.57" x2="228.511" y2="86.57" style="stroke:#181818;stroke-width:0.5;"/><line x1="234.511" y1="86.57" x2="228.511" y2="86.57" style="stroke:#181818;stroke-width:0.5;"/><text x="84.49" y="100.6369" fill="#0F172A" font-size="13" lengthAdjust="spacing" textLength="135.021" font-family="sans-serif">gateway.py (Python)</text></g><!--entity PLC--><g class="entity" data-qualified-name="RPI.PLC" id="ent0011" data-source-line="58"><rect x="69.52" y="272.26" width="170.9688" height="38.1328" fill="#F1F1F1" style="stroke:#181818;stroke-width:0.5;" rx="6" ry="6"/><polygon points="223.4887,277.26,223.4887,291.26,235.4887,291.26,235.4887,283.26,229.4887,277.26,223.4887,277.26" fill="#F1F1F1" style="stroke:#181818;stroke-width:0.5;stroke-linejoin:miter;stroke-miterlimit:10;"/><line x1="229.4887" y1="277.26" x2="229.4887" y2="283.26" style="stroke:#181818;stroke-width:0.5;"/><line x1="235.4887" y1="283.26" x2="229.4887" y2="283.26" style="stroke:#181818;stroke-width:0.5;"/><text x="79.52" y="297.3269" fill="#0F172A" font-size="13" lengthAdjust="spacing" textLength="140.9688" font-family="sans-serif">OpenPLC_v3 (control)</text></g><!--entity DHT--><g class="entity" data-qualified-name="DHT" id="ent0012" data-source-line="60"><polygon points="275.52,271.2,285.52,261.2,408.4814,261.2,408.4814,311.4656,398.4814,321.4656,275.52,321.4656,275.52,271.2" fill="#FFFFFF" style="stroke:#000000;stroke-width:0.5;stroke-linejoin:miter;stroke-miterlimit:10;"/><line x1="398.4814" y1="271.2" x2="408.4814" y2="261.2" style="stroke:#000000;stroke-width:0.5;"/><line x1="275.52" y1="271.2" x2="398.4814" y2="271.2" style="stroke:#000000;stroke-width:0.5;"/><line x1="398.4814" y1="271.2" x2="398.4814" y2="321.4656" style="stroke:#000000;stroke-width:0.5;"/><text x="307.6968" y="293.2669" fill="#0F172A" font-size="13" lengthAdjust="spacing" textLength="58.6079" font-style="italic" font-family="sans-serif">«device»</text><text x="290.52" y="308.3997" fill="#0F172A" font-size="13" lengthAdjust="spacing" textLength="92.9614" font-family="sans-serif">Sensor DHT22</text></g><!--entity RLY--><g class="entity" data-qualified-name="RLY" id="ent0013" data-source-line="61"><polygon points="86.3,447.33,96.3,437.33,223.6984,437.33,223.6984,487.5956,213.6984,497.5956,86.3,497.5956,86.3,447.33" fill="#FFFFFF" style="stroke:#000000;stroke-width:0.5;stroke-linejoin:miter;stroke-miterlimit:10;"/><line x1="213.6984" y1="447.33" x2="223.6984" y2="437.33" style="stroke:#000000;stroke-width:0.5;"/><line x1="86.3" y1="447.33" x2="213.6984" y2="447.33" style="stroke:#000000;stroke-width:0.5;"/><line x1="213.6984" y1="447.33" x2="213.6984" y2="497.5956" style="stroke:#000000;stroke-width:0.5;"/><text x="120.6953" y="469.3969" fill="#0F172A" font-size="13" lengthAdjust="spacing" textLength="58.6079" font-style="italic" font-family="sans-serif">«device»</text><text x="101.3" y="484.5297" fill="#0F172A" font-size="13" lengthAdjust="spacing" textLength="97.3984" font-family="sans-serif">Relay + Cooler</text></g><!--link PC to CF--><g class="link" data-entity-1="ent0001" data-entity-2="ent0003" id="lnk14" data-source-line="63" data-link-type="dependency"><path d="M979.1537,146.173 C979.2614,147.4836 979.3704,148.8091 979.4804,150.1481 C979.7006,152.8261 979.9251,155.5581 980.1532,158.3334 C981.0655,169.4342 982.0347,181.2262 983.0038,193.0175 C983.246,195.9653 983.4883,198.9131 983.7296,201.85 C983.8503,203.3184 983.9708,204.7842 984.0909,206.2458 C984.151,206.9767 984.211,207.7065 984.2708,208.4351 C984.3008,208.7994 984.3307,209.1635 984.3606,209.5272 C984.3755,209.709 983.9809,204.9076 983.9959,205.0893" style="stroke:#64748B;stroke-width:1.1;" fill="none" id="PC-to-CF"/><polygon points="984.4054,210.0725,987.6548,200.7751,983.9959,205.0893,979.6817,201.4303,984.4054,210.0725" fill="#64748B" style="stroke:#64748B;stroke-width:1.1;stroke-linejoin:miter;stroke-miterlimit:10;"/><text x="983" y="182.3269" fill="#475569" font-size="13" lengthAdjust="spacing" textLength="160.5513" font-family="sans-serif">HTTPS (descarga la SPA)</text></g><!--link SPA to JAR--><g class="link" data-entity-1="ent0002" data-entity-2="ent0006" id="lnk15" data-source-line="64" data-link-type="dependency"><path d="M823.21,121.37 C813.87,141.14 798.76,168.05 779,186.26 C741.14,221.15 694.0312,245.2152 651.6212,262.4752" style="stroke:#64748B;stroke-width:1.1;" fill="none" id="SPA-to-JAR"/><polygon points="646.99,264.36,656.8339,264.6723,651.6212,262.4752,653.8182,257.2625,646.99,264.36" fill="#64748B" style="stroke:#64748B;stroke-width:1.1;stroke-linejoin:miter;stroke-miterlimit:10;"/><text x="793" y="182.3269" fill="#475569" font-size="13" lengthAdjust="spacing" textLength="131.46" font-family="sans-serif">HTTPS · REST + SSE</text></g><!--link JAR to DB--><g class="link" data-entity-1="ent0006" data-entity-2="ent0008" id="lnk16" data-source-line="65" data-link-type="dependency"><path d="M571,318.4 C571,352.94 571,408.2 571,440.16" style="stroke:#64748B;stroke-width:1.1;" fill="none" id="JAR-to-DB"/><polygon points="571,445.16,575,436.16,571,440.16,567,436.16,571,445.16" fill="#64748B" style="stroke:#64748B;stroke-width:1.1;stroke-linejoin:miter;stroke-miterlimit:10;"/><text x="572" y="371.4669" fill="#475569" font-size="13" lengthAdjust="spacing" textLength="128.1021" font-family="sans-serif">mongodb+srv · TLS</text></g><!--link GW to JAR--><g class="link" data-entity-1="ent0010" data-entity-2="ent0006" id="lnk17" data-source-line="66" data-link-type="dependency"><path d="M239.89,106.59 C298.01,116.78 376.06,135.64 438,169.26 C483.14,193.77 521.8774,233.016 546.1674,260.626" style="stroke:#64748B;stroke-width:1.1;" fill="none" id="GW-to-JAR"/><polygon points="549.47,264.38,546.5285,254.9807,546.1674,260.626,540.5221,260.2648,549.47,264.38" fill="#64748B" style="stroke:#64748B;stroke-width:1.1;stroke-linejoin:miter;stroke-miterlimit:10;"/><text x="463" y="182.3269" fill="#475569" font-size="13" lengthAdjust="spacing" textLength="228.5347" font-family="sans-serif">HTTPS · REST (config / mediciones)</text></g><!--link GW to PLC--><g class="link" data-entity-1="ent0010" data-entity-2="ent0011" id="lnk18" data-source-line="67" data-link-type="dependency"><path d="M156.7588,118.9497 C156.3788,156.0597 155.6211,229.7303 155.2411,266.9203" style="stroke:#64748B;stroke-width:1.1;" fill="none" id="GW-PLC"/><polygon points="156.81,113.95,152.7181,122.9086,156.7588,118.9497,160.7176,122.9905,156.81,113.95" fill="#64748B" style="stroke:#64748B;stroke-width:1.1;stroke-linejoin:miter;stroke-miterlimit:10;"/><polygon points="155.19,271.92,159.2817,262.9613,155.2411,266.9203,151.2822,262.8796,155.19,271.92" fill="#64748B" style="stroke:#64748B;stroke-width:1.1;stroke-linejoin:miter;stroke-miterlimit:10;"/><text x="157" y="182.3269" fill="#475569" font-size="13" lengthAdjust="spacing" textLength="79.6758" font-family="sans-serif">Modbus TCP</text></g><!--link GW to DHT--><g class="link" data-entity-1="ent0010" data-entity-2="ent0012" id="lnk19" data-source-line="68" data-link-type="dependency"><path d="M181.65,114.11 C199.95,128.32 225.07,148.91 245,169.26 C273.54,198.42 299.3038,231.4448 318.0138,256.8348" style="stroke:#64748B;stroke-width:1.1;" fill="none" id="GW-to-DHT"/><polygon points="320.98,260.86,318.861,251.2418,318.0138,256.8348,312.4208,255.9876,320.98,260.86" fill="#64748B" style="stroke:#64748B;stroke-width:1.1;stroke-linejoin:miter;stroke-miterlimit:10;"/><text x="260" y="182.3269" fill="#475569" font-size="13" lengthAdjust="spacing" textLength="169.9966" font-family="sans-serif">GPIO (lee temp/humedad)</text></g><!--link PLC to RLY--><g class="link" data-entity-1="ent0011" data-entity-2="ent0013" id="lnk20" data-source-line="69" data-link-type="dependency"><path d="M155,310.64 C155,340.68 155,395.69 155,431.84" style="stroke:#64748B;stroke-width:1.1;" fill="none" id="PLC-to-RLY"/><polygon points="155,436.84,159,427.84,155,431.84,151,427.84,155,436.84" fill="#64748B" style="stroke:#64748B;stroke-width:1.1;stroke-linejoin:miter;stroke-miterlimit:10;"/><text x="156" y="371.4669" fill="#475569" font-size="13" lengthAdjust="spacing" textLength="96.2876" font-family="sans-serif">GPIO (acciona)</text></g><?plantuml-src ZLRjRYet4Fs_Jp5AVrnGGlXEu3QAj2miIGGDOgcYIf4gipjiVBFOUsqlAQqgzI7wBltVH-cJT0m9NJuADqfGP9yvSsRcsEOJb4ebG6ru8c4k8rH2GgrIkuB2B67c0XH6KaJ88da1AKlGC8WmWLJ99OP6VWypsfOG9an90YW62SPyoXCUiGXGG9-RksnQj7aS_Sg5nSnXoiBNMCbCH9vCf8Bl_DLF3g5VAESR5p7CMA8nj_CUfWGggDPo6rsSiImnlXJcdRNYLwzhxc58m7z5gDPpcwvIykqzygfntMXrTZTpr8thPlEglGkOlF3mLQ3MKBsivZQfFrftzefk-QxlxS6aeZbyLD1gLpkrmv2ZoLnZ59zc1dEQw_L6jTdCDzamWwTbhM57PMKQGwRtkNgUtzkQwmVmA1iZQwbzNNwlsstkmV9CNgrHhUIbfqJ2uWCrLlsctpu0pBEr6swzqyftLivJAL2ORnZb1dgqKa5dxZJP2fNdsNCVVHeUyfGTqhPVwt_We_Lg_9gX2770P_GdjZLudMwpLps0xbFozBGA8Gzvh-UtlVekQYkjst8hZMqNy0KtozDjt21FcM-5wd8sfyljcsou5N3Ka7BwXIxEqrhVSGUKVW9A51F6NiNqgzE4OvmX57uS3ehmpnz_Mhz83OK85pn4A0F-Wc5ck1GziU1AYZdvidW1P0Ew3-aGQLY2oWpJbf6ScmaUif3mbpicXDySW5tnJo_Se5tFYUqa179-TvnLrDd8MpqRCaL5rxewWvkRjRZRMw2ij6s9hIsj7ZWBHYwCaVvz5eLGAiNHlZBqd129O0kCBKlnpCOIbFAiqtY9p29wk1J2Y0upjS3h_b2qsGvrO9tRytToHroRCXJk9iD1-I4eUq6mJjIz3oQRJ6F6apUs158d30fw9HLqPVYAwaIwyTDEEakWP5BIIsrmNh8l8nLx-OMfPn6aohw07IaDJV5Xt8DQSwNbmHrlf0obY6Mt0wwXUnyAmye91Uvau0Oh4H4pR4gNyKR4MiEwsawkLfrEKQabZ3ZKE-VFOclbCO1whJJbPdUguz7zJgqnlIFKjSkK6ZTQcXSfrgtjFst17bCKeu7tywA-xYyfM-DeSQCgGA5jq-ycjTfkPbhyq8u9JUaSF2aJtFFTUF2Juv3vIgLRwuFFS3UPZ09xS7J8L4nVPfZrLz6nVhGWwli6zVTVCEu54o8FWfvZToo21l6PladHIABfkLOB2viC0gV_zBy4jiOPZsd2SuouFNQeYpRWnaPGpHGn9BfCmyGRVJ1HZRJU7zq_GY5111fSMdx9Y895HST6MHHLk46nq7Apuhy0?></g></svg>