<svg xmlns="http://www.w3.org/2000/svg" xmlns:xlink="http://www.w3.org/1999/xlink" version="1.1" data-diagram-type="DESCRIPTION" style="width:1180px;height:541px;background:#FFFFFF;" width="1180px" height="541px" viewBox="0 0 1180 541" zoomAndPan="magnify" preserveAspectRatio="none" contentStyleType="text/css"><?plantuml 1.2026.7beta3?><defs/><g><!--cluster PC--><g class="cluster" data-qualified-name="PC" id="ent0001" data-source-line="7"><polygon points="713,16,723,6,1006,6,1006,139.6,996,149.6,713,149.6,713,16" fill="#FFFFFF" style="stroke:#000000;stroke-width:1;stroke-linejoin:miter;stroke-miterlimit:10;"/><line x1="996" y1="16" x2="1006" y2="6" style="stroke:#000000;stroke-width:1;"/><line x1="713" y1="16" x2="996" y2="16" style="stroke:#000000;stroke-width:1;"/><line x1="996" y1="16" x2="996" y2="149.6" style="stroke:#000000;stroke-width:1;"/><text x="823.9419" y="31.9951" fill="#000000" font-size="14" lengthAdjust="spacing" textLength="63.1162" font-style="italic" font-family="sans-serif">«device»</text><text x="792.1855" y="48.292" fill="#000000" font-size="14" lengthAdjust="spacing" textLength="126.6289" font-weight="700" font-family="sans-serif">PC del operador</text></g><!--cluster CF--><g class="cluster" data-qualified-name="CF" id="ent0003" data-source-line="10"><polygon points="785,224.6,795,214.6,1046,214.6,1046,331.89,1036,341.89,785,341.89,785,224.6" fill="#FFFFFF" style="stroke:#000000;stroke-width:1;stroke-linejoin:miter;stroke-miterlimit:10;"/><line x1="1036" y1="224.6" x2="1046" y2="214.6" style="stroke:#000000;stroke-width:1;"/><line x1="785" y1="224.6" x2="1036" y2="224.6" style="stroke:#000000;stroke-width:1;"/><line x1="1036" y1="224.6" x2="1036" y2="341.89" style="stroke:#000000;stroke-width:1;"/><text x="823.6343" y="240.5951" fill="#000000" font-size="14" lengthAdjust="spacing" textLength="175.7314" font-style="italic" font-family="sans-serif">«executionEnvironment»</text><text x="818.9346" y="256.892" fill="#000000" font-size="14" lengthAdjust="spacing" textLength="185.1309" font-weight="700" font-family="sans-serif">Cloudflare Pages (CDN)</text></g><!--cluster RW--><g class="cluster" data-qualified-name="RW" id="ent0005" data-source-line="13"><polygon points="445,224.45,455,214.45,750,214.45,750,332.04,740,342.04,445,342.04,445,224.45" fill="#FFFFFF" style="stroke:#000000;stroke-width:1;stroke-linejoin:miter;stroke-miterlimit:10;"/><line x1="740" y1="224.45" x2="750" y2="214.45" style="stroke:#000000;stroke-width:1;"/><line x1="445" y1="224.45" x2="740" y2="224.45" style="stroke:#000000;stroke-width:1;"/><line x1="740" y1="224.45" x2="740" y2="342.04" style="stroke:#000000;stroke-width:1;"/><text x="505.6343" y="240.4451" fill="#000000" font-size="14" lengthAdjust="spacing" textLength="175.7314" font-style="italic" font-family="sans-serif">«executionEnvironment»</text><text x="478.8989" y="256.742" fill="#000000" font-size="14" lengthAdjust="spacing" textLength="229.2021" font-weight="700" font-family="sans-serif">Railway (contenedor Docker)</text></g><!--cluster ATLAS--><g class="cluster" data-qualified-name="ATLAS" id="ent0007" data-source-line="16"><polygon points="472,408.89,482,398.89,723,398.89,723,506.19,713,516.19,472,516.19,472,408.89" fill="#FFFFFF" style="stroke:#000000;stroke-width:1;stroke-linejoin:miter;stroke-miterlimit:10;"/><line x1="713" y1="408.89" x2="723" y2="398.89" style="stroke:#000000;stroke-width:1;"/><line x1="472" y1="408.89" x2="713" y2="408.89" style="stroke:#000000;stroke-width:1;"/><line x1="713" y1="408.89" x2="713" y2="516.19" style="stroke:#000000;stroke-width:1;"/><text x="505.6343" y="424.8851" fill="#000000" font-size="14" lengthAdjust="spacing" textLength="175.7314" font-style="italic" font-family="sans-serif">«executionEnvironment»</text><text x="512.6138" y="441.182" fill="#000000" font-size="14" lengthAdjust="spacing" textLength="161.7725" font-weight="700" font-family="sans-serif">MongoDB Atlas (M0)</text></g><!--cluster RPI--><g class="cluster" data-qualified-name="RPI" id="ent0009" data-source-line="19"><polygon points="16,16.15,26,6.15,271,6.15,271,323.89,261,333.89,16,333.89,16,16.15" fill="#FFFFFF" style="stroke:#000000;stroke-width:1;stroke-linejoin:miter;stroke-miterlimit:10;"/><line x1="261" y1="16.15" x2="271" y2="6.15" style="stroke:#000000;stroke-width:1;"/><line x1="16" y1="16.15" x2="261" y2="16.15" style="stroke:#000000;stroke-width:1;"/><line x1="261" y1="16.15" x2="261" y2="333.89" style="stroke:#000000;stroke-width:1;"/><text x="107.9419" y="32.1451" fill="#000000" font-size="14" lengthAdjust="spacing" textLength="63.1162" font-style="italic" font-family="sans-serif">«device»</text><text x="70.5083" y="48.442" fill="#000000" font-size="14" lengthAdjust="spacing" textLength="137.9834" font-weight="700" font-family="sans-serif">Raspberry Pi 3B+</text><text x="49.7476" y="64.7389" fill="#000000" font-size="14" lengthAdjust="spacing" textLength="179.5049" font-weight="700" font-family="sans-serif">Raspberry Pi OS 32-bit</text></g><!--entity SPA--><g class="entity" data-qualified-name="PC.SPA" id="ent0002" data-source-line="8"><rect x="737.05" y="70" width="225.8906" height="55.5938" fill="#F1F1F1" style="stroke:#181818;stroke-width:0.5;" rx="2.5" ry="2.5"/><polygon points="945.9406,75,945.9406,89,957.9406,89,957.9406,81,951.9406,75,945.9406,75" fill="#F1F1F1" style="stroke:#181818;stroke-width:0.5;stroke-linejoin:miter;stroke-miterlimit:10;"/><line x1="951.9406" y1="75" x2="951.9406" y2="81" style="stroke:#181818;stroke-width:0.5;"/><line x1="957.9406" y1="81" x2="951.9406" y2="81" style="stroke:#181818;stroke-width:0.5;"/><text x="747.05" y="95.9951" fill="#000000" font-size="14" lengthAdjust="spacing" textLength="71.4629" font-family="sans-serif">SPA React</text><text x="747.05" y="112.292" fill="#000000" font-size="14" lengthAdjust="spacing" textLength="195.8906" font-family="sans-serif">(corriendo en el navegador)</text></g><!--entity DIST--><g class="entity" data-qualified-name="CF.DIST" id="ent0004" data-source-line="11"><rect x="809.7" y="278.6" width="164.6064" height="39.2969" fill="#F1F1F1" style="stroke:#181818;stroke-width:0.5;" rx="2.5" ry="2.5"/><polygon points="957.3064,283.6,957.3064,297.6,969.3064,297.6,969.3064,289.6,963.3064,283.6,957.3064,283.6" fill="#F1F1F1" style="stroke:#181818;stroke-width:0.5;stroke-linejoin:miter;stroke-miterlimit:10;"/><line x1="963.3064" y1="283.6" x2="963.3064" y2="289.6" style="stroke:#181818;stroke-width:0.5;"/><line x1="969.3064" y1="289.6" x2="963.3064" y2="289.6" style="stroke:#181818;stroke-width:0.5;"/><text x="819.7" y="304.5951" fill="#000000" font-size="14" lengthAdjust="spacing" textLength="134.6064" font-family="sans-serif">dist/ (HTML/JS/CSS)</text></g><!--entity JAR--><g class="entity" data-qualified-name="RW.JAR" id="ent0006" data-source-line="14"><rect x="487.06" y="270.45" width="221.8711" height="55.5938" fill="#F1F1F1" style="stroke:#181818;stroke-width:0.5;" rx="2.5" ry="2.5"/><polygon points="691.9311,275.45,691.9311,289.45,703.9311,289.45,703.9311,281.45,697.9311,275.45,691.9311,275.45" fill="#F1F1F1" style="stroke:#181818;stroke-width:0.5;stroke-linejoin:miter;stroke-miterlimit:10;"/><line x1="697.9311" y1="275.45" x2="697.9311" y2="281.45" style="stroke:#181818;stroke-width:0.5;"/><line x1="703.9311" y1="281.45" x2="697.9311" y2="281.45" style="stroke:#181818;stroke-width:0.5;"/><text x="497.06" y="296.4451" fill="#000000" font-size="14" lengthAdjust="spacing" textLength="191.8711" font-family="sans-serif">control-system-backend.jar</text><text x="497.06" y="312.742" fill="#000000" font-size="14" lengthAdjust="spacing" textLength="140.4375" font-family="sans-serif">Spring Boot / JRE 25</text></g><!--entity DB--><g class="entity" data-qualified-name="ATLAS.DB" id="ent0008" data-source-line="17"><path d="M538.28,464.89 C538.28,454.89 598.0046,454.89 598.0046,454.89 C598.0046,454.89 657.7292,454.89 657.7292,464.89 L657.7292,490.1869 C657.7292,500.1869 598.0046,500.1869 598.0046,500.1869 C598.0046,500.1869 538.28,500.1869 538.28,490.1869 L538.28,464.89" style="stroke:#181818;stroke-width:0.5;" fill="#F1F1F1"/><path d="M538.28,464.89 C538.28,474.89 598.0046,474.89 598.0046,474.89 C598.0046,474.89 657.7292,474.89 657.7292,464.89" style="stroke:#181818;stroke-width:0.5;" fill="none"/><text x="548.28" y="491.8851" fill="#000000" font-size="14" lengthAdjust="spacing" textLength="99.4492" font-family="sans-serif">controlsystem</text></g><!--entity GW--><g class="entity" data-qualified-name="RPI.GW" id="ent0010" data-source-line="20"><rect x="77.3" y="78.15" width="175.4072" height="39.2969" fill="#F1F1F1" style="stroke:#181818;stroke-width:0.5;" rx="2.5" ry="2.5"/><polygon points="235.7072,83.15,235.7072,97.15,247.7072,97.15,247.7072,89.15,241.7072,83.15,235.7072,83.15" fill="#F1F1F1" style="stroke:#181818;stroke-width:0.5;stroke-linejoin:miter;stroke-miterlimit:10;"/><line x1="241.7072" y1="83.15" x2="241.7072" y2="89.15" style="stroke:#181818;stroke-width:0.5;"/><line x1="247.7072" y1="89.15" x2="241.7072" y2="89.15" style="stroke:#181818;stroke-width:0.5;"/><text x="87.3" y="104.1451" fill="#000000" font-size="14" lengthAdjust="spacing" textLength="145.4072" font-family="sans-serif">gateway.py (Python)</text></g><!--entity PLC--><g class="entity" data-qualified-name="RPI.PLC" id="ent0011" data-source-line="21"><rect x="71.09" y="278.6" width="181.8125" height="39.2969" fill="#F1F1F1" style="stroke:#181818;stroke-width:0.5;" rx="2.5" ry="2.5"/><polygon points="235.9025,283.6,235.9025,297.6,247.9025,297.6,247.9025,289.6,241.9025,283.6,235.9025,283.6" fill="#F1F1F1" style="stroke:#181818;stroke-width:0.5;stroke-linejoin:miter;stroke-miterlimit:10;"/><line x1="241.9025" y1="283.6" x2="241.9025" y2="289.6" style="stroke:#181818;stroke-width:0.5;"/><line x1="247.9025" y1="289.6" x2="241.9025" y2="289.6" style="stroke:#181818;stroke-width:0.5;"/><text x="81.09" y="304.5951" fill="#000000" font-size="14" lengthAdjust="spacing" textLength="151.8125" font-family="sans-serif">OpenPLC_v3 (control)</text></g><!--entity DHT--><g class="entity" data-qualified-name="DHT" id="ent0012" data-source-line="23"><polygon points="287.94,276.95,297.94,266.95,428.0523,266.95,428.0523,319.5438,418.0523,329.5438,287.94,329.5438,287.94,276.95" fill="#FFFFFF" style="stroke:#000000;stroke-width:0.5;stroke-linejoin:miter;stroke-miterlimit:10;"/><line x1="418.0523" y1="276.95" x2="428.0523" y2="266.95" style="stroke:#000000;stroke-width:0.5;"/><line x1="287.94" y1="276.95" x2="418.0523" y2="276.95" style="stroke:#000000;stroke-width:0.5;"/><line x1="418.0523" y1="276.95" x2="418.0523" y2="329.5438" style="stroke:#000000;stroke-width:0.5;"/><text x="321.438" y="299.9451" fill="#000000" font-size="14" lengthAdjust="spacing" textLength="63.1162" font-style="italic" font-family="sans-serif">«device»</text><text x="302.94" y="316.242" fill="#000000" font-size="14" lengthAdjust="spacing" textLength="100.1123" font-family="sans-serif">Sensor DHT22</text></g><!--entity RLY--><g class="entity" data-qualified-name="RLY" id="ent0013" data-source-line="24"><polygon points="89.55,456.24,99.55,446.24,234.4406,446.24,234.4406,498.8338,224.4406,508.8338,89.55,508.8338,89.55,456.24" fill="#FFFFFF" style="stroke:#000000;stroke-width:0.5;stroke-linejoin:miter;stroke-miterlimit:10;"/><line x1="224.4406" y1="456.24" x2="234.4406" y2="446.24" style="stroke:#000000;stroke-width:0.5;"/><line x1="89.55" y1="456.24" x2="224.4406" y2="456.24" style="stroke:#000000;stroke-width:0.5;"/><line x1="224.4406" y1="456.24" x2="224.4406" y2="508.8338" style="stroke:#000000;stroke-width:0.5;"/><text x="125.4372" y="479.2351" fill="#000000" font-size="14" lengthAdjust="spacing" textLength="63.1162" font-style="italic" font-family="sans-serif">«device»</text><text x="104.55" y="495.532" fill="#000000" font-size="14" lengthAdjust="spacing" textLength="104.8906" font-family="sans-serif">Relay + Cooler</text></g><!--link PC to CF--><g class="link" data-entity-1="ent0001" data-entity-2="ent0003" id="lnk14" data-source-line="26" data-link-type="dependency"><path d="M1001.3762,150.3121 C1001.4637,151.648 1001.5522,152.999 1001.6416,154.3638 C1001.8205,157.0933 1002.0029,159.8779 1002.1881,162.7066 C1002.9293,174.0212 1003.7166,186.0403 1004.5038,198.0588 C1004.7005,201.0634 1004.8973,204.0679 1005.0934,207.0614 C1005.1914,208.5582 1005.2893,210.0522 1005.3869,211.542 C1005.4357,212.2869 1005.4844,213.0308 1005.533,213.7735 C1005.5452,213.9592 1005.2306,209.1554 1005.2427,209.341" style="stroke:#181818;stroke-width:1;" fill="none" id="PC-to-CF"/><polygon points="1005.5695,214.3303,1008.9727,205.0881,1005.2427,209.341,1000.9898,205.6109,1005.5695,214.3303" fill="#181818" style="stroke:#181818;stroke-width:1;stroke-linejoin:miter;stroke-miterlimit:10;"/><text x="1004" y="186.6669" fill="#000000" font-size="13" lengthAdjust="spacing" textLength="160.5513" font-family="sans-serif">HTTPS (descarga la SPA)</text></g><!--link SPA to JAR--><g class="link" data-entity-1="ent0002" data-entity-2="ent0006" id="lnk15" data-source-line="27" data-link-type="dependency"><path d="M839.84,126 C831.34,145.84 817.61,172.34 799,190.6 C763.18,225.73 718.0269,250.2599 676.9769,268.0699" style="stroke:#181818;stroke-width:1;" fill="none" id="SPA-to-JAR"/><polygon points="672.39,270.06,682.2385,270.1474,676.9769,268.0699,679.0543,262.8083,672.39,270.06" fill="#181818" style="stroke:#181818;stroke-width:1;stroke-linejoin:miter;stroke-miterlimit:10;"/><text x="813" y="186.6669" fill="#000000" font-size="13" lengthAdjust="spacing" textLength="131.46" font-family="sans-serif">HTTPS · REST + SSE</text></g><!--link JAR to DB--><g class="link" data-entity-1="ent0006" data-entity-2="ent0008" id="lnk16" data-source-line="28" data-link-type="dependency"><path d="M598,326.17 C598,361.24 598,416.89 598,449.41" style="stroke:#181818;stroke-width:1;" fill="none" id="JAR-to-DB"/><polygon points="598,454.41,602,445.41,598,449.41,594,445.41,598,454.41" fill="#181818" style="stroke:#181818;stroke-width:1;stroke-linejoin:miter;stroke-miterlimit:10;"/><text x="599" y="378.9569" fill="#000000" font-size="13" lengthAdjust="spacing" textLength="128.1021" font-family="sans-serif">mongodb+srv · TLS</text></g><!--link GW to JAR--><g class="link" data-entity-1="ent0010" data-entity-2="ent0006" id="lnk17" data-source-line="29" data-link-type="dependency"><path d="M252.98,112.32 C310.18,123.46 385.17,142.58 446,173.6 C495.4,198.78 539.9533,238.5058 568.3933,266.6058" style="stroke:#181818;stroke-width:1;" fill="none" id="GW-to-JAR"/><polygon points="571.95,270.12,568.3593,260.949,568.3933,266.6058,562.7365,266.6398,571.95,270.12" fill="#181818" style="stroke:#181818;stroke-width:1;stroke-linejoin:miter;stroke-miterlimit:10;"/><text x="474" y="186.6669" fill="#000000" font-size="13" lengthAdjust="spacing" textLength="228.5347" font-family="sans-serif">HTTPS · REST (config / mediciones)</text></g><!--link GW to PLC--><g class="link" data-entity-1="ent0010" data-entity-2="ent0011" id="lnk18" data-source-line="30" data-link-type="dependency"><path d="M164.6349,122.8294 C164.0649,160.7594 162.9352,235.3906 162.3652,273.2706" style="stroke:#181818;stroke-width:1;" fill="none" id="GW-PLC"/><polygon points="164.71,117.83,160.5752,126.7689,164.6349,122.8294,168.5743,126.8891,164.71,117.83" fill="#181818" style="stroke:#181818;stroke-width:1;stroke-linejoin:miter;stroke-miterlimit:10;"/><polygon points="162.29,278.27,166.425,269.3312,162.3652,273.2706,158.4259,269.2108,162.29,278.27" fill="#181818" style="stroke:#181818;stroke-width:1;stroke-linejoin:miter;stroke-miterlimit:10;"/><text x="164" y="186.6669" fill="#000000" font-size="13" lengthAdjust="spacing" textLength="79.6758" font-family="sans-serif">Modbus TCP</text></g><!--link GW to DHT--><g class="link" data-entity-1="ent0010" data-entity-2="ent0012" id="lnk19" data-source-line="31" data-link-type="dependency"><path d="M189.12,117.87 C207.09,132.46 231.87,153.44 252,173.6 C281.97,203.61 310.0738,237.0059 330.8038,262.7459" style="stroke:#181818;stroke-width:1;" fill="none" id="GW-to-DHT"/><polygon points="333.94,266.64,331.4102,257.1216,330.8038,262.7459,325.1795,262.1395,333.94,266.64" fill="#181818" style="stroke:#181818;stroke-width:1;stroke-linejoin:miter;stroke-miterlimit:10;"/><text x="268" y="186.6669" fill="#000000" font-size="13" lengthAdjust="spacing" textLength="169.9966" font-family="sans-serif">GPIO (lee temp/humedad)</text></g><!--link PLC to RLY--><g class="link" data-entity-1="ent0011" data-entity-2="ent0013" id="lnk20" data-source-line="32" data-link-type="dependency"><path d="M162,318.22 C162,348.77 162,404.15 162,440.87" style="stroke:#181818;stroke-width:1;" fill="none" id="PLC-to-RLY"/><polygon points="162,445.87,166,436.87,162,440.87,158,436.87,162,445.87" fill="#181818" style="stroke:#181818;stroke-width:1;stroke-linejoin:miter;stroke-miterlimit:10;"/><text x="163" y="378.9569" fill="#000000" font-size="13" lengthAdjust="spacing" textLength="96.2876" font-family="sans-serif">GPIO (acciona)</text></g><?plantuml-src XLFRQjj047tNLmn-gKNgk3Zq9OI0BRkvODT2gs8AWJBMJfHjrhjYT-NMb48_el_IztvAlwIp4J6DsnBmWvazSywPCwCNC5LOEzmWIEAVRxIYkYNelrlCK_ZrxJiOAws7lgIjgWY6G9-fQeEoPcQsobcp8HFIbu0kq2rMWR4xS6r07nahkscDgh1Y_77YxvLfaDKYAS6N1622rNtjR6jaPhLriBfJWMBTEackgqqqWvAlIVBGrSipPjPW6t8ehUl1sLbdxlmSM9MV8p7xKT4Fz4G-XeBuxutfLzOvHKPQ80DCOd1BTMH9Ux6NeQpJoMJQjl9MeoF8iIQE89k-JQFQlnBejBCt1zfI-J24_cMvc0-lnJ0JeXEQNebohrIWqfzm1-pE13B4Tc1ggtjopyWLgmEvIE2i7lYT3xGPh3at7lRu8xeR8ngdJCt1si1Rl2vcC7hzuELwNEojBAofxNG2uw3vfRzuzOo3SJaVYmSJ4WEkqTFUHEUXctRonwo-MPDpEyWLd4oERioJobB0oMYmLk5mgqL-TJ1hZO4ujUE6WyjtuSwQBjgBrHFOiY6JpxCFsvCkNtRMuRYuToN8-1ZwPJaQ7IfpyT4xQTxI4MJMQlhhxehv-oJXuniCpkCTdC9bMUOYVZY-GbSZQ8ptbIRn7YE8Sz-ZVlw0OYPA9XTYbiINYE15dC8chaIkZxpRHbWv5yd5why4SSPRLVE6DoHL_Ep8fx7XB7RmpDonOBhMGvdbZqmy8zSlygibz3KHyEAQuLtB52ZJ97P554-uHs4LkJ7z3G00?></g></svg>