<svg xmlns="http://www.w3.org/2000/svg" xmlns:xlink="http://www.w3.org/1999/xlink" contentStyleType="text/css" data-diagram-type="DESCRIPTION" height="673px" preserveAspectRatio="none" style="width:1225px;height:673px;background:#FFFFFF;" version="1.1" viewBox="0 0 1225 673" width="1225px" zoomAndPan="magnify"><?plantuml 1.2026.6?><defs/><g><!--cluster PC--><g class="cluster" data-qualified-name="PC" data-source-line="10" id="ent0001"><polygon fill="#FFFFFF" points="654,30,664,20,949,20,949,157,939,167,654,167,654,30" style="stroke:#000000;stroke-width:1;stroke-linejoin:miter;stroke-miterlimit:10;"/><line style="stroke:#000000;stroke-width:1;" x1="939" x2="949" y1="30" y2="20"/><line style="stroke:#000000;stroke-width:1;" x1="654" x2="939" y1="30" y2="30"/><line style="stroke:#000000;stroke-width:1;" x1="939" x2="939" y1="30" y2="167"/><text fill="#000000" font-family="Verdana" font-size="14" font-style="italic" lengthAdjust="spacing" textLength="62.8564" x="766.0718" y="47.0752">&#171;device&#187;</text><text fill="#000000" font-family="Verdana" font-size="14" font-weight="700" lengthAdjust="spacing" textLength="125.2002" x="734.8999" y="64.0898">PC del operador</text></g><!--cluster CF--><g class="cluster" data-qualified-name="CF" data-source-line="13" id="ent0003"><polygon fill="#FFFFFF" points="939,258,949,248,1200,248,1200,368,1190,378,939,378,939,258" style="stroke:#000000;stroke-width:1;stroke-linejoin:miter;stroke-miterlimit:10;"/><line style="stroke:#000000;stroke-width:1;" x1="1190" x2="1200" y1="258" y2="248"/><line style="stroke:#000000;stroke-width:1;" x1="939" x2="1190" y1="258" y2="258"/><line style="stroke:#000000;stroke-width:1;" x1="1190" x2="1190" y1="258" y2="378"/><text fill="#000000" font-family="Verdana" font-size="14" font-style="italic" lengthAdjust="spacing" textLength="175.376" x="977.812" y="275.0752">&#171;executionEnvironment&#187;</text><text fill="#000000" font-family="Verdana" font-size="14" font-weight="700" lengthAdjust="spacing" textLength="185.9922" x="972.5039" y="292.0898">Cloudflare Pages (CDN)</text></g><!--cluster RW--><g class="cluster" data-qualified-name="RW" data-source-line="16" id="ent0005"><polygon fill="#FFFFFF" points="555,257.5,565,247.5,862,247.5,862,368.5,852,378.5,555,378.5,555,257.5" style="stroke:#000000;stroke-width:1;stroke-linejoin:miter;stroke-miterlimit:10;"/><line style="stroke:#000000;stroke-width:1;" x1="852" x2="862" y1="257.5" y2="247.5"/><line style="stroke:#000000;stroke-width:1;" x1="555" x2="852" y1="257.5" y2="257.5"/><line style="stroke:#000000;stroke-width:1;" x1="852" x2="852" y1="257.5" y2="378.5"/><text fill="#000000" font-family="Verdana" font-size="14" font-style="italic" lengthAdjust="spacing" textLength="175.376" x="616.812" y="274.5752">&#171;executionEnvironment&#187;</text><text fill="#000000" font-family="Verdana" font-size="14" font-weight="700" lengthAdjust="spacing" textLength="231.082" x="588.959" y="291.5898">Railway (contenedor Docker)</text></g><!--cluster ATLAS--><g class="cluster" data-qualified-name="ATLAS" data-source-line="19" id="ent0007"><polygon fill="#FFFFFF" points="583,445,593,435,834,435,834,545,824,555,583,555,583,445" style="stroke:#000000;stroke-width:1;stroke-linejoin:miter;stroke-miterlimit:10;"/><line style="stroke:#000000;stroke-width:1;" x1="824" x2="834" y1="445" y2="435"/><line style="stroke:#000000;stroke-width:1;" x1="583" x2="824" y1="445" y2="445"/><line style="stroke:#000000;stroke-width:1;" x1="824" x2="824" y1="445" y2="555"/><text fill="#000000" font-family="Verdana" font-size="14" font-style="italic" lengthAdjust="spacing" textLength="175.376" x="616.812" y="462.0752">&#171;executionEnvironment&#187;</text><text fill="#000000" font-family="Verdana" font-size="14" font-weight="700" lengthAdjust="spacing" textLength="162.2373" x="623.3813" y="479.0898">MongoDB Atlas (M0)</text></g><!--cluster RPI--><g class="cluster" data-qualified-name="RPI" data-source-line="22" id="ent0009"><polygon fill="#FFFFFF" points="21,21,31,11,478,11,478,368.5,468,378.5,21,378.5,21,21" style="stroke:#000000;stroke-width:1;stroke-linejoin:miter;stroke-miterlimit:10;"/><line style="stroke:#000000;stroke-width:1;" x1="468" x2="478" y1="21" y2="11"/><line style="stroke:#000000;stroke-width:1;" x1="21" x2="468" y1="21" y2="21"/><line style="stroke:#000000;stroke-width:1;" x1="468" x2="468" y1="21" y2="378.5"/><text fill="#000000" font-family="Verdana" font-size="14" font-style="italic" lengthAdjust="spacing" textLength="62.8564" x="214.0718" y="38.0752">&#171;device&#187;</text><text fill="#000000" font-family="Verdana" font-size="14" font-weight="700" lengthAdjust="spacing" textLength="137.8877" x="176.5562" y="55.0898">Raspberry Pi 3B+</text><text fill="#000000" font-family="Verdana" font-size="14" font-weight="700" lengthAdjust="spacing" textLength="179.3408" x="155.8296" y="72.1045">Raspberry Pi OS 32-bit</text></g><!--entity SPA--><g class="entity" data-qualified-name="PC.SPA" data-source-line="11" id="ent0002"><rect fill="#FFFFFF" height="57.0293" rx="2.5" ry="2.5" style="stroke:#000000;stroke-width:1;" width="227.0801" x="678.5" y="86"/><polygon fill="#FFFFFF" points="888.5801,91,888.5801,105,900.5801,105,900.5801,97,894.5801,91,888.5801,91" style="stroke:#000000;stroke-width:1;stroke-linejoin:miter;stroke-miterlimit:10;"/><line style="stroke:#000000;stroke-width:1;" x1="894.5801" x2="894.5801" y1="91" y2="97"/><line style="stroke:#000000;stroke-width:1;" x1="900.5801" x2="894.5801" y1="97" y2="97"/><text fill="#000000" font-family="Verdana" font-size="14" lengthAdjust="spacing" textLength="71.7979" x="688.5" y="113.0752">SPA React</text><text fill="#000000" font-family="Verdana" font-size="14" lengthAdjust="spacing" textLength="197.0801" x="688.5" y="130.0898">(corriendo en el navegador)</text></g><!--entity DIST--><g class="entity" data-qualified-name="CF.DIST" data-source-line="14" id="ent0004"><rect fill="#FFFFFF" height="40.0146" rx="2.5" ry="2.5" style="stroke:#000000;stroke-width:1;" width="175.6738" x="995" y="314"/><polygon fill="#FFFFFF" points="1153.6738,319,1153.6738,333,1165.6738,333,1165.6738,325,1159.6738,319,1153.6738,319" style="stroke:#000000;stroke-width:1;stroke-linejoin:miter;stroke-miterlimit:10;"/><line style="stroke:#000000;stroke-width:1;" x1="1159.6738" x2="1159.6738" y1="319" y2="325"/><line style="stroke:#000000;stroke-width:1;" x1="1165.6738" x2="1159.6738" y1="325" y2="325"/><text fill="#000000" font-family="Verdana" font-size="14" lengthAdjust="spacing" textLength="145.6738" x="1005" y="341.0752">dist/ (HTML/JS/CSS)</text></g><!--entity JAR--><g class="entity" data-qualified-name="RW.JAR" data-source-line="17" id="ent0006"><rect fill="#FFFFFF" height="57.0293" rx="2.5" ry="2.5" style="stroke:#000000;stroke-width:1;" width="224.4688" x="596" y="305.5"/><polygon fill="#FFFFFF" points="803.4688,310.5,803.4688,324.5,815.4688,324.5,815.4688,316.5,809.4688,310.5,803.4688,310.5" style="stroke:#000000;stroke-width:1;stroke-linejoin:miter;stroke-miterlimit:10;"/><line style="stroke:#000000;stroke-width:1;" x1="809.4688" x2="809.4688" y1="310.5" y2="316.5"/><line style="stroke:#000000;stroke-width:1;" x1="815.4688" x2="809.4688" y1="316.5" y2="316.5"/><text fill="#000000" font-family="Verdana" font-size="14" lengthAdjust="spacing" textLength="194.4688" x="606" y="332.5752">control-system-backend.jar</text><text fill="#000000" font-family="Verdana" font-size="14" lengthAdjust="spacing" textLength="146.5967" x="606" y="349.5898">Spring Boot / JRE 25</text></g><!--entity DB--><g class="entity" data-qualified-name="ATLAS.DB" data-source-line="20" id="ent0008"><path d="M648.5,503 C648.5,493 707.9136,493 707.9136,493 C707.9136,493 767.3271,493 767.3271,503 L767.3271,529.0146 C767.3271,539.0146 707.9136,539.0146 707.9136,539.0146 C707.9136,539.0146 648.5,539.0146 648.5,529.0146 L648.5,503" fill="#FFFFFF" style="stroke:#000000;stroke-width:1;"/><path d="M648.5,503 C648.5,513 707.9136,513 707.9136,513 C707.9136,513 767.3271,513 767.3271,503" fill="none" style="stroke:#000000;stroke-width:1;"/><text fill="#000000" font-family="Verdana" font-size="14" lengthAdjust="spacing" textLength="98.8271" x="658.5" y="531.0752">controlsystem</text></g><!--entity GW--><g class="entity" data-qualified-name="RPI.GW" data-source-line="23" id="ent0010"><rect fill="#FFFFFF" height="57.0293" rx="2.5" ry="2.5" style="stroke:#000000;stroke-width:1;" width="227.0391" x="234.5" y="86"/><polygon fill="#FFFFFF" points="444.5391,91,444.5391,105,456.5391,105,456.5391,97,450.5391,91,444.5391,91" style="stroke:#000000;stroke-width:1;stroke-linejoin:miter;stroke-miterlimit:10;"/><line style="stroke:#000000;stroke-width:1;" x1="450.5391" x2="450.5391" y1="91" y2="97"/><line style="stroke:#000000;stroke-width:1;" x1="456.5391" x2="450.5391" y1="97" y2="97"/><text fill="#000000" font-family="Verdana" font-size="14" lengthAdjust="spacing" textLength="81.2383" x="244.5" y="113.0752">gateway.py</text><text fill="#000000" font-family="Verdana" font-size="14" lengthAdjust="spacing" textLength="197.0391" x="244.5" y="130.0898">(systemd: control-gateway)</text></g><!--entity PLC--><g class="entity" data-qualified-name="RPI.PLC" data-source-line="24" id="ent0011"><rect fill="#FFFFFF" height="57.0293" rx="2.5" ry="2.5" style="stroke:#000000;stroke-width:1;" width="178.9688" x="37.5" y="305.5"/><polygon fill="#FFFFFF" points="199.4688,310.5,199.4688,324.5,211.4688,324.5,211.4688,316.5,205.4688,310.5,199.4688,310.5" style="stroke:#000000;stroke-width:1;stroke-linejoin:miter;stroke-miterlimit:10;"/><line style="stroke:#000000;stroke-width:1;" x1="205.4688" x2="205.4688" y1="310.5" y2="316.5"/><line style="stroke:#000000;stroke-width:1;" x1="211.4688" x2="205.4688" y1="316.5" y2="316.5"/><text fill="#000000" font-family="Verdana" font-size="14" lengthAdjust="spacing" textLength="148.9688" x="47.5" y="332.5752">OpenPLC_v3 runtime</text><text fill="#000000" font-family="Verdana" font-size="14" lengthAdjust="spacing" textLength="133.9229" x="47.5" y="349.5898">(programa Ladder)</text></g><!--entity PIG--><g class="entity" data-qualified-name="RPI.PIG" data-source-line="25" id="ent0012"><rect fill="#FFFFFF" height="57.0293" rx="2.5" ry="2.5" style="stroke:#000000;stroke-width:1;" width="140.291" x="314" y="305.5"/><polygon fill="#FFFFFF" points="437.291,310.5,437.291,324.5,449.291,324.5,449.291,316.5,443.291,310.5,437.291,310.5" style="stroke:#000000;stroke-width:1;stroke-linejoin:miter;stroke-miterlimit:10;"/><line style="stroke:#000000;stroke-width:1;" x1="443.291" x2="443.291" y1="310.5" y2="316.5"/><line style="stroke:#000000;stroke-width:1;" x1="449.291" x2="443.291" y1="316.5" y2="316.5"/><text fill="#000000" font-family="Verdana" font-size="14" lengthAdjust="spacing" textLength="51.0713" x="324" y="332.5752">pigpiod</text><text fill="#000000" font-family="Verdana" font-size="14" lengthAdjust="spacing" textLength="110.291" x="324" y="349.5898">(daemon GPIO)</text></g><!--entity DHT--><g class="entity" data-qualified-name="DHT" data-source-line="27" id="ent0013"><polygon fill="#FFFFFF" points="133.5,494,143.5,484,274.6924,484,274.6924,538.0293,264.6924,548.0293,133.5,548.0293,133.5,494" style="stroke:#000000;stroke-width:1;stroke-linejoin:miter;stroke-miterlimit:10;"/><line style="stroke:#000000;stroke-width:1;" x1="264.6924" x2="274.6924" y1="494" y2="484"/><line style="stroke:#000000;stroke-width:1;" x1="133.5" x2="264.6924" y1="494" y2="494"/><line style="stroke:#000000;stroke-width:1;" x1="264.6924" x2="264.6924" y1="494" y2="548.0293"/><text fill="#000000" font-family="Verdana" font-size="14" font-style="italic" lengthAdjust="spacing" textLength="62.8564" x="167.668" y="518.0752">&#171;device&#187;</text><text fill="#000000" font-family="Verdana" font-size="14" lengthAdjust="spacing" textLength="48.5352" x="148.5" y="535.0898">Sensor</text><text fill="#000000" font-family="Verdana" font-size="14" lengthAdjust="spacing" textLength="4.9219" x="197.0352" y="535.0898">&#160;</text><text fill="#000000" font-family="Verdana" font-size="14" lengthAdjust="spacing" textLength="47.7354" x="201.957" y="535.0898">DHT22</text></g><!--entity RLY--><g class="entity" data-qualified-name="RLY" data-source-line="28" id="ent0014"><polygon fill="#FFFFFF" points="355.5,494,365.5,484,500.3359,484,500.3359,538.0293,490.3359,548.0293,355.5,548.0293,355.5,494" style="stroke:#000000;stroke-width:1;stroke-linejoin:miter;stroke-miterlimit:10;"/><line style="stroke:#000000;stroke-width:1;" x1="490.3359" x2="500.3359" y1="494" y2="484"/><line style="stroke:#000000;stroke-width:1;" x1="355.5" x2="490.3359" y1="494" y2="494"/><line style="stroke:#000000;stroke-width:1;" x1="490.3359" x2="490.3359" y1="494" y2="548.0293"/><text fill="#000000" font-family="Verdana" font-size="14" font-style="italic" lengthAdjust="spacing" textLength="62.8564" x="391.4897" y="518.0752">&#171;device&#187;</text><text fill="#000000" font-family="Verdana" font-size="14" lengthAdjust="spacing" textLength="38.6094" x="370.5" y="535.0898">Relay</text><text fill="#000000" font-family="Verdana" font-size="14" lengthAdjust="spacing" textLength="4.9219" x="409.1094" y="535.0898">&#160;</text><text fill="#000000" font-family="Verdana" font-size="14" lengthAdjust="spacing" textLength="11.457" x="414.0313" y="535.0898">+</text><text fill="#000000" font-family="Verdana" font-size="14" lengthAdjust="spacing" textLength="4.9219" x="425.4883" y="535.0898">&#160;</text><text fill="#000000" font-family="Verdana" font-size="14" lengthAdjust="spacing" textLength="44.9258" x="430.4102" y="535.0898">Cooler</text></g><!--link PC to CF--><g class="link" data-entity-1="ent0001" data-entity-2="ent0003" data-link-type="dependency" data-source-line="30" id="lnk15"><path d="M944.5951,167.618 C944.9895,173.3355 945.4039,179.3428 945.8315,185.5431 C946.6868,197.9437 947.5953,211.1166 948.5038,224.2888 C948.958,230.8748 949.4122,237.4608 949.8597,243.9499 C949.9156,244.761 949.9715,245.5706 950.0272,246.3786 C950.055,246.7825 949.7389,242.1979 949.7667,242.601" fill="none" id="PC-to-CF" style="stroke:#000000;stroke-width:1;"/><polygon fill="#000000" points="950.1107,247.5892,953.482,238.3353,949.7667,242.601,945.5009,238.8857,950.1107,247.5892" style="stroke:#000000;stroke-width:1;stroke-linejoin:miter;stroke-miterlimit:10;"/><text fill="#000000" font-family="Verdana" font-size="13" lengthAdjust="spacing" textLength="163.6743" x="949" y="213.0698">HTTPS (descarga la SPA)</text></g><!--link SPA to JAR--><g class="link" data-entity-1="ent0002" data-entity-2="ent0006" data-link-type="dependency" data-source-line="31" id="lnk16"><path d="M781.36,143.05 C765.25,184.77 736.6324,258.8762 720.4824,300.6662" fill="none" id="SPA-to-JAR" style="stroke:#000000;stroke-width:1;"/><polygon fill="#000000" points="718.68,305.33,725.6553,298.377,720.4824,300.6662,718.1932,295.4932,718.68,305.33" style="stroke:#000000;stroke-width:1;stroke-linejoin:miter;stroke-miterlimit:10;"/><text fill="#000000" font-family="Verdana" font-size="13" lengthAdjust="spacing" textLength="136.3159" x="763" y="213.0698">HTTPS &#183; REST + SSE</text></g><!--link JAR to DB--><g class="link" data-entity-1="ent0006" data-entity-2="ent0008" data-link-type="dependency" data-source-line="32" id="lnk17"><path d="M708,362.73 C708,398.53 708,455.11 708,487.91" fill="none" id="JAR-to-DB" style="stroke:#000000;stroke-width:1;"/><polygon fill="#000000" points="708,492.91,712,483.91,708,487.91,704,483.91,708,492.91" style="stroke:#000000;stroke-width:1;stroke-linejoin:miter;stroke-miterlimit:10;"/><text fill="#000000" font-family="Verdana" font-size="13" lengthAdjust="spacing" textLength="129.6064" x="709" y="416.0698">mongodb+srv &#183; TLS</text></g><!--link GW to JAR--><g class="link" data-entity-1="ent0010" data-entity-2="ent0006" data-link-type="dependency" data-source-line="33" id="lnk18"><path d="M386.43,143.11 C418.42,165.7 465.44,198.06 508,224 C556.45,253.54 608.9973,281.8968 649.7173,303.1468" fill="none" id="GW-to-JAR" style="stroke:#000000;stroke-width:1;"/><polygon fill="#000000" points="654.15,305.46,648.0217,297.75,649.7173,303.1468,644.3205,304.8423,654.15,305.46" style="stroke:#000000;stroke-width:1;stroke-linejoin:miter;stroke-miterlimit:10;"/><text fill="#000000" font-family="Verdana" font-size="13" lengthAdjust="spacing" textLength="234.1206" x="509" y="213.0698">HTTPS &#183; REST (config / mediciones)</text></g><!--link GW to PLC--><g class="link" data-entity-1="ent0010" data-entity-2="ent0011" data-link-type="dependency" data-source-line="34" id="lnk19"><path d="M229.2956,134.4829 C165.2756,147.1829 99.3,165.52 80,191 C53.98,225.37 78.5021,270.8461 101.0421,301.4061" fill="none" id="GW-PLC" style="stroke:#000000;stroke-width:1;"/><polygon fill="#000000" points="234.2,133.51,224.5937,131.3377,229.2956,134.4829,226.1504,139.1848,234.2,133.51" style="stroke:#000000;stroke-width:1;stroke-linejoin:miter;stroke-miterlimit:10;"/><polygon fill="#000000" points="104.01,305.43,101.8869,295.8127,101.0421,301.4061,95.4487,300.5613,104.01,305.43" style="stroke:#000000;stroke-width:1;stroke-linejoin:miter;stroke-miterlimit:10;"/><text fill="#000000" font-family="Verdana" font-size="13" lengthAdjust="spacing" textLength="114.8101" x="159.0381" y="205.0698">Modbus TCP :502</text><text fill="#000000" font-family="Verdana" font-size="13" lengthAdjust="spacing" textLength="270.8862" x="81" y="220.8691">(HR0..5 entradas &#183; coil 0 + HR10 salidas)</text></g><!--link GW to PIG--><g class="link" data-entity-1="ent0010" data-entity-2="ent0012" data-link-type="dependency" data-source-line="35" id="lnk20"><path d="M352.56,143.05 C359.47,184.77 371.6832,258.6072 378.6032,300.3972" fill="none" id="GW-to-PIG" style="stroke:#000000;stroke-width:1;"/><polygon fill="#000000" points="379.42,305.33,381.896,295.7974,378.6032,300.3972,374.0035,297.1044,379.42,305.33" style="stroke:#000000;stroke-width:1;stroke-linejoin:miter;stroke-miterlimit:10;"/><text fill="#000000" font-family="Verdana" font-size="13" lengthAdjust="spacing" textLength="76.1719" x="365" y="213.0698">socket local</text></g><!--link PIG to DHT--><g class="link" data-entity-1="ent0012" data-entity-2="ent0013" data-link-type="dependency" data-source-line="36" id="lnk21"><path d="M317.21,362.53 C291.38,372.85 261.47,384.39 234,394 C222.59,397.99 215.35,392.4 208,402 C190.33,425.06 190.8835,454.3057 195.2335,479.0257" fill="none" id="PIG-to-DHT" style="stroke:#000000;stroke-width:1;"/><polygon fill="#000000" points="196.1,483.95,198.4797,474.393,195.2335,479.0257,190.6008,475.7794,196.1,483.95" style="stroke:#000000;stroke-width:1;stroke-linejoin:miter;stroke-miterlimit:10;"/><text fill="#000000" font-family="Verdana" font-size="13" lengthAdjust="spacing" textLength="182.2539" x="209" y="416.0698">GPIO4 (lee temp/humedad)</text></g><!--link PIG to RLY--><g class="link" data-entity-1="ent0012" data-entity-2="ent0014" data-link-type="dependency" data-source-line="37" id="lnk22"><path d="M390.78,362.73 C398.78,395.47 410.8731,444.9229 419.2131,479.0529" fill="none" id="PIG-to-RLY" style="stroke:#000000;stroke-width:1;"/><polygon fill="#000000" points="420.4,483.91,422.1493,474.2177,419.2131,479.0529,414.3779,476.1167,420.4,483.91" style="stroke:#000000;stroke-width:1;stroke-linejoin:miter;stroke-miterlimit:10;"/><text fill="#000000" font-family="Verdana" font-size="13" lengthAdjust="spacing" textLength="193.8193" x="404" y="416.0698">GPIO14 (acciona, activo-alto)</text></g><g class="legend" data-source-line="39"><rect fill="none" height="82.0586" rx="7.5" ry="7.5" style="stroke:#000000;stroke-width:1;" width="436.7402" x="776.2598" y="579"/><text fill="#000000" font-family="Verdana" font-size="14" font-weight="700" lengthAdjust="spacing" textLength="89.9746" x="786.0449" y="600.0752">Estereotipo</text><text fill="#000000" font-family="Verdana" font-size="14" font-weight="700" lengthAdjust="spacing" textLength="86.9668" x="971.2715" y="600.0752">Significado</text><text fill="#000000" font-family="Verdana" font-size="14" lengthAdjust="spacing" textLength="62.8701" x="786.1816" y="617.0898">&#171;device&#187;</text><text fill="#000000" font-family="Verdana" font-size="14" lengthAdjust="spacing" textLength="158.9697" x="971.4082" y="617.0898">nodo fisico (hardware)</text><text fill="#000000" font-family="Verdana" font-size="14" lengthAdjust="spacing" textLength="175.3828" x="786.1816" y="634.1045">&#171;executionEnvironment&#187;</text><text fill="#000000" font-family="Verdana" font-size="14" lengthAdjust="spacing" textLength="229.2158" x="971.4082" y="634.1045">entorno de ejecucion gestionado</text><text fill="#000000" font-family="Verdana" font-size="14" lengthAdjust="spacing" textLength="67.9287" x="786.1816" y="651.1191">&#171;artifact&#187;</text><text fill="#000000" font-family="Verdana" font-size="14" lengthAdjust="spacing" textLength="231.6699" x="971.4082" y="651.1191">artefacto desplegado en un nodo</text><line style="stroke:#000000;stroke-width:1;" x1="781.2598" x2="1208" y1="586" y2="586"/><line style="stroke:#000000;stroke-width:1;" x1="781.2598" x2="1208" y1="603.0146" y2="603.0146"/><line style="stroke:#000000;stroke-width:1;" x1="781.2598" x2="1208" y1="620.0293" y2="620.0293"/><line style="stroke:#000000;stroke-width:1;" x1="781.2598" x2="1208" y1="637.0439" y2="637.0439"/><line style="stroke:#000000;stroke-width:1;" x1="781.2598" x2="1208" y1="654.0586" y2="654.0586"/><line style="stroke:#000000;stroke-width:1;" x1="781.2598" x2="781.2598" y1="586" y2="654.0586"/><line style="stroke:#000000;stroke-width:1;" x1="966.4863" x2="966.4863" y1="586" y2="654.0586"/><line style="stroke:#000000;stroke-width:1;" x1="1208" x2="1208" y1="586" y2="654.0586"/></g><?plantuml-src XLHTRkD637xNATZiGosa_bcdUGdI0BRiZHFOZI2f20e4M8mrj3oRyOmmCtPgD0LwYDwY1-X3ttAKdgIabHY9TnTh170y_4X-93_okx345KAjXJAHlrUc5awiO2xA-yhPjP69rTR1km-xpok4Nmff7vIfO26qn-Xx62bHaKM0HFhpjLPOhH5QlyocCVptvrzWhBGUMX8tgaJe0lw6vJeeQyPcevmrApGX_W642xWGPI3i5jmw2CyHIxjQ6rMAal2TLpmeACBl4S3mWFBjKWNaT-iakkPjg0aK_H55Ew-ZDA786coDZefnHt1-tf2xk03AIcOEJ7mKyu6ZF1r0XlJldMcLrZc5Hbf00nJ4Y0rM72K-Ob-2KfucJQBjMYwqS0Yfg91Qa8n-ZZdRbphGv4u-7EIMoeSkj2R5RDgzphj9dZU9HbTviS-K2QKVn1Q8dGbeaEZ0o9RtwBwHBhizICS1dDLjl_K1LstM0nNR-IJSdSbhntCVMXjeYjVP6FgdEoxNWsnFPMPDPKT360HDbjQizmq6Ws8wo7Saf0XYBZpkIJGSccg7hshrzHoTsqAgu6HuV6VUlDpaSD9lprKud6gMNXtKMec0rBLElQMvDida6RnquDdQTFlozetdJOqcdIOVDoSaL1FK2Yb2xMop1rCX9JxhWL1lF6jLrSfAWak1AslWChswUOPUNUwBpD5udk6awFSF2w77brQWfg4VGsAjnizad4r_ZIBIShjzmR8wWqbHf3dleI-5gmHemNAD8vOtWsYCUzJJFv2DyuA2v_auOWiZQAvdiE89o_cnTnk65TCykhpzQW2Mv49L99WLIiLRZ3vcXtFseFQGnup2hJqKIGfdfxq-DMUIzJgTKrgnG1jAjL2qqYeDFI8qoTxtm0kjo12_fARcKI3FcW-WRIbqn4yxqfE2JDpd7w6b4O7cN7UNQ-8ZPBo7KRkUOUy99qgcAkWgbK5jR5leOECeqbZHEe1JrJBGN1z_WZ79ng4DghRyCrULKGkwLtGW7Xa1JtytGtdwbtxmAOI5yggqq5eA9n_eEiHxv9VMPET7tzOPomSHFn66oG6T5CQ-JlKYj9tJ_g0sPtbtflXghKt3up6YMfgA_WS0?></g></svg>