<svg xmlns="http://www.w3.org/2000/svg" xmlns:xlink="http://www.w3.org/1999/xlink" version="1.1" data-diagram-type="DESCRIPTION" style="width:1151px;height:548px;background:#FFFFFF;" width="1151.0417px" height="548.9583px" viewBox="0 0 1151 548" zoomAndPan="magnify" preserveAspectRatio="none" contentStyleType="text/css"><?plantuml 1.2026.7beta3?><defs/><g><!--cluster PC--><g class="cluster" data-qualified-name="PC" id="ent0001" data-source-line="10"><polygon points="700,27.0833,710.4167,16.6667,976.0417,16.6667,976.0417,145.7604,965.625,156.1771,700,156.1771,700,27.0833" fill="#FFFFFF" style="stroke:#000000;stroke-width:1.0417;stroke-linejoin:miter;stroke-miterlimit:10;"/><line x1="965.625" y1="27.0833" x2="976.0417" y2="16.6667" style="stroke:#000000;stroke-width:1.0417;"/><line x1="700" y1="27.0833" x2="965.625" y2="27.0833" style="stroke:#000000;stroke-width:1.0417;"/><line x1="965.625" y1="27.0833" x2="965.625" y2="156.1771" style="stroke:#000000;stroke-width:1.0417;"/><text x="805.6773" y="41.8111" fill="#343A40" font-size="12.5" lengthAdjust="spacing" textLength="56.3538" font-style="italic" font-family="'Verdana'">«device»</text><text x="777.3234" y="56.3619" fill="#343A40" font-size="12.5" lengthAdjust="spacing" textLength="113.0615" font-weight="700" font-family="'Verdana'">PC del operador</text></g><!--cluster CF--><g class="cluster" data-qualified-name="CF" id="ent0003" data-source-line="13"><polygon points="760.4167,232.2188,770.8333,221.8021,1004.1667,221.8021,1004.1667,336.3542,993.75,346.7708,760.4167,346.7708,760.4167,232.2188" fill="#FFFFFF" style="stroke:#000000;stroke-width:1.0417;stroke-linejoin:miter;stroke-miterlimit:10;"/><line x1="993.75" y1="232.2188" x2="1004.1667" y2="221.8021" style="stroke:#000000;stroke-width:1.0417;"/><line x1="760.4167" y1="232.2188" x2="993.75" y2="232.2188" style="stroke:#000000;stroke-width:1.0417;"/><line x1="993.75" y1="232.2188" x2="993.75" y2="346.7708" style="stroke:#000000;stroke-width:1.0417;"/><text x="799.6735" y="246.9465" fill="#343A40" font-size="12.5" lengthAdjust="spacing" textLength="156.9031" font-style="italic" font-family="'Verdana'">«executionEnvironment»</text><text x="795.4773" y="261.4973" fill="#343A40" font-size="12.5" lengthAdjust="spacing" textLength="165.2954" font-weight="700" font-family="'Verdana'">Cloudflare Pages (CDN)</text></g><!--cluster RW--><g class="cluster" data-qualified-name="RW" id="ent0005" data-source-line="16"><polygon points="432.2917,233.2813,442.7083,222.8646,715.625,222.8646,715.625,335.3021,705.2083,345.7188,432.2917,345.7188,432.2917,233.2813" fill="#FFFFFF" style="stroke:#000000;stroke-width:1.0417;stroke-linejoin:miter;stroke-miterlimit:10;"/><line x1="705.2083" y1="233.2813" x2="715.625" y2="222.8646" style="stroke:#000000;stroke-width:1.0417;"/><line x1="432.2917" y1="233.2813" x2="705.2083" y2="233.2813" style="stroke:#000000;stroke-width:1.0417;"/><line x1="705.2083" y1="233.2813" x2="705.2083" y2="345.7188" style="stroke:#000000;stroke-width:1.0417;"/><text x="491.3401" y="248.009" fill="#343A40" font-size="12.5" lengthAdjust="spacing" textLength="156.9031" font-style="italic" font-family="'Verdana'">«executionEnvironment»</text><text x="467.4693" y="262.5598" fill="#343A40" font-size="12.5" lengthAdjust="spacing" textLength="204.6448" font-weight="700" font-family="'Verdana'">Railway (contenedor Docker)</text></g><!--cluster ATLAS--><g class="cluster" data-qualified-name="ATLAS" id="ent0007" data-source-line="19"><polygon points="457.2917,414.4792,467.7083,404.0625,692.7083,404.0625,692.7083,508.1979,682.2917,518.6146,457.2917,518.6146,457.2917,414.4792" fill="#FFFFFF" style="stroke:#000000;stroke-width:1.0417;stroke-linejoin:miter;stroke-miterlimit:10;"/><line x1="682.2917" y1="414.4792" x2="692.7083" y2="404.0625" style="stroke:#000000;stroke-width:1.0417;"/><line x1="457.2917" y1="414.4792" x2="682.2917" y2="414.4792" style="stroke:#000000;stroke-width:1.0417;"/><line x1="682.2917" y1="414.4792" x2="682.2917" y2="518.6146" style="stroke:#000000;stroke-width:1.0417;"/><text x="492.3818" y="429.2069" fill="#343A40" font-size="12.5" lengthAdjust="spacing" textLength="156.9031" font-style="italic" font-family="'Verdana'">«executionEnvironment»</text><text x="498.6135" y="443.7577" fill="#343A40" font-size="12.5" lengthAdjust="spacing" textLength="144.4397" font-weight="700" font-family="'Verdana'">MongoDB Atlas (M0)</text></g><!--cluster RPI--><g class="cluster" data-qualified-name="RPI" id="ent0009" data-source-line="22"><polygon points="27.0833,28.1042,37.5,17.6875,265.625,17.6875,265.625,328.0208,255.2083,338.4375,27.0833,338.4375,27.0833,28.1042" fill="#FFFFFF" style="stroke:#000000;stroke-width:1.0417;stroke-linejoin:miter;stroke-miterlimit:10;"/><line x1="255.2083" y1="28.1042" x2="265.625" y2="17.6875" style="stroke:#000000;stroke-width:1.0417;"/><line x1="27.0833" y1="28.1042" x2="255.2083" y2="28.1042" style="stroke:#000000;stroke-width:1.0417;"/><line x1="255.2083" y1="28.1042" x2="255.2083" y2="338.4375" style="stroke:#000000;stroke-width:1.0417;"/><text x="114.0106" y="42.8319" fill="#343A40" font-size="12.5" lengthAdjust="spacing" textLength="56.3538" font-style="italic" font-family="'Verdana'">«device»</text><text x="80.5878" y="57.3827" fill="#343A40" font-size="12.5" lengthAdjust="spacing" textLength="123.1995" font-weight="700" font-family="'Verdana'">Raspberry Pi 3B+</text><text x="62.0514" y="71.9335" fill="#343A40" font-size="12.5" lengthAdjust="spacing" textLength="160.2722" font-weight="700" font-family="'Verdana'">Raspberry Pi OS 32-bit</text></g><!--entity SPA--><g class="entity" data-qualified-name="PC.SPA" id="ent0002" data-source-line="11"><rect x="725.0521" y="78.125" width="206.1523" height="53.0599" fill="none" style="stroke:#868E96;stroke-width:1.0417;" rx="4.1667" ry="4.1667"/><polygon points="913.4961,83.3333,913.4961,97.9167,925.9961,97.9167,925.9961,89.5833,919.7461,83.3333,913.4961,83.3333" fill="none" style="stroke:#868E96;stroke-width:1.0417;stroke-linejoin:miter;stroke-miterlimit:10;"/><line x1="919.7461" y1="83.3333" x2="919.7461" y2="89.5833" style="stroke:#868E96;stroke-width:1.0417;"/><line x1="925.9961" y1="89.5833" x2="919.7461" y2="89.5833" style="stroke:#868E96;stroke-width:1.0417;"/><text x="735.4688" y="103.2694" fill="#868E96" font-size="12.5" lengthAdjust="spacing" textLength="63.8062" font-family="'Verdana'">SPA React</text><text x="735.4688" y="117.8202" fill="#868E96" font-size="12.5" lengthAdjust="spacing" textLength="174.9023" font-family="'Verdana'">(corriendo en el navegador)</text></g><!--entity DIST--><g class="entity" data-qualified-name="CF.DIST" id="ent0004" data-source-line="14"><rect x="791.9896" y="283.2604" width="151.4343" height="38.5091" fill="none" style="stroke:#868E96;stroke-width:1.0417;" rx="4.1667" ry="4.1667"/><polygon points="925.7156,288.4688,925.7156,303.0521,938.2156,303.0521,938.2156,294.7188,931.9656,288.4688,925.7156,288.4688" fill="none" style="stroke:#868E96;stroke-width:1.0417;stroke-linejoin:miter;stroke-miterlimit:10;"/><line x1="931.9656" y1="288.4688" x2="931.9656" y2="294.7188" style="stroke:#868E96;stroke-width:1.0417;"/><line x1="938.2156" y1="294.7188" x2="931.9656" y2="294.7188" style="stroke:#868E96;stroke-width:1.0417;"/><text x="802.4063" y="308.4049" fill="#868E96" font-size="12.5" lengthAdjust="spacing" textLength="120.1843" font-family="'Verdana'">dist/ (HTML/JS/CSS)</text></g><!--entity JAR--><g class="entity" data-qualified-name="RW.JAR" id="ent0006" data-source-line="17"><rect x="473.7188" y="275.9896" width="202.5635" height="53.0599" fill="none" style="stroke:#868E96;stroke-width:1.0417;" rx="4.1667" ry="4.1667"/><polygon points="658.5739,281.1979,658.5739,295.7813,671.0739,295.7813,671.0739,287.4479,664.8239,281.1979,658.5739,281.1979" fill="none" style="stroke:#868E96;stroke-width:1.0417;stroke-linejoin:miter;stroke-miterlimit:10;"/><line x1="664.8239" y1="281.1979" x2="664.8239" y2="287.4479" style="stroke:#868E96;stroke-width:1.0417;"/><line x1="671.0739" y1="287.4479" x2="664.8239" y2="287.4479" style="stroke:#868E96;stroke-width:1.0417;"/><text x="484.1354" y="301.134" fill="#868E96" font-size="12.5" lengthAdjust="spacing" textLength="171.3135" font-family="'Verdana'">control-system-backend.jar</text><text x="484.1354" y="315.6848" fill="#868E96" font-size="12.5" lengthAdjust="spacing" textLength="125.3906" font-family="'Verdana'">Spring Boot / JRE 25</text></g><!--entity DB--><g class="entity" data-qualified-name="ATLAS.DB" id="ent0008" data-source-line="20"><path d="M520.1875,467.6042 C520.1875,457.1875 575.0011,457.1875 575.0011,457.1875 C575.0011,457.1875 629.8148,457.1875 629.8148,467.6042 L629.8148,491.5299 C629.8148,501.9466 575.0011,501.9466 575.0011,501.9466 C575.0011,501.9466 520.1875,501.9466 520.1875,491.5299 L520.1875,467.6042" style="stroke:#2FA4E7;stroke-width:1.0417;" fill="none"/><path d="M520.1875,467.6042 C520.1875,478.0208 575.0011,478.0208 575.0011,478.0208 C575.0011,478.0208 629.8148,478.0208 629.8148,467.6042" style="stroke:#2FA4E7;stroke-width:1.0417;" fill="none"/><text x="530.6042" y="493.7903" fill="#2FA4E7" font-size="12.5" lengthAdjust="spacing" textLength="88.7939" font-family="'Verdana'">controlsystem</text></g><!--entity GW--><g class="entity" data-qualified-name="RPI.GW" id="ent0010" data-source-line="23"><rect x="86.125" y="85.3958" width="161.0779" height="38.5091" fill="none" style="stroke:#868E96;stroke-width:1.0417;" rx="4.1667" ry="4.1667"/><polygon points="229.4945,90.6042,229.4945,105.1875,241.9945,105.1875,241.9945,96.8542,235.7445,90.6042,229.4945,90.6042" fill="none" style="stroke:#868E96;stroke-width:1.0417;stroke-linejoin:miter;stroke-miterlimit:10;"/><line x1="235.7445" y1="90.6042" x2="235.7445" y2="96.8542" style="stroke:#868E96;stroke-width:1.0417;"/><line x1="241.9945" y1="96.8542" x2="235.7445" y2="96.8542" style="stroke:#868E96;stroke-width:1.0417;"/><text x="96.5417" y="110.5403" fill="#868E96" font-size="12.5" lengthAdjust="spacing" textLength="129.8279" font-family="'Verdana'">gateway.py (Python)</text></g><!--entity PLC--><g class="entity" data-qualified-name="RPI.PLC" id="ent0011" data-source-line="24"><rect x="80.1458" y="283.2604" width="166.7969" height="38.5091" fill="none" style="stroke:#868E96;stroke-width:1.0417;" rx="4.1667" ry="4.1667"/><polygon points="229.2344,288.4688,229.2344,303.0521,241.7344,303.0521,241.7344,294.7188,235.4844,288.4688,229.2344,288.4688" fill="none" style="stroke:#868E96;stroke-width:1.0417;stroke-linejoin:miter;stroke-miterlimit:10;"/><line x1="235.4844" y1="288.4688" x2="235.4844" y2="294.7188" style="stroke:#868E96;stroke-width:1.0417;"/><line x1="241.7344" y1="294.7188" x2="235.4844" y2="294.7188" style="stroke:#868E96;stroke-width:1.0417;"/><text x="90.5625" y="308.4049" fill="#868E96" font-size="12.5" lengthAdjust="spacing" textLength="135.5469" font-family="'Verdana'">OpenPLC_v3 (control)</text></g><!--entity DHT--><g class="entity" data-qualified-name="DHT" id="ent0012" data-source-line="26"><polygon points="283.4271,282.7604,293.8438,272.3438,414.4797,272.3438,414.4797,322.2786,404.0631,332.6953,283.4271,332.6953,283.4271,282.7604" fill="#FFFFFF" style="stroke:#000000;stroke-width:1.0417;stroke-linejoin:miter;stroke-miterlimit:10;"/><line x1="404.0631" y1="282.7604" x2="414.4797" y2="272.3438" style="stroke:#000000;stroke-width:1.0417;"/><line x1="283.4271" y1="282.7604" x2="404.0631" y2="282.7604" style="stroke:#000000;stroke-width:1.0417;"/><line x1="404.0631" y1="282.7604" x2="404.0631" y2="332.6953" style="stroke:#000000;stroke-width:1.0417;"/><text x="315.5682" y="304.7799" fill="#343A40" font-size="12.5" lengthAdjust="spacing" textLength="56.3538" font-style="italic" font-family="'Verdana'">«device»</text><text x="299.0521" y="319.3306" fill="#343A40" font-size="12.5" lengthAdjust="spacing" textLength="89.386" font-family="'Verdana'">Sensor DHT22</text></g><!--entity RLY--><g class="entity" data-qualified-name="RLY" id="ent0013" data-source-line="27"><polygon points="95.8854,459.8125,106.3021,449.3958,231.2044,449.3958,231.2044,499.3307,220.7878,509.7474,95.8854,509.7474,95.8854,459.8125" fill="#FFFFFF" style="stroke:#000000;stroke-width:1.0417;stroke-linejoin:miter;stroke-miterlimit:10;"/><line x1="220.7878" y1="459.8125" x2="231.2044" y2="449.3958" style="stroke:#000000;stroke-width:1.0417;"/><line x1="95.8854" y1="459.8125" x2="220.7878" y2="459.8125" style="stroke:#000000;stroke-width:1.0417;"/><line x1="220.7878" y1="459.8125" x2="220.7878" y2="509.7474" style="stroke:#000000;stroke-width:1.0417;"/><text x="130.1597" y="481.8319" fill="#343A40" font-size="12.5" lengthAdjust="spacing" textLength="56.3538" font-style="italic" font-family="'Verdana'">«device»</text><text x="111.5104" y="496.3827" fill="#343A40" font-size="12.5" lengthAdjust="spacing" textLength="93.6523" font-family="'Verdana'">Relay + Cooler</text></g><!--link PC to CF--><g class="link" data-entity-1="ent0001" data-entity-2="ent0003" id="lnk14" data-source-line="29" data-link-type="dependency"><path d="M971.7652,156.5128 C971.8704,157.8307 971.9767,159.1636 972.0842,160.5101 C972.2991,163.203 972.5184,165.9502 972.7411,168.7409 C973.6321,179.9036 974.5785,191.7614 975.5247,203.6185 C975.9979,209.547 976.0567,210.2836 976.5228,216.1248" style="stroke:#2FA4E7;stroke-width:3.125;" fill="none" id="PC-to-CF"/><polygon points="976.9372,221.3166,980.3448,211.6398,976.5228,216.1248,972.0379,212.3028,976.9372,221.3166" fill="#2FA4E7" style="stroke:#2FA4E7;stroke-width:3.125;stroke-linejoin:miter;stroke-miterlimit:10;"/><text x="975" y="193.8215" fill="#343A40" font-size="12.5" lengthAdjust="spacing" textLength="154.3762" font-family="'Verdana'">HTTPS (descarga la SPA)</text></g><!--link SPA to JAR--><g class="link" data-entity-1="ent0002" data-entity-2="ent0006" id="lnk15" data-source-line="30" data-link-type="dependency"><path d="M817.1875,131.4375 C807.75,151.25 792.5625,178.2708 772.9167,196.8021 C736.1563,231.4792 690.4782,255.8594 649.7074,273.4948" style="stroke:#2FA4E7;stroke-width:3.125;" fill="none" id="SPA-to-JAR"/><polygon points="644.9271,275.5625,655.1858,275.6648,649.7074,273.4948,651.8775,268.0164,644.9271,275.5625" fill="#2FA4E7" style="stroke:#2FA4E7;stroke-width:3.125;stroke-linejoin:miter;stroke-miterlimit:10;"/><text x="787.5" y="193.8215" fill="#343A40" font-size="12.5" lengthAdjust="spacing" textLength="126.4038" font-family="'Verdana'">HTTPS · REST + SSE</text></g><!--link JAR to DB--><g class="link" data-entity-1="ent0006" data-entity-2="ent0008" id="lnk16" data-source-line="31" data-link-type="dependency"><path d="M575,329.375 C575,363.8854 575,419.2188 575,451.5417" style="stroke:#2FA4E7;stroke-width:3.125;" fill="none" id="JAR-to-DB"/><polygon points="575,456.75,579.1667,447.375,575,451.5417,570.8333,447.375,575,456.75" fill="#2FA4E7" style="stroke:#2FA4E7;stroke-width:3.125;stroke-linejoin:miter;stroke-miterlimit:10;"/><text x="576.0417" y="384.4153" fill="#343A40" font-size="12.5" lengthAdjust="spacing" textLength="123.175" font-family="'Verdana'">mongodb+srv · TLS</text></g><!--link GW to JAR--><g class="link" data-entity-1="ent0010" data-entity-2="ent0006" id="lnk17" data-source-line="32" data-link-type="dependency"><path d="M247.5625,118.4375 C303.3542,129.5208 377.9167,148.9896 437.5,181.1771 C483.2708,205.9063 523.2749,244.51 548.6707,271.8017" style="stroke:#2FA4E7;stroke-width:3.125;" fill="none" id="GW-to-JAR"/><polygon points="552.2188,275.6146,548.8826,265.9129,548.6707,271.8017,542.782,271.5898,552.2188,275.6146" fill="#2FA4E7" style="stroke:#2FA4E7;stroke-width:3.125;stroke-linejoin:miter;stroke-miterlimit:10;"/><text x="463.5417" y="193.8215" fill="#343A40" font-size="12.5" lengthAdjust="spacing" textLength="219.7449" font-family="'Verdana'">HTTPS · REST (config / mediciones)</text></g><!--link GW to PLC--><g class="link" data-entity-1="ent0010" data-entity-2="ent0011" id="lnk18" data-source-line="33" data-link-type="dependency"><path d="M166.2921,129.3223 C165.6984,166.6348 164.5217,240.3653 163.9175,277.7507" style="stroke:#2FA4E7;stroke-width:3.125;" fill="none" id="GW-PLC"/><polygon points="166.375,124.1146,162.0597,133.4221,166.2921,129.3223,170.392,133.5547,166.375,124.1146" fill="#2FA4E7" style="stroke:#2FA4E7;stroke-width:3.125;stroke-linejoin:miter;stroke-miterlimit:10;"/><polygon points="163.8333,282.9583,168.1509,273.6519,163.9175,277.7507,159.8187,273.5172,163.8333,282.9583" fill="#2FA4E7" style="stroke:#2FA4E7;stroke-width:3.125;stroke-linejoin:miter;stroke-miterlimit:10;"/><text x="165.625" y="193.8215" fill="#343A40" font-size="12.5" lengthAdjust="spacing" textLength="76.6113" font-family="'Verdana'">Modbus TCP</text></g><!--link GW to DHT--><g class="link" data-entity-1="ent0010" data-entity-2="ent0012" id="lnk19" data-source-line="34" data-link-type="dependency"><path d="M189.3958,124.3333 C206.9063,139.0833 231.3646,160.5625 251.0417,181.1771 C279.1146,210.5938 304.9785,243.0241 324.0619,268.0658" style="stroke:#2FA4E7;stroke-width:3.125;" fill="none" id="GW-to-DHT"/><polygon points="327.2188,272.2083,324.8504,262.2262,324.0619,268.0658,318.2223,267.2772,327.2188,272.2083" fill="#2FA4E7" style="stroke:#2FA4E7;stroke-width:3.125;stroke-linejoin:miter;stroke-miterlimit:10;"/><text x="265.625" y="193.8215" fill="#343A40" font-size="12.5" lengthAdjust="spacing" textLength="163.4583" font-family="'Verdana'">GPIO (lee temp/humedad)</text></g><!--link PLC to RLY--><g class="link" data-entity-1="ent0011" data-entity-2="ent0013" id="lnk20" data-source-line="35" data-link-type="dependency"><path d="M163.5417,322.2813 C163.5417,352.6146 163.5417,407.5104 163.5417,443.6875" style="stroke:#2FA4E7;stroke-width:3.125;" fill="none" id="PLC-to-RLY"/><polygon points="163.5417,448.8958,167.7083,439.5208,163.5417,443.6875,159.375,439.5208,163.5417,448.8958" fill="#2FA4E7" style="stroke:#2FA4E7;stroke-width:3.125;stroke-linejoin:miter;stroke-miterlimit:10;"/><text x="164.5833" y="384.4153" fill="#343A40" font-size="12.5" lengthAdjust="spacing" textLength="92.5842" font-family="'Verdana'">GPIO (acciona)</text></g><?plantuml-src XLFRQjj047tNLqpTXrgaZej3Nq88sBAR2tOZj2gc42XZQInlizuLkokdfXJw4VsNllTJ-YMTjOX9t9O8FOYPC-USkUY5Nz6Qe23RA4BTCurNKbFaxgIkqU8Q5bZSLTOqkaoCCXPUljizZn1kXQMvbxg29If7qIiOIwmuWr0IlwvMagg6eFjXDetXz_SVe4rf77HBsiY2e0_qXOh6IwCdUYEjqMlIFduDQ3qjiV2CtO9jFBh0M9XresM11UEF7_bWKeAl4S3emF9y9Js5kB4bsJOsKWoAlaNHhggJ9ioimDHakHdRWREprjpvER0gfmCn-v713tH4EeIC-FDMTmjZhIHT6Y0DJA9nGrLWYJkXbg6iqyeaoZJbKg4bIB4Y7a4oVXy7jNzDeDLEtXrebzBvFdGlyzcqVotwYH2jqFXAv7kb3AMwnosmE-r94zk1iIdko3uZbyqFv0A1DQhdjixJkXVkWPiz_epsLelQXhsFZF6ynUji0eEtEo_NmsnlPMPqPSOZ67h5cUxipJCEXlbqA7OcIlIuG4Tx4ws7jjlHervTlI1hjv1AE1aTtUedaHi19uFUGlh3hMRfrK6l5NhYgHtNFBXqwrT6jwEzc3-1tTIaqsdoQNFIpfUTjJWExbq9qYuC_J8V30wLEVZWdHHlwGWIOnJzTNVPz6CKyV7rUkVX3axXCizJ4NuSLw2j41I6-ugZS8y1n7FVetxzX6mYSYONOXA5J43m8avX7LPIBewStGHOFXNHnVo_1A77fQnumsigPVZjoCMXu2nKSCzSCMEwna6Uf0zCt2F7BzAh6-Wg8k35rVrLmnHOnb6e2YZkS8_28d1Z_0S0?></g></svg>