<svg xmlns="http://www.w3.org/2000/svg" xmlns:xlink="http://www.w3.org/1999/xlink" version="1.1" data-diagram-type="DESCRIPTION" style="width:856px;height:364px;background:#FFFFFF;" width="856px" height="364px" viewBox="0 0 856 364" zoomAndPan="magnify" preserveAspectRatio="none" contentStyleType="text/css"><?plantuml 1.2026.7beta3?><defs/><g><!--entity web--><g class="entity" data-qualified-name="web" id="ent0001" data-source-line="8"><path d="M13.5,189 L58.9502,189 A3.75,3.75 0 0 1 61.4502,191.5 L68.4502,211.2969 L167.3848,211.2969 A2.5,2.5 0 0 1 169.8848,213.7969 L169.8848,258.3906 A2.5,2.5 0 0 1 167.3848,260.8906 L13.5,260.8906 A2.5,2.5 0 0 1 11,258.3906 L11,191.5 A2.5,2.5 0 0 1 13.5,189" style="stroke:#000000;stroke-width:1;" fill="#FFFFFF"/><line x1="11" y1="211.2969" x2="68.4502" y2="211.2969" style="stroke:#000000;stroke-width:1;"/><text x="21" y="204.9951" fill="#000000" font-size="14" lengthAdjust="spacing" textLength="32.4502" font-weight="700" font-family="Verdana">web</text><text x="70.9673" y="231.292" fill="#000000" font-size="14" lengthAdjust="spacing" textLength="28.9502" font-family="Verdana">web</text><text x="21" y="247.5889" fill="#000000" font-size="14" lengthAdjust="spacing" textLength="128.8848" font-family="Verdana">(controllers + dto)</text></g><!--entity service--><g class="entity" data-qualified-name="service" id="ent0002" data-source-line="9"><path d="M239.49,124.3 L308.9412,124.3 A3.75,3.75 0 0 1 311.4412,126.8 L318.4412,146.5969 L332.9412,146.5969 A2.5,2.5 0 0 1 335.4412,149.0969 L335.4412,161.0969 A2.5,2.5 0 0 1 332.9412,163.5969 L239.49,163.5969 A2.5,2.5 0 0 1 236.99,161.0969 L236.99,126.8 A2.5,2.5 0 0 1 239.49,124.3" style="stroke:#000000;stroke-width:1;" fill="#FFFFFF"/><line x1="236.99" y1="146.5969" x2="318.4412" y2="146.5969" style="stroke:#000000;stroke-width:1;"/><text x="246.99" y="140.2951" fill="#000000" font-size="14" lengthAdjust="spacing" textLength="56.4512" font-weight="700" font-family="Verdana">service</text></g><!--entity mapping--><g class="entity" data-qualified-name="mapping" id="ent0003" data-source-line="10"><path d="M232.38,278 L314.2452,278 A3.75,3.75 0 0 1 316.7452,280.5 L323.7452,300.2969 L340.0402,300.2969 A2.5,2.5 0 0 1 342.5402,302.7969 L342.5402,347.3906 A2.5,2.5 0 0 1 340.0402,349.8906 L232.38,349.8906 A2.5,2.5 0 0 1 229.88,347.3906 L229.88,280.5 A2.5,2.5 0 0 1 232.38,278" style="stroke:#000000;stroke-width:1;" fill="#FFFFFF"/><line x1="229.88" y1="300.2969" x2="323.7452" y2="300.2969" style="stroke:#000000;stroke-width:1;"/><text x="239.88" y="293.9951" fill="#000000" font-size="14" lengthAdjust="spacing" textLength="68.8652" font-weight="700" font-family="Verdana">mapping</text><text x="250.3903" y="320.292" fill="#000000" font-size="14" lengthAdjust="spacing" textLength="61.6396" font-family="Verdana">mapping</text><text x="239.88" y="336.5889" fill="#000000" font-size="14" lengthAdjust="spacing" textLength="82.6602" font-family="Verdana">(MapStruct)</text></g><!--entity repository--><g class="entity" data-qualified-name="repository" id="ent0004" data-source-line="11"><path d="M431.96,11 L526.4717,11 A3.75,3.75 0 0 1 528.9717,13.5 L535.9717,33.2969 L602.3604,33.2969 A2.5,2.5 0 0 1 604.8604,35.7969 L604.8604,80.3906 A2.5,2.5 0 0 1 602.3604,82.8906 L431.96,82.8906 A2.5,2.5 0 0 1 429.46,80.3906 L429.46,13.5 A2.5,2.5 0 0 1 431.96,11" style="stroke:#000000;stroke-width:1;" fill="#FFFFFF"/><line x1="429.46" y1="33.2969" x2="535.9717" y2="33.2969" style="stroke:#000000;stroke-width:1;"/><text x="439.46" y="26.9951" fill="#000000" font-size="14" lengthAdjust="spacing" textLength="81.5117" font-weight="700" font-family="Verdana">repository</text><text x="476.6099" y="53.292" fill="#000000" font-size="14" lengthAdjust="spacing" textLength="71.1006" font-family="Verdana">repository</text><text x="439.46" y="69.5889" fill="#000000" font-size="14" lengthAdjust="spacing" textLength="145.4004" font-family="Verdana">(Spring Data Mongo)</text></g><!--entity domain--><g class="entity" data-qualified-name="domain" id="ent0005" data-source-line="12"><path d="M694.27,100 L765.7104,100 A3.75,3.75 0 0 1 768.2104,102.5 L775.2104,122.2969 L838.7554,122.2969 A2.5,2.5 0 0 1 841.2554,124.7969 L841.2554,169.3906 A2.5,2.5 0 0 1 838.7554,171.8906 L694.27,171.8906 A2.5,2.5 0 0 1 691.77,169.3906 L691.77,102.5 A2.5,2.5 0 0 1 694.27,100" style="stroke:#000000;stroke-width:1;" fill="#FFFFFF"/><line x1="691.77" y1="122.2969" x2="775.2104" y2="122.2969" style="stroke:#000000;stroke-width:1;"/><text x="701.77" y="115.9951" fill="#000000" font-size="14" lengthAdjust="spacing" textLength="58.4404" font-weight="700" font-family="Verdana">domain</text><text x="735.2969" y="142.292" fill="#000000" font-size="14" lengthAdjust="spacing" textLength="52.4316" font-family="Verdana">domain</text><text x="701.77" y="158.5889" fill="#000000" font-size="14" lengthAdjust="spacing" textLength="119.4854" font-family="Verdana">(entity + enums)</text></g><!--entity infra--><g class="entity" data-qualified-name="infra" id="ent0006" data-source-line="13"><path d="M405.04,189 L455.248,189 A3.75,3.75 0 0 1 457.748,191.5 L464.748,211.2969 L629.2666,211.2969 A2.5,2.5 0 0 1 631.7666,213.7969 L631.7666,258.3906 A2.5,2.5 0 0 1 629.2666,260.8906 L405.04,260.8906 A2.5,2.5 0 0 1 402.54,258.3906 L402.54,191.5 A2.5,2.5 0 0 1 405.04,189" style="stroke:#000000;stroke-width:1;" fill="#FFFFFF"/><line x1="402.54" y1="211.2969" x2="464.748" y2="211.2969" style="stroke:#000000;stroke-width:1;"/><text x="412.54" y="204.9951" fill="#000000" font-size="14" lengthAdjust="spacing" textLength="37.208" font-weight="700" font-family="Verdana">infra</text><text x="464.2197" y="231.292" fill="#000000" font-size="14" lengthAdjust="spacing" textLength="95.8672" font-family="Verdana">infrastructure</text><text x="412.54" y="247.5889" fill="#000000" font-size="14" lengthAdjust="spacing" textLength="199.2266" font-family="Verdana">(config, ratelimit, web, i18n)</text></g><!--link web to service--><g class="link" data-entity-1="ent0001" data-entity-2="ent0002" id="lnk7" data-source-line="15" data-link-type="dependency"><path d="M170.26,214.2969 C192.89,204.8369 212.2772,174.4392 232.4572,165.9992" style="stroke:#000000;stroke-width:1;stroke-dasharray:7,7;" fill="none" id="web-to-service"/><polygon points="237.07,164.07,227.2235,163.8524,232.4572,165.9992,230.3103,171.2329,237.07,164.07" fill="#000000" style="stroke:#000000;stroke-width:1;stroke-linejoin:miter;stroke-miterlimit:10;"/></g><!--link web to mapping--><g class="link" data-entity-1="ent0001" data-entity-2="ent0003" id="lnk8" data-source-line="16" data-link-type="dependency"><path d="M170.26,261.14 C190.17,270.29 206.5861,277.8336 225.0761,286.3236" style="stroke:#000000;stroke-width:1;stroke-dasharray:7,7;" fill="none" id="web-to-mapping"/><polygon points="229.62,288.41,223.1101,281.0194,225.0761,286.3236,219.7719,288.2896,229.62,288.41" fill="#000000" style="stroke:#000000;stroke-width:1;stroke-linejoin:miter;stroke-miterlimit:10;"/></g><!--link web to infra--><g class="link" data-entity-1="ent0001" data-entity-2="ent0006" id="lnk9" data-source-line="17" data-link-type="dependency"><path d="M170.33,224.94 C235.58,224.94 324.11,224.94 397.45,224.94" style="stroke:#000000;stroke-width:1;stroke-dasharray:7,7;" fill="none" id="web-to-infra"/><polygon points="402.45,224.94,393.45,220.94,397.45,224.94,393.45,228.94,402.45,224.94" fill="#000000" style="stroke:#000000;stroke-width:1;stroke-linejoin:miter;stroke-miterlimit:10;"/></g><!--link service to repository--><g class="link" data-entity-1="ent0002" data-entity-2="ent0004" id="lnk10" data-source-line="18" data-link-type="dependency"><path d="M334.65,146.1469 C362.29,134.4369 393.3661,98.9704 425.7761,85.2404" style="stroke:#000000;stroke-width:1;stroke-dasharray:7,7;" fill="none" id="service-to-repository"/><polygon points="430.38,83.29,420.5327,83.1175,425.7761,85.2404,423.6533,90.4838,430.38,83.29" fill="#000000" style="stroke:#000000;stroke-width:1;stroke-linejoin:miter;stroke-miterlimit:10;"/></g><!--link service to domain--><g class="link" data-entity-1="ent0002" data-entity-2="ent0005" id="lnk11" data-source-line="19" data-link-type="dependency"><path d="M335.71,165.4269 C419.66,164.0269 587.5707,138.9238 686.5807,137.2638" style="stroke:#000000;stroke-width:1;stroke-dasharray:7,7;" fill="none" id="service-to-domain"/><polygon points="691.58,137.18,682.5142,133.3314,686.5807,137.2638,682.6483,141.3303,691.58,137.18" fill="#000000" style="stroke:#000000;stroke-width:1;stroke-linejoin:miter;stroke-miterlimit:10;"/></g><!--link service to infra--><g class="link" data-entity-1="ent0002" data-entity-2="ent0006" id="lnk12" data-source-line="20" data-link-type="dependency"><path d="M335.77,161.12 C358.48,169.16 381.7159,177.3834 408.7859,186.9534" style="stroke:#000000;stroke-width:1;stroke-dasharray:7,7;" fill="none" id="service-to-infra"/><polygon points="413.5,188.62,406.3479,181.8489,408.7859,186.9534,403.6814,189.3915,413.5,188.62" fill="#000000" style="stroke:#000000;stroke-width:1;stroke-linejoin:miter;stroke-miterlimit:10;"/></g><!--link mapping to domain--><g class="link" data-entity-1="ent0003" data-entity-2="ent0005" id="lnk13" data-source-line="21" data-link-type="dependency"><path d="M342.98,319.6 C413.95,324.32 538.52,324.11 631.77,277.94 C679.57,254.28 716.326,210.0854 739.726,176.4254" style="stroke:#000000;stroke-width:1;stroke-dasharray:7,7;" fill="none" id="mapping-to-domain"/><polygon points="742.58,172.32,734.1584,177.4265,739.726,176.4254,740.7271,181.993,742.58,172.32" fill="#000000" style="stroke:#000000;stroke-width:1;stroke-linejoin:miter;stroke-miterlimit:10;"/></g><!--link repository to domain--><g class="link" data-entity-1="ent0004" data-entity-2="ent0005" id="lnk14" data-source-line="22" data-link-type="dependency"><path d="M605.02,78.2 C633.28,88.37 659.6551,97.8578 686.8751,107.6478" style="stroke:#000000;stroke-width:1;stroke-dasharray:7,7;" fill="none" id="repository-to-domain"/><polygon points="691.58,109.34,684.4649,102.5301,686.8751,107.6478,681.7573,110.058,691.58,109.34" fill="#000000" style="stroke:#000000;stroke-width:1;stroke-linejoin:miter;stroke-miterlimit:10;"/></g><?plantuml-src JP4nSjj034LxdW9nYaWJZMRIfKeJJwgeqhXp0vFG2kCbiC62ziXL3k4J-YI1I2eagrtW_RyVu2S_KqzGCh8qzPcbe64FJzW-9zD1kf-QrU3ph_5R4VMCdRwo93XXhjHyWNl651s4Blpmpq1E5JOFXzzR-FZx3ce9XT-mPPL0ChJQSLAunAMGT2GjOuL2rhDp5yVD80XLSpYoKNiLRlUh22L2OgAZNp9108wICZMPJWwkO9pEFaazf4qpyt3tIa-FicbLt3HdiWfVeNFTta6y6is5h6GltDBOcCzBiyTIOW5XTS1oT1jQdopcna8Q5QtiQfU0ZyMkQxj7HpYefFdTXLbqdVRnNq93ukoNY4aoz7KIJCq5PZaPrZ76O3GDUEAq0qEdpB7LtNMu7V2txp9PZ9AcYIhizp_-JtYxt-QutITyfiRAAlIwF4TRboRjxBY65ejLzHy0?></g></svg>