<svg xmlns="http://www.w3.org/2000/svg" xmlns:xlink="http://www.w3.org/1999/xlink" version="1.1" data-diagram-type="DESCRIPTION" style="width:822px;height:369px;background:#FFFFFF;" width="822.9167px" height="369.7917px" viewBox="0 0 822 369" zoomAndPan="magnify" preserveAspectRatio="none" contentStyleType="text/css"><?plantuml 1.2026.7beta3?><defs/><g><!--entity web--><g class="entity" data-qualified-name="web" id="ent0001" data-source-line="8"><path d="M20.8333,193.75 L60.2234,193.75 A6.25,6.25 0 0 1 64.3901,197.9167 L71.6817,214.5508 L158.8257,214.5508 A4.1667,4.1667 0 0 1 162.9924,218.7174 L162.9924,257.194 A4.1667,4.1667 0 0 1 158.8257,261.3607 L20.8333,261.3607 A4.1667,4.1667 0 0 1 16.6667,257.194 L16.6667,197.9167 A4.1667,4.1667 0 0 1 20.8333,193.75" style="stroke:#2FA4E7;stroke-width:2.0833;" fill="none"/><line x1="16.6667" y1="214.5508" x2="71.6817" y2="214.5508" style="stroke:#2FA4E7;stroke-width:2.0833;"/><text x="27.0833" y="208.4778" fill="#2FA4E7" font-size="12.5" lengthAdjust="spacing" textLength="28.9734" font-weight="700" font-family="'Verdana'">web</text><text x="71.697" y="233.4452" fill="#2FA4E7" font-size="12.5" lengthAdjust="spacing" textLength="25.8484" font-family="'Verdana'">web</text><text x="27.0833" y="247.996" fill="#2FA4E7" font-size="12.5" lengthAdjust="spacing" textLength="115.0757" font-family="'Verdana'">(controllers + dto)</text></g><!--entity service--><g class="entity" data-qualified-name="service" id="ent0002" data-source-line="9"><path d="M235.1979,127.0521 L296.0174,127.0521 A6.25,6.25 0 0 1 300.1841,131.2188 L307.4757,147.8529 L321.0174,147.8529 A4.1667,4.1667 0 0 1 325.1841,152.0195 L325.1841,161.3945 A4.1667,4.1667 0 0 1 321.0174,165.5612 L235.1979,165.5612 A4.1667,4.1667 0 0 1 231.0313,161.3945 L231.0313,131.2188 A4.1667,4.1667 0 0 1 235.1979,127.0521" style="stroke:#2FA4E7;stroke-width:2.0833;" fill="none"/><line x1="231.0313" y1="147.8529" x2="307.4757" y2="147.8529" style="stroke:#2FA4E7;stroke-width:2.0833;"/><text x="241.4479" y="141.7799" fill="#2FA4E7" font-size="12.5" lengthAdjust="spacing" textLength="50.4028" font-weight="700" font-family="'Verdana'">service</text></g><!--entity mapping--><g class="entity" data-qualified-name="mapping" id="ent0003" data-source-line="10"><path d="M229.6563,282.2917 L301.5597,282.2917 A6.25,6.25 0 0 1 305.7264,286.4583 L313.0181,303.0924 L326.5597,303.0924 A4.1667,4.1667 0 0 1 330.7264,307.2591 L330.7264,345.7357 A4.1667,4.1667 0 0 1 326.5597,349.9023 L229.6563,349.9023 A4.1667,4.1667 0 0 1 225.4896,345.7357 L225.4896,286.4583 A4.1667,4.1667 0 0 1 229.6563,282.2917" style="stroke:#2FA4E7;stroke-width:2.0833;" fill="none"/><line x1="225.4896" y1="303.0924" x2="313.0181" y2="303.0924" style="stroke:#2FA4E7;stroke-width:2.0833;"/><text x="235.9063" y="297.0194" fill="#2FA4E7" font-size="12.5" lengthAdjust="spacing" textLength="61.4868" font-weight="700" font-family="'Verdana'">mapping</text><text x="245.2904" y="321.9869" fill="#2FA4E7" font-size="12.5" lengthAdjust="spacing" textLength="55.0354" font-family="'Verdana'">mapping</text><text x="235.9063" y="336.5377" fill="#2FA4E7" font-size="12.5" lengthAdjust="spacing" textLength="73.8037" font-family="'Verdana'">(MapStruct)</text></g><!--entity repository--><g class="entity" data-qualified-name="repository" id="ent0004" data-source-line="11"><path d="M421.4271,16.6667 L504.6221,16.6667 A6.25,6.25 0 0 1 508.7887,20.8333 L516.0804,37.4674 L574.1655,37.4674 A4.1667,4.1667 0 0 1 578.3322,41.6341 L578.3322,80.1107 A4.1667,4.1667 0 0 1 574.1655,84.2773 L421.4271,84.2773 A4.1667,4.1667 0 0 1 417.2604,80.1107 L417.2604,20.8333 A4.1667,4.1667 0 0 1 421.4271,16.6667" style="stroke:#2FA4E7;stroke-width:2.0833;" fill="none"/><line x1="417.2604" y1="37.4674" x2="516.0804" y2="37.4674" style="stroke:#2FA4E7;stroke-width:2.0833;"/><text x="427.6771" y="31.3944" fill="#2FA4E7" font-size="12.5" lengthAdjust="spacing" textLength="72.7783" font-weight="700" font-family="'Verdana'">repository</text><text x="460.8466" y="56.3619" fill="#2FA4E7" font-size="12.5" lengthAdjust="spacing" textLength="63.4827" font-family="'Verdana'">repository</text><text x="427.6771" y="70.9127" fill="#2FA4E7" font-size="12.5" lengthAdjust="spacing" textLength="129.8218" font-family="'Verdana'">(Spring Data Mongo)</text></g><!--entity domain--><g class="entity" data-qualified-name="domain" id="ent0005" data-source-line="12"><path d="M669.0313,105.2083 L731.6269,105.2083 A6.25,6.25 0 0 1 735.7935,109.375 L743.0852,126.0091 L798.6313,126.0091 A4.1667,4.1667 0 0 1 802.7979,130.1758 L802.7979,168.6523 A4.1667,4.1667 0 0 1 798.6313,172.819 L669.0313,172.819 A4.1667,4.1667 0 0 1 664.8646,168.6523 L664.8646,109.375 A4.1667,4.1667 0 0 1 669.0313,105.2083" style="stroke:#2FA4E7;stroke-width:2.0833;" fill="none"/><line x1="664.8646" y1="126.0091" x2="743.0852" y2="126.0091" style="stroke:#2FA4E7;stroke-width:2.0833;"/><text x="675.2813" y="119.9361" fill="#2FA4E7" font-size="12.5" lengthAdjust="spacing" textLength="52.179" font-weight="700" font-family="'Verdana'">domain</text><text x="705.2159" y="144.9036" fill="#2FA4E7" font-size="12.5" lengthAdjust="spacing" textLength="46.814" font-family="'Verdana'">domain</text><text x="675.2813" y="159.4543" fill="#2FA4E7" font-size="12.5" lengthAdjust="spacing" textLength="106.6833" font-family="'Verdana'">(entity + enums)</text></g><!--entity infra--><g class="entity" data-qualified-name="infra" id="ent0006" data-source-line="13"><path d="M397.3958,193.75 L441.0339,193.75 A6.25,6.25 0 0 1 445.2006,197.9167 L452.4923,214.5508 L598.1934,214.5508 A4.1667,4.1667 0 0 1 602.36,218.7174 L602.36,257.194 A4.1667,4.1667 0 0 1 598.1934,261.3607 L397.3958,261.3607 A4.1667,4.1667 0 0 1 393.2292,257.194 L393.2292,197.9167 A4.1667,4.1667 0 0 1 397.3958,193.75" style="stroke:#2FA4E7;stroke-width:2.0833;" fill="none"/><line x1="393.2292" y1="214.5508" x2="452.4923" y2="214.5508" style="stroke:#2FA4E7;stroke-width:2.0833;"/><text x="403.6458" y="208.4778" fill="#2FA4E7" font-size="12.5" lengthAdjust="spacing" textLength="33.2214" font-weight="700" font-family="'Verdana'">infra</text><text x="449.7884" y="233.4452" fill="#2FA4E7" font-size="12.5" lengthAdjust="spacing" textLength="85.5957" font-family="'Verdana'">infrastructure</text><text x="403.6458" y="247.996" fill="#2FA4E7" font-size="12.5" lengthAdjust="spacing" textLength="177.8809" font-family="'Verdana'">(config, ratelimit, web, i18n)</text></g><!--link web to service--><g class="link" data-entity-1="ent0001" data-entity-2="ent0002" id="lnk7" data-source-line="15" data-link-type="dependency"><path d="M163.3958,216.7174 C186.4688,206.6445 206.5498,177.0843 227.1123,168.1051" style="stroke:#2FA4E7;stroke-width:3.125;stroke-dasharray:7.2917,7.2917;" fill="none" id="web-to-service"/><polygon points="231.8854,166.0208,221.6264,165.9541,227.1123,168.1051,224.9613,173.591,231.8854,166.0208" fill="#2FA4E7" style="stroke:#2FA4E7;stroke-width:3.125;stroke-linejoin:miter;stroke-miterlimit:10;"/></g><!--link web to mapping--><g class="link" data-entity-1="ent0001" data-entity-2="ent0003" id="lnk8" data-source-line="16" data-link-type="dependency"><path d="M162.8646,261.7917 C183.6354,271.6667 201.1817,280.0136 220.4837,289.1907" style="stroke:#2FA4E7;stroke-width:3.125;stroke-dasharray:7.2917,7.2917;" fill="none" id="web-to-mapping"/><polygon points="225.1875,291.4271,218.5098,283.6386,220.4837,289.1907,214.9316,291.1646,225.1875,291.4271" fill="#2FA4E7" style="stroke:#2FA4E7;stroke-width:3.125;stroke-linejoin:miter;stroke-miterlimit:10;"/></g><!--link web to infra--><g class="link" data-entity-1="ent0001" data-entity-2="ent0006" id="lnk9" data-source-line="17" data-link-type="dependency"><path d="M163.4375,227.5625 C227.2813,227.5625 315.7708,227.5625 387.5833,227.5625" style="stroke:#2FA4E7;stroke-width:3.125;stroke-dasharray:7.2917,7.2917;" fill="none" id="web-to-infra"/><polygon points="392.7917,227.5625,383.4167,223.3958,387.5833,227.5625,383.4167,231.7292,392.7917,227.5625" fill="#2FA4E7" style="stroke:#2FA4E7;stroke-width:3.125;stroke-linejoin:miter;stroke-miterlimit:10;"/></g><!--link service to repository--><g class="link" data-entity-1="ent0002" data-entity-2="ent0004" id="lnk10" data-source-line="18" data-link-type="dependency"><path d="M323.9792,147.3737 C351.3438,135.3112 382.3274,100.8705 414.2024,86.8289" style="stroke:#2FA4E7;stroke-width:3.125;stroke-dasharray:7.2917,7.2917;" fill="none" id="service-to-repository"/><polygon points="418.9688,84.7292,408.7096,84.6955,414.2024,86.8289,412.0691,92.3217,418.9688,84.7292" fill="#2FA4E7" style="stroke:#2FA4E7;stroke-width:3.125;stroke-linejoin:miter;stroke-miterlimit:10;"/></g><!--link service to domain--><g class="link" data-entity-1="ent0002" data-entity-2="ent0005" id="lnk11" data-source-line="19" data-link-type="dependency"><path d="M325.5625,166.3633 C405.8438,165.0716 565.7507,141.6982 659.1986,140.1982" style="stroke:#2FA4E7;stroke-width:3.125;stroke-dasharray:7.2917,7.2917;" fill="none" id="service-to-domain"/><polygon points="664.4063,140.1146,654.9656,136.0989,659.1986,140.1982,655.0993,144.4312,664.4063,140.1146" fill="#2FA4E7" style="stroke:#2FA4E7;stroke-width:3.125;stroke-linejoin:miter;stroke-miterlimit:10;"/></g><!--link service to infra--><g class="link" data-entity-1="ent0002" data-entity-2="ent0006" id="lnk12" data-source-line="20" data-link-type="dependency"><path d="M325.5625,163.6354 C348.7813,172.3125 372.8395,181.2925 400.2874,191.5425" style="stroke:#2FA4E7;stroke-width:3.125;stroke-dasharray:7.2917,7.2917;" fill="none" id="service-to-infra"/><polygon points="405.1667,193.3646,397.8417,186.1815,400.2874,191.5425,394.9264,193.9882,405.1667,193.3646" fill="#2FA4E7" style="stroke:#2FA4E7;stroke-width:3.125;stroke-linejoin:miter;stroke-miterlimit:10;"/></g><!--link mapping to domain--><g class="link" data-entity-1="ent0003" data-entity-2="ent0005" id="lnk13" data-source-line="21" data-link-type="dependency"><path d="M330.9688,320.9479 C397.5417,324.8542 514.9063,323.8125 602.3646,279.6458 C650.0625,255.5521 686.2977,210.708 708.8706,177.385" style="stroke:#2FA4E7;stroke-width:3.125;stroke-dasharray:7.2917,7.2917;" fill="none" id="mapping-to-domain"/><polygon points="711.7917,173.0729,703.0841,178.4979,708.8706,177.385,709.9835,183.1715,711.7917,173.0729" fill="#2FA4E7" style="stroke:#2FA4E7;stroke-width:3.125;stroke-linejoin:miter;stroke-miterlimit:10;"/></g><!--link repository to domain--><g class="link" data-entity-1="ent0004" data-entity-2="ent0005" id="lnk14" data-source-line="22" data-link-type="dependency"><path d="M578.6979,80.6979 C606.625,91.2708 632.8373,101.1874 659.7227,111.3645" style="stroke:#2FA4E7;stroke-width:3.125;stroke-dasharray:7.2917,7.2917;" fill="none" id="repository-to-domain"/><polygon points="664.5938,113.2083,657.301,105.9926,659.7227,111.3645,654.3508,113.7862,664.5938,113.2083" fill="#2FA4E7" style="stroke:#2FA4E7;stroke-width:3.125;stroke-linejoin:miter;stroke-miterlimit:10;"/></g><?plantuml-src JP2nKYCn38RxVGeT52Hp8JDqLDV0K5sgp7Kqmgiu6hoIaRN7X8g7u0dlISxPtR3hofQ-__Sl_V0ZTGI1h4-4Sgkz9nPgoYjBHiCENZ2yHjDUsWTDQd3zD9m5KOxOwZjBX0EcGiqDF3B6sa5e2JA-zUHKOFLdztiD_pw_G2sYy0S6Lgb8Wg0jHuLJVMIIbYGm5iXa7JktzRhg1Q5egevi5Cx2zNOH8TUG66dlfqHG0KU9YPf41mTNC8v77wLUfKqpyN3rJY_FiWegRfeIMO6VqBgkhw3-MfipMSZ-Sg2XCTtdPeSvrmLKgntclLiVVBIO6ZDfbBMmgvqglCzsNjiZEi9E9Kx_pioiQxL3bgeXSVPJZKdITsKKZCqPPZaObY56RpGEUE2u0KEdn7Mhc_Dm6-2xUnaj1adJr2fijx--9xoyBtDStYC-KKDb4NfPdg8jIwDsSbn2iyMY-Xy0?></g></svg>