<svg xmlns="http://www.w3.org/2000/svg" xmlns:xlink="http://www.w3.org/1999/xlink" version="1.1" data-diagram-type="DESCRIPTION" style="width:851px;height:359px;background:#FFFFFF;" width="851px" height="359px" viewBox="0 0 851 359" zoomAndPan="magnify" preserveAspectRatio="none" contentStyleType="text/css"><?plantuml 1.2026.7beta3?><defs/><g><!--entity web--><g class="entity" data-qualified-name="web" id="ent0001" data-source-line="5"><path d="M8.5,184 L53.9502,184 A3.75,3.75 0 0 1 56.4502,186.5 L63.4502,206.2969 L162.3848,206.2969 A2.5,2.5 0 0 1 164.8848,208.7969 L164.8848,253.3906 A2.5,2.5 0 0 1 162.3848,255.8906 L8.5,255.8906 A2.5,2.5 0 0 1 6,253.3906 L6,186.5 A2.5,2.5 0 0 1 8.5,184" style="stroke:#181818;stroke-width:0.5;" fill="#F1F1F1"/><line x1="6" y1="206.2969" x2="63.4502" y2="206.2969" style="stroke:#181818;stroke-width:0.5;"/><text x="16" y="199.9951" fill="#000000" font-size="14" lengthAdjust="spacing" textLength="32.4502" font-weight="700" font-family="sans-serif">web</text><text x="65.9673" y="226.292" fill="#000000" font-size="14" lengthAdjust="spacing" textLength="28.9502" font-family="sans-serif">web</text><text x="16" y="242.5889" fill="#000000" font-size="14" lengthAdjust="spacing" textLength="128.8848" font-family="sans-serif">(controllers + dto)</text></g><!--entity service--><g class="entity" data-qualified-name="service" id="ent0002" data-source-line="6"><path d="M234.49,119.3 L303.9412,119.3 A3.75,3.75 0 0 1 306.4412,121.8 L313.4412,141.5969 L327.9412,141.5969 A2.5,2.5 0 0 1 330.4412,144.0969 L330.4412,156.0969 A2.5,2.5 0 0 1 327.9412,158.5969 L234.49,158.5969 A2.5,2.5 0 0 1 231.99,156.0969 L231.99,121.8 A2.5,2.5 0 0 1 234.49,119.3" style="stroke:#181818;stroke-width:0.5;" fill="#F1F1F1"/><line x1="231.99" y1="141.5969" x2="313.4412" y2="141.5969" style="stroke:#181818;stroke-width:0.5;"/><text x="241.99" y="135.2951" fill="#000000" font-size="14" lengthAdjust="spacing" textLength="56.4512" font-weight="700" font-family="sans-serif">service</text></g><!--entity mapping--><g class="entity" data-qualified-name="mapping" id="ent0003" data-source-line="7"><path d="M227.38,273 L309.2452,273 A3.75,3.75 0 0 1 311.7452,275.5 L318.7452,295.2969 L335.0402,295.2969 A2.5,2.5 0 0 1 337.5402,297.7969 L337.5402,342.3906 A2.5,2.5 0 0 1 335.0402,344.8906 L227.38,344.8906 A2.5,2.5 0 0 1 224.88,342.3906 L224.88,275.5 A2.5,2.5 0 0 1 227.38,273" style="stroke:#181818;stroke-width:0.5;" fill="#F1F1F1"/><line x1="224.88" y1="295.2969" x2="318.7452" y2="295.2969" style="stroke:#181818;stroke-width:0.5;"/><text x="234.88" y="288.9951" fill="#000000" font-size="14" lengthAdjust="spacing" textLength="68.8652" font-weight="700" font-family="sans-serif">mapping</text><text x="245.3903" y="315.292" fill="#000000" font-size="14" lengthAdjust="spacing" textLength="61.6396" font-family="sans-serif">mapping</text><text x="234.88" y="331.5889" fill="#000000" font-size="14" lengthAdjust="spacing" textLength="82.6602" font-family="sans-serif">(MapStruct)</text></g><!--entity repository--><g class="entity" data-qualified-name="repository" id="ent0004" data-source-line="8"><path d="M426.96,6 L521.4717,6 A3.75,3.75 0 0 1 523.9717,8.5 L530.9717,28.2969 L597.3604,28.2969 A2.5,2.5 0 0 1 599.8604,30.7969 L599.8604,75.3906 A2.5,2.5 0 0 1 597.3604,77.8906 L426.96,77.8906 A2.5,2.5 0 0 1 424.46,75.3906 L424.46,8.5 A2.5,2.5 0 0 1 426.96,6" style="stroke:#181818;stroke-width:0.5;" fill="#F1F1F1"/><line x1="424.46" y1="28.2969" x2="530.9717" y2="28.2969" style="stroke:#181818;stroke-width:0.5;"/><text x="434.46" y="21.9951" fill="#000000" font-size="14" lengthAdjust="spacing" textLength="81.5117" font-weight="700" font-family="sans-serif">repository</text><text x="471.6099" y="48.292" fill="#000000" font-size="14" lengthAdjust="spacing" textLength="71.1006" font-family="sans-serif">repository</text><text x="434.46" y="64.5889" fill="#000000" font-size="14" lengthAdjust="spacing" textLength="145.4004" font-family="sans-serif">(Spring Data Mongo)</text></g><!--entity domain--><g class="entity" data-qualified-name="domain" id="ent0005" data-source-line="9"><path d="M689.27,95 L760.7104,95 A3.75,3.75 0 0 1 763.2104,97.5 L770.2104,117.2969 L833.7554,117.2969 A2.5,2.5 0 0 1 836.2554,119.7969 L836.2554,164.3906 A2.5,2.5 0 0 1 833.7554,166.8906 L689.27,166.8906 A2.5,2.5 0 0 1 686.77,164.3906 L686.77,97.5 A2.5,2.5 0 0 1 689.27,95" style="stroke:#181818;stroke-width:0.5;" fill="#F1F1F1"/><line x1="686.77" y1="117.2969" x2="770.2104" y2="117.2969" style="stroke:#181818;stroke-width:0.5;"/><text x="696.77" y="110.9951" fill="#000000" font-size="14" lengthAdjust="spacing" textLength="58.4404" font-weight="700" font-family="sans-serif">domain</text><text x="730.2969" y="137.292" fill="#000000" font-size="14" lengthAdjust="spacing" textLength="52.4316" font-family="sans-serif">domain</text><text x="696.77" y="153.5889" fill="#000000" font-size="14" lengthAdjust="spacing" textLength="119.4854" font-family="sans-serif">(entity + enums)</text></g><!--entity infra--><g class="entity" data-qualified-name="infra" id="ent0006" data-source-line="10"><path d="M400.04,184 L450.248,184 A3.75,3.75 0 0 1 452.748,186.5 L459.748,206.2969 L624.2666,206.2969 A2.5,2.5 0 0 1 626.7666,208.7969 L626.7666,253.3906 A2.5,2.5 0 0 1 624.2666,255.8906 L400.04,255.8906 A2.5,2.5 0 0 1 397.54,253.3906 L397.54,186.5 A2.5,2.5 0 0 1 400.04,184" style="stroke:#181818;stroke-width:0.5;" fill="#F1F1F1"/><line x1="397.54" y1="206.2969" x2="459.748" y2="206.2969" style="stroke:#181818;stroke-width:0.5;"/><text x="407.54" y="199.9951" fill="#000000" font-size="14" lengthAdjust="spacing" textLength="37.208" font-weight="700" font-family="sans-serif">infra</text><text x="459.2197" y="226.292" fill="#000000" font-size="14" lengthAdjust="spacing" textLength="95.8672" font-family="sans-serif">infrastructure</text><text x="407.54" y="242.5889" fill="#000000" font-size="14" lengthAdjust="spacing" textLength="199.2266" font-family="sans-serif">(config, ratelimit, web, i18n)</text></g><!--link web to service--><g class="link" data-entity-1="ent0001" data-entity-2="ent0002" id="lnk7" data-source-line="12" data-link-type="dependency"><path d="M165.26,209.2969 C187.89,199.8369 207.2772,169.4392 227.4572,160.9992" style="stroke:#181818;stroke-width:1;stroke-dasharray:7,7;" fill="none" id="web-to-service"/><polygon points="232.07,159.07,222.2235,158.8524,227.4572,160.9992,225.3103,166.2329,232.07,159.07" fill="#181818" style="stroke:#181818;stroke-width:1;stroke-linejoin:miter;stroke-miterlimit:10;"/></g><!--link web to mapping--><g class="link" data-entity-1="ent0001" data-entity-2="ent0003" id="lnk8" data-source-line="13" data-link-type="dependency"><path d="M165.26,256.14 C185.17,265.29 201.5861,272.8336 220.0761,281.3236" style="stroke:#181818;stroke-width:1;stroke-dasharray:7,7;" fill="none" id="web-to-mapping"/><polygon points="224.62,283.41,218.1101,276.0194,220.0761,281.3236,214.7719,283.2896,224.62,283.41" fill="#181818" style="stroke:#181818;stroke-width:1;stroke-linejoin:miter;stroke-miterlimit:10;"/></g><!--link web to infra--><g class="link" data-entity-1="ent0001" data-entity-2="ent0006" id="lnk9" data-source-line="14" data-link-type="dependency"><path d="M165.33,219.94 C230.58,219.94 319.11,219.94 392.45,219.94" style="stroke:#181818;stroke-width:1;stroke-dasharray:7,7;" fill="none" id="web-to-infra"/><polygon points="397.45,219.94,388.45,215.94,392.45,219.94,388.45,223.94,397.45,219.94" fill="#181818" style="stroke:#181818;stroke-width:1;stroke-linejoin:miter;stroke-miterlimit:10;"/></g><!--link service to repository--><g class="link" data-entity-1="ent0002" data-entity-2="ent0004" id="lnk10" data-source-line="15" data-link-type="dependency"><path d="M329.65,141.1469 C357.29,129.4369 388.3661,93.9704 420.7761,80.2404" style="stroke:#181818;stroke-width:1;stroke-dasharray:7,7;" fill="none" id="service-to-repository"/><polygon points="425.38,78.29,415.5327,78.1175,420.7761,80.2404,418.6533,85.4838,425.38,78.29" fill="#181818" style="stroke:#181818;stroke-width:1;stroke-linejoin:miter;stroke-miterlimit:10;"/></g><!--link service to domain--><g class="link" data-entity-1="ent0002" data-entity-2="ent0005" id="lnk11" data-source-line="16" data-link-type="dependency"><path d="M330.71,160.4269 C414.66,159.0269 582.5707,133.9238 681.5807,132.2638" style="stroke:#181818;stroke-width:1;stroke-dasharray:7,7;" fill="none" id="service-to-domain"/><polygon points="686.58,132.18,677.5142,128.3314,681.5807,132.2638,677.6483,136.3303,686.58,132.18" fill="#181818" style="stroke:#181818;stroke-width:1;stroke-linejoin:miter;stroke-miterlimit:10;"/></g><!--link service to infra--><g class="link" data-entity-1="ent0002" data-entity-2="ent0006" id="lnk12" data-source-line="17" data-link-type="dependency"><path d="M330.77,156.12 C353.48,164.16 376.7159,172.3834 403.7859,181.9534" style="stroke:#181818;stroke-width:1;stroke-dasharray:7,7;" fill="none" id="service-to-infra"/><polygon points="408.5,183.62,401.3479,176.8489,403.7859,181.9534,398.6814,184.3915,408.5,183.62" fill="#181818" style="stroke:#181818;stroke-width:1;stroke-linejoin:miter;stroke-miterlimit:10;"/></g><!--link mapping to domain--><g class="link" data-entity-1="ent0003" data-entity-2="ent0005" id="lnk13" data-source-line="18" data-link-type="dependency"><path d="M337.98,314.6 C408.95,319.32 533.52,319.11 626.77,272.94 C674.57,249.28 711.326,205.0854 734.726,171.4254" style="stroke:#181818;stroke-width:1;stroke-dasharray:7,7;" fill="none" id="mapping-to-domain"/><polygon points="737.58,167.32,729.1584,172.4265,734.726,171.4254,735.7271,176.993,737.58,167.32" fill="#181818" style="stroke:#181818;stroke-width:1;stroke-linejoin:miter;stroke-miterlimit:10;"/></g><!--link repository to domain--><g class="link" data-entity-1="ent0004" data-entity-2="ent0005" id="lnk14" data-source-line="19" data-link-type="dependency"><path d="M600.02,73.2 C628.28,83.37 654.6551,92.8578 681.8751,102.6478" style="stroke:#181818;stroke-width:1;stroke-dasharray:7,7;" fill="none" id="repository-to-domain"/><polygon points="686.58,104.34,679.4649,97.5301,681.8751,102.6478,676.7573,105.058,686.58,104.34" fill="#181818" style="stroke:#181818;stroke-width:1;stroke-linejoin:miter;stroke-miterlimit:10;"/></g><?plantuml-src JP2nKiCm38RtF8Mk2-tHwnqR4rD7ElNOM8IZ6bqTsRKLk33n43mXJu8QfoIRfV_xVqc-WpsZpzWXj0G9Bpqf5LY_79utyFlz0p5x5Fv2nr4C2U1Yopx2O4KYQKaSOu54kMFbrfxhNX1A39R8cTpLkDarvSoIq0RP47T6JqST0e41Yk83DO5E2XeXit_NQbMpDit4m-gJtbvbxQ9eZY5GBd0FhSRD2cogYJDPA7-mer6OthFOOKeitg8Ec8wQUwSrOX9cCbEAXJNcmU1ZoYR27XNX4CLFSsTczhMnGnRpa2ZhO6kIz5sfXYhECCifOndNw3FL0q_ijv1HAR3zwlPwt1RuuL5gn6Xf6kl2RlVqV-6jljrngoi-KMDdiVIoFQssR5NlbBY4veX5zmy0?></g></svg>