<svg xmlns="http://www.w3.org/2000/svg" xmlns:xlink="http://www.w3.org/1999/xlink" version="1.1" data-diagram-type="DESCRIPTION" style="width:813px;height:350px;background:#FFFFFF;" width="813px" height="350px" viewBox="0 0 813 350" zoomAndPan="magnify" preserveAspectRatio="none" contentStyleType="text/css"><?plantuml 1.2026.7beta3?><defs/><g><!--entity web--><g class="entity" data-qualified-name="web" id="ent0001" data-source-line="42"><path d="M12,180 L48.1323,180 A9,9 0 0 1 54.1323,186 L61.1323,201.1328 L149.6787,201.1328 A6,6 0 0 1 155.6787,207.1328 L155.6787,242.3984 A6,6 0 0 1 149.6787,248.3984 L12,248.3984 A6,6 0 0 1 6,242.3984 L6,186 A6,6 0 0 1 12,180" style="stroke:#94A3B8;stroke-width:0.5;" fill="#F1F5F9"/><line x1="6" y1="201.1328" x2="61.1323" y2="201.1328" style="stroke:#94A3B8;stroke-width:0.5;"/><text x="16" y="195.0669" fill="#0F172A" font-size="13" lengthAdjust="spacing" textLength="30.1323" font-weight="700" font-family="sans-serif">web</text><text x="62.3982" y="220.1997" fill="#0F172A" font-size="13" lengthAdjust="spacing" textLength="26.8823" font-family="sans-serif">web</text><text x="16" y="235.3325" fill="#0F172A" font-size="13" lengthAdjust="spacing" textLength="119.6787" font-family="sans-serif">(controllers + dto)</text></g><!--entity service--><g class="entity" data-qualified-name="service" id="ent0002" data-source-line="43"><path d="M227.85,116.13 L286.2689,116.13 A9,9 0 0 1 292.2689,122.13 L299.2689,137.2628 L310.2689,137.2628 A6,6 0 0 1 316.2689,143.2628 L316.2689,148.2628 A6,6 0 0 1 310.2689,154.2628 L227.85,154.2628 A6,6 0 0 1 221.85,148.2628 L221.85,122.13 A6,6 0 0 1 227.85,116.13" style="stroke:#94A3B8;stroke-width:0.5;" fill="#F1F5F9"/><line x1="221.85" y1="137.2628" x2="299.2689" y2="137.2628" style="stroke:#94A3B8;stroke-width:0.5;"/><text x="231.85" y="131.1969" fill="#0F172A" font-size="13" lengthAdjust="spacing" textLength="52.4189" font-weight="700" font-family="sans-serif">service</text></g><!--entity mapping--><g class="entity" data-qualified-name="mapping" id="ent0003" data-source-line="44"><path d="M221.68,267 L291.6263,267 A9,9 0 0 1 297.6263,273 L304.6263,288.1328 L316.4359,288.1328 A6,6 0 0 1 322.4359,294.1328 L322.4359,329.3984 A6,6 0 0 1 316.4359,335.3984 L221.68,335.3984 A6,6 0 0 1 215.68,329.3984 L215.68,273 A6,6 0 0 1 221.68,267" style="stroke:#94A3B8;stroke-width:0.5;" fill="#F1F5F9"/><line x1="215.68" y1="288.1328" x2="304.6263" y2="288.1328" style="stroke:#94A3B8;stroke-width:0.5;"/><text x="225.68" y="282.0669" fill="#0F172A" font-size="13" lengthAdjust="spacing" textLength="63.9463" font-weight="700" font-family="sans-serif">mapping</text><text x="235.4395" y="307.1997" fill="#0F172A" font-size="13" lengthAdjust="spacing" textLength="57.2368" font-family="sans-serif">mapping</text><text x="225.68" y="322.3325" fill="#0F172A" font-size="13" lengthAdjust="spacing" textLength="76.7559" font-family="sans-serif">(MapStruct)</text></g><!--entity repository--><g class="entity" data-qualified-name="repository" id="ent0004" data-source-line="45"><path d="M413.43,6 L495.1195,6 A9,9 0 0 1 501.1195,12 L508.1195,27.1328 L566.4446,27.1328 A6,6 0 0 1 572.4446,33.1328 L572.4446,68.3984 A6,6 0 0 1 566.4446,74.3984 L413.43,74.3984 A6,6 0 0 1 407.43,68.3984 L407.43,12 A6,6 0 0 1 413.43,6" style="stroke:#94A3B8;stroke-width:0.5;" fill="#F1F5F9"/><line x1="407.43" y1="27.1328" x2="508.1195" y2="27.1328" style="stroke:#94A3B8;stroke-width:0.5;"/><text x="417.43" y="21.0669" fill="#0F172A" font-size="13" lengthAdjust="spacing" textLength="75.6895" font-weight="700" font-family="sans-serif">repository</text><text x="451.9263" y="46.1997" fill="#0F172A" font-size="13" lengthAdjust="spacing" textLength="66.022" font-family="sans-serif">repository</text><text x="417.43" y="61.3325" fill="#0F172A" font-size="13" lengthAdjust="spacing" textLength="135.0146" font-family="sans-serif">(Spring Data Mongo)</text></g><!--entity domain--><g class="entity" data-qualified-name="domain" id="ent0005" data-source-line="46"><path d="M663.43,93 L723.6961,93 A9,9 0 0 1 729.6961,99 L736.6961,114.1328 L792.3807,114.1328 A6,6 0 0 1 798.3807,120.1328 L798.3807,155.3984 A6,6 0 0 1 792.3807,161.3984 L663.43,161.3984 A6,6 0 0 1 657.43,155.3984 L657.43,99 A6,6 0 0 1 663.43,93" style="stroke:#94A3B8;stroke-width:0.5;" fill="#F1F5F9"/><line x1="657.43" y1="114.1328" x2="736.6961" y2="114.1328" style="stroke:#94A3B8;stroke-width:0.5;"/><text x="667.43" y="108.0669" fill="#0F172A" font-size="13" lengthAdjust="spacing" textLength="54.2661" font-weight="700" font-family="sans-serif">domain</text><text x="698.5621" y="133.1997" fill="#0F172A" font-size="13" lengthAdjust="spacing" textLength="48.6865" font-family="sans-serif">domain</text><text x="667.43" y="148.3325" fill="#0F172A" font-size="13" lengthAdjust="spacing" textLength="110.9507" font-family="sans-serif">(entity + enums)</text></g><!--entity infra--><g class="entity" data-qualified-name="infra" id="ent0006" data-source-line="47"><path d="M388.43,180 L428.9803,180 A9,9 0 0 1 434.9803,186 L441.9803,201.1328 L591.4261,201.1328 A6,6 0 0 1 597.4261,207.1328 L597.4261,242.3984 A6,6 0 0 1 591.4261,248.3984 L388.43,248.3984 A6,6 0 0 1 382.43,242.3984 L382.43,186 A6,6 0 0 1 388.43,180" style="stroke:#94A3B8;stroke-width:0.5;" fill="#F1F5F9"/><line x1="382.43" y1="201.1328" x2="441.9803" y2="201.1328" style="stroke:#94A3B8;stroke-width:0.5;"/><text x="392.43" y="195.0669" fill="#0F172A" font-size="13" lengthAdjust="spacing" textLength="34.5503" font-weight="700" font-family="sans-serif">infra</text><text x="440.4183" y="220.1997" fill="#0F172A" font-size="13" lengthAdjust="spacing" textLength="89.0195" font-family="sans-serif">infrastructure</text><text x="392.43" y="235.3325" fill="#0F172A" font-size="13" lengthAdjust="spacing" textLength="184.9961" font-family="sans-serif">(config, ratelimit, web, i18n)</text></g><!--link web to service--><g class="link" data-entity-1="ent0001" data-entity-2="ent0002" id="lnk7" data-source-line="49" data-link-type="dependency"><path d="M155.97,203.8828 C178.29,194.4128 197.517,165.1226 217.437,156.6726" style="stroke:#64748B;stroke-width:1.1;stroke-dasharray:7,7;" fill="none" id="web-to-service"/><polygon points="222.04,154.72,212.1926,154.5522,217.437,156.6726,215.3167,161.917,222.04,154.72" fill="#64748B" style="stroke:#64748B;stroke-width:1.1;stroke-linejoin:miter;stroke-miterlimit:10;"/></g><!--link web to mapping--><g class="link" data-entity-1="ent0001" data-entity-2="ent0003" id="lnk8" data-source-line="50" data-link-type="dependency"><path d="M155.97,248.84 C175.85,258.12 192.411,265.8515 210.861,274.4815" style="stroke:#64748B;stroke-width:1.1;stroke-dasharray:7,7;" fill="none" id="web-to-mapping"/><polygon points="215.39,276.6,208.9325,269.1635,210.861,274.4815,205.543,276.41,215.39,276.6" fill="#64748B" style="stroke:#64748B;stroke-width:1.1;stroke-linejoin:miter;stroke-miterlimit:10;"/></g><!--link web to infra--><g class="link" data-entity-1="ent0001" data-entity-2="ent0006" id="lnk9" data-source-line="51" data-link-type="dependency"><path d="M156.03,214.2 C219.33,214.2 306.12,214.2 377.29,214.2" style="stroke:#64748B;stroke-width:1.1;stroke-dasharray:7,7;" fill="none" id="web-to-infra"/><polygon points="382.29,214.2,373.29,210.2,377.29,214.2,373.29,218.2,382.29,214.2" fill="#64748B" style="stroke:#64748B;stroke-width:1.1;stroke-linejoin:miter;stroke-miterlimit:10;"/></g><!--link service to repository--><g class="link" data-entity-1="ent0002" data-entity-2="ent0004" id="lnk10" data-source-line="52" data-link-type="dependency"><path d="M314.88,136.8828 C342.02,125.1028 372.8332,90.5903 404.6132,76.8003" style="stroke:#64748B;stroke-width:1.1;stroke-dasharray:7,7;" fill="none" id="service-to-repository"/><polygon points="409.2,74.81,399.3515,74.7231,404.6132,76.8003,402.536,82.062,409.2,74.81" fill="#64748B" style="stroke:#64748B;stroke-width:1.1;stroke-linejoin:miter;stroke-miterlimit:10;"/></g><!--link service to domain--><g class="link" data-entity-1="ent0002" data-entity-2="ent0005" id="lnk11" data-source-line="53" data-link-type="dependency"><path d="M316.38,155.5228 C396.79,154.1128 557.6608,130.1679 652.0908,128.5079" style="stroke:#64748B;stroke-width:1.1;stroke-dasharray:7,7;" fill="none" id="service-to-domain"/><polygon points="657.09,128.42,648.0211,124.5788,652.0908,128.5079,648.1617,132.5776,657.09,128.42" fill="#64748B" style="stroke:#64748B;stroke-width:1.1;stroke-linejoin:miter;stroke-miterlimit:10;"/></g><!--link service to infra--><g class="link" data-entity-1="ent0002" data-entity-2="ent0006" id="lnk12" data-source-line="54" data-link-type="dependency"><path d="M316.74,152.05 C339.09,160.12 362.0066,168.3934 388.5366,177.9634" style="stroke:#64748B;stroke-width:1.1;stroke-dasharray:7,7;" fill="none" id="service-to-infra"/><polygon points="393.24,179.66,386.1313,172.8434,388.5366,177.9634,383.4167,180.3688,393.24,179.66" fill="#64748B" style="stroke:#64748B;stroke-width:1.1;stroke-linejoin:miter;stroke-miterlimit:10;"/></g><!--link mapping to domain--><g class="link" data-entity-1="ent0003" data-entity-2="ent0005" id="lnk13" data-source-line="55" data-link-type="dependency"><path d="M322.8,306.48 C390.23,310.86 508.86,310.49 597.43,266.2 C644.33,242.75 680.1001,198.939 702.6101,165.979" style="stroke:#64748B;stroke-width:1.1;stroke-dasharray:7,7;" fill="none" id="mapping-to-domain"/><polygon points="705.43,161.85,697.0511,167.0262,702.6101,165.979,703.6574,171.538,705.43,161.85" fill="#64748B" style="stroke:#64748B;stroke-width:1.1;stroke-linejoin:miter;stroke-miterlimit:10;"/></g><!--link repository to domain--><g class="link" data-entity-1="ent0004" data-entity-2="ent0005" id="lnk14" data-source-line="56" data-link-type="dependency"><path d="M572.8,70.39 C600.22,80.49 625.8386,89.9405 652.2586,99.6805" style="stroke:#64748B;stroke-width:1.1;stroke-dasharray:7,7;" fill="none" id="repository-to-domain"/><polygon points="656.95,101.41,649.8892,94.5438,652.2586,99.6805,647.122,102.05,656.95,101.41" fill="#64748B" style="stroke:#64748B;stroke-width:1.1;stroke-linejoin:miter;stroke-miterlimit:10;"/></g><?plantuml-src ZPNDRjim3CVlUGgYExJ1qY3EHvjWm81ykJkqfsotNHIPThNAaYV9BTBJ7c9Fk2SPOpkrKXj90oI8nH__92MQkeJhwsj0wuJKaEe8ZT8m70nlu2gMpFN0OAHLX2pIFSYOHCSWGWcPqJlaJd-1cCmQk6H64s0OI4p4LaWHiGXGmPrmt_9jTn-dOv-4sZCfR1b_IepELRJKKXlu51OVZx2F5FD5g0HY9YrwbihDA3GG33t32cEMInTgvIhLGHZS3kVjo4Qy8WGZppWtHhzKdZVZs_5qyTxeIOzl9vERsNlW-wFWJmgjXQ0VU4RQ7siNZQAduJnSDZ1jw1mE5KndmMBOZfmCDdVEY6tkqCjvD1e7auc_oOuvF9zMYPrCAxV8cMrghPVX-kXS3-19DKQjPPfvXUlLQjB0VANbS1mC_DGp4c59Iur1E0bdBQ2lDXlFHukflxCwpRH2vJvmb6_eoKeLlNFdnGhArsbq7_qwmKN6sd9hrbh39-kr-3j7nV5UnFHLnpai5wl9EcYXxoXuTZuBfTjwRntEbgFtr57O-NG-61ztWNWMRdT-6z_8SyrNK2l1KXfk7sh38uUJ3QctlsXmdi-rubeolGGAb12p7yLqbhJf3YrS_NYuxyA_Ftz1cuGfySguqAgOrbn78j6meuSCQPehBfY534qg7CrfyiqL0wibAGg3VE_OxJTVZetRIQGhWJkc4eaTYR43fy68vD6LhevSEvsAXuiNtFvKLvn6aD5Ieh7m6IAdknT0KSbOanRDi-1O6Ah_jJ5bMKPN0Kazi6pZJCvTAL4PQj9WfgsWiR0ZU9EP_GMoOdHhFMYLL75hflQBTCg48XzwO-aeAKrKUMfBXz9OmqB5XjaYZTnWMM0i4hejQKvAGRlQsnVN0n5CLIbHk7Gwj0hz_jUt2W_FXpeEpoLUKSMAbxI_NANcBvM-bQ8FrHBUwdy0?></g></svg>