<svg xmlns="http://www.w3.org/2000/svg" xmlns:xlink="http://www.w3.org/1999/xlink" version="1.1" data-diagram-type="SEQUENCE" style="width:1560px;height:906px;background:#FFFFFF;" width="1560px" height="906px" viewBox="0 0 1560 906" zoomAndPan="magnify" preserveAspectRatio="none" contentStyleType="text/css"><?plantuml 1.2026.7beta3?><defs/><g><g class="title" data-source-line="39"><text x="696.954" y="27.9951" fill="#0F172A" font-size="14" lengthAdjust="spacing" textLength="159.1748" font-weight="700" font-family="sans-serif">Que hace el sistema</text></g><rect x="698.531" y="337.2266" width="845.5518" height="282.5938" fill="#F1F5F9" style="stroke:#94A3B8;stroke-width:1.5;" rx="6" ry="6"/><rect x="1117.9092" y="461.8906" width="416.1736" height="92.6641" fill="#F1F5F9" style="stroke:#94A3B8;stroke-width:1.5;" rx="6" ry="6"/><path d="M1117.9092,508.2891 L1534.0828,508.2891 L1534.0828,548.5547 A6,6 0 0 1 1528.0828,554.5547 L1123.9092,554.5547 A6,6 0 0 1 1117.9092,548.5547 L1117.9092,508.2891" style="stroke:none;stroke-width:1;" fill="#F1F5F9"/><g class="participant-lifeline" data-qualified-name="U" data-entity-uid="part1" id="part1-lifeline" data-source-line="41"><g><title>Usuario .admin.</title><rect x="56.2063" y="117.4297" width="8" height="708.1875" fill="#000000" fill-opacity="0.00000"/><line x1="60" y1="117.4297" x2="60" y2="825.6172" style="stroke:#CBD5E1;stroke-width:0.5;stroke-dasharray:5,5;"/></g></g><g class="participant-lifeline" data-qualified-name="FE" data-entity-uid="part2" id="part2-lifeline" data-source-line="42"><g><title>Frontend React</title><rect x="443.1018" y="117.4297" width="8" height="708.1875" fill="#000000" fill-opacity="0.00000"/><line x1="446.114" y1="117.4297" x2="446.114" y2="825.6172" style="stroke:#CBD5E1;stroke-width:0.5;stroke-dasharray:5,5;"/></g></g><g class="participant-lifeline" data-qualified-name="API" data-entity-uid="part3" id="part3-lifeline" data-source-line="43"><g><title>Backend</title><rect x="749.5344" y="117.4297" width="8" height="708.1875" fill="#000000" fill-opacity="0.00000"/><line x1="753.531" y1="117.4297" x2="753.531" y2="825.6172" style="stroke:#CBD5E1;stroke-width:0.5;stroke-dasharray:5,5;"/></g></g><g class="participant-lifeline" data-qualified-name="DB" data-entity-uid="part4" id="part4-lifeline" data-source-line="44"><g><title>MongoDB</title><rect x="1079.6375" y="117.4297" width="8" height="708.1875" fill="#000000" fill-opacity="0.00000"/><line x1="1083.3657" y1="117.4297" x2="1083.3657" y2="825.6172" style="stroke:#CBD5E1;stroke-width:0.5;stroke-dasharray:5,5;"/></g></g><g class="participant-lifeline" data-qualified-name="RPi" data-entity-uid="part5" id="part5-lifeline" data-source-line="45"><g><title>Raspberry</title><rect x="1181.9539" y="117.4297" width="8" height="708.1875" fill="#000000" fill-opacity="0.00000"/><line x1="1185.9092" y1="117.4297" x2="1185.9092" y2="825.6172" style="stroke:#CBD5E1;stroke-width:0.5;stroke-dasharray:5,5;"/></g></g><g class="participant-lifeline" data-qualified-name="HW" data-entity-uid="part6" id="part6-lifeline" data-source-line="46"><g><title>Relay . Cooler</title><rect x="1464.3835" y="117.4297" width="8" height="708.1875" fill="#000000" fill-opacity="0.00000"/><line x1="1467.6843" y1="117.4297" x2="1467.6843" y2="825.6172" style="stroke:#CBD5E1;stroke-width:0.5;stroke-dasharray:5,5;"/></g></g><g class="participant participant-head" data-qualified-name="U" data-entity-uid="part1" id="part1-head" data-source-line="41"><text x="5" y="114.3638" fill="#0F172A" font-size="13" lengthAdjust="spacing" textLength="104.4126" font-family="sans-serif">Usuario (admin)</text><ellipse cx="60.2063" cy="50.7969" rx="8" ry="8" fill="#FFEDD5" style="stroke:#C2410C;stroke-width:0.5;"/><path d="M60.2063,58.7969 L60.2063,85.7969 M47.2063,66.7969 L73.2063,66.7969 M60.2063,85.7969 L47.2063,100.7969 M60.2063,85.7969 L73.2063,100.7969" style="stroke:#C2410C;stroke-width:0.5;" fill="none"/></g><g class="participant participant-tail" data-qualified-name="U" data-entity-uid="part1" id="part1-tail" data-source-line="41"><text x="5" y="836.6841" fill="#0F172A" font-size="13" lengthAdjust="spacing" textLength="104.4126" font-family="sans-serif">Usuario (admin)</text><ellipse cx="60.2063" cy="848.25" rx="8" ry="8" fill="#FFEDD5" style="stroke:#C2410C;stroke-width:0.5;"/><path d="M60.2063,856.25 L60.2063,883.25 M47.2063,864.25 L73.2063,864.25 M60.2063,883.25 L47.2063,898.25 M60.2063,883.25 L73.2063,898.25" style="stroke:#C2410C;stroke-width:0.5;" fill="none"/></g><g class="participant participant-head" data-qualified-name="FE" data-entity-uid="part2" id="part2-head" data-source-line="42"><rect x="390.114" y="87.2969" width="113.9756" height="29.1328" fill="#F1F5F9" style="stroke:#94A3B8;stroke-width:0.5;" rx="6" ry="6"/><text x="397.114" y="106.3638" fill="#0F172A" font-size="13" lengthAdjust="spacing" textLength="99.9756" font-family="sans-serif">Frontend React</text></g><g class="participant participant-tail" data-qualified-name="FE" data-entity-uid="part2" id="part2-tail" data-source-line="42"><rect x="390.114" y="824.6172" width="113.9756" height="29.1328" fill="#F1F5F9" style="stroke:#94A3B8;stroke-width:0.5;" rx="6" ry="6"/><text x="397.114" y="843.6841" fill="#0F172A" font-size="13" lengthAdjust="spacing" textLength="99.9756" font-family="sans-serif">Frontend React</text></g><g class="participant participant-head" data-qualified-name="API" data-entity-uid="part3" id="part3-head" data-source-line="43"><rect x="708.531" y="72.1641" width="90.0068" height="44.2656" fill="#F1F5F9" style="stroke:#94A3B8;stroke-width:0.5;" rx="6" ry="6"/><text x="725.5095" y="91.231" fill="#0F172A" font-size="13" lengthAdjust="spacing" textLength="56.0498" font-family="sans-serif">Backend</text><text x="715.531" y="106.3638" fill="#0F172A" font-size="13" lengthAdjust="spacing" textLength="76.0068" font-family="sans-serif">Spring Boot</text></g><g class="participant participant-tail" data-qualified-name="API" data-entity-uid="part3" id="part3-tail" data-source-line="43"><rect x="708.531" y="824.6172" width="90.0068" height="44.2656" fill="#F1F5F9" style="stroke:#94A3B8;stroke-width:0.5;" rx="6" ry="6"/><text x="725.5095" y="843.6841" fill="#0F172A" font-size="13" lengthAdjust="spacing" textLength="56.0498" font-family="sans-serif">Backend</text><text x="715.531" y="858.8169" fill="#0F172A" font-size="13" lengthAdjust="spacing" textLength="76.0068" font-family="sans-serif">Spring Boot</text></g><g class="participant participant-head" data-qualified-name="DB" data-entity-uid="part4" id="part4-head" data-source-line="44"><text x="1049.3657" y="114.3638" fill="#0F172A" font-size="13" lengthAdjust="spacing" textLength="62.5435" font-family="sans-serif">MongoDB</text><path d="M1065.6375,66.2969 C1065.6375,56.2969 1083.6375,56.2969 1083.6375,56.2969 C1083.6375,56.2969 1101.6375,56.2969 1101.6375,66.2969 L1101.6375,92.2969 C1101.6375,102.2969 1083.6375,102.2969 1083.6375,102.2969 C1083.6375,102.2969 1065.6375,102.2969 1065.6375,92.2969 L1065.6375,66.2969" style="stroke:#181818;stroke-width:0.5;" fill="#E2E2F0"/><path d="M1065.6375,66.2969 C1065.6375,76.2969 1083.6375,76.2969 1083.6375,76.2969 C1083.6375,76.2969 1101.6375,76.2969 1101.6375,66.2969" style="stroke:#181818;stroke-width:0.5;" fill="none"/></g><g class="participant participant-tail" data-qualified-name="DB" data-entity-uid="part4" id="part4-tail" data-source-line="44"><text x="1049.3657" y="836.6841" fill="#0F172A" font-size="13" lengthAdjust="spacing" textLength="62.5435" font-family="sans-serif">MongoDB</text><path d="M1065.6375,849.75 C1065.6375,839.75 1083.6375,839.75 1083.6375,839.75 C1083.6375,839.75 1101.6375,839.75 1101.6375,849.75 L1101.6375,875.75 C1101.6375,885.75 1083.6375,885.75 1083.6375,885.75 C1083.6375,885.75 1065.6375,885.75 1065.6375,875.75 L1065.6375,849.75" style="stroke:#181818;stroke-width:0.5;" fill="#E2E2F0"/><path d="M1065.6375,849.75 C1065.6375,859.75 1083.6375,859.75 1083.6375,859.75 C1083.6375,859.75 1101.6375,859.75 1101.6375,849.75" style="stroke:#181818;stroke-width:0.5;" fill="none"/></g><g class="participant participant-head" data-qualified-name="RPi" data-entity-uid="part5" id="part5-head" data-source-line="45"><rect x="1127.9092" y="72.1641" width="116.0894" height="44.2656" fill="#F1F5F9" style="stroke:#94A3B8;stroke-width:0.5;" rx="6" ry="6"/><text x="1152.6255" y="91.231" fill="#0F172A" font-size="13" lengthAdjust="spacing" textLength="66.6567" font-family="sans-serif">Raspberry</text><text x="1134.9092" y="106.3638" fill="#0F172A" font-size="13" lengthAdjust="spacing" textLength="102.0894" font-family="sans-serif">(Python + DHT)</text></g><g class="participant participant-tail" data-qualified-name="RPi" data-entity-uid="part5" id="part5-tail" data-source-line="45"><rect x="1127.9092" y="824.6172" width="116.0894" height="44.2656" fill="#F1F5F9" style="stroke:#94A3B8;stroke-width:0.5;" rx="6" ry="6"/><text x="1152.6255" y="843.6841" fill="#0F172A" font-size="13" lengthAdjust="spacing" textLength="66.6567" font-family="sans-serif">Raspberry</text><text x="1134.9092" y="858.8169" fill="#0F172A" font-size="13" lengthAdjust="spacing" textLength="102.0894" font-family="sans-serif">(Python + DHT)</text></g><g class="participant participant-head" data-qualified-name="HW" data-entity-uid="part6" id="part6-head" data-source-line="46"><rect x="1412.6843" y="87.2969" width="111.3984" height="29.1328" fill="#F1F5F9" style="stroke:#94A3B8;stroke-width:0.5;" rx="6" ry="6"/><text x="1419.6843" y="106.3638" fill="#0F172A" font-size="13" lengthAdjust="spacing" textLength="97.3984" font-family="sans-serif">Relay + Cooler</text></g><g class="participant participant-tail" data-qualified-name="HW" data-entity-uid="part6" id="part6-tail" data-source-line="46"><rect x="1412.6843" y="824.6172" width="111.3984" height="29.1328" fill="#F1F5F9" style="stroke:#94A3B8;stroke-width:0.5;" rx="6" ry="6"/><text x="1419.6843" y="843.6841" fill="#0F172A" font-size="13" lengthAdjust="spacing" textLength="97.3984" font-family="sans-serif">Relay + Cooler</text></g><rect x="0" y="147.9961" width="1554.0828" height="3" fill="#EEEEEE" style="stroke:#EEEEEE;stroke-width:1;" rx="6" ry="6"/><line x1="0" y1="147.9961" x2="1554.0828" y2="147.9961" style="stroke:#000000;stroke-width:1;"/><line x1="0" y1="150.9961" x2="1554.0828" y2="150.9961" style="stroke:#000000;stroke-width:1;"/><rect x="602.6188" y="137.4297" width="348.8452" height="23.1328" fill="#EEEEEE" style="stroke:#000000;stroke-width:2;" rx="6" ry="6"/><text x="608.6188" y="153.4966" fill="#0F172A" font-size="13" lengthAdjust="spacing" textLength="330.3193" font-weight="700" font-family="sans-serif">1) Configuracion de umbrales (con auditoria)</text><g class="message" data-entity-1="part1" data-entity-2="part2" id="msg1" data-source-line="49"><polygon points="435.1018,187.6953,445.1018,191.6953,435.1018,195.6953,439.1018,191.6953" fill="#64748B" style="stroke:#64748B;stroke-width:1;stroke-linejoin:miter;stroke-miterlimit:10;"/><line x1="60.2063" y1="191.6953" x2="441.1018" y2="191.6953" style="stroke:#64748B;stroke-width:1.1;"/><text x="67.2063" y="186.6294" fill="#475569" font-size="13" lengthAdjust="spacing" textLength="362.8955" font-family="sans-serif">Define tempMin/Max, humMin/Max, histeresis, intervalo</text></g><g class="message" data-entity-1="part2" data-entity-2="part3" id="msg2" data-source-line="50"><polygon points="741.5344,216.8281,751.5344,220.8281,741.5344,224.8281,745.5344,220.8281" fill="#64748B" style="stroke:#64748B;stroke-width:1;stroke-linejoin:miter;stroke-miterlimit:10;"/><line x1="447.1018" y1="220.8281" x2="747.5344" y2="220.8281" style="stroke:#64748B;stroke-width:1.1;"/><text x="454.1018" y="215.7622" fill="#475569" font-size="13" lengthAdjust="spacing" textLength="106.7676" font-family="sans-serif">POST /api/config</text></g><g class="message" data-entity-1="part3" data-entity-2="part4" id="msg3" data-source-line="51"><polygon points="1071.6375,245.9609,1081.6375,249.9609,1071.6375,253.9609,1075.6375,249.9609" fill="#64748B" style="stroke:#64748B;stroke-width:1;stroke-linejoin:miter;stroke-miterlimit:10;"/><line x1="753.5344" y1="249.9609" x2="1077.6375" y2="249.9609" style="stroke:#64748B;stroke-width:1.1;"/><text x="760.5344" y="244.895" fill="#475569" font-size="13" lengthAdjust="spacing" textLength="306.103" font-family="sans-serif">Guarda config activa (quien, email, cuando, IP)</text></g><g class="message" data-entity-1="part3" data-entity-2="part2" id="msg4" data-source-line="52"><polygon points="458.1018,275.0938,448.1018,279.0938,458.1018,283.0938,454.1018,279.0938" fill="#64748B" style="stroke:#64748B;stroke-width:1;stroke-linejoin:miter;stroke-miterlimit:10;"/><line x1="452.1018" y1="279.0938" x2="752.5344" y2="279.0938" style="stroke:#64748B;stroke-width:1.1;stroke-dasharray:2,2;"/><text x="464.1018" y="274.0278" fill="#475569" font-size="13" lengthAdjust="spacing" textLength="80.6787" font-family="sans-serif">201 Created</text></g><rect x="0" y="307.6602" width="1554.0828" height="3" fill="#EEEEEE" style="stroke:#EEEEEE;stroke-width:1;" rx="6" ry="6"/><line x1="0" y1="307.6602" x2="1554.0828" y2="307.6602" style="stroke:#000000;stroke-width:1;"/><line x1="0" y1="310.6602" x2="1554.0828" y2="310.6602" style="stroke:#000000;stroke-width:1;"/><rect x="638.3497" y="297.0938" width="277.3833" height="23.1328" fill="#EEEEEE" style="stroke:#000000;stroke-width:2;" rx="6" ry="6"/><text x="644.3497" y="313.1606" fill="#0F172A" font-size="13" lengthAdjust="spacing" textLength="258.8574" font-weight="700" font-family="sans-serif">2) Bucle de control en la Raspberry</text><path d="M704.531,337.2266 L775.155,337.2266 L775.155,344.3594 L765.155,354.3594 L698.531,354.3594 L698.531,343.2266 A6,6 0 0 1 704.531,337.2266" style="stroke:#000000;stroke-width:1.5;" fill="#F1F5F9"/><rect x="698.531" y="337.2266" width="845.5518" height="282.5938" fill="none" style="stroke:#94A3B8;stroke-width:1.5;" rx="6" ry="6"/><text x="713.531" y="350.2935" fill="#0F172A" font-size="13" lengthAdjust="spacing" textLength="31.624" font-weight="700" font-family="sans-serif">loop</text><text x="790.155" y="351.2935" fill="#0F172A" font-size="13" lengthAdjust="spacing" textLength="270.5054" font-weight="700" font-family="sans-serif">[cada measurementIntervalSeconds]</text><g class="message" data-entity-1="part5" data-entity-2="part3" id="msg5" data-source-line="56"><polygon points="764.5344,371.625,754.5344,375.625,764.5344,379.625,760.5344,375.625" fill="#64748B" style="stroke:#64748B;stroke-width:1;stroke-linejoin:miter;stroke-miterlimit:10;"/><line x1="758.5344" y1="375.625" x2="1184.9539" y2="375.625" style="stroke:#64748B;stroke-width:1.1;"/><text x="770.5344" y="370.5591" fill="#475569" font-size="13" lengthAdjust="spacing" textLength="139.6548" font-family="sans-serif">GET /api/config/latest</text></g><g class="message" data-entity-1="part3" data-entity-2="part5" id="msg6" data-source-line="57"><polygon points="1173.9539,400.7578,1183.9539,404.7578,1173.9539,408.7578,1177.9539,404.7578" fill="#64748B" style="stroke:#64748B;stroke-width:1;stroke-linejoin:miter;stroke-miterlimit:10;"/><line x1="753.5344" y1="404.7578" x2="1179.9539" y2="404.7578" style="stroke:#64748B;stroke-width:1.1;stroke-dasharray:2,2;"/><text x="760.5344" y="399.6919" fill="#475569" font-size="13" lengthAdjust="spacing" textLength="220.1748" font-family="sans-serif">Umbrales + histeresis + intervalo</text></g><g class="message" data-entity-1="part5" data-entity-2="part5" id="msg7" data-source-line="58"><line x1="1185.9539" y1="433.8906" x2="1227.9539" y2="433.8906" style="stroke:#64748B;stroke-width:1.1;"/><line x1="1227.9539" y1="433.8906" x2="1227.9539" y2="446.8906" style="stroke:#64748B;stroke-width:1.1;"/><line x1="1186.9539" y1="446.8906" x2="1227.9539" y2="446.8906" style="stroke:#64748B;stroke-width:1.1;"/><polygon points="1196.9539,442.8906,1186.9539,446.8906,1196.9539,450.8906,1192.9539,446.8906" fill="#64748B" style="stroke:#64748B;stroke-width:1;stroke-linejoin:miter;stroke-miterlimit:10;"/><text x="1192.9539" y="428.8247" fill="#475569" font-size="13" lengthAdjust="spacing" textLength="268.4297" font-family="sans-serif">Lee sensor DHT (temperatura, humedad)</text></g><path d="M1123.9092,461.8906 L1182.3521,461.8906 L1182.3521,469.0234 L1172.3521,479.0234 L1117.9092,479.0234 L1117.9092,467.8906 A6,6 0 0 1 1123.9092,461.8906" style="stroke:#000000;stroke-width:1.5;" fill="#F1F5F9"/><rect x="1117.9092" y="461.8906" width="416.1736" height="92.6641" fill="none" style="stroke:#94A3B8;stroke-width:1.5;" rx="6" ry="6"/><text x="1132.9092" y="474.9575" fill="#0F172A" font-size="13" lengthAdjust="spacing" textLength="19.4429" font-weight="700" font-family="sans-serif">alt</text><text x="1197.3521" y="475.9575" fill="#0F172A" font-size="13" lengthAdjust="spacing" textLength="281.9883" font-weight="700" font-family="sans-serif">[supera umbral (aplicando histeresis)]</text><g class="message" data-entity-1="part5" data-entity-2="part6" id="msg8" data-source-line="60"><polygon points="1456.3835,496.2891,1466.3835,500.2891,1456.3835,504.2891,1460.3835,500.2891" fill="#64748B" style="stroke:#64748B;stroke-width:1;stroke-linejoin:miter;stroke-miterlimit:10;"/><line x1="1185.9539" y1="500.2891" x2="1462.3835" y2="500.2891" style="stroke:#64748B;stroke-width:1.1;"/><text x="1192.9539" y="495.2231" fill="#475569" font-size="13" lengthAdjust="spacing" textLength="174.8208" font-family="sans-serif">Enciende cooler (relay ON)</text></g><line x1="1117.9092" y1="509.2891" x2="1534.0828" y2="509.2891" style="stroke:#94A3B8;stroke-width:1;stroke-dasharray:2,2;"/><text x="1122.9092" y="521.356" fill="#0F172A" font-size="13" lengthAdjust="spacing" textLength="130.6665" font-weight="700" font-family="sans-serif">[dentro de rango]</text><g class="message" data-entity-1="part5" data-entity-2="part6" id="msg9" data-source-line="62"><polygon points="1456.3835,542.5547,1466.3835,546.5547,1456.3835,550.5547,1460.3835,546.5547" fill="#64748B" style="stroke:#64748B;stroke-width:1;stroke-linejoin:miter;stroke-miterlimit:10;"/><line x1="1185.9539" y1="546.5547" x2="1462.3835" y2="546.5547" style="stroke:#64748B;stroke-width:1.1;"/><text x="1192.9539" y="541.4888" fill="#475569" font-size="13" lengthAdjust="spacing" textLength="161.6812" font-family="sans-serif">Apaga cooler (relay OFF)</text></g><g class="message" data-entity-1="part5" data-entity-2="part3" id="msg10" data-source-line="64"><polygon points="764.5344,578.6875,754.5344,582.6875,764.5344,586.6875,760.5344,582.6875" fill="#64748B" style="stroke:#64748B;stroke-width:1;stroke-linejoin:miter;stroke-miterlimit:10;"/><line x1="758.5344" y1="582.6875" x2="1184.9539" y2="582.6875" style="stroke:#64748B;stroke-width:1.1;"/><text x="770.5344" y="577.6216" fill="#475569" font-size="13" lengthAdjust="spacing" textLength="365.3901" font-family="sans-serif">POST /api/measurements (temp, hum, coolerOn, status)</text></g><g class="message" data-entity-1="part3" data-entity-2="part4" id="msg11" data-source-line="65"><polygon points="1071.6375,607.8203,1081.6375,611.8203,1071.6375,615.8203,1075.6375,611.8203" fill="#64748B" style="stroke:#64748B;stroke-width:1;stroke-linejoin:miter;stroke-miterlimit:10;"/><line x1="753.5344" y1="611.8203" x2="1077.6375" y2="611.8203" style="stroke:#64748B;stroke-width:1.1;"/><text x="760.5344" y="606.7544" fill="#475569" font-size="13" lengthAdjust="spacing" textLength="197.2407" font-family="sans-serif">Persiste la medicion (historial)</text></g><rect x="0" y="647.3867" width="1554.0828" height="3" fill="#EEEEEE" style="stroke:#EEEEEE;stroke-width:1;" rx="6" ry="6"/><line x1="0" y1="647.3867" x2="1554.0828" y2="647.3867" style="stroke:#000000;stroke-width:1;"/><line x1="0" y1="650.3867" x2="1554.0828" y2="650.3867" style="stroke:#000000;stroke-width:1;"/><rect x="678.5304" y="636.8203" width="197.022" height="23.1328" fill="#EEEEEE" style="stroke:#000000;stroke-width:2;" rx="6" ry="6"/><text x="684.5304" y="652.8872" fill="#0F172A" font-size="13" lengthAdjust="spacing" textLength="178.4961" font-weight="700" font-family="sans-serif">3) Monitoreo y auditoria</text><g class="message" data-entity-1="part1" data-entity-2="part2" id="msg12" data-source-line="69"><polygon points="435.1018,687.0859,445.1018,691.0859,435.1018,695.0859,439.1018,691.0859" fill="#64748B" style="stroke:#64748B;stroke-width:1;stroke-linejoin:miter;stroke-miterlimit:10;"/><line x1="60.2063" y1="691.0859" x2="441.1018" y2="691.0859" style="stroke:#64748B;stroke-width:1.1;"/><text x="67.2063" y="686.02" fill="#475569" font-size="13" lengthAdjust="spacing" textLength="168.4731" font-family="sans-serif">Abre dashboard / historial</text></g><g class="message" data-entity-1="part2" data-entity-2="part3" id="msg13" data-source-line="70"><polygon points="741.5344,716.2188,751.5344,720.2188,741.5344,724.2188,745.5344,720.2188" fill="#64748B" style="stroke:#64748B;stroke-width:1;stroke-linejoin:miter;stroke-miterlimit:10;"/><line x1="447.1018" y1="720.2188" x2="747.5344" y2="720.2188" style="stroke:#64748B;stroke-width:1.1;"/><text x="454.1018" y="715.1528" fill="#475569" font-size="13" lengthAdjust="spacing" textLength="282.4326" font-family="sans-serif">GET /api/measurements, /api/config/history</text></g><g class="message" data-entity-1="part3" data-entity-2="part4" id="msg14" data-source-line="71"><polygon points="1071.6375,745.3516,1081.6375,749.3516,1071.6375,753.3516,1075.6375,749.3516" fill="#64748B" style="stroke:#64748B;stroke-width:1;stroke-linejoin:miter;stroke-miterlimit:10;"/><line x1="753.5344" y1="749.3516" x2="1077.6375" y2="749.3516" style="stroke:#64748B;stroke-width:1.1;"/><text x="760.5344" y="744.2856" fill="#475569" font-size="13" lengthAdjust="spacing" textLength="56.9575" font-family="sans-serif">Consulta</text></g><g class="message" data-entity-1="part3" data-entity-2="part2" id="msg15" data-source-line="72"><polygon points="458.1018,774.4844,448.1018,778.4844,458.1018,782.4844,454.1018,778.4844" fill="#64748B" style="stroke:#64748B;stroke-width:1;stroke-linejoin:miter;stroke-miterlimit:10;"/><line x1="452.1018" y1="778.4844" x2="752.5344" y2="778.4844" style="stroke:#64748B;stroke-width:1.1;stroke-dasharray:2,2;"/><text x="464.1018" y="773.4185" fill="#475569" font-size="13" lengthAdjust="spacing" textLength="37.8003" font-family="sans-serif">Datos</text></g><g class="message" data-entity-1="part2" data-entity-2="part1" id="msg16" data-source-line="73"><polygon points="71.2063,803.6172,61.2063,807.6172,71.2063,811.6172,67.2063,807.6172" fill="#64748B" style="stroke:#64748B;stroke-width:1;stroke-linejoin:miter;stroke-miterlimit:10;"/><line x1="65.2063" y1="807.6172" x2="446.1018" y2="807.6172" style="stroke:#64748B;stroke-width:1.1;stroke-dasharray:2,2;"/><text x="77.2063" y="802.5513" fill="#475569" font-size="13" lengthAdjust="spacing" textLength="216.7788" font-family="sans-serif">Estado actual, graficos e historial</text></g><?plantuml-src ZLRRSk9647tNLtGv3mkrU6rniM5JJXKtsQuoCR5DxSk-jAG69XOpsfdHRiXJFY9Vc2z9ZxX9GC5IPGghJzzEd-dH1xYyl0GoLYGA5YecBHNKh-itK9acQ6kWALOo9enL3L9Co2B4b42grP8Ygtw5APiLH0bgnG2DaD1CX28HCSP04kw5VSZ2gilZcNSX7MO18KRlCwqo6VTLeZJy4kIV0iBCEUSF8MSmnSHGmR9sqv8q-FM2OK1Jp18RA6dNKQy3_xRUFGvv5NyJ-8s2iQkr-h7sl6dUDjkzVMCXTFEsrRhfx0FUvY9wbsGC-9_yWf7vCQPtq7Gxw0Rz0vZIF8TD1-sEtwiVXvnCrhLMYp2pLAYvqMZwhLQHP8kMpfUrWfqiApCKeJcCDUm7mz9SDy2JqP2bfG_h2eQ3GUi0LepKhpVzwsBfAGV1sP4U_Q0LT8u0Yz4wpMwZrouognQfaYJjJuno2ptPgUGpTpvOZYh6EL0VVriHYHIFrNROwmvyibz3tpAI4Js9AV_9SWtztg0rz8-WxpbvUhuAgOvfRnXq-erzL2bjjzszRfPL8BuBkpnFunPvJdmvQY1mmSljfsHOSZWfI1N-oOlpVArht95AFm0dcZ76hM8cFNAa2uJAPFHKXV_--PUr9wTYbccCX98r2BCe8OVbvrQh19QywgNWiqFgasU5PUiV6S4S8m9UxaOOImlqlFnymSN4PAY5WWh62o6h5u069bv1H70HQ0vDCeONOgSS4GpB4DSo8xxArrIxjTvJQWNiZX-z62s6l1RWOgJaJ0rwkMNGAuTuGPE6fFNogwoCbtQk97o4mSFRggINiTY3Ku9BHlILIaZdc8SlddTt1twL7nOuSkHaYr3p1MUWmZG1Ph4ZI60Lxkwy2Lp-nWt1PtU1y3a0vYST2NarmhzgCCyMkz-EEqrCOGq4KwA_Ow8yTkK0t2X763-_li4Lfk9gDIRFFMRheCV6UsOwnlK0LyBYmNxB1F4SUIOYgK6KeNJNyUEuklBTr5Q_zg6lYNTrd7TPhq9lV_Hy8oS8Mo9TSubIAKJ8QHU49jEquAtrkAxzbTWpDXuuUdTDt0zBFLpnkmA_H31gKv13VuR9XjEF1MBudnqpsxWhXoToYfQ6PSTpXOhZcJHQdbFEC_5RHPMTCB5WCcTQput5cIOYSimKKZdeDiF35qumvAF2AdI4E550HUSYUVxTGObVD9WinvJZJ2DByI12DyKPxhi7GUulutsYTjCka6jMZUKTrTQXddd0xfxDygABcXYJpa-a6nmJ87B1LboJJfz9rNDftRmRLHXjpZMVyQs4omhkXfgRH3CF5MiDhc0RgIJJxOIBTTTAGryvBai2vcDb-0KBoyeSe5Kc3yzF9cuCt2fFYWMU8KkQjzbKHCe0xQhv7m00?></g></svg>