<svg xmlns="http://www.w3.org/2000/svg" xmlns:xlink="http://www.w3.org/1999/xlink" version="1.1" data-diagram-type="SEQUENCE" style="width:1638px;height:946px;background:#FFFFFF;" width="1638.5417px" height="946.875px" viewBox="0 0 1638 946" zoomAndPan="magnify" preserveAspectRatio="none" contentStyleType="text/css"><?plantuml 1.2026.7beta3?><defs/><g><g class="title" data-source-line="5"><rect x="693.6254" y="20.8333" width="249.3673" height="36.7513" fill="none" style="stroke:#BABDBF;stroke-width:1.0417;" rx="4.1667" ry="4.1667"/><text x="699.8754" y="46.4213" fill="#2FA4E7" font-size="20.8333" lengthAdjust="spacing" textLength="236.8673" font-weight="700" font-family="'Verdana'">Que hace el sistema</text></g><rect x="629.9978" y="368.8151" width="986.8286" height="281.9661" fill="none" style="stroke:#2FA4E7;stroke-width:1.0417;" rx="4.1667" ry="4.1667"/><rect x="1091.98" y="493.6849" width="514.4297" height="91.5365" fill="none" style="stroke:#2FA4E7;stroke-width:1.0417;" rx="4.1667" ry="4.1667"/><g class="participant-lifeline" data-qualified-name="U" data-entity-uid="part1" id="part1-lifeline" data-source-line="7"><g><title>Usuario .admin.</title><rect x="64.7817" y="147.1354" width="8.3333" height="710.7422" fill="#000000" fill-opacity="0.00000"/><line x1="68.75" y1="147.1354" x2="68.75" y2="857.8776" style="stroke:#BABDBF;stroke-width:1.0417;stroke-dasharray:5.2083,5.2083;"/></g></g><g class="participant-lifeline" data-qualified-name="FE" data-entity-uid="part2" id="part2-lifeline" data-source-line="8"><g><title>Frontend React</title><rect x="438.7197" y="147.1354" width="8.3333" height="710.7422" fill="#000000" fill-opacity="0.00000"/><line x1="442.7378" y1="147.1354" x2="442.7378" y2="857.8776" style="stroke:#BABDBF;stroke-width:1.0417;stroke-dasharray:5.2083,5.2083;"/></g></g><g class="participant-lifeline" data-qualified-name="API" data-entity-uid="part3" id="part3-lifeline" data-source-line="9"><g><title>Backend</title><rect x="735.2895" y="147.1354" width="8.3333" height="710.7422" fill="#000000" fill-opacity="0.00000"/><line x1="739.3728" y1="147.1354" x2="739.3728" y2="857.8776" style="stroke:#BABDBF;stroke-width:1.0417;stroke-dasharray:5.2083,5.2083;"/></g></g><g class="participant-lifeline" data-qualified-name="DB" data-entity-uid="part4" id="part4-lifeline" data-source-line="10"><g><title>MongoDB</title><rect x="1054.6193" y="147.1354" width="8.3333" height="710.7422" fill="#000000" fill-opacity="0.00000"/><line x1="1057.8837" y1="147.1354" x2="1057.8837" y2="857.8776" style="stroke:#BABDBF;stroke-width:1.0417;stroke-dasharray:5.2083,5.2083;"/></g></g><g class="participant-lifeline" data-qualified-name="RPi" data-entity-uid="part5" id="part5-lifeline" data-source-line="11"><g><title>Raspberry</title><rect x="1209.8114" y="147.1354" width="8.3333" height="710.7422" fill="#000000" fill-opacity="0.00000"/><line x1="1213.855" y1="147.1354" x2="1213.855" y2="857.8776" style="stroke:#BABDBF;stroke-width:1.0417;stroke-dasharray:5.2083,5.2083;"/></g></g><g class="participant-lifeline" data-qualified-name="HW" data-entity-uid="part6" id="part6-lifeline" data-source-line="12"><g><title>Relay . Cooler</title><rect x="1482.5002" y="147.1354" width="8.3333" height="710.7422" fill="#000000" fill-opacity="0.00000"/><line x1="1485.674" y1="147.1354" x2="1485.674" y2="857.8776" style="stroke:#BABDBF;stroke-width:1.0417;stroke-dasharray:5.2083,5.2083;"/></g></g><g class="participant participant-head" data-qualified-name="U" data-entity-uid="part1" id="part1-head" data-source-line="7"><text x="15.625" y="144.1874" fill="#2FA4E7" font-size="12.5" lengthAdjust="spacing" textLength="100.3967" font-family="'Verdana'">Usuario (admin)</text><ellipse cx="68.9484" cy="78.418" rx="8.3333" ry="8.3333" fill="none" style="stroke:#2FA4E7;stroke-width:1.0417;"/><path d="M68.9484,86.7513 L68.9484,114.8763 M55.4067,95.0846 L82.49,95.0846 M68.9484,114.8763 L55.4067,130.5013 M68.9484,114.8763 L82.49,130.5013" style="stroke:#2FA4E7;stroke-width:1.0417;" fill="none"/></g><g class="participant participant-tail" data-qualified-name="U" data-entity-uid="part1" id="part1-tail" data-source-line="7"><text x="15.625" y="868.4387" fill="#2FA4E7" font-size="12.5" lengthAdjust="spacing" textLength="100.3967" font-family="'Verdana'">Usuario (admin)</text><ellipse cx="68.9484" cy="880.7617" rx="8.3333" ry="8.3333" fill="none" style="stroke:#2FA4E7;stroke-width:1.0417;"/><path d="M68.9484,889.0951 L68.9484,917.2201 M55.4067,897.4284 L82.49,897.4284 M68.9484,917.2201 L55.4067,932.8451 M68.9484,917.2201 L82.49,932.8451" style="stroke:#2FA4E7;stroke-width:1.0417;" fill="none"/></g><g class="participant participant-head" data-qualified-name="FE" data-entity-uid="part2" id="part2-head" data-source-line="8"><rect x="373.9878" y="95.0846" width="137.797" height="45.8008" fill="none" style="stroke:#2FA4E7;stroke-width:1.0417;" rx="4.1667" ry="4.1667"/><text x="394.8212" y="122.3124" fill="#2FA4E7" font-size="12.5" lengthAdjust="spacing" textLength="96.1304" font-family="'Verdana'">Frontend React</text></g><g class="participant participant-tail" data-qualified-name="FE" data-entity-uid="part2" id="part2-tail" data-source-line="8"><rect x="373.9878" y="862.0443" width="137.797" height="45.8008" fill="none" style="stroke:#2FA4E7;stroke-width:1.0417;" rx="4.1667" ry="4.1667"/><text x="394.8212" y="889.2721" fill="#2FA4E7" font-size="12.5" lengthAdjust="spacing" textLength="96.1304" font-family="'Verdana'">Frontend React</text></g><g class="participant participant-head" data-qualified-name="API" data-entity-uid="part3" id="part3-head" data-source-line="9"><rect x="682.0811" y="80.5339" width="114.7502" height="60.3516" fill="none" style="stroke:#2FA4E7;stroke-width:1.0417;" rx="4.1667" ry="4.1667"/><text x="712.5092" y="107.7616" fill="#2FA4E7" font-size="12.5" lengthAdjust="spacing" textLength="53.894" font-family="'Verdana'">Backend</text><text x="702.9144" y="122.3124" fill="#2FA4E7" font-size="12.5" lengthAdjust="spacing" textLength="73.0835" font-family="'Verdana'">Spring Boot</text></g><g class="participant participant-tail" data-qualified-name="API" data-entity-uid="part3" id="part3-tail" data-source-line="9"><rect x="682.0811" y="862.0443" width="114.7502" height="60.3516" fill="none" style="stroke:#2FA4E7;stroke-width:1.0417;" rx="4.1667" ry="4.1667"/><text x="712.5092" y="889.2721" fill="#2FA4E7" font-size="12.5" lengthAdjust="spacing" textLength="53.894" font-family="'Verdana'">Backend</text><text x="702.9144" y="903.8228" fill="#2FA4E7" font-size="12.5" lengthAdjust="spacing" textLength="73.0835" font-family="'Verdana'">Spring Boot</text></g><g class="participant participant-head" data-qualified-name="DB" data-entity-uid="part4" id="part4-head" data-source-line="10"><text x="1025.592" y="144.1874" fill="#2FA4E7" font-size="12.5" lengthAdjust="spacing" textLength="60.1379" font-family="'Verdana'">MongoDB</text><path d="M1040.036,95.0846 C1040.036,84.668 1058.786,84.668 1058.786,84.668 C1058.786,84.668 1077.536,84.668 1077.536,95.0846 L1077.536,122.168 C1077.536,132.5846 1058.786,132.5846 1058.786,132.5846 C1058.786,132.5846 1040.036,132.5846 1040.036,122.168 L1040.036,95.0846" style="stroke:#2FA4E7;stroke-width:1.0417;" fill="none"/><path d="M1040.036,95.0846 C1040.036,105.5013 1058.786,105.5013 1058.786,105.5013 C1058.786,105.5013 1077.536,105.5013 1077.536,95.0846" style="stroke:#2FA4E7;stroke-width:1.0417;" fill="none"/></g><g class="participant participant-tail" data-qualified-name="DB" data-entity-uid="part4" id="part4-tail" data-source-line="10"><text x="1025.592" y="868.4387" fill="#2FA4E7" font-size="12.5" lengthAdjust="spacing" textLength="60.1379" font-family="'Verdana'">MongoDB</text><path d="M1040.036,881.8034 C1040.036,871.3867 1058.786,871.3867 1058.786,871.3867 C1058.786,871.3867 1077.536,871.3867 1077.536,881.8034 L1077.536,908.8867 C1077.536,919.3034 1058.786,919.3034 1058.786,919.3034 C1058.786,919.3034 1040.036,919.3034 1040.036,908.8867 L1040.036,881.8034" style="stroke:#2FA4E7;stroke-width:1.0417;" fill="none"/><path d="M1040.036,881.8034 C1040.036,892.2201 1058.786,892.2201 1058.786,892.2201 C1058.786,892.2201 1077.536,892.2201 1077.536,881.8034" style="stroke:#2FA4E7;stroke-width:1.0417;" fill="none"/></g><g class="participant participant-head" data-qualified-name="RPi" data-entity-uid="part5" id="part5-head" data-source-line="11"><rect x="1144.0633" y="80.5339" width="139.8295" height="60.3516" fill="none" style="stroke:#2FA4E7;stroke-width:1.0417;" rx="4.1667" ry="4.1667"/><text x="1181.9316" y="107.7616" fill="#2FA4E7" font-size="12.5" lengthAdjust="spacing" textLength="64.093" font-family="'Verdana'">Raspberry</text><text x="1164.8966" y="122.3124" fill="#2FA4E7" font-size="12.5" lengthAdjust="spacing" textLength="98.1628" font-family="'Verdana'">(Python + DHT)</text></g><g class="participant participant-tail" data-qualified-name="RPi" data-entity-uid="part5" id="part5-tail" data-source-line="11"><rect x="1144.0633" y="862.0443" width="139.8295" height="60.3516" fill="none" style="stroke:#2FA4E7;stroke-width:1.0417;" rx="4.1667" ry="4.1667"/><text x="1181.9316" y="889.2721" fill="#2FA4E7" font-size="12.5" lengthAdjust="spacing" textLength="64.093" font-family="'Verdana'">Raspberry</text><text x="1164.8966" y="903.8228" fill="#2FA4E7" font-size="12.5" lengthAdjust="spacing" textLength="98.1628" font-family="'Verdana'">(Python + DHT)</text></g><g class="participant participant-head" data-qualified-name="HW" data-entity-uid="part6" id="part6-head" data-source-line="12"><rect x="1419.0074" y="95.0846" width="135.319" height="45.8008" fill="none" style="stroke:#2FA4E7;stroke-width:1.0417;" rx="4.1667" ry="4.1667"/><text x="1439.8407" y="122.3124" fill="#2FA4E7" font-size="12.5" lengthAdjust="spacing" textLength="93.6523" font-family="'Verdana'">Relay + Cooler</text></g><g class="participant participant-tail" data-qualified-name="HW" data-entity-uid="part6" id="part6-tail" data-source-line="12"><rect x="1419.0074" y="862.0443" width="135.319" height="45.8008" fill="none" style="stroke:#2FA4E7;stroke-width:1.0417;" rx="4.1667" ry="4.1667"/><text x="1439.8407" y="889.2721" fill="#2FA4E7" font-size="12.5" lengthAdjust="spacing" textLength="93.6523" font-family="'Verdana'">Relay + Cooler</text></g><rect x="10.4167" y="178.3691" width="1616.8264" height="3.125" fill="#F8F9FA" style="stroke:#F8F9FA;stroke-width:1.0417;" rx="4.1667" ry="4.1667"/><line x1="10.4167" y1="178.3691" x2="1627.243" y2="178.3691" style="stroke:#868E96;stroke-width:1.0417;"/><line x1="10.4167" y1="181.4941" x2="1627.243" y2="181.4941" style="stroke:#868E96;stroke-width:1.0417;"/><rect x="650.5549" y="167.9688" width="336.5499" height="22.8841" fill="#F8F9FA" style="stroke:#868E96;stroke-width:2.0833;" rx="4.1667" ry="4.1667"/><text x="656.8049" y="183.7382" fill="#343A40" font-size="12.5" lengthAdjust="spacing" textLength="317.6147" font-weight="700" font-family="'Verdana'">1) Configuracion de umbrales (con auditoria)</text><g class="message" data-entity-1="part1" data-entity-2="part2" id="msg1" data-source-line="15"><polygon points="430.3864,217.9036,440.803,222.0703,430.3864,226.237,434.553,222.0703" fill="#2FA4E7" style="stroke:#2FA4E7;stroke-width:1.0417;stroke-linejoin:miter;stroke-miterlimit:10;"/><line x1="68.9484" y1="222.0703" x2="436.6364" y2="222.0703" style="stroke:#2FA4E7;stroke-width:3.125;"/><text x="76.24" y="217.039" fill="#343A40" font-size="12.5" lengthAdjust="spacing" textLength="348.938" font-family="'Verdana'">Define tempMin/Max, humMin/Max, histeresis, intervalo</text></g><g class="message" data-entity-1="part2" data-entity-2="part3" id="msg2" data-source-line="16"><polygon points="726.9562,247.0378,737.3728,251.2044,726.9562,255.3711,731.1228,251.2044" fill="#2FA4E7" style="stroke:#2FA4E7;stroke-width:1.0417;stroke-linejoin:miter;stroke-miterlimit:10;"/><line x1="442.8864" y1="251.2044" x2="733.2062" y2="251.2044" style="stroke:#2FA4E7;stroke-width:3.125;"/><text x="450.178" y="246.1731" fill="#343A40" font-size="12.5" lengthAdjust="spacing" textLength="102.6611" font-family="'Verdana'">POST /api/config</text></g><g class="message" data-entity-1="part3" data-entity-2="part4" id="msg3" data-source-line="17"><polygon points="1046.286,276.1719,1056.7027,280.3385,1046.286,284.5052,1050.4527,280.3385" fill="#2FA4E7" style="stroke:#2FA4E7;stroke-width:1.0417;stroke-linejoin:miter;stroke-miterlimit:10;"/><line x1="739.4562" y1="280.3385" x2="1052.536" y2="280.3385" style="stroke:#2FA4E7;stroke-width:3.125;"/><text x="746.7478" y="275.3072" fill="#343A40" font-size="12.5" lengthAdjust="spacing" textLength="294.3298" font-family="'Verdana'">Guarda config activa (quien, email, cuando, IP)</text></g><g class="message" data-entity-1="part3" data-entity-2="part2" id="msg4" data-source-line="18"><polygon points="454.3447,305.306,443.928,309.4727,454.3447,313.6393,450.178,309.4727" fill="#2FA4E7" style="stroke:#2FA4E7;stroke-width:1.0417;stroke-linejoin:miter;stroke-miterlimit:10;"/><line x1="448.0947" y1="309.4727" x2="738.4145" y2="309.4727" style="stroke:#2FA4E7;stroke-width:3.125;stroke-dasharray:2.0833,2.0833;"/><text x="460.5947" y="304.4413" fill="#343A40" font-size="12.5" lengthAdjust="spacing" textLength="77.5757" font-family="'Verdana'">201 Created</text></g><rect x="10.4167" y="338.623" width="1616.8264" height="3.125" fill="#F8F9FA" style="stroke:#F8F9FA;stroke-width:1.0417;" rx="4.1667" ry="4.1667"/><line x1="10.4167" y1="338.623" x2="1627.243" y2="338.623" style="stroke:#868E96;stroke-width:1.0417;"/><line x1="10.4167" y1="341.748" x2="1627.243" y2="341.748" style="stroke:#868E96;stroke-width:1.0417;"/><rect x="684.9116" y="328.2227" width="267.8365" height="22.8841" fill="#F8F9FA" style="stroke:#868E96;stroke-width:2.0833;" rx="4.1667" ry="4.1667"/><text x="691.1616" y="343.9921" fill="#343A40" font-size="12.5" lengthAdjust="spacing" textLength="248.9014" font-weight="700" font-family="'Verdana'">2) Bucle de control en la Raspberry</text><path d="M634.1644,368.8151 L707.2805,368.8151 L707.2805,375.0326 L696.8638,385.4492 L629.9978,385.4492 L629.9978,372.9818 A4.1667,4.1667 0 0 1 634.1644,368.8151" style="stroke:#868E96;stroke-width:1.0417;" fill="#E9ECEF"/><rect x="629.9978" y="368.8151" width="986.8286" height="281.9661" fill="none" style="stroke:#2FA4E7;stroke-width:1.0417;" rx="4.1667" ry="4.1667"/><text x="645.6228" y="381.4596" fill="#033C73" font-size="12.5" lengthAdjust="spacing" textLength="30.4077" font-weight="700" font-family="'Verdana'">loop</text><text x="722.9055" y="382.5012" fill="#343A40" font-size="12.5" lengthAdjust="spacing" textLength="260.1013" font-weight="700" font-family="'Verdana'">[cada measurementIntervalSeconds]</text><g class="message" data-entity-1="part5" data-entity-2="part3" id="msg5" data-source-line="22"><polygon points="750.9145,402.0833,740.4978,406.25,750.9145,410.4167,746.7478,406.25" fill="#2FA4E7" style="stroke:#2FA4E7;stroke-width:1.0417;stroke-linejoin:miter;stroke-miterlimit:10;"/><line x1="744.6645" y1="406.25" x2="1212.9364" y2="406.25" style="stroke:#2FA4E7;stroke-width:3.125;"/><text x="757.1645" y="401.2187" fill="#343A40" font-size="12.5" lengthAdjust="spacing" textLength="134.2834" font-family="'Verdana'">GET /api/config/latest</text></g><g class="message" data-entity-1="part3" data-entity-2="part5" id="msg6" data-source-line="23"><polygon points="1201.4781,431.2174,1211.8947,435.3841,1201.4781,439.5508,1205.6447,435.3841" fill="#2FA4E7" style="stroke:#2FA4E7;stroke-width:1.0417;stroke-linejoin:miter;stroke-miterlimit:10;"/><line x1="739.4562" y1="435.3841" x2="1207.7281" y2="435.3841" style="stroke:#2FA4E7;stroke-width:3.125;stroke-dasharray:2.0833,2.0833;"/><text x="746.7478" y="430.3528" fill="#343A40" font-size="12.5" lengthAdjust="spacing" textLength="211.7065" font-family="'Verdana'">Umbrales + histeresis + intervalo</text></g><g class="message" data-entity-1="part5" data-entity-2="part5" id="msg7" data-source-line="24"><line x1="1213.9781" y1="464.5182" x2="1257.7281" y2="464.5182" style="stroke:#2FA4E7;stroke-width:3.125;"/><line x1="1257.7281" y1="464.5182" x2="1257.7281" y2="478.0599" style="stroke:#2FA4E7;stroke-width:3.125;"/><line x1="1215.0197" y1="478.0599" x2="1257.7281" y2="478.0599" style="stroke:#2FA4E7;stroke-width:3.125;"/><polygon points="1225.4364,473.8932,1215.0197,478.0599,1225.4364,482.2266,1221.2697,478.0599" fill="#2FA4E7" style="stroke:#2FA4E7;stroke-width:1.0417;stroke-linejoin:miter;stroke-miterlimit:10;"/><text x="1221.2697" y="459.4869" fill="#343A40" font-size="12.5" lengthAdjust="spacing" textLength="258.1055" font-family="'Verdana'">Lee sensor DHT (temperatura, humedad)</text></g><path d="M1096.1466,493.6849 L1157.55,493.6849 L1157.55,499.9023 L1147.1334,510.319 L1091.98,510.319 L1091.98,497.8516 A4.1667,4.1667 0 0 1 1096.1466,493.6849" style="stroke:#868E96;stroke-width:1.0417;" fill="#E9ECEF"/><rect x="1091.98" y="493.6849" width="514.4297" height="91.5365" fill="none" style="stroke:#2FA4E7;stroke-width:1.0417;" rx="4.1667" ry="4.1667"/><text x="1107.605" y="506.3293" fill="#033C73" font-size="12.5" lengthAdjust="spacing" textLength="18.6951" font-weight="700" font-family="'Verdana'">alt</text><text x="1173.175" y="507.371" fill="#343A40" font-size="12.5" lengthAdjust="spacing" textLength="271.1426" font-weight="700" font-family="'Verdana'">[supera umbral (aplicando histeresis)]</text><g class="message" data-entity-1="part5" data-entity-2="part6" id="msg8" data-source-line="26"><polygon points="1474.1669,526.9531,1484.5835,531.1198,1474.1669,535.2865,1478.3335,531.1198" fill="#2FA4E7" style="stroke:#2FA4E7;stroke-width:1.0417;stroke-linejoin:miter;stroke-miterlimit:10;"/><line x1="1213.9781" y1="531.1198" x2="1480.4169" y2="531.1198" style="stroke:#2FA4E7;stroke-width:3.125;"/><text x="1221.2697" y="526.0885" fill="#343A40" font-size="12.5" lengthAdjust="spacing" textLength="168.0969" font-family="'Verdana'">Enciende cooler (relay ON)</text></g><line x1="1091.98" y1="540.4948" x2="1606.4097" y2="540.4948" style="stroke:#2FA4E7;stroke-width:1.0417;stroke-dasharray:2.0833,2.0833;"/><text x="1097.1883" y="552.0976" fill="#343A40" font-size="12.5" lengthAdjust="spacing" textLength="125.6409" font-weight="700" font-family="'Verdana'">[dentro de rango]</text><g class="message" data-entity-1="part5" data-entity-2="part6" id="msg9" data-source-line="28"><polygon points="1474.1669,572.7214,1484.5835,576.888,1474.1669,581.0547,1478.3335,576.888" fill="#2FA4E7" style="stroke:#2FA4E7;stroke-width:1.0417;stroke-linejoin:miter;stroke-miterlimit:10;"/><line x1="1213.9781" y1="576.888" x2="1480.4169" y2="576.888" style="stroke:#2FA4E7;stroke-width:3.125;"/><text x="1221.2697" y="571.8567" fill="#343A40" font-size="12.5" lengthAdjust="spacing" textLength="155.4626" font-family="'Verdana'">Apaga cooler (relay OFF)</text></g><g class="message" data-entity-1="part5" data-entity-2="part3" id="msg10" data-source-line="30"><polygon points="750.9145,609.1471,740.4978,613.3138,750.9145,617.4805,746.7478,613.3138" fill="#2FA4E7" style="stroke:#2FA4E7;stroke-width:1.0417;stroke-linejoin:miter;stroke-miterlimit:10;"/><line x1="744.6645" y1="613.3138" x2="1212.9364" y2="613.3138" style="stroke:#2FA4E7;stroke-width:3.125;"/><text x="757.1645" y="608.2825" fill="#343A40" font-size="12.5" lengthAdjust="spacing" textLength="351.3367" font-family="'Verdana'">POST /api/measurements (temp, hum, coolerOn, status)</text></g><g class="message" data-entity-1="part3" data-entity-2="part4" id="msg11" data-source-line="31"><polygon points="1046.286,638.2813,1056.7027,642.4479,1046.286,646.6146,1050.4527,642.4479" fill="#2FA4E7" style="stroke:#2FA4E7;stroke-width:1.0417;stroke-linejoin:miter;stroke-miterlimit:10;"/><line x1="739.4562" y1="642.4479" x2="1052.536" y2="642.4479" style="stroke:#2FA4E7;stroke-width:3.125;"/><text x="746.7478" y="637.4166" fill="#343A40" font-size="12.5" lengthAdjust="spacing" textLength="189.6545" font-family="'Verdana'">Persiste la medicion (historial)</text></g><rect x="10.4167" y="678.89" width="1616.8264" height="3.125" fill="#F8F9FA" style="stroke:#F8F9FA;stroke-width:1.0417;" rx="4.1667" ry="4.1667"/><line x1="10.4167" y1="678.89" x2="1627.243" y2="678.89" style="stroke:#868E96;stroke-width:1.0417;"/><line x1="10.4167" y1="682.015" x2="1627.243" y2="682.015" style="stroke:#868E96;stroke-width:1.0417;"/><rect x="723.5469" y="668.4896" width="190.566" height="22.8841" fill="#F8F9FA" style="stroke:#868E96;stroke-width:2.0833;" rx="4.1667" ry="4.1667"/><text x="729.7969" y="684.259" fill="#343A40" font-size="12.5" lengthAdjust="spacing" textLength="171.6309" font-weight="700" font-family="'Verdana'">3) Monitoreo y auditoria</text><g class="message" data-entity-1="part1" data-entity-2="part2" id="msg12" data-source-line="35"><polygon points="430.3864,718.4245,440.803,722.5911,430.3864,726.7578,434.553,722.5911" fill="#2FA4E7" style="stroke:#2FA4E7;stroke-width:1.0417;stroke-linejoin:miter;stroke-miterlimit:10;"/><line x1="68.9484" y1="722.5911" x2="436.6364" y2="722.5911" style="stroke:#2FA4E7;stroke-width:3.125;"/><text x="76.24" y="717.5598" fill="#343A40" font-size="12.5" lengthAdjust="spacing" textLength="161.9934" font-family="'Verdana'">Abre dashboard / historial</text></g><g class="message" data-entity-1="part2" data-entity-2="part3" id="msg13" data-source-line="36"><polygon points="726.9562,747.5586,737.3728,751.7253,726.9562,755.8919,731.1228,751.7253" fill="#2FA4E7" style="stroke:#2FA4E7;stroke-width:1.0417;stroke-linejoin:miter;stroke-miterlimit:10;"/><line x1="442.8864" y1="751.7253" x2="733.2062" y2="751.7253" style="stroke:#2FA4E7;stroke-width:3.125;"/><text x="450.178" y="746.6939" fill="#343A40" font-size="12.5" lengthAdjust="spacing" textLength="271.5698" font-family="'Verdana'">GET /api/measurements, /api/config/history</text></g><g class="message" data-entity-1="part3" data-entity-2="part4" id="msg14" data-source-line="37"><polygon points="1046.286,776.6927,1056.7027,780.8594,1046.286,785.026,1050.4527,780.8594" fill="#2FA4E7" style="stroke:#2FA4E7;stroke-width:1.0417;stroke-linejoin:miter;stroke-miterlimit:10;"/><line x1="739.4562" y1="780.8594" x2="1052.536" y2="780.8594" style="stroke:#2FA4E7;stroke-width:3.125;"/><text x="746.7478" y="775.828" fill="#343A40" font-size="12.5" lengthAdjust="spacing" textLength="54.7668" font-family="'Verdana'">Consulta</text></g><g class="message" data-entity-1="part3" data-entity-2="part2" id="msg15" data-source-line="38"><polygon points="454.3447,805.8268,443.928,809.9935,454.3447,814.1602,450.178,809.9935" fill="#2FA4E7" style="stroke:#2FA4E7;stroke-width:1.0417;stroke-linejoin:miter;stroke-miterlimit:10;"/><line x1="448.0947" y1="809.9935" x2="738.4145" y2="809.9935" style="stroke:#2FA4E7;stroke-width:3.125;stroke-dasharray:2.0833,2.0833;"/><text x="460.5947" y="804.9622" fill="#343A40" font-size="12.5" lengthAdjust="spacing" textLength="36.3464" font-family="'Verdana'">Datos</text></g><g class="message" data-entity-1="part2" data-entity-2="part1" id="msg16" data-source-line="39"><polygon points="80.4067,834.9609,69.99,839.1276,80.4067,843.2943,76.24,839.1276" fill="#2FA4E7" style="stroke:#2FA4E7;stroke-width:1.0417;stroke-linejoin:miter;stroke-miterlimit:10;"/><line x1="74.1567" y1="839.1276" x2="441.8447" y2="839.1276" style="stroke:#2FA4E7;stroke-width:3.125;stroke-dasharray:2.0833,2.0833;"/><text x="86.6567" y="834.0963" fill="#343A40" font-size="12.5" lengthAdjust="spacing" textLength="208.4412" font-family="'Verdana'">Estado actual, graficos e historial</text></g><?plantuml-src PLJBKXf15DtFLzoGHPWIGs9sLf4g4L6h91ALSkFcCdE1BflkIJzCsEKZyeNvafmUdaDOGVUvZ_DeteM5B8KASL4BcrCRWrP6Cl-gJCMEbpJbudNkR3JbfTNMqVjX_Jb0-0MNzgSoSvgnzf9ze87YEMwOIY4lHHHJAARsP7INqz_VVwYmPgRcqN6XhEdGD1PQ4XRdmLbDArfQeu9rOZzcGGNSVez22ow4H9DNFiYIiumBOAWryP6TijJcSgbCtYBsDCcmN525gjW4QWqTMeifwK5GL2E6Lqr87qI1U36FbKja-jQkWHVZswpam5FsGgsHDNCxwDStWtwpnGFxQYhEhLvCUxmA2sleX0OtJ-kL7iRg22wQLq1SMgl5rPYRvophzUXpZiC3ZP8uSJbrhCLJ6p8Hnp89f3YdNY-RqEbN4A9p6iWC_X7qgKRAT4VygqEBkDn_JzevWOGTKf34lR6s6KhH04JHONp_-4HThbHtRLEMZd4xwEFo6agNl36G8ALwWx4_eXBu24-Kxb0HsPIsGxVZV5sxtUtiqsUwTC91ofhbMKxzO-l5a6RQ2Pd8QMihAXXZby8-EWJMXDlDxe-2oj9dbEJTaxY-Qd3eQWpr0QZjGWbzJfEjfYS7mk37NfbTttN1dQH46u_OmLTg9vt5SO1FjSvISfcZY7KW7zFLnZU4izAgICeSZ4hGtOIRPmoumbD12fCWAHJKTdL8xhybgE1vGQoaLDBCCQBuNuUBYkTyN3uSrlMcF1Pgx_Q1k7vDh6RKsRIwXy4-W6czz64cnkBg5vcCWm2g3cmxaKpvr7cMnYQ_l-GqshvhlF5TX9i9lfWwa6I_c5faZRgqwzI8wSxXmxqx3TFNXQj6WF6iVDI1cyaSSB2-Re-JIR81LE4K0XuPaSQ_sKmLrfFij_a7?></g></svg>