<svg xmlns="http://www.w3.org/2000/svg" xmlns:xlink="http://www.w3.org/1999/xlink" version="1.1" data-diagram-type="SEQUENCE" style="width:1574px;height:906px;background:#FFFFFF;" width="1574px" height="906px" viewBox="0 0 1574 906" zoomAndPan="magnify" preserveAspectRatio="none" contentStyleType="text/css"><?plantuml 1.2026.7beta3?><defs/><g><g class="title" data-source-line="2"><text x="704.001" y="27.9951" fill="#000000" font-size="14" lengthAdjust="spacing" textLength="159.1748" font-weight="700" font-family="sans-serif">Que hace el sistema</text></g><rect x="699.6235" y="338.3906" width="858.5532" height="280" fill="none" style="stroke:#000000;stroke-width:1.5;"/><rect x="1124.3306" y="462.9219" width="423.8462" height="90.2031" fill="none" style="stroke:#000000;stroke-width:1.5;"/><g class="participant-lifeline" data-qualified-name="U" data-entity-uid="part1" id="part1-lifeline" data-source-line="4"><g><title>Usuario .admin.</title><rect x="60.2222" y="118.5938" width="8" height="705.5938" fill="#000000" fill-opacity="0.00000"/><line x1="64" y1="118.5938" x2="64" y2="824.1875" style="stroke:#181818;stroke-width:0.5;stroke-dasharray:5,5;"/></g></g><g class="participant-lifeline" data-qualified-name="FE" data-entity-uid="part2" id="part2-lifeline" data-source-line="5"><g><title>Frontend React</title><rect x="447.1177" y="118.5938" width="8" height="705.5938" fill="#000000" fill-opacity="0.00000"/><line x1="450.2847" y1="118.5938" x2="450.2847" y2="824.1875" style="stroke:#181818;stroke-width:0.5;stroke-dasharray:5,5;"/></g></g><g class="participant-lifeline" data-qualified-name="API" data-entity-uid="part3" id="part3-lifeline" data-source-line="6"><g><title>Backend</title><rect x="753.5503" y="118.5938" width="8" height="705.5938" fill="#000000" fill-opacity="0.00000"/><line x1="756.6235" y1="118.5938" x2="756.6235" y2="824.1875" style="stroke:#181818;stroke-width:0.5;stroke-dasharray:5,5;"/></g></g><g class="participant-lifeline" data-qualified-name="DB" data-entity-uid="part4" id="part4-lifeline" data-source-line="7"><g><title>MongoDB</title><rect x="1083.6533" y="118.5938" width="8" height="705.5938" fill="#000000" fill-opacity="0.00000"/><line x1="1086.9761" y1="118.5938" x2="1086.9761" y2="824.1875" style="stroke:#181818;stroke-width:0.5;stroke-dasharray:5,5;"/></g></g><g class="participant-lifeline" data-qualified-name="RPi" data-entity-uid="part5" id="part5-lifeline" data-source-line="8"><g><title>Raspberry</title><rect x="1192.3018" y="118.5938" width="8" height="705.5938" fill="#000000" fill-opacity="0.00000"/><line x1="1195.3306" y1="118.5938" x2="1195.3306" y2="824.1875" style="stroke:#181818;stroke-width:0.5;stroke-dasharray:5,5;"/></g></g><g class="participant-lifeline" data-qualified-name="HW" data-entity-uid="part6" id="part6-lifeline" data-source-line="9"><g><title>Relay . Cooler</title><rect x="1474.7314" y="118.5938" width="8" height="705.5938" fill="#000000" fill-opacity="0.00000"/><line x1="1478.2861" y1="118.5938" x2="1478.2861" y2="824.1875" style="stroke:#181818;stroke-width:0.5;stroke-dasharray:5,5;"/></g></g><g class="participant participant-head" data-qualified-name="U" data-entity-uid="part1" id="part1-head" data-source-line="4"><text x="5" y="115.292" fill="#000000" font-size="14" lengthAdjust="spacing" textLength="112.4443" font-family="sans-serif">Usuario (admin)</text><ellipse cx="64.2222" cy="50.7969" rx="8" ry="8" fill="#E2E2F0" style="stroke:#181818;stroke-width:0.5;"/><path d="M64.2222,58.7969 L64.2222,85.7969 M51.2222,66.7969 L77.2222,66.7969 M64.2222,85.7969 L51.2222,100.7969 M64.2222,85.7969 L77.2222,100.7969" style="stroke:#181818;stroke-width:0.5;" fill="none"/></g><g class="participant participant-tail" data-qualified-name="U" data-entity-uid="part1" id="part1-tail" data-source-line="4"><text x="5" y="836.1826" fill="#000000" font-size="14" lengthAdjust="spacing" textLength="112.4443" font-family="sans-serif">Usuario (admin)</text><ellipse cx="64.2222" cy="847.9844" rx="8" ry="8" fill="#E2E2F0" style="stroke:#181818;stroke-width:0.5;"/><path d="M64.2222,855.9844 L64.2222,882.9844 M51.2222,863.9844 L77.2222,863.9844 M64.2222,882.9844 L51.2222,897.9844 M64.2222,882.9844 L77.2222,897.9844" style="stroke:#181818;stroke-width:0.5;" fill="none"/></g><g class="participant participant-head" data-qualified-name="FE" data-entity-uid="part2" id="part2-head" data-source-line="5"><rect x="390.2847" y="87.2969" width="121.666" height="30.2969" fill="#E2E2F0" style="stroke:#181818;stroke-width:0.5;" rx="2.5" ry="2.5"/><text x="397.2847" y="107.292" fill="#000000" font-size="14" lengthAdjust="spacing" textLength="107.666" font-family="sans-serif">Frontend React</text></g><g class="participant participant-tail" data-qualified-name="FE" data-entity-uid="part2" id="part2-tail" data-source-line="5"><rect x="390.2847" y="823.1875" width="121.666" height="30.2969" fill="#E2E2F0" style="stroke:#181818;stroke-width:0.5;" rx="2.5" ry="2.5"/><text x="397.2847" y="843.1826" fill="#000000" font-size="14" lengthAdjust="spacing" textLength="107.666" font-family="sans-serif">Frontend React</text></g><g class="participant participant-head" data-qualified-name="API" data-entity-uid="part3" id="part3-head" data-source-line="6"><rect x="709.6235" y="71" width="95.8535" height="46.5938" fill="#E2E2F0" style="stroke:#181818;stroke-width:0.5;" rx="2.5" ry="2.5"/><text x="727.3696" y="90.9951" fill="#000000" font-size="14" lengthAdjust="spacing" textLength="60.3613" font-family="sans-serif">Backend</text><text x="716.6235" y="107.292" fill="#000000" font-size="14" lengthAdjust="spacing" textLength="81.8535" font-family="sans-serif">Spring Boot</text></g><g class="participant participant-tail" data-qualified-name="API" data-entity-uid="part3" id="part3-tail" data-source-line="6"><rect x="709.6235" y="823.1875" width="95.8535" height="46.5938" fill="#E2E2F0" style="stroke:#181818;stroke-width:0.5;" rx="2.5" ry="2.5"/><text x="727.3696" y="843.1826" fill="#000000" font-size="14" lengthAdjust="spacing" textLength="60.3613" font-family="sans-serif">Backend</text><text x="716.6235" y="859.4795" fill="#000000" font-size="14" lengthAdjust="spacing" textLength="81.8535" font-family="sans-serif">Spring Boot</text></g><g class="participant participant-head" data-qualified-name="DB" data-entity-uid="part4" id="part4-head" data-source-line="7"><text x="1050.9761" y="115.292" fill="#000000" font-size="14" lengthAdjust="spacing" textLength="67.3545" font-family="sans-serif">MongoDB</text><path d="M1069.6533,66.2969 C1069.6533,56.2969 1087.6533,56.2969 1087.6533,56.2969 C1087.6533,56.2969 1105.6533,56.2969 1105.6533,66.2969 L1105.6533,92.2969 C1105.6533,102.2969 1087.6533,102.2969 1087.6533,102.2969 C1087.6533,102.2969 1069.6533,102.2969 1069.6533,92.2969 L1069.6533,66.2969" style="stroke:#181818;stroke-width:0.5;" fill="#E2E2F0"/><path d="M1069.6533,66.2969 C1069.6533,76.2969 1087.6533,76.2969 1087.6533,76.2969 C1087.6533,76.2969 1105.6533,76.2969 1105.6533,66.2969" style="stroke:#181818;stroke-width:0.5;" fill="none"/></g><g class="participant participant-tail" data-qualified-name="DB" data-entity-uid="part4" id="part4-tail" data-source-line="7"><text x="1050.9761" y="836.1826" fill="#000000" font-size="14" lengthAdjust="spacing" textLength="67.3545" font-family="sans-serif">MongoDB</text><path d="M1069.6533,849.4844 C1069.6533,839.4844 1087.6533,839.4844 1087.6533,839.4844 C1087.6533,839.4844 1105.6533,839.4844 1105.6533,849.4844 L1105.6533,875.4844 C1105.6533,885.4844 1087.6533,885.4844 1087.6533,885.4844 C1087.6533,885.4844 1069.6533,885.4844 1069.6533,875.4844 L1069.6533,849.4844" style="stroke:#181818;stroke-width:0.5;" fill="#E2E2F0"/><path d="M1069.6533,849.4844 C1069.6533,859.4844 1087.6533,859.4844 1087.6533,859.4844 C1087.6533,859.4844 1105.6533,859.4844 1105.6533,849.4844" style="stroke:#181818;stroke-width:0.5;" fill="none"/></g><g class="participant participant-head" data-qualified-name="RPi" data-entity-uid="part5" id="part5-head" data-source-line="8"><rect x="1134.3306" y="71" width="123.9424" height="46.5938" fill="#E2E2F0" style="stroke:#181818;stroke-width:0.5;" rx="2.5" ry="2.5"/><text x="1160.4097" y="90.9951" fill="#000000" font-size="14" lengthAdjust="spacing" textLength="71.7842" font-family="sans-serif">Raspberry</text><text x="1141.3306" y="107.292" fill="#000000" font-size="14" lengthAdjust="spacing" textLength="109.9424" font-family="sans-serif">(Python + DHT)</text></g><g class="participant participant-tail" data-qualified-name="RPi" data-entity-uid="part5" id="part5-tail" data-source-line="8"><rect x="1134.3306" y="823.1875" width="123.9424" height="46.5938" fill="#E2E2F0" style="stroke:#181818;stroke-width:0.5;" rx="2.5" ry="2.5"/><text x="1160.4097" y="843.1826" fill="#000000" font-size="14" lengthAdjust="spacing" textLength="71.7842" font-family="sans-serif">Raspberry</text><text x="1141.3306" y="859.4795" fill="#000000" font-size="14" lengthAdjust="spacing" textLength="109.9424" font-family="sans-serif">(Python + DHT)</text></g><g class="participant participant-head" data-qualified-name="HW" data-entity-uid="part6" id="part6-head" data-source-line="9"><rect x="1419.2861" y="87.2969" width="118.8906" height="30.2969" fill="#E2E2F0" style="stroke:#181818;stroke-width:0.5;" rx="2.5" ry="2.5"/><text x="1426.2861" y="107.292" fill="#000000" font-size="14" lengthAdjust="spacing" textLength="104.8906" font-family="sans-serif">Relay + Cooler</text></g><g class="participant participant-tail" data-qualified-name="HW" data-entity-uid="part6" id="part6-tail" data-source-line="9"><rect x="1419.2861" y="823.1875" width="118.8906" height="30.2969" fill="#E2E2F0" style="stroke:#181818;stroke-width:0.5;" rx="2.5" ry="2.5"/><text x="1426.2861" y="843.1826" fill="#000000" font-size="14" lengthAdjust="spacing" textLength="104.8906" font-family="sans-serif">Relay + Cooler</text></g><rect x="0" y="149.1602" width="1568.1768" height="3" fill="#EEEEEE" style="stroke:#EEEEEE;stroke-width:1;"/><line x1="0" y1="149.1602" x2="1568.1768" y2="149.1602" style="stroke:#000000;stroke-width:1;"/><line x1="0" y1="152.1602" x2="1568.1768" y2="152.1602" style="stroke:#000000;stroke-width:1;"/><rect x="609.6658" y="138.5938" width="348.8452" height="23.1328" fill="#EEEEEE" style="stroke:#000000;stroke-width:2;"/><text x="615.6658" y="154.6606" fill="#000000" font-size="13" lengthAdjust="spacing" textLength="330.3193" font-weight="700" font-family="sans-serif">1) Configuracion de umbrales (con auditoria)</text><g class="message" data-entity-1="part1" data-entity-2="part2" id="msg1" data-source-line="12"><polygon points="439.1177,188.8594,449.1177,192.8594,439.1177,196.8594,443.1177,192.8594" fill="#181818" style="stroke:#181818;stroke-width:1;stroke-linejoin:miter;stroke-miterlimit:10;"/><line x1="64.2222" y1="192.8594" x2="445.1177" y2="192.8594" style="stroke:#181818;stroke-width:1;"/><text x="71.2222" y="187.7935" fill="#000000" font-size="13" lengthAdjust="spacing" textLength="362.8955" font-family="sans-serif">Define tempMin/Max, humMin/Max, histeresis, intervalo</text></g><g class="message" data-entity-1="part2" data-entity-2="part3" id="msg2" data-source-line="13"><polygon points="745.5503,217.9922,755.5503,221.9922,745.5503,225.9922,749.5503,221.9922" fill="#181818" style="stroke:#181818;stroke-width:1;stroke-linejoin:miter;stroke-miterlimit:10;"/><line x1="451.1177" y1="221.9922" x2="751.5503" y2="221.9922" style="stroke:#181818;stroke-width:1;"/><text x="458.1177" y="216.9263" fill="#000000" font-size="13" lengthAdjust="spacing" textLength="106.7676" font-family="sans-serif">POST /api/config</text></g><g class="message" data-entity-1="part3" data-entity-2="part4" id="msg3" data-source-line="14"><polygon points="1075.6533,247.125,1085.6533,251.125,1075.6533,255.125,1079.6533,251.125" fill="#181818" style="stroke:#181818;stroke-width:1;stroke-linejoin:miter;stroke-miterlimit:10;"/><line x1="757.5503" y1="251.125" x2="1081.6533" y2="251.125" style="stroke:#181818;stroke-width:1;"/><text x="764.5503" y="246.0591" fill="#000000" font-size="13" lengthAdjust="spacing" textLength="306.103" font-family="sans-serif">Guarda config activa (quien, email, cuando, IP)</text></g><g class="message" data-entity-1="part3" data-entity-2="part2" id="msg4" data-source-line="15"><polygon points="462.1177,276.2578,452.1177,280.2578,462.1177,284.2578,458.1177,280.2578" fill="#181818" style="stroke:#181818;stroke-width:1;stroke-linejoin:miter;stroke-miterlimit:10;"/><line x1="456.1177" y1="280.2578" x2="756.5503" y2="280.2578" style="stroke:#181818;stroke-width:1;stroke-dasharray:2,2;"/><text x="468.1177" y="275.1919" fill="#000000" font-size="13" lengthAdjust="spacing" textLength="80.6787" font-family="sans-serif">201 Created</text></g><rect x="0" y="308.8242" width="1568.1768" height="3" fill="#EEEEEE" style="stroke:#EEEEEE;stroke-width:1;"/><line x1="0" y1="308.8242" x2="1568.1768" y2="308.8242" style="stroke:#000000;stroke-width:1;"/><line x1="0" y1="311.8242" x2="1568.1768" y2="311.8242" style="stroke:#000000;stroke-width:1;"/><rect x="645.3967" y="298.2578" width="277.3833" height="23.1328" fill="#EEEEEE" style="stroke:#000000;stroke-width:2;"/><text x="651.3967" y="314.3247" fill="#000000" font-size="13" lengthAdjust="spacing" textLength="258.8574" font-weight="700" font-family="sans-serif">2) Bucle de control en la Raspberry</text><path d="M699.6235,338.3906 L776.2476,338.3906 L776.2476,345.5234 L766.2476,355.5234 L699.6235,355.5234 L699.6235,338.3906" style="stroke:#000000;stroke-width:1.5;" fill="#EEEEEE"/><rect x="699.6235" y="338.3906" width="858.5532" height="280" fill="none" style="stroke:#000000;stroke-width:1.5;"/><text x="714.6235" y="351.4575" fill="#000000" font-size="13" lengthAdjust="spacing" textLength="31.624" font-weight="700" font-family="sans-serif">loop</text><text x="791.2476" y="350.6011" fill="#000000" font-size="11" lengthAdjust="spacing" textLength="228.8892" font-weight="700" font-family="sans-serif">[cada measurementIntervalSeconds]</text><g class="message" data-entity-1="part5" data-entity-2="part3" id="msg5" data-source-line="19"><polygon points="768.5503,372.6563,758.5503,376.6563,768.5503,380.6563,764.5503,376.6563" fill="#181818" style="stroke:#181818;stroke-width:1;stroke-linejoin:miter;stroke-miterlimit:10;"/><line x1="762.5503" y1="376.6563" x2="1195.3018" y2="376.6563" style="stroke:#181818;stroke-width:1;"/><text x="774.5503" y="371.5903" fill="#000000" font-size="13" lengthAdjust="spacing" textLength="139.6548" font-family="sans-serif">GET /api/config/latest</text></g><g class="message" data-entity-1="part3" data-entity-2="part5" id="msg6" data-source-line="20"><polygon points="1184.3018,401.7891,1194.3018,405.7891,1184.3018,409.7891,1188.3018,405.7891" fill="#181818" style="stroke:#181818;stroke-width:1;stroke-linejoin:miter;stroke-miterlimit:10;"/><line x1="757.5503" y1="405.7891" x2="1190.3018" y2="405.7891" style="stroke:#181818;stroke-width:1;stroke-dasharray:2,2;"/><text x="764.5503" y="400.7231" fill="#000000" font-size="13" lengthAdjust="spacing" textLength="220.1748" font-family="sans-serif">Umbrales + histeresis + intervalo</text></g><g class="message" data-entity-1="part5" data-entity-2="part5" id="msg7" data-source-line="21"><line x1="1196.3018" y1="434.9219" x2="1238.3018" y2="434.9219" style="stroke:#181818;stroke-width:1;"/><line x1="1238.3018" y1="434.9219" x2="1238.3018" y2="447.9219" style="stroke:#181818;stroke-width:1;"/><line x1="1197.3018" y1="447.9219" x2="1238.3018" y2="447.9219" style="stroke:#181818;stroke-width:1;"/><polygon points="1207.3018,443.9219,1197.3018,447.9219,1207.3018,451.9219,1203.3018,447.9219" fill="#181818" style="stroke:#181818;stroke-width:1;stroke-linejoin:miter;stroke-miterlimit:10;"/><text x="1203.3018" y="429.856" fill="#000000" font-size="13" lengthAdjust="spacing" textLength="268.4297" font-family="sans-serif">Lee sensor DHT (temperatura, humedad)</text></g><path d="M1124.3306,462.9219 L1188.7734,462.9219 L1188.7734,470.0547 L1178.7734,480.0547 L1124.3306,480.0547 L1124.3306,462.9219" style="stroke:#000000;stroke-width:1.5;" fill="#EEEEEE"/><rect x="1124.3306" y="462.9219" width="423.8462" height="90.2031" fill="none" style="stroke:#000000;stroke-width:1.5;"/><text x="1139.3306" y="475.9888" fill="#000000" font-size="13" lengthAdjust="spacing" textLength="19.4429" font-weight="700" font-family="sans-serif">alt</text><text x="1203.7734" y="475.1323" fill="#000000" font-size="11" lengthAdjust="spacing" textLength="238.6055" font-weight="700" font-family="sans-serif">[supera umbral (aplicando histeresis)]</text><g class="message" data-entity-1="part5" data-entity-2="part6" id="msg8" data-source-line="23"><polygon points="1466.7314,497.1875,1476.7314,501.1875,1466.7314,505.1875,1470.7314,501.1875" fill="#181818" style="stroke:#181818;stroke-width:1;stroke-linejoin:miter;stroke-miterlimit:10;"/><line x1="1196.3018" y1="501.1875" x2="1472.7314" y2="501.1875" style="stroke:#181818;stroke-width:1;"/><text x="1203.3018" y="496.1216" fill="#000000" font-size="13" lengthAdjust="spacing" textLength="174.8208" font-family="sans-serif">Enciende cooler (relay ON)</text></g><line x1="1124.3306" y1="510.1875" x2="1548.1768" y2="510.1875" style="stroke:#000000;stroke-width:1;stroke-dasharray:2,2;"/><text x="1129.3306" y="520.3979" fill="#000000" font-size="11" lengthAdjust="spacing" textLength="110.564" font-weight="700" font-family="sans-serif">[dentro de rango]</text><g class="message" data-entity-1="part5" data-entity-2="part6" id="msg9" data-source-line="25"><polygon points="1466.7314,541.125,1476.7314,545.125,1466.7314,549.125,1470.7314,545.125" fill="#181818" style="stroke:#181818;stroke-width:1;stroke-linejoin:miter;stroke-miterlimit:10;"/><line x1="1196.3018" y1="545.125" x2="1472.7314" y2="545.125" style="stroke:#181818;stroke-width:1;"/><text x="1203.3018" y="540.0591" fill="#000000" font-size="13" lengthAdjust="spacing" textLength="161.6812" font-family="sans-serif">Apaga cooler (relay OFF)</text></g><g class="message" data-entity-1="part5" data-entity-2="part3" id="msg10" data-source-line="27"><polygon points="768.5503,577.2578,758.5503,581.2578,768.5503,585.2578,764.5503,581.2578" fill="#181818" style="stroke:#181818;stroke-width:1;stroke-linejoin:miter;stroke-miterlimit:10;"/><line x1="762.5503" y1="581.2578" x2="1195.3018" y2="581.2578" style="stroke:#181818;stroke-width:1;"/><text x="774.5503" y="576.1919" fill="#000000" font-size="13" lengthAdjust="spacing" textLength="365.3901" font-family="sans-serif">POST /api/measurements (temp, hum, coolerOn, status)</text></g><g class="message" data-entity-1="part3" data-entity-2="part4" id="msg11" data-source-line="28"><polygon points="1075.6533,606.3906,1085.6533,610.3906,1075.6533,614.3906,1079.6533,610.3906" fill="#181818" style="stroke:#181818;stroke-width:1;stroke-linejoin:miter;stroke-miterlimit:10;"/><line x1="757.5503" y1="610.3906" x2="1081.6533" y2="610.3906" style="stroke:#181818;stroke-width:1;"/><text x="764.5503" y="605.3247" fill="#000000" font-size="13" lengthAdjust="spacing" textLength="197.2407" font-family="sans-serif">Persiste la medicion (historial)</text></g><rect x="0" y="645.957" width="1568.1768" height="3" fill="#EEEEEE" style="stroke:#EEEEEE;stroke-width:1;"/><line x1="0" y1="645.957" x2="1568.1768" y2="645.957" style="stroke:#000000;stroke-width:1;"/><line x1="0" y1="648.957" x2="1568.1768" y2="648.957" style="stroke:#000000;stroke-width:1;"/><rect x="685.5774" y="635.3906" width="197.022" height="23.1328" fill="#EEEEEE" style="stroke:#000000;stroke-width:2;"/><text x="691.5774" y="651.4575" fill="#000000" font-size="13" lengthAdjust="spacing" textLength="178.4961" font-weight="700" font-family="sans-serif">3) Monitoreo y auditoria</text><g class="message" data-entity-1="part1" data-entity-2="part2" id="msg12" data-source-line="32"><polygon points="439.1177,685.6563,449.1177,689.6563,439.1177,693.6563,443.1177,689.6563" fill="#181818" style="stroke:#181818;stroke-width:1;stroke-linejoin:miter;stroke-miterlimit:10;"/><line x1="64.2222" y1="689.6563" x2="445.1177" y2="689.6563" style="stroke:#181818;stroke-width:1;"/><text x="71.2222" y="684.5903" fill="#000000" font-size="13" lengthAdjust="spacing" textLength="168.4731" font-family="sans-serif">Abre dashboard / historial</text></g><g class="message" data-entity-1="part2" data-entity-2="part3" id="msg13" data-source-line="33"><polygon points="745.5503,714.7891,755.5503,718.7891,745.5503,722.7891,749.5503,718.7891" fill="#181818" style="stroke:#181818;stroke-width:1;stroke-linejoin:miter;stroke-miterlimit:10;"/><line x1="451.1177" y1="718.7891" x2="751.5503" y2="718.7891" style="stroke:#181818;stroke-width:1;"/><text x="458.1177" y="713.7231" fill="#000000" font-size="13" lengthAdjust="spacing" textLength="282.4326" font-family="sans-serif">GET /api/measurements, /api/config/history</text></g><g class="message" data-entity-1="part3" data-entity-2="part4" id="msg14" data-source-line="34"><polygon points="1075.6533,743.9219,1085.6533,747.9219,1075.6533,751.9219,1079.6533,747.9219" fill="#181818" style="stroke:#181818;stroke-width:1;stroke-linejoin:miter;stroke-miterlimit:10;"/><line x1="757.5503" y1="747.9219" x2="1081.6533" y2="747.9219" style="stroke:#181818;stroke-width:1;"/><text x="764.5503" y="742.856" fill="#000000" font-size="13" lengthAdjust="spacing" textLength="56.9575" font-family="sans-serif">Consulta</text></g><g class="message" data-entity-1="part3" data-entity-2="part2" id="msg15" data-source-line="35"><polygon points="462.1177,773.0547,452.1177,777.0547,462.1177,781.0547,458.1177,777.0547" fill="#181818" style="stroke:#181818;stroke-width:1;stroke-linejoin:miter;stroke-miterlimit:10;"/><line x1="456.1177" y1="777.0547" x2="756.5503" y2="777.0547" style="stroke:#181818;stroke-width:1;stroke-dasharray:2,2;"/><text x="468.1177" y="771.9888" fill="#000000" font-size="13" lengthAdjust="spacing" textLength="37.8003" font-family="sans-serif">Datos</text></g><g class="message" data-entity-1="part2" data-entity-2="part1" id="msg16" data-source-line="36"><polygon points="75.2222,802.1875,65.2222,806.1875,75.2222,810.1875,71.2222,806.1875" fill="#181818" style="stroke:#181818;stroke-width:1;stroke-linejoin:miter;stroke-miterlimit:10;"/><line x1="69.2222" y1="806.1875" x2="450.1177" y2="806.1875" style="stroke:#181818;stroke-width:1;stroke-dasharray:2,2;"/><text x="81.2222" y="801.1216" fill="#000000" font-size="13" lengthAdjust="spacing" textLength="216.7788" font-family="sans-serif">Estado actual, graficos e historial</text></g><?plantuml-src PLJ9Rjim4BthAmQ-L4BKkabl0LmWZkB4G5oxJeHSSXbJ4vieHQfSWlhMZ-WNzaiwbBp9lLdac-Kjz0Se9AujrWWLWICHI0k9a9Qpnmp-_lu3mkWtkGuMXJGwXrKGYYAMpxqr2hPG6osziMG-9LvwllqU23Oe24Y1ayvJZKc2WZ4mA5r0AmsaMDLIPmD01sNIeFLIo0QrXy74SclI5Io9Yrh4vAuF6QFumOXN_THOgTSmDgO3tYocIOKUL-W81ZEZrwOOjpV5kDzYYQvPaRNRLvqkjdvZD5n0yV3ShRHSo3CuATmoujOOHRR5FBmaoMW4bnaVdcWKnGdrog8Y1odB11YgA93434QZf8IFNvaGN4D1Rr8Ji3xDJEhX37_bi0dryNVKpX9Bc8DaIUmxAfDmAJTWejnXCNzwXY4sSjZPbCHZlYt6V7dFIbUuCn1OIldEnluCajX7zaIg74H0NPaSfekigztlTlNv4cujeQUgPNcLmVZSUjAW40v2HdBAc0O4yjYQq0LBDMa_tUt-H5nPkGIYl4SIztSz3aF5Gvrdr7wXYBw6Sg_fnOam_75Kvj2tAtYac6ZjE7RiAwHHPxBesQTMPwgmohW8bGSNujNEDmvdewI8ofoCYj33X8SN7d37JuLJ60M9eO3KjY6PVujGKYwA5PMAcbdaAFxNuQR1DPwNJoPjlQxEXJgwVIAkwuYrZF9TgpaRx3mpRPS-pSI2RFiYet4iW6m3cqQICPygI-BOwFUN36RxTyrl_13XVe9lLfP9ejki36SDXd3er8lfmU7JlVEUwLtXjXTWVbOkA8_zP1ReZMlRyqaPRM2gx1G7F217cl_DtgGm3kYupJy0?></g></svg>