<svg xmlns="http://www.w3.org/2000/svg" xmlns:xlink="http://www.w3.org/1999/xlink" version="1.1" data-diagram-type="SEQUENCE" style="width:1920px;height:1054px;background:#FFFFFF;" width="1920px" height="1054px" viewBox="0 0 1920 1054" zoomAndPan="magnify" preserveAspectRatio="none" contentStyleType="text/css"><?plantuml 1.2026.7beta8?><defs/><g font-family="sans-serif" lengthAdjust="spacing"><g class="title" data-source-line="5"><text x="834.083" y="35.421" fill="#000" font-size="22" textLength="250.132" font-weight="700" font-family="Verdana">Que hace el sistema</text></g><rect x="746.55" y="348.703" width="1111.301" height="404.992" fill="#FFF" style="stroke:#FFF;stroke-width:1;"/><g><title>Usuario .admin.</title><rect x="65.722" y="133.906" width="8" height="832.586" fill="#000" fill-opacity="0"/><line x1="69.222" y1="133.906" x2="69.222" y2="966.492" style="stroke:#000;stroke-width:1;stroke-dasharray:5,5;"/></g><g><title>Frontend React</title><rect x="452.618" y="133.906" width="8" height="832.586" fill="#000" fill-opacity="0"/><line x1="456.118" y1="133.906" x2="456.118" y2="966.492" style="stroke:#000;stroke-width:1;stroke-dasharray:5,5;"/></g><g><title>Backend</title><rect x="759.05" y="133.906" width="8" height="832.586" fill="#000" fill-opacity="0"/><line x1="762.55" y1="133.906" x2="762.55" y2="966.492" style="stroke:#000;stroke-width:1;stroke-dasharray:5,5;"/></g><g><title>MongoDB</title><rect x="1089.153" y="133.906" width="8" height="832.586" fill="#000" fill-opacity="0"/><line x1="1092.653" y1="133.906" x2="1092.653" y2="966.492" style="stroke:#000;stroke-width:1;stroke-dasharray:5,5;"/></g><g><title>Gateway Python</title><rect x="1208.242" y="133.906" width="8" height="832.586" fill="#000" fill-opacity="0"/><line x1="1211.742" y1="133.906" x2="1211.742" y2="966.492" style="stroke:#000;stroke-width:1;stroke-dasharray:5,5;"/></g><g><title>OpenPLC</title><rect x="1592.389" y="133.906" width="8" height="832.586" fill="#000" fill-opacity="0"/><line x1="1595.889" y1="133.906" x2="1595.889" y2="966.492" style="stroke:#000;stroke-width:1;stroke-dasharray:5,5;"/></g><g><title>Relay . Cooler</title><rect x="1838.352" y="133.906" width="8" height="832.586" fill="#000" fill-opacity="0"/><line x1="1841.852" y1="133.906" x2="1841.852" y2="966.492" style="stroke:#000;stroke-width:1;stroke-dasharray:5,5;"/></g><text x="10" y="130.604" fill="#000" font-size="14" textLength="112.444" font-family="Verdana">Usuario (admin)</text><ellipse cx="69.222" cy="65.609" rx="8" ry="8" fill="#FFF" style="stroke:#000;stroke-width:1;"/><path d="M69.222,73.609 L69.222,100.609 M56.222,81.609 L82.222,81.609 M69.222,100.609 L56.222,115.609 M69.222,100.609 L82.222,115.609" style="stroke:#000;stroke-width:1;" fill="none"/><rect x="397.285" y="101.609" width="117.666" height="26.297" fill="#FFF" style="stroke:#000;stroke-width:1;" rx="2.5" ry="2.5"/><text x="402.285" y="119.604" fill="#000" font-size="14" textLength="107.666" font-family="Verdana">Frontend React</text><rect x="716.624" y="85.313" width="91.854" height="42.594" fill="#FFF" style="stroke:#000;stroke-width:1;" rx="2.5" ry="2.5"/><text x="732.37" y="103.308" fill="#000" font-size="14" textLength="60.361" font-family="Verdana">Backend</text><text x="721.624" y="119.604" fill="#000" font-size="14" textLength="81.854" font-family="Verdana">Spring Boot</text><text x="1055.976" y="130.604" fill="#000" font-size="14" textLength="67.354" font-family="Verdana">MongoDB</text><path d="M1074.653,81.609 C1074.653,71.609 1092.653,71.609 1092.653,71.609 C1092.653,71.609 1110.653,71.609 1110.653,81.609 L1110.653,107.609 C1110.653,117.609 1092.653,117.609 1092.653,117.609 C1092.653,117.609 1074.653,117.609 1074.653,107.609 L1074.653,81.609" style="stroke:#000;stroke-width:1;" fill="#FFF"/><path d="M1074.653,81.609 C1074.653,91.609 1092.653,91.609 1092.653,91.609 C1092.653,91.609 1110.653,91.609 1110.653,81.609" style="stroke:#000;stroke-width:1;" fill="none"/><rect x="1149.331" y="85.313" width="124.823" height="42.594" fill="#FFF" style="stroke:#000;stroke-width:1;" rx="2.5" ry="2.5"/><text x="1154.331" y="103.308" fill="#000" font-size="14" textLength="114.823" font-family="Verdana">Gateway Python</text><text x="1161.997" y="119.604" fill="#000" font-size="14" textLength="99.49" font-family="Verdana">(Raspberry Pi)</text><rect x="1540.16" y="85.313" width="111.459" height="42.594" fill="#FFF" style="stroke:#000;stroke-width:1;" rx="2.5" ry="2.5"/><text x="1564.184" y="103.308" fill="#000" font-size="14" textLength="63.41" font-family="Verdana">OpenPLC</text><text x="1545.16" y="119.604" fill="#000" font-size="14" textLength="101.459" font-family="Verdana">(programa ST)</text><rect x="1784.406" y="85.313" width="114.891" height="42.594" fill="#FFF" style="stroke:#000;stroke-width:1;" rx="2.5" ry="2.5"/><text x="1789.406" y="103.308" fill="#000" font-size="14" textLength="104.891" font-family="Verdana">Relay + Cooler</text><text x="1810.263" y="119.604" fill="#000" font-size="14" textLength="63.178" font-family="Verdana">(GPIO14)</text><text x="10" y="979.487" fill="#000" font-size="14" textLength="112.444" font-family="Verdana">Usuario (admin)</text><ellipse cx="69.222" cy="991.789" rx="8" ry="8" fill="#FFF" style="stroke:#000;stroke-width:1;"/><path d="M69.222,999.789 L69.222,1026.789 M56.222,1007.789 L82.222,1007.789 M69.222,1026.789 L56.222,1041.789 M69.222,1026.789 L82.222,1041.789" style="stroke:#000;stroke-width:1;" fill="none"/><rect x="397.285" y="971.492" width="117.666" height="26.297" fill="#FFF" style="stroke:#000;stroke-width:1;" rx="2.5" ry="2.5"/><text x="402.285" y="989.487" fill="#000" font-size="14" textLength="107.666" font-family="Verdana">Frontend React</text><rect x="716.624" y="971.492" width="91.854" height="42.594" fill="#FFF" style="stroke:#000;stroke-width:1;" rx="2.5" ry="2.5"/><text x="732.37" y="989.487" fill="#000" font-size="14" textLength="60.361" font-family="Verdana">Backend</text><text x="721.624" y="1005.784" fill="#000" font-size="14" textLength="81.854" font-family="Verdana">Spring Boot</text><text x="1055.976" y="979.487" fill="#000" font-size="14" textLength="67.354" font-family="Verdana">MongoDB</text><path d="M1074.653,992.789 C1074.653,982.789 1092.653,982.789 1092.653,982.789 C1092.653,982.789 1110.653,982.789 1110.653,992.789 L1110.653,1018.789 C1110.653,1028.789 1092.653,1028.789 1092.653,1028.789 C1092.653,1028.789 1074.653,1028.789 1074.653,1018.789 L1074.653,992.789" style="stroke:#000;stroke-width:1;" fill="#FFF"/><path d="M1074.653,992.789 C1074.653,1002.789 1092.653,1002.789 1092.653,1002.789 C1092.653,1002.789 1110.653,1002.789 1110.653,992.789" style="stroke:#000;stroke-width:1;" fill="none"/><rect x="1149.331" y="971.492" width="124.823" height="42.594" fill="#FFF" style="stroke:#000;stroke-width:1;" rx="2.5" ry="2.5"/><text x="1154.331" y="989.487" fill="#000" font-size="14" textLength="114.823" font-family="Verdana">Gateway Python</text><text x="1161.997" y="1005.784" fill="#000" font-size="14" textLength="99.49" font-family="Verdana">(Raspberry Pi)</text><rect x="1540.16" y="971.492" width="111.459" height="42.594" fill="#FFF" style="stroke:#000;stroke-width:1;" rx="2.5" ry="2.5"/><text x="1564.184" y="989.487" fill="#000" font-size="14" textLength="63.41" font-family="Verdana">OpenPLC</text><text x="1545.16" y="1005.784" fill="#000" font-size="14" textLength="101.459" font-family="Verdana">(programa ST)</text><rect x="1784.406" y="971.492" width="114.891" height="42.594" fill="#FFF" style="stroke:#000;stroke-width:1;" rx="2.5" ry="2.5"/><text x="1789.406" y="989.487" fill="#000" font-size="14" textLength="104.891" font-family="Verdana">Relay + Cooler</text><text x="1810.263" y="1005.784" fill="#000" font-size="14" textLength="63.178" font-family="Verdana">(GPIO14)</text><rect x="10" y="162.473" width="1899.297" height="3" fill="#FFF" style="stroke:#FFF;stroke-width:1;"/><line x1="10" y1="162.473" x2="1909.297" y2="162.473" style="stroke:#000;stroke-width:0.5;"/><line x1="10" y1="165.473" x2="1909.297" y2="165.473" style="stroke:#000;stroke-width:0.5;"/><rect x="785.226" y="151.906" width="348.845" height="23.133" fill="#FFF" style="stroke:#000;stroke-width:1;"/><text x="791.226" y="167.973" fill="#000" font-size="13" textLength="330.319" font-weight="700" font-family="Verdana">1) Configuracion de umbrales (con auditoria)</text><polygon points="444.118,202.172,454.118,206.172,444.118,210.172,448.118,206.172" fill="#000" style="stroke:#000;stroke-width:1;stroke-linejoin:miter;stroke-miterlimit:10;"/><line x1="69.222" y1="206.172" x2="450.118" y2="206.172" style="stroke:#000;stroke-width:1;"/><text x="76.222" y="201.106" fill="#000" font-size="13" textLength="362.896" font-family="Verdana">Define tempMin/Max, humMin/Max, histeresis, intervalo</text><polygon points="750.55,231.305,760.55,235.305,750.55,239.305,754.55,235.305" fill="#000" style="stroke:#000;stroke-width:1;stroke-linejoin:miter;stroke-miterlimit:10;"/><line x1="456.118" y1="235.305" x2="756.55" y2="235.305" style="stroke:#000;stroke-width:1;"/><text x="463.118" y="230.239" fill="#000" font-size="13" textLength="106.768" font-family="Verdana">POST /api/config</text><polygon points="1080.653,260.438,1090.653,264.438,1080.653,268.438,1084.653,264.438" fill="#000" style="stroke:#000;stroke-width:1;stroke-linejoin:miter;stroke-miterlimit:10;"/><line x1="762.55" y1="264.438" x2="1086.653" y2="264.438" style="stroke:#000;stroke-width:1;"/><text x="769.55" y="259.372" fill="#000" font-size="13" textLength="306.103" font-family="Verdana">Guarda config activa (quien, email, cuando, IP)</text><polygon points="467.118,289.57,457.118,293.57,467.118,297.57,463.118,293.57" fill="#000" style="stroke:#000;stroke-width:1;stroke-linejoin:miter;stroke-miterlimit:10;"/><line x1="461.118" y1="293.57" x2="761.55" y2="293.57" style="stroke:#000;stroke-width:1;stroke-dasharray:2,2;"/><text x="473.118" y="288.504" fill="#000" font-size="13" textLength="80.679" font-family="Verdana">201 Created</text><rect x="10" y="322.137" width="1899.297" height="3" fill="#FFF" style="stroke:#FFF;stroke-width:1;"/><line x1="10" y1="322.137" x2="1909.297" y2="322.137" style="stroke:#000;stroke-width:0.5;"/><line x1="10" y1="325.137" x2="1909.297" y2="325.137" style="stroke:#000;stroke-width:0.5;"/><rect x="773.073" y="311.57" width="373.15" height="23.133" fill="#FFF" style="stroke:#000;stroke-width:1;"/><text x="779.073" y="327.637" fill="#000" font-size="13" textLength="354.625" font-weight="700" font-family="Verdana">2) Lazo de control (la decision vive en OpenPLC)</text><path d="M746.55,348.703 L823.174,348.703 L823.174,355.836 L813.174,365.836 L746.55,365.836 L746.55,348.703" style="stroke:#000;stroke-width:1;" fill="#FFF"/><rect x="746.55" y="348.703" width="1111.301" height="404.992" fill="none" style="stroke:#000;stroke-width:1;"/><text x="761.55" y="361.77" fill="#000" font-size="13" textLength="31.624" font-weight="700" font-family="Verdana">loop</text><text x="838.174" y="360.914" fill="#000" font-size="11" textLength="287.697" font-weight="700" font-family="Verdana">[cada measurementIntervalSeconds (min 4 s)]</text><line x1="1211.742" y1="396.969" x2="1253.742" y2="396.969" style="stroke:#000;stroke-width:1;"/><line x1="1253.742" y1="396.969" x2="1253.742" y2="409.969" style="stroke:#000;stroke-width:1;"/><line x1="1212.742" y1="409.969" x2="1253.742" y2="409.969" style="stroke:#000;stroke-width:1;"/><polygon points="1222.742,405.969,1212.742,409.969,1222.742,413.969,1218.742,409.969" fill="#000" style="stroke:#000;stroke-width:1;stroke-linejoin:miter;stroke-miterlimit:10;"/><text x="1218.742" y="391.903" fill="#000" font-size="13" textLength="221.578" font-family="Verdana">Lee sensor DHT22 (pigpio, GPIO4)</text><polygon points="773.55,435.102,763.55,439.102,773.55,443.102,769.55,439.102" fill="#000" style="stroke:#000;stroke-width:1;stroke-linejoin:miter;stroke-miterlimit:10;"/><line x1="767.55" y1="439.102" x2="1210.742" y2="439.102" style="stroke:#000;stroke-width:1;"/><text x="779.55" y="434.036" fill="#000" font-size="13" textLength="139.655" font-family="Verdana">GET /api/config/latest</text><polygon points="1199.742,464.234,1209.742,468.234,1199.742,472.234,1203.742,468.234" fill="#000" style="stroke:#000;stroke-width:1;stroke-linejoin:miter;stroke-miterlimit:10;"/><line x1="762.55" y1="468.234" x2="1205.742" y2="468.234" style="stroke:#000;stroke-width:1;stroke-dasharray:2,2;"/><text x="769.55" y="463.168" fill="#000" font-size="13" textLength="220.175" font-family="Verdana">Umbrales + histeresis + intervalo</text><polygon points="1583.889,508.5,1593.889,512.5,1583.889,516.5,1587.889,512.5" fill="#000" style="stroke:#000;stroke-width:1;stroke-linejoin:miter;stroke-miterlimit:10;"/><line x1="1211.742" y1="512.5" x2="1589.889" y2="512.5" style="stroke:#000;stroke-width:1;"/><text x="1218.742" y="492.301" fill="#000" font-size="13" textLength="201.868" font-family="Verdana">Modbus TCP: escribe HR0..HR5</text><text x="1218.742" y="507.434" fill="#000" font-size="13" textLength="360.147" font-family="Verdana">(temp, hum, umbralOFF, umbralON, humMin, humMax)</text><line x1="1595.889" y1="556.766" x2="1637.889" y2="556.766" style="stroke:#000;stroke-width:1;"/><line x1="1637.889" y1="556.766" x2="1637.889" y2="569.766" style="stroke:#000;stroke-width:1;"/><line x1="1596.889" y1="569.766" x2="1637.889" y2="569.766" style="stroke:#000;stroke-width:1;"/><polygon points="1606.889,565.766,1596.889,569.766,1606.889,573.766,1602.889,569.766" fill="#000" style="stroke:#000;stroke-width:1;stroke-linejoin:miter;stroke-miterlimit:10;"/><text x="1602.889" y="536.567" fill="#000" font-size="13" textLength="231.962" font-family="Verdana">Histeresis + anti-ciclado (TON 15 s)</text><text x="1602.889" y="551.7" fill="#000" font-size="13" textLength="176.833" font-family="Verdana">+ fail-safe (banda invalida)</text><polygon points="1583.889,610.031,1593.889,614.031,1583.889,618.031,1587.889,614.031" fill="#000" style="stroke:#000;stroke-width:1;stroke-linejoin:miter;stroke-miterlimit:10;"/><line x1="1211.742" y1="614.031" x2="1589.889" y2="614.031" style="stroke:#000;stroke-width:1;"/><text x="1218.742" y="593.833" fill="#000" font-size="13" textLength="200.941" font-family="Verdana">Modbus TCP: lee coil 0 (cooler)</text><text x="1218.742" y="608.965" fill="#000" font-size="13" textLength="179.366" font-family="Verdana">y HR10 (palabra de estado)</text><polygon points="1222.742,639.164,1212.742,643.164,1222.742,647.164,1218.742,643.164" fill="#000" style="stroke:#000;stroke-width:1;stroke-linejoin:miter;stroke-miterlimit:10;"/><line x1="1216.742" y1="643.164" x2="1594.889" y2="643.164" style="stroke:#000;stroke-width:1;stroke-dasharray:2,2;"/><text x="1228.742" y="638.098" fill="#000" font-size="13" textLength="158.336" font-family="Verdana">Decision del controlador</text><polygon points="1829.852,683.43,1839.852,687.43,1829.852,691.43,1833.852,687.43" fill="#000" style="stroke:#000;stroke-width:1;stroke-linejoin:miter;stroke-miterlimit:10;"/><line x1="1211.742" y1="687.43" x2="1835.852" y2="687.43" style="stroke:#000;stroke-width:1;"/><text x="1218.742" y="667.231" fill="#000" font-size="13" textLength="173.539" font-family="Verdana">Acciona relay segun el coil</text><text x="1218.742" y="682.364" fill="#000" font-size="13" textLength="135.719" font-family="Verdana">(GPIO14, activo-alto)</text><polygon points="773.55,712.563,763.55,716.563,773.55,720.563,769.55,716.563" fill="#000" style="stroke:#000;stroke-width:1;stroke-linejoin:miter;stroke-miterlimit:10;"/><line x1="767.55" y1="716.563" x2="1210.742" y2="716.563" style="stroke:#000;stroke-width:1;"/><text x="779.55" y="711.497" fill="#000" font-size="13" textLength="365.39" font-family="Verdana">POST /api/measurements (temp, hum, coolerOn, status)</text><polygon points="1080.653,741.695,1090.653,745.695,1080.653,749.695,1084.653,745.695" fill="#000" style="stroke:#000;stroke-width:1;stroke-linejoin:miter;stroke-miterlimit:10;"/><line x1="762.55" y1="745.695" x2="1086.653" y2="745.695" style="stroke:#000;stroke-width:1;"/><text x="769.55" y="740.629" fill="#000" font-size="13" textLength="197.241" font-family="Verdana">Persiste la medicion (historial)</text><rect x="10" y="788.262" width="1899.297" height="3" fill="#FFF" style="stroke:#FFF;stroke-width:1;"/><line x1="10" y1="788.262" x2="1909.297" y2="788.262" style="stroke:#000;stroke-width:0.5;"/><line x1="10" y1="791.262" x2="1909.297" y2="791.262" style="stroke:#000;stroke-width:0.5;"/><rect x="861.137" y="777.695" width="197.022" height="23.133" fill="#FFF" style="stroke:#000;stroke-width:1;"/><text x="867.137" y="793.762" fill="#000" font-size="13" textLength="178.496" font-weight="700" font-family="Verdana">3) Monitoreo y auditoria</text><polygon points="444.118,827.961,454.118,831.961,444.118,835.961,448.118,831.961" fill="#000" style="stroke:#000;stroke-width:1;stroke-linejoin:miter;stroke-miterlimit:10;"/><line x1="69.222" y1="831.961" x2="450.118" y2="831.961" style="stroke:#000;stroke-width:1;"/><text x="76.222" y="826.895" fill="#000" font-size="13" textLength="168.473" font-family="Verdana">Abre dashboard / historial</text><polygon points="750.55,857.094,760.55,861.094,750.55,865.094,754.55,861.094" fill="#000" style="stroke:#000;stroke-width:1;stroke-linejoin:miter;stroke-miterlimit:10;"/><line x1="456.118" y1="861.094" x2="756.55" y2="861.094" style="stroke:#000;stroke-width:1;"/><text x="463.118" y="856.028" fill="#000" font-size="13" textLength="282.433" font-family="Verdana">GET /api/measurements, /api/config/history</text><polygon points="1080.653,886.227,1090.653,890.227,1080.653,894.227,1084.653,890.227" fill="#000" style="stroke:#000;stroke-width:1;stroke-linejoin:miter;stroke-miterlimit:10;"/><line x1="762.55" y1="890.227" x2="1086.653" y2="890.227" style="stroke:#000;stroke-width:1;"/><text x="769.55" y="885.161" fill="#000" font-size="13" textLength="56.958" font-family="Verdana">Consulta</text><polygon points="467.118,915.359,457.118,919.359,467.118,923.359,463.118,919.359" fill="#000" style="stroke:#000;stroke-width:1;stroke-linejoin:miter;stroke-miterlimit:10;"/><line x1="461.118" y1="919.359" x2="761.55" y2="919.359" style="stroke:#000;stroke-width:1;stroke-dasharray:2,2;"/><text x="473.118" y="914.293" fill="#000" font-size="13" textLength="37.8" font-family="Verdana">Datos</text><polygon points="80.222,944.492,70.222,948.492,80.222,952.492,76.222,948.492" fill="#000" style="stroke:#000;stroke-width:1;stroke-linejoin:miter;stroke-miterlimit:10;"/><line x1="74.222" y1="948.492" x2="455.118" y2="948.492" style="stroke:#000;stroke-width:1;stroke-dasharray:2,2;"/><text x="86.222" y="943.426" fill="#000" font-size="13" textLength="216.779" font-family="Verdana">Estado actual, graficos e historial</text><?plantuml-src VLHDSzf85BphLxnu3ulAs1YlSt6Ljyg00LUPm6AeN7nvaXumbM56cP6Sa5D-H7xX_fBjaVXI3ii1n4pFKx_kVlEXsCXMADUiJEI_A9Epuoqbd7vPErkQh6-rTVJ7iFgS8Vo6C_jDcJMjM7k9_gI1uZLsc38XBsaf9bLChUNa9QP_V_wYr9gLMfUEKsLDcpJ_i06AvS9PJQrCKkMnHM9ecekPlVHZsj7M6bLO9_OwAbIXXVufXJQS2eachtmXMuuYJe6XYwKlsIbBBSwsoiGNn9wM4HWNAbKvcu8kXWul59FHN72eGWoVcf0UkWVYpRpcBdJOixO6FiwUeumBJjWBNKoiMTj1hzePz9ebHbp8DzxHR5Tih7aphJdxF17diAHgNgFFpIFxde7DdQsLV5tKK2mtiNFHA7v9VMkrE1mPpPwdtRiQFVuSHGyFr8snVIPv4BlS9ewrU6f1Tk8o2z8gZkdX8LhIrT-GWkvf82jbXA1iFb6cC-7lRTgKszDpKDq9n6-JWfZkdRMDS1G5814gpAQl2-fmhZgrwr5OnkwWXyqHFCfudmU22UeTEVbQAa4iuARIRKfBDfbjq_CihiyUkDtUTAdl1F9cLPUtCRtydYGTChWFqxjwbqQYqAcsDgUKmM4hx4k72J35yxwHLq6T30eXG7H7Feu8LWNo-Bwd5mdfDXvf6umNjxVKojKwLw0QBBWxeMiXHayD7JeQn7q1qA6fgkZoOClbcRRuSnBtK1Kj03-nML9wMlHdzoG-TIeH6izlhg_7yuy8Gp2kSgozDtmw71uVFnsyh7_vUw0SoXwhZyyf86xgAbMfnhXJQp7zHDsF4ENDN6BmbRxol19g9N2BGHTSLSRn_z3L4enIccv21aDwKMi7zbqivAmP98EPK0blF78xA3Ku-9fX-lU60-UERnm7r6CQ0i_agZ7niYuDLNYbZxFIhfDdhrWNzdVRJlazImWoSQPiJNuA6S6qAAkSdATy9gwwdN3H8MQPgaQm5UmD4wVZ23TCbU2_OWYql-Dmtns7iZcJZuaJojXl4elfeGuTApK6xvYtSzxjHWJhWxl6IEAYyAKkk3bh0owihyfZPOc5fygK85p9659SKYkLMazoOlCV?></g></svg>