<svg xmlns="http://www.w3.org/2000/svg" xmlns:xlink="http://www.w3.org/1999/xlink" version="1.1" data-diagram-type="SEQUENCE" style="width:1595px;height:917px;background:#FFFFFF;" width="1595px" height="917px" viewBox="0 0 1595 917" zoomAndPan="magnify" preserveAspectRatio="none" contentStyleType="text/css"><?plantuml 1.2026.7beta3?><defs/><g><g class="title" data-source-line="5"><text x="671.5225" y="35.4209" fill="#000000" font-size="22" lengthAdjust="spacing" textLength="250.1318" font-weight="700" font-family="Verdana">Que hace el sistema</text></g><rect x="696.6235" y="348.7031" width="882.5532" height="280" fill="#FFFFFF" style="stroke:#000000;stroke-width:1;"/><rect x="1129.3306" y="473.2344" width="439.8462" height="90.2031" fill="#FFFFFF" style="stroke:#000000;stroke-width:1;"/><rect x="1129.3306" y="519.5" width="439.8462" height="43.9375" fill="#FFFFFF" style="stroke:none;stroke-width:1;"/><g class="participant-lifeline" data-qualified-name="U" data-entity-uid="part1" id="part1-lifeline" data-source-line="7"><g><title>Usuario .admin.</title><rect x="65.2222" y="128.9063" width="8" height="705.5938" fill="#000000" fill-opacity="0.00000"/><line x1="69" y1="128.9063" x2="69" y2="834.5" style="stroke:#000000;stroke-width:1;stroke-dasharray:5,5;"/></g></g><g class="participant-lifeline" data-qualified-name="FE" data-entity-uid="part2" id="part2-lifeline" data-source-line="8"><g><title>Frontend React</title><rect x="452.1177" y="128.9063" width="8" height="705.5938" fill="#000000" fill-opacity="0.00000"/><line x1="455.2847" y1="128.9063" x2="455.2847" y2="834.5" style="stroke:#000000;stroke-width:1;stroke-dasharray:5,5;"/></g></g><g class="participant-lifeline" data-qualified-name="API" data-entity-uid="part3" id="part3-lifeline" data-source-line="9"><g><title>Backend</title><rect x="758.5503" y="128.9063" width="8" height="705.5938" fill="#000000" fill-opacity="0.00000"/><line x1="761.6235" y1="128.9063" x2="761.6235" y2="834.5" style="stroke:#000000;stroke-width:1;stroke-dasharray:5,5;"/></g></g><g class="participant-lifeline" data-qualified-name="DB" data-entity-uid="part4" id="part4-lifeline" data-source-line="10"><g><title>MongoDB</title><rect x="1088.6533" y="128.9063" width="8" height="705.5938" fill="#000000" fill-opacity="0.00000"/><line x1="1091.9761" y1="128.9063" x2="1091.9761" y2="834.5" style="stroke:#000000;stroke-width:1;stroke-dasharray:5,5;"/></g></g><g class="participant-lifeline" data-qualified-name="RPi" data-entity-uid="part5" id="part5-lifeline" data-source-line="11"><g><title>Raspberry</title><rect x="1205.3018" y="128.9063" width="8" height="705.5938" fill="#000000" fill-opacity="0.00000"/><line x1="1208.3306" y1="128.9063" x2="1208.3306" y2="834.5" style="stroke:#000000;stroke-width:1;stroke-dasharray:5,5;"/></g></g><g class="participant-lifeline" data-qualified-name="HW" data-entity-uid="part6" id="part6-lifeline" data-source-line="12"><g><title>Relay . Cooler</title><rect x="1487.7314" y="128.9063" width="8" height="705.5938" fill="#000000" fill-opacity="0.00000"/><line x1="1491.2861" y1="128.9063" x2="1491.2861" y2="834.5" style="stroke:#000000;stroke-width:1;stroke-dasharray:5,5;"/></g></g><g class="participant participant-head" data-qualified-name="U" data-entity-uid="part1" id="part1-head" data-source-line="7"><text x="10" y="125.6045" fill="#000000" font-size="14" lengthAdjust="spacing" textLength="112.4443" font-family="Verdana">Usuario (admin)</text><ellipse cx="69.2222" cy="60.6094" rx="8" ry="8" fill="#FFFFFF" style="stroke:#000000;stroke-width:1;"/><path d="M69.2222,68.6094 L69.2222,95.6094 M56.2222,76.6094 L82.2222,76.6094 M69.2222,95.6094 L56.2222,110.6094 M69.2222,95.6094 L82.2222,110.6094" style="stroke:#000000;stroke-width:1;" fill="none"/></g><g class="participant participant-tail" data-qualified-name="U" data-entity-uid="part1" id="part1-tail" data-source-line="7"><text x="10" y="846.4951" fill="#000000" font-size="14" lengthAdjust="spacing" textLength="112.4443" font-family="Verdana">Usuario (admin)</text><ellipse cx="69.2222" cy="858.7969" rx="8" ry="8" fill="#FFFFFF" style="stroke:#000000;stroke-width:1;"/><path d="M69.2222,866.7969 L69.2222,893.7969 M56.2222,874.7969 L82.2222,874.7969 M69.2222,893.7969 L56.2222,908.7969 M69.2222,893.7969 L82.2222,908.7969" style="stroke:#000000;stroke-width:1;" fill="none"/></g><g class="participant participant-head" data-qualified-name="FE" data-entity-uid="part2" id="part2-head" data-source-line="8"><rect x="397.2847" y="96.6094" width="117.666" height="26.2969" fill="#FFFFFF" style="stroke:#000000;stroke-width:1;" rx="2.5" ry="2.5"/><text x="402.2847" y="114.6045" fill="#000000" font-size="14" lengthAdjust="spacing" textLength="107.666" font-family="Verdana">Frontend React</text></g><g class="participant participant-tail" data-qualified-name="FE" data-entity-uid="part2" id="part2-tail" data-source-line="8"><rect x="397.2847" y="838.5" width="117.666" height="26.2969" fill="#FFFFFF" style="stroke:#000000;stroke-width:1;" rx="2.5" ry="2.5"/><text x="402.2847" y="856.4951" fill="#000000" font-size="14" lengthAdjust="spacing" textLength="107.666" font-family="Verdana">Frontend React</text></g><g class="participant participant-head" data-qualified-name="API" data-entity-uid="part3" id="part3-head" data-source-line="9"><rect x="716.6235" y="80.3125" width="91.8535" height="42.5938" fill="#FFFFFF" style="stroke:#000000;stroke-width:1;" rx="2.5" ry="2.5"/><text x="732.3696" y="98.3076" fill="#000000" font-size="14" lengthAdjust="spacing" textLength="60.3613" font-family="Verdana">Backend</text><text x="721.6235" y="114.6045" fill="#000000" font-size="14" lengthAdjust="spacing" textLength="81.8535" font-family="Verdana">Spring Boot</text></g><g class="participant participant-tail" data-qualified-name="API" data-entity-uid="part3" id="part3-tail" data-source-line="9"><rect x="716.6235" y="838.5" width="91.8535" height="42.5938" fill="#FFFFFF" style="stroke:#000000;stroke-width:1;" rx="2.5" ry="2.5"/><text x="732.3696" y="856.4951" fill="#000000" font-size="14" lengthAdjust="spacing" textLength="60.3613" font-family="Verdana">Backend</text><text x="721.6235" y="872.792" fill="#000000" font-size="14" lengthAdjust="spacing" textLength="81.8535" font-family="Verdana">Spring Boot</text></g><g class="participant participant-head" data-qualified-name="DB" data-entity-uid="part4" id="part4-head" data-source-line="10"><text x="1055.9761" y="125.6045" fill="#000000" font-size="14" lengthAdjust="spacing" textLength="67.3545" font-family="Verdana">MongoDB</text><path d="M1074.6533,76.6094 C1074.6533,66.6094 1092.6533,66.6094 1092.6533,66.6094 C1092.6533,66.6094 1110.6533,66.6094 1110.6533,76.6094 L1110.6533,102.6094 C1110.6533,112.6094 1092.6533,112.6094 1092.6533,112.6094 C1092.6533,112.6094 1074.6533,112.6094 1074.6533,102.6094 L1074.6533,76.6094" style="stroke:#000000;stroke-width:1;" fill="#FFFFFF"/><path d="M1074.6533,76.6094 C1074.6533,86.6094 1092.6533,86.6094 1092.6533,86.6094 C1092.6533,86.6094 1110.6533,86.6094 1110.6533,76.6094" style="stroke:#000000;stroke-width:1;" fill="none"/></g><g class="participant participant-tail" data-qualified-name="DB" data-entity-uid="part4" id="part4-tail" data-source-line="10"><text x="1055.9761" y="846.4951" fill="#000000" font-size="14" lengthAdjust="spacing" textLength="67.3545" font-family="Verdana">MongoDB</text><path d="M1074.6533,859.7969 C1074.6533,849.7969 1092.6533,849.7969 1092.6533,849.7969 C1092.6533,849.7969 1110.6533,849.7969 1110.6533,859.7969 L1110.6533,885.7969 C1110.6533,895.7969 1092.6533,895.7969 1092.6533,895.7969 C1092.6533,895.7969 1074.6533,895.7969 1074.6533,885.7969 L1074.6533,859.7969" style="stroke:#000000;stroke-width:1;" fill="#FFFFFF"/><path d="M1074.6533,859.7969 C1074.6533,869.7969 1092.6533,869.7969 1092.6533,869.7969 C1092.6533,869.7969 1110.6533,869.7969 1110.6533,859.7969" style="stroke:#000000;stroke-width:1;" fill="none"/></g><g class="participant participant-head" data-qualified-name="RPi" data-entity-uid="part5" id="part5-head" data-source-line="11"><rect x="1149.3306" y="80.3125" width="119.9424" height="42.5938" fill="#FFFFFF" style="stroke:#000000;stroke-width:1;" rx="2.5" ry="2.5"/><text x="1173.4097" y="98.3076" fill="#000000" font-size="14" lengthAdjust="spacing" textLength="71.7842" font-family="Verdana">Raspberry</text><text x="1154.3306" y="114.6045" fill="#000000" font-size="14" lengthAdjust="spacing" textLength="109.9424" font-family="Verdana">(Python + DHT)</text></g><g class="participant participant-tail" data-qualified-name="RPi" data-entity-uid="part5" id="part5-tail" data-source-line="11"><rect x="1149.3306" y="838.5" width="119.9424" height="42.5938" fill="#FFFFFF" style="stroke:#000000;stroke-width:1;" rx="2.5" ry="2.5"/><text x="1173.4097" y="856.4951" fill="#000000" font-size="14" lengthAdjust="spacing" textLength="71.7842" font-family="Verdana">Raspberry</text><text x="1154.3306" y="872.792" fill="#000000" font-size="14" lengthAdjust="spacing" textLength="109.9424" font-family="Verdana">(Python + DHT)</text></g><g class="participant participant-head" data-qualified-name="HW" data-entity-uid="part6" id="part6-head" data-source-line="12"><rect x="1434.2861" y="96.6094" width="114.8906" height="26.2969" fill="#FFFFFF" style="stroke:#000000;stroke-width:1;" rx="2.5" ry="2.5"/><text x="1439.2861" y="114.6045" fill="#000000" font-size="14" lengthAdjust="spacing" textLength="104.8906" font-family="Verdana">Relay + Cooler</text></g><g class="participant participant-tail" data-qualified-name="HW" data-entity-uid="part6" id="part6-tail" data-source-line="12"><rect x="1434.2861" y="838.5" width="114.8906" height="26.2969" fill="#FFFFFF" style="stroke:#000000;stroke-width:1;" rx="2.5" ry="2.5"/><text x="1439.2861" y="856.4951" fill="#000000" font-size="14" lengthAdjust="spacing" textLength="104.8906" font-family="Verdana">Relay + Cooler</text></g><rect x="5" y="159.4727" width="1584.1768" height="3" fill="#FFFFFF" style="stroke:#FFFFFF;stroke-width:1;"/><line x1="5" y1="159.4727" x2="1589.1768" y2="159.4727" style="stroke:#000000;stroke-width:0.5;"/><line x1="5" y1="162.4727" x2="1589.1768" y2="162.4727" style="stroke:#000000;stroke-width:0.5;"/><rect x="622.6658" y="148.9063" width="348.8452" height="23.1328" fill="#FFFFFF" style="stroke:#000000;stroke-width:1;"/><text x="628.6658" y="164.9731" fill="#000000" font-size="13" lengthAdjust="spacing" textLength="330.3193" font-weight="700" font-family="Verdana">1) Configuracion de umbrales (con auditoria)</text><g class="message" data-entity-1="part1" data-entity-2="part2" id="msg1" data-source-line="15"><polygon points="444.1177,199.1719,454.1177,203.1719,444.1177,207.1719,448.1177,203.1719" fill="#000000" style="stroke:#000000;stroke-width:1;stroke-linejoin:miter;stroke-miterlimit:10;"/><line x1="69.2222" y1="203.1719" x2="450.1177" y2="203.1719" style="stroke:#000000;stroke-width:1;"/><text x="76.2222" y="198.106" fill="#000000" font-size="13" lengthAdjust="spacing" textLength="362.8955" font-family="Verdana">Define tempMin/Max, humMin/Max, histeresis, intervalo</text></g><g class="message" data-entity-1="part2" data-entity-2="part3" id="msg2" data-source-line="16"><polygon points="750.5503,228.3047,760.5503,232.3047,750.5503,236.3047,754.5503,232.3047" fill="#000000" style="stroke:#000000;stroke-width:1;stroke-linejoin:miter;stroke-miterlimit:10;"/><line x1="456.1177" y1="232.3047" x2="756.5503" y2="232.3047" style="stroke:#000000;stroke-width:1;"/><text x="463.1177" y="227.2388" fill="#000000" font-size="13" lengthAdjust="spacing" textLength="106.7676" font-family="Verdana">POST /api/config</text></g><g class="message" data-entity-1="part3" data-entity-2="part4" id="msg3" data-source-line="17"><polygon points="1080.6533,257.4375,1090.6533,261.4375,1080.6533,265.4375,1084.6533,261.4375" fill="#000000" style="stroke:#000000;stroke-width:1;stroke-linejoin:miter;stroke-miterlimit:10;"/><line x1="762.5503" y1="261.4375" x2="1086.6533" y2="261.4375" style="stroke:#000000;stroke-width:1;"/><text x="769.5503" y="256.3716" fill="#000000" font-size="13" lengthAdjust="spacing" textLength="306.103" font-family="Verdana">Guarda config activa (quien, email, cuando, IP)</text></g><g class="message" data-entity-1="part3" data-entity-2="part2" id="msg4" data-source-line="18"><polygon points="467.1177,286.5703,457.1177,290.5703,467.1177,294.5703,463.1177,290.5703" fill="#000000" style="stroke:#000000;stroke-width:1;stroke-linejoin:miter;stroke-miterlimit:10;"/><line x1="461.1177" y1="290.5703" x2="761.5503" y2="290.5703" style="stroke:#000000;stroke-width:1;stroke-dasharray:2,2;"/><text x="473.1177" y="285.5044" fill="#000000" font-size="13" lengthAdjust="spacing" textLength="80.6787" font-family="Verdana">201 Created</text></g><rect x="5" y="319.1367" width="1584.1768" height="3" fill="#FFFFFF" style="stroke:#FFFFFF;stroke-width:1;"/><line x1="5" y1="319.1367" x2="1589.1768" y2="319.1367" style="stroke:#000000;stroke-width:0.5;"/><line x1="5" y1="322.1367" x2="1589.1768" y2="322.1367" style="stroke:#000000;stroke-width:0.5;"/><rect x="658.3967" y="308.5703" width="277.3833" height="23.1328" fill="#FFFFFF" style="stroke:#000000;stroke-width:1;"/><text x="664.3967" y="324.6372" fill="#000000" font-size="13" lengthAdjust="spacing" textLength="258.8574" font-weight="700" font-family="Verdana">2) Bucle de control en la Raspberry</text><path d="M696.6235,348.7031 L773.2476,348.7031 L773.2476,355.8359 L763.2476,365.8359 L696.6235,365.8359 L696.6235,348.7031" style="stroke:#000000;stroke-width:1;" fill="#FFFFFF"/><rect x="696.6235" y="348.7031" width="882.5532" height="280" fill="none" style="stroke:#000000;stroke-width:1;"/><text x="711.6235" y="361.77" fill="#000000" font-size="13" lengthAdjust="spacing" textLength="31.624" font-weight="700" font-family="Verdana">loop</text><text x="788.2476" y="360.9136" fill="#000000" font-size="11" lengthAdjust="spacing" textLength="228.8892" font-weight="700" font-family="Verdana">[cada measurementIntervalSeconds]</text><g class="message" data-entity-1="part5" data-entity-2="part3" id="msg5" data-source-line="22"><polygon points="773.5503,382.9688,763.5503,386.9688,773.5503,390.9688,769.5503,386.9688" fill="#000000" style="stroke:#000000;stroke-width:1;stroke-linejoin:miter;stroke-miterlimit:10;"/><line x1="767.5503" y1="386.9688" x2="1208.3018" y2="386.9688" style="stroke:#000000;stroke-width:1;"/><text x="779.5503" y="381.9028" fill="#000000" font-size="13" lengthAdjust="spacing" textLength="139.6548" font-family="Verdana">GET /api/config/latest</text></g><g class="message" data-entity-1="part3" data-entity-2="part5" id="msg6" data-source-line="23"><polygon points="1197.3018,412.1016,1207.3018,416.1016,1197.3018,420.1016,1201.3018,416.1016" fill="#000000" style="stroke:#000000;stroke-width:1;stroke-linejoin:miter;stroke-miterlimit:10;"/><line x1="762.5503" y1="416.1016" x2="1203.3018" y2="416.1016" style="stroke:#000000;stroke-width:1;stroke-dasharray:2,2;"/><text x="769.5503" y="411.0356" fill="#000000" font-size="13" lengthAdjust="spacing" textLength="220.1748" font-family="Verdana">Umbrales + histeresis + intervalo</text></g><g class="message" data-entity-1="part5" data-entity-2="part5" id="msg7" data-source-line="24"><line x1="1209.3018" y1="445.2344" x2="1251.3018" y2="445.2344" style="stroke:#000000;stroke-width:1;"/><line x1="1251.3018" y1="445.2344" x2="1251.3018" y2="458.2344" style="stroke:#000000;stroke-width:1;"/><line x1="1210.3018" y1="458.2344" x2="1251.3018" y2="458.2344" style="stroke:#000000;stroke-width:1;"/><polygon points="1220.3018,454.2344,1210.3018,458.2344,1220.3018,462.2344,1216.3018,458.2344" fill="#000000" style="stroke:#000000;stroke-width:1;stroke-linejoin:miter;stroke-miterlimit:10;"/><text x="1216.3018" y="440.1685" fill="#000000" font-size="13" lengthAdjust="spacing" textLength="268.4297" font-family="Verdana">Lee sensor DHT (temperatura, humedad)</text></g><path d="M1129.3306,473.2344 L1193.7734,473.2344 L1193.7734,480.3672 L1183.7734,490.3672 L1129.3306,490.3672 L1129.3306,473.2344" style="stroke:#000000;stroke-width:1;" fill="#FFFFFF"/><rect x="1129.3306" y="473.2344" width="439.8462" height="90.2031" fill="none" style="stroke:#000000;stroke-width:1;"/><text x="1144.3306" y="486.3013" fill="#000000" font-size="13" lengthAdjust="spacing" textLength="19.4429" font-weight="700" font-family="Verdana">alt</text><text x="1208.7734" y="485.4448" fill="#000000" font-size="11" lengthAdjust="spacing" textLength="238.6055" font-weight="700" font-family="Verdana">[supera umbral (aplicando histeresis)]</text><g class="message" data-entity-1="part5" data-entity-2="part6" id="msg8" data-source-line="26"><polygon points="1479.7314,507.5,1489.7314,511.5,1479.7314,515.5,1483.7314,511.5" fill="#000000" style="stroke:#000000;stroke-width:1;stroke-linejoin:miter;stroke-miterlimit:10;"/><line x1="1209.3018" y1="511.5" x2="1485.7314" y2="511.5" style="stroke:#000000;stroke-width:1;"/><text x="1216.3018" y="506.4341" fill="#000000" font-size="13" lengthAdjust="spacing" textLength="174.8208" font-family="Verdana">Enciende cooler (relay ON)</text></g><line x1="1129.3306" y1="520.5" x2="1569.1768" y2="520.5" style="stroke:#000000;stroke-width:1;stroke-dasharray:2,2;"/><text x="1134.3306" y="530.7104" fill="#000000" font-size="11" lengthAdjust="spacing" textLength="110.564" font-weight="700" font-family="Verdana">[dentro de rango]</text><g class="message" data-entity-1="part5" data-entity-2="part6" id="msg9" data-source-line="28"><polygon points="1479.7314,551.4375,1489.7314,555.4375,1479.7314,559.4375,1483.7314,555.4375" fill="#000000" style="stroke:#000000;stroke-width:1;stroke-linejoin:miter;stroke-miterlimit:10;"/><line x1="1209.3018" y1="555.4375" x2="1485.7314" y2="555.4375" style="stroke:#000000;stroke-width:1;"/><text x="1216.3018" y="550.3716" fill="#000000" font-size="13" lengthAdjust="spacing" textLength="161.6812" font-family="Verdana">Apaga cooler (relay OFF)</text></g><g class="message" data-entity-1="part5" data-entity-2="part3" id="msg10" data-source-line="30"><polygon points="773.5503,587.5703,763.5503,591.5703,773.5503,595.5703,769.5503,591.5703" fill="#000000" style="stroke:#000000;stroke-width:1;stroke-linejoin:miter;stroke-miterlimit:10;"/><line x1="767.5503" y1="591.5703" x2="1208.3018" y2="591.5703" style="stroke:#000000;stroke-width:1;"/><text x="779.5503" y="586.5044" fill="#000000" font-size="13" lengthAdjust="spacing" textLength="365.3901" font-family="Verdana">POST /api/measurements (temp, hum, coolerOn, status)</text></g><g class="message" data-entity-1="part3" data-entity-2="part4" id="msg11" data-source-line="31"><polygon points="1080.6533,616.7031,1090.6533,620.7031,1080.6533,624.7031,1084.6533,620.7031" fill="#000000" style="stroke:#000000;stroke-width:1;stroke-linejoin:miter;stroke-miterlimit:10;"/><line x1="762.5503" y1="620.7031" x2="1086.6533" y2="620.7031" style="stroke:#000000;stroke-width:1;"/><text x="769.5503" y="615.6372" fill="#000000" font-size="13" lengthAdjust="spacing" textLength="197.2407" font-family="Verdana">Persiste la medicion (historial)</text></g><rect x="5" y="656.2695" width="1584.1768" height="3" fill="#FFFFFF" style="stroke:#FFFFFF;stroke-width:1;"/><line x1="5" y1="656.2695" x2="1589.1768" y2="656.2695" style="stroke:#000000;stroke-width:0.5;"/><line x1="5" y1="659.2695" x2="1589.1768" y2="659.2695" style="stroke:#000000;stroke-width:0.5;"/><rect x="698.5774" y="645.7031" width="197.022" height="23.1328" fill="#FFFFFF" style="stroke:#000000;stroke-width:1;"/><text x="704.5774" y="661.77" fill="#000000" font-size="13" lengthAdjust="spacing" textLength="178.4961" font-weight="700" font-family="Verdana">3) Monitoreo y auditoria</text><g class="message" data-entity-1="part1" data-entity-2="part2" id="msg12" data-source-line="35"><polygon points="444.1177,695.9688,454.1177,699.9688,444.1177,703.9688,448.1177,699.9688" fill="#000000" style="stroke:#000000;stroke-width:1;stroke-linejoin:miter;stroke-miterlimit:10;"/><line x1="69.2222" y1="699.9688" x2="450.1177" y2="699.9688" style="stroke:#000000;stroke-width:1;"/><text x="76.2222" y="694.9028" fill="#000000" font-size="13" lengthAdjust="spacing" textLength="168.4731" font-family="Verdana">Abre dashboard / historial</text></g><g class="message" data-entity-1="part2" data-entity-2="part3" id="msg13" data-source-line="36"><polygon points="750.5503,725.1016,760.5503,729.1016,750.5503,733.1016,754.5503,729.1016" fill="#000000" style="stroke:#000000;stroke-width:1;stroke-linejoin:miter;stroke-miterlimit:10;"/><line x1="456.1177" y1="729.1016" x2="756.5503" y2="729.1016" style="stroke:#000000;stroke-width:1;"/><text x="463.1177" y="724.0356" fill="#000000" font-size="13" lengthAdjust="spacing" textLength="282.4326" font-family="Verdana">GET /api/measurements, /api/config/history</text></g><g class="message" data-entity-1="part3" data-entity-2="part4" id="msg14" data-source-line="37"><polygon points="1080.6533,754.2344,1090.6533,758.2344,1080.6533,762.2344,1084.6533,758.2344" fill="#000000" style="stroke:#000000;stroke-width:1;stroke-linejoin:miter;stroke-miterlimit:10;"/><line x1="762.5503" y1="758.2344" x2="1086.6533" y2="758.2344" style="stroke:#000000;stroke-width:1;"/><text x="769.5503" y="753.1685" fill="#000000" font-size="13" lengthAdjust="spacing" textLength="56.9575" font-family="Verdana">Consulta</text></g><g class="message" data-entity-1="part3" data-entity-2="part2" id="msg15" data-source-line="38"><polygon points="467.1177,783.3672,457.1177,787.3672,467.1177,791.3672,463.1177,787.3672" fill="#000000" style="stroke:#000000;stroke-width:1;stroke-linejoin:miter;stroke-miterlimit:10;"/><line x1="461.1177" y1="787.3672" x2="761.5503" y2="787.3672" style="stroke:#000000;stroke-width:1;stroke-dasharray:2,2;"/><text x="473.1177" y="782.3013" fill="#000000" font-size="13" lengthAdjust="spacing" textLength="37.8003" font-family="Verdana">Datos</text></g><g class="message" data-entity-1="part2" data-entity-2="part1" id="msg16" data-source-line="39"><polygon points="80.2222,812.5,70.2222,816.5,80.2222,820.5,76.2222,816.5" fill="#000000" style="stroke:#000000;stroke-width:1;stroke-linejoin:miter;stroke-miterlimit:10;"/><line x1="74.2222" y1="816.5" x2="455.1177" y2="816.5" style="stroke:#000000;stroke-width:1;stroke-dasharray:2,2;"/><text x="86.2222" y="811.4341" fill="#000000" font-size="13" lengthAdjust="spacing" textLength="216.7788" font-family="Verdana">Estado actual, graficos e historial</text></g><?plantuml-src PLJBKjim5DthAsxJHUqXRGhTCPFE44o06L9I8CE6pRLzasYG9LSFskpw4Vt2Vaclx3piDAj4ElTn7iexlwQAe5OejN2lKjTeiO8SYzULDK6NbqOP2--dpQU3S6iipK-fLx14vKXyW4pYYcyGIW97HI1TI8HaCRjBuU_lFr0OlPIhOB6GHWyX3uMYYELpRus23LH6IsyicK_2Iy-ttmF16Wi2Kk2ayrIX45Wm1WOB5z1A0mcMbTJf0D31Gl1oNXQoHkrXCBNScdG93yH53M9wrOTCc2WZNlHZRIEPYJ4jy69-AqhqcACZ6CoCNfbiqjnaatwB1tHrJjPkNdGot_YrqN02sSrJkzB3N1x1IU664PV6AB8DvkPPYF4OJbC-x6WKnGbLRb6HWuHb0Wnb54XY2kEnMC37hqm8pY6ZfTG4h4yzateqmrz3M8Vgy3rgPuab789aIUmRAYEub1imKUumltzyWX7MSjJQ9E8ntsOJlhncfKlS6WWifNnZOty4IUmZUoBL48g0kZH3k9sdRUrkjxFFft1f2JsL3Skp52R7rfC6XR0NCf9JnjHG88-j25smd5BjRxUxFn9Nbav0bFT0ulggns6aUAZpZDej5D7diDXfUj8HXdySbDdtRGlkA2PQEuuT-mf9r9aiUlQfqPbAB5CkGkN1XNYrzOt3MIjPH6Kweo9qF-7ccGTSyLFX54P1OYWWiKr8xhz5AF7pOh6YKb4pYnp5_pfSrBZ2u_BfjAdNvR5G1xSxuhgMMCDek6rrpmOxpqoRfRkPc9DjNcGqZWMGJM2JI3BcKwKYZer-VqbXjdlN_CRt4Uud-2AtJ1BTEZUSDHZ1lbClfdk7ktiFUwQtXPjUWFbPkQ0yzfEPeJUkQSydYsW3KsMdEE01ETByRxQKXN50Xst-0G00?></g></svg>