<svg xmlns="http://www.w3.org/2000/svg" xmlns:xlink="http://www.w3.org/1999/xlink" version="1.1" data-diagram-type="STATE" style="width:1443px;height:1070px;background:#FFFFFF;" width="1443.75px" height="1070.8333px" viewBox="0 0 1443 1070" zoomAndPan="magnify" preserveAspectRatio="none" contentStyleType="text/css"><?plantuml 1.2026.7beta3?><defs/><g><g class="title" data-source-line="5"><rect x="487.767" y="20.8333" width="466.5914" height="36.7513" fill="none" style="stroke:#BABDBF;stroke-width:1.0417;" rx="4.1667" ry="4.1667"/><text x="494.017" y="46.4213" fill="#2FA4E7" font-size="20.8333" lengthAdjust="spacing" textLength="454.0914" font-weight="700" font-family="'Verdana'">Ciclo de control (Raspberry / Gateway)</text></g><g class="start_entity" data-qualified-name=".start." id="ent0001" data-source-line="7"><ellipse cx="981.9896" cy="85.7096" rx="10.4167" ry="10.4167" fill="#033C73" style="stroke:#2683B9;stroke-width:1.0417;"/></g><g class="entity" data-qualified-name="Inicializando" id="ent0002" data-source-line="7"><rect x="935.9375" y="159.668" width="92.1122" height="52.0833" fill="none" style="stroke:#2FA4E7;stroke-width:1.0417;" rx="4.1667" ry="4.1667"/><line x1="935.9375" y1="183.4229" x2="1028.0497" y2="183.4229" style="stroke:#2FA4E7;stroke-width:1.0417;"/><text x="946.3542" y="175.5122" fill="#BABDBF" font-size="11.4583" lengthAdjust="spacing" textLength="71.2789" font-family="'Verdana'">Inicializando</text></g><g class="entity" data-qualified-name="ObteniendoConfig" id="ent0004" data-source-line="8"><rect x="919.75" y="289.8763" width="124.4731" height="52.0833" fill="none" style="stroke:#2FA4E7;stroke-width:1.0417;" rx="4.1667" ry="4.1667"/><line x1="919.75" y1="313.6312" x2="1044.2231" y2="313.6312" style="stroke:#2FA4E7;stroke-width:1.0417;"/><text x="930.1667" y="305.7205" fill="#BABDBF" font-size="11.4583" lengthAdjust="spacing" textLength="103.6397" font-family="'Verdana'">ObteniendoConfig</text></g><g class="entity" data-qualified-name="LeyendoSensor" id="ent0006" data-source-line="9"><rect x="745.2396" y="420.0846" width="108.9193" height="52.0833" fill="none" style="stroke:#2FA4E7;stroke-width:1.0417;" rx="4.1667" ry="4.1667"/><line x1="745.2396" y1="443.8395" x2="854.1589" y2="443.8395" style="stroke:#2FA4E7;stroke-width:1.0417;"/><text x="755.6563" y="435.9289" fill="#BABDBF" font-size="11.4583" lengthAdjust="spacing" textLength="88.0859" font-family="'Verdana'">LeyendoSensor</text></g><g class="entity" data-qualified-name="ErrorConfig" id="ent0008" data-source-line="10"><rect x="1001.5" y="503.418" width="85.9802" height="52.0833" fill="none" style="stroke:#2FA4E7;stroke-width:1.0417;" rx="4.1667" ry="4.1667"/><line x1="1001.5" y1="527.1729" x2="1087.4802" y2="527.1729" style="stroke:#2FA4E7;stroke-width:1.0417;"/><text x="1011.9167" y="519.2622" fill="#BABDBF" font-size="11.4583" lengthAdjust="spacing" textLength="65.1469" font-family="'Verdana'">ErrorConfig</text></g><g class="entity" data-qualified-name="Evaluando" id="ent0010" data-source-line="11"><rect x="442.5833" y="586.7513" width="80.8889" height="52.0833" fill="none" style="stroke:#2FA4E7;stroke-width:1.0417;" rx="4.1667" ry="4.1667"/><line x1="442.5833" y1="610.5062" x2="523.4722" y2="610.5062" style="stroke:#2FA4E7;stroke-width:1.0417;"/><text x="453" y="602.5955" fill="#BABDBF" font-size="11.4583" lengthAdjust="spacing" textLength="60.0555" font-family="'Verdana'">Evaluando</text></g><g class="entity" data-qualified-name="ErrorSensor" id="ent0012" data-source-line="12"><rect x="911.6979" y="670.0846" width="88.4923" height="52.0833" fill="none" style="stroke:#2FA4E7;stroke-width:1.0417;" rx="4.1667" ry="4.1667"/><line x1="911.6979" y1="693.8395" x2="1000.1902" y2="693.8395" style="stroke:#2FA4E7;stroke-width:1.0417;"/><text x="922.1146" y="685.9289" fill="#BABDBF" font-size="11.4583" lengthAdjust="spacing" textLength="67.659" font-family="'Verdana'">ErrorSensor</text></g><g class="entity" data-qualified-name="Enfriando" id="ent0014" data-source-line="13"><rect x="200.3229" y="753.418" width="75.8311" height="52.0833" fill="none" style="stroke:#2FA4E7;stroke-width:1.0417;" rx="4.1667" ry="4.1667"/><line x1="200.3229" y1="777.1729" x2="276.154" y2="777.1729" style="stroke:#2FA4E7;stroke-width:1.0417;"/><text x="210.7396" y="769.2622" fill="#BABDBF" font-size="11.4583" lengthAdjust="spacing" textLength="54.9978" font-family="'Verdana'">Enfriando</text></g><g class="entity" data-qualified-name="Reposo" id="ent0016" data-source-line="14"><rect x="634.8125" y="753.418" width="63.1083" height="52.0833" fill="none" style="stroke:#2FA4E7;stroke-width:1.0417;" rx="4.1667" ry="4.1667"/><line x1="634.8125" y1="777.1729" x2="697.9208" y2="777.1729" style="stroke:#2FA4E7;stroke-width:1.0417;"/><text x="645.2292" y="769.2622" fill="#BABDBF" font-size="11.4583" lengthAdjust="spacing" textLength="42.275" font-family="'Verdana'">Reposo</text></g><g class="entity" data-qualified-name="Publicando" id="ent0020" data-source-line="17"><rect x="702.7292" y="869.043" width="83.5129" height="52.0833" fill="none" style="stroke:#2FA4E7;stroke-width:1.0417;" rx="4.1667" ry="4.1667"/><line x1="702.7292" y1="892.7979" x2="786.242" y2="892.7979" style="stroke:#2FA4E7;stroke-width:1.0417;"/><text x="713.1458" y="884.8872" fill="#BABDBF" font-size="11.4583" lengthAdjust="spacing" textLength="62.6795" font-family="'Verdana'">Publicando</text></g><g class="entity" data-qualified-name="Esperando" id="ent0024" data-source-line="20"><rect x="1017.2083" y="999.2513" width="81.6442" height="52.0833" fill="none" style="stroke:#2FA4E7;stroke-width:1.0417;" rx="4.1667" ry="4.1667"/><line x1="1017.2083" y1="1023.0062" x2="1098.8525" y2="1023.0062" style="stroke:#2FA4E7;stroke-width:1.0417;"/><text x="1027.625" y="1015.0955" fill="#BABDBF" font-size="11.4583" lengthAdjust="spacing" textLength="60.8109" font-family="'Verdana'">Esperando</text></g><!--link *start* to Inicializando--><g class="link" data-entity-1="ent0001" data-entity-2="ent0002" id="lnk3" data-source-line="7" data-link-type="dependency"><path d="M981.9896,96.5013 C981.9896,111.0117 981.9896,133.5742 981.9896,154.0951" style="stroke:#2FA4E7;stroke-width:3.125;" fill="none" id="*start*-to-Inicializando"/><polygon points="981.9896,159.3034,986.1563,149.9284,981.9896,154.0951,977.8229,149.9284,981.9896,159.3034" fill="#2FA4E7" style="stroke:#2FA4E7;stroke-width:3.125;stroke-linejoin:miter;stroke-miterlimit:10;"/></g><!--link Inicializando to ObteniendoConfig--><g class="link" data-entity-1="ent0002" data-entity-2="ent0004" id="lnk5" data-source-line="8" data-link-type="dependency"><path d="M981.9896,212.0638 C981.9896,234.5221 981.9896,261.9596 981.9896,284.4076" style="stroke:#2FA4E7;stroke-width:3.125;" fill="none" id="Inicializando-to-ObteniendoConfig"/><polygon points="981.9896,289.6159,986.1563,280.2409,981.9896,284.4076,977.8229,280.2409,981.9896,289.6159" fill="#2FA4E7" style="stroke:#2FA4E7;stroke-width:3.125;stroke-linejoin:miter;stroke-miterlimit:10;"/><text x="983.0313" y="255.6458" fill="#343A40" font-size="12.5" lengthAdjust="spacing" textLength="57.0679" font-family="'Verdana'">arranque</text></g><!--link ObteniendoConfig to LeyendoSensor--><g class="link" data-entity-1="ent0004" data-entity-2="ent0006" id="lnk7" data-source-line="9" data-link-type="dependency"><path d="M919.5625,317.8451 C877.4479,322.1055 824.625,335.3867 796.5729,373.2096 C786.8229,386.3555 786.738,399.7832 790.0818,414.7311" style="stroke:#2FA4E7;stroke-width:3.125;" fill="none" id="ObteniendoConfig-to-LeyendoSensor"/><polygon points="791.2188,419.8138,793.2384,409.7553,790.0818,414.7311,785.106,411.5745,791.2188,419.8138" fill="#2FA4E7" style="stroke:#2FA4E7;stroke-width:3.125;stroke-linejoin:miter;stroke-miterlimit:10;"/><text x="797.6146" y="385.8541" fill="#343A40" font-size="12.5" lengthAdjust="spacing" textLength="139.325" font-family="'Verdana'">config activa obtenida</text></g><!--link ObteniendoConfig to ErrorConfig--><g class="link" data-entity-1="ent0004" data-entity-2="ent0008" id="lnk9" data-source-line="10" data-link-type="dependency"><path d="M977.6979,342.1888 C976.125,356.1055 975.4583,373.5951 978.8646,388.8346 C988.3229,431.168 1009.4229,471.3528 1025.6,498.4361" style="stroke:#2FA4E7;stroke-width:3.125;" fill="none" id="ObteniendoConfig-to-ErrorConfig"/><polygon points="1028.2708,502.9076,1027.0405,492.7224,1025.6,498.4361,1019.8862,496.9957,1028.2708,502.9076" fill="#2FA4E7" style="stroke:#2FA4E7;stroke-width:3.125;stroke-linejoin:miter;stroke-miterlimit:10;"/><text x="979.9063" y="385.8541" fill="#343A40" font-size="12.5" lengthAdjust="spacing" textLength="192.6819" font-family="'Verdana'">sin conexion / sin config activa</text></g><!--link LeyendoSensor to Evaluando--><g class="link" data-entity-1="ent0006" data-entity-2="ent0010" id="lnk11" data-source-line="11" data-link-type="dependency"><path d="M745.4167,472.6888 C725.6771,482.1367 703.25,493.0742 683.0313,503.418 C627.3125,531.918 568.47,564.129 528.2721,586.4519" style="stroke:#2FA4E7;stroke-width:3.125;" fill="none" id="LeyendoSensor-to-Evaluando"/><polygon points="523.7188,588.9805,533.9376,588.0717,528.2721,586.4519,529.8919,580.7863,523.7188,588.9805" fill="#2FA4E7" style="stroke:#2FA4E7;stroke-width:3.125;stroke-linejoin:miter;stroke-miterlimit:10;"/><text x="684.0729" y="534.2916" fill="#343A40" font-size="12.5" lengthAdjust="spacing" textLength="85.2295" font-family="'Verdana'">lectura valida</text></g><!--link LeyendoSensor to ErrorSensor--><g class="link" data-entity-1="ent0006" data-entity-2="ent0012" id="lnk13" data-source-line="12" data-link-type="dependency"><path d="M811.9896,472.6367 C823.0208,494.9284 840.0417,527.9596 856.9896,555.5013 C882.5208,596.9909 912.8065,638.4511 933.5461,665.8782" style="stroke:#2FA4E7;stroke-width:3.125;" fill="none" id="LeyendoSensor-to-ErrorSensor"/><polygon points="936.6875,670.0326,934.3565,660.0417,933.5461,665.8782,927.7095,665.0679,936.6875,670.0326" fill="#2FA4E7" style="stroke:#2FA4E7;stroke-width:3.125;stroke-linejoin:miter;stroke-miterlimit:10;"/><text x="858.0313" y="534.2916" fill="#343A40" font-size="12.5" lengthAdjust="spacing" textLength="124.5178" font-family="'Verdana'">fallo de lectura DHT</text></g><!--link Evaluando to Enfriando--><g class="link" data-entity-1="ent0010" data-entity-2="ent0014" id="lnk15" data-source-line="13" data-link-type="dependency"><path d="M442.375,615.8867 C336.5729,621.6367 58.9896,639.5117 31.9896,670.0846 C16.6667,687.4388 17.9375,703.7721 31.9896,722.168 C52.2708,748.7096 140.845,764.9972 194.7096,772.768" style="stroke:#2FA4E7;stroke-width:3.125;" fill="none" id="Evaluando-to-Enfriando"/><polygon points="199.8646,773.5117,191.1806,768.0491,194.7096,772.768,189.9907,776.2971,199.8646,773.5117" fill="#2FA4E7" style="stroke:#2FA4E7;stroke-width:3.125;stroke-linejoin:miter;stroke-miterlimit:10;"/><text x="33.0313" y="700.9583" fill="#343A40" font-size="12.5" lengthAdjust="spacing" textLength="159.3872" font-family="'Verdana'">supera umbral (relay ON)</text></g><!--link Evaluando to Enfriando--><g class="link" data-entity-1="ent0010" data-entity-2="ent0014" id="lnk18" data-source-line="15" data-link-type="dependency"><path d="M442.3958,618.5326 C384.0625,626.1367 280.8646,643.0638 255.9479,670.0846 C235.4063,692.3555 233.2235,723.5533 234.7651,747.9388" style="stroke:#2FA4E7;stroke-width:3.125;" fill="none" id="Evaluando-to-Enfriando-1"/><polygon points="235.0938,753.1367,238.6606,743.5175,234.7651,747.9388,230.3439,744.0433,235.0938,753.1367" fill="#2FA4E7" style="stroke:#2FA4E7;stroke-width:3.125;stroke-linejoin:miter;stroke-miterlimit:10;"/><text x="256.9896" y="700.9583" fill="#343A40" font-size="12.5" lengthAdjust="spacing" textLength="201.825" font-family="'Verdana'">banda muerta y venia enfriando</text></g><!--link Evaluando to Reposo--><g class="link" data-entity-1="ent0010" data-entity-2="ent0016" id="lnk17" data-source-line="14" data-link-type="dependency"><path d="M474.0833,639.2721 C467.4583,663.0846 462.2917,698.4492 479.9063,722.168 C515.6979,770.3451 586.2818,778.6862 629.4068,779.3112" style="stroke:#2FA4E7;stroke-width:3.125;" fill="none" id="Evaluando-to-Reposo"/><polygon points="634.6146,779.3867,625.3009,775.0846,629.4068,779.3112,625.1802,783.4171,634.6146,779.3867" fill="#2FA4E7" style="stroke:#2FA4E7;stroke-width:3.125;stroke-linejoin:miter;stroke-miterlimit:10;"/><text x="480.9479" y="700.9583" fill="#343A40" font-size="12.5" lengthAdjust="spacing" textLength="174.3896" font-family="'Verdana'">dentro de rango (relay OFF)</text></g><!--link Evaluando to Reposo--><g class="link" data-entity-1="ent0010" data-entity-2="ent0016" id="lnk19" data-source-line="16" data-link-type="dependency"><path d="M523.7708,614.293 C565.2708,617.1784 627.9583,628.6888 660.1146,670.0846 C678.375,693.5951 677.3658,724.2127 673.2304,748.1502" style="stroke:#2FA4E7;stroke-width:3.125;" fill="none" id="Evaluando-to-Reposo-1"/><polygon points="672.3438,753.2826,678.0456,744.7537,673.2304,748.1502,669.8339,743.3351,672.3438,753.2826" fill="#2FA4E7" style="stroke:#2FA4E7;stroke-width:3.125;stroke-linejoin:miter;stroke-miterlimit:10;"/><text x="675.7396" y="700.9583" fill="#343A40" font-size="12.5" lengthAdjust="spacing" textLength="204.1931" font-family="'Verdana'">banda muerta y venia en reposo</text></g><!--link Enfriando to Publicando--><g class="link" data-entity-1="ent0014" data-entity-2="ent0020" id="lnk21" data-source-line="17" data-link-type="dependency"><path d="M276.2917,789.0326 C368.9583,809.8242 600.7304,861.799 697.3867,883.4761" style="stroke:#2FA4E7;stroke-width:3.125;" fill="none" id="Enfriando-to-Publicando"/><polygon points="702.4687,884.6159,694.2328,878.4986,697.3867,883.4761,692.4092,886.63,702.4687,884.6159" fill="#2FA4E7" style="stroke:#2FA4E7;stroke-width:3.125;stroke-linejoin:miter;stroke-miterlimit:10;"/></g><!--link Reposo to Publicando--><g class="link" data-entity-1="ent0016" data-entity-2="ent0020" id="lnk22" data-source-line="18" data-link-type="dependency"><path d="M683.8958,805.9805 C696.7604,824.6784 711.2139,845.6796 724.068,864.3567" style="stroke:#2FA4E7;stroke-width:3.125;" fill="none" id="Reposo-to-Publicando"/><polygon points="727.0208,868.6471,725.1381,858.5621,724.068,864.3567,718.2735,863.2866,727.0208,868.6471" fill="#2FA4E7" style="stroke:#2FA4E7;stroke-width:3.125;stroke-linejoin:miter;stroke-miterlimit:10;"/></g><!--link ErrorSensor to Publicando--><g class="link" data-entity-1="ent0012" data-entity-2="ent0020" id="lnk23" data-source-line="19" data-link-type="dependency"><path d="M911.1875,714.1471 C903.875,716.8555 896.375,719.6159 889.2813,722.168 C849.1979,736.5951 829.3125,723.8346 798.6563,753.418 C766.2708,784.668 753.8232,832.2715 748.5628,863.5111" style="stroke:#2FA4E7;stroke-width:3.125;" fill="none" id="ErrorSensor-to-Publicando"/><polygon points="747.6979,868.6471,753.3635,860.0942,748.5628,863.5111,745.1458,858.7104,747.6979,868.6471" fill="#2FA4E7" style="stroke:#2FA4E7;stroke-width:3.125;stroke-linejoin:miter;stroke-miterlimit:10;"/><text x="799.6979" y="784.2916" fill="#343A40" font-size="12.5" lengthAdjust="spacing" textLength="212.8906" font-family="'Verdana'">status CRITICAL / SENSOR_ERROR</text></g><!--link Publicando to Esperando--><g class="link" data-entity-1="ent0020" data-entity-2="ent0024" id="lnk25" data-source-line="20" data-link-type="dependency"><path d="M783.6042,921.5013 C807.9063,936.4909 840.1979,955.0013 870.5313,968.0013 C919.2604,988.8867 973.1737,1003.9466 1011.8091,1013.5195" style="stroke:#2FA4E7;stroke-width:3.125;" fill="none" id="Publicando-to-Esperando"/><polygon points="1016.8646,1014.7721,1008.7669,1008.4731,1011.8091,1013.5195,1006.7627,1016.5618,1016.8646,1014.7721" fill="#2FA4E7" style="stroke:#2FA4E7;stroke-width:3.125;stroke-linejoin:miter;stroke-miterlimit:10;"/><text x="871.5729" y="965.0208" fill="#343A40" font-size="12.5" lengthAdjust="spacing" textLength="158.4045" font-family="'Verdana'">POST /api/measurements</text></g><!--link ErrorConfig to Esperando--><g class="link" data-entity-1="ent0008" data-entity-2="ent0024" id="lnk26" data-source-line="21" data-link-type="dependency"><path d="M1047.875,555.8242 C1051.8854,588.0951 1058.0313,645.6263 1058.0313,695.0846 C1058.0313,695.0846 1058.0313,695.0846 1058.0313,896.1263 C1058.0313,931.9388 1058.0313,968.1784 1058.0313,994.0013" style="stroke:#2FA4E7;stroke-width:3.125;" fill="none" id="ErrorConfig-to-Esperando"/><polygon points="1058.0313,999.2096,1062.1979,989.8346,1058.0313,994.0013,1053.8646,989.8346,1058.0313,999.2096" fill="#2FA4E7" style="stroke:#2FA4E7;stroke-width:3.125;stroke-linejoin:miter;stroke-miterlimit:10;"/><text x="1059.0729" y="784.2916" fill="#343A40" font-size="12.5" lengthAdjust="spacing" textLength="57.2876" font-family="'Verdana'">reintento</text></g><!--link Esperando to ObteniendoConfig--><g class="link" data-entity-1="ent0024" data-entity-2="ent0004" id="lnk27" data-source-line="22" data-link-type="dependency"><path d="M1099.0104,1007.9388 C1140.8438,988.2513 1199.6979,950.8451 1199.6979,896.1263 C1199.6979,445.0846 1199.6979,445.0846 1199.6979,445.0846 C1199.6979,411.5534 1200.8125,396.5846 1176.7813,373.2096 C1141.5833,338.9701 1092.0743,325.9914 1049.5952,320.6789" style="stroke:#2FA4E7;stroke-width:3.125;" fill="none" id="Esperando-to-ObteniendoConfig"/><polygon points="1044.4271,320.0326,1053.2126,325.3304,1049.5952,320.6789,1054.2467,317.0615,1044.4271,320.0326" fill="#2FA4E7" style="stroke:#2FA4E7;stroke-width:3.125;stroke-linejoin:miter;stroke-miterlimit:10;"/><text x="1200.7396" y="700.9583" fill="#343A40" font-size="12.5" lengthAdjust="spacing" textLength="221.5942" font-family="'Verdana'">paso measurementIntervalSeconds</text></g><?plantuml-src VLF1Rjim3BthApZii6P0bdiE0uOqwG9aJU5afw4OQ9jnXSgIIqdflDC-Ob-uBndbPecJ9VN59ldU8_L4lmaFL1CKnD4Gsg6BmMXBoZzgso1Z3JaMZnMxQCk9CuxXxQnxUWZ_WALxrhQ23HfFwXrSQwoaWb0IrFWKjUq-oGT1UhZw-cKnW3-_VaEX2-DIgN0si3D05Wn2Xhx9YRc54TnWe6TiFwYWWo6Od3Akpe07IdrxVm_3uKUOMrreDFedsjAfewYhB_D0LfE44sStke8n83FQfqZglreYBAXDcHLPBswCqnofX4NGMmJNKKeypvqoEzxtyTecDltGpihik_0WfevRTG9RDB6RVGo6YX0PGLAfuHbmwhQVK-xcnRX_lElFQtNGwmXsmtgdxcD30efrpYWcCnbiONaxEA5ar3YVy2MbwqZwObxbzepPRF1AbrpU27Ka3WWjRCKob1tO0Ixrki02xW3gq22nxc9kTD79xGHEidsRZal9Xe0XUfXay_LyycaXrxIQtgwMsVTfbYqprSDsH_F9j1VctNArXX4sUbGJ-iZoczdWLNy5JYbCsihM19bfdxsmemtAGNh2So6okBKYMQ7I_mK0?></g></svg>