<svg xmlns="http://www.w3.org/2000/svg" xmlns:xlink="http://www.w3.org/1999/xlink" version="1.1" data-diagram-type="STATE" style="width:428px;height:361px;background:#FFFFFF;" width="428.125px" height="361.4583px" viewBox="0 0 428 361" zoomAndPan="magnify" preserveAspectRatio="none" contentStyleType="text/css"><?plantuml 1.2026.7beta3?><defs/><g><g class="title" data-source-line="5"><rect x="138.3983" y="20.8333" width="149.646" height="36.7513" fill="none" style="stroke:#BABDBF;stroke-width:1.0417;" rx="4.1667" ry="4.1667"/><text x="144.6483" y="46.4213" fill="#2FA4E7" font-size="20.8333" lengthAdjust="spacing" textLength="137.146" font-weight="700" font-family="'Verdana'">Sensor DHT</text></g><g class="start_entity" data-qualified-name=".start." id="ent0001" data-source-line="7"><ellipse cx="129.6042" cy="85.7096" rx="10.4167" ry="10.4167" fill="#033C73" style="stroke:#2683B9;stroke-width:1.0417;"/></g><g class="entity" data-qualified-name="LecturaOK" id="ent0002" data-source-line="7"><rect x="89.3125" y="159.668" width="80.5868" height="52.0833" fill="none" style="stroke:#2FA4E7;stroke-width:1.0417;" rx="4.1667" ry="4.1667"/><line x1="89.3125" y1="183.4229" x2="169.8993" y2="183.4229" style="stroke:#2FA4E7;stroke-width:1.0417;"/><text x="99.7292" y="175.5122" fill="#BABDBF" font-size="11.4583" lengthAdjust="spacing" textLength="59.7534" font-family="'Verdana'">LecturaOK</text></g><g class="entity" data-qualified-name="Error" id="ent0005" data-source-line="9"><rect x="103.5625" y="289.8763" width="52.0833" height="52.0833" fill="none" style="stroke:#2FA4E7;stroke-width:1.0417;" rx="4.1667" ry="4.1667"/><line x1="103.5625" y1="313.6312" x2="155.6458" y2="313.6312" style="stroke:#2FA4E7;stroke-width:1.0417;"/><text x="115.4127" y="305.7205" fill="#BABDBF" font-size="11.4583" lengthAdjust="spacing" textLength="28.3829" font-family="'Verdana'">Error</text></g><!--link *start* to LecturaOK--><g class="link" data-entity-1="ent0001" data-entity-2="ent0002" id="lnk3" data-source-line="7" data-link-type="dependency"><path d="M129.6042,96.5013 C129.6042,111.0117 129.6042,133.5742 129.6042,154.0951" style="stroke:#2FA4E7;stroke-width:3.125;" fill="none" id="*start*-to-LecturaOK"/><polygon points="129.6042,159.3034,133.7708,149.9284,129.6042,154.0951,125.4375,149.9284,129.6042,159.3034" fill="#2FA4E7" style="stroke:#2FA4E7;stroke-width:3.125;stroke-linejoin:miter;stroke-miterlimit:10;"/></g><!--link LecturaOK to LecturaOK--><g class="link" data-entity-1="ent0002" data-entity-2="ent0002" id="lnk4" data-source-line="8" data-link-type="dependency"><path d="M170.2708,175.1055 C189.4792,173.8763 206.3542,177.4076 206.3542,185.7096 C206.3542,194.0117 194.6769,197.8756 175.4685,196.6464" style="stroke:#2FA4E7;stroke-width:3.125;" fill="none" id="LecturaOK-to-LecturaOK"/><polygon points="170.2708,196.3138,179.3606,201.0707,175.4685,196.6464,179.8928,192.7543,170.2708,196.3138" fill="#2FA4E7" style="stroke:#2FA4E7;stroke-width:3.125;stroke-linejoin:miter;stroke-miterlimit:10;"/><text x="212.6042" y="190.5416" fill="#343A40" font-size="12.5" lengthAdjust="spacing" textLength="85.2295" font-family="'Verdana'">lectura valida</text></g><!--link LecturaOK to Error--><g class="link" data-entity-1="ent0002" data-entity-2="ent0005" id="lnk6" data-source-line="9" data-link-type="dependency"><path d="M88.8646,199.9596 C68.7917,208.7617 46.4583,222.543 34.8125,243.0013 C16.6667,274.8555 64.2903,295.538 98.2382,306.1734" style="stroke:#2FA4E7;stroke-width:3.125;" fill="none" id="LecturaOK-to-Error"/><polygon points="103.2083,307.7305,95.5077,300.9516,98.2382,306.1734,93.0164,308.9038,103.2083,307.7305" fill="#2FA4E7" style="stroke:#2FA4E7;stroke-width:3.125;stroke-linejoin:miter;stroke-miterlimit:10;"/><text x="35.8542" y="255.6458" fill="#343A40" font-size="12.5" lengthAdjust="spacing" textLength="139.9658" font-family="'Verdana'">timeout / CRC invalido</text></g><!--link Error to LecturaOK--><g class="link" data-entity-1="ent0005" data-entity-2="ent0002" id="lnk7" data-source-line="10" data-link-type="dependency"><path d="M155.9479,296.5846 C172.1458,282.8971 188.4167,263.1367 180.6458,243.0013 C176.2292,231.5638 171.8596,224.7961 163.5367,215.9941" style="stroke:#2FA4E7;stroke-width:3.125;" fill="none" id="Error-to-LecturaOK"/><polygon points="159.9583,212.2096,163.3719,221.8843,163.5367,215.9941,169.427,216.1589,159.9583,212.2096" fill="#2FA4E7" style="stroke:#2FA4E7;stroke-width:3.125;stroke-linejoin:miter;stroke-miterlimit:10;"/><text x="182.7292" y="255.6458" fill="#343A40" font-size="12.5" lengthAdjust="spacing" textLength="85.2295" font-family="'Verdana'">lectura valida</text></g><!--link Error to Error--><g class="link" data-entity-1="ent0005" data-entity-2="ent0005" id="lnk8" data-source-line="11" data-link-type="dependency"><path d="M155.9375,304.9076 C174.1563,301.5638 192.1042,305.2409 192.1042,315.918 C192.1042,326.5951 179.279,331.2123 161.0603,327.8686" style="stroke:#2FA4E7;stroke-width:3.125;" fill="none" id="Error-to-Error"/><polygon points="155.9375,326.9284,164.4063,332.719,161.0603,327.8686,165.9106,324.5225,155.9375,326.9284" fill="#2FA4E7" style="stroke:#2FA4E7;stroke-width:3.125;stroke-linejoin:miter;stroke-miterlimit:10;"/><text x="198.3542" y="320.7499" fill="#343A40" font-size="12.5" lengthAdjust="spacing" textLength="203.0884" font-family="'Verdana'">sigue fallando (SENSOR_ERROR)</text></g><?plantuml-src XO-xJiD044Nx_OgBA4YG37qA6iS8YO2bDLG8eS4xEAEiTs4VqF8HV25VmkA8y6YOwkhUeoFDNbhpoEWvPClaAf-J5SSgRiGzKg0HzzHlXk2pCxMtFc3_TBeVH5oJyI_Y1ZoGZQmEi1GQoa8mZ96UihWfSao5Z9XTNwpcU7zzGsGNYtDvTdMaaYJBw7QDKZU7jwYg4wouJpbGUwvswNUF1Umsuvci6Fe3DY4Kvm99HYuVuXYrhY5kWhtQplyOlw4lMvGXy-VFbfpnc7NDPTVgkqRhLiy_0000?></g></svg>