<svg xmlns="http://www.w3.org/2000/svg" xmlns:xlink="http://www.w3.org/1999/xlink" version="1.1" data-diagram-type="STATE" style="width:526px;height:491px;background:#FFFFFF;" width="526.0417px" height="491.6667px" viewBox="0 0 526 491" zoomAndPan="magnify" preserveAspectRatio="none" contentStyleType="text/css"><?plantuml 1.2026.7beta3?><defs/><g><g class="title" data-source-line="5"><rect x="203.1255" y="20.8333" width="117.9179" height="36.7513" fill="none" style="stroke:#BABDBF;stroke-width:1.0417;" rx="4.1667" ry="4.1667"/><text x="209.3755" y="46.4213" fill="#2FA4E7" font-size="20.8333" lengthAdjust="spacing" textLength="105.4179" font-weight="700" font-family="'Verdana'">OpenPLC</text></g><g class="start_entity" data-qualified-name=".start." id="ent0001" data-source-line="7"><ellipse cx="192.7215" cy="85.7096" rx="10.4167" ry="10.4167" fill="#033C73" style="stroke:#2683B9;stroke-width:1.0417;"/></g><g class="entity" data-qualified-name="EsperandoDatos" id="ent0002" data-source-line="7"><rect x="135.2423" y="159.668" width="114.9618" height="52.0833" fill="none" style="stroke:#2FA4E7;stroke-width:1.0417;" rx="4.1667" ry="4.1667"/><line x1="135.2423" y1="183.4229" x2="250.2041" y2="183.4229" style="stroke:#2FA4E7;stroke-width:1.0417;"/><text x="145.659" y="175.5122" fill="#BABDBF" font-size="11.4583" lengthAdjust="spacing" textLength="94.1284" font-family="'Verdana'">EsperandoDatos</text></g><g class="entity" data-qualified-name="Evaluando" id="ent0004" data-source-line="8"><rect x="19.9819" y="289.8763" width="80.8889" height="52.0833" fill="none" style="stroke:#2FA4E7;stroke-width:1.0417;" rx="4.1667" ry="4.1667"/><line x1="19.9819" y1="313.6312" x2="100.8708" y2="313.6312" style="stroke:#2FA4E7;stroke-width:1.0417;"/><text x="30.3986" y="305.7205" fill="#BABDBF" font-size="11.4583" lengthAdjust="spacing" textLength="60.0555" font-family="'Verdana'">Evaluando</text></g><g class="entity" data-qualified-name="SalidaActualizada" id="ent0006" data-source-line="9"><rect x="147.1381" y="420.0846" width="122.403" height="52.0833" fill="none" style="stroke:#2FA4E7;stroke-width:1.0417;" rx="4.1667" ry="4.1667"/><line x1="147.1381" y1="443.8395" x2="269.5411" y2="443.8395" style="stroke:#2FA4E7;stroke-width:1.0417;"/><text x="157.5548" y="435.9289" fill="#BABDBF" font-size="11.4583" lengthAdjust="spacing" textLength="101.5696" font-family="'Verdana'">SalidaActualizada</text></g><!--link *start* to EsperandoDatos--><g class="link" data-entity-1="ent0001" data-entity-2="ent0002" id="lnk3" data-source-line="7" data-link-type="dependency"><path d="M192.7215,96.5013 C192.7215,111.0117 192.7215,133.5742 192.7215,154.0951" style="stroke:#2FA4E7;stroke-width:3.125;" fill="none" id="*start*-to-EsperandoDatos"/><polygon points="192.7215,159.3034,196.8881,149.9284,192.7215,154.0951,188.5548,149.9284,192.7215,159.3034" fill="#2FA4E7" style="stroke:#2FA4E7;stroke-width:3.125;stroke-linejoin:miter;stroke-miterlimit:10;"/></g><!--link EsperandoDatos to Evaluando--><g class="link" data-entity-1="ent0002" data-entity-2="ent0004" id="lnk5" data-source-line="8" data-link-type="dependency"><path d="M134.7423,189.9284 C97.3881,195.3555 51.409,209.0638 27.0965,243.0013 C16.8361,257.3138 22.0247,271.1307 32.9205,285.5161" style="stroke:#2FA4E7;stroke-width:3.125;" fill="none" id="EsperandoDatos-to-Evaluando"/><polygon points="36.0652,289.668,33.7263,279.6789,32.9205,285.5161,27.0833,284.7104,36.0652,289.668" fill="#2FA4E7" style="stroke:#2FA4E7;stroke-width:3.125;stroke-linejoin:miter;stroke-miterlimit:10;"/><text x="28.1381" y="255.6458" fill="#343A40" font-size="12.5" lengthAdjust="spacing" textLength="299.2859" font-family="'Verdana'">recibe registros Modbus (temp, hum, umbrales)</text></g><!--link Evaluando to SalidaActualizada--><g class="link" data-entity-1="ent0004" data-entity-2="ent0006" id="lnk7" data-source-line="9" data-link-type="dependency"><path d="M64.9923,342.4701 C68.8152,357.5013 75.6277,376.0221 87.5131,388.8346 C103.4819,406.0534 120.9694,416.473 142.0736,425.1813" style="stroke:#2FA4E7;stroke-width:3.125;" fill="none" id="Evaluando-to-SalidaActualizada"/><polygon points="146.8881,427.168,139.8113,419.7403,142.0736,425.1813,136.6326,427.4436,146.8881,427.168" fill="#2FA4E7" style="stroke:#2FA4E7;stroke-width:3.125;stroke-linejoin:miter;stroke-miterlimit:10;"/><text x="88.5548" y="385.8541" fill="#343A40" font-size="12.5" lengthAdjust="spacing" textLength="239.1418" font-family="'Verdana'">calcula COOLER_ON / SENSOR_ERROR</text></g><!--link SalidaActualizada to EsperandoDatos--><g class="link" data-entity-1="ent0006" data-entity-2="ent0002" id="lnk8" data-source-line="10" data-link-type="dependency"><path d="M269.8986,432.2721 C293.5756,424.0221 318.284,410.5846 332.3048,388.8346 C367.409,334.3555 368.5652,296.7201 332.3048,243.0013 C314.0236,215.9388 285.3738,203.1265 255.6655,195.8453" style="stroke:#2FA4E7;stroke-width:3.125;" fill="none" id="SalidaActualizada-to-EsperandoDatos"/><polygon points="250.6069,194.6055,258.7205,200.884,255.6655,195.8453,260.7043,192.7903,250.6069,194.6055" fill="#2FA4E7" style="stroke:#2FA4E7;stroke-width:3.125;stroke-linejoin:miter;stroke-miterlimit:10;"/><text x="359.3881" y="320.7499" fill="#343A40" font-size="12.5" lengthAdjust="spacing" textLength="144.989" font-family="'Verdana'">el gateway lee los coils</text></g><?plantuml-src PKxBJiD03BplLnXnWA86xXoGK1fEQOCISKAeSdPDigftD-o32avy15_8bx0jGXJL5y_OCsEVn94CWIIVcD0MBaNMbaJOQ3kXHmCzoitWNRAgTEmydDxjwq0HHbHkg-q0pyY1n1aiD0vvWw083BuaRVUGGipA0ESFote6Nn-Vq4nax-loKaGTcNwf48yNJr0KDr25YJnQvHOONH3_wO_Y5JdjHd0DdgJkART1X-YpOEbKd_AzI6QQmvZC79BfFJA5cVXpxd8wPAtmLiQKmJigp7aIMIP6A9kchjfriu8hwAfLrxJhgcsRLXoRZf_EESGmOAGjlW4J0UUXT9h3Dm00?></g></svg>