<svg xmlns="http://www.w3.org/2000/svg" xmlns:xlink="http://www.w3.org/1999/xlink" version="1.1" data-diagram-type="STATE" style="width:420px;height:315px;background:#FFFFFF;" width="420px" height="315px" viewBox="0 0 420 315" zoomAndPan="magnify" preserveAspectRatio="none" contentStyleType="text/css"><?plantuml 1.2026.7beta3?><defs/><g><g class="title" data-source-line="2"><text x="160.9049" y="22.9951" fill="#000000" font-size="14" lengthAdjust="spacing" textLength="92.1621" font-weight="700" font-family="sans-serif">Sensor DHT</text></g><g class="start_entity" data-qualified-name=".start." id="ent0001" data-source-line="4"><ellipse cx="120.42" cy="53.2969" rx="10" ry="10" fill="#222222" style="stroke:#222222;stroke-width:1;"/></g><g class="entity" data-qualified-name="LecturaOK" id="ent0002" data-source-line="4"><rect x="73.92" y="124.2969" width="93.0078" height="50" fill="#F1F1F1" style="stroke:#181818;stroke-width:0.5;" rx="12.5" ry="12.5"/><line x1="73.92" y1="150.5938" x2="166.9278" y2="150.5938" style="stroke:#181818;stroke-width:0.5;"/><text x="83.92" y="142.292" fill="#000000" font-size="14" lengthAdjust="spacing" textLength="73.0078" font-family="sans-serif">LecturaOK</text></g><g class="entity" data-qualified-name="Error" id="ent0005" data-source-line="6"><rect x="93.08" y="251.2969" width="54.6787" height="50" fill="#F1F1F1" style="stroke:#181818;stroke-width:0.5;" rx="12.5" ry="12.5"/><line x1="93.08" y1="277.5938" x2="147.7587" y2="277.5938" style="stroke:#181818;stroke-width:0.5;"/><text x="103.08" y="269.292" fill="#000000" font-size="14" lengthAdjust="spacing" textLength="34.6787" font-family="sans-serif">Error</text></g><!--link *start* to LecturaOK--><g class="link" data-entity-1="ent0001" data-entity-2="ent0002" id="lnk3" data-source-line="4" data-link-type="dependency"><path d="M120.42,63.6569 C120.42,77.5869 120.42,99.2469 120.42,118.9469" style="stroke:#181818;stroke-width:1;" fill="none" id="*start*-to-LecturaOK"/><polygon points="120.42,123.9469,124.42,114.9469,120.42,118.9469,116.42,114.9469,120.42,123.9469" fill="#181818" style="stroke:#181818;stroke-width:1;stroke-linejoin:miter;stroke-miterlimit:10;"/></g><!--link LecturaOK to LecturaOK--><g class="link" data-entity-1="ent0002" data-entity-2="ent0002" id="lnk4" data-source-line="5" data-link-type="dependency"><path d="M167.32,138.9569 C186.14,138.3669 201.93,141.8169 201.93,149.2969 C201.93,156.7769 191.1375,160.3835 172.3175,159.7935" style="stroke:#181818;stroke-width:1;" fill="none" id="LecturaOK-to-LecturaOK"/><polygon points="167.32,159.6369,176.1902,163.9169,172.3175,159.7935,176.4409,155.9208,167.32,159.6369" fill="#181818" style="stroke:#181818;stroke-width:1;stroke-linejoin:miter;stroke-miterlimit:10;"/><text x="207.93" y="153.8638" fill="#000000" font-size="13" lengthAdjust="spacing" textLength="88.6387" font-family="sans-serif">lectura valida</text></g><!--link LecturaOK to Error--><g class="link" data-entity-1="ent0002" data-entity-2="ent0005" id="lnk6" data-source-line="6" data-link-type="dependency"><path d="M73.48,164.8969 C54.78,173.2769 35.19,185.8969 24.42,204.2969 C6,235.7869 53.4976,256.0778 87.9776,266.5978" style="stroke:#181818;stroke-width:1;" fill="none" id="LecturaOK-to-Error"/><polygon points="92.76,268.0569,85.319,261.6046,87.9776,266.5978,82.9845,269.2563,92.76,268.0569" fill="#181818" style="stroke:#181818;stroke-width:1;stroke-linejoin:miter;stroke-miterlimit:10;"/><text x="25.42" y="217.3638" fill="#000000" font-size="13" lengthAdjust="spacing" textLength="145.5645" font-family="sans-serif">timeout / CRC invalido</text></g><!--link Error to LecturaOK--><g class="link" data-entity-1="ent0005" data-entity-2="ent0002" id="lnk7" data-source-line="7" data-link-type="dependency"><path d="M148.15,258.0269 C165.88,244.5969 184.05,224.8569 175.42,204.2969 C170.71,193.0669 166.0275,186.438 157.2675,178.128" style="stroke:#181818;stroke-width:1;" fill="none" id="Error-to-LecturaOK"/><polygon points="153.64,174.6869,157.4166,183.7829,157.2675,178.128,162.9224,177.9789,153.64,174.6869" fill="#181818" style="stroke:#181818;stroke-width:1;stroke-linejoin:miter;stroke-miterlimit:10;"/><text x="178.42" y="217.3638" fill="#000000" font-size="13" lengthAdjust="spacing" textLength="88.6387" font-family="sans-serif">lectura valida</text></g><!--link Error to Error--><g class="link" data-entity-1="ent0005" data-entity-2="ent0005" id="lnk8" data-source-line="8" data-link-type="dependency"><path d="M147.98,265.3369 C165.7,262.4769 182.76,266.1269 182.76,276.2969 C182.76,286.4669 170.6361,290.9136 152.9161,288.0536" style="stroke:#181818;stroke-width:1;" fill="none" id="Error-to-Error"/><polygon points="147.98,287.2569,156.2277,292.6398,152.9161,288.0536,157.5024,284.742,147.98,287.2569" fill="#181818" style="stroke:#181818;stroke-width:1;stroke-linejoin:miter;stroke-miterlimit:10;"/><text x="188.76" y="280.8638" fill="#000000" font-size="13" lengthAdjust="spacing" textLength="211.2119" font-family="sans-serif">sigue fallando (SENSOR_ERROR)</text></g><?plantuml-src XOoz2i8m64NtFCNTR8Ngti6bBGXM2wbE8l9XOmca2UR7sOVm2NqIfSMABcw7UmzdWbnIQwaZD08TNOBKFGhdgJ4EqMvTndZSxd12EsEHBxSpvgLN0lMuCBQV7f0a2vJYv8EbQiL6-jwHGWsCAodPq8zOMFjgfl2o4oPup97n35Btic73_QVuaTur9ziWS2QbI3S6KLriweeV2yuh7Zy1?></g></svg>