<svg xmlns="http://www.w3.org/2000/svg" xmlns:xlink="http://www.w3.org/1999/xlink" version="1.1" data-diagram-type="STATE" style="width:419px;height:315px;background:#FFFFFF;" width="419px" height="315px" viewBox="0 0 419 315" zoomAndPan="magnify" preserveAspectRatio="none" contentStyleType="text/css"><?plantuml 1.2026.7beta3?><defs/><g><g class="title" data-source-line="39"><text x="160.3899" y="22.9951" fill="#0F172A" font-size="14" lengthAdjust="spacing" textLength="92.1621" font-weight="700" font-family="sans-serif">Sensor DHT</text></g><g class="start_entity" data-qualified-name=".start." id="ent0001" data-source-line="41"><ellipse cx="120.63" cy="53.2969" rx="10" ry="10" fill="#222222" style="stroke:#222222;stroke-width:1;"/></g><g class="entity" data-qualified-name="LecturaOK" id="ent0002" data-source-line="41"><rect x="76.74" y="124.2969" width="87.793" height="50" fill="#F8FAFC" style="stroke:#0891B2;stroke-width:0.5;" rx="6" ry="6"/><line x1="76.74" y1="149.4297" x2="164.533" y2="149.4297" style="stroke:#0891B2;stroke-width:0.5;"/><text x="86.74" y="141.3638" fill="#0F172A" font-size="13" lengthAdjust="spacing" textLength="67.793" font-family="sans-serif">LecturaOK</text></g><g class="entity" data-qualified-name="Error" id="ent0005" data-source-line="43"><rect x="94.53" y="251.2969" width="52.2017" height="50" fill="#F8FAFC" style="stroke:#0891B2;stroke-width:0.5;" rx="6" ry="6"/><line x1="94.53" y1="276.4297" x2="146.7317" y2="276.4297" style="stroke:#0891B2;stroke-width:0.5;"/><text x="104.53" y="268.3638" fill="#0F172A" font-size="13" lengthAdjust="spacing" textLength="32.2017" font-family="sans-serif">Error</text></g><!--link *start* to LecturaOK--><g class="link" data-entity-1="ent0001" data-entity-2="ent0002" id="lnk3" data-source-line="41" data-link-type="dependency"><path d="M120.63,63.6569 C120.63,77.5869 120.63,99.2469 120.63,118.9469" style="stroke:#64748B;stroke-width:1.1;" fill="none" id="*start*-to-LecturaOK"/><polygon points="120.63,123.9469,124.63,114.9469,120.63,118.9469,116.63,114.9469,120.63,123.9469" fill="#64748B" style="stroke:#64748B;stroke-width:1.1;stroke-linejoin:miter;stroke-miterlimit:10;"/></g><!--link LecturaOK to LecturaOK--><g class="link" data-entity-1="ent0002" data-entity-2="ent0002" id="lnk4" data-source-line="42" data-link-type="dependency"><path d="M164.84,138.9969 C183.57,138.2169 199.53,141.6569 199.53,149.2969 C199.53,156.9369 188.5657,160.5849 169.8357,159.8049" style="stroke:#64748B;stroke-width:1.1;" fill="none" id="LecturaOK-to-LecturaOK"/><polygon points="164.84,159.5969,173.6658,163.9679,169.8357,159.8049,173.9986,155.9748,164.84,159.5969" fill="#64748B" style="stroke:#64748B;stroke-width:1.1;stroke-linejoin:miter;stroke-miterlimit:10;"/><text x="205.53" y="153.8638" fill="#475569" font-size="13" lengthAdjust="spacing" textLength="88.6387" font-family="sans-serif">lectura valida</text></g><!--link LecturaOK to Error--><g class="link" data-entity-1="ent0002" data-entity-2="ent0005" id="lnk6" data-source-line="43" data-link-type="dependency"><path d="M76.45,163.6869 C56.95,172.0469 35.93,184.9869 24.63,204.2969 C6,236.1469 54.9022,256.5957 89.3522,266.9657" style="stroke:#64748B;stroke-width:1.1;" fill="none" id="LecturaOK-to-Error"/><polygon points="94.14,268.4069,86.6749,261.9825,89.3522,266.9657,84.369,269.6429,94.14,268.4069" fill="#64748B" style="stroke:#64748B;stroke-width:1.1;stroke-linejoin:miter;stroke-miterlimit:10;"/><text x="25.63" y="217.3638" fill="#475569" font-size="13" lengthAdjust="spacing" textLength="145.5645" font-family="sans-serif">timeout / CRC invalido</text></g><!--link Error to LecturaOK--><g class="link" data-entity-1="ent0005" data-entity-2="ent0002" id="lnk7" data-source-line="44" data-link-type="dependency"><path d="M146.88,259.1369 C165.05,245.7069 184.5,225.4369 175.63,204.2969 C170.92,193.0669 166.2375,186.438 157.4775,178.128" style="stroke:#64748B;stroke-width:1.1;" fill="none" id="Error-to-LecturaOK"/><polygon points="153.85,174.6869,157.6266,183.7829,157.4775,178.128,163.1324,177.9789,153.85,174.6869" fill="#64748B" style="stroke:#64748B;stroke-width:1.1;stroke-linejoin:miter;stroke-miterlimit:10;"/><text x="178.63" y="217.3638" fill="#475569" font-size="13" lengthAdjust="spacing" textLength="88.6387" font-family="sans-serif">lectura valida</text></g><!--link Error to Error--><g class="link" data-entity-1="ent0005" data-entity-2="ent0005" id="lnk8" data-source-line="45" data-link-type="dependency"><path d="M147.01,265.4369 C164.61,262.3869 181.73,266.0069 181.73,276.2969 C181.73,286.5869 169.5366,291.0606 151.9366,288.0106" style="stroke:#64748B;stroke-width:1.1;" fill="none" id="Error-to-Error"/><polygon points="147.01,287.1569,155.1948,292.6349,151.9366,288.0106,156.5608,284.7524,147.01,287.1569" fill="#64748B" style="stroke:#64748B;stroke-width:1.1;stroke-linejoin:miter;stroke-miterlimit:10;"/><text x="187.73" y="280.8638" fill="#475569" font-size="13" lengthAdjust="spacing" textLength="211.2119" font-family="sans-serif">sigue fallando (SENSOR_ERROR)</text></g><?plantuml-src ZPNTRjem5CVlUOeZxQ8mbOw4X8zDcXJoqKfbGuBkQfecavZK8x5JssdLNUqXzeHxaZafK8T4IP50LixF_tEEVVBd0eR38M0XIS8WPH7cb84vCYVGtoL8NWB74QCHHX6xX0mbM2A8S08PPyyubEmJx5IOGPWWpXJ04IGu9bkIa0X5W2bS4tcJRmT5dfxO4remAMnHk8yvosdaieHnU1UK7uqGzohd4w4nx50Yi1OvRECKSp1CBU3X7SeJ6J0g3wgZm9YQJZEo8Ryn66Cjw73EdWux9zRKcYtEWvgqDRNjoVmSkBiduPvY8S2uChIWEXyX5hMcPu4Jk3MCSNKFnmvcSsDXDYEjoHmfETdc4cirZyUMOTlw8KiaSNTPBrXhMRd08H9rBTyD_Cgz7i5MDQH6YzVh2dpFiskOhkIQbZ7IIy-K28eRUZG2EvWtWBhQt7B6Yvb-iYpD6CLKlk4gJsXhfrIzSzrY9QNhrAPF_KeIaWmrrLRlzHLkxLVWXnpJ42_9JdrfjGPtuTc-qK1Vg-HPTnMKDSsU7ypTyJbLIUlCd95LdGBoIEHpzp6UoAxXAocFe5IPsvl6iBAXTI3PzfSopkvQ3rn3fHUW4iMAAQmOKlIG4rekbOqhpnJG__PbEO1_V_wg6w52xVHkxgvwaiW4m-RqfDVx_lw7ikNFi5I9SevMjxtJgleSFYfNBzVmY0fdFmDzPNrSGPAacEKIFe2xTe7G4cQzbt27uYjqL1Capd7X_Wag_cBw6__hPhN-wQ_Ng_NWFm00?></g></svg>