<svg xmlns="http://www.w3.org/2000/svg" xmlns:xlink="http://www.w3.org/1999/xlink" version="1.1" data-diagram-type="STATE" style="width:1104px;height:1157px;background:#FFFFFF;" width="1104px" height="1157px" viewBox="0 0 1104 1157" zoomAndPan="magnify" preserveAspectRatio="none" contentStyleType="text/css"><?plantuml 1.2026.7beta8?><defs/><g font-family="sans-serif" lengthAdjust="spacing"><g class="title" data-source-line="5"><text x="348.787" y="35.421" fill="#000" font-size="22" textLength="404.884" font-weight="700" font-family="Verdana">Ciclo del gateway (Raspberry Pi)</text></g><g class="start_entity" data-qualified-name=".start." id="ent0001" data-source-line="7"><ellipse cx="670" cy="67.609" rx="10" ry="10" fill="#FFF" style="stroke:#000;stroke-width:1;"/></g><g class="entity" data-qualified-name="Inicializando" id="ent0002" data-source-line="7"><rect x="616.46" y="138.609" width="107.09" height="50" fill="#FFF" style="stroke:#000;stroke-width:1;" rx="12.5" ry="12.5"/><line x1="616.46" y1="164.906" x2="723.55" y2="164.906" style="stroke:#000;stroke-width:1;"/><text x="626.46" y="156.604" fill="#000" font-size="14" textLength="87.09" font-family="Verdana">Inicializando</text></g><g class="entity" data-qualified-name="LeyendoSensor" id="ent0004" data-source-line="8"><rect x="606.19" y="280.609" width="127.625" height="50" fill="#FFF" style="stroke:#000;stroke-width:1;" rx="12.5" ry="12.5"/><line x1="606.19" y1="306.906" x2="733.815" y2="306.906" style="stroke:#000;stroke-width:1;"/><text x="616.19" y="298.604" fill="#000" font-size="14" textLength="107.625" font-family="Verdana">LeyendoSensor</text></g><g class="entity" data-qualified-name="ObteniendoConfig" id="ent0006" data-source-line="9"><rect x="402.69" y="407.609" width="146.629" height="50" fill="#FFF" style="stroke:#000;stroke-width:1;" rx="12.5" ry="12.5"/><line x1="402.69" y1="433.906" x2="549.319" y2="433.906" style="stroke:#000;stroke-width:1;"/><text x="412.69" y="425.604" fill="#000" font-size="14" textLength="126.629" font-family="Verdana">ObteniendoConfig</text></g><g class="entity" data-qualified-name="Esperando" id="ent0008" data-source-line="10"><rect x="597.85" y="1093.009" width="94.3" height="50" fill="#FFF" style="stroke:#000;stroke-width:1;" rx="12.5" ry="12.5"/><line x1="597.85" y1="1119.306" x2="692.15" y2="1119.306" style="stroke:#000;stroke-width:1;"/><text x="607.85" y="1111.004" fill="#000" font-size="14" textLength="74.3" font-family="Verdana">Esperando</text></g><g class="entity" data-qualified-name="EscribiendoPLC" id="ent0010" data-source-line="11"><rect x="226.39" y="549.609" width="127.215" height="50" fill="#FFF" style="stroke:#000;stroke-width:1;" rx="12.5" ry="12.5"/><line x1="226.39" y1="575.906" x2="353.605" y2="575.906" style="stroke:#000;stroke-width:1;"/><text x="236.39" y="567.604" fill="#000" font-size="14" textLength="107.215" font-family="Verdana">EscribiendoPLC</text></g><g class="entity" data-qualified-name="LeyendoDecision" id="ent0013" data-source-line="13"><rect x="220.38" y="676.609" width="139.239" height="50" fill="#FFF" style="stroke:#000;stroke-width:1;" rx="12.5" ry="12.5"/><line x1="220.38" y1="702.906" x2="359.619" y2="702.906" style="stroke:#000;stroke-width:1;"/><text x="230.38" y="694.604" fill="#000" font-size="14" textLength="119.239" font-family="Verdana">LeyendoDecision</text></g><g class="entity" data-qualified-name="AccionandoRelay" id="ent0016" data-source-line="15"><rect x="207.85" y="806.309" width="140.299" height="50" fill="#FFF" style="stroke:#000;stroke-width:1;" rx="12.5" ry="12.5"/><line x1="207.85" y1="832.606" x2="348.149" y2="832.606" style="stroke:#000;stroke-width:1;"/><text x="217.85" y="824.304" fill="#000" font-size="14" textLength="120.299" font-family="Verdana">AccionandoRelay</text></g><g class="entity" data-qualified-name="Publicando" id="ent0018" data-source-line="16"><rect x="351.71" y="951.009" width="96.583" height="50" fill="#FFF" style="stroke:#000;stroke-width:1;" rx="12.5" ry="12.5"/><line x1="351.71" y1="977.306" x2="448.293" y2="977.306" style="stroke:#000;stroke-width:1;"/><text x="361.71" y="969.004" fill="#000" font-size="14" textLength="76.583" font-family="Verdana">Publicando</text></g><g class="entity" data-qualified-name="GMN22" id="ent0023" data-source-line="21"><path d="M383.19,803.609 L383.19,859.008 L616.811,859.008 L616.811,813.609 L606.811,803.609 L383.19,803.609" style="stroke:#000;stroke-width:1;" fill="#FFF"/><path d="M606.811,803.609 L606.811,813.609 L616.811,813.609 L606.811,803.609" style="stroke:#000;stroke-width:1;" fill="#FFF"/><text x="389.19" y="820.676" fill="#000" font-size="13" textLength="212.621" font-family="Verdana">El gateway NO evalua umbrales:</text><text x="389.19" y="835.809" fill="#000" font-size="13" textLength="204.801" font-family="Verdana">la histeresis, el anti-ciclado y el</text><text x="389.19" y="850.942" fill="#000" font-size="13" textLength="185.447" font-family="Verdana">fail-safe corren en OpenPLC.</text></g><!--link *start* to Inicializando--><g class="link" data-entity-1="ent0001" data-entity-2="ent0002" id="lnk3" data-source-line="7" data-link-type="dependency"><path d="M670,77.969 C670,91.899 670,113.569 670,133.259" style="stroke:#000;stroke-width:1;" fill="none" id="*start*-to-Inicializando"/><polygon points="670,138.259,674,129.259,670,133.259,666,129.259,670,138.259" fill="#000" style="stroke:#000;stroke-width:1;stroke-linejoin:miter;stroke-miterlimit:10;"/></g><!--link Inicializando to LeyendoSensor--><g class="link" data-entity-1="ent0002" data-entity-2="ent0004" id="lnk5" data-source-line="8" data-link-type="dependency"><path d="M670,188.999 C670,214.689 670,249.909 670,275.509" style="stroke:#000;stroke-width:1;" fill="none" id="Inicializando-to-LeyendoSensor"/><polygon points="670,280.509,674,271.509,670,275.509,666,271.509,670,280.509" fill="#000" style="stroke:#000;stroke-width:1;stroke-linejoin:miter;stroke-miterlimit:10;"/><text x="674.396" y="231.676" fill="#000" font-size="13" textLength="124.205" font-family="Verdana">pigpiod conectado,</text><text x="671" y="246.809" fill="#000" font-size="13" textLength="130.997" font-family="Verdana">relay en OFF seguro</text></g><!--link LeyendoSensor to ObteniendoConfig--><g class="link" data-entity-1="ent0004" data-entity-2="ent0006" id="lnk7" data-source-line="9" data-link-type="dependency"><path d="M605.81,311.269 C568.69,317.269 523.78,330.719 495,360.609 C483.05,373.019 478.977,387.121 477.267,402.371" style="stroke:#000;stroke-width:1;" fill="none" id="LeyendoSensor-to-ObteniendoConfig"/><polygon points="476.71,407.339,481.688,398.841,477.267,402.371,473.738,397.95,476.71,407.339" fill="#000" style="stroke:#000;stroke-width:1;stroke-linejoin:miter;stroke-miterlimit:10;"/><text x="496" y="373.676" fill="#000" font-size="13" textLength="147.183" font-family="Verdana">lectura valida (DHT22)</text></g><!--link LeyendoSensor to Esperando--><g class="link" data-entity-1="ent0004" data-entity-2="ent0008" id="lnk9" data-source-line="10" data-link-type="dependency"><path d="M670,331.039 C670,356.239 670,396.669 670,431.609 C670,431.609 670,431.609 670,977.009 C670,1018.239 660.65,1060.429 653.25,1088.129" style="stroke:#000;stroke-width:1;" fill="none" id="LeyendoSensor-to-Esperando"/><polygon points="651.96,1092.959,658.147,1085.297,653.25,1088.129,650.418,1083.232,651.96,1092.959" fill="#000" style="stroke:#000;stroke-width:1;stroke-linejoin:miter;stroke-miterlimit:10;"/><text x="680.039" y="698.676" fill="#000" font-size="13" textLength="97.64" font-family="Verdana">fallo de lectura</text><text x="671" y="713.809" fill="#000" font-size="13" textLength="115.718" font-family="Verdana">(se omite el ciclo)</text></g><!--link Esperando to LeyendoSensor--><g class="link" data-entity-1="ent0008" data-entity-2="ent0004" id="lnk21" data-source-line="18" data-link-type="dependency"><path d="M692.58,1107.679 C755.08,1092.329 857,1055.299 857,977.009 C857,431.609 857,431.609 857,431.609 C857,370.989 793.009,339.388 738.869,322.748" style="stroke:#000;stroke-width:1;" fill="none" id="Esperando-to-LeyendoSensor"/><polygon points="734.09,321.279,741.518,327.747,738.869,322.748,743.868,320.1,734.09,321.279" fill="#000" style="stroke:#000;stroke-width:1;stroke-linejoin:miter;stroke-miterlimit:10;"/><text x="858" y="698.676" fill="#000" font-size="13" textLength="230.458" font-family="Verdana">paso measurementIntervalSeconds</text><text x="944.246" y="713.809" fill="#000" font-size="13" textLength="57.967" font-family="Verdana">(min 4 s)</text></g><!--link ObteniendoConfig to EscribiendoPLC--><g class="link" data-entity-1="ent0006" data-entity-2="ent0010" id="lnk11" data-source-line="11" data-link-type="dependency"><path d="M402.35,445.319 C355.58,454.439 301.26,468.709 287,487.609 C273.86,505.029 275.436,525.709 280.286,544.429" style="stroke:#000;stroke-width:1;" fill="none" id="ObteniendoConfig-to-EscribiendoPLC"/><polygon points="281.54,549.269,283.155,539.554,280.286,544.429,275.411,541.56,281.54,549.269" fill="#000" style="stroke:#000;stroke-width:1;stroke-linejoin:miter;stroke-miterlimit:10;"/><text x="288" y="508.176" fill="#000" font-size="13" textLength="144.898" font-family="Verdana">config activa obtenida</text></g><!--link ObteniendoConfig to EscribiendoPLC--><g class="link" data-entity-1="ent0006" data-entity-2="ent0010" id="lnk12" data-source-line="12" data-link-type="dependency"><path d="M470.52,457.799 C465.03,476.939 454.78,503.099 437,519.609 C414.09,540.889 386.914,552.6 358.624,560.53" style="stroke:#000;stroke-width:1;" fill="none" id="ObteniendoConfig-to-EscribiendoPLC-1"/><polygon points="353.81,561.879,363.556,563.302,358.624,560.53,361.396,555.599,353.81,561.879" fill="#000" style="stroke:#000;stroke-width:1;stroke-linejoin:miter;stroke-miterlimit:10;"/><text x="465.322" y="500.676" fill="#000" font-size="13" textLength="146.713" font-family="Verdana">backend sin respuesta</text><text x="459" y="515.809" fill="#000" font-size="13" textLength="159.358" font-family="Verdana">(escribe solo temp/hum)</text></g><!--link EscribiendoPLC to LeyendoDecision--><g class="link" data-entity-1="ent0010" data-entity-2="ent0013" id="lnk14" data-source-line="13" data-link-type="dependency"><path d="M290,600.009 C290,622.029 290,649.269 290,671.279" style="stroke:#000;stroke-width:1;" fill="none" id="EscribiendoPLC-to-LeyendoDecision"/><polygon points="290,676.279,294,667.279,290,671.279,286,667.279,290,676.279" fill="#000" style="stroke:#000;stroke-width:1;stroke-linejoin:miter;stroke-miterlimit:10;"/><text x="291" y="642.676" fill="#000" font-size="13" textLength="150.611" font-family="Verdana">Modbus TCP: HR0..HR5</text></g><!--link EscribiendoPLC to Esperando--><g class="link" data-entity-1="ent0010" data-entity-2="ent0008" id="lnk15" data-source-line="14" data-link-type="dependency"><path d="M225.99,577.189 C143.62,583.009 11,606.929 11,700.609 C11,700.609 11,700.609 11,977.009 C11,1097.129 445.421,1114.199 592.611,1116.569" style="stroke:#000;stroke-width:1;" fill="none" id="EscribiendoPLC-to-Esperando"/><polygon points="597.61,1116.649,588.676,1112.505,592.611,1116.569,588.547,1120.504,597.61,1116.649" fill="#000" style="stroke:#000;stroke-width:1;stroke-linejoin:miter;stroke-miterlimit:10;"/><text x="12" y="835.876" fill="#000" font-size="13" textLength="160.659" font-family="Verdana">error Modbus (reintento)</text></g><!--link LeyendoDecision to AccionandoRelay--><g class="link" data-entity-1="ent0013" data-entity-2="ent0016" id="lnk17" data-source-line="15" data-link-type="dependency"><path d="M287.71,726.929 C285.58,749.649 282.877,778.411 280.747,801.101" style="stroke:#000;stroke-width:1;" fill="none" id="LeyendoDecision-to-AccionandoRelay"/><polygon points="280.28,806.079,285.104,797.493,280.747,801.101,277.139,796.745,280.28,806.079" fill="#000" style="stroke:#000;stroke-width:1;stroke-linejoin:miter;stroke-miterlimit:10;"/><text x="286" y="769.676" fill="#000" font-size="13" textLength="112.976" font-family="Verdana">lee coil 0 + HR10</text></g><!--link AccionandoRelay to Publicando--><g class="link" data-entity-1="ent0016" data-entity-2="ent0018" id="lnk19" data-source-line="16" data-link-type="dependency"><path d="M298.7,856.519 C321.13,882.759 353.481,920.599 375.951,946.879" style="stroke:#000;stroke-width:1;" fill="none" id="AccionandoRelay-to-Publicando"/><polygon points="379.2,950.679,376.391,941.239,375.951,946.879,370.311,946.438,379.2,950.679" fill="#000" style="stroke:#000;stroke-width:1;stroke-linejoin:miter;stroke-miterlimit:10;"/><text x="354" y="902.076" fill="#000" font-size="13" textLength="134.354" font-family="Verdana">GPIO14 segun el coil</text><text x="381.711" y="917.209" fill="#000" font-size="13" textLength="78.933" font-family="Verdana">(activo-alto)</text></g><!--link Publicando to Esperando--><g class="link" data-entity-1="ent0018" data-entity-2="ent0008" id="lnk20" data-source-line="17" data-link-type="dependency"><path d="M416.55,1001.369 C430.79,1020.609 452.94,1046.829 478,1063.009 C514.6,1086.649 557.54,1099.642 592.63,1107.462" style="stroke:#000;stroke-width:1;" fill="none" id="Publicando-to-Esperando"/><polygon points="597.51,1108.549,589.596,1102.687,592.63,1107.462,587.855,1110.496,597.51,1108.549" fill="#000" style="stroke:#000;stroke-width:1;stroke-linejoin:miter;stroke-miterlimit:10;"/><text x="479" y="1044.076" fill="#000" font-size="13" textLength="164.741" font-family="Verdana">POST /api/measurements</text><text x="509.107" y="1059.209" fill="#000" font-size="13" textLength="104.527" font-family="Verdana">(backoff si falla)</text></g><!--link LeyendoDecision to GMN22--><g class="link" data-entity-1="ent0013" data-entity-2="ent0023" id="lnk24" data-source-line="21" data-link-type="association"><path d="M350.04,727.019 C368.77,735.499 389.18,745.659 407,756.609 C429.11,770.209 451.99,788.269 469.52,803.119" style="stroke:#000;stroke-width:1;stroke-dasharray:7,7;" fill="none" id="LeyendoDecision-GMN22"/></g><?plantuml-src ZLF1SXen3BtlLwZJGw4Da6JQ2uVET20qp93203qrFMYzsaKJhxsrlMIIKp-YNzWlgUo4X10EtPFNrdkItfFUX0tL18r6Dfc_OTEWmnfoL3ULiwqfHbPR1sydwTkBy1iix2sR2ahKdh9tC6Qiv0MX8AZnLyic7Sa7YVJG-NurwyBVttz0iT9MdZHK6EWMxw3Z9GjC1_CXw0XIxDaQsF9My0Rc3Pd5RDJjPu639XYz9bYYRt9oxWuMtCso7-z_Gg_t6QQ65QFcUpI5pLxyfVSPtP6SLsIyT3c4Xgk6RG7A6bAnxfDhuqXBXbZ6P0AUgjRPx2KkCitpG8RZvSYQaYiXqqBHEeIjf2mGEkFBzVbvzmZsmZVaKat3g6RgROU-DXrFO6iE8eL-qAwRlShsGACSv-bMr18kzV26Al0MmIPCWVy9ZYCWV-3PW2FVjD58gOPI846oB53T33PjtSqEy7lYZdTs3k7A5ddhOJrQ3E5oUThlNou_7KFk2oAcYaoFo8uZDb9zi4ywFj57u1Ubv1YHo-HQD8541zPm2XyavzbfTXWJSOisrwmUCtvTJETd7vFL9cakS6ayoMXxg6FoFS1XmOlvQWq3R7XG4_hMoNwPu8KWAchBKXHDBcCKRGSxEepeBUnnJALp9yEq8Z6sY8orU2E5oi0RA_EHsn1i3ROyb3u3k7XUbczp8A5f4TewTwZ93oL05c_3NZAGPtyI-qOJk1S7JlO0P0EqH9N8kkUnZA8w9qlnl9xzB8vBBEGV?></g></svg>