<svg xmlns="http://www.w3.org/2000/svg" xmlns:xlink="http://www.w3.org/1999/xlink" version="1.1" data-diagram-type="STATE" style="width:1456px;height:1014px;background:#FFFFFF;" width="1456px" height="1014px" viewBox="0 0 1456 1014" zoomAndPan="magnify" preserveAspectRatio="none" contentStyleType="text/css"><?plantuml 1.2026.7beta3?><defs/><g><g class="title" data-source-line="5"><text x="487.3538" y="35.4209" fill="#000000" font-size="22" lengthAdjust="spacing" textLength="479.5205" font-weight="700" font-family="Verdana">Ciclo de control (Raspberry / Gateway)</text></g><g class="start_entity" data-qualified-name=".start." id="ent0001" data-source-line="7"><ellipse cx="983.77" cy="67.6094" rx="10" ry="10" fill="#FFFFFF" style="stroke:#000000;stroke-width:1;"/></g><g class="entity" data-qualified-name="Inicializando" id="ent0002" data-source-line="7"><rect x="930.22" y="138.6094" width="107.0898" height="50" fill="#FFFFFF" style="stroke:#000000;stroke-width:1;" rx="12.5" ry="12.5"/><line x1="930.22" y1="164.9063" x2="1037.3098" y2="164.9063" style="stroke:#000000;stroke-width:1;"/><text x="940.22" y="156.6045" fill="#000000" font-size="14" lengthAdjust="spacing" textLength="87.0898" font-family="Verdana">Inicializando</text></g><g class="entity" data-qualified-name="ObteniendoConfig" id="ent0004" data-source-line="8"><rect x="910.45" y="265.6094" width="146.6289" height="50" fill="#FFFFFF" style="stroke:#000000;stroke-width:1;" rx="12.5" ry="12.5"/><line x1="910.45" y1="291.9063" x2="1057.0789" y2="291.9063" style="stroke:#000000;stroke-width:1;"/><text x="920.45" y="283.6045" fill="#000000" font-size="14" lengthAdjust="spacing" textLength="126.6289" font-family="Verdana">ObteniendoConfig</text></g><g class="entity" data-qualified-name="LeyendoSensor" id="ent0006" data-source-line="9"><rect x="733.96" y="392.6094" width="127.625" height="50" fill="#FFFFFF" style="stroke:#000000;stroke-width:1;" rx="12.5" ry="12.5"/><line x1="733.96" y1="418.9063" x2="861.585" y2="418.9063" style="stroke:#000000;stroke-width:1;"/><text x="743.96" y="410.6045" fill="#000000" font-size="14" lengthAdjust="spacing" textLength="107.625" font-family="Verdana">LeyendoSensor</text></g><g class="entity" data-qualified-name="ErrorConfig" id="ent0008" data-source-line="10"><rect x="1002.97" y="472.6094" width="99.5977" height="50" fill="#FFFFFF" style="stroke:#000000;stroke-width:1;" rx="12.5" ry="12.5"/><line x1="1002.97" y1="498.9063" x2="1102.5677" y2="498.9063" style="stroke:#000000;stroke-width:1;"/><text x="1012.97" y="490.6045" fill="#000000" font-size="14" lengthAdjust="spacing" textLength="79.5977" font-family="Verdana">ErrorConfig</text></g><g class="entity" data-qualified-name="Evaluando" id="ent0010" data-source-line="11"><rect x="440.08" y="552.6094" width="93.377" height="50" fill="#FFFFFF" style="stroke:#000000;stroke-width:1;" rx="12.5" ry="12.5"/><line x1="440.08" y1="578.9063" x2="533.457" y2="578.9063" style="stroke:#000000;stroke-width:1;"/><text x="450.08" y="570.6045" fill="#000000" font-size="14" lengthAdjust="spacing" textLength="73.377" font-family="Verdana">Evaluando</text></g><g class="entity" data-qualified-name="ErrorSensor" id="ent0012" data-source-line="12"><rect x="928.43" y="632.6094" width="102.667" height="50" fill="#FFFFFF" style="stroke:#000000;stroke-width:1;" rx="12.5" ry="12.5"/><line x1="928.43" y1="658.9063" x2="1031.097" y2="658.9063" style="stroke:#000000;stroke-width:1;"/><text x="938.43" y="650.6045" fill="#000000" font-size="14" lengthAdjust="spacing" textLength="82.667" font-family="Verdana">ErrorSensor</text></g><g class="entity" data-qualified-name="Enfriando" id="ent0014" data-source-line="13"><rect x="192.17" y="712.6094" width="87.1973" height="50" fill="#FFFFFF" style="stroke:#000000;stroke-width:1;" rx="12.5" ry="12.5"/><line x1="192.17" y1="738.9063" x2="279.3673" y2="738.9063" style="stroke:#000000;stroke-width:1;"/><text x="202.17" y="730.6045" fill="#000000" font-size="14" lengthAdjust="spacing" textLength="67.1973" font-family="Verdana">Enfriando</text></g><g class="entity" data-qualified-name="Reposo" id="ent0016" data-source-line="14"><rect x="645.94" y="712.6094" width="71.6523" height="50" fill="#FFFFFF" style="stroke:#000000;stroke-width:1;" rx="12.5" ry="12.5"/><line x1="645.94" y1="738.9063" x2="717.5923" y2="738.9063" style="stroke:#000000;stroke-width:1;"/><text x="655.94" y="730.6045" fill="#000000" font-size="14" lengthAdjust="spacing" textLength="51.6523" font-family="Verdana">Reposo</text></g><g class="entity" data-qualified-name="Publicando" id="ent0020" data-source-line="17"><rect x="711.48" y="823.6094" width="96.583" height="50" fill="#FFFFFF" style="stroke:#000000;stroke-width:1;" rx="12.5" ry="12.5"/><line x1="711.48" y1="849.9063" x2="808.063" y2="849.9063" style="stroke:#000000;stroke-width:1;"/><text x="721.48" y="841.6045" fill="#000000" font-size="14" lengthAdjust="spacing" textLength="76.583" font-family="Verdana">Publicando</text></g><g class="entity" data-qualified-name="Esperando" id="ent0024" data-source-line="20"><rect x="1033.62" y="950.6094" width="94.2998" height="50" fill="#FFFFFF" style="stroke:#000000;stroke-width:1;" rx="12.5" ry="12.5"/><line x1="1033.62" y1="976.9063" x2="1127.9198" y2="976.9063" style="stroke:#000000;stroke-width:1;"/><text x="1043.62" y="968.6045" fill="#000000" font-size="14" lengthAdjust="spacing" textLength="74.2998" font-family="Verdana">Esperando</text></g><!--link *start* to Inicializando--><g class="link" data-entity-1="ent0001" data-entity-2="ent0002" id="lnk3" data-source-line="7" data-link-type="dependency"><path d="M983.77,77.9694 C983.77,91.8994 983.77,113.5594 983.77,133.2594" style="stroke:#000000;stroke-width:1;" fill="none" id="*start*-to-Inicializando"/><polygon points="983.77,138.2594,987.77,129.2594,983.77,133.2594,979.77,129.2594,983.77,138.2594" fill="#000000" style="stroke:#000000;stroke-width:1;stroke-linejoin:miter;stroke-miterlimit:10;"/></g><!--link Inicializando to ObteniendoConfig--><g class="link" data-entity-1="ent0002" data-entity-2="ent0004" id="lnk5" data-source-line="8" data-link-type="dependency"><path d="M983.77,189.0094 C983.77,211.0294 983.77,238.2694 983.77,260.2694" style="stroke:#000000;stroke-width:1;" fill="none" id="Inicializando-to-ObteniendoConfig"/><polygon points="983.77,265.2694,987.77,256.2694,983.77,260.2694,979.77,256.2694,983.77,265.2694" fill="#000000" style="stroke:#000000;stroke-width:1;stroke-linejoin:miter;stroke-miterlimit:10;"/><text x="984.77" y="231.6763" fill="#000000" font-size="13" lengthAdjust="spacing" textLength="59.3506" font-family="Verdana">arranque</text></g><!--link ObteniendoConfig to LeyendoSensor--><g class="link" data-entity-1="ent0004" data-entity-2="ent0006" id="lnk7" data-source-line="9" data-link-type="dependency"><path d="M910.12,303.3194 C863.35,312.4294 809.02,326.7094 794.77,345.6094 C784.89,358.7094 784.9583,372.4868 788.3883,387.3868" style="stroke:#000000;stroke-width:1;" fill="none" id="ObteniendoConfig-to-LeyendoSensor"/><polygon points="789.51,392.2594,791.389,382.5914,788.3883,387.3868,783.5929,384.3861,789.51,392.2594" fill="#000000" style="stroke:#000000;stroke-width:1;stroke-linejoin:miter;stroke-miterlimit:10;"/><text x="795.77" y="358.6763" fill="#000000" font-size="13" lengthAdjust="spacing" textLength="144.8979" font-family="Verdana">config activa obtenida</text></g><!--link ObteniendoConfig to ErrorConfig--><g class="link" data-entity-1="ent0004" data-entity-2="ent0008" id="lnk9" data-source-line="10" data-link-type="dependency"><path d="M979.34,315.9494 C977.65,329.8194 976.94,347.4194 980.77,362.6094 C991.21,404.0994 1014.4322,442.6227 1032.1622,468.3427" style="stroke:#000000;stroke-width:1;" fill="none" id="ObteniendoConfig-to-ErrorConfig"/><polygon points="1035,472.4594,1033.1853,462.7791,1032.1622,468.3427,1026.5986,467.3196,1035,472.4594" fill="#000000" style="stroke:#000000;stroke-width:1;stroke-linejoin:miter;stroke-miterlimit:10;"/><text x="981.77" y="358.6763" fill="#000000" font-size="13" lengthAdjust="spacing" textLength="200.3892" font-family="Verdana">sin conexion / sin config activa</text></g><!--link LeyendoSensor to Evaluando--><g class="link" data-entity-1="ent0006" data-entity-2="ent0010" id="lnk11" data-source-line="11" data-link-type="dependency"><path d="M741.69,443.0794 C721.69,452.0694 699.08,462.5094 678.77,472.6094 C626.83,498.4194 572.7507,528.0831 534.1407,549.7431" style="stroke:#000000;stroke-width:1;" fill="none" id="LeyendoSensor-to-Evaluando"/><polygon points="529.78,552.1894,539.5863,551.2745,534.1407,549.7431,535.6722,544.2975,529.78,552.1894" fill="#000000" style="stroke:#000000;stroke-width:1;stroke-linejoin:miter;stroke-miterlimit:10;"/><text x="679.77" y="502.1763" fill="#000000" font-size="13" lengthAdjust="spacing" textLength="88.6387" font-family="Verdana">lectura valida</text></g><!--link LeyendoSensor to ErrorSensor--><g class="link" data-entity-1="ent0006" data-entity-2="ent0012" id="lnk13" data-source-line="12" data-link-type="dependency"><path d="M808.86,442.7494 C819.34,464.4994 836.19,496.9194 854.77,522.6094 C884.97,564.3794 923.3865,603.4836 950.1865,629.1136" style="stroke:#000000;stroke-width:1;" fill="none" id="LeyendoSensor-to-ErrorSensor"/><polygon points="953.8,632.5694,950.0603,623.4582,950.1865,629.1136,944.531,629.2398,953.8,632.5694" fill="#000000" style="stroke:#000000;stroke-width:1;stroke-linejoin:miter;stroke-miterlimit:10;"/><text x="855.77" y="502.1763" fill="#000000" font-size="13" lengthAdjust="spacing" textLength="129.4985" font-family="Verdana">fallo de lectura DHT</text></g><!--link Evaluando to Enfriando--><g class="link" data-entity-1="ent0010" data-entity-2="ent0014" id="lnk15" data-source-line="13" data-link-type="dependency"><path d="M439.58,580.6494 C327.57,585.9594 52.98,602.0194 25.77,632.6094 C11,649.2094 12.15,665.0494 25.77,682.6094 C45.95,708.6394 131.713,723.6652 187.103,730.9752" style="stroke:#000000;stroke-width:1;" fill="none" id="Evaluando-to-Enfriando"/><polygon points="192.06,731.6294,183.6607,726.4862,187.103,730.9752,182.614,734.4174,192.06,731.6294" fill="#000000" style="stroke:#000000;stroke-width:1;stroke-linejoin:miter;stroke-miterlimit:10;"/><text x="26.77" y="662.1763" fill="#000000" font-size="13" lengthAdjust="spacing" textLength="165.7627" font-family="Verdana">supera umbral (relay ON)</text></g><!--link Evaluando to Enfriando--><g class="link" data-entity-1="ent0010" data-entity-2="ent0014" id="lnk18" data-source-line="15" data-link-type="dependency"><path d="M439.59,583.3194 C378.76,590.3994 277.82,605.8794 252.77,632.6094 C232.88,653.8294 230.8146,683.82 232.3446,707.28" style="stroke:#000000;stroke-width:1;" fill="none" id="Evaluando-to-Enfriando-1"/><polygon points="232.67,712.2694,236.0758,703.0281,232.3446,707.28,228.0928,703.5488,232.67,712.2694" fill="#000000" style="stroke:#000000;stroke-width:1;stroke-linejoin:miter;stroke-miterlimit:10;"/><text x="253.77" y="662.1763" fill="#000000" font-size="13" lengthAdjust="spacing" textLength="209.8979" font-family="Verdana">banda muerta y venia enfriando</text></g><!--link Evaluando to Reposo--><g class="link" data-entity-1="ent0010" data-entity-2="ent0016" id="lnk17" data-source-line="14" data-link-type="dependency"><path d="M478.17,602.6894 C471.65,625.6294 466.44,659.9294 483.77,682.6094 C503.34,708.2394 589.2707,723.909 640.8307,731.309" style="stroke:#000000;stroke-width:1;" fill="none" id="Evaluando-to-Reposo"/><polygon points="645.78,732.0194,637.4396,726.7813,640.8307,731.309,636.303,734.7002,645.78,732.0194" fill="#000000" style="stroke:#000000;stroke-width:1;stroke-linejoin:miter;stroke-miterlimit:10;"/><text x="484.77" y="662.1763" fill="#000000" font-size="13" lengthAdjust="spacing" textLength="181.3652" font-family="Verdana">dentro de rango (relay OFF)</text></g><!--link Evaluando to Reposo--><g class="link" data-entity-1="ent0010" data-entity-2="ent0016" id="lnk19" data-source-line="16" data-link-type="dependency"><path d="M533.83,578.6394 C576.45,581.3994 637.5,592.7294 670.77,632.6094 C689.15,654.6394 689.6261,684.125 686.8461,707.275" style="stroke:#000000;stroke-width:1;" fill="none" id="Evaluando-to-Reposo-1"/><polygon points="686.25,712.2394,691.2945,703.7805,686.8461,707.275,683.3516,702.8267,686.25,712.2394" fill="#000000" style="stroke:#000000;stroke-width:1;stroke-linejoin:miter;stroke-miterlimit:10;"/><text x="687.77" y="662.1763" fill="#000000" font-size="13" lengthAdjust="spacing" textLength="212.3608" font-family="Verdana">banda muerta y venia en reposo</text></g><!--link Enfriando to Publicando--><g class="link" data-entity-1="ent0014" data-entity-2="ent0020" id="lnk21" data-source-line="17" data-link-type="dependency"><path d="M279.54,747.7194 C376.7,767.9294 604.8748,815.3912 706.3248,836.4912" style="stroke:#000000;stroke-width:1;" fill="none" id="Enfriando-to-Publicando"/><polygon points="711.22,837.5094,703.2231,831.7605,706.3248,836.4912,701.5941,839.5929,711.22,837.5094" fill="#000000" style="stroke:#000000;stroke-width:1;stroke-linejoin:miter;stroke-miterlimit:10;"/></g><!--link Reposo to Publicando--><g class="link" data-entity-1="ent0016" data-entity-2="ent0020" id="lnk22" data-source-line="18" data-link-type="dependency"><path d="M699.27,763.0694 C712.12,781.0194 726.5804,801.2332 739.4104,819.1632" style="stroke:#000000;stroke-width:1;" fill="none" id="Reposo-to-Publicando"/><polygon points="742.32,823.2294,740.3357,813.5825,739.4104,819.1632,733.8297,818.2379,742.32,823.2294" fill="#000000" style="stroke:#000000;stroke-width:1;stroke-linejoin:miter;stroke-miterlimit:10;"/></g><!--link ErrorSensor to Publicando--><g class="link" data-entity-1="ent0012" data-entity-2="ent0020" id="lnk23" data-source-line="19" data-link-type="dependency"><path d="M928.23,676.1494 C921.68,678.3394 915.07,680.5394 908.77,682.6094 C867.11,696.2994 846.96,682.8294 814.77,712.6094 C782.72,742.2494 769.8058,788.324 764.1958,818.434" style="stroke:#000000;stroke-width:1;" fill="none" id="ErrorSensor-to-Publicando"/><polygon points="763.28,823.3494,768.8608,815.2343,764.1958,818.434,760.9962,813.769,763.28,823.3494" fill="#000000" style="stroke:#000000;stroke-width:1;stroke-linejoin:miter;stroke-miterlimit:10;"/><text x="815.77" y="742.1763" fill="#000000" font-size="13" lengthAdjust="spacing" textLength="221.4063" font-family="Verdana">status CRITICAL / SENSOR_ERROR</text></g><!--link Publicando to Esperando--><g class="link" data-entity-1="ent0020" data-entity-2="ent0024" id="lnk25" data-source-line="20" data-link-type="dependency"><path d="M798.7,874.1094 C823.71,889.0694 857.3,907.7294 888.77,920.6094 C936.51,940.1594 988.8502,954.1158 1028.3302,963.3058" style="stroke:#000000;stroke-width:1;" fill="none" id="Publicando-to-Esperando"/><polygon points="1033.2,964.4394,1025.3412,958.5031,1028.3302,963.3058,1023.5275,966.2948,1033.2,964.4394" fill="#000000" style="stroke:#000000;stroke-width:1;stroke-linejoin:miter;stroke-miterlimit:10;"/><text x="889.77" y="916.6763" fill="#000000" font-size="13" lengthAdjust="spacing" textLength="164.7407" font-family="Verdana">POST /api/measurements</text></g><!--link ErrorConfig to Esperando--><g class="link" data-entity-1="ent0008" data-entity-2="ent0024" id="lnk26" data-source-line="21" data-link-type="dependency"><path d="M1059.83,522.9994 C1068.13,553.8394 1080.77,608.6894 1080.77,656.6094 C1080.77,656.6094 1080.77,656.6094 1080.77,849.6094 C1080.77,884.5494 1080.77,919.9794 1080.77,945.1794" style="stroke:#000000;stroke-width:1;" fill="none" id="ErrorConfig-to-Esperando"/><polygon points="1080.77,950.1794,1084.77,941.1794,1080.77,945.1794,1076.77,941.1794,1080.77,950.1794" fill="#000000" style="stroke:#000000;stroke-width:1;stroke-linejoin:miter;stroke-miterlimit:10;"/><text x="1081.77" y="742.1763" fill="#000000" font-size="13" lengthAdjust="spacing" textLength="59.5791" font-family="Verdana">reintento</text></g><!--link Esperando to ObteniendoConfig--><g class="link" data-entity-1="ent0024" data-entity-2="ent0004" id="lnk27" data-source-line="22" data-link-type="dependency"><path d="M1128.07,952.2394 C1164.53,931.3394 1208.77,896.3594 1208.77,849.6094 C1208.77,416.6094 1208.77,416.6094 1208.77,416.6094 C1208.77,383.5694 1210.6,368.4894 1186.77,345.6094 C1152.44,312.6494 1105.3234,299.8634 1062.5134,294.6534" style="stroke:#000000;stroke-width:1;" fill="none" id="Esperando-to-ObteniendoConfig"/><polygon points="1057.55,294.0494,1066.0008,299.1074,1062.5134,294.6534,1066.9673,291.166,1057.55,294.0494" fill="#000000" style="stroke:#000000;stroke-width:1;stroke-linejoin:miter;stroke-miterlimit:10;"/><text x="1209.77" y="662.1763" fill="#000000" font-size="13" lengthAdjust="spacing" textLength="230.458" font-family="Verdana">paso measurementIntervalSeconds</text></g><?plantuml-src VLDDRzD04BtlhnZ4WGQfv9u34d8JY1JgoWudLA6nFN5NNU-w-v5YJlm8VY6_XDbjI9oGu8izC--zcNqxVkKVg2Fe5KejtAFKFLhieCBwiRKcw2OpobXulKZF2E4Ui37FKhUmGUL8l84RYIrN41g23f-2rEcJd6UaWwildrSJ-Ftp5zIoLYQMQgEzDGf8Wq8eqFKLMJl053wYfsSStWallIB8JXbNPy0J8Rw-lOVhw_UmrBAMgEGFr8qHHr6gvvKdBOd3pEYDR646Q2tgfq3Ydreah6Y8cPAqOpTcSOvOmjhBBO99b0RFS-VM6hlluwIERFekZURPT-51J1otIW9RL27DFWD5jGyMWLEnuHbmxBQVa-_cnRY_l9jFQt7GImIziNAdxa9F30fTPP5DjgHmWFnsSa8fg3SkuXkArn7rsRpMx1cBnUG_NIf-8tI1h4SOOCkM8U_03d2frmKMs0GGXmQHTHSg9UiajnCuoOvjEYv56ppwu20hbkjbzc75rrJERyky-3OlYhmG8smwcekclJ3lyd8DK-pbj2DqmVA_fRqJunKufLYIchV6yqpxx8KTxP4FCX9UCj6oMoNn2ZNk3m00?></g></svg>