<svg xmlns="http://www.w3.org/2000/svg" xmlns:xlink="http://www.w3.org/1999/xlink" version="1.1" data-diagram-type="STATE" style="width:1451px;height:1000px;background:#FFFFFF;" width="1451px" height="1000px" viewBox="0 0 1451 1000" zoomAndPan="magnify" preserveAspectRatio="none" contentStyleType="text/css"><?plantuml 1.2026.7beta3?><defs/><g><g class="title" data-source-line="2"><text x="569.5393" y="22.9951" fill="#000000" font-size="14" lengthAdjust="spacing" textLength="305.1494" font-weight="700" font-family="sans-serif">Ciclo de control (Raspberry / Gateway)</text></g><g class="start_entity" data-qualified-name=".start." id="ent0001" data-source-line="4"><ellipse cx="978.77" cy="53.2969" rx="10" ry="10" fill="#222222" style="stroke:#222222;stroke-width:1;"/></g><g class="entity" data-qualified-name="Inicializando" id="ent0002" data-source-line="4"><rect x="925.22" y="124.2969" width="107.0898" height="50" fill="#F1F1F1" style="stroke:#181818;stroke-width:0.5;" rx="12.5" ry="12.5"/><line x1="925.22" y1="150.5938" x2="1032.3098" y2="150.5938" style="stroke:#181818;stroke-width:0.5;"/><text x="935.22" y="142.292" fill="#000000" font-size="14" lengthAdjust="spacing" textLength="87.0898" font-family="sans-serif">Inicializando</text></g><g class="entity" data-qualified-name="ObteniendoConfig" id="ent0004" data-source-line="5"><rect x="905.45" y="251.2969" width="146.6289" height="50" fill="#F1F1F1" style="stroke:#181818;stroke-width:0.5;" rx="12.5" ry="12.5"/><line x1="905.45" y1="277.5938" x2="1052.0789" y2="277.5938" style="stroke:#181818;stroke-width:0.5;"/><text x="915.45" y="269.292" fill="#000000" font-size="14" lengthAdjust="spacing" textLength="126.6289" font-family="sans-serif">ObteniendoConfig</text></g><g class="entity" data-qualified-name="LeyendoSensor" id="ent0006" data-source-line="6"><rect x="728.96" y="378.2969" width="127.625" height="50" fill="#F1F1F1" style="stroke:#181818;stroke-width:0.5;" rx="12.5" ry="12.5"/><line x1="728.96" y1="404.5938" x2="856.585" y2="404.5938" style="stroke:#181818;stroke-width:0.5;"/><text x="738.96" y="396.292" fill="#000000" font-size="14" lengthAdjust="spacing" textLength="107.625" font-family="sans-serif">LeyendoSensor</text></g><g class="entity" data-qualified-name="ErrorConfig" id="ent0008" data-source-line="7"><rect x="997.97" y="458.2969" width="99.5977" height="50" fill="#F1F1F1" style="stroke:#181818;stroke-width:0.5;" rx="12.5" ry="12.5"/><line x1="997.97" y1="484.5938" x2="1097.5677" y2="484.5938" style="stroke:#181818;stroke-width:0.5;"/><text x="1007.97" y="476.292" fill="#000000" font-size="14" lengthAdjust="spacing" textLength="79.5977" font-family="sans-serif">ErrorConfig</text></g><g class="entity" data-qualified-name="Evaluando" id="ent0010" data-source-line="8"><rect x="435.08" y="538.2969" width="93.377" height="50" fill="#F1F1F1" style="stroke:#181818;stroke-width:0.5;" rx="12.5" ry="12.5"/><line x1="435.08" y1="564.5938" x2="528.457" y2="564.5938" style="stroke:#181818;stroke-width:0.5;"/><text x="445.08" y="556.292" fill="#000000" font-size="14" lengthAdjust="spacing" textLength="73.377" font-family="sans-serif">Evaluando</text></g><g class="entity" data-qualified-name="ErrorSensor" id="ent0012" data-source-line="9"><rect x="923.43" y="618.2969" width="102.667" height="50" fill="#F1F1F1" style="stroke:#181818;stroke-width:0.5;" rx="12.5" ry="12.5"/><line x1="923.43" y1="644.5938" x2="1026.097" y2="644.5938" style="stroke:#181818;stroke-width:0.5;"/><text x="933.43" y="636.292" fill="#000000" font-size="14" lengthAdjust="spacing" textLength="82.667" font-family="sans-serif">ErrorSensor</text></g><g class="entity" data-qualified-name="Enfriando" id="ent0014" data-source-line="10"><rect x="187.17" y="698.2969" width="87.1973" height="50" fill="#F1F1F1" style="stroke:#181818;stroke-width:0.5;" rx="12.5" ry="12.5"/><line x1="187.17" y1="724.5938" x2="274.3673" y2="724.5938" style="stroke:#181818;stroke-width:0.5;"/><text x="197.17" y="716.292" fill="#000000" font-size="14" lengthAdjust="spacing" textLength="67.1973" font-family="sans-serif">Enfriando</text></g><g class="entity" data-qualified-name="Reposo" id="ent0016" data-source-line="11"><rect x="640.94" y="698.2969" width="71.6523" height="50" fill="#F1F1F1" style="stroke:#181818;stroke-width:0.5;" rx="12.5" ry="12.5"/><line x1="640.94" y1="724.5938" x2="712.5923" y2="724.5938" style="stroke:#181818;stroke-width:0.5;"/><text x="650.94" y="716.292" fill="#000000" font-size="14" lengthAdjust="spacing" textLength="51.6523" font-family="sans-serif">Reposo</text></g><g class="entity" data-qualified-name="Publicando" id="ent0020" data-source-line="14"><rect x="706.48" y="809.2969" width="96.583" height="50" fill="#F1F1F1" style="stroke:#181818;stroke-width:0.5;" rx="12.5" ry="12.5"/><line x1="706.48" y1="835.5938" x2="803.063" y2="835.5938" style="stroke:#181818;stroke-width:0.5;"/><text x="716.48" y="827.292" fill="#000000" font-size="14" lengthAdjust="spacing" textLength="76.583" font-family="sans-serif">Publicando</text></g><g class="entity" data-qualified-name="Esperando" id="ent0024" data-source-line="17"><rect x="1028.62" y="936.2969" width="94.2998" height="50" fill="#F1F1F1" style="stroke:#181818;stroke-width:0.5;" rx="12.5" ry="12.5"/><line x1="1028.62" y1="962.5938" x2="1122.9198" y2="962.5938" style="stroke:#181818;stroke-width:0.5;"/><text x="1038.62" y="954.292" fill="#000000" font-size="14" lengthAdjust="spacing" textLength="74.2998" font-family="sans-serif">Esperando</text></g><!--link *start* to Inicializando--><g class="link" data-entity-1="ent0001" data-entity-2="ent0002" id="lnk3" data-source-line="4" data-link-type="dependency"><path d="M978.77,63.6569 C978.77,77.5869 978.77,99.2469 978.77,118.9469" style="stroke:#181818;stroke-width:1;" fill="none" id="*start*-to-Inicializando"/><polygon points="978.77,123.9469,982.77,114.9469,978.77,118.9469,974.77,114.9469,978.77,123.9469" fill="#181818" style="stroke:#181818;stroke-width:1;stroke-linejoin:miter;stroke-miterlimit:10;"/></g><!--link Inicializando to ObteniendoConfig--><g class="link" data-entity-1="ent0002" data-entity-2="ent0004" id="lnk5" data-source-line="5" data-link-type="dependency"><path d="M978.77,174.6969 C978.77,196.7169 978.77,223.9569 978.77,245.9569" style="stroke:#181818;stroke-width:1;" fill="none" id="Inicializando-to-ObteniendoConfig"/><polygon points="978.77,250.9569,982.77,241.9569,978.77,245.9569,974.77,241.9569,978.77,250.9569" fill="#181818" style="stroke:#181818;stroke-width:1;stroke-linejoin:miter;stroke-miterlimit:10;"/><text x="979.77" y="217.3638" fill="#000000" font-size="13" lengthAdjust="spacing" textLength="59.3506" font-family="sans-serif">arranque</text></g><!--link ObteniendoConfig to LeyendoSensor--><g class="link" data-entity-1="ent0004" data-entity-2="ent0006" id="lnk7" data-source-line="6" data-link-type="dependency"><path d="M905.12,289.0069 C858.35,298.1169 804.02,312.3969 789.77,331.2969 C779.89,344.3969 779.9583,358.1743 783.3883,373.0743" style="stroke:#181818;stroke-width:1;" fill="none" id="ObteniendoConfig-to-LeyendoSensor"/><polygon points="784.51,377.9469,786.389,368.2789,783.3883,373.0743,778.5929,370.0736,784.51,377.9469" fill="#181818" style="stroke:#181818;stroke-width:1;stroke-linejoin:miter;stroke-miterlimit:10;"/><text x="790.77" y="344.3638" fill="#000000" font-size="13" lengthAdjust="spacing" textLength="144.8979" font-family="sans-serif">config activa obtenida</text></g><!--link ObteniendoConfig to ErrorConfig--><g class="link" data-entity-1="ent0004" data-entity-2="ent0008" id="lnk9" data-source-line="7" data-link-type="dependency"><path d="M974.34,301.6369 C972.65,315.5069 971.94,333.1069 975.77,348.2969 C986.21,389.7869 1009.4322,428.3102 1027.1622,454.0302" style="stroke:#181818;stroke-width:1;" fill="none" id="ObteniendoConfig-to-ErrorConfig"/><polygon points="1030,458.1469,1028.1853,448.4666,1027.1622,454.0302,1021.5986,453.0071,1030,458.1469" fill="#181818" style="stroke:#181818;stroke-width:1;stroke-linejoin:miter;stroke-miterlimit:10;"/><text x="976.77" y="344.3638" fill="#000000" font-size="13" lengthAdjust="spacing" textLength="200.3892" font-family="sans-serif">sin conexion / sin config activa</text></g><!--link LeyendoSensor to Evaluando--><g class="link" data-entity-1="ent0006" data-entity-2="ent0010" id="lnk11" data-source-line="8" data-link-type="dependency"><path d="M736.69,428.7669 C716.69,437.7569 694.08,448.1969 673.77,458.2969 C621.83,484.1069 567.7507,513.7706 529.1407,535.4306" style="stroke:#181818;stroke-width:1;" fill="none" id="LeyendoSensor-to-Evaluando"/><polygon points="524.78,537.8769,534.5863,536.962,529.1407,535.4306,530.6722,529.985,524.78,537.8769" fill="#181818" style="stroke:#181818;stroke-width:1;stroke-linejoin:miter;stroke-miterlimit:10;"/><text x="674.77" y="487.8638" fill="#000000" font-size="13" lengthAdjust="spacing" textLength="88.6387" font-family="sans-serif">lectura valida</text></g><!--link LeyendoSensor to ErrorSensor--><g class="link" data-entity-1="ent0006" data-entity-2="ent0012" id="lnk13" data-source-line="9" data-link-type="dependency"><path d="M803.86,428.4369 C814.34,450.1869 831.19,482.6069 849.77,508.2969 C879.97,550.0669 918.3865,589.1711 945.1865,614.8011" style="stroke:#181818;stroke-width:1;" fill="none" id="LeyendoSensor-to-ErrorSensor"/><polygon points="948.8,618.2569,945.0603,609.1457,945.1865,614.8011,939.531,614.9273,948.8,618.2569" fill="#181818" style="stroke:#181818;stroke-width:1;stroke-linejoin:miter;stroke-miterlimit:10;"/><text x="850.77" y="487.8638" fill="#000000" font-size="13" lengthAdjust="spacing" textLength="129.4985" font-family="sans-serif">fallo de lectura DHT</text></g><!--link Evaluando to Enfriando--><g class="link" data-entity-1="ent0010" data-entity-2="ent0014" id="lnk15" data-source-line="10" data-link-type="dependency"><path d="M434.58,566.3369 C322.57,571.6469 47.98,587.7069 20.77,618.2969 C6,634.8969 7.15,650.7369 20.77,668.2969 C40.95,694.3269 126.713,709.3527 182.103,716.6627" style="stroke:#181818;stroke-width:1;" fill="none" id="Evaluando-to-Enfriando"/><polygon points="187.06,717.3169,178.6607,712.1737,182.103,716.6627,177.614,720.1049,187.06,717.3169" fill="#181818" style="stroke:#181818;stroke-width:1;stroke-linejoin:miter;stroke-miterlimit:10;"/><text x="21.77" y="647.8638" fill="#000000" font-size="13" lengthAdjust="spacing" textLength="165.7627" font-family="sans-serif">supera umbral (relay ON)</text></g><!--link Evaluando to Enfriando--><g class="link" data-entity-1="ent0010" data-entity-2="ent0014" id="lnk18" data-source-line="12" data-link-type="dependency"><path d="M434.59,569.0069 C373.76,576.0869 272.82,591.5669 247.77,618.2969 C227.88,639.5169 225.8146,669.5075 227.3446,692.9675" style="stroke:#181818;stroke-width:1;" fill="none" id="Evaluando-to-Enfriando-1"/><polygon points="227.67,697.9569,231.0758,688.7156,227.3446,692.9675,223.0928,689.2363,227.67,697.9569" fill="#181818" style="stroke:#181818;stroke-width:1;stroke-linejoin:miter;stroke-miterlimit:10;"/><text x="248.77" y="647.8638" fill="#000000" font-size="13" lengthAdjust="spacing" textLength="209.8979" font-family="sans-serif">banda muerta y venia enfriando</text></g><!--link Evaluando to Reposo--><g class="link" data-entity-1="ent0010" data-entity-2="ent0016" id="lnk17" data-source-line="11" data-link-type="dependency"><path d="M473.17,588.3769 C466.65,611.3169 461.44,645.6169 478.77,668.2969 C498.34,693.9269 584.2707,709.5965 635.8307,716.9965" style="stroke:#181818;stroke-width:1;" fill="none" id="Evaluando-to-Reposo"/><polygon points="640.78,717.7069,632.4396,712.4688,635.8307,716.9965,631.303,720.3877,640.78,717.7069" fill="#181818" style="stroke:#181818;stroke-width:1;stroke-linejoin:miter;stroke-miterlimit:10;"/><text x="479.77" y="647.8638" fill="#000000" font-size="13" lengthAdjust="spacing" textLength="181.3652" font-family="sans-serif">dentro de rango (relay OFF)</text></g><!--link Evaluando to Reposo--><g class="link" data-entity-1="ent0010" data-entity-2="ent0016" id="lnk19" data-source-line="13" data-link-type="dependency"><path d="M528.83,564.3269 C571.45,567.0869 632.5,578.4169 665.77,618.2969 C684.15,640.3269 684.6261,669.8125 681.8461,692.9625" style="stroke:#181818;stroke-width:1;" fill="none" id="Evaluando-to-Reposo-1"/><polygon points="681.25,697.9269,686.2945,689.468,681.8461,692.9625,678.3516,688.5142,681.25,697.9269" fill="#181818" style="stroke:#181818;stroke-width:1;stroke-linejoin:miter;stroke-miterlimit:10;"/><text x="682.77" y="647.8638" fill="#000000" font-size="13" lengthAdjust="spacing" textLength="212.3608" font-family="sans-serif">banda muerta y venia en reposo</text></g><!--link Enfriando to Publicando--><g class="link" data-entity-1="ent0014" data-entity-2="ent0020" id="lnk21" data-source-line="14" data-link-type="dependency"><path d="M274.54,733.4069 C371.7,753.6169 599.8748,801.0787 701.3248,822.1787" style="stroke:#181818;stroke-width:1;" fill="none" id="Enfriando-to-Publicando"/><polygon points="706.22,823.1969,698.2231,817.448,701.3248,822.1787,696.5941,825.2804,706.22,823.1969" fill="#181818" style="stroke:#181818;stroke-width:1;stroke-linejoin:miter;stroke-miterlimit:10;"/></g><!--link Reposo to Publicando--><g class="link" data-entity-1="ent0016" data-entity-2="ent0020" id="lnk22" data-source-line="15" data-link-type="dependency"><path d="M694.27,748.7569 C707.12,766.7069 721.5804,786.9207 734.4104,804.8507" style="stroke:#181818;stroke-width:1;" fill="none" id="Reposo-to-Publicando"/><polygon points="737.32,808.9169,735.3357,799.27,734.4104,804.8507,728.8297,803.9254,737.32,808.9169" fill="#181818" style="stroke:#181818;stroke-width:1;stroke-linejoin:miter;stroke-miterlimit:10;"/></g><!--link ErrorSensor to Publicando--><g class="link" data-entity-1="ent0012" data-entity-2="ent0020" id="lnk23" data-source-line="16" data-link-type="dependency"><path d="M923.23,661.8369 C916.68,664.0269 910.07,666.2269 903.77,668.2969 C862.11,681.9869 841.96,668.5169 809.77,698.2969 C777.72,727.9369 764.8058,774.0115 759.1958,804.1215" style="stroke:#181818;stroke-width:1;" fill="none" id="ErrorSensor-to-Publicando"/><polygon points="758.28,809.0369,763.8608,800.9218,759.1958,804.1215,755.9962,799.4565,758.28,809.0369" fill="#181818" style="stroke:#181818;stroke-width:1;stroke-linejoin:miter;stroke-miterlimit:10;"/><text x="810.77" y="727.8638" fill="#000000" font-size="13" lengthAdjust="spacing" textLength="221.4063" font-family="sans-serif">status CRITICAL / SENSOR_ERROR</text></g><!--link Publicando to Esperando--><g class="link" data-entity-1="ent0020" data-entity-2="ent0024" id="lnk25" data-source-line="17" data-link-type="dependency"><path d="M793.7,859.7969 C818.71,874.7569 852.3,893.4169 883.77,906.2969 C931.51,925.8469 983.8502,939.8033 1023.3302,948.9933" style="stroke:#181818;stroke-width:1;" fill="none" id="Publicando-to-Esperando"/><polygon points="1028.2,950.1269,1020.3412,944.1906,1023.3302,948.9933,1018.5275,951.9823,1028.2,950.1269" fill="#181818" style="stroke:#181818;stroke-width:1;stroke-linejoin:miter;stroke-miterlimit:10;"/><text x="884.77" y="902.3638" fill="#000000" font-size="13" lengthAdjust="spacing" textLength="164.7407" font-family="sans-serif">POST /api/measurements</text></g><!--link ErrorConfig to Esperando--><g class="link" data-entity-1="ent0008" data-entity-2="ent0024" id="lnk26" data-source-line="18" data-link-type="dependency"><path d="M1054.83,508.6869 C1063.13,539.5269 1075.77,594.3769 1075.77,642.2969 C1075.77,642.2969 1075.77,642.2969 1075.77,835.2969 C1075.77,870.2369 1075.77,905.6669 1075.77,930.8669" style="stroke:#181818;stroke-width:1;" fill="none" id="ErrorConfig-to-Esperando"/><polygon points="1075.77,935.8669,1079.77,926.8669,1075.77,930.8669,1071.77,926.8669,1075.77,935.8669" fill="#181818" style="stroke:#181818;stroke-width:1;stroke-linejoin:miter;stroke-miterlimit:10;"/><text x="1076.77" y="727.8638" fill="#000000" font-size="13" lengthAdjust="spacing" textLength="59.5791" font-family="sans-serif">reintento</text></g><!--link Esperando to ObteniendoConfig--><g class="link" data-entity-1="ent0024" data-entity-2="ent0004" id="lnk27" data-source-line="19" data-link-type="dependency"><path d="M1123.07,937.9269 C1159.53,917.0269 1203.77,882.0469 1203.77,835.2969 C1203.77,402.2969 1203.77,402.2969 1203.77,402.2969 C1203.77,369.2569 1205.6,354.1769 1181.77,331.2969 C1147.44,298.3369 1100.3234,285.5509 1057.5134,280.3409" style="stroke:#181818;stroke-width:1;" fill="none" id="Esperando-to-ObteniendoConfig"/><polygon points="1052.55,279.7369,1061.0008,284.7949,1057.5134,280.3409,1061.9673,276.8535,1052.55,279.7369" fill="#181818" style="stroke:#181818;stroke-width:1;stroke-linejoin:miter;stroke-miterlimit:10;"/><text x="1204.77" y="647.8638" fill="#000000" font-size="13" lengthAdjust="spacing" textLength="230.458" font-family="sans-serif">paso measurementIntervalSeconds</text></g><?plantuml-src VLBDRjim3BxhANXRKw3BlOS1HPgk0RAwiBFJC0oqpGG2PCcbf7JUgG-n9zoJZ5Ao_2tfoHRv_L2V-07kDQuOEuIMeCENg6t-9H-mTHwkldwPZ-3FsszeT6DSQZNE1dO6o891AD7tDJ4FC8RF6EWLXuygw6089gUCgpFWaLBVhh_3pSqdc5dTQ3Jw5zhMgQDJxXTr8Aj9ZXDdbte5ju3CQ5yYgVzwYJ2d8LKgijwne9jD2vkWrmWkKreypvqoEzxvU6qJctvgPsNsxN4lfewjii0QJSoptuAX9aH6a58oF0DERhivbsWsmVtZtJykr5ul4-oIzLRTnvu45BkQKK9cCZX0yJGwePJKEv_mBQNdIFeItihj60yFetTSQlaYT94u80ombiXGTc0BkEHrWGMS0Mfla5ZFiJQwoN9RWPFgOKp7hHH3m10zJChPOZQvcyipLTEdgYX_JCkoADK1Db_Dfz0spEUYMi0OUptk27rawYGXhmvNu9J2fAriJP2PTjKBEzgZNEH0U2P4bhGgaXLg_Ly0?></g></svg>