<svg xmlns="http://www.w3.org/2000/svg" xmlns:xlink="http://www.w3.org/1999/xlink" version="1.1" data-diagram-type="STATE" style="width:720px;height:329px;background:#FFFFFF;" width="720px" height="329px" viewBox="0 0 720 329" zoomAndPan="magnify" preserveAspectRatio="none" contentStyleType="text/css"><?plantuml 1.2026.7beta3?><defs/><g><g class="title" data-source-line="5"><text x="273.2168" y="35.4209" fill="#000000" font-size="22" lengthAdjust="spacing" textLength="171.6279" font-weight="700" font-family="Verdana">Relay / Cooler</text></g><g class="start_entity" data-qualified-name=".start." id="ent0001" data-source-line="7"><ellipse cx="192.06" cy="67.6094" rx="10" ry="10" fill="#FFFFFF" style="stroke:#000000;stroke-width:1;"/></g><g class="entity" data-qualified-name="Apagado" id="ent0002" data-source-line="7"><rect x="151.08" y="138.6094" width="81.9609" height="50" fill="#FFFFFF" style="stroke:#000000;stroke-width:1;" rx="12.5" ry="12.5"/><line x1="151.08" y1="164.9063" x2="233.0409" y2="164.9063" style="stroke:#000000;stroke-width:1;"/><text x="161.08" y="156.6045" fill="#000000" font-size="14" lengthAdjust="spacing" textLength="61.9609" font-family="Verdana">Apagado</text></g><g class="entity" data-qualified-name="Encendido" id="ent0004" data-source-line="8"><rect x="145.5" y="265.6094" width="93.1309" height="50" fill="#FFFFFF" style="stroke:#000000;stroke-width:1;" rx="12.5" ry="12.5"/><line x1="145.5" y1="291.9063" x2="238.6309" y2="291.9063" style="stroke:#000000;stroke-width:1;"/><text x="155.5" y="283.6045" fill="#000000" font-size="14" lengthAdjust="spacing" textLength="73.1309" font-family="Verdana">Encendido</text></g><!--link *start* to Apagado--><g class="link" data-entity-1="ent0001" data-entity-2="ent0002" id="lnk3" data-source-line="7" data-link-type="dependency"><path d="M192.06,77.9694 C192.06,91.8994 192.06,113.5594 192.06,133.2594" style="stroke:#000000;stroke-width:1;" fill="none" id="*start*-to-Apagado"/><polygon points="192.06,138.2594,196.06,129.2594,192.06,133.2594,188.06,129.2594,192.06,138.2594" fill="#000000" style="stroke:#000000;stroke-width:1;stroke-linejoin:miter;stroke-miterlimit:10;"/></g><!--link Apagado to Encendido--><g class="link" data-entity-1="ent0002" data-entity-2="ent0004" id="lnk5" data-source-line="8" data-link-type="dependency"><path d="M150.74,166.7194 C114.89,170.9894 64.93,183.3794 40.06,218.6094 C11,259.7694 85.6741,277.067 140.3641,284.377" style="stroke:#000000;stroke-width:1;" fill="none" id="Apagado-to-Encendido"/><polygon points="145.32,285.0394,136.9293,279.8823,140.3641,284.377,135.8694,287.8118,145.32,285.0394" fill="#000000" style="stroke:#000000;stroke-width:1;stroke-linejoin:miter;stroke-miterlimit:10;"/><text x="41.06" y="231.6763" fill="#000000" font-size="13" lengthAdjust="spacing" textLength="256.3755" font-family="Verdana">temp >= tempMax o hum >= humMax</text></g><!--link Encendido to Apagado--><g class="link" data-entity-1="ent0004" data-entity-2="ent0002" id="lnk6" data-source-line="9" data-link-type="dependency"><path d="M238.98,279.0294 C276.72,268.1094 320.63,248.4194 302.06,218.6094 C287.1,194.5994 262.7679,182.4331 238.2579,174.8731" style="stroke:#000000;stroke-width:1;" fill="none" id="Encendido-to-Apagado"/><polygon points="233.48,173.3994,240.9012,179.8744,238.2579,174.8731,243.2592,172.2298,233.48,173.3994" fill="#000000" style="stroke:#000000;stroke-width:1;stroke-linejoin:miter;stroke-miterlimit:10;"/><text x="307.06" y="231.6763" fill="#000000" font-size="13" lengthAdjust="spacing" textLength="397.0015" font-family="Verdana">temp &lt;= tempMax - histTemp y hum &lt;= humMax - histHum</text></g><!--link Encendido to Encendido--><g class="link" data-entity-1="ent0004" data-entity-2="ent0004" id="lnk7" data-source-line="10" data-link-type="dependency"><path d="M239,278.7794 C257.82,278.1094 273.63,282.0494 273.63,290.6094 C273.63,299.1694 262.8168,303.2873 243.9968,302.6173" style="stroke:#000000;stroke-width:1;" fill="none" id="Encendido-to-Encendido"/><polygon points="239,302.4394,247.852,306.757,243.9968,302.6173,248.1366,298.7621,239,302.4394" fill="#000000" style="stroke:#000000;stroke-width:1;stroke-linejoin:miter;stroke-miterlimit:10;"/><text x="279.63" y="295.1763" fill="#000000" font-size="13" lengthAdjust="spacing" textLength="251.7227" font-family="Verdana">dentro de la banda muerta (histeresis)</text></g><!--link Apagado to Apagado--><g class="link" data-entity-1="ent0002" data-entity-2="ent0002" id="lnk8" data-source-line="11" data-link-type="dependency"><path d="M233.48,153.3694 C252.01,152.3894 268.04,155.8094 268.04,163.6094 C268.04,171.4094 257.003,175.0934 238.473,174.1134" style="stroke:#000000;stroke-width:1;" fill="none" id="Apagado-to-Apagado"/><polygon points="233.48,173.8494,242.2562,178.3191,238.473,174.1134,242.6787,170.3303,233.48,173.8494" fill="#000000" style="stroke:#000000;stroke-width:1;stroke-linejoin:miter;stroke-miterlimit:10;"/><text x="274.04" y="168.1763" fill="#000000" font-size="13" lengthAdjust="spacing" textLength="251.7227" font-family="Verdana">dentro de la banda muerta (histeresis)</text></g><?plantuml-src ZL2xJWCn4Epz5ODIa20Tz2X4GY68WZG8AaInd9SxAtuSVWZIyH5y8L-2pxhe3ggu6U_ix6XdJsBBXj5fKbQ4dR8TUJ9ufNhNU9UiN3ljF6QtvKqKeINfFfHjy4Owi3Z5ZQ8cTmYIOUWzALk-769M1ioVjlSB_7nzmxEcFIvGEwVPPx1eLOZiEQXmBgAAcl4mYDP59CJpsGkgQeNhZfhi9mOitCRMRANArIKYcmwhgu9R-eH3cqnFPCYr6BKJjyFSSfohoawFFRil5ik3nT2wI-QVsNGDoJPwr-VNbAzf9S4azf4m7xCk_gGOTpbk-1S0?></g></svg>