<svg xmlns="http://www.w3.org/2000/svg" xmlns:xlink="http://www.w3.org/1999/xlink" version="1.1" data-diagram-type="STATE" style="width:1461px;height:1000px;background:#FFFFFF;" width="1461px" height="1000px" viewBox="0 0 1461 1000" zoomAndPan="magnify" preserveAspectRatio="none" contentStyleType="text/css"><?plantuml 1.2026.7beta3?><defs/><g><g class="title" data-source-line="39"><text x="574.5393" y="22.9951" fill="#0F172A" font-size="14" lengthAdjust="spacing" textLength="305.1494" font-weight="700" font-family="sans-serif">Ciclo de control (Raspberry / Gateway)</text></g><g class="start_entity" data-qualified-name=".start." id="ent0001" data-source-line="41"><ellipse cx="988.77" cy="53.2969" rx="10" ry="10" fill="#222222" style="stroke:#222222;stroke-width:1;"/></g><g class="entity" data-qualified-name="Inicializando" id="ent0002" data-source-line="41"><rect x="938.33" y="124.2969" width="100.8691" height="50" fill="#F8FAFC" style="stroke:#0891B2;stroke-width:0.5;" rx="6" ry="6"/><line x1="938.33" y1="149.4297" x2="1039.1991" y2="149.4297" style="stroke:#0891B2;stroke-width:0.5;"/><text x="948.33" y="141.3638" fill="#0F172A" font-size="13" lengthAdjust="spacing" textLength="80.8691" font-family="sans-serif">Inicializando</text></g><g class="entity" data-qualified-name="ObteniendoConfig" id="ent0004" data-source-line="42"><rect x="919.98" y="251.2969" width="137.584" height="50" fill="#F8FAFC" style="stroke:#0891B2;stroke-width:0.5;" rx="6" ry="6"/><line x1="919.98" y1="276.4297" x2="1057.564" y2="276.4297" style="stroke:#0891B2;stroke-width:0.5;"/><text x="929.98" y="268.3638" fill="#0F172A" font-size="13" lengthAdjust="spacing" textLength="117.584" font-family="sans-serif">ObteniendoConfig</text></g><g class="entity" data-qualified-name="LeyendoSensor" id="ent0006" data-source-line="43"><rect x="742.8" y="378.2969" width="119.9375" height="50" fill="#F8FAFC" style="stroke:#0891B2;stroke-width:0.5;" rx="6" ry="6"/><line x1="742.8" y1="403.4297" x2="862.7375" y2="403.4297" style="stroke:#0891B2;stroke-width:0.5;"/><text x="752.8" y="395.3638" fill="#0F172A" font-size="13" lengthAdjust="spacing" textLength="99.9375" font-family="sans-serif">LeyendoSensor</text></g><g class="entity" data-qualified-name="ErrorConfig" id="ent0008" data-source-line="44"><rect x="1010.81" y="458.2969" width="93.9121" height="50" fill="#F8FAFC" style="stroke:#0891B2;stroke-width:0.5;" rx="6" ry="6"/><line x1="1010.81" y1="483.4297" x2="1104.7221" y2="483.4297" style="stroke:#0891B2;stroke-width:0.5;"/><text x="1020.81" y="475.3638" fill="#0F172A" font-size="13" lengthAdjust="spacing" textLength="73.9121" font-family="sans-serif">ErrorConfig</text></g><g class="entity" data-qualified-name="Evaluando" id="ent0010" data-source-line="45"><rect x="437.7" y="538.2969" width="88.1357" height="50" fill="#F8FAFC" style="stroke:#0891B2;stroke-width:0.5;" rx="6" ry="6"/><line x1="437.7" y1="563.4297" x2="525.8357" y2="563.4297" style="stroke:#0891B2;stroke-width:0.5;"/><text x="447.7" y="555.3638" fill="#0F172A" font-size="13" lengthAdjust="spacing" textLength="68.1357" font-family="sans-serif">Evaluando</text></g><g class="entity" data-qualified-name="ErrorSensor" id="ent0012" data-source-line="46"><rect x="923.39" y="618.2969" width="96.7622" height="50" fill="#F8FAFC" style="stroke:#0891B2;stroke-width:0.5;" rx="6" ry="6"/><line x1="923.39" y1="643.4297" x2="1020.1522" y2="643.4297" style="stroke:#0891B2;stroke-width:0.5;"/><text x="933.39" y="635.3638" fill="#0F172A" font-size="13" lengthAdjust="spacing" textLength="76.7622" font-family="sans-serif">ErrorSensor</text></g><g class="entity" data-qualified-name="Enfriando" id="ent0014" data-source-line="47"><rect x="189.57" y="698.2969" width="82.3975" height="50" fill="#F8FAFC" style="stroke:#0891B2;stroke-width:0.5;" rx="6" ry="6"/><line x1="189.57" y1="723.4297" x2="271.9675" y2="723.4297" style="stroke:#0891B2;stroke-width:0.5;"/><text x="199.57" y="715.3638" fill="#0F172A" font-size="13" lengthAdjust="spacing" textLength="62.3975" font-family="sans-serif">Enfriando</text></g><g class="entity" data-qualified-name="Reposo" id="ent0016" data-source-line="48"><rect x="640.79" y="698.2969" width="67.9629" height="50" fill="#F8FAFC" style="stroke:#0891B2;stroke-width:0.5;" rx="6" ry="6"/><line x1="640.79" y1="723.4297" x2="708.7529" y2="723.4297" style="stroke:#0891B2;stroke-width:0.5;"/><text x="650.79" y="715.3638" fill="#0F172A" font-size="13" lengthAdjust="spacing" textLength="47.9629" font-family="sans-serif">Reposo</text></g><g class="entity" data-qualified-name="Publicando" id="ent0020" data-source-line="51"><rect x="707.21" y="809.2969" width="91.1128" height="50" fill="#F8FAFC" style="stroke:#0891B2;stroke-width:0.5;" rx="6" ry="6"/><line x1="707.21" y1="834.4297" x2="798.3228" y2="834.4297" style="stroke:#0891B2;stroke-width:0.5;"/><text x="717.21" y="826.3638" fill="#0F172A" font-size="13" lengthAdjust="spacing" textLength="71.1128" font-family="sans-serif">Publicando</text></g><g class="entity" data-qualified-name="Esperando" id="ent0024" data-source-line="54"><rect x="1027.27" y="936.2969" width="88.9927" height="50" fill="#F8FAFC" style="stroke:#0891B2;stroke-width:0.5;" rx="6" ry="6"/><line x1="1027.27" y1="961.4297" x2="1116.2627" y2="961.4297" style="stroke:#0891B2;stroke-width:0.5;"/><text x="1037.27" y="953.3638" fill="#0F172A" font-size="13" lengthAdjust="spacing" textLength="68.9927" font-family="sans-serif">Esperando</text></g><!--link *start* to Inicializando--><g class="link" data-entity-1="ent0001" data-entity-2="ent0002" id="lnk3" data-source-line="41" data-link-type="dependency"><path d="M988.77,63.6569 C988.77,77.5869 988.77,99.2469 988.77,118.9469" style="stroke:#64748B;stroke-width:1.1;" fill="none" id="*start*-to-Inicializando"/><polygon points="988.77,123.9469,992.77,114.9469,988.77,118.9469,984.77,114.9469,988.77,123.9469" fill="#64748B" style="stroke:#64748B;stroke-width:1.1;stroke-linejoin:miter;stroke-miterlimit:10;"/></g><!--link Inicializando to ObteniendoConfig--><g class="link" data-entity-1="ent0002" data-entity-2="ent0004" id="lnk5" data-source-line="42" data-link-type="dependency"><path d="M988.77,174.6969 C988.77,196.7169 988.77,223.9569 988.77,245.9569" style="stroke:#64748B;stroke-width:1.1;" fill="none" id="Inicializando-to-ObteniendoConfig"/><polygon points="988.77,250.9569,992.77,241.9569,988.77,245.9569,984.77,241.9569,988.77,250.9569" fill="#64748B" style="stroke:#64748B;stroke-width:1.1;stroke-linejoin:miter;stroke-miterlimit:10;"/><text x="989.77" y="217.3638" fill="#475569" font-size="13" lengthAdjust="spacing" textLength="59.3506" font-family="sans-serif">arranque</text></g><!--link ObteniendoConfig to LeyendoSensor--><g class="link" data-entity-1="ent0004" data-entity-2="ent0006" id="lnk7" data-source-line="43" data-link-type="dependency"><path d="M919.89,288.0869 C872.11,297.1469 814.51,311.7469 799.77,331.2969 C789.89,344.3969 789.9583,358.1743 793.3883,373.0743" style="stroke:#64748B;stroke-width:1.1;" fill="none" id="ObteniendoConfig-to-LeyendoSensor"/><polygon points="794.51,377.9469,796.389,368.2789,793.3883,373.0743,788.5929,370.0736,794.51,377.9469" fill="#64748B" style="stroke:#64748B;stroke-width:1.1;stroke-linejoin:miter;stroke-miterlimit:10;"/><text x="800.77" y="344.3638" fill="#475569" font-size="13" lengthAdjust="spacing" textLength="144.8979" font-family="sans-serif">config activa obtenida</text></g><!--link ObteniendoConfig to ErrorConfig--><g class="link" data-entity-1="ent0004" data-entity-2="ent0008" id="lnk9" data-source-line="44" data-link-type="dependency"><path d="M984.34,301.6369 C982.65,315.5069 981.94,333.1069 985.77,348.2969 C996.21,389.7869 1019.4322,428.3102 1037.1622,454.0302" style="stroke:#64748B;stroke-width:1.1;" fill="none" id="ObteniendoConfig-to-ErrorConfig"/><polygon points="1040,458.1469,1038.1853,448.4666,1037.1622,454.0302,1031.5986,453.0071,1040,458.1469" fill="#64748B" style="stroke:#64748B;stroke-width:1.1;stroke-linejoin:miter;stroke-miterlimit:10;"/><text x="986.77" y="344.3638" fill="#475569" font-size="13" lengthAdjust="spacing" textLength="200.3892" font-family="sans-serif">sin conexion / sin config activa</text></g><!--link LeyendoSensor to Evaluando--><g class="link" data-entity-1="ent0006" data-entity-2="ent0010" id="lnk11" data-source-line="45" data-link-type="dependency"><path d="M748.19,428.6669 C728.16,437.7669 705.35,448.3269 684.77,458.2969 C629.71,484.9769 571.5985,515.0155 530.6585,536.4755" style="stroke:#64748B;stroke-width:1.1;" fill="none" id="LeyendoSensor-to-Evaluando"/><polygon points="526.23,538.7969,536.0583,538.1613,530.6585,536.4755,532.3442,531.0757,526.23,538.7969" fill="#64748B" style="stroke:#64748B;stroke-width:1.1;stroke-linejoin:miter;stroke-miterlimit:10;"/><text x="685.77" y="487.8638" fill="#475569" font-size="13" lengthAdjust="spacing" textLength="88.6387" font-family="sans-serif">lectura valida</text></g><!--link LeyendoSensor to ErrorSensor--><g class="link" data-entity-1="ent0006" data-entity-2="ent0012" id="lnk13" data-source-line="46" data-link-type="dependency"><path d="M815.31,428.4969 C826.78,450.0169 844.68,482.0269 862.77,508.2969 C890.49,548.5569 923.8027,588.1182 946.7427,614.2682" style="stroke:#64748B;stroke-width:1.1;" fill="none" id="LeyendoSensor-to-ErrorSensor"/><polygon points="950.04,618.0269,947.1118,608.6234,946.7427,614.2682,941.0979,613.8991,950.04,618.0269" fill="#64748B" style="stroke:#64748B;stroke-width:1.1;stroke-linejoin:miter;stroke-miterlimit:10;"/><text x="863.77" y="487.8638" fill="#475569" font-size="13" lengthAdjust="spacing" textLength="129.4985" font-family="sans-serif">fallo de lectura DHT</text></g><!--link Evaluando to Enfriando--><g class="link" data-entity-1="ent0010" data-entity-2="ent0014" id="lnk15" data-source-line="47" data-link-type="dependency"><path d="M437.44,566.1969 C327.32,571.3769 48.22,587.4469 20.77,618.2969 C6,634.8969 7.15,650.7369 20.77,668.2969 C41.24,694.6969 129.3219,709.8011 184.4519,716.9811" style="stroke:#64748B;stroke-width:1.1;" fill="none" id="Evaluando-to-Enfriando"/><polygon points="189.41,717.6269,181.002,712.4981,184.4519,716.9811,179.9688,720.4311,189.41,717.6269" fill="#64748B" style="stroke:#64748B;stroke-width:1.1;stroke-linejoin:miter;stroke-miterlimit:10;"/><text x="21.77" y="647.8638" fill="#475569" font-size="13" lengthAdjust="spacing" textLength="165.7627" font-family="sans-serif">supera umbral (relay ON)</text></g><!--link Evaluando to Enfriando--><g class="link" data-entity-1="ent0010" data-entity-2="ent0014" id="lnk18" data-source-line="49" data-link-type="dependency"><path d="M437.41,568.6869 C376.94,575.6069 273.21,591.1469 247.77,618.2969 C227.88,639.5169 225.8146,669.5075 227.3446,692.9675" style="stroke:#64748B;stroke-width:1.1;" fill="none" id="Evaluando-to-Enfriando-1"/><polygon points="227.67,697.9569,231.0758,688.7156,227.3446,692.9675,223.0928,689.2363,227.67,697.9569" fill="#64748B" style="stroke:#64748B;stroke-width:1.1;stroke-linejoin:miter;stroke-miterlimit:10;"/><text x="248.77" y="647.8638" fill="#475569" font-size="13" lengthAdjust="spacing" textLength="209.8979" font-family="sans-serif">banda muerta y venia enfriando</text></g><!--link Evaluando to Reposo--><g class="link" data-entity-1="ent0010" data-entity-2="ent0016" id="lnk17" data-source-line="48" data-link-type="dependency"><path d="M473.18,588.3669 C466.67,611.2969 461.47,645.5969 478.77,668.2969 C498.28,693.9169 584.6319,709.7383 635.4519,717.1183" style="stroke:#64748B;stroke-width:1.1;" fill="none" id="Evaluando-to-Reposo"/><polygon points="640.4,717.8369,632.0683,712.585,635.4519,717.1183,630.9186,720.502,640.4,717.8369" fill="#64748B" style="stroke:#64748B;stroke-width:1.1;stroke-linejoin:miter;stroke-miterlimit:10;"/><text x="479.77" y="647.8638" fill="#475569" font-size="13" lengthAdjust="spacing" textLength="181.3652" font-family="sans-serif">dentro de rango (relay OFF)</text></g><!--link Evaluando to Reposo--><g class="link" data-entity-1="ent0010" data-entity-2="ent0016" id="lnk19" data-source-line="50" data-link-type="dependency"><path d="M526.16,564.0169 C568.99,566.3569 632.14,577.2069 665.77,618.2969 C683.9,640.4569 683.7847,669.9268 680.4947,693.0368" style="stroke:#64748B;stroke-width:1.1;" fill="none" id="Evaluando-to-Reposo-1"/><polygon points="679.79,697.9869,685.0185,689.6405,680.4947,693.0368,677.0984,688.5129,679.79,697.9869" fill="#64748B" style="stroke:#64748B;stroke-width:1.1;stroke-linejoin:miter;stroke-miterlimit:10;"/><text x="681.77" y="647.8638" fill="#475569" font-size="13" lengthAdjust="spacing" textLength="212.3608" font-family="sans-serif">banda muerta y venia en reposo</text></g><!--link Enfriando to Publicando--><g class="link" data-entity-1="ent0014" data-entity-2="ent0020" id="lnk21" data-source-line="51" data-link-type="dependency"><path d="M272.16,732.9369 C368.38,753.0369 601.6156,801.7348 702.0356,822.7048" style="stroke:#64748B;stroke-width:1.1;" fill="none" id="Enfriando-to-Publicando"/><polygon points="706.93,823.7269,698.9377,817.9716,702.0356,822.7048,697.3024,825.8027,706.93,823.7269" fill="#64748B" style="stroke:#64748B;stroke-width:1.1;stroke-linejoin:miter;stroke-miterlimit:10;"/></g><!--link Reposo to Publicando--><g class="link" data-entity-1="ent0016" data-entity-2="ent0020" id="lnk22" data-source-line="52" data-link-type="dependency"><path d="M692.27,748.7569 C705.12,766.7069 719.5804,786.9207 732.4104,804.8507" style="stroke:#64748B;stroke-width:1.1;" fill="none" id="Reposo-to-Publicando"/><polygon points="735.32,808.9169,733.3357,799.27,732.4104,804.8507,726.8297,803.9254,735.32,808.9169" fill="#64748B" style="stroke:#64748B;stroke-width:1.1;stroke-linejoin:miter;stroke-miterlimit:10;"/></g><!--link ErrorSensor to Publicando--><g class="link" data-entity-1="ent0012" data-entity-2="ent0020" id="lnk23" data-source-line="53" data-link-type="dependency"><path d="M923.21,661.4269 C916.36,663.7669 909.4,666.1169 902.77,668.2969 C859.9,682.3769 838.84,667.5969 805.77,698.2969 C773.94,727.8469 761.7726,773.9367 756.6826,804.0767" style="stroke:#64748B;stroke-width:1.1;" fill="none" id="ErrorSensor-to-Publicando"/><polygon points="755.85,809.0069,761.2928,800.7986,756.6826,804.0767,753.4045,799.4665,755.85,809.0069" fill="#64748B" style="stroke:#64748B;stroke-width:1.1;stroke-linejoin:miter;stroke-miterlimit:10;"/><text x="806.77" y="727.8638" fill="#475569" font-size="13" lengthAdjust="spacing" textLength="221.4063" font-family="sans-serif">status CRITICAL / SENSOR_ERROR</text></g><!--link Publicando to Esperando--><g class="link" data-entity-1="ent0020" data-entity-2="ent0024" id="lnk25" data-source-line="54" data-link-type="dependency"><path d="M790.77,859.6569 C815.4,874.6569 848.6,893.4169 879.77,906.2969 C928.57,926.4669 982.4867,940.6483 1022.0467,949.7283" style="stroke:#64748B;stroke-width:1.1;" fill="none" id="Publicando-to-Esperando"/><polygon points="1026.92,950.8469,1019.0429,944.9349,1022.0467,949.7283,1017.2533,952.7321,1026.92,950.8469" fill="#64748B" style="stroke:#64748B;stroke-width:1.1;stroke-linejoin:miter;stroke-miterlimit:10;"/><text x="880.77" y="902.3638" fill="#475569" font-size="13" lengthAdjust="spacing" textLength="164.7407" font-family="sans-serif">POST /api/measurements</text></g><!--link ErrorConfig to Esperando--><g class="link" data-entity-1="ent0008" data-entity-2="ent0024" id="lnk26" data-source-line="55" data-link-type="dependency"><path d="M1061.26,508.5969 C1065.41,539.5669 1071.77,594.7969 1071.77,642.2969 C1071.77,642.2969 1071.77,642.2969 1071.77,835.2969 C1071.77,870.2369 1071.77,905.6669 1071.77,930.8669" style="stroke:#64748B;stroke-width:1.1;" fill="none" id="ErrorConfig-to-Esperando"/><polygon points="1071.77,935.8669,1075.77,926.8669,1071.77,930.8669,1067.77,926.8669,1071.77,935.8669" fill="#64748B" style="stroke:#64748B;stroke-width:1.1;stroke-linejoin:miter;stroke-miterlimit:10;"/><text x="1072.77" y="727.8638" fill="#475569" font-size="13" lengthAdjust="spacing" textLength="59.5791" font-family="sans-serif">reintento</text></g><!--link Esperando to ObteniendoConfig--><g class="link" data-entity-1="ent0024" data-entity-2="ent0004" id="lnk27" data-source-line="56" data-link-type="dependency"><path d="M1116.7,942.9169 C1158.3,923.5369 1213.77,887.8469 1213.77,835.2969 C1213.77,402.2969 1213.77,402.2969 1213.77,402.2969 C1213.77,369.2569 1215.6,354.1769 1191.77,331.2969 C1156.13,297.0669 1106.3104,284.4898 1062.6404,279.7198" style="stroke:#64748B;stroke-width:1.1;" fill="none" id="Esperando-to-ObteniendoConfig"/><polygon points="1057.67,279.1769,1066.1825,284.1305,1062.6404,279.7198,1067.0511,276.1778,1057.67,279.1769" fill="#64748B" style="stroke:#64748B;stroke-width:1.1;stroke-linejoin:miter;stroke-miterlimit:10;"/><text x="1214.77" y="647.8638" fill="#475569" font-size="13" lengthAdjust="spacing" textLength="230.458" font-family="sans-serif">paso measurementIntervalSeconds</text></g><?plantuml-src ZLRRRjiu47tNLmom3uqNJHFvajXPe80jMsc0j2xixDDYiHX9OvUDHAeabTHzwaVi5-wNx51n7DfMx1hmXPnppbmu6leDd9wU0XahSWM5oaXB1UtpzWMSB7AqRq5JfcH6cActK69E5Y6Z74gjLfHQzGSisAmWpL4h1cY4d9OY4Rd8C0EIS2tiXoffEJ-1kHVIOGf8CBrVQbN9B5Avql1RNByyXFd2FX-5NC82SqEUPKtJaZI4RSymfWLMkOsLj6lLypYyR0-R8NFnWo3iUCQXrkfnpRpeNdRxersZ9zszxFKk1hk0koyYlPTa38JlGi_8zJ5cj9TqFnx6qHvCQJw7vmpwWt3KReOST3QqLekaikJ5tEbqmrxFBx95IyV3Ue8T3AiobABPrvf4yMJhN9-11zMGMqllnnLFnkFU7inNYjhTyDmFlMGHN3Ra6CQzUD00zDK6tM5drFShgufIIPBs5uvo0psOgUHdxhXOZV9rzhgFFwr8HObDiUtd-W8-cA-XRnN9b6x5WjzoEuPeDEvDmWRqDJilZqSXLLFlJU91rDb5RRaTzeVdtUqk40_2hewNSOCyrdmrQYomuE7sIssuHJZOa2hvoeFpUAnhN4EaRu0TBHdZHZ4K-AqIilx9Ovndfe6JFp_Ujk2_d_z2AbAUwsnAUGXebRk1d2FCq9G9QRs2CxZcH_iHL-y2AsnE4EqoJXh0hI3uw_U_UQI_Xnl9ZOIv-85y3GHRgze-JIn9GRoCb5o89Lm1QesIEoNOipd2BQtSpfoauPolN1pELDSOkIgEac4pTy8ZM6_y624TcxuB9JdszV95BDXsLGiyO5xLiL_nFPRQYkyptd8E6y3EsoPElgMU2lVC6t-u2rxqQe9SQB5MDrL93AgAH2CNMLEEAvX-QkrGPbGgu_0PkUDm-boyfTemuhXrm4l2tmX5HPhlxHKySCcGUs0DUCtNAop-B-00mOi3n_fS9Rb8QxcrmCwkNwPjaoi3tooLWMXsStSJ3M_vcEQJJ_Ffx9_9R3QT1HwsJisueZqnFq_dTt26fJWh24sbgU0AcS1lWLsA9Y6vQop7jDbzfKTBv4GyuHicQgxMdBY5ClC_?></g></svg>