<svg xmlns="http://www.w3.org/2000/svg" xmlns:xlink="http://www.w3.org/1999/xlink" version="1.1" data-diagram-type="STATE" style="width:696px;height:364px;background:#FFFFFF;" width="696px" height="364px" viewBox="0 0 696 364" zoomAndPan="magnify" preserveAspectRatio="none" contentStyleType="text/css"><?plantuml 1.2026.7beta8?><defs/><g font-family="sans-serif" lengthAdjust="spacing"><g class="title" data-source-line="5"><text x="127.322" y="35.421" fill="#000" font-size="22" textLength="439.646" font-weight="700" font-family="Verdana">Relay / Cooler (GPIO14, activo-alto)</text></g><g class="entity" data-qualified-name="Apagado" id="ent0001" data-source-line="8"><rect x="267.41" y="138.609" width="101.792" height="52.594" fill="#FFF" style="stroke:#000;stroke-width:1;" rx="12.5" ry="12.5"/><line x1="267.41" y1="164.906" x2="369.202" y2="164.906" style="stroke:#000;stroke-width:1;"/><text x="287.326" y="156.604" fill="#000" font-size="14" textLength="61.961" font-family="Verdana">Apagado</text><text x="272.41" y="182.901" fill="#000" font-size="14" textLength="81.792" font-family="Verdana">GPIO14 = 0</text></g><g class="entity" data-qualified-name="Encendido" id="ent0002" data-source-line="9"><rect x="267.41" y="298.209" width="101.792" height="52.594" fill="#FFF" style="stroke:#000;stroke-width:1;" rx="12.5" ry="12.5"/><line x1="267.41" y1="324.506" x2="369.202" y2="324.506" style="stroke:#000;stroke-width:1;"/><text x="281.741" y="316.204" fill="#000" font-size="14" textLength="73.131" font-family="Verdana">Encendido</text><text x="272.41" y="342.501" fill="#000" font-size="14" textLength="81.792" font-family="Verdana">GPIO14 = 1</text></g><g class="start_entity" data-qualified-name=".start." id="ent0003" data-source-line="7"><ellipse cx="318.31" cy="67.609" rx="10" ry="10" fill="#FFF" style="stroke:#000;stroke-width:1;"/></g><!--link *start* to Apagado--><g class="link" data-entity-1="ent0003" data-entity-2="ent0001" id="lnk4" data-source-line="7" data-link-type="dependency"><path d="M318.31,78.099 C318.31,92.029 318.31,113.539 318.31,133.419" style="stroke:#000;stroke-width:1;" fill="none" id="*start*-to-Apagado"/><polygon points="318.31,138.419,322.31,129.419,318.31,133.419,314.31,129.419,318.31,138.419" fill="#000" style="stroke:#000;stroke-width:1;stroke-linejoin:miter;stroke-miterlimit:10;"/></g><!--link Apagado to Encendido--><g class="link" data-entity-1="ent0001" data-entity-2="ent0002" id="lnk5" data-source-line="10" data-link-type="dependency"><path d="M267.02,169.789 C201.01,175.979 91.87,190.639 67.31,221.209 C11,291.259 173.445,313.342 262.105,320.232" style="stroke:#000;stroke-width:1;" fill="none" id="Apagado-to-Encendido"/><polygon points="267.09,320.619,258.427,315.934,262.105,320.232,257.807,323.91,267.09,320.619" fill="#000" style="stroke:#000;stroke-width:1;stroke-linejoin:miter;stroke-miterlimit:10;"/><text x="127.362" y="234.276" fill="#000" font-size="13" textLength="88.588" font-family="Verdana">coil 0 = TRUE</text><text x="68.31" y="249.409" fill="#000" font-size="13" textLength="206.692" font-family="Verdana">(OpenPLC: temp >= umbralON,</text><text x="110.271" y="264.542" fill="#000" font-size="13" textLength="122.77" font-family="Verdana">min OFF cumplido)</text></g><!--link Encendido to Apagado--><g class="link" data-entity-1="ent0002" data-entity-2="ent0001" id="lnk6" data-source-line="11" data-link-type="dependency"><path d="M316.63,297.909 C316.09,288.569 315.57,277.909 315.31,268.209 C314.74,247.329 314.74,242.089 315.31,221.209 C315.57,211.499 315.801,205.831 316.341,196.491" style="stroke:#000;stroke-width:1;" fill="none" id="Encendido-to-Apagado"/><polygon points="316.63,191.499,312.117,200.253,316.341,196.491,320.104,200.715,316.63,191.499" fill="#000" style="stroke:#000;stroke-width:1;stroke-linejoin:miter;stroke-miterlimit:10;"/><text x="375.289" y="234.276" fill="#000" font-size="13" textLength="93.964" font-family="Verdana">coil 0 = FALSE</text><text x="316.31" y="249.409" fill="#000" font-size="13" textLength="211.923" font-family="Verdana">(OpenPLC: temp &lt;= umbralOFF,</text><text x="363.502" y="264.542" fill="#000" font-size="13" textLength="117.54" font-family="Verdana">min ON cumplido)</text></g><!--link Encendido to Apagado--><g class="link" data-entity-1="ent0002" data-entity-2="ent0001" id="lnk9" data-source-line="14" data-link-type="dependency"><path d="M369.53,317.459 C426.32,309.589 512.54,293.729 532.31,268.209 C545.1,251.689 545.1,237.719 532.31,221.209 C512.54,195.679 431.273,180.506 374.483,172.636" style="stroke:#000;stroke-width:1;" fill="none" id="Encendido-to-Apagado-1"/><polygon points="369.53,171.949,377.896,177.147,374.483,172.636,378.994,169.223,369.53,171.949" fill="#000" style="stroke:#000;stroke-width:1;stroke-linejoin:miter;stroke-miterlimit:10;"/><text x="558.649" y="241.776" fill="#000" font-size="13" textLength="105.301" font-family="Verdana">apagado seguro</text><text x="542.31" y="256.909" fill="#000" font-size="13" textLength="137.979" font-family="Verdana">(gateway se detiene)</text></g><!--link Encendido to Encendido--><g class="link" data-entity-1="ent0002" data-entity-2="ent0002" id="lnk7" data-source-line="12" data-link-type="dependency"><path d="M369.45,309.569 C388.51,309.079 404.2,314.059 404.2,324.499 C404.2,334.949 393.508,340.048 374.448,339.558" style="stroke:#000;stroke-width:1;" fill="none" id="Encendido-to-Encendido"/><polygon points="369.45,339.429,378.344,343.659,374.448,339.558,378.55,335.662,369.45,339.429" fill="#000" style="stroke:#000;stroke-width:1;stroke-linejoin:miter;stroke-miterlimit:10;"/><text x="456.897" y="321.566" fill="#000" font-size="13" textLength="96.808" font-family="Verdana">coil sin cambio</text><text x="410.2" y="336.699" fill="#000" font-size="13" textLength="190.201" font-family="Verdana">(banda muerta / anti-ciclado)</text></g><!--link Apagado to Apagado--><g class="link" data-entity-1="ent0001" data-entity-2="ent0001" id="lnk8" data-source-line="13" data-link-type="dependency"><path d="M369.45,154.279 C388.51,153.929 404.2,157.479 404.2,164.909 C404.2,172.339 393.509,175.969 374.449,175.629" style="stroke:#000;stroke-width:1;" fill="none" id="Apagado-to-Apagado"/><polygon points="369.45,175.539,378.377,179.699,374.449,175.629,378.52,171.701,369.45,175.539" fill="#000" style="stroke:#000;stroke-width:1;stroke-linejoin:miter;stroke-miterlimit:10;"/><text x="456.897" y="161.976" fill="#000" font-size="13" textLength="96.808" font-family="Verdana">coil sin cambio</text><text x="410.2" y="177.109" fill="#000" font-size="13" textLength="190.201" font-family="Verdana">(banda muerta / anti-ciclado)</text></g><?plantuml-src ZP7BJi9058RtVOfZN4WD5KXS4IKXI8q9KeAo4XUdqsEPC9SwCvMuyo5yGf_4ALHI9IJEPavc_lyxjnEt8abG2EGgi6kk2ZGe8KMspeqkLJRIGXiuZRUdeR0hpFI6gnnUK5WApk26O-v_4382YQybLzkGhFDA2wt5_II4huzFC2JmlSEq5cI0QOagymeeV1w1aEgqTYO5gTbaT14uxWJ1lB911qOxO-jsTfVqBjk0pF4t7Q5mEWo2f_DdYA8130lCFJMeR-Z3JW_Nq0t6Yf7A-E_dtbvR-PiIfhc0hfSypXVZfMhLXVN1aInWS0sbJ0sAPDfUAiaL974Ch9I5yFQmaQnHLvCQ3oSFXzYhFJQEVxZJezY3SgtNCvGfrvwSLYC6MP9nw2U8ol68SIQm0ZMx_bFT_o77ciGwifINfgBaw6ZZzsZ9hzXnKXH-0m00?></g></svg>