<svg xmlns="http://www.w3.org/2000/svg" xmlns:xlink="http://www.w3.org/1999/xlink" version="1.1" data-diagram-type="STATE" style="width:715px;height:315px;background:#FFFFFF;" width="715px" height="315px" viewBox="0 0 715 315" zoomAndPan="magnify" preserveAspectRatio="none" contentStyleType="text/css"><?plantuml 1.2026.7beta3?><defs/><g><g class="title" data-source-line="39"><text x="299.6318" y="22.9951" fill="#0F172A" font-size="14" lengthAdjust="spacing" textLength="109.2178" font-weight="700" font-family="sans-serif">Relay / Cooler</text></g><g class="start_entity" data-qualified-name=".start." id="ent0001" data-source-line="41"><ellipse cx="187.48" cy="53.2969" rx="10" ry="10" fill="#222222" style="stroke:#222222;stroke-width:1;"/></g><g class="entity" data-qualified-name="Apagado" id="ent0002" data-source-line="41"><rect x="148.71" y="124.2969" width="77.5352" height="50" fill="#F8FAFC" style="stroke:#0891B2;stroke-width:0.5;" rx="6" ry="6"/><line x1="148.71" y1="149.4297" x2="226.2452" y2="149.4297" style="stroke:#0891B2;stroke-width:0.5;"/><text x="158.71" y="141.3638" fill="#0F172A" font-size="13" lengthAdjust="spacing" textLength="57.5352" font-family="sans-serif">Apagado</text></g><g class="entity" data-qualified-name="Encendido" id="ent0004" data-source-line="42"><rect x="143.52" y="251.2969" width="87.9072" height="50" fill="#F8FAFC" style="stroke:#0891B2;stroke-width:0.5;" rx="6" ry="6"/><line x1="143.52" y1="276.4297" x2="231.4272" y2="276.4297" style="stroke:#0891B2;stroke-width:0.5;"/><text x="153.52" y="268.3638" fill="#0F172A" font-size="13" lengthAdjust="spacing" textLength="67.9072" font-family="sans-serif">Encendido</text></g><!--link *start* to Apagado--><g class="link" data-entity-1="ent0001" data-entity-2="ent0002" id="lnk3" data-source-line="41" data-link-type="dependency"><path d="M187.48,63.6569 C187.48,77.5869 187.48,99.2469 187.48,118.9469" style="stroke:#64748B;stroke-width:1.1;" fill="none" id="*start*-to-Apagado"/><polygon points="187.48,123.9469,191.48,114.9469,187.48,118.9469,183.48,114.9469,187.48,123.9469" fill="#64748B" style="stroke:#64748B;stroke-width:1.1;stroke-linejoin:miter;stroke-miterlimit:10;"/></g><!--link Apagado to Encendido--><g class="link" data-entity-1="ent0002" data-entity-2="ent0004" id="lnk5" data-source-line="42" data-link-type="dependency"><path d="M148.24,152.1669 C112.26,156.2069 60.83,168.3769 35.48,204.2969 C6,246.0569 83.4117,263.2826 138.1317,270.3926" style="stroke:#64748B;stroke-width:1.1;" fill="none" id="Apagado-to-Encendido"/><polygon points="143.09,271.0369,134.6804,265.9106,138.1317,270.3926,133.6496,273.8439,143.09,271.0369" fill="#64748B" style="stroke:#64748B;stroke-width:1.1;stroke-linejoin:miter;stroke-miterlimit:10;"/><text x="36.48" y="217.3638" fill="#475569" font-size="13" lengthAdjust="spacing" textLength="256.3755" font-family="sans-serif">temp >= tempMax o hum >= humMax</text></g><!--link Encendido to Apagado--><g class="link" data-entity-1="ent0004" data-entity-2="ent0002" id="lnk6" data-source-line="43" data-link-type="dependency"><path d="M231.84,265.4469 C270.12,254.6769 316.47,234.7769 297.48,204.2969 C282.06,179.5569 256.4326,167.2622 231.4826,159.8422" style="stroke:#64748B;stroke-width:1.1;" fill="none" id="Encendido-to-Apagado"/><polygon points="226.69,158.4169,234.1764,164.8164,231.4826,159.8422,236.4568,157.1483,226.69,158.4169" fill="#64748B" style="stroke:#64748B;stroke-width:1.1;stroke-linejoin:miter;stroke-miterlimit:10;"/><text x="302.48" y="217.3638" fill="#475569" font-size="13" lengthAdjust="spacing" textLength="397.0015" font-family="sans-serif">temp &lt;= tempMax - histTemp y hum &lt;= humMax - histHum</text></g><!--link Encendido to Encendido--><g class="link" data-entity-1="ent0004" data-entity-2="ent0004" id="lnk7" data-source-line="44" data-link-type="dependency"><path d="M231.72,264.5169 C250.46,263.6269 266.43,267.5569 266.43,276.2969 C266.43,285.0369 255.4544,289.2041 236.7144,288.3141" style="stroke:#64748B;stroke-width:1.1;" fill="none" id="Encendido-to-Encendido"/><polygon points="231.72,288.0769,240.5201,292.4993,236.7144,288.3141,240.8996,284.5083,231.72,288.0769" fill="#64748B" style="stroke:#64748B;stroke-width:1.1;stroke-linejoin:miter;stroke-miterlimit:10;"/><text x="272.43" y="280.8638" fill="#475569" font-size="13" lengthAdjust="spacing" textLength="251.7227" font-family="sans-serif">dentro de la banda muerta (histeresis)</text></g><!--link Apagado to Apagado--><g class="link" data-entity-1="ent0002" data-entity-2="ent0002" id="lnk8" data-source-line="45" data-link-type="dependency"><path d="M226.56,139.1169 C245.03,137.9369 261.24,141.3269 261.24,149.2969 C261.24,157.2669 250.0198,160.9757 231.5498,159.7957" style="stroke:#64748B;stroke-width:1.1;" fill="none" id="Apagado-to-Apagado"/><polygon points="226.56,159.4769,235.2867,164.0426,231.5498,159.7957,235.7967,156.0588,226.56,159.4769" fill="#64748B" style="stroke:#64748B;stroke-width:1.1;stroke-linejoin:miter;stroke-miterlimit:10;"/><text x="267.24" y="153.8638" fill="#475569" font-size="13" lengthAdjust="spacing" textLength="251.7227" font-family="sans-serif">dentro de la banda muerta (histeresis)</text></g><?plantuml-src ZPN1Sjem48RlFCNEz13I2Ia6cq2RPiOOd1oIIvkUEZq8Um4LMN8akIazzI7wX7sIBgu90diWp82mzzElVwNr-WmwdGwWiLmeo5IAMYheTNi3QCy5inUWCLKoHPQg2yYPGCiWHG6vLcjChFe0SmehI0JJYW3DGE22pxZWAKi19TnoUrVCpZVhjCoAomsJmOmbguLMXKmZ9PI6Dt7vSGYpf3MVkLp0d0c3JgIQfYLgy7fEO89pLWWRAsahrMxiNVN2PkGp_uNWzPrWgBLwhcOE_2j_E3uCEjB-LH0CHeV0uv8dAud6W7VfEK7Q7sF6jQI7SHX7DKnfEeTj1iEHD-ur8qSN2wtLV5POT3pt-xuN1EucMsRnjAt_s55RXS64cRhMD8gdU-Uw1O-gCIejNVSLJoUJe8QvIb7FzxgkzPn4sA8XHoyEub43wAgD_B0_7hexgx9SIPJs5KVvWXxDLD8pTrgif5oTMlNHh-K9prcJjtgkE_XelWQV2fG9tlCvVUM-XsWy2QPU0trBY-UdNKZLL7lJU1Jr3wczPSDXsFNtgu3_u7PzUXjVo5F5Lr8JpZ9gRgygmxq9HmjIpRvJuppjjU8Qd9u1BRGWPjEA8MDF1PVbNshZr3CDjByyt9_3tzz_g7iBjePtL8nAKBTCb8GbDnOr6cukMvPRWV2fWg8IQhM-llr6tVe6mfmjIAzLZUMzAHslJ3bTlGUBMGut7ylnWVq41SiYszoWWQvREzPHsywxtithb9uUDtVNfSJrLg8AtHNPWPXh8wLdZDuzbBzWz5wHAOEiG4qlglOkr_EzB7PUNZVv7m00?></g></svg>