<svg xmlns="http://www.w3.org/2000/svg" xmlns:xlink="http://www.w3.org/1999/xlink" version="1.1" data-diagram-type="STATE" style="width:934px;height:758px;background:#FFFFFF;" width="934px" height="758px" viewBox="0 0 934 758" zoomAndPan="magnify" preserveAspectRatio="none" contentStyleType="text/css"><?plantuml 1.2026.7beta8?><defs/><g font-family="sans-serif" lengthAdjust="spacing"><g class="title" data-source-line="6"><text x="161.974" y="35.421" fill="#000" font-size="22" textLength="608.223" font-weight="700" font-family="Verdana">OpenPLC — controlador on-off con banda muerta</text></g><g class="entity" data-qualified-name="FailSafe" id="ent0001" data-source-line="9"><rect x="540.99" y="154.609" width="110.843" height="68.891" fill="#FFF" style="stroke:#000;stroke-width:1;" rx="12.5" ry="12.5"/><line x1="540.99" y1="180.906" x2="651.833" y2="180.906" style="stroke:#000;stroke-width:1;"/><text x="568.702" y="172.604" fill="#000" font-size="14" textLength="55.419" font-family="Verdana">FailSafe</text><text x="545.99" y="198.901" fill="#000" font-size="14" textLength="90.843" font-family="Verdana">cooler = OFF</text><text x="545.99" y="215.198" fill="#000" font-size="14" textLength="77.198" font-family="Verdana">Estado = 3</text></g><g class="entity" data-qualified-name="Reposo" id="ent0002" data-source-line="13"><rect x="244.99" y="300.499" width="110.843" height="68.891" fill="#FFF" style="stroke:#000;stroke-width:1;" rx="12.5" ry="12.5"/><line x1="244.99" y1="326.796" x2="355.833" y2="326.796" style="stroke:#000;stroke-width:1;"/><text x="274.585" y="318.494" fill="#000" font-size="14" textLength="51.652" font-family="Verdana">Reposo</text><text x="249.99" y="344.791" fill="#000" font-size="14" textLength="90.843" font-family="Verdana">cooler = OFF</text><text x="249.99" y="361.088" fill="#000" font-size="14" textLength="77.198" font-family="Verdana">Estado = 0</text></g><g class="entity" data-qualified-name="Enfriando" id="ent0003" data-source-line="15"><rect x="348.81" y="622.279" width="105.21" height="68.891" fill="#FFF" style="stroke:#000;stroke-width:1;" rx="12.5" ry="12.5"/><line x1="348.81" y1="648.576" x2="454.02" y2="648.576" style="stroke:#000;stroke-width:1;"/><text x="367.816" y="640.274" fill="#000" font-size="14" textLength="67.197" font-family="Verdana">Enfriando</text><text x="353.81" y="666.571" fill="#000" font-size="14" textLength="85.21" font-family="Verdana">cooler = ON</text><text x="353.81" y="682.868" fill="#000" font-size="14" textLength="77.198" font-family="Verdana">Estado = 1</text></g><g class="entity" data-qualified-name="EsperaAntiCiclado" id="ent0004" data-source-line="17"><rect x="256.89" y="461.389" width="149.056" height="68.891" fill="#FFF" style="stroke:#000;stroke-width:1;" rx="12.5" ry="12.5"/><line x1="256.89" y1="487.686" x2="405.946" y2="487.686" style="stroke:#000;stroke-width:1;"/><text x="267.874" y="479.384" fill="#000" font-size="14" textLength="127.087" font-family="Verdana">EsperaAntiCiclado</text><text x="261.89" y="505.681" fill="#000" font-size="14" textLength="129.056" font-family="Verdana">mantiene la salida</text><text x="261.89" y="521.978" fill="#000" font-size="14" textLength="77.198" font-family="Verdana">Estado = 2</text></g><g class="start_entity" data-qualified-name=".start." id="ent0005" data-source-line="8"><ellipse cx="596.41" cy="67.609" rx="10" ry="10" fill="#FFF" style="stroke:#000;stroke-width:1;"/></g><!--link *start* to FailSafe--><g class="link" data-entity-1="ent0005" data-entity-2="ent0001" id="lnk6" data-source-line="8" data-link-type="dependency"><path d="M596.41,77.979 C596.41,94.199 596.41,123.269 596.41,149.239" style="stroke:#000;stroke-width:1;" fill="none" id="*start*-to-FailSafe"/><polygon points="596.41,154.239,600.41,145.239,596.41,149.239,592.41,145.239,596.41,154.239" fill="#000" style="stroke:#000;stroke-width:1;stroke-linejoin:miter;stroke-miterlimit:10;"/><text x="597.41" y="120.676" fill="#000" font-size="13" textLength="163.547" font-family="Verdana">arranque (registros en 0)</text></g><!--link FailSafe to Reposo--><g class="link" data-entity-1="ent0001" data-entity-2="ent0002" id="lnk7" data-source-line="11" data-link-type="dependency"><path d="M540.63,193.719 C462.71,200.139 327.43,216.439 297.41,253.499 C287.03,266.309 285.977,279.488 288.807,295.268" style="stroke:#000;stroke-width:1;" fill="none" id="FailSafe-to-Reposo"/><polygon points="289.69,300.189,292.038,290.625,288.807,295.268,284.164,292.037,289.69,300.189" fill="#000" style="stroke:#000;stroke-width:1;stroke-linejoin:miter;stroke-miterlimit:10;"/><text x="298.41" y="266.566" fill="#000" font-size="13" textLength="254.643" font-family="Verdana">banda valida (umbralON > umbralOFF)</text></g><!--link Reposo to FailSafe--><g class="link" data-entity-1="ent0002" data-entity-2="ent0001" id="lnk14" data-source-line="27" data-link-type="dependency"><path d="M356.3,333.469 C412.82,330.189 499.82,317.139 557.41,270.499 C572.01,258.679 579.805,244.756 585.775,228.406" style="stroke:#000;stroke-width:1;" fill="none" id="Reposo-to-FailSafe"/><polygon points="587.49,223.709,580.646,230.791,585.775,228.406,588.16,233.535,587.49,223.709" fill="#000" style="stroke:#000;stroke-width:1;stroke-linejoin:miter;stroke-miterlimit:10;"/><text x="573.41" y="266.566" fill="#000" font-size="13" textLength="95.761" font-family="Verdana">banda invalida</text></g><!--link Reposo to Enfriando--><g class="link" data-entity-1="ent0002" data-entity-2="ent0003" id="lnk8" data-source-line="20" data-link-type="dependency"><path d="M244.93,343.079 C199.1,351.029 133.93,367.279 85.41,399.389 C33.35,433.849 11,472.399 34.41,530.279 C48.8,565.829 60.81,573.799 94.41,592.279 C175.61,636.929 279.589,649.943 343.489,653.863" style="stroke:#000;stroke-width:1;" fill="none" id="Reposo-to-Enfriando"/><polygon points="348.48,654.169,339.742,649.626,343.489,653.863,339.252,657.611,348.48,654.169" fill="#000" style="stroke:#000;stroke-width:1;stroke-linejoin:miter;stroke-miterlimit:10;"/><text x="72.001" y="492.896" fill="#000" font-size="13" textLength="130.095" font-family="Verdana">temp >= umbralON</text><text x="35.41" y="508.029" fill="#000" font-size="13" textLength="203.277" font-family="Verdana">y min OFF cumplido (TON 15 s)</text></g><!--link Enfriando to Reposo--><g class="link" data-entity-1="ent0003" data-entity-2="ent0002" id="lnk10" data-source-line="22" data-link-type="dependency"><path d="M454.34,643.789 C482.69,634.569 515.57,618.749 534.41,592.279 C652.87,425.849 580.88,435.919 552.41,399.389 C528.56,368.789 427.959,351.309 361.259,342.709" style="stroke:#000;stroke-width:1;" fill="none" id="Enfriando-to-Reposo"/><polygon points="356.3,342.069,364.715,347.187,361.259,342.709,365.738,339.253,356.3,342.069" fill="#000" style="stroke:#000;stroke-width:1;stroke-linejoin:miter;stroke-miterlimit:10;"/><text x="632.771" y="492.896" fill="#000" font-size="13" textLength="135.326" font-family="Verdana">temp &lt;= umbralOFF</text><text x="601.41" y="508.029" fill="#000" font-size="13" textLength="198.047" font-family="Verdana">y min ON cumplido (TON 15 s)</text></g><!--link Reposo to EsperaAntiCiclado--><g class="link" data-entity-1="ent0002" data-entity-2="ent0004" id="lnk9" data-source-line="21" data-link-type="dependency"><path d="M244.73,342.289 C172.45,352.789 60.26,378.119 102.41,431.389 C138.4,476.869 173.59,445.669 229.41,461.389 C238.2,463.859 242.597,465.13 251.667,467.96" style="stroke:#000;stroke-width:1;" fill="none" id="Reposo-to-EsperaAntiCiclado"/><polygon points="256.44,469.449,249.04,462.95,251.667,467.96,246.657,470.587,256.44,469.449" fill="#000" style="stroke:#000;stroke-width:1;stroke-linejoin:miter;stroke-miterlimit:10;"/><text x="115.169" y="412.456" fill="#000" font-size="13" textLength="130.095" font-family="Verdana">temp >= umbralON</text><text x="103.41" y="427.589" fill="#000" font-size="13" textLength="153.613" font-family="Verdana">y min OFF NO cumplido</text></g><!--link EsperaAntiCiclado to Reposo--><g class="link" data-entity-1="ent0004" data-entity-2="ent0002" id="lnk13" data-source-line="25" data-link-type="dependency"><path d="M309.46,461.189 C304.51,451.899 299.97,441.569 297.41,431.389 C292.37,411.289 292.451,393.032 294.381,374.522" style="stroke:#000;stroke-width:1;" fill="none" id="EsperaAntiCiclado-to-Reposo"/><polygon points="294.9,369.549,289.988,378.086,294.381,374.522,297.945,378.916,294.9,369.549" fill="#000" style="stroke:#000;stroke-width:1;stroke-linejoin:miter;stroke-miterlimit:10;"/><text x="298.41" y="419.956" fill="#000" font-size="13" textLength="249.863" font-family="Verdana">timer cumplido y temp &lt;= umbralOFF</text></g><!--link Enfriando to EsperaAntiCiclado--><g class="link" data-entity-1="ent0003" data-entity-2="ent0004" id="lnk11" data-source-line="23" data-link-type="dependency"><path d="M388.24,621.919 C380.92,603.559 371.49,580.539 362.41,560.279 C358.05,550.549 355.276,544.591 350.606,535.041" style="stroke:#000;stroke-width:1;" fill="none" id="Enfriando-to-EsperaAntiCiclado"/><polygon points="348.41,530.549,348.77,540.392,350.606,535.041,355.957,536.877,348.41,530.549" fill="#000" style="stroke:#000;stroke-width:1;stroke-linejoin:miter;stroke-miterlimit:10;"/><text x="383.939" y="573.346" fill="#000" font-size="13" textLength="135.326" font-family="Verdana">temp &lt;= umbralOFF</text><text x="377.41" y="588.479" fill="#000" font-size="13" textLength="148.383" font-family="Verdana">y min ON NO cumplido</text></g><!--link EsperaAntiCiclado to Enfriando--><g class="link" data-entity-1="ent0004" data-entity-2="ent0003" id="lnk12" data-source-line="24" data-link-type="dependency"><path d="M256.41,522.119 C247.34,524.969 238.19,527.759 229.41,530.279 C176.17,545.589 142.55,516.639 108.41,560.279 C99.65,571.479 99.48,581.209 108.41,592.279 C137.99,628.939 267.228,645.051 343.338,651.591" style="stroke:#000;stroke-width:1;" fill="none" id="EsperaAntiCiclado-to-Enfriando"/><polygon points="348.32,652.019,339.695,647.264,343.338,651.591,339.011,655.234,348.32,652.019" fill="#000" style="stroke:#000;stroke-width:1;stroke-linejoin:miter;stroke-miterlimit:10;"/><text x="109.41" y="580.846" fill="#000" font-size="13" textLength="244.632" font-family="Verdana">timer cumplido y temp >= umbralON</text></g><!--link Enfriando to FailSafe--><g class="link" data-entity-1="ent0003" data-entity-2="ent0001" id="lnk15" data-source-line="28" data-link-type="dependency"><path d="M454.36,647.169 C554.02,629.879 763.27,587.489 805.41,530.279 C884.04,423.529 732.545,289.393 648.855,226.843" style="stroke:#000;stroke-width:1;" fill="none" id="Enfriando-to-FailSafe"/><polygon points="644.85,223.849,649.664,232.441,648.855,226.843,654.454,226.033,644.85,223.849" fill="#000" style="stroke:#000;stroke-width:1;stroke-linejoin:miter;stroke-miterlimit:10;"/><text x="822.41" y="419.956" fill="#000" font-size="13" textLength="95.761" font-family="Verdana">banda invalida</text></g><g class="legend" data-source-line="30"><rect x="154.237" y="704.17" width="623.696" height="42.594" fill="none" style="stroke:#000;stroke-width:1;" rx="7.5" ry="7.5"/><text x="159.237" y="722.165" fill="#000" font-size="14" textLength="613.696" font-family="Verdana">umbralON = temperatureMax · umbralOFF = temperatureMax - hysteresisTemperature</text><text x="159.237" y="738.462" fill="#000" font-size="14" textLength="471.796" font-family="Verdana">(el gateway traduce la config del backend y la escribe por Modbus)</text></g><?plantuml-src VLJ1ZjCm4BtxAmPn84NRgjqLbnMfX4eh3jiMBSi949ecazHQnyxQpYwzxKVmBzpv5Bw4ITgw2Mt99SdCyvltPco_y6ig24g5KWjtBtM95WjOONAVMrFfT6AKiV1orZmjX5jZQfwapY53vKYyWlSISyuWf0G5FbHIDv_aF2CTH9_dDptuy_mJ4gEzDOgZ5aZ3iYJzyMO2qIx-VIsT9qjEke7plG5JJniEY3xSZeQzQnZ6jrGQPovW54zrPYNgb7ykuwahoU8xxUL49dM12xYAPoZL9yne8BpqYaAzVwKOtJTPLeVOlauHYegiHo6-lFu6_VuOzaHm3MWjweUA8BAKirpB1jdAi2TQeCGOHHPYM7BdMl6TcnYk3j6QVskA0TloZwWalwAgM5bKomMCOVSvc_M42EXEcH0DHOOYjAW3NdJY0JuIHqtaT87yIvf08RX6rqbOOBaC-cfZxKAUYXB6yTxAuglUG25rBHwIgYYPcmTzntP7Ry3rEZGdAlwFRh4CZ2sldKutoz_6XyQ6zOkJQheqPmMTOUm8Ebfxr2bPyAI2YisHrpCS1tCd2ThQEbDgxT3j1fJwSJVgZklpEA4e9vt2odXl2W51AU-8kZQBzPMbEVw0txyEAewpVLXlzdV0tI75Z14foD7J4x8TYscLD7kI3sqcSxvkL7DrrI8sTPnSOkMAxpS-ttEJhYgU8IUtEly2?></g></svg>