<svg xmlns="http://www.w3.org/2000/svg" xmlns:xlink="http://www.w3.org/1999/xlink" version="1.1" data-diagram-type="STATE" style="width:531px;height:442px;background:#FFFFFF;" width="531px" height="442px" viewBox="0 0 531 442" zoomAndPan="magnify" preserveAspectRatio="none" contentStyleType="text/css"><?plantuml 1.2026.7beta3?><defs/><g><g class="title" data-source-line="2"><text x="226.8189" y="22.9951" fill="#000000" font-size="14" lengthAdjust="spacing" textLength="70.8408" font-weight="700" font-family="sans-serif">OpenPLC</text></g><g class="start_entity" data-qualified-name=".start." id="ent0001" data-source-line="4"><ellipse cx="190.69" cy="53.2969" rx="10" ry="10" fill="#222222" style="stroke:#222222;stroke-width:1;"/></g><g class="entity" data-qualified-name="EsperandoDatos" id="ent0002" data-source-line="4"><rect x="123.18" y="124.2969" width="135.0078" height="50" fill="#F1F1F1" style="stroke:#181818;stroke-width:0.5;" rx="12.5" ry="12.5"/><line x1="123.18" y1="150.5938" x2="258.1878" y2="150.5938" style="stroke:#181818;stroke-width:0.5;"/><text x="133.18" y="142.292" fill="#000000" font-size="14" lengthAdjust="spacing" textLength="115.0078" font-family="sans-serif">EsperandoDatos</text></g><g class="entity" data-qualified-name="Evaluando" id="ent0004" data-source-line="5"><rect x="7" y="251.2969" width="93.377" height="50" fill="#F1F1F1" style="stroke:#181818;stroke-width:0.5;" rx="12.5" ry="12.5"/><line x1="7" y1="277.5938" x2="100.377" y2="277.5938" style="stroke:#181818;stroke-width:0.5;"/><text x="17" y="269.292" fill="#000000" font-size="14" lengthAdjust="spacing" textLength="73.377" font-family="sans-serif">Evaluando</text></g><g class="entity" data-qualified-name="SalidaActualizada" id="ent0006" data-source-line="6"><rect x="133.64" y="378.2969" width="144.0996" height="50" fill="#F1F1F1" style="stroke:#181818;stroke-width:0.5;" rx="12.5" ry="12.5"/><line x1="133.64" y1="404.5938" x2="277.7396" y2="404.5938" style="stroke:#181818;stroke-width:0.5;"/><text x="143.64" y="396.292" fill="#000000" font-size="14" lengthAdjust="spacing" textLength="124.0996" font-family="sans-serif">SalidaActualizada</text></g><!--link *start* to EsperandoDatos--><g class="link" data-entity-1="ent0001" data-entity-2="ent0002" id="lnk3" data-source-line="4" data-link-type="dependency"><path d="M190.69,63.6569 C190.69,77.5869 190.69,99.2469 190.69,118.9469" style="stroke:#181818;stroke-width:1;" fill="none" id="*start*-to-EsperandoDatos"/><polygon points="190.69,123.9469,194.69,114.9469,190.69,118.9469,186.69,114.9469,190.69,123.9469" fill="#181818" style="stroke:#181818;stroke-width:1;stroke-linejoin:miter;stroke-miterlimit:10;"/></g><!--link EsperandoDatos to Evaluando--><g class="link" data-entity-1="ent0002" data-entity-2="ent0004" id="lnk5" data-source-line="5" data-link-type="dependency"><path d="M122.86,153.1869 C85.99,158.6569 43.24,172.1569 19.69,204.2969 C9.19,218.6269 15.0189,232.7947 26.3489,247.1247" style="stroke:#181818;stroke-width:1;" fill="none" id="EsperandoDatos-to-Evaluando"/><polygon points="29.45,251.0469,27.0058,241.5061,26.3489,247.1247,20.7304,246.4678,29.45,251.0469" fill="#181818" style="stroke:#181818;stroke-width:1;stroke-linejoin:miter;stroke-miterlimit:10;"/><text x="20.69" y="217.3638" fill="#000000" font-size="13" lengthAdjust="spacing" textLength="311.2573" font-family="sans-serif">recibe registros Modbus (temp, hum, umbrales)</text></g><!--link Evaluando to SalidaActualizada--><g class="link" data-entity-1="ent0004" data-entity-2="ent0006" id="lnk7" data-source-line="6" data-link-type="dependency"><path d="M58.69,301.5969 C62.87,316.6669 70.24,335.5169 82.69,348.2969 C96.6,362.5769 110.3603,371.3404 128.6203,379.3404" style="stroke:#181818;stroke-width:1;" fill="none" id="Evaluando-to-SalidaActualizada"/><polygon points="133.2,381.3469,126.5616,374.0714,128.6203,379.3404,123.3513,381.399,133.2,381.3469" fill="#181818" style="stroke:#181818;stroke-width:1;stroke-linejoin:miter;stroke-miterlimit:10;"/><text x="83.69" y="344.3638" fill="#000000" font-size="13" lengthAdjust="spacing" textLength="248.7075" font-family="sans-serif">calcula COOLER_ON / SENSOR_ERROR</text></g><!--link SalidaActualizada to EsperandoDatos--><g class="link" data-entity-1="ent0006" data-entity-2="ent0002" id="lnk8" data-source-line="7" data-link-type="dependency"><path d="M278.13,388.9969 C300.71,381.0669 323.21,368.4369 336.69,348.2969 C372.29,295.1169 373.26,256.8169 336.69,204.2969 C318.93,178.7969 292.5163,166.4971 263.4663,159.3771" style="stroke:#181818;stroke-width:1;" fill="none" id="SalidaActualizada-to-EsperandoDatos"/><polygon points="258.61,158.1869,266.3991,164.2143,263.4663,159.3771,268.3035,156.4443,258.61,158.1869" fill="#181818" style="stroke:#181818;stroke-width:1;stroke-linejoin:miter;stroke-miterlimit:10;"/><text x="364.69" y="280.8638" fill="#000000" font-size="13" lengthAdjust="spacing" textLength="150.7886" font-family="sans-serif">el gateway lee los coils</text></g><?plantuml-src PKxBIWD14BpFLzHD8udUFGYIx6sJaLayYOJUdMOpqBEppaFHan_X5_ebJXGHoQchYdhq6JQEnaYUO1cUdegRlY6dJ3OadDzlsmK-tp-WPvxkslMboYuB_rAb7YuUiLhTe4apHvfis50EIVsdFuvdadAKS8t8W-kvdj6b7AjX6snVwbvcFoznA7w9ulj8mccX_fB7dex4MReTSgdWZIpLle5aA49OQzqsPgztk4BNx3fjzeqnsgZJqEdJjOS58sL-eLS8CwIAGt2IlW00?></g></svg>