<svg xmlns="http://www.w3.org/2000/svg" xmlns:xlink="http://www.w3.org/1999/xlink" version="1.1" data-diagram-type="TIMING" style="width:683px;height:263px;background:#FFFFFF;" width="683px" height="263px" viewBox="0 0 683 263" zoomAndPan="magnify" preserveAspectRatio="none" contentStyleType="text/css"><?plantuml 1.2026.7beta3?><defs/><g><g class="title" data-source-line="5"><text x="115.1401" y="35.4209" fill="#000000" font-size="22" lengthAdjust="spacing" textLength="451.4834" font-weight="700" font-family="Verdana">Respuesta del control con histeresis</text></g><line x1="15" y1="61.6094" x2="15" y2="234.2031" style="stroke:#000000;stroke-width:1;"/><line x1="667.7637" y1="61.6094" x2="667.7637" y2="234.2031" style="stroke:#000000;stroke-width:1;"/><rect x="312.7637" y="61.6094" width="200" height="172.5938" fill="#C0C0C0" style="stroke:none;stroke-width:1;"/><line x1="162.7637" y1="61.6094" x2="162.7637" y2="234.2031" style="stroke:#000000;stroke-width:0.5;stroke-dasharray:3,5;"/><line x1="212.7637" y1="61.6094" x2="212.7637" y2="234.2031" style="stroke:#000000;stroke-width:0.5;stroke-dasharray:3,5;"/><line x1="262.7637" y1="61.6094" x2="262.7637" y2="234.2031" style="stroke:#000000;stroke-width:0.5;stroke-dasharray:3,5;"/><line x1="312.7637" y1="61.6094" x2="312.7637" y2="234.2031" style="stroke:#000000;stroke-width:0.5;stroke-dasharray:3,5;"/><line x1="362.7637" y1="61.6094" x2="362.7637" y2="234.2031" style="stroke:#000000;stroke-width:0.5;stroke-dasharray:3,5;"/><line x1="412.7637" y1="61.6094" x2="412.7637" y2="234.2031" style="stroke:#000000;stroke-width:0.5;stroke-dasharray:3,5;"/><line x1="462.7637" y1="61.6094" x2="462.7637" y2="234.2031" style="stroke:#000000;stroke-width:0.5;stroke-dasharray:3,5;"/><line x1="512.7637" y1="61.6094" x2="512.7637" y2="234.2031" style="stroke:#000000;stroke-width:0.5;stroke-dasharray:3,5;"/><line x1="562.7637" y1="61.6094" x2="562.7637" y2="234.2031" style="stroke:#000000;stroke-width:0.5;stroke-dasharray:3,5;"/><line x1="612.7637" y1="61.6094" x2="612.7637" y2="234.2031" style="stroke:#000000;stroke-width:0.5;stroke-dasharray:3,5;"/><line x1="662.7637" y1="61.6094" x2="662.7637" y2="234.2031" style="stroke:#000000;stroke-width:0.5;stroke-dasharray:3,5;"/><line x1="15" y1="61.6094" x2="667.7637" y2="61.6094" style="stroke:#000000;stroke-width:1;"/><text x="20" y="74.6045" fill="#000000" font-size="14" lengthAdjust="spacing" textLength="102.5117" font-weight="700" font-family="Verdana">Temperatura</text><line x1="15" y1="78.9063" x2="123.5117" y2="78.9063" style="stroke:#000000;stroke-width:1;"/><line x1="123.5117" y1="78.9063" x2="133.5117" y2="61.6094" style="stroke:#000000;stroke-width:1;"/><text x="20" y="174.0605" fill="#000000" font-size="12" lengthAdjust="spacing" textLength="70.0723" font-family="Verdana">&lt; tempMax</text><text x="20" y="154.0605" fill="#000000" font-size="12" lengthAdjust="spacing" textLength="107.0742" font-family="Verdana">sube -> tempMax</text><text x="20" y="134.0605" fill="#000000" font-size="12" lengthAdjust="spacing" textLength="80.127" font-family="Verdana">>= tempMax</text><text x="20" y="114.0605" fill="#000000" font-size="12" lengthAdjust="spacing" textLength="142.7637" font-family="Verdana">baja (> tempMax - hist)</text><text x="20" y="94.0605" fill="#000000" font-size="12" lengthAdjust="spacing" textLength="113.9824" font-family="Verdana">&lt;= tempMax - hist</text><line x1="162.7637" y1="168.9063" x2="262.7637" y2="168.9063" style="stroke:#000000;stroke-width:1;"/><line x1="262.7637" y1="148.9063" x2="312.7637" y2="148.9063" style="stroke:#000000;stroke-width:1;"/><line x1="312.7637" y1="128.9063" x2="412.7637" y2="128.9063" style="stroke:#000000;stroke-width:1;"/><line x1="412.7637" y1="108.9063" x2="512.7637" y2="108.9063" style="stroke:#000000;stroke-width:1;"/><line x1="512.7637" y1="88.9063" x2="612.7637" y2="88.9063" style="stroke:#000000;stroke-width:1;"/><line x1="612.7637" y1="168.9063" x2="662.7637" y2="168.9063" style="stroke:#000000;stroke-width:1;"/><line x1="262.7637" y1="148.9063" x2="262.7637" y2="168.9063" style="stroke:#000000;stroke-width:1;"/><line x1="312.7637" y1="128.9063" x2="312.7637" y2="148.9063" style="stroke:#000000;stroke-width:1;"/><line x1="412.7637" y1="108.9063" x2="412.7637" y2="128.9063" style="stroke:#000000;stroke-width:1;"/><line x1="512.7637" y1="88.9063" x2="512.7637" y2="108.9063" style="stroke:#000000;stroke-width:1;"/><line x1="612.7637" y1="88.9063" x2="612.7637" y2="168.9063" style="stroke:#000000;stroke-width:1;"/><line x1="15" y1="186.9063" x2="667.7637" y2="186.9063" style="stroke:#000000;stroke-width:1;"/><text x="20" y="199.9014" fill="#000000" font-size="14" lengthAdjust="spacing" textLength="108.1514" font-weight="700" font-family="Verdana">Cooler (relay)</text><line x1="15" y1="204.2031" x2="129.1514" y2="204.2031" style="stroke:#000000;stroke-width:1;"/><line x1="129.1514" y1="204.2031" x2="139.1514" y2="186.9063" style="stroke:#000000;stroke-width:1;"/><line x1="162.7637" y1="226.2031" x2="162.7637" y2="226.2031" style="stroke:#000000;stroke-width:1;"/><line x1="162.7637" y1="226.2031" x2="312.7637" y2="226.2031" style="stroke:#000000;stroke-width:1;"/><line x1="312.7637" y1="212.2031" x2="312.7637" y2="226.2031" style="stroke:#000000;stroke-width:1;"/><line x1="312.7637" y1="212.2031" x2="512.7637" y2="212.2031" style="stroke:#000000;stroke-width:1;"/><line x1="512.7637" y1="212.2031" x2="512.7637" y2="226.2031" style="stroke:#000000;stroke-width:1;"/><line x1="512.7637" y1="226.2031" x2="662.7637" y2="226.2031" style="stroke:#000000;stroke-width:1;"/><line x1="162.7637" y1="234.2031" x2="162.7637" y2="239.2031" style="stroke:#000000;stroke-width:1;"/><line x1="212.7637" y1="234.2031" x2="212.7637" y2="239.2031" style="stroke:#000000;stroke-width:1;"/><line x1="262.7637" y1="234.2031" x2="262.7637" y2="239.2031" style="stroke:#000000;stroke-width:1;"/><line x1="312.7637" y1="234.2031" x2="312.7637" y2="239.2031" style="stroke:#000000;stroke-width:1;"/><line x1="362.7637" y1="234.2031" x2="362.7637" y2="239.2031" style="stroke:#000000;stroke-width:1;"/><line x1="412.7637" y1="234.2031" x2="412.7637" y2="239.2031" style="stroke:#000000;stroke-width:1;"/><line x1="462.7637" y1="234.2031" x2="462.7637" y2="239.2031" style="stroke:#000000;stroke-width:1;"/><line x1="512.7637" y1="234.2031" x2="512.7637" y2="239.2031" style="stroke:#000000;stroke-width:1;"/><line x1="562.7637" y1="234.2031" x2="562.7637" y2="239.2031" style="stroke:#000000;stroke-width:1;"/><line x1="612.7637" y1="234.2031" x2="612.7637" y2="239.2031" style="stroke:#000000;stroke-width:1;"/><line x1="662.7637" y1="234.2031" x2="662.7637" y2="239.2031" style="stroke:#000000;stroke-width:1;"/><line x1="162.7637" y1="234.2031" x2="662.7637" y2="234.2031" style="stroke:#000000;stroke-width:1;"/><text x="159.2644" y="250.4136" fill="#000000" font-size="11" lengthAdjust="spacing" textLength="6.9985" font-family="Verdana">0</text><text x="259.2644" y="250.4136" fill="#000000" font-size="11" lengthAdjust="spacing" textLength="6.9985" font-family="Verdana">2</text><text x="309.2644" y="250.4136" fill="#000000" font-size="11" lengthAdjust="spacing" textLength="6.9985" font-family="Verdana">3</text><text x="409.2644" y="250.4136" fill="#000000" font-size="11" lengthAdjust="spacing" textLength="6.9985" font-family="Verdana">5</text><text x="509.2644" y="250.4136" fill="#000000" font-size="11" lengthAdjust="spacing" textLength="6.9985" font-family="Verdana">7</text><text x="609.2644" y="250.4136" fill="#000000" font-size="11" lengthAdjust="spacing" textLength="6.9985" font-family="Verdana">9</text><line x1="312.7637" y1="61.6094" x2="312.7637" y2="234.2031" style="stroke:#000000;stroke-width:1;stroke-dasharray:4,4;"/><line x1="512.7637" y1="61.6094" x2="512.7637" y2="234.2031" style="stroke:#000000;stroke-width:1;stroke-dasharray:4,4;"/><text x="315.7637" y="74.748" fill="#000000" font-size="12" lengthAdjust="spacing" textLength="157.377" font-family="Verdana">cooler ON (banda muerta)</text><?plantuml-src RP51JiCm44NtFiKdNT0i2eWALHHQHGIneY11ES2acIQcZXtP3gKx3i49EGbELA0KB7bXl_dplyS7lkIAKIkIMhYLr3LPgf3HObLOq-WyDSfOz6wwjLFXIihDMke2IrAEnI6k9HM147A6brpLng7_DBkDyV7s3ikkRjZv5YiiZFRMA1XzR9RBzeXIEi-XIWPLHZedL0rRJ_6HyD8hniE_7NvBXR0cQvn7D0y1s99lB4KWXxd8f2QxGPGQezYYRrdH9kvWAaHo8kO8tj4bV93Ew3KIQNkXp5eafrlecemncFwK9CCjcKxsTAKiIf6SRN56puJ-jn23BdGS6eo-V2TxSDV__6yuqHgei3s6y0OZz1wbUc5xeQJcyPKANuXnc4_tslkxlQb-0W00?></g></svg>