<svg xmlns="http://www.w3.org/2000/svg" xmlns:xlink="http://www.w3.org/1999/xlink" version="1.1" data-diagram-type="DESCRIPTION" style="width:432px;height:739px;background:#FFFFFF;" width="432px" height="739px" viewBox="0 0 432 739" zoomAndPan="magnify" preserveAspectRatio="none" contentStyleType="text/css"><?plantuml 1.2026.7beta3?><defs/><g><!--cluster Sistema de Control PLC--><g class="cluster" data-qualified-name="Sistema de Control PLC" id="ent0003" data-source-line="46"><rect x="186.73" y="7" width="232.16" height="718" fill="#F1F5F9" style="stroke:#94A3B8;stroke-width:1;" rx="6" ry="6"/><text x="216.9611" y="21.0669" fill="#0F172A" font-size="13" lengthAdjust="spacing" textLength="171.6978" font-weight="700" font-family="sans-serif">Sistema de Control PLC</text></g><!--entity UC1--><g class="entity" data-qualified-name="Sistema de Control PLC.UC1" id="ent0004" data-source-line="47"><ellipse cx="302.8101" cy="134.0047" rx="100.0801" ry="24.3347" fill="#ECFEFF" style="stroke:#0891B2;stroke-width:0.5;"/><text x="233.9508" y="130.5986" fill="#0F172A" font-size="13" lengthAdjust="spacing" textLength="137.7188" font-family="sans-serif">Configurar umbrales,</text><text x="234.8109" y="145.7315" fill="#0F172A" font-size="13" lengthAdjust="spacing" textLength="135.9985" font-family="sans-serif">histeresis e intervalo</text></g><!--entity UC2--><g class="entity" data-qualified-name="Sistema de Control PLC.UC2" id="ent0005" data-source-line="48"><ellipse cx="302.8096" cy="57.9999" rx="71.6496" ry="16.7299" fill="#ECFEFF" style="stroke:#0891B2;stroke-width:0.5;"/><text x="245.5252" y="62.0663" fill="#0F172A" font-size="13" lengthAdjust="spacing" textLength="114.5688" font-family="sans-serif">Ver estado actual</text></g><!--entity UC3--><g class="entity" data-qualified-name="Sistema de Control PLC.UC3" id="ent0006" data-source-line="49"><ellipse cx="302.8095" cy="537.0009" rx="83.1695" ry="23.4509" fill="#ECFEFF" style="stroke:#0891B2;stroke-width:0.5;"/><text x="243.4874" y="534.8774" fill="#0F172A" font-size="13" lengthAdjust="spacing" textLength="118.644" font-family="sans-serif">Consultar historial</text><text x="255.494" y="550.0102" fill="#0F172A" font-size="13" lengthAdjust="spacing" textLength="94.6309" font-family="sans-serif">de mediciones</text></g><!--entity UC4--><g class="entity" data-qualified-name="Sistema de Control PLC.UC4" id="ent0007" data-source-line="50"><ellipse cx="302.806" cy="453.9983" rx="89.456" ry="24.1983" fill="#ECFEFF" style="stroke:#0891B2;stroke-width:0.5;"/><text x="243.484" y="450.2102" fill="#0F172A" font-size="13" lengthAdjust="spacing" textLength="118.644" font-family="sans-serif">Consultar historial</text><text x="241.0878" y="465.3431" fill="#0F172A" font-size="13" lengthAdjust="spacing" textLength="123.4365" font-family="sans-serif">de configuraciones</text></g><!--entity UC5--><g class="entity" data-qualified-name="Sistema de Control PLC.UC5" id="ent0008" data-source-line="51"><ellipse cx="302.8148" cy="372.0043" rx="79.5548" ry="22.6043" fill="#ECFEFF" style="stroke:#0891B2;stroke-width:0.5;"/><text x="243.7213" y="371.1741" fill="#0F172A" font-size="13" lengthAdjust="spacing" textLength="118.187" font-family="sans-serif">Consultar eventos</text><text x="270.7559" y="386.3069" fill="#0F172A" font-size="13" lengthAdjust="spacing" textLength="64.1177" font-family="sans-serif">y alarmas</text></g><!--entity UC6--><g class="entity" data-qualified-name="Sistema de Control PLC.UC6" id="ent0009" data-source-line="52"><ellipse cx="302.8098" cy="294" rx="91.1498" ry="20.63" fill="#ECFEFF" style="stroke:#0891B2;stroke-width:0.5;"/><text x="223.1912" y="298.0664" fill="#0F172A" font-size="13" lengthAdjust="spacing" textLength="159.2373" font-family="sans-serif">Reconocer alarma (ACK)</text></g><!--entity UC7--><g class="entity" data-qualified-name="Sistema de Control PLC.UC7" id="ent0010" data-source-line="53"><ellipse cx="302.806" cy="216.0043" rx="75.216" ry="22.7843" fill="#ECFEFF" style="stroke:#0891B2;stroke-width:0.5;"/><text x="247.5687" y="214.8928" fill="#0F172A" font-size="13" lengthAdjust="spacing" textLength="110.4746" font-family="sans-serif">Consultar estado</text><text x="269.2681" y="230.0257" fill="#0F172A" font-size="13" lengthAdjust="spacing" textLength="67.0757" font-family="sans-serif">del sensor</text></g><!--entity UC8--><g class="entity" data-qualified-name="Sistema de Control PLC.UC8" id="ent0011" data-source-line="54"><ellipse cx="302.8098" cy="691.998" rx="72.0898" ry="16.818" fill="#ECFEFF" style="stroke:#0891B2;stroke-width:0.5;"/><text x="244.9986" y="696.0644" fill="#0F172A" font-size="13" lengthAdjust="spacing" textLength="115.6226" font-family="sans-serif">Publicar medicion</text></g><!--entity UC9--><g class="entity" data-qualified-name="Sistema de Control PLC.UC9" id="ent0012" data-source-line="55"><ellipse cx="302.8051" cy="618.0043" rx="94.7951" ry="22.0843" fill="#ECFEFF" style="stroke:#0891B2;stroke-width:0.5;"/><text x="230.0165" y="618.0092" fill="#0F172A" font-size="13" lengthAdjust="spacing" textLength="145.5771" font-family="sans-serif">Obtener configuracion</text><text x="283.0639" y="633.142" fill="#0F172A" font-size="13" lengthAdjust="spacing" textLength="39.4824" font-family="sans-serif">activa</text></g><!--entity Admin--><g class="entity" data-qualified-name="Admin" id="ent0001" data-source-line="43"><ellipse cx="74.3615" cy="272.43" rx="16" ry="16" fill="#FFEDD5" style="stroke:#C2410C;stroke-width:0.5;"/><path d="M74.3615,292.43 C78.3615,292.43 81.3615,292.43 85.3615,288.43 C93.3615,288.43 101.3615,296.43 101.3615,304.43 L101.3615,308.43 C101.3615,312.43 97.3615,316.43 93.3615,316.43 L55.3615,316.43 C51.3615,316.43 47.3615,312.43 47.3615,308.43 L47.3615,304.43 C47.3615,296.43 55.3615,288.43 63.3615,288.43 C67.3615,292.43 70.3615,292.43 74.3615,292.43" style="stroke:#C2410C;stroke-width:0.5;" fill="#FFEDD5"/><text x="28.36" y="328.9969" fill="#0F172A" font-size="13" lengthAdjust="spacing" textLength="92.0029" font-family="sans-serif">Administrador</text></g><!--entity RPi--><g class="entity" data-qualified-name="RPi" id="ent0002" data-source-line="44"><ellipse cx="74.3643" cy="633.43" rx="16" ry="16" fill="#FFEDD5" style="stroke:#C2410C;stroke-width:0.5;"/><path d="M74.3643,653.43 C78.3643,653.43 81.3643,653.43 85.3643,649.43 C93.3643,649.43 101.3643,657.43 101.3643,665.43 L101.3643,669.43 C101.3643,673.43 97.3643,677.43 93.3643,677.43 L55.3643,677.43 C51.3643,677.43 47.3643,673.43 47.3643,669.43 L47.3643,665.43 C47.3643,657.43 55.3643,649.43 63.3643,649.43 C67.3643,653.43 70.3643,653.43 74.3643,653.43" style="stroke:#C2410C;stroke-width:0.5;" fill="#FFEDD5"/><text x="6" y="689.9969" fill="#0F172A" font-size="13" lengthAdjust="spacing" textLength="136.7285" font-family="sans-serif">Raspberry / Gateway</text></g><!--link Admin to UC1--><g class="link" data-entity-1="ent0001" data-entity-2="ent0004" id="lnk13" data-source-line="58" data-link-type="dependency"><path d="M100.89,255.51 C119.7,229.81 147.39,196.99 178.73,176 C194.39,165.51 208.2035,159.021 226.0835,152.851" style="stroke:#64748B;stroke-width:1.1;" fill="none" id="Admin-to-UC1"/><polygon points="230.81,151.22,220.9975,150.3746,226.0835,152.851,223.6071,157.937,230.81,151.22" fill="#64748B" style="stroke:#64748B;stroke-width:1.1;stroke-linejoin:miter;stroke-miterlimit:10;"/></g><!--link Admin to UC2--><g class="link" data-entity-1="ent0001" data-entity-2="ent0005" id="lnk14" data-source-line="59" data-link-type="dependency"><path d="M84.83,255.65 C98.1,209.94 126.66,134.43 178.73,92 C195.4,78.42 212.2471,71.413 232.7771,66.503" style="stroke:#64748B;stroke-width:1.1;" fill="none" id="Admin-to-UC2"/><polygon points="237.64,65.34,227.9564,63.5431,232.7771,66.503,229.8173,71.3237,237.64,65.34" fill="#64748B" style="stroke:#64748B;stroke-width:1.1;stroke-linejoin:miter;stroke-miterlimit:10;"/></g><!--link Admin to UC3--><g class="link" data-entity-1="ent0001" data-entity-2="ent0006" id="lnk15" data-source-line="60" data-link-type="dependency"><path d="M85.32,332.3 C99.02,377.6 127.93,452.36 178.73,496 C193.93,509.06 208.6796,516.4708 227.6696,522.5708" style="stroke:#64748B;stroke-width:1.1;" fill="none" id="Admin-to-UC3"/><polygon points="232.43,524.1,225.0845,517.5392,227.6696,522.5708,222.6379,525.1559,232.43,524.1" fill="#64748B" style="stroke:#64748B;stroke-width:1.1;stroke-linejoin:miter;stroke-miterlimit:10;"/></g><!--link Admin to UC4--><g class="link" data-entity-1="ent0001" data-entity-2="ent0007" id="lnk16" data-source-line="61" data-link-type="dependency"><path d="M100.89,332.49 C119.7,358.19 147.39,391.01 178.73,412 C195.52,423.24 210.8646,430.1848 229.9046,436.5048" style="stroke:#64748B;stroke-width:1.1;" fill="none" id="Admin-to-UC4"/><polygon points="234.65,438.08,227.3684,431.4484,229.9046,436.5048,224.8481,439.041,234.65,438.08" fill="#64748B" style="stroke:#64748B;stroke-width:1.1;stroke-linejoin:miter;stroke-miterlimit:10;"/></g><!--link Admin to UC5--><g class="link" data-entity-1="ent0001" data-entity-2="ent0008" id="lnk17" data-source-line="62" data-link-type="dependency"><path d="M120.77,311.12 C138.76,317.79 159.67,325.4 178.73,332 C201.45,339.86 221.9202,346.609 243.5902,353.579" style="stroke:#64748B;stroke-width:1.1;" fill="none" id="Admin-to-UC5"/><polygon points="248.35,355.11,241.0071,348.5464,243.5902,353.579,238.5575,356.1621,248.35,355.11" fill="#64748B" style="stroke:#64748B;stroke-width:1.1;stroke-linejoin:miter;stroke-miterlimit:10;"/></g><!--link Admin to UC6--><g class="link" data-entity-1="ent0001" data-entity-2="ent0009" id="lnk18" data-source-line="63" data-link-type="dependency"><path d="M120.64,294 C146.59,294 175.08,294 206.2,294" style="stroke:#64748B;stroke-width:1.1;" fill="none" id="Admin-to-UC6"/><polygon points="211.2,294,202.2,290,206.2,294,202.2,298,211.2,294" fill="#64748B" style="stroke:#64748B;stroke-width:1.1;stroke-linejoin:miter;stroke-miterlimit:10;"/></g><!--link Admin to UC7--><g class="link" data-entity-1="ent0001" data-entity-2="ent0010" id="lnk19" data-source-line="64" data-link-type="dependency"><path d="M120.77,276.88 C138.76,270.21 159.67,262.6 178.73,256 C201.87,247.99 222.8597,241.0796 244.7997,234.0296" style="stroke:#64748B;stroke-width:1.1;" fill="none" id="Admin-to-UC7"/><polygon points="249.56,232.5,239.7678,231.4451,244.7997,234.0296,242.2152,239.0615,249.56,232.5" fill="#64748B" style="stroke:#64748B;stroke-width:1.1;stroke-linejoin:miter;stroke-miterlimit:10;"/></g><!--link RPi to UC8--><g class="link" data-entity-1="ent0002" data-entity-2="ent0011" id="lnk20" data-source-line="65" data-link-type="dependency"><path d="M143,666.05 C174.8,671.25 207.4254,676.5737 238.0254,681.5737" style="stroke:#64748B;stroke-width:1.1;" fill="none" id="RPi-to-UC8"/><polygon points="242.96,682.38,234.7228,676.981,238.0254,681.5737,233.4328,684.8763,242.96,682.38" fill="#64748B" style="stroke:#64748B;stroke-width:1.1;stroke-linejoin:miter;stroke-miterlimit:10;"/></g><!--link RPi to UC9--><g class="link" data-entity-1="ent0002" data-entity-2="ent0012" id="lnk21" data-source-line="66" data-link-type="dependency"><path d="M143,643.95 C168.54,639.78 192.8654,635.7959 219.2554,631.4859" style="stroke:#64748B;stroke-width:1.1;" fill="none" id="RPi-to-UC9"/><polygon points="224.19,630.68,214.6629,628.183,219.2554,631.4859,215.9524,636.0784,224.19,630.68" fill="#64748B" style="stroke:#64748B;stroke-width:1.1;stroke-linejoin:miter;stroke-miterlimit:10;"/></g><?plantuml-src ZLRRRjiu47tNLmpSXoPeqerioPTTO05Pjb9WKpH8DlkK5qeQEsmeqYMf1EwYG3-YNzWlwKYMivIjjMF0XkWvS-RCS3ZKMpW_FmSqbWi5XSfHImNzY_uGJXQ2sJFGc2kP8ylL6QoOGCiWHm4hhTQOMVK7BCYi81DCAm9e1WANFEM2vom7b739xOSoFQtYUEQHomfJGCgonwLMfSnZ9PI6DqdzSH3cWM8-Sxc41HC67KlZfYLgyFkEOOOBLWgRA6aRrel47_MZRiWj_uhW3nnZfBLwRZo7mIWOJtUD3dKm2iFXP1VmzmFF7YKQ0_vxtp5IVOoPxYKzJg8ateCfJVkmpM0yyQVzRiZ1O96rcgUbHKVpO13uOUWMsJABnsLjO0TbbGOpPlQvvd4oR-th5dYGZL5hwNrToNms2_TWBbFS3_mBL_gAIDYo8qS_2PD91z1bcmJHO3fsAwkAbP8exIksyWLwC5D9P-uuMOroUVQwZtujp_YATMdRp_K_yC5y3NufKMPunHVqbMqDyNGMplqEz2K5NnrN8LLNxysJIJpOHRN2HkFe8cXt0N_YTdsyZ2_8OyrNesQS5JJSNjM6BOU33QdIppGuZsjjS1rAtm85MXAc6iL0XqcPwg4q2axkFbwTmi_lFwgoiOmh2PAHEFRxvgoWWNUmq3GHK6y6kU768Z6z0-B9UEs3vhqdS671Aj1y-M0Xvvh4a6dtyDtQjK1WpsXKWVkdQMEkV9bS2lIysWbwKLvmIP4rpNZTez1G_xCrtp2pIb7hDVm6bpHwdjcw1jrSSyzxOOFURIEUieyf9wq4N5_5FVZNW-sSWHvP5dnPQgQXB59DTvWvkvSFbIlLWnj0u5KzdfXGTPIxs7Vz_w5hXYv8KbgbN3BHWFexGGpTAnIZ8bQQCt5FroOKcFDDIHklmMkyigtabclGxOfFD6IKkPThO7GB5soB3rty3HAfoYYN3GXEelYlqmOv_1_cEkjA4VK9IjDirLqySl7NPIfuHl1jhWrex88-fHQh-xgLsRsiJmvh72RUDy-h-u1U5lwijy5TzLkhGMiLj5PXQpLihKOUDL7pF7QU9xy0?></g></svg>