<svg xmlns="http://www.w3.org/2000/svg" xmlns:xlink="http://www.w3.org/1999/xlink" version="1.1" data-diagram-type="DESCRIPTION" style="width:458px;height:765px;background:#FFFFFF;" width="458px" height="765px" viewBox="0 0 458 765" zoomAndPan="magnify" preserveAspectRatio="none" contentStyleType="text/css"><?plantuml 1.2026.7beta3?><defs/><g><!--cluster Sistema de Control PLC--><g class="cluster" data-qualified-name="Sistema de Control PLC" id="ent0003" data-source-line="9"><rect x="197.25" y="7" width="247.09" height="744" fill="none" style="stroke:#181818;stroke-width:1;" rx="2.5" ry="2.5"/><text x="228.3424" y="21.9951" fill="#000000" font-size="14" lengthAdjust="spacing" textLength="184.9053" font-weight="700" font-family="sans-serif">Sistema de Control PLC</text></g><!--entity UC1--><g class="entity" data-qualified-name="Sistema de Control PLC.UC1" id="ent0004" data-source-line="10"><ellipse cx="320.7878" cy="138.9959" rx="107.5478" ry="25.9759" fill="#F1F1F1" style="stroke:#181818;stroke-width:0.5;"/><text x="246.6316" y="135.597" fill="#000000" font-size="14" lengthAdjust="spacing" textLength="148.3125" font-family="sans-serif">Configurar umbrales,</text><text x="247.5579" y="151.8939" fill="#000000" font-size="14" lengthAdjust="spacing" textLength="146.46" font-family="sans-serif">histeresis e intervalo</text></g><!--entity UC2--><g class="entity" data-qualified-name="Sistema de Control PLC.UC2" id="ent0005" data-source-line="11"><ellipse cx="320.7903" cy="59.9961" rx="76.9303" ry="17.7861" fill="#F1F1F1" style="stroke:#181818;stroke-width:0.5;"/><text x="259.0994" y="64.6445" fill="#000000" font-size="14" lengthAdjust="spacing" textLength="123.3818" font-family="sans-serif">Ver estado actual</text></g><!--entity UC3--><g class="entity" data-qualified-name="Sistema de Control PLC.UC3" id="ent0006" data-source-line="12"><ellipse cx="320.7863" cy="557.0041" rx="89.3363" ry="25.0241" fill="#F1F1F1" style="stroke:#181818;stroke-width:0.5;"/><text x="256.9011" y="554.9864" fill="#000000" font-size="14" lengthAdjust="spacing" textLength="127.7705" font-family="sans-serif">Consultar historial</text><text x="269.8313" y="571.2833" fill="#000000" font-size="14" lengthAdjust="spacing" textLength="101.9102" font-family="sans-serif">de mediciones</text></g><!--entity UC4--><g class="entity" data-qualified-name="Sistema de Control PLC.UC4" id="ent0007" data-source-line="13"><ellipse cx="320.7865" cy="470.999" rx="96.1065" ry="25.829" fill="#F1F1F1" style="stroke:#181818;stroke-width:0.5;"/><text x="256.9013" y="467.1887" fill="#000000" font-size="14" lengthAdjust="spacing" textLength="127.7705" font-family="sans-serif">Consultar historial</text><text x="254.3207" y="483.4856" fill="#000000" font-size="14" lengthAdjust="spacing" textLength="132.9316" font-family="sans-serif">de configuraciones</text></g><!--entity UC5--><g class="entity" data-qualified-name="Sistema de Control PLC.UC5" id="ent0008" data-source-line="14"><ellipse cx="320.7936" cy="386.0024" rx="85.4436" ry="24.1124" fill="#F1F1F1" style="stroke:#181818;stroke-width:0.5;"/><text x="257.1545" y="385.3775" fill="#000000" font-size="14" lengthAdjust="spacing" textLength="127.2783" font-family="sans-serif">Consultar eventos</text><text x="286.2687" y="401.6743" fill="#000000" font-size="14" lengthAdjust="spacing" textLength="69.0498" font-family="sans-serif">y alarmas</text></g><!--entity UC6--><g class="entity" data-qualified-name="Sistema de Control PLC.UC6" id="ent0009" data-source-line="15"><ellipse cx="320.7906" cy="304.9961" rx="97.9306" ry="21.9861" fill="#F1F1F1" style="stroke:#181818;stroke-width:0.5;"/><text x="235.0474" y="309.6446" fill="#000000" font-size="14" lengthAdjust="spacing" textLength="171.4863" font-family="sans-serif">Reconocer alarma (ACK)</text></g><!--entity UC7--><g class="entity" data-qualified-name="Sistema de Control PLC.UC7" id="ent0010" data-source-line="16"><ellipse cx="320.7911" cy="223.9962" rx="80.7711" ry="24.3062" fill="#F1F1F1" style="stroke:#181818;stroke-width:0.5;"/><text x="261.3047" y="223.0684" fill="#000000" font-size="14" lengthAdjust="spacing" textLength="118.9727" font-family="sans-serif">Consultar estado</text><text x="284.6734" y="239.3653" fill="#000000" font-size="14" lengthAdjust="spacing" textLength="72.2354" font-family="sans-serif">del sensor</text></g><!--entity UC8--><g class="entity" data-qualified-name="Sistema de Control PLC.UC8" id="ent0011" data-source-line="17"><ellipse cx="320.7944" cy="717.0009" rx="77.4044" ry="17.8809" fill="#F1F1F1" style="stroke:#181818;stroke-width:0.5;"/><text x="258.5361" y="721.6493" fill="#000000" font-size="14" lengthAdjust="spacing" textLength="124.5166" font-family="sans-serif">Publicar medicion</text></g><!--entity UC9--><g class="entity" data-qualified-name="Sistema de Control PLC.UC9" id="ent0012" data-source-line="18"><ellipse cx="320.7862" cy="641.0023" rx="101.8562" ry="23.5523" fill="#F1F1F1" style="stroke:#181818;stroke-width:0.5;"/><text x="242.3985" y="641.2768" fill="#000000" font-size="14" lengthAdjust="spacing" textLength="156.7754" font-family="sans-serif">Obtener configuracion</text><text x="299.5265" y="657.5737" fill="#000000" font-size="14" lengthAdjust="spacing" textLength="42.5195" font-family="sans-serif">activa</text></g><!--entity Admin--><g class="entity" data-qualified-name="Admin" id="ent0001" data-source-line="6"><ellipse cx="79.62" cy="282.85" rx="16" ry="16" fill="#F1F1F1" style="stroke:#181818;stroke-width:0.5;"/><path d="M79.62,302.85 C83.62,302.85 86.62,302.85 90.62,298.85 C98.62,298.85 106.62,306.85 106.62,314.85 L106.62,318.85 C106.62,322.85 102.62,326.85 98.62,326.85 L60.62,326.85 C56.62,326.85 52.62,322.85 52.62,318.85 L52.62,314.85 C52.62,306.85 60.62,298.85 68.62,298.85 C72.62,302.85 75.62,302.85 79.62,302.85" style="stroke:#181818;stroke-width:0.5;" fill="#F1F1F1"/><text x="30.08" y="340.3451" fill="#000000" font-size="14" lengthAdjust="spacing" textLength="99.0801" font-family="sans-serif">Administrador</text></g><!--entity RPi--><g class="entity" data-qualified-name="RPi" id="ent0002" data-source-line="7"><ellipse cx="79.623" cy="656.85" rx="16" ry="16" fill="#F1F1F1" style="stroke:#181818;stroke-width:0.5;"/><path d="M79.623,676.85 C83.623,676.85 86.623,676.85 90.623,672.85 C98.623,672.85 106.623,680.85 106.623,688.85 L106.623,692.85 C106.623,696.85 102.623,700.85 98.623,700.85 L60.623,700.85 C56.623,700.85 52.623,696.85 52.623,692.85 L52.623,688.85 C52.623,680.85 60.623,672.85 68.623,672.85 C72.623,676.85 75.623,676.85 79.623,676.85" style="stroke:#181818;stroke-width:0.5;" fill="#F1F1F1"/><text x="6" y="714.3451" fill="#000000" font-size="14" lengthAdjust="spacing" textLength="147.2461" font-family="sans-serif">Raspberry / Gateway</text></g><!--link Admin to UC1--><g class="link" data-entity-1="ent0001" data-entity-2="ent0004" id="lnk13" data-source-line="21" data-link-type="dependency"><path d="M106.6,265.93 C126.37,238.93 155.83,204.03 189.25,182 C205.18,171.49 219.1781,164.9654 237.3981,158.7454" style="stroke:#181818;stroke-width:1;" fill="none" id="Admin-to-UC1"/><polygon points="242.13,157.13,232.3203,156.2522,237.3981,158.7454,234.9049,163.8232,242.13,157.13" fill="#181818" style="stroke:#181818;stroke-width:1;stroke-linejoin:miter;stroke-miterlimit:10;"/></g><!--link Admin to UC2--><g class="link" data-entity-1="ent0001" data-entity-2="ent0005" id="lnk14" data-source-line="22" data-link-type="dependency"><path d="M90.49,266.14 C104.51,218.92 134.73,140.11 189.25,96 C206.79,81.8 224.6803,74.3661 246.2503,69.1461" style="stroke:#181818;stroke-width:1;" fill="none" id="Admin-to-UC2"/><polygon points="251.11,67.97,241.4217,66.1991,246.2503,69.1461,243.3034,73.9747,251.11,67.97" fill="#181818" style="stroke:#181818;stroke-width:1;stroke-linejoin:miter;stroke-miterlimit:10;"/></g><!--link Admin to UC3--><g class="link" data-entity-1="ent0001" data-entity-2="ent0006" id="lnk15" data-source-line="23" data-link-type="dependency"><path d="M90.98,343.84 C105.41,390.66 135.98,468.69 189.25,514 C205.15,527.53 220.6714,535.2951 240.4814,541.6851" style="stroke:#181818;stroke-width:1;" fill="none" id="Admin-to-UC3"/><polygon points="245.24,543.22,237.9025,536.6502,240.4814,541.6851,235.4466,544.264,245.24,543.22" fill="#181818" style="stroke:#181818;stroke-width:1;stroke-linejoin:miter;stroke-miterlimit:10;"/></g><!--link Admin to UC4--><g class="link" data-entity-1="ent0001" data-entity-2="ent0007" id="lnk16" data-source-line="24" data-link-type="dependency"><path d="M106.6,344.07 C126.37,371.07 155.83,405.97 189.25,428 C206.48,439.36 222.2174,446.3966 241.7974,452.7966" style="stroke:#181818;stroke-width:1;" fill="none" id="Admin-to-UC4"/><polygon points="246.55,454.35,239.2381,447.7518,241.7974,452.7966,236.7526,455.3559,246.55,454.35" fill="#181818" style="stroke:#181818;stroke-width:1;stroke-linejoin:miter;stroke-miterlimit:10;"/></g><!--link Admin to UC5--><g class="link" data-entity-1="ent0001" data-entity-2="ent0008" id="lnk17" data-source-line="25" data-link-type="dependency"><path d="M129.44,322.92 C148.1,329.67 169.61,337.32 189.25,344 C213.14,352.13 234.8661,359.2116 257.7061,366.4916" style="stroke:#181818;stroke-width:1;" fill="none" id="Admin-to-UC5"/><polygon points="262.47,368.01,255.1098,361.4657,257.7061,366.4916,252.6803,369.0879,262.47,368.01" fill="#181818" style="stroke:#181818;stroke-width:1;stroke-linejoin:miter;stroke-miterlimit:10;"/></g><!--link Admin to UC6--><g class="link" data-entity-1="ent0001" data-entity-2="ent0009" id="lnk18" data-source-line="26" data-link-type="dependency"><path d="M129.6,305 C156.39,305 185.54,305 217.49,305" style="stroke:#181818;stroke-width:1;" fill="none" id="Admin-to-UC6"/><polygon points="222.49,305,213.49,301,217.49,305,213.49,309,222.49,305" fill="#181818" style="stroke:#181818;stroke-width:1;stroke-linejoin:miter;stroke-miterlimit:10;"/></g><!--link Admin to UC7--><g class="link" data-entity-1="ent0001" data-entity-2="ent0010" id="lnk19" data-source-line="27" data-link-type="dependency"><path d="M129.44,287.08 C148.1,280.33 169.61,272.68 189.25,266 C213.59,257.72 235.8662,250.4686 258.9862,243.0986" style="stroke:#181818;stroke-width:1;" fill="none" id="Admin-to-UC7"/><polygon points="263.75,241.58,253.9603,240.5024,258.9862,243.0986,256.39,248.1245,263.75,241.58" fill="#181818" style="stroke:#181818;stroke-width:1;stroke-linejoin:miter;stroke-miterlimit:10;"/></g><!--link RPi to UC8--><g class="link" data-entity-1="ent0002" data-entity-2="ent0011" id="lnk20" data-source-line="28" data-link-type="dependency"><path d="M153.68,690.61 C186.38,695.8 219.632,701.0849 251.142,706.0949" style="stroke:#181818;stroke-width:1;" fill="none" id="RPi-to-UC8"/><polygon points="256.08,706.88,247.8197,701.5164,251.142,706.0949,246.5635,709.4172,256.08,706.88" fill="#181818" style="stroke:#181818;stroke-width:1;stroke-linejoin:miter;stroke-miterlimit:10;"/></g><!--link RPi to UC9--><g class="link" data-entity-1="ent0002" data-entity-2="ent0012" id="lnk21" data-source-line="29" data-link-type="dependency"><path d="M153.68,667.39 C179.65,663.27 204.142,659.3749 230.942,655.1149" style="stroke:#181818;stroke-width:1;" fill="none" id="RPi-to-UC9"/><polygon points="235.88,654.33,226.3637,651.7925,230.942,655.1149,227.6195,659.6933,235.88,654.33" fill="#181818" style="stroke:#181818;stroke-width:1;stroke-linejoin:miter;stroke-miterlimit:10;"/></g><?plantuml-src ZLBDIiD04BxlKmozMD4g_biFGedWGSLIgQTUffjfkdIpMsOtbIA23-4J-YHEqbGIKV2sa_b-vflC3jmOp1XpX9H0O_2XV1J1GtVySByBd-yVu7n4RRm3Xz6iy0fGHyyKO0zcx5qaBjaMWWcHH6aFH4URYaFXG5cQHOWUs6Jp2AbXqb5QAYoCMwAORmIVujeIu0i5drEZkKIzm8msxPABBhEaL4M2pY3DZHDdnjHpHwoX-h9jZp0ifyIyXaEunKWlkAv0ew5HwbiDEa_ry98-aKpiBGplamwyAf1raAn6GDAPcQnWP2ZoAQEbi3znyv8g-p0124ovZnLQNxcCawCc_vaOA4IPj8nSeAr1npzCGc6ZU9J2dWtQYPEnSahDPgKrw-G_BBqTkKKz_PrAAtBHXubR0rha7BVuioP-H2BgjMJPWA0xIEvsQ-Jv7yfLwd8YkHDoeVvLu-IYYHyMKskqmBTPQz1b4_GuZUJ4l9LiucIXSfmreQ_UbAhk07gzw-etDAlZLdNIgavRrLchEczL5qgEg7vVDjxzBm00?></g></svg>