<svg xmlns="http://www.w3.org/2000/svg" xmlns:xlink="http://www.w3.org/1999/xlink" version="1.1" data-diagram-type="DESCRIPTION" style="width:439px;height:755px;background:#FFFFFF;" width="439.5833px" height="755.2083px" viewBox="0 0 439 755" zoomAndPan="magnify" preserveAspectRatio="none" contentStyleType="text/css"><?plantuml 1.2026.7beta3?><defs/><g><!--cluster Sistema de Control PLC--><g class="cluster" data-qualified-name="Sistema de Control PLC" id="ent0003" data-source-line="12"><rect x="193.9688" y="17.7083" width="226.2813" height="717.7083" fill="none" style="stroke:#2FA4E7;stroke-width:2.0833;" rx="4.1667" ry="4.1667"/><text x="224.5624" y="31.3944" fill="#2FA4E7" font-size="12.5" lengthAdjust="spacing" textLength="165.094" font-weight="700" font-family="'Verdana'">Sistema de Control PLC</text></g><!--entity UC1--><g class="entity" data-qualified-name="Sistema de Control PLC.UC1" id="ent0004" data-source-line="13"><ellipse cx="307.1067" cy="143.7537" rx="96.4713" ry="23.6392" fill="none" style="stroke:#2FA4E7;stroke-width:2.0833;"/><text x="240.8958" y="140.1982" fill="#2FA4E7" font-size="12.5" lengthAdjust="spacing" textLength="132.4219" font-family="'Verdana'">Configurar umbrales,</text><text x="241.7228" y="154.749" fill="#2FA4E7" font-size="12.5" lengthAdjust="spacing" textLength="130.7678" font-family="'Verdana'">histeresis e intervalo</text></g><!--entity UC2--><g class="entity" data-qualified-name="Sistema de Control PLC.UC2" id="ent0005" data-source-line="14"><ellipse cx="307.103" cy="67.7123" rx="69.1342" ry="16.3268" fill="none" style="stroke:#2FA4E7;stroke-width:2.0833;"/><text x="252.0218" y="71.3418" fill="#2FA4E7" font-size="12.5" lengthAdjust="spacing" textLength="110.1624" font-family="'Verdana'">Ver estado actual</text></g><!--entity UC3--><g class="entity" data-qualified-name="Sistema de Control PLC.UC3" id="ent0006" data-source-line="15"><ellipse cx="307.1069" cy="547.9143" rx="80.211" ry="22.7893" fill="none" style="stroke:#2FA4E7;stroke-width:2.0833;"/><text x="250.0664" y="545.592" fill="#2FA4E7" font-size="12.5" lengthAdjust="spacing" textLength="114.0808" font-family="'Verdana'">Consultar historial</text><text x="261.6112" y="560.1428" fill="#2FA4E7" font-size="12.5" lengthAdjust="spacing" textLength="90.9912" font-family="'Verdana'">de mediciones</text></g><!--entity UC4--><g class="entity" data-qualified-name="Sistema de Control PLC.UC4" id="ent0007" data-source-line="16"><ellipse cx="307.0996" cy="465.6226" rx="86.2558" ry="23.508" fill="none" style="stroke:#2FA4E7;stroke-width:2.0833;"/><text x="250.0592" y="461.6998" fill="#2FA4E7" font-size="12.5" lengthAdjust="spacing" textLength="114.0808" font-family="'Verdana'">Consultar historial</text><text x="247.7551" y="476.2505" fill="#2FA4E7" font-size="12.5" lengthAdjust="spacing" textLength="118.689" font-family="'Verdana'">de configuraciones</text></g><!--entity UC5--><g class="entity" data-qualified-name="Sistema de Control PLC.UC5" id="ent0008" data-source-line="17"><ellipse cx="307.1" cy="383.3295" rx="76.7354" ry="21.9753" fill="none" style="stroke:#2FA4E7;stroke-width:2.0833;"/><text x="250.2793" y="382.2507" fill="#2FA4E7" font-size="12.5" lengthAdjust="spacing" textLength="113.6414" font-family="'Verdana'">Consultar eventos</text><text x="276.2741" y="396.8015" fill="#2FA4E7" font-size="12.5" lengthAdjust="spacing" textLength="61.6516" font-family="'Verdana'">y alarmas</text></g><!--entity UC6--><g class="entity" data-qualified-name="Sistema de Control PLC.UC6" id="ent0009" data-source-line="18"><ellipse cx="307.1032" cy="305.2123" rx="87.8845" ry="20.0769" fill="none" style="stroke:#2FA4E7;stroke-width:2.0833;"/><text x="230.5468" y="308.8419" fill="#2FA4E7" font-size="12.5" lengthAdjust="spacing" textLength="153.1128" font-family="'Verdana'">Reconocer alarma (ACK)</text></g><!--entity UC7--><g class="entity" data-qualified-name="Sistema de Control PLC.UC7" id="ent0010" data-source-line="19"><ellipse cx="307.1051" cy="226.0442" rx="72.5634" ry="22.1484" fill="none" style="stroke:#2FA4E7;stroke-width:2.0833;"/><text x="253.9923" y="224.695" fill="#2FA4E7" font-size="12.5" lengthAdjust="spacing" textLength="106.2256" font-family="'Verdana'">Consultar estado</text><text x="274.8572" y="239.2458" fill="#2FA4E7" font-size="12.5" lengthAdjust="spacing" textLength="64.4958" font-family="'Verdana'">del sensor</text></g><!--entity UC8--><g class="entity" data-qualified-name="Sistema de Control PLC.UC8" id="ent0011" data-source-line="20"><ellipse cx="307.0992" cy="702.0782" rx="69.5575" ry="16.4115" fill="none" style="stroke:#2FA4E7;stroke-width:2.0833;"/><text x="251.5114" y="705.7077" fill="#2FA4E7" font-size="12.5" lengthAdjust="spacing" textLength="111.1755" font-family="'Verdana'">Publicar medicion</text></g><!--entity UC9--><g class="entity" data-qualified-name="Sistema de Control PLC.UC9" id="ent0012" data-source-line="21"><ellipse cx="307.1082" cy="628.1211" rx="91.3895" ry="21.4753" fill="none" style="stroke:#2FA4E7;stroke-width:2.0833;"/><text x="237.1192" y="627.8454" fill="#2FA4E7" font-size="12.5" lengthAdjust="spacing" textLength="139.978" font-family="'Verdana'">Obtener configuracion</text><text x="288.1263" y="642.3962" fill="#2FA4E7" font-size="12.5" lengthAdjust="spacing" textLength="37.9639" font-family="'Verdana'">activa</text></g><!--entity Admin--><g class="entity" data-qualified-name="Admin" id="ent0001" data-source-line="9"><ellipse cx="82.3988" cy="283.3542" rx="16.6667" ry="16.6667" fill="none" style="stroke:#2FA4E7;stroke-width:1.0417;"/><path d="M82.3988,304.1875 C86.5655,304.1875 89.6905,304.1875 93.8572,300.0208 C102.1905,300.0208 110.5238,308.3542 110.5238,316.6875 L110.5238,320.8542 C110.5238,325.0208 106.3572,329.1875 102.1905,329.1875 L62.6072,329.1875 C58.4405,329.1875 54.2738,325.0208 54.2738,320.8542 L54.2738,316.6875 C54.2738,308.3542 62.6072,300.0208 70.9405,300.0208 C75.1072,304.1875 78.2322,304.1875 82.3988,304.1875" style="stroke:#2FA4E7;stroke-width:1.0417;" fill="none"/><text x="38.1667" y="341.8319" fill="#2FA4E7" font-size="12.5" lengthAdjust="spacing" textLength="88.4644" font-family="'Verdana'">Administrador</text></g><!--entity RPi--><g class="entity" data-qualified-name="RPi" id="ent0002" data-source-line="10"><ellipse cx="82.4015" cy="642.7292" rx="16.6667" ry="16.6667" fill="none" style="stroke:#2FA4E7;stroke-width:1.0417;"/><path d="M82.4015,663.5625 C86.5682,663.5625 89.6932,663.5625 93.8599,659.3958 C102.1932,659.3958 110.5265,667.7292 110.5265,676.0625 L110.5265,680.2292 C110.5265,684.3958 106.3599,688.5625 102.1932,688.5625 L62.6099,688.5625 C58.4432,688.5625 54.2765,684.3958 54.2765,680.2292 L54.2765,676.0625 C54.2765,667.7292 62.6099,659.3958 70.9432,659.3958 C75.1099,663.5625 78.2349,663.5625 82.4015,663.5625" style="stroke:#2FA4E7;stroke-width:1.0417;" fill="none"/><text x="16.6667" y="701.2069" fill="#2FA4E7" font-size="12.5" lengthAdjust="spacing" textLength="131.4697" font-family="'Verdana'">Raspberry / Gateway</text></g><!--link Admin to UC1--><g class="link" data-entity-1="ent0001" data-entity-2="ent0004" id="lnk13" data-source-line="24" data-link-type="dependency"><path d="M109.1042,265.3021 C127.6042,239.3542 154.6979,206.5313 185.6354,185.4167 C201.1667,174.8125 214.7462,168.3741 232.517,162.2075" style="stroke:#2FA4E7;stroke-width:3.125;" fill="none" id="Admin-to-UC1"/><polygon points="237.4375,160.5,227.2146,159.637,232.517,162.2075,229.9466,167.5098,237.4375,160.5" fill="#2FA4E7" style="stroke:#2FA4E7;stroke-width:3.125;stroke-linejoin:miter;stroke-miterlimit:10;"/></g><!--link Admin to UC2--><g class="link" data-entity-1="ent0001" data-entity-2="ent0005" id="lnk14" data-source-line="25" data-link-type="dependency"><path d="M93.0208,265.5104 C106.1667,219.5208 134.2396,144.6146 185.6354,102.0833 C202.3021,88.2917 219.1447,81.2399 239.6968,76.292" style="stroke:#2FA4E7;stroke-width:3.125;" fill="none" id="Admin-to-UC2"/><polygon points="244.7604,75.0729,234.6706,73.2163,239.6968,76.292,236.6211,81.3182,244.7604,75.0729" fill="#2FA4E7" style="stroke:#2FA4E7;stroke-width:3.125;stroke-linejoin:miter;stroke-miterlimit:10;"/></g><!--link Admin to UC3--><g class="link" data-entity-1="ent0001" data-entity-2="ent0006" id="lnk15" data-source-line="26" data-link-type="dependency"><path d="M93.6771,345.0938 C107.3021,390.5313 135.7188,464.0417 185.6354,507.2917 C200.8125,520.4375 215.4548,527.7919 234.4235,533.844" style="stroke:#2FA4E7;stroke-width:3.125;" fill="none" id="Admin-to-UC3"/><polygon points="239.3854,535.4271,231.7205,528.6079,234.4235,533.844,229.1875,536.547,239.3854,535.4271" fill="#2FA4E7" style="stroke:#2FA4E7;stroke-width:3.125;stroke-linejoin:miter;stroke-miterlimit:10;"/></g><!--link Admin to UC4--><g class="link" data-entity-1="ent0001" data-entity-2="ent0007" id="lnk16" data-source-line="27" data-link-type="dependency"><path d="M109.3854,345.0417 C127.9063,370.7188 154.9271,403.0938 185.6354,423.9583 C202.2917,435.2708 217.3819,442.1551 236.2881,448.4571" style="stroke:#2FA4E7;stroke-width:3.125;" fill="none" id="Admin-to-UC4"/><polygon points="241.2292,450.1042,233.6529,443.1867,236.2881,448.4571,231.0176,451.0924,241.2292,450.1042" fill="#2FA4E7" style="stroke:#2FA4E7;stroke-width:3.125;stroke-linejoin:miter;stroke-miterlimit:10;"/></g><!--link Admin to UC5--><g class="link" data-entity-1="ent0001" data-entity-2="ent0008" id="lnk17" data-source-line="28" data-link-type="dependency"><path d="M127.0521,322.125 C145.1146,329.0104 166.3229,336.9375 185.6354,343.75 C208.1563,351.6979 228.2655,358.4003 249.6718,365.3587" style="stroke:#2FA4E7;stroke-width:3.125;" fill="none" id="Admin-to-UC5"/><polygon points="254.625,366.9688,246.9973,360.108,249.6718,365.3587,244.4211,368.0331,254.625,366.9688" fill="#2FA4E7" style="stroke:#2FA4E7;stroke-width:3.125;stroke-linejoin:miter;stroke-miterlimit:10;"/></g><!--link Admin to UC6--><g class="link" data-entity-1="ent0001" data-entity-2="ent0009" id="lnk18" data-source-line="29" data-link-type="dependency"><path d="M126.8958,305.2083 C153.0938,305.2083 182.1771,305.2083 213.75,305.2083" style="stroke:#2FA4E7;stroke-width:3.125;" fill="none" id="Admin-to-UC6"/><polygon points="218.9583,305.2083,209.5833,301.0417,213.75,305.2083,209.5833,309.375,218.9583,305.2083" fill="#2FA4E7" style="stroke:#2FA4E7;stroke-width:3.125;stroke-linejoin:miter;stroke-miterlimit:10;"/></g><!--link Admin to UC7--><g class="link" data-entity-1="ent0001" data-entity-2="ent0010" id="lnk19" data-source-line="30" data-link-type="dependency"><path d="M127.0833,288.3646 C145.1458,281.4896 166.3542,273.5521 185.6354,266.6667 C208.8021,258.3958 229.6944,251.2616 251.4756,244.0012" style="stroke:#2FA4E7;stroke-width:3.125;" fill="none" id="Admin-to-UC7"/><polygon points="256.4167,242.3542,246.2051,241.366,251.4756,244.0012,248.8404,249.2716,256.4167,242.3542" fill="#2FA4E7" style="stroke:#2FA4E7;stroke-width:3.125;stroke-linejoin:miter;stroke-miterlimit:10;"/></g><!--link RPi to UC8--><g class="link" data-entity-1="ent0002" data-entity-2="ent0011" id="lnk20" data-source-line="31" data-link-type="dependency"><path d="M148.4375,675.5313 C180.3854,680.9167 213.4055,686.4796 244.1764,691.6567" style="stroke:#2FA4E7;stroke-width:3.125;" fill="none" id="RPi-to-UC8"/><polygon points="249.3125,692.5208,240.7587,686.8565,244.1764,691.6567,239.3761,695.0743,249.3125,692.5208" fill="#2FA4E7" style="stroke:#2FA4E7;stroke-width:3.125;stroke-linejoin:miter;stroke-miterlimit:10;"/></g><!--link RPi to UC9--><g class="link" data-entity-1="ent0002" data-entity-2="ent0012" id="lnk21" data-source-line="32" data-link-type="dependency"><path d="M148.4375,653.9375 C174.3542,649.6979 199.2248,645.6233 226.0581,641.2274" style="stroke:#2FA4E7;stroke-width:3.125;" fill="none" id="RPi-to-UC9"/><polygon points="231.1979,640.3854,221.2726,637.7892,226.0581,641.2274,222.6198,646.0129,231.1979,640.3854" fill="#2FA4E7" style="stroke:#2FA4E7;stroke-width:3.125;stroke-linejoin:miter;stroke-miterlimit:10;"/></g><?plantuml-src ZL9DZnCn3BtdLvXoO5TBGUptSa1Q3O83YwYwAgTUF3FkDDfCKZb9gmeXxO_W5_9By6HJb44WCITx_Dwpd-DdOKqzGKCS3Q6TkXYCjgJyWxORPEoXnkQXOnTjMpdZ69v_I5-1y6jitKxR3bPeFAaNy5vZ9nM4LgJHEpy4qJiuMdo-EuQVZp_0ke2DTXOi1ht5ju1DS4mUJc35pWRYWMt0Qnz8b4v0T1gTEEHVAKEh0C41wsuTeDLCJP1ICLOIl0zxGu0xygulNMt45NRqL1wuQ3j3IYKIJ6xRNblfpEAC9z8Qqfz3UOv-KnFp7bx3Hmoqmtq2pMTQgTzgCBdFmulxIZonCp2xgoRmJO6iWsGr0fBAIdUHaI7sDQCX_t9frmDLzg4z4EXX7riqBdLPL6zA_bTY81zaqi5oH9D1ftyqyT44wJ48EzPebbR6wgdLJolDhBF_OJM7aKVKyxzJQKisEB-qUq23tEC1Vr7YvoIYJkumW-3ejlfqd96N_r1EheU9v4x8-lnKY-ggnCzYRNGZy8FN3BekGL_gG5QQZvmjhInKZZCJRjHtfT8Tm7JwBZr3cPsEihDHTZxABaRPvIYxKd94ERukufjV?></g></svg>