<svg xmlns="http://www.w3.org/2000/svg" xmlns:xlink="http://www.w3.org/1999/xlink" version="1.1" data-diagram-type="DESCRIPTION" style="width:463px;height:770px;background:#FFFFFF;" width="463px" height="770px" viewBox="0 0 463 770" zoomAndPan="magnify" preserveAspectRatio="none" contentStyleType="text/css"><?plantuml 1.2026.7beta3?><defs/><g><!--cluster Sistema de Control PLC--><g class="cluster" data-qualified-name="Sistema de Control PLC" id="ent0003" data-source-line="12"><rect x="202.25" y="12" width="247.09" height="744" fill="#FFFFFF" style="stroke:#000000;stroke-width:1;" rx="2.5" ry="2.5"/><text x="233.3424" y="26.9951" fill="#000000" font-size="14" lengthAdjust="spacing" textLength="184.9053" font-weight="700" font-family="Verdana">Sistema de Control PLC</text></g><!--entity UC1--><g class="entity" data-qualified-name="Sistema de Control PLC.UC1" id="ent0004" data-source-line="13"><ellipse cx="325.7878" cy="143.9959" rx="107.5478" ry="25.9759" fill="#FFFFFF" style="stroke:#000000;stroke-width:1;"/><text x="251.6316" y="140.597" fill="#000000" font-size="14" lengthAdjust="spacing" textLength="148.3125" font-family="Verdana">Configurar umbrales,</text><text x="252.5579" y="156.8939" fill="#000000" font-size="14" lengthAdjust="spacing" textLength="146.46" font-family="Verdana">histeresis e intervalo</text></g><!--entity UC2--><g class="entity" data-qualified-name="Sistema de Control PLC.UC2" id="ent0005" data-source-line="14"><ellipse cx="325.7903" cy="64.9961" rx="76.9303" ry="17.7861" fill="#FFFFFF" style="stroke:#000000;stroke-width:1;"/><text x="264.0994" y="69.6445" fill="#000000" font-size="14" lengthAdjust="spacing" textLength="123.3818" font-family="Verdana">Ver estado actual</text></g><!--entity UC3--><g class="entity" data-qualified-name="Sistema de Control PLC.UC3" id="ent0006" data-source-line="15"><ellipse cx="325.7863" cy="562.0041" rx="89.3363" ry="25.0241" fill="#FFFFFF" style="stroke:#000000;stroke-width:1;"/><text x="261.9011" y="559.9864" fill="#000000" font-size="14" lengthAdjust="spacing" textLength="127.7705" font-family="Verdana">Consultar historial</text><text x="274.8313" y="576.2833" fill="#000000" font-size="14" lengthAdjust="spacing" textLength="101.9102" font-family="Verdana">de mediciones</text></g><!--entity UC4--><g class="entity" data-qualified-name="Sistema de Control PLC.UC4" id="ent0007" data-source-line="16"><ellipse cx="325.7865" cy="475.999" rx="96.1065" ry="25.829" fill="#FFFFFF" style="stroke:#000000;stroke-width:1;"/><text x="261.9013" y="472.1887" fill="#000000" font-size="14" lengthAdjust="spacing" textLength="127.7705" font-family="Verdana">Consultar historial</text><text x="259.3207" y="488.4856" fill="#000000" font-size="14" lengthAdjust="spacing" textLength="132.9316" font-family="Verdana">de configuraciones</text></g><!--entity UC5--><g class="entity" data-qualified-name="Sistema de Control PLC.UC5" id="ent0008" data-source-line="17"><ellipse cx="325.7936" cy="391.0024" rx="85.4436" ry="24.1124" fill="#FFFFFF" style="stroke:#000000;stroke-width:1;"/><text x="262.1545" y="390.3775" fill="#000000" font-size="14" lengthAdjust="spacing" textLength="127.2783" font-family="Verdana">Consultar eventos</text><text x="291.2687" y="406.6743" fill="#000000" font-size="14" lengthAdjust="spacing" textLength="69.0498" font-family="Verdana">y alarmas</text></g><!--entity UC6--><g class="entity" data-qualified-name="Sistema de Control PLC.UC6" id="ent0009" data-source-line="18"><ellipse cx="325.7906" cy="309.9961" rx="97.9306" ry="21.9861" fill="#FFFFFF" style="stroke:#000000;stroke-width:1;"/><text x="240.0474" y="314.6446" fill="#000000" font-size="14" lengthAdjust="spacing" textLength="171.4863" font-family="Verdana">Reconocer alarma (ACK)</text></g><!--entity UC7--><g class="entity" data-qualified-name="Sistema de Control PLC.UC7" id="ent0010" data-source-line="19"><ellipse cx="325.7911" cy="228.9962" rx="80.7711" ry="24.3062" fill="#FFFFFF" style="stroke:#000000;stroke-width:1;"/><text x="266.3047" y="228.0684" fill="#000000" font-size="14" lengthAdjust="spacing" textLength="118.9727" font-family="Verdana">Consultar estado</text><text x="289.6734" y="244.3653" fill="#000000" font-size="14" lengthAdjust="spacing" textLength="72.2354" font-family="Verdana">del sensor</text></g><!--entity UC8--><g class="entity" data-qualified-name="Sistema de Control PLC.UC8" id="ent0011" data-source-line="20"><ellipse cx="325.7944" cy="722.0009" rx="77.4044" ry="17.8809" fill="#FFFFFF" style="stroke:#000000;stroke-width:1;"/><text x="263.5361" y="726.6493" fill="#000000" font-size="14" lengthAdjust="spacing" textLength="124.5166" font-family="Verdana">Publicar medicion</text></g><!--entity UC9--><g class="entity" data-qualified-name="Sistema de Control PLC.UC9" id="ent0012" data-source-line="21"><ellipse cx="325.7862" cy="646.0023" rx="101.8562" ry="23.5523" fill="#FFFFFF" style="stroke:#000000;stroke-width:1;"/><text x="247.3985" y="646.2768" fill="#000000" font-size="14" lengthAdjust="spacing" textLength="156.7754" font-family="Verdana">Obtener configuracion</text><text x="304.5265" y="662.5737" fill="#000000" font-size="14" lengthAdjust="spacing" textLength="42.5195" font-family="Verdana">activa</text></g><!--entity Admin--><g class="entity" data-qualified-name="Admin" id="ent0001" data-source-line="9"><ellipse cx="84.62" cy="287.85" rx="16" ry="16" fill="#FFFFFF" style="stroke:#000000;stroke-width:1;"/><path d="M84.62,307.85 C88.62,307.85 91.62,307.85 95.62,303.85 C103.62,303.85 111.62,311.85 111.62,319.85 L111.62,323.85 C111.62,327.85 107.62,331.85 103.62,331.85 L65.62,331.85 C61.62,331.85 57.62,327.85 57.62,323.85 L57.62,319.85 C57.62,311.85 65.62,303.85 73.62,303.85 C77.62,307.85 80.62,307.85 84.62,307.85" style="stroke:#000000;stroke-width:1;" fill="#FFFFFF"/><text x="35.08" y="345.8451" fill="#000000" font-size="14" lengthAdjust="spacing" textLength="99.0801" font-family="Verdana">Administrador</text></g><!--entity RPi--><g class="entity" data-qualified-name="RPi" id="ent0002" data-source-line="10"><ellipse cx="84.623" cy="661.85" rx="16" ry="16" fill="#FFFFFF" style="stroke:#000000;stroke-width:1;"/><path d="M84.623,681.85 C88.623,681.85 91.623,681.85 95.623,677.85 C103.623,677.85 111.623,685.85 111.623,693.85 L111.623,697.85 C111.623,701.85 107.623,705.85 103.623,705.85 L65.623,705.85 C61.623,705.85 57.623,701.85 57.623,697.85 L57.623,693.85 C57.623,685.85 65.623,677.85 73.623,677.85 C77.623,681.85 80.623,681.85 84.623,681.85" style="stroke:#000000;stroke-width:1;" fill="#FFFFFF"/><text x="11" y="719.8451" fill="#000000" font-size="14" lengthAdjust="spacing" textLength="147.2461" font-family="Verdana">Raspberry / Gateway</text></g><!--link Admin to UC1--><g class="link" data-entity-1="ent0001" data-entity-2="ent0004" id="lnk13" data-source-line="24" data-link-type="dependency"><path d="M112.02,270.35 C131.79,243.43 161.06,208.87 194.25,187 C210.18,176.49 224.1781,169.9654 242.3981,163.7454" style="stroke:#000000;stroke-width:1;" fill="none" id="Admin-to-UC1"/><polygon points="247.13,162.13,237.3203,161.2522,242.3981,163.7454,239.9049,168.8232,247.13,162.13" fill="#000000" style="stroke:#000000;stroke-width:1;stroke-linejoin:miter;stroke-miterlimit:10;"/></g><!--link Admin to UC2--><g class="link" data-entity-1="ent0001" data-entity-2="ent0005" id="lnk14" data-source-line="25" data-link-type="dependency"><path d="M95.62,270.72 C109.68,223.46 139.89,144.98 194.25,101 C211.79,86.8 229.6803,79.3661 251.2503,74.1461" style="stroke:#000000;stroke-width:1;" fill="none" id="Admin-to-UC2"/><polygon points="256.11,72.97,246.4217,71.1991,251.2503,74.1461,248.3034,78.9747,256.11,72.97" fill="#000000" style="stroke:#000000;stroke-width:1;stroke-linejoin:miter;stroke-miterlimit:10;"/></g><!--link Admin to UC3--><g class="link" data-entity-1="ent0001" data-entity-2="ent0006" id="lnk15" data-source-line="26" data-link-type="dependency"><path d="M96.11,349.25 C110.59,396.12 141.14,473.83 194.25,519 C210.15,532.53 225.6714,540.2951 245.4814,546.6851" style="stroke:#000000;stroke-width:1;" fill="none" id="Admin-to-UC3"/><polygon points="250.24,548.22,242.9025,541.6502,245.4814,546.6851,240.4466,549.264,250.24,548.22" fill="#000000" style="stroke:#000000;stroke-width:1;stroke-linejoin:miter;stroke-miterlimit:10;"/></g><!--link Admin to UC4--><g class="link" data-entity-1="ent0001" data-entity-2="ent0007" id="lnk16" data-source-line="27" data-link-type="dependency"><path d="M112.02,349.65 C131.79,376.57 161.06,411.13 194.25,433 C211.48,444.36 227.2174,451.3966 246.7974,457.7966" style="stroke:#000000;stroke-width:1;" fill="none" id="Admin-to-UC4"/><polygon points="251.55,459.35,244.2381,452.7518,246.7974,457.7966,241.7526,460.3559,251.55,459.35" fill="#000000" style="stroke:#000000;stroke-width:1;stroke-linejoin:miter;stroke-miterlimit:10;"/></g><!--link Admin to UC5--><g class="link" data-entity-1="ent0001" data-entity-2="ent0008" id="lnk17" data-source-line="28" data-link-type="dependency"><path d="M134.44,327.92 C153.1,334.67 174.61,342.32 194.25,349 C218.14,357.13 239.8661,364.2116 262.7061,371.4916" style="stroke:#000000;stroke-width:1;" fill="none" id="Admin-to-UC5"/><polygon points="267.47,373.01,260.1098,366.4657,262.7061,371.4916,257.6803,374.0879,267.47,373.01" fill="#000000" style="stroke:#000000;stroke-width:1;stroke-linejoin:miter;stroke-miterlimit:10;"/></g><!--link Admin to UC6--><g class="link" data-entity-1="ent0001" data-entity-2="ent0009" id="lnk18" data-source-line="29" data-link-type="dependency"><path d="M134.6,310 C161.39,310 190.54,310 222.49,310" style="stroke:#000000;stroke-width:1;" fill="none" id="Admin-to-UC6"/><polygon points="227.49,310,218.49,306,222.49,310,218.49,314,227.49,310" fill="#000000" style="stroke:#000000;stroke-width:1;stroke-linejoin:miter;stroke-miterlimit:10;"/></g><!--link Admin to UC7--><g class="link" data-entity-1="ent0001" data-entity-2="ent0010" id="lnk19" data-source-line="30" data-link-type="dependency"><path d="M134.44,292.08 C153.1,285.33 174.61,277.68 194.25,271 C218.59,262.72 240.8662,255.4686 263.9862,248.0986" style="stroke:#000000;stroke-width:1;" fill="none" id="Admin-to-UC7"/><polygon points="268.75,246.58,258.9603,245.5024,263.9862,248.0986,261.39,253.1245,268.75,246.58" fill="#000000" style="stroke:#000000;stroke-width:1;stroke-linejoin:miter;stroke-miterlimit:10;"/></g><!--link RPi to UC8--><g class="link" data-entity-1="ent0002" data-entity-2="ent0011" id="lnk20" data-source-line="31" data-link-type="dependency"><path d="M158.68,695.61 C191.38,700.8 224.632,706.0849 256.142,711.0949" style="stroke:#000000;stroke-width:1;" fill="none" id="RPi-to-UC8"/><polygon points="261.08,711.88,252.8197,706.5164,256.142,711.0949,251.5635,714.4172,261.08,711.88" fill="#000000" style="stroke:#000000;stroke-width:1;stroke-linejoin:miter;stroke-miterlimit:10;"/></g><!--link RPi to UC9--><g class="link" data-entity-1="ent0002" data-entity-2="ent0012" id="lnk21" data-source-line="32" data-link-type="dependency"><path d="M158.68,672.39 C184.65,668.27 209.142,664.3749 235.942,660.1149" style="stroke:#000000;stroke-width:1;" fill="none" id="RPi-to-UC9"/><polygon points="240.88,659.33,231.3637,656.7925,235.942,660.1149,232.6195,664.6933,240.88,659.33" fill="#000000" style="stroke:#000000;stroke-width:1;stroke-linejoin:miter;stroke-miterlimit:10;"/></g><?plantuml-src ZL9DZzD03BtFhp3bmAwM1R7Vom5f5GG75b5rLKwzE8cRMZkPgJoJLXL2sX_1B-INu4nJD44WaPCTl_Viv_6pkAAMO6sHdGcFxDOes4A9rMCZldDruQqNUFuXVHaYhB3sMtODBD46CY_WFMEZ5OIQeCBWGnzqmSFH_FFzCVny-W7EHwpOEt0OUODl0QleXGASm5AyYoGzsqBW44cLJa1rAauS2g-CfMM4w46uMKMeMQYAMih6Ie8FSMS9S4l1jvGLr-eA6zgNUowwnf8nYGIJkxfbfvr5dSb4MqFwSoZFCAnB4jd1Q_Y8aRQuIw3Pb8tvhGQJXs5uTL-e9_4MflV51BuPq7MGhaP1MbboqmaAT6qfQ2cyNBXLJzLzS002xlUnGUjJbtdn9kT_9G4AKIVjBNTe1z3P7qr2PwFsw8MzCDg5qx5Qgdc_qe5r_Z-iwZ3oY7hnTofjo4KV5cu7Q55QFE0lS_oCLDHNwcKFWgExujFnWBpwXt9otK-aTq8k34yrBwvp_BGhBLSAFtWTG3Svw4iPoMdpaRE5quNgSGw4M_FTc7G7S7hwBZr3dfsDilDHTZ7ABaVPrIYxDdf4GtoJnRU_0000?></g></svg>